//Event file generated from Sappy .s format.
        #include "MPlayDef.event"

        #define    SkyPeakPrairie_grp  voicegroup000
        #define    SkyPeakPrairie_pri  0
        #define    SkyPeakPrairie_rev  0
        #define    SkyPeakPrairie_key  0

        // .rodata
        // SkyPeakPrairie
        ALIGN 4

//****************** Track 0 (Midi-Chn.0) ******************//

SkyPeakPrairie_0:
        BYTE   KEYSH   SkyPeakPrairie_key+0
// 000   ----------------------------------------
        BYTE   TEMPO   120/2
        BYTE   W24
// 001   ----------------------------------------
        BYTE   TEMPO   90/2
        BYTE           VOL     50
        BYTE           VOICE   48
        BYTE           N72     Gn1   v127
        BYTE   W72
        BYTE                   Gn1
        BYTE   W24
// 002   ----------------------------------------
        BYTE   W48
        BYTE                   Gn1
        BYTE   W48
// 003   ----------------------------------------
SkyPeakPrairie_0_3:
        BYTE   W24
        BYTE           N72     Gn1   v127
        BYTE   W72
        BYTE   PEND
// 004   ----------------------------------------
SkyPeakPrairie_0_4:
        BYTE           N04     Gn1   v127
        BYTE   W18
        BYTE                   Dn1
        BYTE   W18
        BYTE                   Gn1
        BYTE   W18
        BYTE                   Dn1
        BYTE   W18
        BYTE                   Gn1
        BYTE   W18
        BYTE                   Dn1
        BYTE   W06
        BYTE   PEND
// 005   ----------------------------------------
SkyPeakPrairie_0_5:
        BYTE   W12
        BYTE           N04     Gn1   v127
        BYTE   W18
        BYTE                   Dn1
        BYTE   W18
        BYTE                   Gn1
        BYTE   W18
        BYTE                   Dn1
        BYTE   W18
        BYTE                   Gn1
        BYTE   W12
        BYTE   PEND
// 006   ----------------------------------------
SkyPeakPrairie_0_6:
        BYTE   W06
        BYTE           N04     Dn1   v127
        BYTE   W18
        BYTE                   Gn1
        BYTE   W18
        BYTE                   Dn1
        BYTE   W18
        BYTE                   Gn1
        BYTE   W18
        BYTE                   Dn1
        BYTE   W18
        BYTE   PEND
// 007   ----------------------------------------
        BYTE   PATT
         POIN2  SkyPeakPrairie_0_4
// 008   ----------------------------------------
        BYTE   PATT
         POIN2  SkyPeakPrairie_0_5
// 009   ----------------------------------------
        BYTE   PATT
         POIN2  SkyPeakPrairie_0_6
// 010   ----------------------------------------
SkyPeakPrairie_0_10:
        BYTE           N06     Cn2   v127
        BYTE   W36
        BYTE                   Cn2
        BYTE   W36
        BYTE                   Cn2
        BYTE   W24
        BYTE   PEND
// 011   ----------------------------------------
SkyPeakPrairie_0_11:
        BYTE   W12
        BYTE           N06     Cn2   v127
        BYTE   W36
        BYTE                   An1
        BYTE   W36
        BYTE                   An1
        BYTE   W12
        BYTE   PEND
// 012   ----------------------------------------
SkyPeakPrairie_0_12:
        BYTE   W24
        BYTE           N06     An1   v127
        BYTE   W36
        BYTE                   An1
        BYTE   W36
        BYTE   PEND
// 013   ----------------------------------------
SkyPeakPrairie_0_13:
        BYTE           N04     Cn2   v127
        BYTE   W12
        BYTE                   Cn2
        BYTE   W12
        BYTE                   Cn2
        BYTE   W12
        BYTE                   Cn2
        BYTE   W12
        BYTE                   Cn2
        BYTE   W12
        BYTE                   Cn2
        BYTE   W12
        BYTE                   Cn2
        BYTE   W12
        BYTE                   Cn2
        BYTE   W12
        BYTE   PEND
// 014   ----------------------------------------
SkyPeakPrairie_0_14:
        BYTE           N04     Cn2   v127
        BYTE   W12
        BYTE                   Cn2
        BYTE   W12
        BYTE                   Cn2
        BYTE   W12
        BYTE                   Cn2
        BYTE   W12
        BYTE                   An1
        BYTE   W12
        BYTE                   An1
        BYTE   W12
        BYTE                   An1
        BYTE   W12
        BYTE                   An1
        BYTE   W12
        BYTE   PEND
// 015   ----------------------------------------
SkyPeakPrairie_0_15:
        BYTE           N04     An1   v127
        BYTE   W12
        BYTE                   An1
        BYTE   W12
        BYTE                   An1
        BYTE   W12
        BYTE                   An1
        BYTE   W12
        BYTE                   An1
        BYTE   W12
        BYTE                   An1
        BYTE   W12
        BYTE                   An1
        BYTE   W12
        BYTE                   An1
        BYTE   W12
        BYTE   PEND
// 016   ----------------------------------------
        BYTE           TIE     Fn1
        BYTE   W96
// 017   ----------------------------------------
SkyPeakPrairie_0_17:
        BYTE   W48
        BYTE           EOT     Fn1
        BYTE           N72     Dn1   v127
        BYTE   W48
        BYTE   PEND
// 018   ----------------------------------------
        BYTE   PATT
         POIN2  SkyPeakPrairie_0_3
// 019   ----------------------------------------
SkyPeakPrairie_0_19:
        BYTE           N06     Fn2   v127
        BYTE   W12
        BYTE                   Fn2
        BYTE   W12
        BYTE                   Fn2
        BYTE   W12
        BYTE                   En2
        BYTE   W12
        BYTE                   En2
        BYTE   W12
        BYTE                   En2
        BYTE   W12
        BYTE                   Dn2
        BYTE   W12
        BYTE                   Dn2
        BYTE   W12
        BYTE   PEND
// 020   ----------------------------------------
SkyPeakPrairie_0_20:
        BYTE           N06     Dn2   v127
        BYTE   W12
        BYTE                   Cn2
        BYTE   W12
        BYTE                   Cn2
        BYTE   W12
        BYTE                   Cn2
        BYTE   W12
        BYTE                   Fn2
        BYTE   W12
        BYTE                   Fn2
        BYTE   W12
        BYTE                   Fn2
        BYTE   W12
        BYTE                   En2
        BYTE   W12
        BYTE   PEND
// 021   ----------------------------------------
SkyPeakPrairie_0_21:
        BYTE           N06     En2   v127
        BYTE   W12
        BYTE                   En2
        BYTE   W12
        BYTE                   Dn2
        BYTE   W12
        BYTE                   Dn2
        BYTE   W12
        BYTE                   Dn2
        BYTE   W12
        BYTE                   Cn2
        BYTE   W12
        BYTE                   Cn2
        BYTE   W12
        BYTE                   Cn2
        BYTE   W12
        BYTE   PEND
// 022   ----------------------------------------
        BYTE   PATT
         POIN2  SkyPeakPrairie_0_19
// 023   ----------------------------------------
        BYTE   PATT
         POIN2  SkyPeakPrairie_0_20
// 024   ----------------------------------------
SkyPeakPrairie_0_24:
        BYTE           N06     En2   v127
        BYTE   W12
        BYTE                   En2
        BYTE   W12
        BYTE                   Dn2
        BYTE   W12
        BYTE                   Dn2
        BYTE   W12
        BYTE                   Dn2
        BYTE   W12
        BYTE                   Gn2
        BYTE   W12
        BYTE                   Gn2
        BYTE   W12
        BYTE                   Gn2
        BYTE   W12
        BYTE   PEND
// 025   ----------------------------------------
SkyPeakPrairie_0_25:
        BYTE           N06     Cn2   v127
        BYTE   W60
        BYTE                   Cn2
        BYTE   W12
        BYTE                   Cn2
        BYTE   W24
        BYTE   PEND
// 026   ----------------------------------------
SkyPeakPrairie_0_26:
        BYTE   W36
        BYTE           N06     Cn2   v127
        BYTE   W12
        BYTE                   Cn2
        BYTE   W48
        BYTE   PEND
// 027   ----------------------------------------
SkyPeakPrairie_0_27:
        BYTE   W12
        BYTE           N06     Cn2   v127
        BYTE   W12
        BYTE                   Cn2
        BYTE   W60
        BYTE                   Cn2
        BYTE   W12
        BYTE   PEND
// 028   ----------------------------------------
SkyPeakPrairie_0_28:
        BYTE           N06     Gn2   v127
        BYTE   W60
        BYTE                   Gn2
        BYTE   W12
        BYTE                   Gn2
        BYTE   W24
        BYTE   PEND
// 029   ----------------------------------------
SkyPeakPrairie_0_29:
        BYTE   W36
        BYTE           N06     Gn2   v127
        BYTE   W12
        BYTE                   Gn2
        BYTE   W48
        BYTE   PEND
// 030   ----------------------------------------
SkyPeakPrairie_0_30:
        BYTE   W12
        BYTE           N06     Gn2   v127
        BYTE   W12
        BYTE                   Gn2
        BYTE   W60
        BYTE                   Gn2
        BYTE   W12
        BYTE   PEND
// 031   ----------------------------------------
SkyPeakPrairie_0_LOOP:
        BYTE           N04     Gn1   v127
        BYTE   W18
        BYTE                   Dn1
        BYTE   W18
        BYTE                   Gn1
        BYTE   W18
        BYTE                   Dn1
        BYTE   W18
        BYTE                   Gn1
        BYTE   W18
        BYTE                   Dn1
        BYTE   W06
// 032   ----------------------------------------
        BYTE   PATT
         POIN2  SkyPeakPrairie_0_5
// 033   ----------------------------------------
        BYTE   PATT
         POIN2  SkyPeakPrairie_0_6
// 034   ----------------------------------------
        BYTE   PATT
         POIN2  SkyPeakPrairie_0_4
// 035   ----------------------------------------
        BYTE   PATT
         POIN2  SkyPeakPrairie_0_5
// 036   ----------------------------------------
        BYTE   PATT
         POIN2  SkyPeakPrairie_0_6
// 037   ----------------------------------------
        BYTE   PATT
         POIN2  SkyPeakPrairie_0_10
// 038   ----------------------------------------
        BYTE   PATT
         POIN2  SkyPeakPrairie_0_11
// 039   ----------------------------------------
        BYTE   PATT
         POIN2  SkyPeakPrairie_0_12
// 040   ----------------------------------------
        BYTE   PATT
         POIN2  SkyPeakPrairie_0_13
// 041   ----------------------------------------
        BYTE   PATT
         POIN2  SkyPeakPrairie_0_14
// 042   ----------------------------------------
        BYTE   PATT
         POIN2  SkyPeakPrairie_0_15
// 043   ----------------------------------------
        BYTE           TIE     Fn1   v127
        BYTE   W96
// 044   ----------------------------------------
        BYTE   PATT
         POIN2  SkyPeakPrairie_0_17
// 045   ----------------------------------------
        BYTE   PATT
         POIN2  SkyPeakPrairie_0_3
// 046   ----------------------------------------
        BYTE   PATT
         POIN2  SkyPeakPrairie_0_19
// 047   ----------------------------------------
        BYTE   PATT
         POIN2  SkyPeakPrairie_0_20
// 048   ----------------------------------------
        BYTE   PATT
         POIN2  SkyPeakPrairie_0_21
// 049   ----------------------------------------
        BYTE   PATT
         POIN2  SkyPeakPrairie_0_19
// 050   ----------------------------------------
        BYTE   PATT
         POIN2  SkyPeakPrairie_0_20
// 051   ----------------------------------------
        BYTE   PATT
         POIN2  SkyPeakPrairie_0_24
// 052   ----------------------------------------
        BYTE   PATT
         POIN2  SkyPeakPrairie_0_25
// 053   ----------------------------------------
        BYTE   PATT
         POIN2  SkyPeakPrairie_0_26
// 054   ----------------------------------------
        BYTE   PATT
         POIN2  SkyPeakPrairie_0_27
// 055   ----------------------------------------
        BYTE   PATT
         POIN2  SkyPeakPrairie_0_28
// 056   ----------------------------------------
        BYTE   PATT
         POIN2  SkyPeakPrairie_0_29
// 057   ----------------------------------------
        BYTE   PATT
         POIN2  SkyPeakPrairie_0_30
// 058   ----------------------------------------
        BYTE   GoTo
         POIN2  SkyPeakPrairie_0_LOOP
        BYTE   FINE

//****************** Track 1 (Midi-Chn.1) ******************//

SkyPeakPrairie_1:
        BYTE   KEYSH   SkyPeakPrairie_key+0
// 000   ----------------------------------------
        BYTE   W24
// 001   ----------------------------------------
        BYTE           PAN     c_v-34
        BYTE           VOL     39
        BYTE           VOICE   48
        BYTE           N04     Gn3   v127
        BYTE   W06
        BYTE                   Gn3   v070
        BYTE   W06
        BYTE                   Dn3   v127
        BYTE   W06
        BYTE                   Dn3   v070
        BYTE   W06
        BYTE                   An3   v127
        BYTE   W06
        BYTE                   An3   v070
        BYTE   W06
        BYTE                   Bn3   v127
        BYTE   W06
        BYTE                   Bn3   v070
        BYTE   W06
        BYTE                   Dn3   v127
        BYTE   W06
        BYTE                   Dn3   v070
        BYTE   W06
        BYTE                   An3   v127
        BYTE   W06
        BYTE                   An3   v070
        BYTE   W06
        BYTE                   Gn3   v127
        BYTE   W06
        BYTE                   Gn3   v070
        BYTE   W06
        BYTE                   Dn3   v127
        BYTE   W06
        BYTE                   Dn3   v070
        BYTE   W06
// 002   ----------------------------------------
SkyPeakPrairie_1_2:
        BYTE           N04     An3   v127
        BYTE   W06
        BYTE                   An3   v070
        BYTE   W06
        BYTE                   Bn3   v127
        BYTE   W06
        BYTE                   Bn3   v070
        BYTE   W06
        BYTE                   Dn3   v127
        BYTE   W06
        BYTE                   Dn3   v070
        BYTE   W06
        BYTE                   An3   v127
        BYTE   W06
        BYTE                   An3   v070
        BYTE   W06
        BYTE                   Gn3   v127
        BYTE   W06
        BYTE                   Gn3   v070
        BYTE   W06
        BYTE                   Dn3   v127
        BYTE   W06
        BYTE                   Dn3   v070
        BYTE   W06
        BYTE                   An3   v127
        BYTE   W06
        BYTE                   An3   v070
        BYTE   W06
        BYTE                   Bn3   v127
        BYTE   W06
        BYTE                   Bn3   v070
        BYTE   W06
        BYTE   PEND
// 003   ----------------------------------------
SkyPeakPrairie_1_3:
        BYTE           N04     Dn3   v127
        BYTE   W06
        BYTE                   Dn3   v070
        BYTE   W06
        BYTE                   An3   v127
        BYTE   W06
        BYTE                   An3   v070
        BYTE   W06
        BYTE                   Gn3   v127
        BYTE   W06
        BYTE                   Gn3   v070
        BYTE   W06
        BYTE                   Dn3   v127
        BYTE   W06
        BYTE                   Dn3   v070
        BYTE   W06
        BYTE                   An3   v127
        BYTE   W06
        BYTE                   An3   v070
        BYTE   W06
        BYTE                   Bn3   v127
        BYTE   W06
        BYTE                   Bn3   v070
        BYTE   W06
        BYTE                   Dn3   v127
        BYTE   W06
        BYTE                   Dn3   v070
        BYTE   W06
        BYTE                   An3   v127
        BYTE   W06
        BYTE                   An3   v070
        BYTE   W06
        BYTE   PEND
// 004   ----------------------------------------
SkyPeakPrairie_1_4:
        BYTE           N04     Gn3   v127
        BYTE   W06
        BYTE                   Gn3   v070
        BYTE   W06
        BYTE                   Dn3   v127
        BYTE   W06
        BYTE                   Dn3   v070
        BYTE   W06
        BYTE                   An3   v127
        BYTE   W06
        BYTE                   An3   v070
        BYTE   W06
        BYTE                   Bn3   v127
        BYTE   W06
        BYTE                   Bn3   v070
        BYTE   W06
        BYTE                   Dn3   v127
        BYTE   W06
        BYTE                   Dn3   v070
        BYTE   W06
        BYTE                   An3   v127
        BYTE   W06
        BYTE                   An3   v070
        BYTE   W06
        BYTE                   Gn3   v127
        BYTE   W06
        BYTE                   Gn3   v070
        BYTE   W06
        BYTE                   Dn3   v127
        BYTE   W06
        BYTE                   Dn3   v070
        BYTE   W06
        BYTE   PEND
// 005   ----------------------------------------
        BYTE   PATT
         POIN2  SkyPeakPrairie_1_2
// 006   ----------------------------------------
        BYTE   PATT
         POIN2  SkyPeakPrairie_1_3
// 007   ----------------------------------------
        BYTE   PATT
         POIN2  SkyPeakPrairie_1_4
// 008   ----------------------------------------
        BYTE   PATT
         POIN2  SkyPeakPrairie_1_2
// 009   ----------------------------------------
        BYTE   PATT
         POIN2  SkyPeakPrairie_1_3
// 010   ----------------------------------------
SkyPeakPrairie_1_10:
        BYTE   W12
        BYTE           N04     Gn3   v127
        BYTE   W06
        BYTE                   Gn3   v070
        BYTE   W06
        BYTE                   Gn3   v127
        BYTE   W06
        BYTE                   Gn3   v070
        BYTE   W18
        BYTE                   Fs3   v127
        BYTE   W06
        BYTE                   Fs3   v070
        BYTE   W06
        BYTE                   Fs3   v127
        BYTE   W06
        BYTE                   Fs3   v070
        BYTE   W18
        BYTE                   Gn3   v127
        BYTE   W06
        BYTE                   Gn3   v070
        BYTE   W06
        BYTE   PEND
// 011   ----------------------------------------
SkyPeakPrairie_1_11:
        BYTE           N04     Gn3   v127
        BYTE   W06
        BYTE                   Gn3   v070
        BYTE   W18
        BYTE                   Fs3   v127
        BYTE   W06
        BYTE                   Fs3   v070
        BYTE   W06
        BYTE                   Fs3   v127
        BYTE   W06
        BYTE                   Fs3   v070
        BYTE   W18
        BYTE                   Gn3   v127
        BYTE   W06
        BYTE                   Gn3   v070
        BYTE   W06
        BYTE                   Gn3   v127
        BYTE   W06
        BYTE                   Gn3   v070
        BYTE   W18
        BYTE   PEND
// 012   ----------------------------------------
SkyPeakPrairie_1_12:
        BYTE           N04     Fs3   v127
        BYTE   W06
        BYTE                   Fs3   v070
        BYTE   W06
        BYTE                   Fs3   v127
        BYTE   W06
        BYTE                   Fs3   v070
        BYTE   W18
        BYTE                   Gn3   v127
        BYTE   W06
        BYTE                   Gn3   v070
        BYTE   W06
        BYTE                   Gn3   v127
        BYTE   W06
        BYTE                   Gn3   v070
        BYTE   W18
        BYTE                   Fs3   v127
        BYTE   W06
        BYTE                   Fs3   v070
        BYTE   W06
        BYTE                   Fs3   v127
        BYTE   W06
        BYTE                   Fs3   v070
        BYTE   W06
        BYTE   PEND
// 013   ----------------------------------------
        BYTE   PATT
         POIN2  SkyPeakPrairie_1_10
// 014   ----------------------------------------
        BYTE   PATT
         POIN2  SkyPeakPrairie_1_11
// 015   ----------------------------------------
        BYTE   PATT
         POIN2  SkyPeakPrairie_1_12
// 016   ----------------------------------------
SkyPeakPrairie_1_16:
        BYTE   W12
        BYTE           N04     Cn3   v127
        BYTE   W06
        BYTE                   Cn3   v070
        BYTE   W06
        BYTE                   Cn3   v127
        BYTE   W06
        BYTE                   Cn3   v070
        BYTE   W18
        BYTE                   Dn3   v127
        BYTE   W06
        BYTE                   Dn3   v070
        BYTE   W06
        BYTE                   Dn3   v127
        BYTE   W06
        BYTE                   Dn3   v070
        BYTE   W18
        BYTE                   En3   v127
        BYTE   W06
        BYTE                   En3   v070
        BYTE   W06
        BYTE   PEND
// 017   ----------------------------------------
SkyPeakPrairie_1_17:
        BYTE           N04     En3   v127
        BYTE   W06
        BYTE                   En3   v070
        BYTE   W18
        BYTE                   Dn3   v127
        BYTE   W06
        BYTE                   Dn3   v070
        BYTE   W06
        BYTE                   Dn3   v127
        BYTE   W06
        BYTE                   Dn3   v070
        BYTE   W18
        BYTE                   Fn3   v127
        BYTE   W06
        BYTE                   Fn3   v070
        BYTE   W06
        BYTE                   Fn3   v127
        BYTE   W06
        BYTE                   Fn3   v070
        BYTE   W18
        BYTE   PEND
// 018   ----------------------------------------
SkyPeakPrairie_1_18:
        BYTE           N04     Fn3   v127
        BYTE   W06
        BYTE                   Fn3   v070
        BYTE   W06
        BYTE                   Fn3   v127
        BYTE   W06
        BYTE                   Fn3   v070
        BYTE   W18
        BYTE                   Fn3   v127
        BYTE   W06
        BYTE                   Fn3   v070
        BYTE   W06
        BYTE                   Fn3   v127
        BYTE   W06
        BYTE                   Fn3   v070
        BYTE   W06
        BYTE           N06     Bn3   v127
        BYTE   W06
        BYTE                   Cn4
        BYTE   W06
        BYTE                   Dn4
        BYTE   W06
        BYTE                   En4
        BYTE   W06
        BYTE                   Fn4
        BYTE   W06
        BYTE                   Gn4
        BYTE   W06
        BYTE   PEND
// 019   ----------------------------------------
SkyPeakPrairie_1_19:
        BYTE           N06     An4   v127
        BYTE   W06
        BYTE                   An4   v064
        BYTE   W06
        BYTE           N12     An4   v127
        BYTE   W12
        BYTE           N06     Gn4
        BYTE   W06
        BYTE                   Fn4
        BYTE   W06
        BYTE           N12     Gn4
        BYTE   W12
        BYTE           N06     Cn5
        BYTE   W06
        BYTE                   Cn5   v064
        BYTE   W06
        BYTE                   Cn4   v127
        BYTE   W06
        BYTE                   An4
        BYTE   W06
        BYTE           N18     Gn4
        BYTE   W18
        BYTE           N06     Cn4
        BYTE   W06
        BYTE   PEND
// 020   ----------------------------------------
SkyPeakPrairie_1_20:
        BYTE           N06     Dn4   v127
        BYTE   W06
        BYTE                   Gn3
        BYTE   W06
        BYTE                   En4
        BYTE   W06
        BYTE                   Fn4
        BYTE   W06
        BYTE           N18     Gn4
        BYTE   W18
        BYTE           N06     Gn4   v064
        BYTE   W06
        BYTE                   An4   v127
        BYTE   W06
        BYTE                   An4   v064
        BYTE   W06
        BYTE           N12     An4   v127
        BYTE   W12
        BYTE           N06     Gn4
        BYTE   W06
        BYTE                   Fn4
        BYTE   W06
        BYTE           N12     Gn4
        BYTE   W12
        BYTE   PEND
// 021   ----------------------------------------
SkyPeakPrairie_1_21:
        BYTE           N06     Cn5   v127
        BYTE   W06
        BYTE                   Cn5   v064
        BYTE   W06
        BYTE                   Cn4   v127
        BYTE   W06
        BYTE                   An4
        BYTE   W06
        BYTE           N18     Gn4
        BYTE   W18
        BYTE           N06     Cn4
        BYTE   W06
        BYTE                   Cn4
        BYTE   W06
        BYTE                   Dn4
        BYTE   W06
        BYTE                   En4
        BYTE   W06
        BYTE                   Fn4
        BYTE   W06
        BYTE                   En4
        BYTE   W06
        BYTE                   Dn4
        BYTE   W06
        BYTE                   Cn4
        BYTE   W06
        BYTE                   Gn3
        BYTE   W06
        BYTE   PEND
// 022   ----------------------------------------
        BYTE   PATT
         POIN2  SkyPeakPrairie_1_19
// 023   ----------------------------------------
        BYTE   PATT
         POIN2  SkyPeakPrairie_1_20
// 024   ----------------------------------------
SkyPeakPrairie_1_24:
        BYTE           N06     Cn5   v127
        BYTE   W06
        BYTE                   Cn5   v064
        BYTE   W06
        BYTE                   Cn5   v127
        BYTE   W06
        BYTE                   Dn5
        BYTE   W06
        BYTE                   En5
        BYTE   W06
        BYTE                   Fn5
        BYTE   W06
        BYTE                   En5
        BYTE   W06
        BYTE           N12     Dn5
        BYTE   W12
        BYTE           N06     An4
        BYTE   W06
        BYTE           N24     Dn5
        BYTE   W24
        BYTE           N06     Dn5   v064
        BYTE   W06
        BYTE                   Dn5   v055
        BYTE   W06
        BYTE   PEND
// 025   ----------------------------------------
SkyPeakPrairie_1_25:
        BYTE           N06     Cn4   v127
        BYTE   W06
        BYTE                   Gn3
        BYTE   W06
        BYTE                   Bn3
        BYTE   W06
        BYTE                   Gn3
        BYTE   W06
        BYTE                   Cn4
        BYTE   W06
        BYTE                   Gn3
        BYTE   W06
        BYTE                   Bn3
        BYTE   W06
        BYTE                   Gn3
        BYTE   W06
        BYTE                   Cn4
        BYTE   W06
        BYTE                   Gn3
        BYTE   W06
        BYTE                   Bn3
        BYTE   W06
        BYTE                   Gn3
        BYTE   W06
        BYTE                   Cn4
        BYTE   W06
        BYTE                   Gn3
        BYTE   W06
        BYTE                   Bn3
        BYTE   W06
        BYTE                   Gn3
        BYTE   W06
        BYTE   PEND
// 026   ----------------------------------------
SkyPeakPrairie_1_26:
        BYTE           N06     Cn4   v127
        BYTE   W06
        BYTE                   Gn3
        BYTE   W06
        BYTE                   An3
        BYTE   W06
        BYTE                   En4
        BYTE   W06
        BYTE                   Dn4
        BYTE   W06
        BYTE                   Gn3
        BYTE   W06
        BYTE                   Bn3
        BYTE   W06
        BYTE                   Gn3
        BYTE   W06
        BYTE                   Cn4
        BYTE   W06
        BYTE                   Gn3
        BYTE   W06
        BYTE                   Bn3
        BYTE   W06
        BYTE                   Gn3
        BYTE   W06
        BYTE                   Cn4
        BYTE   W06
        BYTE                   Gn3
        BYTE   W06
        BYTE                   Bn3
        BYTE   W06
        BYTE                   Gn3
        BYTE   W06
        BYTE   PEND
// 027   ----------------------------------------
SkyPeakPrairie_1_27:
        BYTE           N06     Cn4   v127
        BYTE   W06
        BYTE                   Gn3
        BYTE   W06
        BYTE                   Bn3
        BYTE   W06
        BYTE                   Gn3
        BYTE   W06
        BYTE                   Cn4
        BYTE   W06
        BYTE                   Gn3
        BYTE   W06
        BYTE                   Bn3
        BYTE   W06
        BYTE                   Gn3
        BYTE   W06
        BYTE                   Cn4
        BYTE   W06
        BYTE                   Gn3
        BYTE   W06
        BYTE                   An3
        BYTE   W06
        BYTE                   En4
        BYTE   W06
        BYTE                   Dn4
        BYTE   W06
        BYTE                   Gn3
        BYTE   W06
        BYTE                   Bn3
        BYTE   W06
        BYTE                   Gn3
        BYTE   W06
        BYTE   PEND
// 028   ----------------------------------------
SkyPeakPrairie_1_28:
        BYTE           N06     Gn3   v127
        BYTE   W06
        BYTE                   Dn3
        BYTE   W06
        BYTE                   Fs3
        BYTE   W06
        BYTE                   Dn3
        BYTE   W06
        BYTE                   Gn3
        BYTE   W06
        BYTE                   Dn3
        BYTE   W06
        BYTE                   Fs3
        BYTE   W06
        BYTE                   Dn3
        BYTE   W06
        BYTE                   Gn3
        BYTE   W06
        BYTE                   Dn3
        BYTE   W06
        BYTE                   Fs3
        BYTE   W06
        BYTE                   Dn3
        BYTE   W06
        BYTE                   Gn3
        BYTE   W06
        BYTE                   Dn3
        BYTE   W06
        BYTE                   Fs3
        BYTE   W06
        BYTE                   Dn3
        BYTE   W06
        BYTE   PEND
// 029   ----------------------------------------
SkyPeakPrairie_1_29:
        BYTE           N06     Gn3   v127
        BYTE   W06
        BYTE                   Dn3
        BYTE   W06
        BYTE                   En3
        BYTE   W06
        BYTE                   Bn3
        BYTE   W06
        BYTE                   An3
        BYTE   W06
        BYTE                   Dn3
        BYTE   W06
        BYTE                   Fs3
        BYTE   W06
        BYTE                   Dn3
        BYTE   W06
        BYTE                   Gn3
        BYTE   W06
        BYTE                   Dn3
        BYTE   W06
        BYTE                   Fs3
        BYTE   W06
        BYTE                   Dn3
        BYTE   W06
        BYTE                   Gn3
        BYTE   W06
        BYTE                   Dn3
        BYTE   W06
        BYTE                   Fs3
        BYTE   W06
        BYTE                   Dn3
        BYTE   W06
        BYTE   PEND
// 030   ----------------------------------------
SkyPeakPrairie_1_30:
        BYTE           N06     Gn3   v127
        BYTE   W06
        BYTE                   Dn3
        BYTE   W06
        BYTE                   Fs3
        BYTE   W06
        BYTE                   Dn3
        BYTE   W06
        BYTE                   Gn3
        BYTE   W06
        BYTE                   Dn3
        BYTE   W06
        BYTE                   Fs3
        BYTE   W06
        BYTE                   Dn3
        BYTE   W06
        BYTE                   Gn3
        BYTE   W06
        BYTE                   Dn3
        BYTE   W06
        BYTE                   En3
        BYTE   W06
        BYTE                   Bn3
        BYTE   W06
        BYTE                   An3
        BYTE   W06
        BYTE                   Dn3
        BYTE   W06
        BYTE                   Fs3
        BYTE   W06
        BYTE                   Dn3
        BYTE   W06
        BYTE   PEND
// 031   ----------------------------------------
SkyPeakPrairie_1_LOOP:
        BYTE           N04     Gn3   v127
        BYTE   W06
        BYTE                   Gn3   v070
        BYTE   W06
        BYTE                   Dn3   v127
        BYTE   W06
        BYTE                   Dn3   v070
        BYTE   W06
        BYTE                   An3   v127
        BYTE   W06
        BYTE                   An3   v070
        BYTE   W06
        BYTE                   Bn3   v127
        BYTE   W06
        BYTE                   Bn3   v070
        BYTE   W06
        BYTE                   Dn3   v127
        BYTE   W06
        BYTE                   Dn3   v070
        BYTE   W06
        BYTE                   An3   v127
        BYTE   W06
        BYTE                   An3   v070
        BYTE   W06
        BYTE                   Gn3   v127
        BYTE   W06
        BYTE                   Gn3   v070
        BYTE   W06
        BYTE                   Dn3   v127
        BYTE   W06
        BYTE                   Dn3   v070
        BYTE   W06
// 032   ----------------------------------------
        BYTE   PATT
         POIN2  SkyPeakPrairie_1_2
// 033   ----------------------------------------
        BYTE   PATT
         POIN2  SkyPeakPrairie_1_3
// 034   ----------------------------------------
        BYTE   PATT
         POIN2  SkyPeakPrairie_1_4
// 035   ----------------------------------------
        BYTE   PATT
         POIN2  SkyPeakPrairie_1_2
// 036   ----------------------------------------
        BYTE   PATT
         POIN2  SkyPeakPrairie_1_3
// 037   ----------------------------------------
        BYTE   PATT
         POIN2  SkyPeakPrairie_1_10
// 038   ----------------------------------------
        BYTE   PATT
         POIN2  SkyPeakPrairie_1_11
// 039   ----------------------------------------
        BYTE   PATT
         POIN2  SkyPeakPrairie_1_12
// 040   ----------------------------------------
        BYTE   PATT
         POIN2  SkyPeakPrairie_1_10
// 041   ----------------------------------------
        BYTE   PATT
         POIN2  SkyPeakPrairie_1_11
// 042   ----------------------------------------
        BYTE   PATT
         POIN2  SkyPeakPrairie_1_12
// 043   ----------------------------------------
        BYTE   PATT
         POIN2  SkyPeakPrairie_1_16
// 044   ----------------------------------------
        BYTE   PATT
         POIN2  SkyPeakPrairie_1_17
// 045   ----------------------------------------
        BYTE   PATT
         POIN2  SkyPeakPrairie_1_18
// 046   ----------------------------------------
        BYTE   PATT
         POIN2  SkyPeakPrairie_1_19
// 047   ----------------------------------------
        BYTE   PATT
         POIN2  SkyPeakPrairie_1_20
// 048   ----------------------------------------
        BYTE   PATT
         POIN2  SkyPeakPrairie_1_21
// 049   ----------------------------------------
        BYTE   PATT
         POIN2  SkyPeakPrairie_1_19
// 050   ----------------------------------------
        BYTE   PATT
         POIN2  SkyPeakPrairie_1_20
// 051   ----------------------------------------
        BYTE   PATT
         POIN2  SkyPeakPrairie_1_24
// 052   ----------------------------------------
        BYTE   PATT
         POIN2  SkyPeakPrairie_1_25
// 053   ----------------------------------------
        BYTE   PATT
         POIN2  SkyPeakPrairie_1_26
// 054   ----------------------------------------
        BYTE   PATT
         POIN2  SkyPeakPrairie_1_27
// 055   ----------------------------------------
        BYTE   PATT
         POIN2  SkyPeakPrairie_1_28
// 056   ----------------------------------------
        BYTE   PATT
         POIN2  SkyPeakPrairie_1_29
// 057   ----------------------------------------
        BYTE   PATT
         POIN2  SkyPeakPrairie_1_30
// 058   ----------------------------------------
        BYTE   GoTo
         POIN2  SkyPeakPrairie_1_LOOP
        BYTE   FINE

//****************** Track 2 (Midi-Chn.2) ******************//

SkyPeakPrairie_2:
        BYTE   KEYSH   SkyPeakPrairie_key+0
// 000   ----------------------------------------
        BYTE   W24
// 001   ----------------------------------------
        BYTE           VOL     44
        BYTE           VOICE   40
        BYTE   W96
// 002   ----------------------------------------
        BYTE   W96
// 003   ----------------------------------------
SkyPeakPrairie_2_3:
        BYTE   W84
        BYTE           N06     Bn2   v127
        BYTE   W06
        BYTE                   Cn3
        BYTE   W06
        BYTE   PEND
// 004   ----------------------------------------
        BYTE           N24     Dn3
        BYTE   W24
        BYTE           N06     En3
        BYTE   W06
        BYTE                   Fs3
        BYTE   W06
        BYTE           N24     En3
        BYTE   W36
        BYTE                   Fs3
        BYTE   W24
// 005   ----------------------------------------
SkyPeakPrairie_2_5:
        BYTE           N06     Gn3   v127
        BYTE   W06
        BYTE                   Fs3
        BYTE   W06
        BYTE           N24     En3
        BYTE   W36
        BYTE                   Dn3
        BYTE   W24
        BYTE           N06     En3
        BYTE   W06
        BYTE                   Fs3
        BYTE   W06
        BYTE           N24     En3
        BYTE   W12
        BYTE   PEND
// 006   ----------------------------------------
SkyPeakPrairie_2_6:
        BYTE   W24
        BYTE           N24     Fs3   v127
        BYTE   W24
        BYTE           N06     Gn3
        BYTE   W06
        BYTE                   An3
        BYTE   W06
        BYTE           N18     Bn3
        BYTE   W24
        BYTE           N06
        BYTE   W06
        BYTE                   Cn4
        BYTE   W06
        BYTE   PEND
// 007   ----------------------------------------
SkyPeakPrairie_2_7:
        BYTE           N24     Dn4   v127
        BYTE   W24
        BYTE           N06     Gn3
        BYTE   W06
        BYTE                   Fs3
        BYTE   W06
        BYTE           N12     Gn3
        BYTE   W12
        BYTE                   Dn4
        BYTE   W12
        BYTE                   Gn3
        BYTE   W12
        BYTE           N24     En4
        BYTE   W24
        BYTE   PEND
// 008   ----------------------------------------
SkyPeakPrairie_2_8:
        BYTE           N06     Gn3   v127
        BYTE   W06
        BYTE                   Fs3
        BYTE   W06
        BYTE           N12     Gn3
        BYTE   W12
        BYTE                   Dn4
        BYTE   W12
        BYTE                   Gn3
        BYTE   W12
        BYTE           N24     Fs4
        BYTE   W24
        BYTE           N06     Gn3
        BYTE   W06
        BYTE                   Fs3
        BYTE   W06
        BYTE           N12     Gn3
        BYTE   W12
        BYTE   PEND
// 009   ----------------------------------------
SkyPeakPrairie_2_9:
        BYTE           N12     Dn4   v127
        BYTE   W12
        BYTE           N06     An3
        BYTE   W06
        BYTE                   Dn4
        BYTE   W06
        BYTE           N18     An4
        BYTE   W18
        BYTE           N06     Bn4
        BYTE   W06
        BYTE                   Cn5
        BYTE   W06
        BYTE                   Dn5
        BYTE   W06
        BYTE                   Cn5
        BYTE   W06
        BYTE                   Bn4
        BYTE   W06
        BYTE           N24
        BYTE   W24
        BYTE   PEND
// 010   ----------------------------------------
        BYTE   W96
// 011   ----------------------------------------
        BYTE   W96
// 012   ----------------------------------------
        BYTE   W96
// 013   ----------------------------------------
SkyPeakPrairie_2_13:
        BYTE           N18     En3   v120
        BYTE   W18
        BYTE           N06     Fs3
        BYTE   W06
        BYTE                   Gn3
        BYTE   W06
        BYTE                   Bn3
        BYTE   W06
        BYTE                   An3
        BYTE   W06
        BYTE                   Gn3
        BYTE   W06
        BYTE                   Fs3
        BYTE   W06
        BYTE           N12
        BYTE   W12
        BYTE           N06     En4
        BYTE   W06
        BYTE           N48     Dn4
        BYTE   W24
        BYTE   PEND
// 014   ----------------------------------------
SkyPeakPrairie_2_14:
        BYTE           VOL     43
        BYTE   W03
        BYTE                   41
        BYTE   W03
        BYTE                   37
        BYTE   W03
        BYTE                   34
        BYTE   W03
        BYTE                   31
        BYTE   W03
        BYTE                   28
        BYTE   W03
        BYTE                   25
        BYTE   W03
        BYTE                   22
        BYTE   W24
        BYTE   W03
        BYTE                   44
        BYTE           N18     En3   v120
        BYTE   W18
        BYTE           N06     Fs3
        BYTE   W06
        BYTE                   Gn3
        BYTE   W06
        BYTE                   Bn3
        BYTE   W06
        BYTE                   An3
        BYTE   W06
        BYTE                   Gn3
        BYTE   W06
        BYTE   PEND
// 015   ----------------------------------------
SkyPeakPrairie_2_15:
        BYTE           N06     Fs3   v120
        BYTE   W06
        BYTE           N12
        BYTE   W12
        BYTE           N06     En4
        BYTE   W06
        BYTE           N48     Dn4
        BYTE   W24
        BYTE           VOL     41
        BYTE   W03
        BYTE                   39
        BYTE   W03
        BYTE                   37
        BYTE   W03
        BYTE                   34
        BYTE   W03
        BYTE                   32
        BYTE   W03
        BYTE                   30
        BYTE   W03
        BYTE                   27
        BYTE   W03
        BYTE                   25
        BYTE   W24
        BYTE   W03
        BYTE   PEND
// 016   ----------------------------------------
SkyPeakPrairie_2_16:
        BYTE           VOL     44
        BYTE           N18     En4   v120
        BYTE   W18
        BYTE           N06     Fn4
        BYTE   W06
        BYTE                   Gn4
        BYTE   W06
        BYTE                   En4
        BYTE   W06
        BYTE                   Dn4
        BYTE   W06
        BYTE                   Cn4
        BYTE   W06
        BYTE                   Bn3
        BYTE   W06
        BYTE           N12     An3
        BYTE   W12
        BYTE           N06     En4
        BYTE   W06
        BYTE           N36     Dn4
        BYTE   W24
        BYTE   PEND
// 017   ----------------------------------------
SkyPeakPrairie_2_17:
        BYTE   W12
        BYTE           N18     En3   v120
        BYTE   W18
        BYTE           N06     Fn3
        BYTE   W06
        BYTE                   Gn3
        BYTE   W06
        BYTE                   An3
        BYTE   W06
        BYTE           N24     Bn3
        BYTE   W24
        BYTE           N06     Cn4
        BYTE   W06
        BYTE                   Bn3
        BYTE   W06
        BYTE           N24     An3
        BYTE   W12
        BYTE   PEND
// 018   ----------------------------------------
SkyPeakPrairie_2_18:
        BYTE   W12
        BYTE           N06     Gn3   v120
        BYTE   W06
        BYTE                   An3
        BYTE   W06
        BYTE           N24     Bn3
        BYTE   W24
        BYTE           N06     Cn4
        BYTE   W06
        BYTE                   Bn3
        BYTE   W06
        BYTE           N30     An3
        BYTE   W36
        BYTE   PEND
// 019   ----------------------------------------
SkyPeakPrairie_2_19:
        BYTE   W36
        BYTE           N06     Cn3   v117
        BYTE   W06
        BYTE                   Dn3
        BYTE   W06
        BYTE                   En3
        BYTE   W06
        BYTE                   Fn3
        BYTE   W06
        BYTE                   Gn3
        BYTE   W06
        BYTE                   Cn4
        BYTE   W06
        BYTE                   Bn3
        BYTE   W06
        BYTE                   An3
        BYTE   W06
        BYTE                   Gn3
        BYTE   W06
        BYTE                   Fn3
        BYTE   W06
        BYTE   PEND
// 020   ----------------------------------------
SkyPeakPrairie_2_20:
        BYTE           N06     En3   v117
        BYTE   W06
        BYTE                   Dn3
        BYTE   W06
        BYTE           N12     En3
        BYTE   W12
        BYTE           N06     Cn3   v110
        BYTE   W12
        BYTE                   Gn3   v100
        BYTE   W18
        BYTE                   En3   v117
        BYTE   W06
        BYTE                   Fn3
        BYTE   W06
        BYTE                   Gn3
        BYTE   W06
        BYTE                   An3
        BYTE   W06
        BYTE                   Bn3
        BYTE   W06
        BYTE           N36     Cn4
        BYTE   W12
        BYTE   PEND
// 021   ----------------------------------------
SkyPeakPrairie_2_21:
        BYTE   W24
        BYTE           N06     Gn4   v107
        BYTE   W06
        BYTE                   An4
        BYTE   W06
        BYTE                   Gn4
        BYTE   W06
        BYTE                   Fn4
        BYTE   W06
        BYTE                   En4
        BYTE   W06
        BYTE                   Dn4
        BYTE   W06
        BYTE                   Bn3
        BYTE   W06
        BYTE                   Cn4
        BYTE   W06
        BYTE                   Bn3
        BYTE   W06
        BYTE                   An3
        BYTE   W06
        BYTE           N12     Gn3
        BYTE   W12
        BYTE   PEND
// 022   ----------------------------------------
SkyPeakPrairie_2_22:
        BYTE           N06     An4   v117
        BYTE   W12
        BYTE           N12
        BYTE   W12
        BYTE           N06     Gn4
        BYTE   W06
        BYTE                   Fn4
        BYTE   W06
        BYTE           N12     Gn4
        BYTE   W12
        BYTE           N06     Cn5
        BYTE   W12
        BYTE                   Cn4
        BYTE   W06
        BYTE                   An4
        BYTE   W06
        BYTE           N18     Gn4
        BYTE   W18
        BYTE           N06     Cn4
        BYTE   W06
        BYTE   PEND
// 023   ----------------------------------------
SkyPeakPrairie_2_23:
        BYTE           N06     Dn4   v117
        BYTE   W06
        BYTE                   Gn3
        BYTE   W06
        BYTE                   En4
        BYTE   W06
        BYTE                   Fn4
        BYTE   W06
        BYTE           N18     Gn4
        BYTE   W24
        BYTE           N06     An4
        BYTE   W12
        BYTE           N12
        BYTE   W12
        BYTE           N06     Gn4
        BYTE   W06
        BYTE                   Fn4
        BYTE   W06
        BYTE           N12     Gn4
        BYTE   W12
        BYTE   PEND
// 024   ----------------------------------------
SkyPeakPrairie_2_24:
        BYTE           N06     Cn5   v117
        BYTE   W12
        BYTE                   Cn5
        BYTE   W06
        BYTE                   Dn5
        BYTE   W06
        BYTE                   En5
        BYTE   W06
        BYTE                   Fn5
        BYTE   W06
        BYTE                   En5
        BYTE   W06
        BYTE           N12     Dn5
        BYTE   W12
        BYTE           N06     An4
        BYTE   W06
        BYTE           N24     Dn5
        BYTE   W36
        BYTE   PEND
// 025   ----------------------------------------
        BYTE   W96
// 026   ----------------------------------------
        BYTE   W96
// 027   ----------------------------------------
        BYTE   W96
// 028   ----------------------------------------
        BYTE   W96
// 029   ----------------------------------------
        BYTE   W96
// 030   ----------------------------------------
        BYTE   PATT
         POIN2  SkyPeakPrairie_2_3
// 031   ----------------------------------------
SkyPeakPrairie_2_LOOP:
        BYTE           N24     Dn3   v127
        BYTE   W24
        BYTE           N06     En3
        BYTE   W06
        BYTE                   Fs3
        BYTE   W06
        BYTE           N24     En3
        BYTE   W36
        BYTE                   Fs3
        BYTE   W24
// 032   ----------------------------------------
        BYTE   PATT
         POIN2  SkyPeakPrairie_2_5
// 033   ----------------------------------------
        BYTE   PATT
         POIN2  SkyPeakPrairie_2_6
// 034   ----------------------------------------
        BYTE   PATT
         POIN2  SkyPeakPrairie_2_7
// 035   ----------------------------------------
        BYTE   PATT
         POIN2  SkyPeakPrairie_2_8
// 036   ----------------------------------------
        BYTE   PATT
         POIN2  SkyPeakPrairie_2_9
// 037   ----------------------------------------
        BYTE   W96
// 038   ----------------------------------------
        BYTE   W96
// 039   ----------------------------------------
        BYTE   W96
// 040   ----------------------------------------
        BYTE   PATT
         POIN2  SkyPeakPrairie_2_13
// 041   ----------------------------------------
        BYTE   PATT
         POIN2  SkyPeakPrairie_2_14
// 042   ----------------------------------------
        BYTE   PATT
         POIN2  SkyPeakPrairie_2_15
// 043   ----------------------------------------
        BYTE   PATT
         POIN2  SkyPeakPrairie_2_16
// 044   ----------------------------------------
        BYTE   PATT
         POIN2  SkyPeakPrairie_2_17
// 045   ----------------------------------------
        BYTE   PATT
         POIN2  SkyPeakPrairie_2_18
// 046   ----------------------------------------
        BYTE   PATT
         POIN2  SkyPeakPrairie_2_19
// 047   ----------------------------------------
        BYTE   PATT
         POIN2  SkyPeakPrairie_2_20
// 048   ----------------------------------------
        BYTE   PATT
         POIN2  SkyPeakPrairie_2_21
// 049   ----------------------------------------
        BYTE   PATT
         POIN2  SkyPeakPrairie_2_22
// 050   ----------------------------------------
        BYTE   PATT
         POIN2  SkyPeakPrairie_2_23
// 051   ----------------------------------------
        BYTE   PATT
         POIN2  SkyPeakPrairie_2_24
// 052   ----------------------------------------
        BYTE   W96
// 053   ----------------------------------------
        BYTE   W96
// 054   ----------------------------------------
        BYTE   W96
// 055   ----------------------------------------
        BYTE   W96
// 056   ----------------------------------------
        BYTE   W96
// 057   ----------------------------------------
        BYTE   PATT
         POIN2  SkyPeakPrairie_2_3
// 058   ----------------------------------------
        BYTE   GoTo
         POIN2  SkyPeakPrairie_2_LOOP
        BYTE   FINE

//****************** Track 3 (Midi-Chn.3) ******************//

SkyPeakPrairie_3:
        BYTE   KEYSH   SkyPeakPrairie_key+0
// 000   ----------------------------------------
        BYTE   W24
// 001   ----------------------------------------
        BYTE           PAN     c_v-64
        BYTE           VOL     21
        BYTE           VOICE   40
        BYTE   W96
// 002   ----------------------------------------
        BYTE   W96
// 003   ----------------------------------------
        BYTE   W96
// 004   ----------------------------------------
        BYTE           N06     Bn2   v127
        BYTE   W06
        BYTE                   Cn3
        BYTE   W06
        BYTE           N24     Dn3
        BYTE   W24
        BYTE           N06     En3
        BYTE   W06
        BYTE                   Fs3
        BYTE   W06
        BYTE           N24     En3
        BYTE   W36
        BYTE                   Fs3
        BYTE   W12
// 005   ----------------------------------------
SkyPeakPrairie_3_5:
        BYTE   W12
        BYTE           N06     Gn3   v127
        BYTE   W06
        BYTE                   Fs3
        BYTE   W06
        BYTE           N24     En3
        BYTE   W36
        BYTE                   Dn3
        BYTE   W24
        BYTE           N06     En3
        BYTE   W06
        BYTE                   Fs3
        BYTE   W06
        BYTE   PEND
// 006   ----------------------------------------
SkyPeakPrairie_3_6:
        BYTE           N24     En3   v127
        BYTE   W36
        BYTE                   Fs3
        BYTE   W24
        BYTE           N06     Gn3
        BYTE   W06
        BYTE                   An3
        BYTE   W06
        BYTE           N18     Bn3
        BYTE   W24
        BYTE   PEND
// 007   ----------------------------------------
SkyPeakPrairie_3_7:
        BYTE           N06     Bn3   v127
        BYTE   W06
        BYTE                   Cn4
        BYTE   W06
        BYTE           N24     Dn4
        BYTE   W24
        BYTE           N06     Gn3
        BYTE   W06
        BYTE                   Fs3
        BYTE   W06
        BYTE           N12     Gn3
        BYTE   W12
        BYTE                   Dn4
        BYTE   W12
        BYTE                   Gn3
        BYTE   W12
        BYTE           N24     En4
        BYTE   W12
        BYTE   PEND
// 008   ----------------------------------------
SkyPeakPrairie_3_8:
        BYTE   W12
        BYTE           N06     Gn3   v127
        BYTE   W06
        BYTE                   Fs3
        BYTE   W06
        BYTE           N12     Gn3
        BYTE   W12
        BYTE                   Dn4
        BYTE   W12
        BYTE                   Gn3
        BYTE   W12
        BYTE           N24     Fs4
        BYTE   W24
        BYTE           N06     Gn3
        BYTE   W06
        BYTE                   Fs3
        BYTE   W06
        BYTE   PEND
// 009   ----------------------------------------
SkyPeakPrairie_3_9:
        BYTE           N12     Gn3   v127
        BYTE   W12
        BYTE                   Dn4
        BYTE   W12
        BYTE           N06     An3
        BYTE   W06
        BYTE                   Dn4
        BYTE   W06
        BYTE           N18     An4
        BYTE   W18
        BYTE           N06     Bn4
        BYTE   W06
        BYTE                   Cn5
        BYTE   W06
        BYTE                   Dn5
        BYTE   W06
        BYTE                   Cn5
        BYTE   W06
        BYTE                   Bn4
        BYTE   W06
        BYTE           N24
        BYTE   W12
        BYTE   PEND
// 010   ----------------------------------------
        BYTE   W96
// 011   ----------------------------------------
        BYTE   W96
// 012   ----------------------------------------
        BYTE   W96
// 013   ----------------------------------------
SkyPeakPrairie_3_13:
        BYTE   W12
        BYTE           N18     En3   v120
        BYTE   W18
        BYTE           N06     Fs3
        BYTE   W06
        BYTE                   Gn3
        BYTE   W06
        BYTE                   Bn3
        BYTE   W06
        BYTE                   An3
        BYTE   W06
        BYTE                   Gn3
        BYTE   W06
        BYTE                   Fs3
        BYTE   W06
        BYTE           N12
        BYTE   W12
        BYTE           N06     En4
        BYTE   W06
        BYTE           N48     Dn4
        BYTE   W12
        BYTE   PEND
// 014   ----------------------------------------
SkyPeakPrairie_3_14:
        BYTE   W15
        BYTE           VOL     20
        BYTE   W03
        BYTE                   18
        BYTE   W03
        BYTE                   16
        BYTE   W03
        BYTE                   15
        BYTE   W03
        BYTE                   13
        BYTE   W03
        BYTE                   12
        BYTE   W03
        BYTE                   11
        BYTE   W24
        BYTE   W03
        BYTE                   21
        BYTE           N18     En3   v120
        BYTE   W18
        BYTE           N06     Fs3
        BYTE   W06
        BYTE                   Gn3
        BYTE   W06
        BYTE                   Bn3
        BYTE   W06
        BYTE   PEND
// 015   ----------------------------------------
SkyPeakPrairie_3_15:
        BYTE           N06     An3   v120
        BYTE   W06
        BYTE                   Gn3
        BYTE   W06
        BYTE                   Fs3
        BYTE   W06
        BYTE           N12
        BYTE   W12
        BYTE           N06     En4
        BYTE   W06
        BYTE           N48     Dn4
        BYTE   W24
        BYTE           VOL     20
        BYTE   W03
        BYTE                   19
        BYTE   W03
        BYTE                   18
        BYTE   W03
        BYTE                   16
        BYTE   W06
        BYTE                   14
        BYTE   W03
        BYTE                   13
        BYTE   W03
        BYTE                   12
        BYTE   W15
        BYTE   PEND
// 016   ----------------------------------------
SkyPeakPrairie_3_16:
        BYTE   W12
        BYTE           VOL     21
        BYTE           N18     En4   v120
        BYTE   W18
        BYTE           N06     Fn4
        BYTE   W06
        BYTE                   Gn4
        BYTE   W06
        BYTE                   En4
        BYTE   W06
        BYTE                   Dn4
        BYTE   W06
        BYTE                   Cn4
        BYTE   W06
        BYTE                   Bn3
        BYTE   W06
        BYTE           N12     An3
        BYTE   W12
        BYTE           N06     En4
        BYTE   W06
        BYTE           N36     Dn4
        BYTE   W12
        BYTE   PEND
// 017   ----------------------------------------
SkyPeakPrairie_3_17:
        BYTE   W24
        BYTE           N18     En3   v120
        BYTE   W18
        BYTE           N06     Fn3
        BYTE   W06
        BYTE                   Gn3
        BYTE   W06
        BYTE                   An3
        BYTE   W06
        BYTE           N24     Bn3
        BYTE   W24
        BYTE           N06     Cn4
        BYTE   W06
        BYTE                   Bn3
        BYTE   W06
        BYTE   PEND
// 018   ----------------------------------------
SkyPeakPrairie_3_18:
        BYTE           N24     An3   v120
        BYTE   W24
        BYTE           N06     Gn3
        BYTE   W06
        BYTE                   An3
        BYTE   W06
        BYTE           N24     Bn3
        BYTE   W24
        BYTE           N06     Cn4
        BYTE   W06
        BYTE                   Bn3
        BYTE   W06
        BYTE           N30     An3
        BYTE   W24
        BYTE   PEND
// 019   ----------------------------------------
SkyPeakPrairie_3_19:
        BYTE   W48
        BYTE           N06     Cn3   v117
        BYTE   W06
        BYTE                   Dn3
        BYTE   W06
        BYTE                   En3
        BYTE   W06
        BYTE                   Fn3
        BYTE   W06
        BYTE                   Gn3
        BYTE   W06
        BYTE                   Cn4
        BYTE   W06
        BYTE                   Bn3
        BYTE   W06
        BYTE                   An3
        BYTE   W06
        BYTE   PEND
// 020   ----------------------------------------
SkyPeakPrairie_3_20:
        BYTE           N06     Gn3   v117
        BYTE   W06
        BYTE                   Fn3
        BYTE   W06
        BYTE                   En3
        BYTE   W06
        BYTE                   Dn3
        BYTE   W06
        BYTE           N12     En3
        BYTE   W12
        BYTE           N06     Cn3   v110
        BYTE   W12
        BYTE                   Gn3   v100
        BYTE   W18
        BYTE                   En3   v117
        BYTE   W06
        BYTE                   Fn3
        BYTE   W06
        BYTE                   Gn3
        BYTE   W06
        BYTE                   An3
        BYTE   W06
        BYTE                   Bn3
        BYTE   W06
        BYTE   PEND
// 021   ----------------------------------------
SkyPeakPrairie_3_21:
        BYTE           N36     Cn4   v107
        BYTE   W36
        BYTE           N06     Gn4
        BYTE   W06
        BYTE                   An4
        BYTE   W06
        BYTE                   Gn4
        BYTE   W06
        BYTE                   Fn4
        BYTE   W06
        BYTE                   En4
        BYTE   W06
        BYTE                   Dn4
        BYTE   W06
        BYTE                   Bn3
        BYTE   W06
        BYTE                   Cn4
        BYTE   W06
        BYTE                   Bn3
        BYTE   W06
        BYTE                   An3
        BYTE   W06
        BYTE   PEND
// 022   ----------------------------------------
SkyPeakPrairie_3_22:
        BYTE           N12     Gn3   v117
        BYTE   W12
        BYTE           N06     An4
        BYTE   W12
        BYTE           N12
        BYTE   W12
        BYTE           N06     Gn4
        BYTE   W06
        BYTE                   Fn4
        BYTE   W06
        BYTE           N12     Gn4
        BYTE   W12
        BYTE           N06     Cn5
        BYTE   W12
        BYTE                   Cn4
        BYTE   W06
        BYTE                   An4
        BYTE   W06
        BYTE           N18     Gn4
        BYTE   W12
        BYTE   PEND
// 023   ----------------------------------------
SkyPeakPrairie_3_23:
        BYTE   W06
        BYTE           N06     Cn4   v117
        BYTE   W06
        BYTE                   Dn4
        BYTE   W06
        BYTE                   Gn3
        BYTE   W06
        BYTE                   En4
        BYTE   W06
        BYTE                   Fn4
        BYTE   W06
        BYTE           N18     Gn4
        BYTE   W24
        BYTE           N06     An4
        BYTE   W12
        BYTE           N12
        BYTE   W12
        BYTE           N06     Gn4
        BYTE   W06
        BYTE                   Fn4
        BYTE   W06
        BYTE   PEND
// 024   ----------------------------------------
SkyPeakPrairie_3_24:
        BYTE           N12     Gn4   v117
        BYTE   W12
        BYTE           N06     Cn5
        BYTE   W12
        BYTE                   Cn5
        BYTE   W06
        BYTE                   Dn5
        BYTE   W06
        BYTE                   En5
        BYTE   W06
        BYTE                   Fn5
        BYTE   W06
        BYTE                   En5
        BYTE   W06
        BYTE           N12     Dn5
        BYTE   W12
        BYTE           N06     An4
        BYTE   W06
        BYTE           N24     Dn5
        BYTE   W24
        BYTE   PEND
// 025   ----------------------------------------
        BYTE   W96
// 026   ----------------------------------------
        BYTE   W96
// 027   ----------------------------------------
        BYTE   W96
// 028   ----------------------------------------
        BYTE   W96
// 029   ----------------------------------------
        BYTE   W96
// 030   ----------------------------------------
        BYTE   W96
// 031   ----------------------------------------
SkyPeakPrairie_3_LOOP:
        BYTE           N06     Bn2   v127
        BYTE   W06
        BYTE                   Cn3
        BYTE   W06
        BYTE           N24     Dn3
        BYTE   W24
        BYTE           N06     En3
        BYTE   W06
        BYTE                   Fs3
        BYTE   W06
        BYTE           N24     En3
        BYTE   W36
        BYTE                   Fs3
        BYTE   W12
// 032   ----------------------------------------
        BYTE   PATT
         POIN2  SkyPeakPrairie_3_5
// 033   ----------------------------------------
        BYTE   PATT
         POIN2  SkyPeakPrairie_3_6
// 034   ----------------------------------------
        BYTE   PATT
         POIN2  SkyPeakPrairie_3_7
// 035   ----------------------------------------
        BYTE   PATT
         POIN2  SkyPeakPrairie_3_8
// 036   ----------------------------------------
        BYTE   PATT
         POIN2  SkyPeakPrairie_3_9
// 037   ----------------------------------------
        BYTE   W96
// 038   ----------------------------------------
        BYTE   W96
// 039   ----------------------------------------
        BYTE   W96
// 040   ----------------------------------------
        BYTE   PATT
         POIN2  SkyPeakPrairie_3_13
// 041   ----------------------------------------
        BYTE   PATT
         POIN2  SkyPeakPrairie_3_14
// 042   ----------------------------------------
        BYTE   PATT
         POIN2  SkyPeakPrairie_3_15
// 043   ----------------------------------------
        BYTE   PATT
         POIN2  SkyPeakPrairie_3_16
// 044   ----------------------------------------
        BYTE   PATT
         POIN2  SkyPeakPrairie_3_17
// 045   ----------------------------------------
        BYTE   PATT
         POIN2  SkyPeakPrairie_3_18
// 046   ----------------------------------------
        BYTE   PATT
         POIN2  SkyPeakPrairie_3_19
// 047   ----------------------------------------
        BYTE   PATT
         POIN2  SkyPeakPrairie_3_20
// 048   ----------------------------------------
        BYTE   PATT
         POIN2  SkyPeakPrairie_3_21
// 049   ----------------------------------------
        BYTE   PATT
         POIN2  SkyPeakPrairie_3_22
// 050   ----------------------------------------
        BYTE   PATT
         POIN2  SkyPeakPrairie_3_23
// 051   ----------------------------------------
        BYTE   PATT
         POIN2  SkyPeakPrairie_3_24
// 052   ----------------------------------------
        BYTE   W96
// 053   ----------------------------------------
        BYTE   W96
// 054   ----------------------------------------
        BYTE   W96
// 055   ----------------------------------------
        BYTE   W96
// 056   ----------------------------------------
        BYTE   W96
// 057   ----------------------------------------
        BYTE   W96
// 058   ----------------------------------------
        BYTE   GoTo
         POIN2  SkyPeakPrairie_3_LOOP
        BYTE   FINE

//****************** Track 4 (Midi-Chn.4) ******************//

SkyPeakPrairie_4:
        BYTE   KEYSH   SkyPeakPrairie_key+0
// 000   ----------------------------------------
        BYTE   W24
// 001   ----------------------------------------
        BYTE           PAN     c_v-19
        BYTE           VOL     49
        BYTE           VOICE   60
        BYTE           N24     Dn3   v127
        BYTE   W24
        BYTE           N06     En3
        BYTE   W06
        BYTE                   An2
        BYTE   W06
        BYTE                   Dn3
        BYTE   W06
        BYTE                   Dn3   v064
        BYTE   W06
        BYTE           N90     An3   v127
        BYTE   W48
// 002   ----------------------------------------
SkyPeakPrairie_4_2:
        BYTE   W48
        BYTE           N24     Dn3   v127
        BYTE   W24
        BYTE           N06     En3
        BYTE   W06
        BYTE                   An2
        BYTE   W06
        BYTE                   Dn3
        BYTE   W06
        BYTE                   Dn3   v064
        BYTE   W06
        BYTE   PEND
// 003   ----------------------------------------
        BYTE           N90     An3   v127
        BYTE   W96
// 004   ----------------------------------------
        BYTE   W96
// 005   ----------------------------------------
        BYTE   W96
// 006   ----------------------------------------
        BYTE   W96
// 007   ----------------------------------------
SkyPeakPrairie_4_7:
        BYTE           N30     Dn3   v127
        BYTE   W30
        BYTE           N06     Dn3   v064
        BYTE   W06
        BYTE           N30     En3   v127
        BYTE   W30
        BYTE           N06     En3   v064
        BYTE   W06
        BYTE           N30     Fs3   v127
        BYTE   W24
        BYTE   PEND
// 008   ----------------------------------------
SkyPeakPrairie_4_8:
        BYTE   W06
        BYTE           N06     Fs3   v064
        BYTE   W06
        BYTE           N30     Gn3   v127
        BYTE   W30
        BYTE           N06     Gn3   v064
        BYTE   W06
        BYTE           N30     An3   v127
        BYTE   W30
        BYTE           N06     An3   v064
        BYTE   W06
        BYTE           N30     Gn3   v127
        BYTE   W12
        BYTE   PEND
// 009   ----------------------------------------
SkyPeakPrairie_4_9:
        BYTE   W18
        BYTE           N06     Gn3   v064
        BYTE   W06
        BYTE           N30     An3   v127
        BYTE   W30
        BYTE           N06     An3   v064
        BYTE   W06
        BYTE           N30     Gn3   v127
        BYTE   W30
        BYTE           N06     Gn3   v064
        BYTE   W06
        BYTE   PEND
// 010   ----------------------------------------
SkyPeakPrairie_4_10:
        BYTE           N06     Dn2   v127
        BYTE   W06
        BYTE                   Dn2   v064
        BYTE   W06
        BYTE           TIE     Dn3   v127
        BYTE   W84
        BYTE   PEND
// 011   ----------------------------------------
SkyPeakPrairie_4_11:
        BYTE   W24
        BYTE           EOT     Dn3
        BYTE   W24
        BYTE           N06     Dn2   v127
        BYTE   W06
        BYTE                   Dn2   v064
        BYTE   W06
        BYTE           TIE     Dn3   v127
        BYTE   W36
        BYTE   PEND
// 012   ----------------------------------------
        BYTE   W72
        BYTE           EOT
        BYTE   W24
// 013   ----------------------------------------
        BYTE   PATT
         POIN2  SkyPeakPrairie_4_10
// 014   ----------------------------------------
        BYTE   PATT
         POIN2  SkyPeakPrairie_4_11
// 015   ----------------------------------------
        BYTE   W72
        BYTE           EOT     Dn3
        BYTE   W24
// 016   ----------------------------------------
        BYTE   PATT
         POIN2  SkyPeakPrairie_4_10
// 017   ----------------------------------------
SkyPeakPrairie_4_17:
        BYTE   W24
        BYTE           EOT     Dn3
        BYTE   W24
        BYTE           N24     Dn2   v127
        BYTE   W24
        BYTE           N06     Dn2   v064
        BYTE   W06
        BYTE                   Dn2   v055
        BYTE   W06
        BYTE           N24     An2   v127
        BYTE   W12
        BYTE   PEND
// 018   ----------------------------------------
SkyPeakPrairie_4_18:
        BYTE   W12
        BYTE           N06     An2   v064
        BYTE   W06
        BYTE                   An2   v055
        BYTE   W06
        BYTE           N24     Dn3   v127
        BYTE   W24
        BYTE           N06     Dn3   v064
        BYTE   W06
        BYTE                   Dn3   v055
        BYTE   W06
        BYTE           N24     An3   v127
        BYTE   W24
        BYTE           N06     An3   v064
        BYTE   W06
        BYTE                   An3   v055
        BYTE   W06
        BYTE   PEND
// 019   ----------------------------------------
        BYTE   W96
// 020   ----------------------------------------
        BYTE   W96
// 021   ----------------------------------------
SkyPeakPrairie_4_21:
        BYTE   W36
        BYTE           N18     Gn2   v127
        BYTE   W18
        BYTE           N06     Gn2   v064
        BYTE   W06
        BYTE           N03     Gn2   v127
        BYTE   W03
        BYTE                   Gn2   v064
        BYTE   W03
        BYTE                   Cn3   v127
        BYTE   W03
        BYTE                   Cn3   v064
        BYTE   W03
        BYTE           N18     Gn3   v127
        BYTE   W18
        BYTE           N03     An3
        BYTE   W03
        BYTE                   Bn3
        BYTE   W03
        BYTE   PEND
// 022   ----------------------------------------
SkyPeakPrairie_4_22:
        BYTE           N36     Cn4   v127
        BYTE   W36
        BYTE           N06     Cn4   v064
        BYTE   W06
        BYTE           N03     Cn3   v127
        BYTE   W06
        BYTE           N24     Gn3
        BYTE   W24
        BYTE           N06     Gn3   v064
        BYTE   W06
        BYTE           N03     Gn3   v127
        BYTE   W03
        BYTE                   An3
        BYTE   W03
        BYTE           N24     Gn3
        BYTE   W12
        BYTE   PEND
// 023   ----------------------------------------
SkyPeakPrairie_4_23:
        BYTE   W12
        BYTE           N06     Gn3   v064
        BYTE   W06
        BYTE           N03     Gn3   v127
        BYTE   W03
        BYTE                   Gn3   v064
        BYTE   W03
        BYTE                   Cn4   v127
        BYTE   W03
        BYTE                   Cn4   v064
        BYTE   W03
        BYTE                   Bn3   v127
        BYTE   W03
        BYTE                   Bn3   v064
        BYTE   W03
        BYTE           N48     Cn4   v127
        BYTE   W48
        BYTE           N06     Cn4   v064
        BYTE   W06
        BYTE           N03     Cn3   v127
        BYTE   W03
        BYTE                   Cn3   v064
        BYTE   W03
        BYTE   PEND
// 024   ----------------------------------------
SkyPeakPrairie_4_24:
        BYTE           N24     Gn3   v127
        BYTE   W24
        BYTE           N06     Gn3   v064
        BYTE   W06
        BYTE           N03     Gn3   v127
        BYTE   W03
        BYTE                   An3
        BYTE   W03
        BYTE           N24     Gn3
        BYTE   W24
        BYTE           N06     Gn3   v064
        BYTE   W06
        BYTE           N03     Gn3   v127
        BYTE   W03
        BYTE                   Gn3   v064
        BYTE   W03
        BYTE                   Cn4   v127
        BYTE   W03
        BYTE                   Cn4   v064
        BYTE   W03
        BYTE                   Bn3   v127
        BYTE   W03
        BYTE                   Bn3   v064
        BYTE   W03
        BYTE           N06     Dn4   v127
        BYTE   W06
        BYTE           N03     Gn3
        BYTE   W03
        BYTE                   Gn3   v064
        BYTE   W03
        BYTE   PEND
// 025   ----------------------------------------
        BYTE   W96
// 026   ----------------------------------------
        BYTE   W96
// 027   ----------------------------------------
        BYTE   W96
// 028   ----------------------------------------
SkyPeakPrairie_4_28:
        BYTE           N24     Dn3   v127
        BYTE   W24
        BYTE           N06     En3
        BYTE   W06
        BYTE                   An2
        BYTE   W06
        BYTE                   Dn3
        BYTE   W06
        BYTE                   Dn3   v064
        BYTE   W06
        BYTE           N90     An3   v127
        BYTE   W48
        BYTE   PEND
// 029   ----------------------------------------
        BYTE   PATT
         POIN2  SkyPeakPrairie_4_2
// 030   ----------------------------------------
        BYTE           N90     An3   v127
        BYTE   W96
// 031   ----------------------------------------
SkyPeakPrairie_4_LOOP:
        BYTE   W96
// 032   ----------------------------------------
        BYTE   W96
// 033   ----------------------------------------
        BYTE   W96
// 034   ----------------------------------------
        BYTE   PATT
         POIN2  SkyPeakPrairie_4_7
// 035   ----------------------------------------
        BYTE   PATT
         POIN2  SkyPeakPrairie_4_8
// 036   ----------------------------------------
        BYTE   PATT
         POIN2  SkyPeakPrairie_4_9
// 037   ----------------------------------------
        BYTE   PATT
         POIN2  SkyPeakPrairie_4_10
// 038   ----------------------------------------
        BYTE   PATT
         POIN2  SkyPeakPrairie_4_11
// 039   ----------------------------------------
        BYTE   W72
        BYTE           EOT     Dn3
        BYTE   W24
// 040   ----------------------------------------
        BYTE   PATT
         POIN2  SkyPeakPrairie_4_10
// 041   ----------------------------------------
        BYTE   PATT
         POIN2  SkyPeakPrairie_4_11
// 042   ----------------------------------------
        BYTE   W72
        BYTE           EOT     Dn3
        BYTE   W24
// 043   ----------------------------------------
        BYTE   PATT
         POIN2  SkyPeakPrairie_4_10
// 044   ----------------------------------------
        BYTE   PATT
         POIN2  SkyPeakPrairie_4_17
// 045   ----------------------------------------
        BYTE   PATT
         POIN2  SkyPeakPrairie_4_18
// 046   ----------------------------------------
        BYTE   W96
// 047   ----------------------------------------
        BYTE   W96
// 048   ----------------------------------------
        BYTE   PATT
         POIN2  SkyPeakPrairie_4_21
// 049   ----------------------------------------
        BYTE   PATT
         POIN2  SkyPeakPrairie_4_22
// 050   ----------------------------------------
        BYTE   PATT
         POIN2  SkyPeakPrairie_4_23
// 051   ----------------------------------------
        BYTE   PATT
         POIN2  SkyPeakPrairie_4_24
// 052   ----------------------------------------
        BYTE   W96
// 053   ----------------------------------------
        BYTE   W96
// 054   ----------------------------------------
        BYTE   W96
// 055   ----------------------------------------
        BYTE   PATT
         POIN2  SkyPeakPrairie_4_28
// 056   ----------------------------------------
        BYTE   PATT
         POIN2  SkyPeakPrairie_4_2
// 057   ----------------------------------------
        BYTE           N90     An3   v127
        BYTE   W96
// 058   ----------------------------------------
        BYTE   GoTo
         POIN2  SkyPeakPrairie_4_LOOP
        BYTE   FINE

//****************** Track 5 (Midi-Chn.5) ******************//

SkyPeakPrairie_5:
        BYTE   KEYSH   SkyPeakPrairie_key+0
// 000   ----------------------------------------
        BYTE   W24
// 001   ----------------------------------------
        BYTE           VOL     44
        BYTE           VOICE   73
        BYTE   W96
// 002   ----------------------------------------
        BYTE   W96
// 003   ----------------------------------------
        BYTE   W96
// 004   ----------------------------------------
        BYTE   W96
// 005   ----------------------------------------
        BYTE   W96
// 006   ----------------------------------------
        BYTE   W96
// 007   ----------------------------------------
SkyPeakPrairie_5_7:
        BYTE   W42
        BYTE           N06     Gn4   v110
        BYTE   W06
        BYTE           N03     An4
        BYTE   W06
        BYTE                   Dn5
        BYTE   W06
        BYTE                   Gn5
        BYTE   W36
        BYTE   PEND
// 008   ----------------------------------------
SkyPeakPrairie_5_8:
        BYTE   W18
        BYTE           N06     Gn4   v110
        BYTE   W06
        BYTE           N03     An4
        BYTE   W06
        BYTE                   Dn5
        BYTE   W06
        BYTE                   Gn5
        BYTE   W54
        BYTE           N06     Gn4
        BYTE   W06
        BYTE   PEND
// 009   ----------------------------------------
SkyPeakPrairie_5_9:
        BYTE           N03     An4   v110
        BYTE   W06
        BYTE                   Dn5
        BYTE   W06
        BYTE                   Gn5
        BYTE   W54
        BYTE           N06     Gn4
        BYTE   W06
        BYTE           N03     An4
        BYTE   W06
        BYTE                   Dn5
        BYTE   W06
        BYTE                   Gn5
        BYTE   W06
        BYTE                   Dn5
        BYTE   W06
        BYTE   PEND
// 010   ----------------------------------------
SkyPeakPrairie_5_10:
        BYTE           N24     En5   v110
        BYTE   W24
        BYTE           N06     Fs5
        BYTE   W06
        BYTE                   Gn5
        BYTE   W06
        BYTE                   Fs5
        BYTE   W06
        BYTE                   En5
        BYTE   W06
        BYTE           N18     Dn5
        BYTE   W18
        BYTE           N06     An4
        BYTE   W06
        BYTE           N24     Bn4
        BYTE   W24
        BYTE   PEND
// 011   ----------------------------------------
SkyPeakPrairie_5_11:
        BYTE           N06     Cn5   v110
        BYTE   W06
        BYTE                   Dn5
        BYTE   W06
        BYTE                   Cn5
        BYTE   W06
        BYTE                   Bn4
        BYTE   W06
        BYTE                   An4
        BYTE   W06
        BYTE           N12     Gn4
        BYTE   W12
        BYTE           N06
        BYTE   W06
        BYTE           N24     En5
        BYTE   W24
        BYTE           N06     Fs5
        BYTE   W06
        BYTE                   Gn5
        BYTE   W06
        BYTE                   Fs5
        BYTE   W06
        BYTE                   En5
        BYTE   W06
        BYTE   PEND
// 012   ----------------------------------------
SkyPeakPrairie_5_12:
        BYTE           N06     Dn5   v110
        BYTE   W06
        BYTE           N12
        BYTE   W12
        BYTE           N06     An4
        BYTE   W06
        BYTE           N24     Bn4
        BYTE   W24
        BYTE           N06     Cn5
        BYTE   W06
        BYTE                   Dn5
        BYTE   W06
        BYTE                   Cn5
        BYTE   W06
        BYTE                   Bn4
        BYTE   W06
        BYTE                   Dn5
        BYTE   W06
        BYTE           N12     Gn5
        BYTE   W12
        BYTE           N06
        BYTE   W06
        BYTE   PEND
// 013   ----------------------------------------
SkyPeakPrairie_5_13:
        BYTE           N06     Cn6   v110
        BYTE   W06
        BYTE                   Bn5
        BYTE   W06
        BYTE           N96     Gn5
        BYTE   W84
        BYTE   PEND
// 014   ----------------------------------------
SkyPeakPrairie_5_14:
        BYTE   W24
        BYTE           N06     En5   v110
        BYTE   W06
        BYTE                   Gn5
        BYTE   W06
        BYTE                   En5
        BYTE   W06
        BYTE                   Gn5
        BYTE   W06
        BYTE                   Cn6
        BYTE   W06
        BYTE                   Bn5
        BYTE   W06
        BYTE           N96     Gn5
        BYTE   W36
        BYTE   PEND
// 015   ----------------------------------------
SkyPeakPrairie_5_15:
        BYTE   W72
        BYTE           N06     Gn4   v110
        BYTE   W06
        BYTE                   An4
        BYTE   W06
        BYTE                   Dn4
        BYTE   W06
        BYTE                   Gn4
        BYTE   W06
        BYTE   PEND
// 016   ----------------------------------------
SkyPeakPrairie_5_16:
        BYTE           N06     Cn5   v110
        BYTE   W06
        BYTE                   Bn4
        BYTE   W06
        BYTE           TIE     Gn4
        BYTE   W84
        BYTE   PEND
// 017   ----------------------------------------
        BYTE   W48
        BYTE           EOT
        BYTE   W48
// 018   ----------------------------------------
        BYTE   W96
// 019   ----------------------------------------
SkyPeakPrairie_5_19:
        BYTE           N06     Fn3   v100
        BYTE   W06
        BYTE                   Gn3
        BYTE   W06
        BYTE                   An3
        BYTE   W06
        BYTE                   Bn3
        BYTE   W06
        BYTE                   Cn4
        BYTE   W06
        BYTE                   Dn4
        BYTE   W06
        BYTE           N36     Cn4
        BYTE   W36
        BYTE                   Dn4
        BYTE   W24
        BYTE   PEND
// 020   ----------------------------------------
SkyPeakPrairie_5_20:
        BYTE   W12
        BYTE           N06     En4   v100
        BYTE   W06
        BYTE                   Cn4
        BYTE   W06
        BYTE                   Dn4   v098
        BYTE   W06
        BYTE                   En4   v096
        BYTE   W06
        BYTE                   Fn4   v095
        BYTE   W06
        BYTE                   Gn4   v094
        BYTE   W06
        BYTE           N36     An4   v093
        BYTE   W42
        BYTE           N06     Gn4   v089
        BYTE   W06
        BYTE   PEND
// 021   ----------------------------------------
SkyPeakPrairie_5_21:
        BYTE           N06     An4   v088
        BYTE   W06
        BYTE                   Bn4
        BYTE   W06
        BYTE                   Cn5
        BYTE   W06
        BYTE                   Dn5   v087
        BYTE   W06
        BYTE                   En5
        BYTE   W06
        BYTE                   Fn5
        BYTE   W06
        BYTE                   En5
        BYTE   W06
        BYTE                   Dn5   v088
        BYTE   W06
        BYTE                   Cn5
        BYTE   W06
        BYTE                   Bn4   v090
        BYTE   W06
        BYTE           N36     Gn4   v091
        BYTE   W36
        BYTE   PEND
// 022   ----------------------------------------
        BYTE   W96
// 023   ----------------------------------------
        BYTE   W96
// 024   ----------------------------------------
        BYTE   W96
// 025   ----------------------------------------
SkyPeakPrairie_5_25:
        BYTE           N06     Cn4   v127
        BYTE   W06
        BYTE           N03     Bn3
        BYTE   W06
        BYTE           N48     Gn3
        BYTE   W60
        BYTE           N06     Fn3
        BYTE   W06
        BYTE           N03     En3
        BYTE   W06
        BYTE           N48     Cn3
        BYTE   W12
        BYTE   PEND
// 026   ----------------------------------------
SkyPeakPrairie_5_26:
        BYTE   W48
        BYTE           N06     Cn4   v127
        BYTE   W06
        BYTE           N03     Bn3
        BYTE   W06
        BYTE           N48     Gn3
        BYTE   W36
        BYTE   PEND
// 027   ----------------------------------------
SkyPeakPrairie_5_27:
        BYTE   W24
        BYTE           N06     Fn3   v127
        BYTE   W06
        BYTE           N03     En3
        BYTE   W06
        BYTE           N36     Cn3
        BYTE   W36
        BYTE           N03
        BYTE   W03
        BYTE                   Dn3
        BYTE   W04
        BYTE                   En3
        BYTE   W03
        BYTE                   Fn3
        BYTE   W03
        BYTE                   Gn3
        BYTE   W04
        BYTE                   An3
        BYTE   W03
        BYTE                   Bn3
        BYTE   W04
        BYTE   PEND
// 028   ----------------------------------------
SkyPeakPrairie_5_28:
        BYTE           N06     Cn4   v127
        BYTE   W06
        BYTE           N04     Bn3
        BYTE   W06
        BYTE           N48     Gn3
        BYTE   W60
        BYTE           N06
        BYTE   W06
        BYTE           N04     Fs3
        BYTE   W06
        BYTE           N48     Dn3
        BYTE   W12
        BYTE   PEND
// 029   ----------------------------------------
SkyPeakPrairie_5_29:
        BYTE   W48
        BYTE           N06     Cn4   v127
        BYTE   W06
        BYTE           N04     Bn3
        BYTE   W06
        BYTE           N48     Gn3
        BYTE   W36
        BYTE   PEND
// 030   ----------------------------------------
SkyPeakPrairie_5_30:
        BYTE   W24
        BYTE           N06     Gn3   v127
        BYTE   W06
        BYTE           N04     Fs3
        BYTE   W06
        BYTE           N48     Dn3
        BYTE   W60
        BYTE   PEND
// 031   ----------------------------------------
SkyPeakPrairie_5_LOOP:
        BYTE   W96
// 032   ----------------------------------------
        BYTE   W96
// 033   ----------------------------------------
        BYTE   W96
// 034   ----------------------------------------
        BYTE   PATT
         POIN2  SkyPeakPrairie_5_7
// 035   ----------------------------------------
        BYTE   PATT
         POIN2  SkyPeakPrairie_5_8
// 036   ----------------------------------------
        BYTE   PATT
         POIN2  SkyPeakPrairie_5_9
// 037   ----------------------------------------
        BYTE   PATT
         POIN2  SkyPeakPrairie_5_10
// 038   ----------------------------------------
        BYTE   PATT
         POIN2  SkyPeakPrairie_5_11
// 039   ----------------------------------------
        BYTE   PATT
         POIN2  SkyPeakPrairie_5_12
// 040   ----------------------------------------
        BYTE   PATT
         POIN2  SkyPeakPrairie_5_13
// 041   ----------------------------------------
        BYTE   PATT
         POIN2  SkyPeakPrairie_5_14
// 042   ----------------------------------------
        BYTE   PATT
         POIN2  SkyPeakPrairie_5_15
// 043   ----------------------------------------
        BYTE   PATT
         POIN2  SkyPeakPrairie_5_16
// 044   ----------------------------------------
        BYTE   W48
        BYTE           EOT     Gn4
        BYTE   W48
// 045   ----------------------------------------
        BYTE   W96
// 046   ----------------------------------------
        BYTE   PATT
         POIN2  SkyPeakPrairie_5_19
// 047   ----------------------------------------
        BYTE   PATT
         POIN2  SkyPeakPrairie_5_20
// 048   ----------------------------------------
        BYTE   PATT
         POIN2  SkyPeakPrairie_5_21
// 049   ----------------------------------------
        BYTE   W96
// 050   ----------------------------------------
        BYTE   W96
// 051   ----------------------------------------
        BYTE   W96
// 052   ----------------------------------------
        BYTE   PATT
         POIN2  SkyPeakPrairie_5_25
// 053   ----------------------------------------
        BYTE   PATT
         POIN2  SkyPeakPrairie_5_26
// 054   ----------------------------------------
        BYTE   PATT
         POIN2  SkyPeakPrairie_5_27
// 055   ----------------------------------------
        BYTE   PATT
         POIN2  SkyPeakPrairie_5_28
// 056   ----------------------------------------
        BYTE   PATT
         POIN2  SkyPeakPrairie_5_29
// 057   ----------------------------------------
        BYTE   PATT
         POIN2  SkyPeakPrairie_5_30
// 058   ----------------------------------------
        BYTE   GoTo
         POIN2  SkyPeakPrairie_5_LOOP
        BYTE   FINE

//****************** Track 6 (Midi-Chn.6) ******************//

SkyPeakPrairie_6:
        BYTE   KEYSH   SkyPeakPrairie_key+0
// 000   ----------------------------------------
        BYTE   W24
// 001   ----------------------------------------
        BYTE           PAN     c_v-64
        BYTE           VOL     26
        BYTE           VOICE   73
        BYTE   W96
// 002   ----------------------------------------
        BYTE   W96
// 003   ----------------------------------------
        BYTE   W96
// 004   ----------------------------------------
        BYTE   W96
// 005   ----------------------------------------
        BYTE   W96
// 006   ----------------------------------------
        BYTE   W96
// 007   ----------------------------------------
SkyPeakPrairie_6_7:
        BYTE   W54
        BYTE           N06     Gn4   v110
        BYTE   W06
        BYTE           N03     An4
        BYTE   W06
        BYTE                   Dn5
        BYTE   W06
        BYTE                   Gn5
        BYTE   W24
        BYTE   PEND
// 008   ----------------------------------------
SkyPeakPrairie_6_8:
        BYTE   W30
        BYTE           N06     Gn4   v110
        BYTE   W06
        BYTE           N03     An4
        BYTE   W06
        BYTE                   Dn5
        BYTE   W06
        BYTE                   Gn5
        BYTE   W48
        BYTE   PEND
// 009   ----------------------------------------
SkyPeakPrairie_6_9:
        BYTE   W06
        BYTE           N06     Gn4   v110
        BYTE   W06
        BYTE           N03     An4
        BYTE   W06
        BYTE                   Dn5
        BYTE   W06
        BYTE                   Gn5
        BYTE   W54
        BYTE           N06     Gn4
        BYTE   W06
        BYTE           N03     An4
        BYTE   W06
        BYTE                   Dn5
        BYTE   W06
        BYTE   PEND
// 010   ----------------------------------------
SkyPeakPrairie_6_10:
        BYTE           N03     Gn5   v110
        BYTE   W06
        BYTE                   Dn5
        BYTE   W06
        BYTE           N24     En5
        BYTE   W24
        BYTE           N06     Fs5
        BYTE   W06
        BYTE                   Gn5
        BYTE   W06
        BYTE                   Fs5
        BYTE   W06
        BYTE                   En5
        BYTE   W06
        BYTE           N18     Dn5
        BYTE   W18
        BYTE           N06     An4
        BYTE   W06
        BYTE           N24     Bn4
        BYTE   W12
        BYTE   PEND
// 011   ----------------------------------------
SkyPeakPrairie_6_11:
        BYTE   W12
        BYTE           N06     Cn5   v110
        BYTE   W06
        BYTE                   Dn5
        BYTE   W06
        BYTE                   Cn5
        BYTE   W06
        BYTE                   Bn4
        BYTE   W06
        BYTE                   An4
        BYTE   W06
        BYTE           N12     Gn4
        BYTE   W12
        BYTE           N06
        BYTE   W06
        BYTE           N24     En5
        BYTE   W24
        BYTE           N06     Fs5
        BYTE   W06
        BYTE                   Gn5
        BYTE   W06
        BYTE   PEND
// 012   ----------------------------------------
SkyPeakPrairie_6_12:
        BYTE           N06     Fs5   v110
        BYTE   W06
        BYTE                   En5
        BYTE   W06
        BYTE                   Dn5
        BYTE   W06
        BYTE           N12
        BYTE   W12
        BYTE           N06     An4
        BYTE   W06
        BYTE           N24     Bn4
        BYTE   W24
        BYTE           N06     Cn5
        BYTE   W06
        BYTE                   Dn5
        BYTE   W06
        BYTE                   Cn5
        BYTE   W06
        BYTE                   Bn4
        BYTE   W06
        BYTE                   Dn5
        BYTE   W06
        BYTE           N12     Gn5
        BYTE   W06
        BYTE   PEND
// 013   ----------------------------------------
SkyPeakPrairie_6_13:
        BYTE   W06
        BYTE           N06     Gn5   v110
        BYTE   W06
        BYTE                   Cn6
        BYTE   W06
        BYTE                   Bn5
        BYTE   W06
        BYTE           N96     Gn5
        BYTE   W72
        BYTE   PEND
// 014   ----------------------------------------
SkyPeakPrairie_6_14:
        BYTE   W36
        BYTE           N06     En5   v110
        BYTE   W06
        BYTE                   Gn5
        BYTE   W06
        BYTE                   En5
        BYTE   W06
        BYTE                   Gn5
        BYTE   W06
        BYTE                   Cn6
        BYTE   W06
        BYTE                   Bn5
        BYTE   W06
        BYTE           N96     Gn5
        BYTE   W24
        BYTE   PEND
// 015   ----------------------------------------
SkyPeakPrairie_6_15:
        BYTE   W84
        BYTE           N06     Gn4   v110
        BYTE   W06
        BYTE                   An4
        BYTE   W06
        BYTE   PEND
// 016   ----------------------------------------
SkyPeakPrairie_6_16:
        BYTE           N06     Dn4   v110
        BYTE   W06
        BYTE                   Gn4
        BYTE   W06
        BYTE                   Cn5
        BYTE   W06
        BYTE                   Bn4
        BYTE   W06
        BYTE           TIE     Gn4
        BYTE   W72
        BYTE   PEND
// 017   ----------------------------------------
        BYTE   W60
        BYTE           EOT
        BYTE   W36
// 018   ----------------------------------------
        BYTE   W96
// 019   ----------------------------------------
SkyPeakPrairie_6_19:
        BYTE   W12
        BYTE           N06     Fn3   v100
        BYTE   W06
        BYTE                   Gn3
        BYTE   W06
        BYTE                   An3
        BYTE   W06
        BYTE                   Bn3
        BYTE   W06
        BYTE                   Cn4
        BYTE   W06
        BYTE                   Dn4
        BYTE   W06
        BYTE           N36     Cn4
        BYTE   W36
        BYTE                   Dn4
        BYTE   W12
        BYTE   PEND
// 020   ----------------------------------------
SkyPeakPrairie_6_20:
        BYTE   W24
        BYTE           N06     En4   v100
        BYTE   W06
        BYTE                   Cn4
        BYTE   W06
        BYTE                   Dn4
        BYTE   W06
        BYTE                   En4
        BYTE   W06
        BYTE                   Fn4
        BYTE   W06
        BYTE                   Gn4
        BYTE   W06
        BYTE           N36     An4
        BYTE   W36
        BYTE   PEND
// 021   ----------------------------------------
SkyPeakPrairie_6_21:
        BYTE   W06
        BYTE           N06     Gn4   v100
        BYTE   W06
        BYTE                   An4
        BYTE   W06
        BYTE                   Bn4
        BYTE   W06
        BYTE                   Cn5
        BYTE   W06
        BYTE                   Dn5
        BYTE   W06
        BYTE                   En5
        BYTE   W06
        BYTE                   Fn5
        BYTE   W06
        BYTE                   En5
        BYTE   W06
        BYTE                   Dn5
        BYTE   W06
        BYTE                   Cn5
        BYTE   W06
        BYTE                   Bn4
        BYTE   W06
        BYTE           N36     Gn4
        BYTE   W24
        BYTE   PEND
// 022   ----------------------------------------
        BYTE   W96
// 023   ----------------------------------------
        BYTE   W96
// 024   ----------------------------------------
        BYTE   W96
// 025   ----------------------------------------
SkyPeakPrairie_6_25:
        BYTE   W12
        BYTE           N06     Cn4   v127
        BYTE   W06
        BYTE           N03     Bn3
        BYTE   W06
        BYTE           N48     Gn3
        BYTE   W60
        BYTE           N06     Fn3
        BYTE   W06
        BYTE           N03     En3
        BYTE   W06
        BYTE   PEND
// 026   ----------------------------------------
SkyPeakPrairie_6_26:
        BYTE           N48     Cn3   v127
        BYTE   W60
        BYTE           N06     Cn4
        BYTE   W06
        BYTE           N03     Bn3
        BYTE   W06
        BYTE           N48     Gn3
        BYTE   W24
        BYTE   PEND
// 027   ----------------------------------------
SkyPeakPrairie_6_27:
        BYTE   W36
        BYTE           N06     Fn3   v127
        BYTE   W06
        BYTE           N03     En3
        BYTE   W06
        BYTE           N36     Cn3
        BYTE   W36
        BYTE           N03
        BYTE   W03
        BYTE                   Dn3
        BYTE   W04
        BYTE                   En3
        BYTE   W03
        BYTE                   Fn3
        BYTE   W02
        BYTE   PEND
// 028   ----------------------------------------
SkyPeakPrairie_6_28:
        BYTE   W01
        BYTE           N03     Gn3   v127
        BYTE   W04
        BYTE                   An3
        BYTE   W03
        BYTE                   Bn3
        BYTE   W04
        BYTE           N06     Cn4
        BYTE   W06
        BYTE           N04     Bn3
        BYTE   W06
        BYTE           N48     Gn3
        BYTE   W60
        BYTE           N06
        BYTE   W06
        BYTE           N04     Fs3
        BYTE   W06
        BYTE   PEND
// 029   ----------------------------------------
SkyPeakPrairie_6_29:
        BYTE           N48     Dn3   v127
        BYTE   W60
        BYTE           N06     Cn4
        BYTE   W06
        BYTE           N04     Bn3
        BYTE   W06
        BYTE           N48     Gn3
        BYTE   W24
        BYTE   PEND
// 030   ----------------------------------------
SkyPeakPrairie_6_30:
        BYTE   W36
        BYTE           N06     Gn3   v127
        BYTE   W06
        BYTE           N04     Fs3
        BYTE   W06
        BYTE           N48     Dn3
        BYTE   W48
        BYTE   PEND
// 031   ----------------------------------------
SkyPeakPrairie_6_LOOP:
        BYTE   W96
// 032   ----------------------------------------
        BYTE   W96
// 033   ----------------------------------------
        BYTE   W96
// 034   ----------------------------------------
        BYTE   PATT
         POIN2  SkyPeakPrairie_6_7
// 035   ----------------------------------------
        BYTE   PATT
         POIN2  SkyPeakPrairie_6_8
// 036   ----------------------------------------
        BYTE   PATT
         POIN2  SkyPeakPrairie_6_9
// 037   ----------------------------------------
        BYTE   PATT
         POIN2  SkyPeakPrairie_6_10
// 038   ----------------------------------------
        BYTE   PATT
         POIN2  SkyPeakPrairie_6_11
// 039   ----------------------------------------
        BYTE   PATT
         POIN2  SkyPeakPrairie_6_12
// 040   ----------------------------------------
        BYTE   PATT
         POIN2  SkyPeakPrairie_6_13
// 041   ----------------------------------------
        BYTE   PATT
         POIN2  SkyPeakPrairie_6_14
// 042   ----------------------------------------
        BYTE   PATT
         POIN2  SkyPeakPrairie_6_15
// 043   ----------------------------------------
        BYTE   PATT
         POIN2  SkyPeakPrairie_6_16
// 044   ----------------------------------------
        BYTE   W60
        BYTE           EOT     Gn4
        BYTE   W36
// 045   ----------------------------------------
        BYTE   W96
// 046   ----------------------------------------
        BYTE   PATT
         POIN2  SkyPeakPrairie_6_19
// 047   ----------------------------------------
        BYTE   PATT
         POIN2  SkyPeakPrairie_6_20
// 048   ----------------------------------------
        BYTE   PATT
         POIN2  SkyPeakPrairie_6_21
// 049   ----------------------------------------
        BYTE   W96
// 050   ----------------------------------------
        BYTE   W96
// 051   ----------------------------------------
        BYTE   W96
// 052   ----------------------------------------
        BYTE   PATT
         POIN2  SkyPeakPrairie_6_25
// 053   ----------------------------------------
        BYTE   PATT
         POIN2  SkyPeakPrairie_6_26
// 054   ----------------------------------------
        BYTE   PATT
         POIN2  SkyPeakPrairie_6_27
// 055   ----------------------------------------
        BYTE   PATT
         POIN2  SkyPeakPrairie_6_28
// 056   ----------------------------------------
        BYTE   PATT
         POIN2  SkyPeakPrairie_6_29
// 057   ----------------------------------------
        BYTE   PATT
         POIN2  SkyPeakPrairie_6_30
// 058   ----------------------------------------
        BYTE   GoTo
         POIN2  SkyPeakPrairie_6_LOOP
        BYTE   FINE

//****************** Track 7 (Midi-Chn.7) ******************//

SkyPeakPrairie_7:
        BYTE   KEYSH   SkyPeakPrairie_key+0
// 000   ----------------------------------------
        BYTE   W24
// 001   ----------------------------------------
        BYTE           PAN     c_v+26
        BYTE           VOL     35
        BYTE           VOICE   11
        BYTE   W96
// 002   ----------------------------------------
        BYTE   W96
// 003   ----------------------------------------
        BYTE   W96
// 004   ----------------------------------------
SkyPeakPrairie_7_4:
        BYTE           N24     Dn6   v127
        BYTE   W24
        BYTE           N06     En6
        BYTE   W06
        BYTE                   An5
        BYTE   W06
        BYTE           N12     Dn6
        BYTE   W12
        BYTE           N72     An6
        BYTE   W48
        BYTE   PEND
// 005   ----------------------------------------
SkyPeakPrairie_7_5:
        BYTE   W48
        BYTE           N24     Dn6   v127
        BYTE   W24
        BYTE           N06     En6
        BYTE   W06
        BYTE                   An5
        BYTE   W06
        BYTE           N12     Dn6
        BYTE   W12
        BYTE   PEND
// 006   ----------------------------------------
        BYTE           N72     An6
        BYTE   W96
// 007   ----------------------------------------
        BYTE   PATT
         POIN2  SkyPeakPrairie_7_4
// 008   ----------------------------------------
        BYTE   PATT
         POIN2  SkyPeakPrairie_7_5
// 009   ----------------------------------------
        BYTE           N72     An6   v127
        BYTE   W96
// 010   ----------------------------------------
SkyPeakPrairie_7_10:
        BYTE   W12
        BYTE           N24     En6   v127
        BYTE   W12
        BYTE                   Cn6
        BYTE   W12
        BYTE                   Fs6
        BYTE   W12
        BYTE                   Dn6
        BYTE   W12
        BYTE                   An5
        BYTE   W24
        BYTE                   Gn6
        BYTE   W12
        BYTE   PEND
// 011   ----------------------------------------
SkyPeakPrairie_7_11:
        BYTE           N24     Dn6   v127
        BYTE   W12
        BYTE                   En6
        BYTE   W12
        BYTE                   An5
        BYTE   W12
        BYTE                   Dn6
        BYTE   W24
        BYTE                   En6
        BYTE   W12
        BYTE                   Cn6
        BYTE   W12
        BYTE                   Fs6
        BYTE   W12
        BYTE   PEND
// 012   ----------------------------------------
SkyPeakPrairie_7_12:
        BYTE           N24     Dn6   v127
        BYTE   W12
        BYTE                   An5
        BYTE   W24
        BYTE                   Gn6
        BYTE   W12
        BYTE                   Dn6
        BYTE   W12
        BYTE                   En6
        BYTE   W12
        BYTE                   An5
        BYTE   W12
        BYTE                   Dn6
        BYTE   W12
        BYTE   PEND
// 013   ----------------------------------------
        BYTE   W96
// 014   ----------------------------------------
        BYTE   W96
// 015   ----------------------------------------
        BYTE   W96
// 016   ----------------------------------------
        BYTE   W96
// 017   ----------------------------------------
        BYTE   W96
// 018   ----------------------------------------
        BYTE   W96
// 019   ----------------------------------------
        BYTE   W96
// 020   ----------------------------------------
        BYTE   W96
// 021   ----------------------------------------
        BYTE   W96
// 022   ----------------------------------------
        BYTE   W96
// 023   ----------------------------------------
        BYTE   W96
// 024   ----------------------------------------
        BYTE   W96
// 025   ----------------------------------------
SkyPeakPrairie_7_25:
        BYTE   W12
        BYTE           N36     Gn5   v127
        BYTE   W12
        BYTE                   Cn6
        BYTE   W12
        BYTE                   Cn7
        BYTE   W12
        BYTE           N24     Gn6
        BYTE   W12
        BYTE           N12     Dn6
        BYTE   W12
        BYTE           N72
        BYTE   W12
        BYTE           N12     En6
        BYTE   W12
        BYTE   PEND
// 026   ----------------------------------------
SkyPeakPrairie_7_26:
        BYTE           N48     En6   v127
        BYTE   W60
        BYTE           N36     Gn5
        BYTE   W12
        BYTE                   Cn6
        BYTE   W12
        BYTE                   Cn7
        BYTE   W12
        BYTE   PEND
// 027   ----------------------------------------
SkyPeakPrairie_7_27:
        BYTE           N24     Gn6   v127
        BYTE   W12
        BYTE           N12     Dn6
        BYTE   W12
        BYTE           N72
        BYTE   W12
        BYTE           N12     En6
        BYTE   W12
        BYTE           N48
        BYTE   W48
        BYTE   PEND
// 028   ----------------------------------------
SkyPeakPrairie_7_28:
        BYTE   W12
        BYTE           N36     Gn5   v127
        BYTE   W12
        BYTE                   Dn6
        BYTE   W12
        BYTE                   An6
        BYTE   W12
        BYTE           N24     Gn6
        BYTE   W12
        BYTE           N12     Dn6
        BYTE   W12
        BYTE           N72
        BYTE   W12
        BYTE           N12     Fs6
        BYTE   W12
        BYTE   PEND
// 029   ----------------------------------------
SkyPeakPrairie_7_29:
        BYTE           N48     Fs6   v127
        BYTE   W60
        BYTE           N36     Gn5
        BYTE   W12
        BYTE                   Dn6
        BYTE   W12
        BYTE                   An6
        BYTE   W12
        BYTE   PEND
// 030   ----------------------------------------
SkyPeakPrairie_7_30:
        BYTE           N24     Gn6   v127
        BYTE   W12
        BYTE           N12     Dn6
        BYTE   W12
        BYTE           N72
        BYTE   W12
        BYTE           N12     Fs6
        BYTE   W12
        BYTE           N48
        BYTE   W48
        BYTE   PEND
// 031   ----------------------------------------
SkyPeakPrairie_7_LOOP:
        BYTE           N24     Dn6   v127
        BYTE   W24
        BYTE           N06     En6
        BYTE   W06
        BYTE                   An5
        BYTE   W06
        BYTE           N12     Dn6
        BYTE   W12
        BYTE           N72     An6
        BYTE   W48
// 032   ----------------------------------------
        BYTE   PATT
         POIN2  SkyPeakPrairie_7_5
// 033   ----------------------------------------
        BYTE           N72     An6   v127
        BYTE   W96
// 034   ----------------------------------------
        BYTE   PATT
         POIN2  SkyPeakPrairie_7_4
// 035   ----------------------------------------
        BYTE   PATT
         POIN2  SkyPeakPrairie_7_5
// 036   ----------------------------------------
        BYTE           N72     An6   v127
        BYTE   W96
// 037   ----------------------------------------
        BYTE   PATT
         POIN2  SkyPeakPrairie_7_10
// 038   ----------------------------------------
        BYTE   PATT
         POIN2  SkyPeakPrairie_7_11
// 039   ----------------------------------------
        BYTE   PATT
         POIN2  SkyPeakPrairie_7_12
// 040   ----------------------------------------
        BYTE   W96
// 041   ----------------------------------------
        BYTE   W96
// 042   ----------------------------------------
        BYTE   W96
// 043   ----------------------------------------
        BYTE   W96
// 044   ----------------------------------------
        BYTE   W96
// 045   ----------------------------------------
        BYTE   W96
// 046   ----------------------------------------
        BYTE   W96
// 047   ----------------------------------------
        BYTE   W96
// 048   ----------------------------------------
        BYTE   W96
// 049   ----------------------------------------
        BYTE   W96
// 050   ----------------------------------------
        BYTE   W96
// 051   ----------------------------------------
        BYTE   W96
// 052   ----------------------------------------
        BYTE   PATT
         POIN2  SkyPeakPrairie_7_25
// 053   ----------------------------------------
        BYTE   PATT
         POIN2  SkyPeakPrairie_7_26
// 054   ----------------------------------------
        BYTE   PATT
         POIN2  SkyPeakPrairie_7_27
// 055   ----------------------------------------
        BYTE   PATT
         POIN2  SkyPeakPrairie_7_28
// 056   ----------------------------------------
        BYTE   PATT
         POIN2  SkyPeakPrairie_7_29
// 057   ----------------------------------------
        BYTE   PATT
         POIN2  SkyPeakPrairie_7_30
// 058   ----------------------------------------
        BYTE   GoTo
         POIN2  SkyPeakPrairie_7_LOOP
        BYTE   FINE


//********************** End of Song ***********************//

        ALIGN 4
SkyPeakPrairie:
        BYTE   8                       // Num Tracks
        BYTE   0                       // Unknown
        BYTE   SkyPeakPrairie_pri      // Priority
        BYTE   SkyPeakPrairie_rev      // Reverb

        POIN2   SkyPeakPrairie_grp     

        POIN2   SkyPeakPrairie_0
        POIN2   SkyPeakPrairie_1
        POIN2   SkyPeakPrairie_2
        POIN2   SkyPeakPrairie_3
        POIN2   SkyPeakPrairie_4
        POIN2   SkyPeakPrairie_5
        POIN2   SkyPeakPrairie_6
        POIN2   SkyPeakPrairie_7

        
