//Event file generated from Sappy .s format.
        #include "MPlayDef.event"

        #define    ChasmCave_grp  voicegroup000
        #define    ChasmCave_pri  0
        #define    ChasmCave_rev  0
        #define    ChasmCave_key  0

        // .rodata
        // ChasmCave
        ALIGN 4

//****************** Track 0 (Midi-Chn.0) ******************//

ChasmCave_0:
        BYTE   KEYSH   ChasmCave_key+0
// 000   ----------------------------------------
        BYTE   TEMPO   120/2
        BYTE   W24
// 001   ----------------------------------------
        BYTE   TEMPO   160/2
        BYTE           VOL     65
        BYTE           VOICE   39
        BYTE           TIE     An0   v127
        BYTE   W96
// 002   ----------------------------------------
        BYTE   W96
// 003   ----------------------------------------
        BYTE   W96
// 004   ----------------------------------------
ChasmCave_0_4:
        BYTE           EOT     An0
        BYTE           TIE     An0   v127
        BYTE   W96
        BYTE   PEND
// 005   ----------------------------------------
        BYTE   W96
// 006   ----------------------------------------
        BYTE   W96
// 007   ----------------------------------------
ChasmCave_0_7:
        BYTE           EOT     An0
        BYTE           N12     Fs1   v127
        BYTE   W24
        BYTE                   Fs1
        BYTE   W24
        BYTE                   Fs1
        BYTE   W24
        BYTE                   Fs1
        BYTE   W24
        BYTE   PEND
// 008   ----------------------------------------
ChasmCave_0_8:
        BYTE           N12     Fs1   v127
        BYTE   W24
        BYTE                   Fs1
        BYTE   W24
        BYTE                   Fs1
        BYTE   W24
        BYTE                   Fs1
        BYTE   W24
        BYTE   PEND
// 009   ----------------------------------------
        BYTE   PATT
         POIN2  ChasmCave_0_8
// 010   ----------------------------------------
        BYTE   PATT
         POIN2  ChasmCave_0_8
// 011   ----------------------------------------
        BYTE   PATT
         POIN2  ChasmCave_0_8
// 012   ----------------------------------------
        BYTE   PATT
         POIN2  ChasmCave_0_8
// 013   ----------------------------------------
        BYTE   PATT
         POIN2  ChasmCave_0_8
// 014   ----------------------------------------
        BYTE   PATT
         POIN2  ChasmCave_0_8
// 015   ----------------------------------------
        BYTE   PATT
         POIN2  ChasmCave_0_8
// 016   ----------------------------------------
        BYTE   PATT
         POIN2  ChasmCave_0_8
// 017   ----------------------------------------
        BYTE   PATT
         POIN2  ChasmCave_0_8
// 018   ----------------------------------------
        BYTE   PATT
         POIN2  ChasmCave_0_8
// 019   ----------------------------------------
ChasmCave_0_19:
        BYTE           N12     Fn1   v127
        BYTE   W24
        BYTE                   Fn1
        BYTE   W24
        BYTE                   Fn1
        BYTE   W24
        BYTE                   Fn1
        BYTE   W24
        BYTE   PEND
// 020   ----------------------------------------
        BYTE   PATT
         POIN2  ChasmCave_0_19
// 021   ----------------------------------------
        BYTE   PATT
         POIN2  ChasmCave_0_19
// 022   ----------------------------------------
ChasmCave_0_22:
        BYTE           N12     Fn1   v127
        BYTE   W24
        BYTE                   Fn1
        BYTE   W24
        BYTE                   Fn1
        BYTE   W24
        BYTE                   Cn1
        BYTE   W24
        BYTE   PEND
// 023   ----------------------------------------
ChasmCave_0_23:
        BYTE           N12     Cn1   v127
        BYTE   W24
        BYTE                   Cn1
        BYTE   W24
        BYTE                   Fs1
        BYTE   W24
        BYTE                   Fs1
        BYTE   W24
        BYTE   PEND
// 024   ----------------------------------------
ChasmCave_0_24:
        BYTE           N12     Fs1   v127
        BYTE   W24
        BYTE                   Gn1
        BYTE   W24
        BYTE                   Gn1
        BYTE   W24
        BYTE                   Gn1
        BYTE   W24
        BYTE   PEND
// 025   ----------------------------------------
ChasmCave_0_25:
        BYTE           N12     Cn1   v127
        BYTE   W24
        BYTE                   Cn1
        BYTE   W24
        BYTE                   Cn1
        BYTE   W24
        BYTE                   Cs1
        BYTE   W24
        BYTE   PEND
// 026   ----------------------------------------
ChasmCave_0_26:
        BYTE           N12     Cs1   v127
        BYTE   W24
        BYTE                   Cs1
        BYTE   W24
        BYTE                   Cn1
        BYTE   W24
        BYTE                   Cn1
        BYTE   W24
        BYTE   PEND
// 027   ----------------------------------------
ChasmCave_0_27:
        BYTE           N12     Cn1   v127
        BYTE   W24
        BYTE                   Cs1
        BYTE   W24
        BYTE                   Cs1
        BYTE   W24
        BYTE                   Cs1
        BYTE   W24
        BYTE   PEND
// 028   ----------------------------------------
ChasmCave_0_28:
        BYTE           N12     Cn1   v127
        BYTE   W24
        BYTE                   Cn1
        BYTE   W24
        BYTE                   Cn1
        BYTE   W24
        BYTE                   Fs1
        BYTE   W24
        BYTE   PEND
// 029   ----------------------------------------
ChasmCave_0_29:
        BYTE           N12     Fs1   v127
        BYTE   W24
        BYTE                   Fs1
        BYTE   W24
        BYTE                   Gn1
        BYTE   W24
        BYTE                   Gn1
        BYTE   W24
        BYTE   PEND
// 030   ----------------------------------------
ChasmCave_0_30:
        BYTE           N12     Gn1   v127
        BYTE   W24
        BYTE                   Fn1
        BYTE   W24
        BYTE                   Fn1
        BYTE   W24
        BYTE                   Fn1
        BYTE   W24
        BYTE   PEND
// 031   ----------------------------------------
ChasmCave_0_31:
        BYTE           N12     Gn1   v127
        BYTE   W24
        BYTE                   Gn1
        BYTE   W24
        BYTE                   Gn1
        BYTE   W24
        BYTE                   Fn1
        BYTE   W24
        BYTE   PEND
// 032   ----------------------------------------
ChasmCave_0_32:
        BYTE           N12     Fn1   v127
        BYTE   W24
        BYTE                   Fn1
        BYTE   W24
        BYTE           N72     Gn1
        BYTE   W48
        BYTE   PEND
// 033   ----------------------------------------
ChasmCave_0_33:
        BYTE   W24
        BYTE           N72     An1   v127
        BYTE   W72
        BYTE   PEND
// 034   ----------------------------------------
ChasmCave_0_34:
        BYTE           N12     Dn1   v127
        BYTE   W24
        BYTE                   Dn1
        BYTE   W24
        BYTE                   Dn1
        BYTE   W24
        BYTE                   Dn1
        BYTE   W24
        BYTE   PEND
// 035   ----------------------------------------
        BYTE   PATT
         POIN2  ChasmCave_0_34
// 036   ----------------------------------------
        BYTE   PATT
         POIN2  ChasmCave_0_34
// 037   ----------------------------------------
        BYTE   PATT
         POIN2  ChasmCave_0_34
// 038   ----------------------------------------
        BYTE   PATT
         POIN2  ChasmCave_0_34
// 039   ----------------------------------------
        BYTE   PATT
         POIN2  ChasmCave_0_34
// 040   ----------------------------------------
        BYTE           TIE     An0   v127
        BYTE   W96
// 041   ----------------------------------------
        BYTE   W96
// 042   ----------------------------------------
        BYTE   W96
// 043   ----------------------------------------
ChasmCave_0_43:
        BYTE           EOT     An0
        BYTE           TIE     En0   v127
        BYTE   W96
        BYTE   PEND
// 044   ----------------------------------------
        BYTE   W96
// 045   ----------------------------------------
        BYTE   W96
// 046   ----------------------------------------
        BYTE           EOT
ChasmCave_0_LOOP:
        BYTE           TIE     An0   v127
        BYTE   W96
// 047   ----------------------------------------
        BYTE   W96
// 048   ----------------------------------------
        BYTE   W96
// 049   ----------------------------------------
        BYTE   PATT
         POIN2  ChasmCave_0_4
// 050   ----------------------------------------
        BYTE   W96
// 051   ----------------------------------------
        BYTE   W96
// 052   ----------------------------------------
        BYTE   PATT
         POIN2  ChasmCave_0_7
// 053   ----------------------------------------
        BYTE   PATT
         POIN2  ChasmCave_0_8
// 054   ----------------------------------------
        BYTE   PATT
         POIN2  ChasmCave_0_8
// 055   ----------------------------------------
        BYTE   PATT
         POIN2  ChasmCave_0_8
// 056   ----------------------------------------
        BYTE   PATT
         POIN2  ChasmCave_0_8
// 057   ----------------------------------------
        BYTE   PATT
         POIN2  ChasmCave_0_8
// 058   ----------------------------------------
        BYTE   PATT
         POIN2  ChasmCave_0_8
// 059   ----------------------------------------
        BYTE   PATT
         POIN2  ChasmCave_0_8
// 060   ----------------------------------------
        BYTE   PATT
         POIN2  ChasmCave_0_8
// 061   ----------------------------------------
        BYTE   PATT
         POIN2  ChasmCave_0_8
// 062   ----------------------------------------
        BYTE   PATT
         POIN2  ChasmCave_0_8
// 063   ----------------------------------------
        BYTE   PATT
         POIN2  ChasmCave_0_8
// 064   ----------------------------------------
        BYTE   PATT
         POIN2  ChasmCave_0_19
// 065   ----------------------------------------
        BYTE   PATT
         POIN2  ChasmCave_0_19
// 066   ----------------------------------------
        BYTE   PATT
         POIN2  ChasmCave_0_19
// 067   ----------------------------------------
        BYTE   PATT
         POIN2  ChasmCave_0_22
// 068   ----------------------------------------
        BYTE   PATT
         POIN2  ChasmCave_0_23
// 069   ----------------------------------------
        BYTE   PATT
         POIN2  ChasmCave_0_24
// 070   ----------------------------------------
        BYTE   PATT
         POIN2  ChasmCave_0_25
// 071   ----------------------------------------
        BYTE   PATT
         POIN2  ChasmCave_0_26
// 072   ----------------------------------------
        BYTE   PATT
         POIN2  ChasmCave_0_27
// 073   ----------------------------------------
        BYTE   PATT
         POIN2  ChasmCave_0_28
// 074   ----------------------------------------
        BYTE   PATT
         POIN2  ChasmCave_0_29
// 075   ----------------------------------------
        BYTE   PATT
         POIN2  ChasmCave_0_30
// 076   ----------------------------------------
        BYTE   PATT
         POIN2  ChasmCave_0_31
// 077   ----------------------------------------
        BYTE   PATT
         POIN2  ChasmCave_0_32
// 078   ----------------------------------------
        BYTE   PATT
         POIN2  ChasmCave_0_33
// 079   ----------------------------------------
        BYTE   PATT
         POIN2  ChasmCave_0_34
// 080   ----------------------------------------
        BYTE   PATT
         POIN2  ChasmCave_0_34
// 081   ----------------------------------------
        BYTE   PATT
         POIN2  ChasmCave_0_34
// 082   ----------------------------------------
        BYTE   PATT
         POIN2  ChasmCave_0_34
// 083   ----------------------------------------
        BYTE   PATT
         POIN2  ChasmCave_0_34
// 084   ----------------------------------------
        BYTE   PATT
         POIN2  ChasmCave_0_34
// 085   ----------------------------------------
        BYTE           TIE     An0   v127
        BYTE   W96
// 086   ----------------------------------------
        BYTE   W96
// 087   ----------------------------------------
        BYTE   W96
// 088   ----------------------------------------
        BYTE   PATT
         POIN2  ChasmCave_0_43
// 089   ----------------------------------------
        BYTE   W96
// 090   ----------------------------------------
        BYTE   W96
// 091   ----------------------------------------
        BYTE           EOT     En0
        BYTE   GoTo
         POIN2  ChasmCave_0_LOOP
        BYTE   FINE

//****************** Track 1 (Midi-Chn.1) ******************//

ChasmCave_1:
        BYTE   KEYSH   ChasmCave_key+0
// 000   ----------------------------------------
        BYTE   W24
// 001   ----------------------------------------
        BYTE           PAN     c_v-64
        BYTE           VOL     33
        BYTE           VOICE   48
        BYTE   W96
// 002   ----------------------------------------
ChasmCave_1_2:
        BYTE   W44
        BYTE   W02
        BYTE           N06     Cn3   v127
        BYTE           N06     Fn3
        BYTE           N06     An3
        BYTE   W12
        BYTE                   Cn3
        BYTE           N06     Fn3
        BYTE           N06     An3
        BYTE   W12
        BYTE                   Dn3
        BYTE           N06     Gn3
        BYTE           N06     Bn3
        BYTE   W12
        BYTE                   Dn3
        BYTE           N06     Gn3
        BYTE           N06     Bn3
        BYTE   W12
        BYTE                   En3
        BYTE           N06     An3
        BYTE           N06     Cn4
        BYTE   W02
        BYTE   PEND
// 003   ----------------------------------------
ChasmCave_1_3:
        BYTE   W10
        BYTE           N06     En3   v127
        BYTE           N06     An3
        BYTE           N06     Cn4
        BYTE   W12
        BYTE                   Fn3
        BYTE           N06     Bn3
        BYTE           N06     Dn4
        BYTE   W12
        BYTE                   Fn3
        BYTE           N06     Bn3
        BYTE           N06     Dn4
        BYTE   W12
        BYTE                   Dn3
        BYTE           N06     Gn3
        BYTE           N06     Bn3
        BYTE   W12
        BYTE                   Dn3
        BYTE           N06     Gn3
        BYTE           N06     Bn3
        BYTE   W12
        BYTE                   En3
        BYTE           N06     An3
        BYTE           N06     Cn4
        BYTE   W12
        BYTE                   En3
        BYTE           N06     An3
        BYTE           N06     Cn4
        BYTE   W14
        BYTE   PEND
// 004   ----------------------------------------
        BYTE   W96
// 005   ----------------------------------------
ChasmCave_1_5:
        BYTE   W44
        BYTE   W02
        BYTE           N06     En3   v127
        BYTE           N06     An3
        BYTE           N06     Cn4
        BYTE   W12
        BYTE                   En3
        BYTE           N06     An3
        BYTE           N06     Cn4
        BYTE   W12
        BYTE                   Fn3
        BYTE           N06     Bn3
        BYTE           N06     Dn4
        BYTE   W12
        BYTE                   Fn3
        BYTE           N06     Bn3
        BYTE           N06     Dn4
        BYTE   W12
        BYTE                   Gn3
        BYTE           N06     Cn4
        BYTE           N06     En4
        BYTE   W02
        BYTE   PEND
// 006   ----------------------------------------
ChasmCave_1_6:
        BYTE   W10
        BYTE           N06     Gn3   v127
        BYTE           N06     Cn4
        BYTE           N06     En4
        BYTE   W12
        BYTE                   An3
        BYTE           N06     Dn4
        BYTE           N06     Fn4
        BYTE   W12
        BYTE                   An3
        BYTE           N06     Dn4
        BYTE           N06     Fn4
        BYTE   W12
        BYTE                   Fn3
        BYTE           N06     Bn3
        BYTE           N06     Dn4
        BYTE   W12
        BYTE                   Fn3
        BYTE           N06     Bn3
        BYTE           N06     Dn4
        BYTE   W12
        BYTE                   Gn3
        BYTE           N06     Cn4
        BYTE           N06     En4
        BYTE   W12
        BYTE                   Gn3
        BYTE           N06     Cn4
        BYTE           N06     En4
        BYTE   W12
        BYTE                   Cs4
        BYTE           N06     Fs4
        BYTE           N06     An4
        BYTE   W02
        BYTE   PEND
// 007   ----------------------------------------
ChasmCave_1_7:
        BYTE   W10
        BYTE           N06     Cs4   v127
        BYTE           N06     Fs4
        BYTE           N06     An4
        BYTE   W12
        BYTE                   Bn3
        BYTE           N06     En4
        BYTE           N06     Gs4
        BYTE   W12
        BYTE                   Bn3
        BYTE           N06     En4
        BYTE           N06     Gs4
        BYTE   W12
        BYTE                   Cs4
        BYTE           N06     Fs4
        BYTE           N06     An4
        BYTE   W12
        BYTE                   Cs4
        BYTE           N06     Fs4
        BYTE           N06     An4
        BYTE   W12
        BYTE                   Bn3
        BYTE           N06     En4
        BYTE           N06     Gs4
        BYTE   W12
        BYTE                   Bn3
        BYTE           N06     En4
        BYTE           N06     Gs4
        BYTE   W12
        BYTE                   Cs4
        BYTE           N06     Fs4
        BYTE           N06     An4
        BYTE   W02
        BYTE   PEND
// 008   ----------------------------------------
ChasmCave_1_8:
        BYTE   W10
        BYTE           N06     Cs4   v127
        BYTE           N06     Fs4
        BYTE           N06     An4
        BYTE   W12
        BYTE                   Bn3
        BYTE           N06     En4
        BYTE           N06     Gs4
        BYTE   W12
        BYTE                   Bn3
        BYTE           N06     En4
        BYTE           N06     Gs4
        BYTE   W12
        BYTE                   An3
        BYTE           N06     Dn4
        BYTE           N06     Fs4
        BYTE   W12
        BYTE                   An3
        BYTE           N06     Dn4
        BYTE           N06     Fs4
        BYTE   W12
        BYTE                   Bn3
        BYTE           N06     En4
        BYTE           N06     Gs4
        BYTE   W12
        BYTE                   Bn3
        BYTE           N06     En4
        BYTE           N06     Gs4
        BYTE   W12
        BYTE                   An3
        BYTE           N06     Dn4
        BYTE           N06     Fs4
        BYTE   W02
        BYTE   PEND
// 009   ----------------------------------------
ChasmCave_1_9:
        BYTE   W10
        BYTE           N06     An3   v127
        BYTE           N06     Dn4
        BYTE           N06     Fs4
        BYTE   W12
        BYTE                   Bn3
        BYTE           N06     En4
        BYTE           N06     Gs4
        BYTE   W12
        BYTE                   Bn3
        BYTE           N06     En4
        BYTE           N06     Gs4
        BYTE   W12
        BYTE                   An3
        BYTE           N06     Dn4
        BYTE           N06     Fs4
        BYTE   W12
        BYTE                   An3
        BYTE           N06     Dn4
        BYTE           N06     Fs4
        BYTE   W12
        BYTE                   Bn3
        BYTE           N06     En4
        BYTE           N06     Gs4
        BYTE   W12
        BYTE                   Bn3
        BYTE           N06     En4
        BYTE           N06     Gs4
        BYTE   W12
        BYTE                   An3
        BYTE           N06     Cs4
        BYTE           N06     En4
        BYTE   W02
        BYTE   PEND
// 010   ----------------------------------------
ChasmCave_1_10:
        BYTE   W10
        BYTE           N06     An3   v127
        BYTE           N06     Cs4
        BYTE           N06     En4
        BYTE   W12
        BYTE                   Bn3
        BYTE           N06     Ds4
        BYTE           N06     Fs4
        BYTE   W12
        BYTE                   Bn3
        BYTE           N06     Ds4
        BYTE           N06     Fs4
        BYTE   W12
        BYTE                   An3
        BYTE           N06     Cs4
        BYTE           N06     En4
        BYTE   W12
        BYTE                   An3
        BYTE           N06     Cs4
        BYTE           N06     En4
        BYTE   W12
        BYTE                   Bn3
        BYTE           N06     Ds4
        BYTE           N06     Fs4
        BYTE   W12
        BYTE                   Bn3
        BYTE           N06     Ds4
        BYTE           N06     Fs4
        BYTE   W12
        BYTE                   An3
        BYTE           N06     Cs4
        BYTE           N06     En4
        BYTE   W02
        BYTE   PEND
// 011   ----------------------------------------
ChasmCave_1_11:
        BYTE   W10
        BYTE           N06     An3   v127
        BYTE           N06     Cs4
        BYTE           N06     En4
        BYTE   W12
        BYTE                   Bn3
        BYTE           N06     Ds4
        BYTE           N06     Fs4
        BYTE   W12
        BYTE                   Bn3
        BYTE           N06     Ds4
        BYTE           N06     Fs4
        BYTE   W12
        BYTE                   Gs3
        BYTE           N06     Bn3
        BYTE           N06     Ds4
        BYTE   W12
        BYTE                   Gs3
        BYTE           N06     Bn3
        BYTE           N06     Ds4
        BYTE   W12
        BYTE                   An3
        BYTE           N06     Cs4
        BYTE           N06     En4
        BYTE   W12
        BYTE                   An3
        BYTE           N06     Cs4
        BYTE           N06     En4
        BYTE   W12
        BYTE                   Gs3
        BYTE           N06     Bn3
        BYTE           N06     Ds4
        BYTE   W02
        BYTE   PEND
// 012   ----------------------------------------
ChasmCave_1_12:
        BYTE   W10
        BYTE           N06     Gs3   v127
        BYTE           N06     Bn3
        BYTE           N06     Ds4
        BYTE   W12
        BYTE                   An3
        BYTE           N06     Cs4
        BYTE           N06     En4
        BYTE   W12
        BYTE                   An3
        BYTE           N06     Cs4
        BYTE           N06     En4
        BYTE   W12
        BYTE                   Gs3
        BYTE           N06     Bn3
        BYTE           N06     Ds4
        BYTE   W12
        BYTE                   Gs3
        BYTE           N06     Bn3
        BYTE           N06     Ds4
        BYTE   W12
        BYTE                   An3
        BYTE           N06     Cs4
        BYTE           N06     En4
        BYTE   W12
        BYTE                   An3
        BYTE           N06     Cs4
        BYTE           N06     En4
        BYTE   W12
        BYTE                   Cs4
        BYTE           N06     Fs4
        BYTE           N06     An4
        BYTE   W02
        BYTE   PEND
// 013   ----------------------------------------
        BYTE   PATT
         POIN2  ChasmCave_1_7
// 014   ----------------------------------------
        BYTE   PATT
         POIN2  ChasmCave_1_8
// 015   ----------------------------------------
        BYTE   PATT
         POIN2  ChasmCave_1_9
// 016   ----------------------------------------
        BYTE   PATT
         POIN2  ChasmCave_1_10
// 017   ----------------------------------------
        BYTE   PATT
         POIN2  ChasmCave_1_11
// 018   ----------------------------------------
ChasmCave_1_18:
        BYTE   W10
        BYTE           N06     Gs3   v127
        BYTE           N06     Bn3
        BYTE           N06     Ds4
        BYTE   W12
        BYTE                   An3
        BYTE           N06     Cs4
        BYTE           N06     En4
        BYTE   W12
        BYTE                   An3
        BYTE           N06     Cs4
        BYTE           N06     En4
        BYTE   W12
        BYTE                   Gs3
        BYTE           N06     Bn3
        BYTE           N06     Ds4
        BYTE   W12
        BYTE                   Gs3
        BYTE           N06     Bn3
        BYTE           N06     Ds4
        BYTE   W12
        BYTE                   Fs3
        BYTE           N06     An3
        BYTE           N06     Cs4
        BYTE   W12
        BYTE                   Fs3
        BYTE           N06     An3
        BYTE           N06     Cs4
        BYTE   W12
        BYTE                   Gs2
        BYTE           N06     Cn3
        BYTE           N06     Fn3
        BYTE   W02
        BYTE   PEND
// 019   ----------------------------------------
ChasmCave_1_19:
        BYTE   W10
        BYTE           N06     Gs2   v127
        BYTE           N06     Cn3
        BYTE           N06     Fn3
        BYTE   W12
        BYTE                   As2
        BYTE           N06     Dn3
        BYTE           N06     Gn3
        BYTE   W12
        BYTE                   As2
        BYTE           N06     Dn3
        BYTE           N06     Gn3
        BYTE   W12
        BYTE                   Cn3
        BYTE           N06     Ds3
        BYTE           N06     Gs3
        BYTE   W12
        BYTE                   Cn3
        BYTE           N06     Ds3
        BYTE           N06     Gs3
        BYTE   W12
        BYTE                   Dn3
        BYTE           N06     Fn3
        BYTE           N06     As3
        BYTE   W12
        BYTE                   Dn3
        BYTE           N06     Fn3
        BYTE           N06     As3
        BYTE   W12
        BYTE                   Cn3
        BYTE           N06     Ds3
        BYTE           N06     Gs3
        BYTE   W02
        BYTE   PEND
// 020   ----------------------------------------
ChasmCave_1_20:
        BYTE   W10
        BYTE           N06     Cn3   v127
        BYTE           N06     Ds3
        BYTE           N06     Gs3
        BYTE   W12
        BYTE                   As2
        BYTE           N06     Dn3
        BYTE           N06     Gn3
        BYTE   W12
        BYTE                   As2
        BYTE           N06     Dn3
        BYTE           N06     Gn3
        BYTE   W12
        BYTE                   Gs2
        BYTE           N06     Cn3
        BYTE           N06     Fn3
        BYTE   W12
        BYTE                   Gs2
        BYTE           N06     Cn3
        BYTE           N06     Fn3
        BYTE   W12
        BYTE                   As2
        BYTE           N06     Dn3
        BYTE           N06     Gn3
        BYTE   W12
        BYTE                   As2
        BYTE           N06     Dn3
        BYTE           N06     Gn3
        BYTE   W12
        BYTE                   Cn3
        BYTE           N06     Ds3
        BYTE           N06     Gs3
        BYTE   W02
        BYTE   PEND
// 021   ----------------------------------------
ChasmCave_1_21:
        BYTE   W10
        BYTE           N06     Cn3   v127
        BYTE           N06     Ds3
        BYTE           N06     Gs3
        BYTE   W12
        BYTE                   Dn3
        BYTE           N06     Fn3
        BYTE           N06     As3
        BYTE   W12
        BYTE                   Dn3
        BYTE           N06     Fn3
        BYTE           N06     As3
        BYTE   W12
        BYTE                   Ds3
        BYTE           N06     Gs3
        BYTE           N06     Cn4
        BYTE   W12
        BYTE                   Ds3
        BYTE           N06     Gs3
        BYTE           N06     Cn4
        BYTE   W12
        BYTE                   Dn3
        BYTE           N06     Fn3
        BYTE           N06     Gs3
        BYTE   W12
        BYTE                   Dn3
        BYTE           N06     Fn3
        BYTE           N06     Gs3
        BYTE   W12
        BYTE                   Ds3
        BYTE           N06     Gn3
        BYTE           N06     As3
        BYTE   W02
        BYTE   PEND
// 022   ----------------------------------------
ChasmCave_1_22:
        BYTE   W10
        BYTE           N06     Ds3   v127
        BYTE           N06     Gn3
        BYTE           N06     As3
        BYTE   W12
        BYTE                   Fn3
        BYTE           N06     Gs3
        BYTE           N06     Cn4
        BYTE   W12
        BYTE                   Fn3
        BYTE           N06     Gs3
        BYTE           N06     Cn4
        BYTE   W12
        BYTE                   Gn3
        BYTE           N06     As3
        BYTE           N06     Dn4
        BYTE   W12
        BYTE                   Gn3
        BYTE           N06     As3
        BYTE           N06     Dn4
        BYTE   W12
        BYTE                   Ds3
        BYTE           N06     Gn3
        BYTE           N06     Cn4
        BYTE   W12
        BYTE                   Ds3
        BYTE           N06     Gn3
        BYTE           N06     Cn4
        BYTE   W12
        BYTE                   Fn3
        BYTE           N06     Gs3
        BYTE           N06     Ds4
        BYTE   W02
        BYTE   PEND
// 023   ----------------------------------------
ChasmCave_1_23:
        BYTE   W10
        BYTE           N06     Fn3   v127
        BYTE           N06     Gs3
        BYTE           N06     Ds4
        BYTE   W12
        BYTE                   Ds3
        BYTE           N06     Gn3
        BYTE           N06     Cn4
        BYTE   W12
        BYTE                   Ds3
        BYTE           N06     Gn3
        BYTE           N06     Cn4
        BYTE   W12
        BYTE                   Gs3
        BYTE           N06     Cs4
        BYTE           N06     Fn4
        BYTE   W12
        BYTE                   Gs3
        BYTE           N06     Cs4
        BYTE           N06     Fn4
        BYTE   W12
        BYTE                   As3
        BYTE           N06     Ds4
        BYTE           N06     Gn4
        BYTE   W12
        BYTE                   As3
        BYTE           N06     Ds4
        BYTE           N06     Gn4
        BYTE   W12
        BYTE                   Gs3
        BYTE           N06     Cs4
        BYTE           N06     Fn4
        BYTE   W02
        BYTE   PEND
// 024   ----------------------------------------
ChasmCave_1_24:
        BYTE   W10
        BYTE           N06     Gs3   v127
        BYTE           N06     Cs4
        BYTE           N06     Fn4
        BYTE   W12
        BYTE                   Bn3
        BYTE           N06     Dn4
        BYTE           N06     Gn4
        BYTE   W12
        BYTE                   Bn3
        BYTE           N06     Dn4
        BYTE           N06     Gn4
        BYTE   W12
        BYTE                   Fn3
        BYTE           N06     Bn3
        BYTE           N06     Dn4
        BYTE   W12
        BYTE                   Fn3
        BYTE           N06     Bn3
        BYTE           N06     Dn4
        BYTE   W12
        BYTE                   Bn2
        BYTE           N06     Ds3
        BYTE           N06     Gn3
        BYTE   W12
        BYTE                   Bn2
        BYTE           N06     Ds3
        BYTE           N06     Gn3
        BYTE   W12
        BYTE                   Ds2
        BYTE           N06     Gn2
        BYTE           N06     Cn3
        BYTE   W02
        BYTE   PEND
// 025   ----------------------------------------
ChasmCave_1_25:
        BYTE   W10
        BYTE           N06     Ds2   v127
        BYTE           N06     Gn2
        BYTE           N06     Cn3
        BYTE   W12
        BYTE                   Fn2
        BYTE           N06     An2
        BYTE           N06     Dn3
        BYTE   W12
        BYTE                   Fn2
        BYTE           N06     An2
        BYTE           N06     Dn3
        BYTE   W12
        BYTE                   Ds2
        BYTE           N06     Gn2
        BYTE           N06     Cn3
        BYTE   W12
        BYTE                   Ds2
        BYTE           N06     Gn2
        BYTE           N06     Cn3
        BYTE   W12
        BYTE                   Gs2
        BYTE           N06     Cs3
        BYTE           N06     Fn3
        BYTE   W12
        BYTE                   Gs2
        BYTE           N06     Cs3
        BYTE           N06     Fn3
        BYTE   W12
        BYTE                   Gn2
        BYTE           N06     Cn3
        BYTE           N06     Ds3
        BYTE   W02
        BYTE   PEND
// 026   ----------------------------------------
ChasmCave_1_26:
        BYTE   W10
        BYTE           N06     Gn2   v127
        BYTE           N06     Cn3
        BYTE           N06     Ds3
        BYTE   W12
        BYTE                   Fn2
        BYTE           N06     As2
        BYTE           N06     Cs3
        BYTE   W12
        BYTE                   Fn2
        BYTE           N06     As2
        BYTE           N06     Cs3
        BYTE   W12
        BYTE                   Ds2
        BYTE           N06     Gn2
        BYTE           N06     Cn3
        BYTE   W12
        BYTE                   Ds2
        BYTE           N06     Gn2
        BYTE           N06     Cn3
        BYTE   W12
        BYTE                   Fn2
        BYTE           N06     An2
        BYTE           N06     Dn3
        BYTE   W12
        BYTE                   Fn2
        BYTE           N06     An2
        BYTE           N06     Dn3
        BYTE   W12
        BYTE                   Ds2
        BYTE           N06     Gn2
        BYTE           N06     Cn3
        BYTE   W02
        BYTE   PEND
// 027   ----------------------------------------
ChasmCave_1_27:
        BYTE   W10
        BYTE           N06     Ds2   v127
        BYTE           N06     Gn2
        BYTE           N06     Cn3
        BYTE   W12
        BYTE                   Gs2
        BYTE           N06     Cs3
        BYTE           N06     Fn3
        BYTE   W12
        BYTE                   Gs2
        BYTE           N06     Cs3
        BYTE           N06     Fn3
        BYTE   W12
        BYTE                   Gn2
        BYTE           N06     Cn3
        BYTE           N06     Ds3
        BYTE   W12
        BYTE                   Gn2
        BYTE           N06     Cn3
        BYTE           N06     Ds3
        BYTE   W12
        BYTE                   Fn2
        BYTE           N06     As2
        BYTE           N06     Cs3
        BYTE   W12
        BYTE                   Fn2
        BYTE           N06     As2
        BYTE           N06     Cs3
        BYTE   W12
        BYTE                   Ds2
        BYTE           N06     Gn2
        BYTE           N06     Cn3
        BYTE   W02
        BYTE   PEND
// 028   ----------------------------------------
ChasmCave_1_28:
        BYTE   W10
        BYTE           N06     Ds2   v127
        BYTE           N06     Gn2
        BYTE           N06     Cn3
        BYTE   W12
        BYTE                   Gn2
        BYTE           N06     As2
        BYTE           N06     Ds3
        BYTE   W12
        BYTE                   Gn2
        BYTE           N06     As2
        BYTE           N06     Ds3
        BYTE   W12
        BYTE                   Gn2
        BYTE           N06     Cn3
        BYTE           N06     Gn3
        BYTE   W12
        BYTE                   Gn2
        BYTE           N06     Cn3
        BYTE           N06     Gn3
        BYTE   W12
        BYTE                   Fs3
        BYTE           N06     As3
        BYTE           N06     Cs4
        BYTE   W12
        BYTE                   Fs3
        BYTE           N06     As3
        BYTE           N06     Cs4
        BYTE   W12
        BYTE                   Cs3
        BYTE           N06     Fs3
        BYTE           N06     As3
        BYTE   W02
        BYTE   PEND
// 029   ----------------------------------------
ChasmCave_1_29:
        BYTE   W10
        BYTE           N06     Cs3   v127
        BYTE           N06     Fs3
        BYTE           N06     As3
        BYTE   W12
        BYTE                   Fs2
        BYTE           N06     As2
        BYTE           N06     Cs3
        BYTE   W12
        BYTE                   Fs2
        BYTE           N06     As2
        BYTE           N06     Cs3
        BYTE   W12
        BYTE                   As2
        BYTE           N06     Dn3
        BYTE           N06     Fn3
        BYTE   W12
        BYTE                   As2
        BYTE           N06     Dn3
        BYTE           N06     Fn3
        BYTE   W12
        BYTE                   As2
        BYTE           N06     Cn3
        BYTE           N06     En3
        BYTE   W12
        BYTE                   As2
        BYTE           N06     Cn3
        BYTE           N06     En3
        BYTE   W12
        BYTE                   As2
        BYTE           N06     Dn3
        BYTE           N06     Fn3
        BYTE   W02
        BYTE   PEND
// 030   ----------------------------------------
ChasmCave_1_30:
        BYTE   W10
        BYTE           N06     As2   v127
        BYTE           N06     Dn3
        BYTE           N06     Fn3
        BYTE   W12
        BYTE                   Gs2
        BYTE           N06     Cn3
        BYTE           N06     Ds3
        BYTE   W12
        BYTE                   Gs2
        BYTE           N06     Cn3
        BYTE           N06     Ds3
        BYTE   W12
        BYTE                   Gs2
        BYTE           N06     As2
        BYTE           N06     Dn3
        BYTE   W12
        BYTE                   Gs2
        BYTE           N06     As2
        BYTE           N06     Dn3
        BYTE   W12
        BYTE                   Gs2
        BYTE           N06     Cn3
        BYTE           N06     Ds3
        BYTE   W12
        BYTE                   Gs2
        BYTE           N06     Cn3
        BYTE           N06     Ds3
        BYTE   W12
        BYTE                   As2
        BYTE           N06     Dn3
        BYTE           N06     Fn3
        BYTE   W02
        BYTE   PEND
// 031   ----------------------------------------
ChasmCave_1_31:
        BYTE   W10
        BYTE           N06     As2   v127
        BYTE           N06     Dn3
        BYTE           N06     Fn3
        BYTE   W12
        BYTE                   As2
        BYTE           N06     Cn3
        BYTE           N06     En3
        BYTE   W12
        BYTE                   As2
        BYTE           N06     Cn3
        BYTE           N06     En3
        BYTE   W12
        BYTE                   As2
        BYTE           N06     Dn3
        BYTE           N06     Fn3
        BYTE   W12
        BYTE                   As2
        BYTE           N06     Dn3
        BYTE           N06     Fn3
        BYTE   W12
        BYTE                   Gs2
        BYTE           N06     Cn3
        BYTE           N06     Ds3
        BYTE   W12
        BYTE                   Gs2
        BYTE           N06     Cn3
        BYTE           N06     Ds3
        BYTE   W12
        BYTE                   Gs2
        BYTE           N06     As2
        BYTE           N06     Dn3
        BYTE   W02
        BYTE   PEND
// 032   ----------------------------------------
ChasmCave_1_32:
        BYTE   W10
        BYTE           N06     Gs2   v127
        BYTE           N06     As2
        BYTE           N06     Dn3
        BYTE   W12
        BYTE                   Gs2
        BYTE           N06     Cn3
        BYTE           N06     Ds3
        BYTE   W12
        BYTE                   Gs2
        BYTE           N06     Cn3
        BYTE           N06     Ds3
        BYTE   W12
        BYTE           N12     Gn2
        BYTE           N12     As3
        BYTE   W12
        BYTE                   As2
        BYTE           N12     En3
        BYTE   W12
        BYTE                   Dn3
        BYTE           N12     Fn3
        BYTE   W12
        BYTE                   Gn3
        BYTE           N12     Cn4
        BYTE   W12
        BYTE                   As3
        BYTE           N12     Dn4
        BYTE   W02
        BYTE   PEND
// 033   ----------------------------------------
ChasmCave_1_33:
        BYTE   W10
        BYTE           N12     Dn4   v127
        BYTE           N12     An4
        BYTE   W12
        BYTE                   An2
        BYTE           N12     Gn4
        BYTE   W12
        BYTE                   Cn3
        BYTE           N12     Bn3
        BYTE   W12
        BYTE                   En3
        BYTE           N12     Cn4
        BYTE   W12
        BYTE                   An3
        BYTE           N12     Dn4
        BYTE   W12
        BYTE                   Cn4
        BYTE           N12     En4
        BYTE   W12
        BYTE                   En4
        BYTE           N12     An4
        BYTE   W12
        BYTE                   Dn2
        BYTE           N12     Gn4
        BYTE   W02
        BYTE   PEND
// 034   ----------------------------------------
ChasmCave_1_34:
        BYTE   W10
        BYTE           N12     An2   v127
        BYTE           N12     Fn4
        BYTE   W12
        BYTE                   Cn3
        BYTE           N12     En4
        BYTE   W12
        BYTE                   En3
        BYTE           N12     Cn4
        BYTE   W12
        BYTE                   Gn3
        BYTE           N12     Dn4
        BYTE   W12
        BYTE                   Bn3
        BYTE           N12     Gn4
        BYTE   W12
        BYTE                   Dn4
        BYTE           N12     An4
        BYTE   W12
        BYTE                   Bn3
        BYTE           N12     Fn4
        BYTE   W12
        BYTE                   Gn3
        BYTE           N12     En4
        BYTE   W02
        BYTE   PEND
// 035   ----------------------------------------
ChasmCave_1_35:
        BYTE   W10
        BYTE           N12     En3   v127
        BYTE           N12     Cn4
        BYTE   W12
        BYTE                   Bn2
        BYTE           N12     Gn3
        BYTE   W12
        BYTE                   Gn2
        BYTE           N12     En3
        BYTE   W12
        BYTE                   Dn2
        BYTE           N12     Dn3
        BYTE   W12
        BYTE                   An2
        BYTE           N12     Fn4
        BYTE   W12
        BYTE                   Cn3
        BYTE           N12     En4
        BYTE   W12
        BYTE                   En3
        BYTE           N12     Cn4
        BYTE   W12
        BYTE                   Gn3
        BYTE           N12     Dn4
        BYTE   W02
        BYTE   PEND
// 036   ----------------------------------------
ChasmCave_1_36:
        BYTE   W10
        BYTE           N12     Bn3   v127
        BYTE           N12     Gn4
        BYTE   W12
        BYTE                   Dn4
        BYTE           N12     An4
        BYTE   W12
        BYTE                   Bn3
        BYTE           N12     Fn4
        BYTE   W12
        BYTE                   Gn3
        BYTE           N12     En4
        BYTE   W12
        BYTE                   En3
        BYTE           N12     Cn4
        BYTE   W12
        BYTE                   Bn2
        BYTE           N12     Gn3
        BYTE   W12
        BYTE                   Gn2
        BYTE           N12     En3
        BYTE   W12
        BYTE                   Dn2
        BYTE           N12     Gn4
        BYTE   W02
        BYTE   PEND
// 037   ----------------------------------------
        BYTE   PATT
         POIN2  ChasmCave_1_34
// 038   ----------------------------------------
        BYTE   PATT
         POIN2  ChasmCave_1_35
// 039   ----------------------------------------
ChasmCave_1_39:
        BYTE   W10
        BYTE           N12     Bn3   v127
        BYTE           N12     Gn4
        BYTE   W12
        BYTE                   Dn4
        BYTE           N12     An4
        BYTE   W12
        BYTE                   Bn3
        BYTE           N12     Fn4
        BYTE   W12
        BYTE                   Gn3
        BYTE           N12     En4
        BYTE   W12
        BYTE                   En3
        BYTE           N12     Cn4
        BYTE   W12
        BYTE                   Bn2
        BYTE           N12     Gn3
        BYTE   W12
        BYTE                   Gn2
        BYTE           N12     En3
        BYTE   W12
        BYTE           N06     Cn3
        BYTE           N06     En3
        BYTE   W02
        BYTE   PEND
// 040   ----------------------------------------
ChasmCave_1_40:
        BYTE   W10
        BYTE           N06     Cn3   v127
        BYTE           N06     En3
        BYTE   W12
        BYTE                   Dn3
        BYTE           N06     Fs3
        BYTE   W12
        BYTE                   Dn3
        BYTE           N06     Fs3
        BYTE   W12
        BYTE                   En3
        BYTE           N06     Gn3
        BYTE   W12
        BYTE                   En3
        BYTE           N06     Gn3
        BYTE   W12
        BYTE                   Fs3
        BYTE           N06     An3
        BYTE   W12
        BYTE                   Fs3
        BYTE           N06     An3
        BYTE   W12
        BYTE                   En3
        BYTE           N06     Gn3
        BYTE   W02
        BYTE   PEND
// 041   ----------------------------------------
ChasmCave_1_41:
        BYTE   W10
        BYTE           N06     En3   v127
        BYTE           N06     Gn3
        BYTE   W12
        BYTE                   Dn3
        BYTE           N06     Fs3
        BYTE   W12
        BYTE                   Dn3
        BYTE           N06     Fs3
        BYTE   W12
        BYTE                   Cn3
        BYTE           N06     En3
        BYTE   W12
        BYTE                   Cn3
        BYTE           N06     En3
        BYTE   W12
        BYTE                   En3
        BYTE           N06     Gn3
        BYTE   W12
        BYTE                   En3
        BYTE           N06     Gn3
        BYTE   W12
        BYTE                   Gn3
        BYTE           N06     Bn3
        BYTE   W02
        BYTE   PEND
// 042   ----------------------------------------
ChasmCave_1_42:
        BYTE   W10
        BYTE           N06     Gn3   v127
        BYTE           N06     Bn3
        BYTE   W12
        BYTE                   Bn3
        BYTE           N06     Dn4
        BYTE   W12
        BYTE                   Bn3
        BYTE           N06     Dn4
        BYTE   W12
        BYTE                   Dn4
        BYTE           N06     Fs4
        BYTE   W12
        BYTE                   Dn4
        BYTE           N06     Fs4
        BYTE   W12
        BYTE                   Fs4
        BYTE           N06     An4
        BYTE   W12
        BYTE                   Fs4
        BYTE           N06     An4
        BYTE   W12
        BYTE                   As4
        BYTE           N06     Cs5
        BYTE   W02
        BYTE   PEND
// 043   ----------------------------------------
ChasmCave_1_43:
        BYTE   W10
        BYTE           N06     As4   v127
        BYTE           N06     Cs5
        BYTE   W12
        BYTE                   Fs4
        BYTE           N06     As4
        BYTE   W12
        BYTE                   Fs4
        BYTE           N06     As4
        BYTE   W12
        BYTE                   Dn4
        BYTE           N06     Fs4
        BYTE   W12
        BYTE                   Dn4
        BYTE           N06     Fs4
        BYTE   W12
        BYTE                   As3
        BYTE           N06     Dn4
        BYTE   W12
        BYTE                   As3
        BYTE           N06     Dn4
        BYTE   W12
        BYTE                   Fs3
        BYTE           N06     As3
        BYTE   W02
        BYTE   PEND
// 044   ----------------------------------------
ChasmCave_1_44:
        BYTE   W10
        BYTE           N06     Fs3   v127
        BYTE           N06     As3
        BYTE   W12
        BYTE                   Dn3
        BYTE           N06     Fs3
        BYTE   W12
        BYTE                   Dn3
        BYTE           N06     Fs3
        BYTE   W12
        BYTE                   As2
        BYTE           N06     Dn3
        BYTE   W12
        BYTE                   As2
        BYTE           N06     Dn3
        BYTE   W12
        BYTE                   Fs2
        BYTE           N06     As2
        BYTE   W12
        BYTE                   Fs2
        BYTE           N06     As2
        BYTE   W12
        BYTE                   Dn2
        BYTE           N06     Fs2
        BYTE   W02
        BYTE   PEND
// 045   ----------------------------------------
ChasmCave_1_45:
        BYTE   W10
        BYTE           N06     Dn2   v126
        BYTE           N06     Fs2
        BYTE   W12
        BYTE                   As1   v125
        BYTE           N06     Dn2
        BYTE   W12
        BYTE                   As1   v122
        BYTE           N06     Dn2
        BYTE   W12
        BYTE                   Fs1   v113
        BYTE           N06     As1
        BYTE   W12
        BYTE                   Fs1   v099
        BYTE           N06     As1
        BYTE   W12
        BYTE                   Dn1   v079
        BYTE           N06     Fs1
        BYTE   W12
        BYTE                   Dn1   v052
        BYTE           N06     Fs1
        BYTE   W14
        BYTE   PEND
// 046   ----------------------------------------
ChasmCave_1_LOOP:
        BYTE   W96
// 047   ----------------------------------------
        BYTE   PATT
         POIN2  ChasmCave_1_2
// 048   ----------------------------------------
        BYTE   PATT
         POIN2  ChasmCave_1_3
// 049   ----------------------------------------
        BYTE   W96
// 050   ----------------------------------------
        BYTE   PATT
         POIN2  ChasmCave_1_5
// 051   ----------------------------------------
        BYTE   PATT
         POIN2  ChasmCave_1_6
// 052   ----------------------------------------
        BYTE   PATT
         POIN2  ChasmCave_1_7
// 053   ----------------------------------------
        BYTE   PATT
         POIN2  ChasmCave_1_8
// 054   ----------------------------------------
        BYTE   PATT
         POIN2  ChasmCave_1_9
// 055   ----------------------------------------
        BYTE   PATT
         POIN2  ChasmCave_1_10
// 056   ----------------------------------------
        BYTE   PATT
         POIN2  ChasmCave_1_11
// 057   ----------------------------------------
        BYTE   PATT
         POIN2  ChasmCave_1_12
// 058   ----------------------------------------
        BYTE   PATT
         POIN2  ChasmCave_1_7
// 059   ----------------------------------------
        BYTE   PATT
         POIN2  ChasmCave_1_8
// 060   ----------------------------------------
        BYTE   PATT
         POIN2  ChasmCave_1_9
// 061   ----------------------------------------
        BYTE   PATT
         POIN2  ChasmCave_1_10
// 062   ----------------------------------------
        BYTE   PATT
         POIN2  ChasmCave_1_11
// 063   ----------------------------------------
        BYTE   PATT
         POIN2  ChasmCave_1_18
// 064   ----------------------------------------
        BYTE   PATT
         POIN2  ChasmCave_1_19
// 065   ----------------------------------------
        BYTE   PATT
         POIN2  ChasmCave_1_20
// 066   ----------------------------------------
        BYTE   PATT
         POIN2  ChasmCave_1_21
// 067   ----------------------------------------
        BYTE   PATT
         POIN2  ChasmCave_1_22
// 068   ----------------------------------------
        BYTE   PATT
         POIN2  ChasmCave_1_23
// 069   ----------------------------------------
        BYTE   PATT
         POIN2  ChasmCave_1_24
// 070   ----------------------------------------
        BYTE   PATT
         POIN2  ChasmCave_1_25
// 071   ----------------------------------------
        BYTE   PATT
         POIN2  ChasmCave_1_26
// 072   ----------------------------------------
        BYTE   PATT
         POIN2  ChasmCave_1_27
// 073   ----------------------------------------
        BYTE   PATT
         POIN2  ChasmCave_1_28
// 074   ----------------------------------------
        BYTE   PATT
         POIN2  ChasmCave_1_29
// 075   ----------------------------------------
        BYTE   PATT
         POIN2  ChasmCave_1_30
// 076   ----------------------------------------
        BYTE   PATT
         POIN2  ChasmCave_1_31
// 077   ----------------------------------------
        BYTE   PATT
         POIN2  ChasmCave_1_32
// 078   ----------------------------------------
        BYTE   PATT
         POIN2  ChasmCave_1_33
// 079   ----------------------------------------
        BYTE   PATT
         POIN2  ChasmCave_1_34
// 080   ----------------------------------------
        BYTE   PATT
         POIN2  ChasmCave_1_35
// 081   ----------------------------------------
        BYTE   PATT
         POIN2  ChasmCave_1_36
// 082   ----------------------------------------
        BYTE   PATT
         POIN2  ChasmCave_1_34
// 083   ----------------------------------------
        BYTE   PATT
         POIN2  ChasmCave_1_35
// 084   ----------------------------------------
        BYTE   PATT
         POIN2  ChasmCave_1_39
// 085   ----------------------------------------
        BYTE   PATT
         POIN2  ChasmCave_1_40
// 086   ----------------------------------------
        BYTE   PATT
         POIN2  ChasmCave_1_41
// 087   ----------------------------------------
        BYTE   PATT
         POIN2  ChasmCave_1_42
// 088   ----------------------------------------
        BYTE   PATT
         POIN2  ChasmCave_1_43
// 089   ----------------------------------------
        BYTE   PATT
         POIN2  ChasmCave_1_44
// 090   ----------------------------------------
        BYTE   PATT
         POIN2  ChasmCave_1_45
// 091   ----------------------------------------
        BYTE   GoTo
         POIN2  ChasmCave_1_LOOP
        BYTE   FINE

//****************** Track 2 (Midi-Chn.2) ******************//

ChasmCave_2:
        BYTE   KEYSH   ChasmCave_key+0
// 000   ----------------------------------------
        BYTE   W24
// 001   ----------------------------------------
        BYTE           PAN     c_v+63
        BYTE           VOL     33
        BYTE           VOICE   48
        BYTE   W96
// 002   ----------------------------------------
ChasmCave_2_2:
        BYTE   W48
        BYTE           N06     Cn3   v127
        BYTE           N06     An3
        BYTE   W12
        BYTE                   Cn3
        BYTE           N06     An3
        BYTE   W12
        BYTE                   Dn3
        BYTE           N06     Bn3
        BYTE   W12
        BYTE                   Dn3
        BYTE           N06     Bn3
        BYTE   W12
        BYTE   PEND
// 003   ----------------------------------------
ChasmCave_2_3:
        BYTE           N06     En3   v127
        BYTE           N06     Cn4
        BYTE   W12
        BYTE                   En3
        BYTE           N06     Cn4
        BYTE   W12
        BYTE                   Fn3
        BYTE           N06     Dn4
        BYTE   W12
        BYTE                   Fn3
        BYTE           N06     Dn4
        BYTE   W12
        BYTE                   Dn3
        BYTE           N06     Bn3
        BYTE   W12
        BYTE                   Dn3
        BYTE           N06     Bn3
        BYTE   W12
        BYTE                   En3
        BYTE           N06     Cn4
        BYTE   W12
        BYTE                   En3
        BYTE           N06     Cn4
        BYTE   W12
        BYTE   PEND
// 004   ----------------------------------------
        BYTE   W96
// 005   ----------------------------------------
ChasmCave_2_5:
        BYTE   W48
        BYTE           N06     En3   v127
        BYTE           N06     Cn4
        BYTE   W12
        BYTE                   En3
        BYTE           N06     Cn4
        BYTE   W12
        BYTE                   Fn3
        BYTE           N06     Dn4
        BYTE   W12
        BYTE                   Fn3
        BYTE           N06     Dn4
        BYTE   W12
        BYTE   PEND
// 006   ----------------------------------------
ChasmCave_2_6:
        BYTE           N06     Gn3   v127
        BYTE           N06     En4
        BYTE   W12
        BYTE                   Gn3
        BYTE           N06     En4
        BYTE   W12
        BYTE                   An3
        BYTE           N06     Fn4
        BYTE   W12
        BYTE                   An3
        BYTE           N06     Fn4
        BYTE   W12
        BYTE                   Fn3
        BYTE           N06     Dn4
        BYTE   W12
        BYTE                   Fn3
        BYTE           N06     Dn4
        BYTE   W12
        BYTE                   Gn3
        BYTE           N06     En4
        BYTE   W12
        BYTE                   Gn3
        BYTE           N06     En4
        BYTE   W12
        BYTE   PEND
// 007   ----------------------------------------
ChasmCave_2_7:
        BYTE           N06     Cs4   v127
        BYTE           N06     An4
        BYTE   W12
        BYTE                   Cs4
        BYTE           N06     An4
        BYTE   W12
        BYTE                   Bn3
        BYTE           N06     Gs4
        BYTE   W12
        BYTE                   Bn3
        BYTE           N06     Gs4
        BYTE   W12
        BYTE                   Cs4
        BYTE           N06     An4
        BYTE   W12
        BYTE                   Cs4
        BYTE           N06     An4
        BYTE   W12
        BYTE                   Bn3
        BYTE           N06     Gs4
        BYTE   W12
        BYTE                   Bn3
        BYTE           N06     Gs4
        BYTE   W12
        BYTE   PEND
// 008   ----------------------------------------
ChasmCave_2_8:
        BYTE           N06     Cs4   v127
        BYTE           N06     An4
        BYTE   W12
        BYTE                   Cs4
        BYTE           N06     An4
        BYTE   W12
        BYTE                   Bn3
        BYTE           N06     Gs4
        BYTE   W12
        BYTE                   Bn3
        BYTE           N06     Gs4
        BYTE   W12
        BYTE                   An3
        BYTE           N06     Fs4
        BYTE   W12
        BYTE                   An3
        BYTE           N06     Fs4
        BYTE   W12
        BYTE                   Bn3
        BYTE           N06     Gs4
        BYTE   W12
        BYTE                   Bn3
        BYTE           N06     Gs4
        BYTE   W12
        BYTE   PEND
// 009   ----------------------------------------
ChasmCave_2_9:
        BYTE           N06     An3   v127
        BYTE           N06     Fs4
        BYTE   W12
        BYTE                   An3
        BYTE           N06     Fs4
        BYTE   W12
        BYTE                   Bn3
        BYTE           N06     Gs4
        BYTE   W12
        BYTE                   Bn3
        BYTE           N06     Gs4
        BYTE   W12
        BYTE                   An3
        BYTE           N06     Fs4
        BYTE   W12
        BYTE                   An3
        BYTE           N06     Fs4
        BYTE   W12
        BYTE                   Bn3
        BYTE           N06     Gs4
        BYTE   W12
        BYTE                   Bn3
        BYTE           N06     Gs4
        BYTE   W12
        BYTE   PEND
// 010   ----------------------------------------
ChasmCave_2_10:
        BYTE           N06     An3   v127
        BYTE           N06     En4
        BYTE   W12
        BYTE                   An3
        BYTE           N06     En4
        BYTE   W12
        BYTE                   Bn3
        BYTE           N06     Fs4
        BYTE   W12
        BYTE                   Bn3
        BYTE           N06     Fs4
        BYTE   W12
        BYTE                   An3
        BYTE           N06     En4
        BYTE   W12
        BYTE                   An3
        BYTE           N06     En4
        BYTE   W12
        BYTE                   Bn3
        BYTE           N06     Fs4
        BYTE   W12
        BYTE                   Bn3
        BYTE           N06     Fs4
        BYTE   W12
        BYTE   PEND
// 011   ----------------------------------------
ChasmCave_2_11:
        BYTE           N06     An3   v127
        BYTE           N06     En4
        BYTE   W12
        BYTE                   An3
        BYTE           N06     En4
        BYTE   W12
        BYTE                   Bn3
        BYTE           N06     Fs4
        BYTE   W12
        BYTE                   Bn3
        BYTE           N06     Fs4
        BYTE   W12
        BYTE                   Gs3
        BYTE           N06     Ds4
        BYTE   W12
        BYTE                   Gs3
        BYTE           N06     Ds4
        BYTE   W12
        BYTE                   An3
        BYTE           N06     En4
        BYTE   W12
        BYTE                   An3
        BYTE           N06     En4
        BYTE   W12
        BYTE   PEND
// 012   ----------------------------------------
ChasmCave_2_12:
        BYTE           N06     Gs3   v127
        BYTE           N06     Ds4
        BYTE   W12
        BYTE                   Gs3
        BYTE           N06     Ds4
        BYTE   W12
        BYTE                   An3
        BYTE           N06     En4
        BYTE   W12
        BYTE                   An3
        BYTE           N06     En4
        BYTE   W12
        BYTE                   Gs3
        BYTE           N06     Ds4
        BYTE   W12
        BYTE                   Gs3
        BYTE           N06     Ds4
        BYTE   W12
        BYTE                   An3
        BYTE           N06     En4
        BYTE   W12
        BYTE                   An3
        BYTE           N06     En4
        BYTE   W12
        BYTE   PEND
// 013   ----------------------------------------
        BYTE   PATT
         POIN2  ChasmCave_2_7
// 014   ----------------------------------------
        BYTE   PATT
         POIN2  ChasmCave_2_8
// 015   ----------------------------------------
        BYTE   PATT
         POIN2  ChasmCave_2_9
// 016   ----------------------------------------
        BYTE   PATT
         POIN2  ChasmCave_2_10
// 017   ----------------------------------------
        BYTE   PATT
         POIN2  ChasmCave_2_11
// 018   ----------------------------------------
ChasmCave_2_18:
        BYTE           N06     Gs3   v127
        BYTE           N06     Ds4
        BYTE   W12
        BYTE                   Gs3
        BYTE           N06     Ds4
        BYTE   W12
        BYTE                   An3
        BYTE           N06     En4
        BYTE   W12
        BYTE                   An3
        BYTE           N06     En4
        BYTE   W12
        BYTE                   Gs3
        BYTE           N06     Ds4
        BYTE   W12
        BYTE                   Gs3
        BYTE           N06     Ds4
        BYTE   W12
        BYTE                   Fs3
        BYTE           N06     Cs4
        BYTE   W12
        BYTE                   Fs3
        BYTE           N06     Cs4
        BYTE   W12
        BYTE   PEND
// 019   ----------------------------------------
ChasmCave_2_19:
        BYTE           N06     Gs2   v127
        BYTE           N06     Fn3
        BYTE   W12
        BYTE                   Gs2
        BYTE           N06     Fn3
        BYTE   W12
        BYTE                   As2
        BYTE           N06     Gn3
        BYTE   W12
        BYTE                   As2
        BYTE           N06     Gn3
        BYTE   W12
        BYTE                   Cn3
        BYTE           N06     Gs3
        BYTE   W12
        BYTE                   Cn3
        BYTE           N06     Gs3
        BYTE   W12
        BYTE                   Dn3
        BYTE           N06     As3
        BYTE   W12
        BYTE                   Dn3
        BYTE           N06     As3
        BYTE   W12
        BYTE   PEND
// 020   ----------------------------------------
ChasmCave_2_20:
        BYTE           N06     Cn3   v127
        BYTE           N06     Gs3
        BYTE   W12
        BYTE                   Cn3
        BYTE           N06     Gs3
        BYTE   W12
        BYTE                   As2
        BYTE           N06     Gn3
        BYTE   W12
        BYTE                   As2
        BYTE           N06     Gn3
        BYTE   W12
        BYTE                   Gs2
        BYTE           N06     Fn3
        BYTE   W12
        BYTE                   Gs2
        BYTE           N06     Fn3
        BYTE   W12
        BYTE                   As2
        BYTE           N06     Gn3
        BYTE   W12
        BYTE                   As2
        BYTE           N06     Gn3
        BYTE   W12
        BYTE   PEND
// 021   ----------------------------------------
ChasmCave_2_21:
        BYTE           N06     Cn3   v127
        BYTE           N06     Gs3
        BYTE   W12
        BYTE                   Cn3
        BYTE           N06     Gs3
        BYTE   W12
        BYTE                   Dn3
        BYTE           N06     As3
        BYTE   W12
        BYTE                   Dn3
        BYTE           N06     As3
        BYTE   W12
        BYTE                   Ds3
        BYTE           N06     Cn4
        BYTE   W12
        BYTE                   Ds3
        BYTE           N06     Cn4
        BYTE   W12
        BYTE                   Dn3
        BYTE           N06     Gs3
        BYTE   W12
        BYTE                   Dn3
        BYTE           N06     Gs3
        BYTE   W12
        BYTE   PEND
// 022   ----------------------------------------
ChasmCave_2_22:
        BYTE           N06     Ds3   v127
        BYTE           N06     As3
        BYTE   W12
        BYTE                   Ds3
        BYTE           N06     As3
        BYTE   W12
        BYTE                   Fn3
        BYTE           N06     Cn4
        BYTE   W12
        BYTE                   Fn3
        BYTE           N06     Cn4
        BYTE   W12
        BYTE                   Gn3
        BYTE           N06     Dn4
        BYTE   W12
        BYTE                   Gn3
        BYTE           N06     Dn4
        BYTE   W12
        BYTE                   Ds3
        BYTE           N06     Cn4
        BYTE   W12
        BYTE                   Ds3
        BYTE           N06     Cn4
        BYTE   W12
        BYTE   PEND
// 023   ----------------------------------------
ChasmCave_2_23:
        BYTE           N06     Fn3   v127
        BYTE           N06     Ds4
        BYTE   W12
        BYTE                   Fn3
        BYTE           N06     Ds4
        BYTE   W12
        BYTE                   Ds3
        BYTE           N06     Cn4
        BYTE   W12
        BYTE                   Ds3
        BYTE           N06     Cn4
        BYTE   W12
        BYTE                   Gs3
        BYTE           N06     Fn4
        BYTE   W12
        BYTE                   Gs3
        BYTE           N06     Fn4
        BYTE   W12
        BYTE                   As3
        BYTE           N06     Gn4
        BYTE   W12
        BYTE                   As3
        BYTE           N06     Gn4
        BYTE   W12
        BYTE   PEND
// 024   ----------------------------------------
ChasmCave_2_24:
        BYTE           N06     Gs3   v127
        BYTE           N06     Fn4
        BYTE   W12
        BYTE                   Gs3
        BYTE           N06     Fn4
        BYTE   W12
        BYTE                   Bn3
        BYTE           N06     Gn4
        BYTE   W12
        BYTE                   Bn3
        BYTE           N06     Gn4
        BYTE   W12
        BYTE                   Fn3
        BYTE           N06     Dn4
        BYTE   W12
        BYTE                   Fn3
        BYTE           N06     Dn4
        BYTE   W12
        BYTE                   Bn2
        BYTE           N06     Gn3
        BYTE   W12
        BYTE                   Bn2
        BYTE           N06     Gn3
        BYTE   W12
        BYTE   PEND
// 025   ----------------------------------------
ChasmCave_2_25:
        BYTE           N06     Ds2   v127
        BYTE           N06     Cn3
        BYTE   W12
        BYTE                   Ds2
        BYTE           N06     Cn3
        BYTE   W12
        BYTE                   Fn2
        BYTE           N06     Dn3
        BYTE   W12
        BYTE                   Fn2
        BYTE           N06     Dn3
        BYTE   W12
        BYTE                   Ds2
        BYTE           N06     Cn3
        BYTE   W12
        BYTE                   Ds2
        BYTE           N06     Cn3
        BYTE   W12
        BYTE                   Gs2
        BYTE           N06     Fn3
        BYTE   W12
        BYTE                   Gs2
        BYTE           N06     Fn3
        BYTE   W12
        BYTE   PEND
// 026   ----------------------------------------
ChasmCave_2_26:
        BYTE           N06     Gn2   v127
        BYTE           N06     Ds3
        BYTE   W12
        BYTE                   Gn2
        BYTE           N06     Ds3
        BYTE   W12
        BYTE                   Fn2
        BYTE           N06     Cs3
        BYTE   W12
        BYTE                   Fn2
        BYTE           N06     Cs3
        BYTE   W12
        BYTE                   Ds2
        BYTE           N06     Cn3
        BYTE   W12
        BYTE                   Ds2
        BYTE           N06     Cn3
        BYTE   W12
        BYTE                   Fn2
        BYTE           N06     Dn3
        BYTE   W12
        BYTE                   Fn2
        BYTE           N06     Dn3
        BYTE   W12
        BYTE   PEND
// 027   ----------------------------------------
ChasmCave_2_27:
        BYTE           N06     Ds2   v127
        BYTE           N06     Cn3
        BYTE   W12
        BYTE                   Ds2
        BYTE           N06     Cn3
        BYTE   W12
        BYTE                   Gs2
        BYTE           N06     Fn3
        BYTE   W12
        BYTE                   Gs2
        BYTE           N06     Fn3
        BYTE   W12
        BYTE                   Gn2
        BYTE           N06     Ds3
        BYTE   W12
        BYTE                   Gn2
        BYTE           N06     Ds3
        BYTE   W12
        BYTE                   Fn2
        BYTE           N06     Cs3
        BYTE   W12
        BYTE                   Fn2
        BYTE           N06     Cs3
        BYTE   W12
        BYTE   PEND
// 028   ----------------------------------------
ChasmCave_2_28:
        BYTE           N06     Ds2   v127
        BYTE           N06     Cn3
        BYTE   W12
        BYTE                   Ds2
        BYTE           N06     Cn3
        BYTE   W12
        BYTE                   Gn2
        BYTE           N06     Ds3
        BYTE   W12
        BYTE                   Gn2
        BYTE           N06     Ds3
        BYTE   W12
        BYTE                   Gn2
        BYTE           N06     Gn3
        BYTE   W12
        BYTE                   Gn2
        BYTE           N06     Gn3
        BYTE   W12
        BYTE                   Fs3
        BYTE           N06     Cs4
        BYTE   W12
        BYTE                   Fs3
        BYTE           N06     Cs4
        BYTE   W12
        BYTE   PEND
// 029   ----------------------------------------
ChasmCave_2_29:
        BYTE           N06     Cs3   v127
        BYTE           N06     As3
        BYTE   W12
        BYTE                   Cs3
        BYTE           N06     As3
        BYTE   W12
        BYTE                   Fs2
        BYTE           N06     Cs3
        BYTE   W12
        BYTE                   Fs2
        BYTE           N06     Cs3
        BYTE   W12
        BYTE                   As2
        BYTE           N06     Fn3
        BYTE   W12
        BYTE                   As2
        BYTE           N06     Fn3
        BYTE   W12
        BYTE                   As2
        BYTE           N06     En3
        BYTE   W12
        BYTE                   As2
        BYTE           N06     En3
        BYTE   W12
        BYTE   PEND
// 030   ----------------------------------------
ChasmCave_2_30:
        BYTE           N06     As2   v127
        BYTE           N06     Fn3
        BYTE   W12
        BYTE                   As2
        BYTE           N06     Fn3
        BYTE   W12
        BYTE                   Gs2
        BYTE           N06     Ds3
        BYTE   W12
        BYTE                   Gs2
        BYTE           N06     Ds3
        BYTE   W12
        BYTE                   Gs2
        BYTE           N06     Dn3
        BYTE   W12
        BYTE                   Gs2
        BYTE           N06     Dn3
        BYTE   W12
        BYTE                   Gs2
        BYTE           N06     Ds3
        BYTE   W12
        BYTE                   Gs2
        BYTE           N06     Ds3
        BYTE   W12
        BYTE   PEND
// 031   ----------------------------------------
ChasmCave_2_31:
        BYTE           N06     As2   v127
        BYTE           N06     Fn3
        BYTE   W12
        BYTE                   As2
        BYTE           N06     Fn3
        BYTE   W12
        BYTE                   As2
        BYTE           N06     En3
        BYTE   W12
        BYTE                   As2
        BYTE           N06     En3
        BYTE   W12
        BYTE                   As2
        BYTE           N06     Fn3
        BYTE   W12
        BYTE                   As2
        BYTE           N06     Fn3
        BYTE   W12
        BYTE                   Gs2
        BYTE           N06     Ds3
        BYTE   W12
        BYTE                   Gs2
        BYTE           N06     Ds3
        BYTE   W12
        BYTE   PEND
// 032   ----------------------------------------
ChasmCave_2_32:
        BYTE           N06     Gs2   v127
        BYTE           N06     Dn3
        BYTE   W12
        BYTE                   Gs2
        BYTE           N06     Dn3
        BYTE   W12
        BYTE                   Gs2
        BYTE           N06     Ds3
        BYTE   W12
        BYTE                   Gs2
        BYTE           N06     Ds3
        BYTE   W12
        BYTE           N12     Gn2
        BYTE           N12     As3
        BYTE   W12
        BYTE                   As2
        BYTE           N12     En3
        BYTE   W12
        BYTE                   Dn3
        BYTE           N12     Fn3
        BYTE   W12
        BYTE                   Gn3
        BYTE           N12     Cn4
        BYTE   W12
        BYTE   PEND
// 033   ----------------------------------------
ChasmCave_2_33:
        BYTE           N12     As3   v127
        BYTE           N12     Dn4
        BYTE   W12
        BYTE                   Dn4
        BYTE           N12     An4
        BYTE   W12
        BYTE                   An2
        BYTE           N12     Gn4
        BYTE   W12
        BYTE                   Cn3
        BYTE           N12     Bn3
        BYTE   W12
        BYTE                   En3
        BYTE           N12     Cn4
        BYTE   W12
        BYTE                   An3
        BYTE           N12     Dn4
        BYTE   W12
        BYTE                   Cn4
        BYTE           N12     En4
        BYTE   W12
        BYTE                   En4
        BYTE           N12     An4
        BYTE   W12
        BYTE   PEND
// 034   ----------------------------------------
ChasmCave_2_34:
        BYTE           N12     Dn2   v127
        BYTE           N12     Gn4
        BYTE   W12
        BYTE                   An2
        BYTE           N12     Fn4
        BYTE   W12
        BYTE                   Cn3
        BYTE           N12     En4
        BYTE   W12
        BYTE                   En3
        BYTE           N12     Cn4
        BYTE   W12
        BYTE                   Gn3
        BYTE           N12     Dn4
        BYTE   W12
        BYTE                   Bn3
        BYTE           N12     Gn4
        BYTE   W12
        BYTE                   Dn4
        BYTE           N12     An4
        BYTE   W12
        BYTE                   Bn3
        BYTE           N12     Fn4
        BYTE   W12
        BYTE   PEND
// 035   ----------------------------------------
ChasmCave_2_35:
        BYTE           N12     Gn3   v127
        BYTE           N12     En4
        BYTE   W12
        BYTE                   En3
        BYTE           N12     Cn4
        BYTE   W12
        BYTE                   Bn2
        BYTE           N12     Gn3
        BYTE   W12
        BYTE                   Gn2
        BYTE           N12     En3
        BYTE   W12
        BYTE                   Dn2
        BYTE           N12     Dn3
        BYTE   W12
        BYTE                   An2
        BYTE           N12     Fn4
        BYTE   W12
        BYTE                   Cn3
        BYTE           N12     En4
        BYTE   W12
        BYTE                   En3
        BYTE           N12     Cn4
        BYTE   W12
        BYTE   PEND
// 036   ----------------------------------------
ChasmCave_2_36:
        BYTE           N12     Gn3   v127
        BYTE           N12     Dn4
        BYTE   W12
        BYTE                   Bn3
        BYTE           N12     Gn4
        BYTE   W12
        BYTE                   Dn4
        BYTE           N12     An4
        BYTE   W12
        BYTE                   Bn3
        BYTE           N12     Fn4
        BYTE   W12
        BYTE                   Gn3
        BYTE           N12     En4
        BYTE   W12
        BYTE                   En3
        BYTE           N12     Cn4
        BYTE   W12
        BYTE                   Bn2
        BYTE           N12     Gn3
        BYTE   W12
        BYTE                   Gn2
        BYTE           N12     En3
        BYTE   W12
        BYTE   PEND
// 037   ----------------------------------------
        BYTE   PATT
         POIN2  ChasmCave_2_34
// 038   ----------------------------------------
        BYTE   PATT
         POIN2  ChasmCave_2_35
// 039   ----------------------------------------
        BYTE   PATT
         POIN2  ChasmCave_2_36
// 040   ----------------------------------------
ChasmCave_2_40:
        BYTE           N06     Cn3   v127
        BYTE           N06     En3
        BYTE   W12
        BYTE                   Cn3
        BYTE           N06     En3
        BYTE   W12
        BYTE                   Dn3
        BYTE           N06     Fs3
        BYTE   W12
        BYTE                   Dn3
        BYTE           N06     Fs3
        BYTE   W12
        BYTE                   En3
        BYTE           N06     Gn3
        BYTE   W12
        BYTE                   En3
        BYTE           N06     Gn3
        BYTE   W12
        BYTE                   Fs3
        BYTE           N06     An3
        BYTE   W12
        BYTE                   Fs3
        BYTE           N06     An3
        BYTE   W12
        BYTE   PEND
// 041   ----------------------------------------
ChasmCave_2_41:
        BYTE           N06     En3   v127
        BYTE           N06     Gn3
        BYTE   W12
        BYTE                   En3
        BYTE           N06     Gn3
        BYTE   W12
        BYTE                   Dn3
        BYTE           N06     Fs3
        BYTE   W12
        BYTE                   Dn3
        BYTE           N06     Fs3
        BYTE   W12
        BYTE                   Cn3
        BYTE           N06     En3
        BYTE   W12
        BYTE                   Cn3
        BYTE           N06     En3
        BYTE   W12
        BYTE                   En3
        BYTE           N06     Gn3
        BYTE   W12
        BYTE                   En3
        BYTE           N06     Gn3
        BYTE   W12
        BYTE   PEND
// 042   ----------------------------------------
ChasmCave_2_42:
        BYTE           N06     Gn3   v127
        BYTE           N06     Bn3
        BYTE   W12
        BYTE                   Gn3
        BYTE           N06     Bn3
        BYTE   W12
        BYTE                   Bn3
        BYTE           N06     Dn4
        BYTE   W12
        BYTE                   Bn3
        BYTE           N06     Dn4
        BYTE   W12
        BYTE                   Dn4
        BYTE           N06     Fs4
        BYTE   W12
        BYTE                   Dn4
        BYTE           N06     Fs4
        BYTE   W12
        BYTE                   Fs4
        BYTE           N06     An4
        BYTE   W12
        BYTE                   Fs4
        BYTE           N06     An4
        BYTE   W12
        BYTE   PEND
// 043   ----------------------------------------
ChasmCave_2_43:
        BYTE           N06     As4   v127
        BYTE           N06     Cs5
        BYTE   W12
        BYTE                   As4
        BYTE           N06     Cs5
        BYTE   W12
        BYTE                   Fs4
        BYTE           N06     As4
        BYTE   W12
        BYTE                   Fs4
        BYTE           N06     As4
        BYTE   W12
        BYTE                   Dn4
        BYTE           N06     Fs4
        BYTE   W12
        BYTE                   Dn4
        BYTE           N06     Fs4
        BYTE   W12
        BYTE                   As3
        BYTE           N06     Dn4
        BYTE   W12
        BYTE                   As3
        BYTE           N06     Dn4
        BYTE   W12
        BYTE   PEND
// 044   ----------------------------------------
ChasmCave_2_44:
        BYTE           N06     Fs3   v127
        BYTE           N06     As3
        BYTE   W12
        BYTE                   Fs3
        BYTE           N06     As3
        BYTE   W12
        BYTE                   Dn3
        BYTE           N06     Fs3
        BYTE   W12
        BYTE                   Dn3
        BYTE           N06     Fs3
        BYTE   W12
        BYTE                   As2
        BYTE           N06     Dn3
        BYTE   W12
        BYTE                   As2
        BYTE           N06     Dn3
        BYTE   W12
        BYTE                   Fs2
        BYTE           N06     As2
        BYTE   W12
        BYTE                   Fs2
        BYTE           N06     As2
        BYTE   W12
        BYTE   PEND
// 045   ----------------------------------------
ChasmCave_2_45:
        BYTE           N06     Dn2   v127
        BYTE           N06     Fs2
        BYTE   W12
        BYTE                   Dn2   v126
        BYTE           N06     Fs2
        BYTE   W12
        BYTE                   As1   v125
        BYTE           N06     Dn2
        BYTE   W12
        BYTE                   As1   v122
        BYTE           N06     Dn2
        BYTE   W12
        BYTE                   Fs1   v113
        BYTE           N06     As1
        BYTE   W12
        BYTE                   Fs1   v099
        BYTE           N06     As1
        BYTE   W12
        BYTE                   Dn1   v079
        BYTE           N06     Fs1
        BYTE   W12
        BYTE                   Dn1   v052
        BYTE           N06     Fs1
        BYTE   W12
        BYTE   PEND
// 046   ----------------------------------------
ChasmCave_2_LOOP:
        BYTE   W96
// 047   ----------------------------------------
        BYTE   PATT
         POIN2  ChasmCave_2_2
// 048   ----------------------------------------
        BYTE   PATT
         POIN2  ChasmCave_2_3
// 049   ----------------------------------------
        BYTE   W96
// 050   ----------------------------------------
        BYTE   PATT
         POIN2  ChasmCave_2_5
// 051   ----------------------------------------
        BYTE   PATT
         POIN2  ChasmCave_2_6
// 052   ----------------------------------------
        BYTE   PATT
         POIN2  ChasmCave_2_7
// 053   ----------------------------------------
        BYTE   PATT
         POIN2  ChasmCave_2_8
// 054   ----------------------------------------
        BYTE   PATT
         POIN2  ChasmCave_2_9
// 055   ----------------------------------------
        BYTE   PATT
         POIN2  ChasmCave_2_10
// 056   ----------------------------------------
        BYTE   PATT
         POIN2  ChasmCave_2_11
// 057   ----------------------------------------
        BYTE   PATT
         POIN2  ChasmCave_2_12
// 058   ----------------------------------------
        BYTE   PATT
         POIN2  ChasmCave_2_7
// 059   ----------------------------------------
        BYTE   PATT
         POIN2  ChasmCave_2_8
// 060   ----------------------------------------
        BYTE   PATT
         POIN2  ChasmCave_2_9
// 061   ----------------------------------------
        BYTE   PATT
         POIN2  ChasmCave_2_10
// 062   ----------------------------------------
        BYTE   PATT
         POIN2  ChasmCave_2_11
// 063   ----------------------------------------
        BYTE   PATT
         POIN2  ChasmCave_2_18
// 064   ----------------------------------------
        BYTE   PATT
         POIN2  ChasmCave_2_19
// 065   ----------------------------------------
        BYTE   PATT
         POIN2  ChasmCave_2_20
// 066   ----------------------------------------
        BYTE   PATT
         POIN2  ChasmCave_2_21
// 067   ----------------------------------------
        BYTE   PATT
         POIN2  ChasmCave_2_22
// 068   ----------------------------------------
        BYTE   PATT
         POIN2  ChasmCave_2_23
// 069   ----------------------------------------
        BYTE   PATT
         POIN2  ChasmCave_2_24
// 070   ----------------------------------------
        BYTE   PATT
         POIN2  ChasmCave_2_25
// 071   ----------------------------------------
        BYTE   PATT
         POIN2  ChasmCave_2_26
// 072   ----------------------------------------
        BYTE   PATT
         POIN2  ChasmCave_2_27
// 073   ----------------------------------------
        BYTE   PATT
         POIN2  ChasmCave_2_28
// 074   ----------------------------------------
        BYTE   PATT
         POIN2  ChasmCave_2_29
// 075   ----------------------------------------
        BYTE   PATT
         POIN2  ChasmCave_2_30
// 076   ----------------------------------------
        BYTE   PATT
         POIN2  ChasmCave_2_31
// 077   ----------------------------------------
        BYTE   PATT
         POIN2  ChasmCave_2_32
// 078   ----------------------------------------
        BYTE   PATT
         POIN2  ChasmCave_2_33
// 079   ----------------------------------------
        BYTE   PATT
         POIN2  ChasmCave_2_34
// 080   ----------------------------------------
        BYTE   PATT
         POIN2  ChasmCave_2_35
// 081   ----------------------------------------
        BYTE   PATT
         POIN2  ChasmCave_2_36
// 082   ----------------------------------------
        BYTE   PATT
         POIN2  ChasmCave_2_34
// 083   ----------------------------------------
        BYTE   PATT
         POIN2  ChasmCave_2_35
// 084   ----------------------------------------
        BYTE   PATT
         POIN2  ChasmCave_2_36
// 085   ----------------------------------------
        BYTE   PATT
         POIN2  ChasmCave_2_40
// 086   ----------------------------------------
        BYTE   PATT
         POIN2  ChasmCave_2_41
// 087   ----------------------------------------
        BYTE   PATT
         POIN2  ChasmCave_2_42
// 088   ----------------------------------------
        BYTE   PATT
         POIN2  ChasmCave_2_43
// 089   ----------------------------------------
        BYTE   PATT
         POIN2  ChasmCave_2_44
// 090   ----------------------------------------
        BYTE   PATT
         POIN2  ChasmCave_2_45
// 091   ----------------------------------------
        BYTE   GoTo
         POIN2  ChasmCave_2_LOOP
        BYTE   FINE

//****************** Track 3 (Midi-Chn.3) ******************//

ChasmCave_3:
        BYTE   KEYSH   ChasmCave_key+0
// 000   ----------------------------------------
        BYTE   W24
// 001   ----------------------------------------
        BYTE           PAN     c_v-34
        BYTE           VOL     52
        BYTE           VOICE   48
        BYTE   W96
// 002   ----------------------------------------
        BYTE   W96
// 003   ----------------------------------------
        BYTE   W96
// 004   ----------------------------------------
        BYTE   W96
// 005   ----------------------------------------
        BYTE   W96
// 006   ----------------------------------------
        BYTE   W96
// 007   ----------------------------------------
        BYTE   W96
// 008   ----------------------------------------
        BYTE   W96
// 009   ----------------------------------------
        BYTE   W96
// 010   ----------------------------------------
        BYTE   W96
// 011   ----------------------------------------
        BYTE   W96
// 012   ----------------------------------------
        BYTE   W96
// 013   ----------------------------------------
        BYTE   W96
// 014   ----------------------------------------
        BYTE   W96
// 015   ----------------------------------------
        BYTE   W96
// 016   ----------------------------------------
        BYTE   W96
// 017   ----------------------------------------
        BYTE   W96
// 018   ----------------------------------------
        BYTE   W96
// 019   ----------------------------------------
        BYTE   W96
// 020   ----------------------------------------
        BYTE   W96
// 021   ----------------------------------------
        BYTE   W96
// 022   ----------------------------------------
        BYTE   W96
// 023   ----------------------------------------
        BYTE   W96
// 024   ----------------------------------------
        BYTE   W96
// 025   ----------------------------------------
ChasmCave_3_25:
        BYTE           N48     Cn4   v127
        BYTE   W48
        BYTE           N12     Dn4
        BYTE   W12
        BYTE                   Ds4
        BYTE   W12
        BYTE           N48     Fn4
        BYTE   W24
        BYTE   PEND
// 026   ----------------------------------------
ChasmCave_3_26:
        BYTE   W24
        BYTE           N12     Ds4   v127
        BYTE   W12
        BYTE                   Cs4
        BYTE   W12
        BYTE           N48     Cn4
        BYTE   W48
        BYTE   PEND
// 027   ----------------------------------------
ChasmCave_3_27:
        BYTE           N12     Dn4   v127
        BYTE   W12
        BYTE                   Ds4
        BYTE   W12
        BYTE           N48     Fn4
        BYTE   W48
        BYTE           N12     Ds4
        BYTE   W12
        BYTE                   Cs4
        BYTE   W12
        BYTE   PEND
// 028   ----------------------------------------
ChasmCave_3_28:
        BYTE           N24     Cn4   v127
        BYTE   W24
        BYTE                   Ds4
        BYTE   W24
        BYTE                   Cn5
        BYTE   W24
        BYTE           N36
        BYTE   W24
        BYTE   PEND
// 029   ----------------------------------------
ChasmCave_3_29:
        BYTE   W12
        BYTE           N12     As4   v127
        BYTE   W12
        BYTE                   Fs4
        BYTE   W12
        BYTE                   Cs4
        BYTE   W12
        BYTE           N48     Cn4
        BYTE   W48
        BYTE   PEND
// 030   ----------------------------------------
ChasmCave_3_30:
        BYTE           N12     As3   v127
        BYTE   W12
        BYTE                   Dn4
        BYTE   W12
        BYTE           N72     Cn4
        BYTE   W72
        BYTE   PEND
// 031   ----------------------------------------
        BYTE   W96
// 032   ----------------------------------------
        BYTE   W40
        BYTE           VOL     21
        BYTE   W06
        BYTE                   22
        BYTE   W02
        BYTE           N48     Cn5
        BYTE   W07
        BYTE           VOL     23
        BYTE   W03
        BYTE                   24
        BYTE   W02
        BYTE                   25
        BYTE   W03
        BYTE                   26
        BYTE   W03
        BYTE                   27
        BYTE   W01
        BYTE                   28
        BYTE   W02
        BYTE                   29
        BYTE   W01
        BYTE                   30
        BYTE   W02
        BYTE                   31
        BYTE   W01
        BYTE                   32
        BYTE   W02
        BYTE                   33
        BYTE   W01
        BYTE                   35
        BYTE   W02
        BYTE                   36
        BYTE   W01
        BYTE                   37
        BYTE   W02
        BYTE                   39
        BYTE   W01
        BYTE                   40
        BYTE   W02
        BYTE                   42
        BYTE   W01
        BYTE                   43
        BYTE   W02
        BYTE                   45
        BYTE   W01
        BYTE                   47
        BYTE   W02
        BYTE                   48
        BYTE   W01
        BYTE                   50
        BYTE   W05
// 033   ----------------------------------------
ChasmCave_3_33:
        BYTE           N12     As4   v127
        BYTE   W12
        BYTE                   An4
        BYTE           N12     Dn5
        BYTE   W12
        BYTE           N48     Cn5
        BYTE   W48
        BYTE           N12
        BYTE   W12
        BYTE                   Dn5
        BYTE   W12
        BYTE   PEND
// 034   ----------------------------------------
ChasmCave_3_34:
        BYTE           TIE     En5   v127
        BYTE   W30
        BYTE           VOL     49
        BYTE   W24
        BYTE   W01
        BYTE                   48
        BYTE   W24
        BYTE   W02
        BYTE                   47
        BYTE   W15
        BYTE   PEND
// 035   ----------------------------------------
ChasmCave_3_35:
        BYTE   W01
        BYTE           VOL     46
        BYTE   W11
        BYTE                   45
        BYTE   W12
        BYTE                   44
        BYTE   W10
        BYTE                   43
        BYTE   W12
        BYTE                   42
        BYTE   W08
        BYTE                   41
        BYTE   W07
        BYTE                   40
        BYTE   W06
        BYTE                   39
        BYTE   W14
        BYTE                   38
        BYTE   W06
        BYTE                   37
        BYTE   W09
        BYTE   PEND
// 036   ----------------------------------------
        BYTE   W96
// 037   ----------------------------------------
        BYTE   W66
        BYTE   W01
        BYTE                   36
        BYTE   W28
        BYTE   W01
// 038   ----------------------------------------
ChasmCave_3_38:
        BYTE   W04
        BYTE           VOL     35
        BYTE   W21
        BYTE                   34
        BYTE   W12
        BYTE                   33
        BYTE   W11
        BYTE                   32
        BYTE   W07
        BYTE                   31
        BYTE   W08
        BYTE                   30
        BYTE   W10
        BYTE                   29
        BYTE   W05
        BYTE                   28
        BYTE   W04
        BYTE                   27
        BYTE   W08
        BYTE                   26
        BYTE   W06
        BYTE   PEND
// 039   ----------------------------------------
ChasmCave_3_39:
        BYTE   W03
        BYTE           VOL     25
        BYTE   W03
        BYTE                   24
        BYTE   W04
        BYTE                   23
        BYTE   W05
        BYTE                   22
        BYTE   W06
        BYTE                   21
        BYTE   W06
        BYTE                   20
        BYTE   W03
        BYTE                   19
        BYTE   W04
        BYTE                   18
        BYTE   W05
        BYTE                   17
        BYTE   W04
        BYTE                   16
        BYTE   W03
        BYTE                   15
        BYTE   W05
        BYTE                   14
        BYTE   W03
        BYTE                   13
        BYTE   W06
        BYTE                   12
        BYTE   W03
        BYTE                   11
        BYTE   W03
        BYTE                   10
        BYTE   W03
        BYTE                   9
        BYTE   W06
        BYTE                   8
        BYTE   W03
        BYTE                   7
        BYTE   W03
        BYTE                   6
        BYTE   W03
        BYTE                   5
        BYTE   W01
        BYTE                   4
        BYTE   W06
        BYTE                   3
        BYTE   W03
        BYTE                   2
        BYTE   W02
        BYTE   PEND
// 040   ----------------------------------------
ChasmCave_3_40:
        BYTE           EOT     En5
        BYTE   W01
        BYTE           VOL     1
        BYTE   W02
        BYTE                   0
        BYTE   W92
        BYTE   W01
        BYTE   PEND
// 041   ----------------------------------------
        BYTE   W96
// 042   ----------------------------------------
        BYTE   W96
// 043   ----------------------------------------
        BYTE   W96
// 044   ----------------------------------------
        BYTE   W96
// 045   ----------------------------------------
        BYTE   W96
// 046   ----------------------------------------
ChasmCave_3_LOOP:
        BYTE   W96
// 047   ----------------------------------------
        BYTE   W96
// 048   ----------------------------------------
        BYTE   W96
// 049   ----------------------------------------
        BYTE   W96
// 050   ----------------------------------------
        BYTE   W96
// 051   ----------------------------------------
        BYTE   W96
// 052   ----------------------------------------
        BYTE   W96
// 053   ----------------------------------------
        BYTE   W96
// 054   ----------------------------------------
        BYTE   W96
// 055   ----------------------------------------
        BYTE   W96
// 056   ----------------------------------------
        BYTE   W96
// 057   ----------------------------------------
        BYTE   W96
// 058   ----------------------------------------
        BYTE   W96
// 059   ----------------------------------------
        BYTE   W96
// 060   ----------------------------------------
        BYTE   W96
// 061   ----------------------------------------
        BYTE   W96
// 062   ----------------------------------------
        BYTE   W96
// 063   ----------------------------------------
        BYTE   W96
// 064   ----------------------------------------
        BYTE   W96
// 065   ----------------------------------------
        BYTE   W96
// 066   ----------------------------------------
        BYTE   W96
// 067   ----------------------------------------
        BYTE   W96
// 068   ----------------------------------------
        BYTE   W96
// 069   ----------------------------------------
        BYTE   W96
// 070   ----------------------------------------
        BYTE   PATT
         POIN2  ChasmCave_3_25
// 071   ----------------------------------------
        BYTE   PATT
         POIN2  ChasmCave_3_26
// 072   ----------------------------------------
        BYTE   PATT
         POIN2  ChasmCave_3_27
// 073   ----------------------------------------
        BYTE   PATT
         POIN2  ChasmCave_3_28
// 074   ----------------------------------------
        BYTE   PATT
         POIN2  ChasmCave_3_29
// 075   ----------------------------------------
        BYTE   PATT
         POIN2  ChasmCave_3_30
// 076   ----------------------------------------
        BYTE   W96
// 077   ----------------------------------------
        BYTE   W24
        BYTE           VOL     52
        BYTE   W16
        BYTE                   21
        BYTE   W06
        BYTE                   22
        BYTE   W02
        BYTE           N48     Cn5   v127
        BYTE   W07
        BYTE           VOL     23
        BYTE   W03
        BYTE                   24
        BYTE   W02
        BYTE                   25
        BYTE   W03
        BYTE                   26
        BYTE   W03
        BYTE                   27
        BYTE   W01
        BYTE                   28
        BYTE   W02
        BYTE                   29
        BYTE   W01
        BYTE                   30
        BYTE   W02
        BYTE                   31
        BYTE   W01
        BYTE                   32
        BYTE   W02
        BYTE                   33
        BYTE   W01
        BYTE                   35
        BYTE   W02
        BYTE                   36
        BYTE   W01
        BYTE                   37
        BYTE   W02
        BYTE                   39
        BYTE   W01
        BYTE                   40
        BYTE   W02
        BYTE                   42
        BYTE   W01
        BYTE                   43
        BYTE   W02
        BYTE                   45
        BYTE   W01
        BYTE                   47
        BYTE   W02
        BYTE                   48
        BYTE   W01
        BYTE                   50
        BYTE   W05
// 078   ----------------------------------------
        BYTE   PATT
         POIN2  ChasmCave_3_33
// 079   ----------------------------------------
        BYTE   PATT
         POIN2  ChasmCave_3_34
// 080   ----------------------------------------
        BYTE   PATT
         POIN2  ChasmCave_3_35
// 081   ----------------------------------------
        BYTE   W96
// 082   ----------------------------------------
        BYTE   W66
        BYTE   W01
        BYTE           VOL     36
        BYTE   W28
        BYTE   W01
// 083   ----------------------------------------
        BYTE   PATT
         POIN2  ChasmCave_3_38
// 084   ----------------------------------------
        BYTE   PATT
         POIN2  ChasmCave_3_39
// 085   ----------------------------------------
        BYTE   PATT
         POIN2  ChasmCave_3_40
// 086   ----------------------------------------
        BYTE   W96
// 087   ----------------------------------------
        BYTE   W96
// 088   ----------------------------------------
        BYTE   W96
// 089   ----------------------------------------
        BYTE   W96
// 090   ----------------------------------------
        BYTE   W96
// 091   ----------------------------------------
        BYTE   GoTo
         POIN2  ChasmCave_3_LOOP
        BYTE   FINE

//****************** Track 4 (Midi-Chn.4) ******************//

ChasmCave_4:
        BYTE   KEYSH   ChasmCave_key+0
// 000   ----------------------------------------
        BYTE   W24
// 001   ----------------------------------------
        BYTE           VOL     52
        BYTE           VOICE   40
        BYTE   W96
// 002   ----------------------------------------
        BYTE   W96
// 003   ----------------------------------------
        BYTE   W96
// 004   ----------------------------------------
        BYTE   W96
// 005   ----------------------------------------
        BYTE   W96
// 006   ----------------------------------------
        BYTE   W96
// 007   ----------------------------------------
        BYTE           N48     Fs3   v127
        BYTE   W48
        BYTE           N12     Gs3
        BYTE   W12
        BYTE                   An3
        BYTE   W12
        BYTE           N48     Bn3
        BYTE   W24
// 008   ----------------------------------------
ChasmCave_4_8:
        BYTE   W24
        BYTE           N12     An3   v127
        BYTE   W12
        BYTE                   Gs3
        BYTE   W12
        BYTE           N48     Fs3
        BYTE   W48
        BYTE   PEND
// 009   ----------------------------------------
ChasmCave_4_9:
        BYTE           N12     Gs3   v127
        BYTE   W12
        BYTE                   An3
        BYTE   W12
        BYTE           N48     Bn3
        BYTE   W48
        BYTE           N12     An3
        BYTE   W12
        BYTE                   Gs3
        BYTE   W12
        BYTE   PEND
// 010   ----------------------------------------
ChasmCave_4_10:
        BYTE           N48     Fs3   v127
        BYTE   W48
        BYTE           N12     Gs3
        BYTE   W12
        BYTE                   An3
        BYTE   W12
        BYTE           N24     Bn3
        BYTE   W24
        BYTE   PEND
// 011   ----------------------------------------
ChasmCave_4_11:
        BYTE           N24     Cs4   v127
        BYTE   W24
        BYTE                   Ds4
        BYTE   W24
        BYTE           N36
        BYTE   W36
        BYTE           N12     En4
        BYTE   W12
        BYTE   PEND
// 012   ----------------------------------------
ChasmCave_4_12:
        BYTE           N24     Ds4   v127
        BYTE   W24
        BYTE                   Ds4
        BYTE   W24
        BYTE                   Bn3
        BYTE   W24
        BYTE                   Cs4
        BYTE   W24
        BYTE   PEND
// 013   ----------------------------------------
ChasmCave_4_13:
        BYTE           N48     Fs4   v127
        BYTE   W48
        BYTE           N12     Gs4
        BYTE   W12
        BYTE                   An4
        BYTE   W12
        BYTE           N48     Bn4
        BYTE   W24
        BYTE   PEND
// 014   ----------------------------------------
ChasmCave_4_14:
        BYTE   W24
        BYTE           N12     An4   v127
        BYTE   W12
        BYTE                   Gs4
        BYTE   W12
        BYTE           N48     Fs4
        BYTE   W48
        BYTE   PEND
// 015   ----------------------------------------
ChasmCave_4_15:
        BYTE           N12     Gs4   v127
        BYTE   W12
        BYTE                   An4
        BYTE   W12
        BYTE           N48     Bn4
        BYTE   W48
        BYTE           N12     An4
        BYTE   W12
        BYTE                   Gs4
        BYTE   W12
        BYTE   PEND
// 016   ----------------------------------------
ChasmCave_4_16:
        BYTE           N48     Fs4   v127
        BYTE   W48
        BYTE           N12     Gs4
        BYTE   W12
        BYTE                   An4
        BYTE   W12
        BYTE           N24     Bn4
        BYTE   W24
        BYTE   PEND
// 017   ----------------------------------------
ChasmCave_4_17:
        BYTE           N24     Cs5   v127
        BYTE   W24
        BYTE                   Ds5
        BYTE   W24
        BYTE           N36
        BYTE   W36
        BYTE           N12     En5
        BYTE   W12
        BYTE   PEND
// 018   ----------------------------------------
ChasmCave_4_18:
        BYTE           N24     Ds5   v127
        BYTE   W24
        BYTE           N84     Cs5
        BYTE   W28
        BYTE           VOL     51
        BYTE   W08
        BYTE                   50
        BYTE   W03
        BYTE                   49
        BYTE   W01
        BYTE                   48
        BYTE   W03
        BYTE                   47
        BYTE   W02
        BYTE                   46
        BYTE   W01
        BYTE                   45
        BYTE   W02
        BYTE                   44
        BYTE   W01
        BYTE                   43
        BYTE   W02
        BYTE                   42
        BYTE   W01
        BYTE                   41
        BYTE   W02
        BYTE                   39
        BYTE   W01
        BYTE                   38
        BYTE   W02
        BYTE                   37
        BYTE   W01
        BYTE                   35
        BYTE   W02
        BYTE                   34
        BYTE   W01
        BYTE                   32
        BYTE   W02
        BYTE                   30
        BYTE   W01
        BYTE                   28
        BYTE   W02
        BYTE                   26
        BYTE   W01
        BYTE                   24
        BYTE   W02
        BYTE                   22
        BYTE   W01
        BYTE                   20
        BYTE   W02
        BYTE   PEND
// 019   ----------------------------------------
ChasmCave_4_19:
        BYTE           VOL     18
        BYTE   W01
        BYTE                   15
        BYTE   W02
        BYTE                   13
        BYTE   W01
        BYTE                   10
        BYTE   W02
        BYTE                   8
        BYTE   W01
        BYTE                   5
        BYTE   W02
        BYTE                   2
        BYTE   W48
        BYTE   W03
        BYTE                   52
        BYTE   W36
        BYTE   PEND
// 020   ----------------------------------------
        BYTE   W96
// 021   ----------------------------------------
        BYTE   W96
// 022   ----------------------------------------
        BYTE   W96
// 023   ----------------------------------------
        BYTE   W96
// 024   ----------------------------------------
        BYTE   W96
// 025   ----------------------------------------
        BYTE   PATT
         POIN2  ChasmCave_3_25
// 026   ----------------------------------------
        BYTE   PATT
         POIN2  ChasmCave_3_26
// 027   ----------------------------------------
        BYTE   PATT
         POIN2  ChasmCave_3_27
// 028   ----------------------------------------
        BYTE   PATT
         POIN2  ChasmCave_3_28
// 029   ----------------------------------------
        BYTE   PATT
         POIN2  ChasmCave_3_29
// 030   ----------------------------------------
ChasmCave_4_30:
        BYTE           N12     As3   v127
        BYTE   W12
        BYTE                   Dn4
        BYTE   W12
        BYTE           N66     Cn4
        BYTE   W36
        BYTE   W01
        BYTE           VOL     51
        BYTE   W02
        BYTE                   50
        BYTE   W01
        BYTE                   49
        BYTE   W02
        BYTE                   48
        BYTE   W01
        BYTE                   47
        BYTE   W02
        BYTE                   46
        BYTE   W01
        BYTE                   45
        BYTE   W02
        BYTE                   43
        BYTE   W01
        BYTE                   42
        BYTE   W02
        BYTE                   40
        BYTE   W01
        BYTE                   38
        BYTE   W02
        BYTE                   36
        BYTE   W01
        BYTE                   34
        BYTE   W02
        BYTE                   31
        BYTE   W01
        BYTE                   28
        BYTE   W02
        BYTE                   26
        BYTE   W01
        BYTE                   22
        BYTE   W02
        BYTE                   19
        BYTE   W01
        BYTE                   16
        BYTE   W02
        BYTE                   13
        BYTE   W06
        BYTE   PEND
// 031   ----------------------------------------
ChasmCave_4_31:
        BYTE           VOL     52
        BYTE           N48     Cn4   v127
        BYTE   W48
        BYTE           N12     As3
        BYTE   W12
        BYTE                   Dn4
        BYTE   W12
        BYTE           N66     Cn4
        BYTE   W24
        BYTE   PEND
// 032   ----------------------------------------
ChasmCave_4_32:
        BYTE   W48
        BYTE           N48     Cn5   v127
        BYTE   W48
        BYTE   PEND
// 033   ----------------------------------------
ChasmCave_4_33:
        BYTE           N12     As4   v127
        BYTE   W12
        BYTE                   Dn5
        BYTE   W12
        BYTE           N60     Cn5
        BYTE   W60
        BYTE           N12     Dn5
        BYTE   W12
        BYTE   PEND
// 034   ----------------------------------------
ChasmCave_4_34:
        BYTE           TIE     En5   v127
        BYTE   W12
        BYTE           VOL     51
        BYTE   W15
        BYTE                   50
        BYTE   W09
        BYTE                   49
        BYTE   W06
        BYTE                   48
        BYTE   W07
        BYTE                   47
        BYTE   W06
        BYTE                   46
        BYTE   W03
        BYTE                   45
        BYTE   W03
        BYTE                   44
        BYTE   W05
        BYTE                   43
        BYTE   W04
        BYTE                   42
        BYTE   W03
        BYTE                   41
        BYTE   W03
        BYTE                   39
        BYTE   W20
        BYTE   PEND
// 035   ----------------------------------------
ChasmCave_4_35:
        BYTE   W60
        BYTE   W01
        BYTE           VOL     38
        BYTE   W20
        BYTE                   37
        BYTE   W15
        BYTE   PEND
// 036   ----------------------------------------
ChasmCave_4_36:
        BYTE   W01
        BYTE           VOL     36
        BYTE   W14
        BYTE                   35
        BYTE   W12
        BYTE                   34
        BYTE   W06
        BYTE                   33
        BYTE   W04
        BYTE                   32
        BYTE   W03
        BYTE                   31
        BYTE   W05
        BYTE                   30
        BYTE   W03
        BYTE                   29
        BYTE   W03
        BYTE                   28
        BYTE   W03
        BYTE                   27
        BYTE   W01
        BYTE                   26
        BYTE   W05
        BYTE                   25
        BYTE   W01
        BYTE                   24
        BYTE   W02
        BYTE                   23
        BYTE   W03
        BYTE                   22
        BYTE   W01
        BYTE                   21
        BYTE   W03
        BYTE                   20
        BYTE   W02
        BYTE                   19
        BYTE   W01
        BYTE                   18
        BYTE   W03
        BYTE                   17
        BYTE   W02
        BYTE                   16
        BYTE   W01
        BYTE                   15
        BYTE   W02
        BYTE                   14
        BYTE   W01
        BYTE                   13
        BYTE   W03
        BYTE                   12
        BYTE   W02
        BYTE                   10
        BYTE   W01
        BYTE                   9
        BYTE   W03
        BYTE                   8
        BYTE   W02
        BYTE                   6
        BYTE   W01
        BYTE                   5
        BYTE   W02
        BYTE   PEND
// 037   ----------------------------------------
ChasmCave_4_37:
        BYTE           EOT     En5
        BYTE           VOL     4
        BYTE   W03
        BYTE                   2
        BYTE   W92
        BYTE   W01
        BYTE   PEND
// 038   ----------------------------------------
        BYTE   W96
// 039   ----------------------------------------
        BYTE   W96
// 040   ----------------------------------------
        BYTE   W96
// 041   ----------------------------------------
        BYTE   W96
// 042   ----------------------------------------
        BYTE   W96
// 043   ----------------------------------------
        BYTE   W96
// 044   ----------------------------------------
        BYTE   W96
// 045   ----------------------------------------
        BYTE   W96
// 046   ----------------------------------------
ChasmCave_4_LOOP:
        BYTE   W96
// 047   ----------------------------------------
        BYTE   W96
// 048   ----------------------------------------
        BYTE   W96
// 049   ----------------------------------------
        BYTE   W96
// 050   ----------------------------------------
        BYTE   W96
// 051   ----------------------------------------
        BYTE   W96
// 052   ----------------------------------------
        BYTE           VOL     52
        BYTE           N48     Fs3   v127
        BYTE   W48
        BYTE           N12     Gs3
        BYTE   W12
        BYTE                   An3
        BYTE   W12
        BYTE           N48     Bn3
        BYTE   W24
// 053   ----------------------------------------
        BYTE   PATT
         POIN2  ChasmCave_4_8
// 054   ----------------------------------------
        BYTE   PATT
         POIN2  ChasmCave_4_9
// 055   ----------------------------------------
        BYTE   PATT
         POIN2  ChasmCave_4_10
// 056   ----------------------------------------
        BYTE   PATT
         POIN2  ChasmCave_4_11
// 057   ----------------------------------------
        BYTE   PATT
         POIN2  ChasmCave_4_12
// 058   ----------------------------------------
        BYTE   PATT
         POIN2  ChasmCave_4_13
// 059   ----------------------------------------
        BYTE   PATT
         POIN2  ChasmCave_4_14
// 060   ----------------------------------------
        BYTE   PATT
         POIN2  ChasmCave_4_15
// 061   ----------------------------------------
        BYTE   PATT
         POIN2  ChasmCave_4_16
// 062   ----------------------------------------
        BYTE   PATT
         POIN2  ChasmCave_4_17
// 063   ----------------------------------------
        BYTE   PATT
         POIN2  ChasmCave_4_18
// 064   ----------------------------------------
        BYTE   PATT
         POIN2  ChasmCave_4_19
// 065   ----------------------------------------
        BYTE   W96
// 066   ----------------------------------------
        BYTE   W96
// 067   ----------------------------------------
        BYTE   W96
// 068   ----------------------------------------
        BYTE   W96
// 069   ----------------------------------------
        BYTE   W96
// 070   ----------------------------------------
        BYTE   PATT
         POIN2  ChasmCave_3_25
// 071   ----------------------------------------
        BYTE   PATT
         POIN2  ChasmCave_3_26
// 072   ----------------------------------------
        BYTE   PATT
         POIN2  ChasmCave_3_27
// 073   ----------------------------------------
        BYTE   PATT
         POIN2  ChasmCave_3_28
// 074   ----------------------------------------
        BYTE   PATT
         POIN2  ChasmCave_3_29
// 075   ----------------------------------------
        BYTE   PATT
         POIN2  ChasmCave_4_30
// 076   ----------------------------------------
        BYTE   PATT
         POIN2  ChasmCave_4_31
// 077   ----------------------------------------
        BYTE   PATT
         POIN2  ChasmCave_4_32
// 078   ----------------------------------------
        BYTE   PATT
         POIN2  ChasmCave_4_33
// 079   ----------------------------------------
        BYTE   PATT
         POIN2  ChasmCave_4_34
// 080   ----------------------------------------
        BYTE   PATT
         POIN2  ChasmCave_4_35
// 081   ----------------------------------------
        BYTE   PATT
         POIN2  ChasmCave_4_36
// 082   ----------------------------------------
        BYTE   PATT
         POIN2  ChasmCave_4_37
// 083   ----------------------------------------
        BYTE   W96
// 084   ----------------------------------------
        BYTE   W96
// 085   ----------------------------------------
        BYTE   W96
// 086   ----------------------------------------
        BYTE   W96
// 087   ----------------------------------------
        BYTE   W96
// 088   ----------------------------------------
        BYTE   W96
// 089   ----------------------------------------
        BYTE   W96
// 090   ----------------------------------------
        BYTE   W96
// 091   ----------------------------------------
        BYTE   GoTo
         POIN2  ChasmCave_4_LOOP
        BYTE   FINE

//****************** Track 5 (Midi-Chn.5) ******************//

ChasmCave_5:
        BYTE   KEYSH   ChasmCave_key+0
// 000   ----------------------------------------
        BYTE   W24
// 001   ----------------------------------------
        BYTE           PAN     c_v-64
        BYTE           VOL     25
        BYTE           VOICE   40
        BYTE   W96
// 002   ----------------------------------------
        BYTE   W96
// 003   ----------------------------------------
        BYTE   W96
// 004   ----------------------------------------
        BYTE   W96
// 005   ----------------------------------------
        BYTE   W96
// 006   ----------------------------------------
        BYTE   W96
// 007   ----------------------------------------
        BYTE   W12
        BYTE           N48     Fs3   v127
        BYTE   W48
        BYTE           N12     Gs3
        BYTE   W12
        BYTE                   An3
        BYTE   W12
        BYTE           N48     Bn3
        BYTE   W12
// 008   ----------------------------------------
ChasmCave_5_8:
        BYTE   W36
        BYTE           N12     An3   v127
        BYTE   W12
        BYTE                   Gs3
        BYTE   W12
        BYTE           N48     Fs3
        BYTE   W36
        BYTE   PEND
// 009   ----------------------------------------
ChasmCave_5_9:
        BYTE   W12
        BYTE           N12     Gs3   v127
        BYTE   W12
        BYTE                   An3
        BYTE   W12
        BYTE           N48     Bn3
        BYTE   W48
        BYTE           N12     An3
        BYTE   W12
        BYTE   PEND
// 010   ----------------------------------------
ChasmCave_5_10:
        BYTE           N12     Gs3   v127
        BYTE   W12
        BYTE           N48     Fs3
        BYTE   W48
        BYTE           N12     Gs3
        BYTE   W12
        BYTE                   An3
        BYTE   W12
        BYTE           N24     Bn3
        BYTE   W12
        BYTE   PEND
// 011   ----------------------------------------
ChasmCave_5_11:
        BYTE   W12
        BYTE           N24     Cs4   v127
        BYTE   W24
        BYTE                   Ds4
        BYTE   W24
        BYTE           N36
        BYTE   W36
        BYTE   PEND
// 012   ----------------------------------------
ChasmCave_5_12:
        BYTE           N12     En4   v127
        BYTE   W12
        BYTE           N24     Ds4
        BYTE   W24
        BYTE                   Ds4
        BYTE   W24
        BYTE                   Bn3
        BYTE   W24
        BYTE                   Cs4
        BYTE   W12
        BYTE   PEND
// 013   ----------------------------------------
ChasmCave_5_13:
        BYTE   W12
        BYTE           N48     Fs4   v127
        BYTE   W48
        BYTE           N12     Gs4
        BYTE   W12
        BYTE                   An4
        BYTE   W12
        BYTE           N48     Bn4
        BYTE   W12
        BYTE   PEND
// 014   ----------------------------------------
ChasmCave_5_14:
        BYTE   W36
        BYTE           N12     An4   v127
        BYTE   W12
        BYTE                   Gs4
        BYTE   W12
        BYTE           N48     Fs4
        BYTE   W36
        BYTE   PEND
// 015   ----------------------------------------
ChasmCave_5_15:
        BYTE   W12
        BYTE           N12     Gs4   v127
        BYTE   W12
        BYTE                   An4
        BYTE   W12
        BYTE           N48     Bn4
        BYTE   W48
        BYTE           N12     An4
        BYTE   W12
        BYTE   PEND
// 016   ----------------------------------------
ChasmCave_5_16:
        BYTE           N12     Gs4   v127
        BYTE   W12
        BYTE           N48     Fs4
        BYTE   W48
        BYTE           N12     Gs4
        BYTE   W12
        BYTE                   An4
        BYTE   W12
        BYTE           N24     Bn4
        BYTE   W12
        BYTE   PEND
// 017   ----------------------------------------
ChasmCave_5_17:
        BYTE   W12
        BYTE           N24     Cs5   v127
        BYTE   W24
        BYTE                   Ds5
        BYTE   W24
        BYTE           N36
        BYTE   W36
        BYTE   PEND
// 018   ----------------------------------------
ChasmCave_5_18:
        BYTE           N12     En5   v127
        BYTE   W12
        BYTE           N24     Ds5
        BYTE   W24
        BYTE           N84     Cs5
        BYTE   W36
        BYTE   W01
        BYTE           VOL     24
        BYTE   W05
        BYTE                   23
        BYTE   W04
        BYTE                   22
        BYTE   W03
        BYTE                   21
        BYTE   W03
        BYTE                   20
        BYTE   W02
        BYTE                   19
        BYTE   W03
        BYTE                   18
        BYTE   W01
        BYTE                   17
        BYTE   W02
        BYTE   PEND
// 019   ----------------------------------------
ChasmCave_5_19:
        BYTE   W01
        BYTE           VOL     16
        BYTE   W02
        BYTE                   15
        BYTE   W01
        BYTE                   14
        BYTE   W02
        BYTE                   13
        BYTE   W01
        BYTE                   12
        BYTE   W02
        BYTE                   11
        BYTE   W01
        BYTE                   10
        BYTE   W02
        BYTE                   9
        BYTE   W01
        BYTE                   7
        BYTE   W02
        BYTE                   6
        BYTE   W01
        BYTE                   5
        BYTE   W02
        BYTE                   4
        BYTE   W01
        BYTE                   2
        BYTE   W02
        BYTE                   1
        BYTE   W48
        BYTE   W03
        BYTE                   25
        BYTE   W24
        BYTE   PEND
// 020   ----------------------------------------
        BYTE   W96
// 021   ----------------------------------------
        BYTE   W96
// 022   ----------------------------------------
        BYTE   W96
// 023   ----------------------------------------
        BYTE   W96
// 024   ----------------------------------------
        BYTE   W96
// 025   ----------------------------------------
ChasmCave_5_25:
        BYTE   W12
        BYTE           N48     Cn4   v127
        BYTE   W48
        BYTE           N12     Dn4
        BYTE   W12
        BYTE                   Ds4
        BYTE   W12
        BYTE           N48     Fn4
        BYTE   W12
        BYTE   PEND
// 026   ----------------------------------------
ChasmCave_5_26:
        BYTE   W36
        BYTE           N12     Ds4   v127
        BYTE   W12
        BYTE                   Cs4
        BYTE   W12
        BYTE           N48     Cn4
        BYTE   W36
        BYTE   PEND
// 027   ----------------------------------------
ChasmCave_5_27:
        BYTE   W12
        BYTE           N12     Dn4   v127
        BYTE   W12
        BYTE                   Ds4
        BYTE   W12
        BYTE           N48     Fn4
        BYTE   W48
        BYTE           N12     Ds4
        BYTE   W12
        BYTE   PEND
// 028   ----------------------------------------
ChasmCave_5_28:
        BYTE           N12     Cs4   v127
        BYTE   W12
        BYTE           N24     Cn4
        BYTE   W24
        BYTE                   Ds4
        BYTE   W24
        BYTE                   Cn5
        BYTE   W24
        BYTE           N36
        BYTE   W12
        BYTE   PEND
// 029   ----------------------------------------
ChasmCave_5_29:
        BYTE   W24
        BYTE           N12     As4   v127
        BYTE   W12
        BYTE                   Fs4
        BYTE   W12
        BYTE                   Cs4
        BYTE   W12
        BYTE           N48     Cn4
        BYTE   W36
        BYTE   PEND
// 030   ----------------------------------------
ChasmCave_5_30:
        BYTE   W12
        BYTE           N12     As3   v127
        BYTE   W12
        BYTE                   Dn4
        BYTE   W12
        BYTE           N66     Cn4
        BYTE   W40
        BYTE           VOL     24
        BYTE   W03
        BYTE                   23
        BYTE   W03
        BYTE                   22
        BYTE   W02
        BYTE                   21
        BYTE   W03
        BYTE                   20
        BYTE   W01
        BYTE                   19
        BYTE   W02
        BYTE                   18
        BYTE   W01
        BYTE                   17
        BYTE   W02
        BYTE                   15
        BYTE   W01
        BYTE                   14
        BYTE   W02
        BYTE   PEND
// 031   ----------------------------------------
ChasmCave_5_31:
        BYTE           VOL     13
        BYTE   W01
        BYTE                   11
        BYTE   W02
        BYTE                   9
        BYTE   W01
        BYTE                   8
        BYTE   W02
        BYTE                   6
        BYTE   W06
        BYTE                   25
        BYTE           N48     Cn4   v127
        BYTE   W48
        BYTE           N12     As3
        BYTE   W12
        BYTE                   Dn4
        BYTE   W12
        BYTE           N66     Cn4
        BYTE   W12
        BYTE   PEND
// 032   ----------------------------------------
ChasmCave_5_32:
        BYTE   W60
        BYTE           N48     Cn5   v127
        BYTE   W36
        BYTE   PEND
// 033   ----------------------------------------
ChasmCave_5_33:
        BYTE   W12
        BYTE           N12     As4   v127
        BYTE   W12
        BYTE                   Dn5
        BYTE   W12
        BYTE           N60     Cn5
        BYTE   W60
        BYTE   PEND
// 034   ----------------------------------------
ChasmCave_5_34:
        BYTE           N12     Dn5   v127
        BYTE   W12
        BYTE           TIE     En5
        BYTE   W32
        BYTE   W01
        BYTE           VOL     24
        BYTE   W13
        BYTE                   23
        BYTE   W11
        BYTE                   22
        BYTE   W09
        BYTE                   21
        BYTE   W07
        BYTE                   20
        BYTE   W03
        BYTE                   19
        BYTE   W08
        BYTE   PEND
// 035   ----------------------------------------
        BYTE   W92
        BYTE   W01
        BYTE                   18
        BYTE   W03
// 036   ----------------------------------------
ChasmCave_5_36:
        BYTE   W24
        BYTE   W03
        BYTE           VOL     17
        BYTE   W18
        BYTE                   16
        BYTE   W07
        BYTE                   15
        BYTE   W08
        BYTE                   14
        BYTE   W06
        BYTE                   13
        BYTE   W06
        BYTE                   12
        BYTE   W03
        BYTE                   11
        BYTE   W04
        BYTE                   10
        BYTE   W05
        BYTE                   9
        BYTE   W04
        BYTE                   8
        BYTE   W03
        BYTE                   7
        BYTE   W03
        BYTE                   6
        BYTE   W02
        BYTE   PEND
// 037   ----------------------------------------
ChasmCave_5_37:
        BYTE   W03
        BYTE           VOL     5
        BYTE   W03
        BYTE                   4
        BYTE   W03
        BYTE                   3
        BYTE   W03
        BYTE           EOT     En5
        BYTE           VOL     2
        BYTE   W03
        BYTE                   1
        BYTE   W80
        BYTE   W01
        BYTE   PEND
// 038   ----------------------------------------
        BYTE   W96
// 039   ----------------------------------------
        BYTE   W96
// 040   ----------------------------------------
        BYTE   W96
// 041   ----------------------------------------
        BYTE   W96
// 042   ----------------------------------------
        BYTE   W96
// 043   ----------------------------------------
        BYTE   W96
// 044   ----------------------------------------
        BYTE   W96
// 045   ----------------------------------------
        BYTE   W96
// 046   ----------------------------------------
ChasmCave_5_LOOP:
        BYTE   W96
// 047   ----------------------------------------
        BYTE   W96
// 048   ----------------------------------------
        BYTE   W96
// 049   ----------------------------------------
        BYTE   W96
// 050   ----------------------------------------
        BYTE   W96
// 051   ----------------------------------------
        BYTE   W96
// 052   ----------------------------------------
        BYTE   W12
        BYTE           VOL     25
        BYTE           N48     Fs3   v127
        BYTE   W48
        BYTE           N12     Gs3
        BYTE   W12
        BYTE                   An3
        BYTE   W12
        BYTE           N48     Bn3
        BYTE   W12
// 053   ----------------------------------------
        BYTE   PATT
         POIN2  ChasmCave_5_8
// 054   ----------------------------------------
        BYTE   PATT
         POIN2  ChasmCave_5_9
// 055   ----------------------------------------
        BYTE   PATT
         POIN2  ChasmCave_5_10
// 056   ----------------------------------------
        BYTE   PATT
         POIN2  ChasmCave_5_11
// 057   ----------------------------------------
        BYTE   PATT
         POIN2  ChasmCave_5_12
// 058   ----------------------------------------
        BYTE   PATT
         POIN2  ChasmCave_5_13
// 059   ----------------------------------------
        BYTE   PATT
         POIN2  ChasmCave_5_14
// 060   ----------------------------------------
        BYTE   PATT
         POIN2  ChasmCave_5_15
// 061   ----------------------------------------
        BYTE   PATT
         POIN2  ChasmCave_5_16
// 062   ----------------------------------------
        BYTE   PATT
         POIN2  ChasmCave_5_17
// 063   ----------------------------------------
        BYTE   PATT
         POIN2  ChasmCave_5_18
// 064   ----------------------------------------
        BYTE   PATT
         POIN2  ChasmCave_5_19
// 065   ----------------------------------------
        BYTE   W96
// 066   ----------------------------------------
        BYTE   W96
// 067   ----------------------------------------
        BYTE   W96
// 068   ----------------------------------------
        BYTE   W96
// 069   ----------------------------------------
        BYTE   W96
// 070   ----------------------------------------
        BYTE   PATT
         POIN2  ChasmCave_5_25
// 071   ----------------------------------------
        BYTE   PATT
         POIN2  ChasmCave_5_26
// 072   ----------------------------------------
        BYTE   PATT
         POIN2  ChasmCave_5_27
// 073   ----------------------------------------
        BYTE   PATT
         POIN2  ChasmCave_5_28
// 074   ----------------------------------------
        BYTE   PATT
         POIN2  ChasmCave_5_29
// 075   ----------------------------------------
        BYTE   PATT
         POIN2  ChasmCave_5_30
// 076   ----------------------------------------
        BYTE   PATT
         POIN2  ChasmCave_5_31
// 077   ----------------------------------------
        BYTE   PATT
         POIN2  ChasmCave_5_32
// 078   ----------------------------------------
        BYTE   PATT
         POIN2  ChasmCave_5_33
// 079   ----------------------------------------
        BYTE   PATT
         POIN2  ChasmCave_5_34
// 080   ----------------------------------------
        BYTE   W92
        BYTE   W01
        BYTE           VOL     18
        BYTE   W03
// 081   ----------------------------------------
        BYTE   PATT
         POIN2  ChasmCave_5_36
// 082   ----------------------------------------
        BYTE   PATT
         POIN2  ChasmCave_5_37
// 083   ----------------------------------------
        BYTE   W96
// 084   ----------------------------------------
        BYTE   W96
// 085   ----------------------------------------
        BYTE   W96
// 086   ----------------------------------------
        BYTE   W96
// 087   ----------------------------------------
        BYTE   W96
// 088   ----------------------------------------
        BYTE   W96
// 089   ----------------------------------------
        BYTE   W96
// 090   ----------------------------------------
        BYTE   W96
// 091   ----------------------------------------
        BYTE   GoTo
         POIN2  ChasmCave_5_LOOP
        BYTE   FINE

//****************** Track 6 (Midi-Chn.6) ******************//

ChasmCave_6:
        BYTE   KEYSH   ChasmCave_key+0
// 000   ----------------------------------------
        BYTE   W24
// 001   ----------------------------------------
        BYTE           PAN     c_v+63
        BYTE           VOL     24
        BYTE           VOICE   40
        BYTE   W96
// 002   ----------------------------------------
        BYTE   W96
// 003   ----------------------------------------
        BYTE   W96
// 004   ----------------------------------------
        BYTE   W96
// 005   ----------------------------------------
        BYTE   W96
// 006   ----------------------------------------
        BYTE   W96
// 007   ----------------------------------------
        BYTE   W24
        BYTE           N48     Fs3   v127
        BYTE   W48
        BYTE           N12     Gs3
        BYTE   W12
        BYTE                   An3
        BYTE   W12
// 008   ----------------------------------------
ChasmCave_6_8:
        BYTE           N48     Bn3   v127
        BYTE   W48
        BYTE           N12     An3
        BYTE   W12
        BYTE                   Gs3
        BYTE   W12
        BYTE           N48     Fs3
        BYTE   W24
        BYTE   PEND
// 009   ----------------------------------------
ChasmCave_6_9:
        BYTE   W24
        BYTE           N12     Gs3   v127
        BYTE   W12
        BYTE                   An3
        BYTE   W12
        BYTE           N48     Bn3
        BYTE   W48
        BYTE   PEND
// 010   ----------------------------------------
ChasmCave_6_10:
        BYTE           N12     An3   v127
        BYTE   W12
        BYTE                   Gs3
        BYTE   W12
        BYTE           N48     Fs3
        BYTE   W48
        BYTE           N12     Gs3
        BYTE   W12
        BYTE                   An3
        BYTE   W12
        BYTE   PEND
// 011   ----------------------------------------
ChasmCave_6_11:
        BYTE           N24     Bn3   v127
        BYTE   W24
        BYTE                   Cs4
        BYTE   W24
        BYTE                   Ds4
        BYTE   W24
        BYTE           N36
        BYTE   W24
        BYTE   PEND
// 012   ----------------------------------------
ChasmCave_6_12:
        BYTE   W12
        BYTE           N12     En4   v127
        BYTE   W12
        BYTE           N24     Ds4
        BYTE   W24
        BYTE                   Ds4
        BYTE   W24
        BYTE                   Bn3
        BYTE   W24
        BYTE   PEND
// 013   ----------------------------------------
ChasmCave_6_13:
        BYTE           N24     Cs4   v127
        BYTE   W24
        BYTE           N48     Fs4
        BYTE   W48
        BYTE           N12     Gs4
        BYTE   W12
        BYTE                   An4
        BYTE   W12
        BYTE   PEND
// 014   ----------------------------------------
ChasmCave_6_14:
        BYTE           N48     Bn4   v127
        BYTE   W48
        BYTE           N12     An4
        BYTE   W12
        BYTE                   Gs4
        BYTE   W12
        BYTE           N48     Fs4
        BYTE   W24
        BYTE   PEND
// 015   ----------------------------------------
ChasmCave_6_15:
        BYTE   W24
        BYTE           N12     Gs4   v127
        BYTE   W12
        BYTE                   An4
        BYTE   W12
        BYTE           N48     Bn4
        BYTE   W48
        BYTE   PEND
// 016   ----------------------------------------
ChasmCave_6_16:
        BYTE           N12     An4   v127
        BYTE   W12
        BYTE                   Gs4
        BYTE   W12
        BYTE           N48     Fs4
        BYTE   W48
        BYTE           N12     Gs4
        BYTE   W12
        BYTE                   An4
        BYTE   W12
        BYTE   PEND
// 017   ----------------------------------------
ChasmCave_6_17:
        BYTE           N24     Bn4   v127
        BYTE   W24
        BYTE                   Cs5
        BYTE   W24
        BYTE                   Ds5
        BYTE   W24
        BYTE           N36
        BYTE   W24
        BYTE   PEND
// 018   ----------------------------------------
ChasmCave_6_18:
        BYTE   W12
        BYTE           N12     En5   v127
        BYTE   W12
        BYTE           N24     Ds5
        BYTE   W24
        BYTE           N84     Cs5
        BYTE   W36
        BYTE   W03
        BYTE           VOL     23
        BYTE   W04
        BYTE                   22
        BYTE   W03
        BYTE                   21
        BYTE   W02
        BYTE   PEND
// 019   ----------------------------------------
ChasmCave_6_19:
        BYTE   W01
        BYTE           VOL     20
        BYTE   W03
        BYTE                   19
        BYTE   W03
        BYTE                   18
        BYTE   W02
        BYTE                   17
        BYTE   W03
        BYTE                   16
        BYTE   W01
        BYTE                   15
        BYTE   W02
        BYTE                   14
        BYTE   W01
        BYTE                   13
        BYTE   W02
        BYTE                   12
        BYTE   W01
        BYTE                   11
        BYTE   W02
        BYTE                   10
        BYTE   W01
        BYTE                   9
        BYTE   W02
        BYTE                   8
        BYTE   W01
        BYTE                   7
        BYTE   W02
        BYTE                   6
        BYTE   W01
        BYTE                   5
        BYTE   W02
        BYTE                   4
        BYTE   W01
        BYTE                   2
        BYTE   W02
        BYTE                   1
        BYTE   W48
        BYTE   W03
        BYTE                   24
        BYTE   W12
        BYTE   PEND
// 020   ----------------------------------------
        BYTE   W96
// 021   ----------------------------------------
        BYTE   W96
// 022   ----------------------------------------
        BYTE   W96
// 023   ----------------------------------------
        BYTE   W96
// 024   ----------------------------------------
        BYTE   W96
// 025   ----------------------------------------
ChasmCave_6_25:
        BYTE   W24
        BYTE           N12     Cn4   v127
        BYTE   W48
        BYTE                   Dn4
        BYTE   W12
        BYTE                   Ds4
        BYTE   W12
        BYTE   PEND
// 026   ----------------------------------------
ChasmCave_6_26:
        BYTE           N12     Fn4   v127
        BYTE   W48
        BYTE                   Ds4
        BYTE   W12
        BYTE                   Cs4
        BYTE   W12
        BYTE                   Cn4
        BYTE   W24
        BYTE   PEND
// 027   ----------------------------------------
ChasmCave_6_27:
        BYTE   W24
        BYTE           N12     Dn4   v127
        BYTE   W12
        BYTE                   Ds4
        BYTE   W12
        BYTE                   Fn4
        BYTE   W48
        BYTE   PEND
// 028   ----------------------------------------
ChasmCave_6_28:
        BYTE           N12     Ds4   v127
        BYTE   W12
        BYTE                   Cs4
        BYTE   W12
        BYTE                   Cn4
        BYTE   W24
        BYTE                   Ds4
        BYTE   W24
        BYTE                   Cn5
        BYTE   W24
        BYTE   PEND
// 029   ----------------------------------------
ChasmCave_6_29:
        BYTE           N12     Cn5   v127
        BYTE   W36
        BYTE                   As4
        BYTE   W12
        BYTE                   Fs4
        BYTE   W12
        BYTE                   Cs4
        BYTE   W12
        BYTE                   Cn4
        BYTE   W24
        BYTE   PEND
// 030   ----------------------------------------
ChasmCave_6_30:
        BYTE   W24
        BYTE           N12     As3   v127
        BYTE   W12
        BYTE                   Dn4
        BYTE   W12
        BYTE                   Cn4
        BYTE   W40
        BYTE           VOL     23
        BYTE   W03
        BYTE                   22
        BYTE   W03
        BYTE                   21
        BYTE   W02
        BYTE   PEND
// 031   ----------------------------------------
ChasmCave_6_31:
        BYTE           VOL     20
        BYTE   W03
        BYTE                   19
        BYTE   W01
        BYTE                   18
        BYTE   W02
        BYTE                   17
        BYTE   W01
        BYTE                   16
        BYTE   W02
        BYTE                   15
        BYTE   W01
        BYTE                   13
        BYTE   W02
        BYTE                   12
        BYTE   W01
        BYTE                   11
        BYTE   W02
        BYTE                   9
        BYTE   W01
        BYTE                   8
        BYTE   W02
        BYTE                   6
        BYTE   W06
        BYTE                   24
        BYTE           N12     Cn4   v127
        BYTE   W48
        BYTE                   As3
        BYTE   W12
        BYTE                   Dn4
        BYTE   W12
        BYTE   PEND
// 032   ----------------------------------------
ChasmCave_6_32:
        BYTE           N12     Cn4   v127
        BYTE   W72
        BYTE                   Cn5
        BYTE   W24
        BYTE   PEND
// 033   ----------------------------------------
ChasmCave_6_33:
        BYTE   W24
        BYTE           N12     As4   v127
        BYTE   W12
        BYTE                   Dn5
        BYTE   W12
        BYTE                   Cn5
        BYTE   W48
        BYTE   PEND
// 034   ----------------------------------------
ChasmCave_6_34:
        BYTE   W12
        BYTE           N12     Dn5   v127
        BYTE   W12
        BYTE                   En5
        BYTE   W36
        BYTE           VOL     23
        BYTE   W13
        BYTE                   22
        BYTE   W09
        BYTE                   21
        BYTE   W08
        BYTE                   20
        BYTE   W06
        BYTE   PEND
// 035   ----------------------------------------
ChasmCave_6_35:
        BYTE   W03
        BYTE           VOL     19
        BYTE   W40
        BYTE                   18
        BYTE   W52
        BYTE   W01
        BYTE   PEND
// 036   ----------------------------------------
ChasmCave_6_36:
        BYTE   W19
        BYTE           VOL     17
        BYTE   W28
        BYTE   W01
        BYTE                   16
        BYTE   W13
        BYTE                   15
        BYTE   W06
        BYTE                   14
        BYTE   W08
        BYTE                   13
        BYTE   W06
        BYTE                   12
        BYTE   W04
        BYTE                   11
        BYTE   W05
        BYTE                   10
        BYTE   W04
        BYTE                   9
        BYTE   W02
        BYTE   PEND
// 037   ----------------------------------------
ChasmCave_6_37:
        BYTE   W03
        BYTE           VOL     8
        BYTE   W03
        BYTE                   7
        BYTE   W04
        BYTE                   6
        BYTE   W05
        BYTE                   5
        BYTE   W01
        BYTE                   4
        BYTE   W05
        BYTE                   3
        BYTE   W03
        BYTE                   2
        BYTE   W03
        BYTE                   1
        BYTE   W68
        BYTE   W01
        BYTE   PEND
// 038   ----------------------------------------
        BYTE   W96
// 039   ----------------------------------------
        BYTE   W96
// 040   ----------------------------------------
        BYTE   W96
// 041   ----------------------------------------
        BYTE   W96
// 042   ----------------------------------------
        BYTE   W96
// 043   ----------------------------------------
        BYTE   W96
// 044   ----------------------------------------
        BYTE   W96
// 045   ----------------------------------------
        BYTE   W96
// 046   ----------------------------------------
ChasmCave_6_LOOP:
        BYTE   W96
// 047   ----------------------------------------
        BYTE   W96
// 048   ----------------------------------------
        BYTE   W96
// 049   ----------------------------------------
        BYTE   W96
// 050   ----------------------------------------
        BYTE   W96
// 051   ----------------------------------------
        BYTE   W96
// 052   ----------------------------------------
        BYTE   W24
        BYTE           VOL     24
        BYTE           N48     Fs3   v127
        BYTE   W48
        BYTE           N12     Gs3
        BYTE   W12
        BYTE                   An3
        BYTE   W12
// 053   ----------------------------------------
        BYTE   PATT
         POIN2  ChasmCave_6_8
// 054   ----------------------------------------
        BYTE   PATT
         POIN2  ChasmCave_6_9
// 055   ----------------------------------------
        BYTE   PATT
         POIN2  ChasmCave_6_10
// 056   ----------------------------------------
        BYTE   PATT
         POIN2  ChasmCave_6_11
// 057   ----------------------------------------
        BYTE   PATT
         POIN2  ChasmCave_6_12
// 058   ----------------------------------------
        BYTE   PATT
         POIN2  ChasmCave_6_13
// 059   ----------------------------------------
        BYTE   PATT
         POIN2  ChasmCave_6_14
// 060   ----------------------------------------
        BYTE   PATT
         POIN2  ChasmCave_6_15
// 061   ----------------------------------------
        BYTE   PATT
         POIN2  ChasmCave_6_16
// 062   ----------------------------------------
        BYTE   PATT
         POIN2  ChasmCave_6_17
// 063   ----------------------------------------
        BYTE   PATT
         POIN2  ChasmCave_6_18
// 064   ----------------------------------------
        BYTE   PATT
         POIN2  ChasmCave_6_19
// 065   ----------------------------------------
        BYTE   W96
// 066   ----------------------------------------
        BYTE   W96
// 067   ----------------------------------------
        BYTE   W96
// 068   ----------------------------------------
        BYTE   W96
// 069   ----------------------------------------
        BYTE   W96
// 070   ----------------------------------------
        BYTE   PATT
         POIN2  ChasmCave_6_25
// 071   ----------------------------------------
        BYTE   PATT
         POIN2  ChasmCave_6_26
// 072   ----------------------------------------
        BYTE   PATT
         POIN2  ChasmCave_6_27
// 073   ----------------------------------------
        BYTE   PATT
         POIN2  ChasmCave_6_28
// 074   ----------------------------------------
        BYTE   PATT
         POIN2  ChasmCave_6_29
// 075   ----------------------------------------
        BYTE   PATT
         POIN2  ChasmCave_6_30
// 076   ----------------------------------------
        BYTE   PATT
         POIN2  ChasmCave_6_31
// 077   ----------------------------------------
        BYTE   PATT
         POIN2  ChasmCave_6_32
// 078   ----------------------------------------
        BYTE   PATT
         POIN2  ChasmCave_6_33
// 079   ----------------------------------------
        BYTE   PATT
         POIN2  ChasmCave_6_34
// 080   ----------------------------------------
        BYTE   PATT
         POIN2  ChasmCave_6_35
// 081   ----------------------------------------
        BYTE   PATT
         POIN2  ChasmCave_6_36
// 082   ----------------------------------------
        BYTE   PATT
         POIN2  ChasmCave_6_37
// 083   ----------------------------------------
        BYTE   W96
// 084   ----------------------------------------
        BYTE   W96
// 085   ----------------------------------------
        BYTE   W96
// 086   ----------------------------------------
        BYTE   W96
// 087   ----------------------------------------
        BYTE   W96
// 088   ----------------------------------------
        BYTE   W96
// 089   ----------------------------------------
        BYTE   W96
// 090   ----------------------------------------
        BYTE   W96
// 091   ----------------------------------------
        BYTE   GoTo
         POIN2  ChasmCave_6_LOOP
        BYTE   FINE

//****************** Track 7 (Midi-Chn.7) ******************//

ChasmCave_7:
        BYTE   KEYSH   ChasmCave_key+0
// 000   ----------------------------------------
        BYTE   W24
// 001   ----------------------------------------
        BYTE           VOL     65
        BYTE           VOICE   68
        BYTE   W72
        BYTE           N12     An2   v127
        BYTE   W24
// 002   ----------------------------------------
        BYTE           TIE     En3
        BYTE   W96
// 003   ----------------------------------------
ChasmCave_7_3:
        BYTE   W16
        BYTE           VOL     64
        BYTE   W02
        BYTE                   63
        BYTE   W06
        BYTE                   62
        BYTE   W03
        BYTE                   61
        BYTE   W03
        BYTE                   60
        BYTE   W04
        BYTE                   58
        BYTE   W03
        BYTE                   57
        BYTE   W02
        BYTE                   56
        BYTE   W03
        BYTE                   54
        BYTE   W03
        BYTE                   53
        BYTE   W01
        BYTE                   52
        BYTE   W02
        BYTE                   51
        BYTE   W01
        BYTE                   50
        BYTE   W02
        BYTE                   49
        BYTE   W01
        BYTE                   48
        BYTE   W02
        BYTE                   47
        BYTE   W01
        BYTE                   45
        BYTE   W02
        BYTE                   44
        BYTE   W01
        BYTE                   43
        BYTE   W02
        BYTE                   42
        BYTE   W01
        BYTE                   41
        BYTE   W02
        BYTE                   39
        BYTE   W01
        BYTE                   38
        BYTE   W02
        BYTE                   37
        BYTE   W01
        BYTE                   35
        BYTE   W02
        BYTE                   34
        BYTE   W01
        BYTE                   32
        BYTE   W02
        BYTE                   31
        BYTE   W01
        BYTE                   29
        BYTE   W02
        BYTE                   27
        BYTE   W03
        BYTE                   24
        BYTE   W01
        BYTE                   23
        BYTE   W02
        BYTE                   22
        BYTE   W01
        BYTE                   19
        BYTE   W02
        BYTE           EOT     En3
        BYTE           VOL     17
        BYTE   W01
        BYTE                   16
        BYTE   W02
        BYTE                   14
        BYTE   W01
        BYTE                   12
        BYTE   W02
        BYTE                   10
        BYTE   W01
        BYTE                   5
        BYTE   W02
        BYTE                   6
        BYTE   W03
        BYTE   PEND
// 004   ----------------------------------------
ChasmCave_7_4:
        BYTE   W04
        BYTE           VOL     27
        BYTE   W44
        BYTE                   65
        BYTE   W24
        BYTE           N12     An2   v127
        BYTE   W24
        BYTE   PEND
// 005   ----------------------------------------
        BYTE           TIE     En3
        BYTE   W96
// 006   ----------------------------------------
ChasmCave_7_6:
        BYTE   W04
        BYTE           VOL     64
        BYTE   W03
        BYTE                   63
        BYTE   W05
        BYTE                   62
        BYTE   W03
        BYTE                   61
        BYTE   W03
        BYTE                   60
        BYTE   W04
        BYTE                   58
        BYTE   W03
        BYTE                   57
        BYTE   W02
        BYTE                   56
        BYTE   W01
        BYTE                   55
        BYTE   W02
        BYTE                   54
        BYTE   W01
        BYTE                   53
        BYTE   W03
        BYTE                   52
        BYTE   W02
        BYTE                   50
        BYTE   W01
        BYTE                   49
        BYTE   W02
        BYTE                   48
        BYTE   W01
        BYTE                   47
        BYTE   W02
        BYTE                   46
        BYTE   W01
        BYTE                   44
        BYTE   W02
        BYTE                   43
        BYTE   W01
        BYTE                   42
        BYTE   W02
        BYTE                   40
        BYTE   W01
        BYTE                   39
        BYTE   W02
        BYTE                   38
        BYTE   W01
        BYTE                   36
        BYTE   W02
        BYTE                   35
        BYTE   W01
        BYTE                   33
        BYTE   W02
        BYTE                   32
        BYTE   W01
        BYTE                   30
        BYTE   W02
        BYTE                   28
        BYTE   W01
        BYTE                   27
        BYTE   W02
        BYTE                   25
        BYTE   W01
        BYTE                   23
        BYTE   W02
        BYTE                   22
        BYTE   W01
        BYTE                   19
        BYTE   W02
        BYTE                   17
        BYTE   W01
        BYTE                   15
        BYTE   W02
        BYTE                   14
        BYTE   W01
        BYTE                   11
        BYTE   W02
        BYTE                   9
        BYTE   W09
        BYTE           EOT     En3
        BYTE   W12
        BYTE   PEND
// 007   ----------------------------------------
        BYTE   W96
// 008   ----------------------------------------
        BYTE   W96
// 009   ----------------------------------------
        BYTE   W96
// 010   ----------------------------------------
        BYTE   W96
// 011   ----------------------------------------
        BYTE   W96
// 012   ----------------------------------------
        BYTE   W96
// 013   ----------------------------------------
        BYTE   W96
// 014   ----------------------------------------
        BYTE   W96
// 015   ----------------------------------------
        BYTE   W96
// 016   ----------------------------------------
        BYTE   W96
// 017   ----------------------------------------
        BYTE   W96
// 018   ----------------------------------------
        BYTE   W24
        BYTE           VOL     65
        BYTE   W72
// 019   ----------------------------------------
ChasmCave_7_19:
        BYTE           N44     Fn3   v127   gtp1
        BYTE   W30
        BYTE           VOL     64
        BYTE   W01
        BYTE                   63
        BYTE   W02
        BYTE                   62
        BYTE   W01
        BYTE                   60
        BYTE   W02
        BYTE                   59
        BYTE   W01
        BYTE                   57
        BYTE   W02
        BYTE                   54
        BYTE   W01
        BYTE                   52
        BYTE   W02
        BYTE                   49
        BYTE   W01
        BYTE                   46
        BYTE   W02
        BYTE                   43
        BYTE   W03
        BYTE                   54
        BYTE           N09     Gn3
        BYTE   W04
        BYTE           VOL     55
        BYTE   W02
        BYTE                   56
        BYTE   W04
        BYTE                   57
        BYTE   W02
        BYTE           N09     Gs3
        BYTE   W01
        BYTE           VOL     58
        BYTE   W02
        BYTE                   60
        BYTE   W03
        BYTE                   61
        BYTE   W01
        BYTE                   62
        BYTE   W02
        BYTE                   65
        BYTE   W03
        BYTE           N44     As3   v127   gtp1
        BYTE   W24
        BYTE   PEND
// 020   ----------------------------------------
ChasmCave_7_20:
        BYTE   W04
        BYTE           VOL     64
        BYTE   W02
        BYTE                   63
        BYTE   W03
        BYTE                   62
        BYTE   W01
        BYTE                   61
        BYTE   W02
        BYTE                   60
        BYTE   W01
        BYTE                   59
        BYTE   W02
        BYTE                   58
        BYTE   W01
        BYTE                   56
        BYTE   W02
        BYTE                   54
        BYTE   W01
        BYTE                   53
        BYTE   W02
        BYTE                   50
        BYTE   W01
        BYTE                   49
        BYTE   W02
        BYTE                   60
        BYTE           N09     Gs3   v127
        BYTE   W12
        BYTE                   Gn3
        BYTE   W01
        BYTE           VOL     59
        BYTE   W02
        BYTE                   60
        BYTE   W04
        BYTE                   61
        BYTE   W03
        BYTE                   62
        BYTE   W02
        BYTE                   64
        BYTE           N44     Fn3   v127   gtp1
        BYTE   W30
        BYTE           VOL     63
        BYTE   W04
        BYTE                   62
        BYTE   W02
        BYTE                   61
        BYTE   W01
        BYTE                   60
        BYTE   W02
        BYTE                   57
        BYTE   W01
        BYTE                   55
        BYTE   W02
        BYTE                   53
        BYTE   W01
        BYTE                   49
        BYTE   W02
        BYTE                   46
        BYTE   W01
        BYTE                   43
        BYTE   W02
        BYTE   PEND
// 021   ----------------------------------------
ChasmCave_7_21:
        BYTE           VOL     54
        BYTE           N09     Gn3   v127
        BYTE   W06
        BYTE           VOL     55
        BYTE   W03
        BYTE                   56
        BYTE   W03
        BYTE                   57
        BYTE           N09     Gs3
        BYTE   W01
        BYTE           VOL     58
        BYTE   W03
        BYTE                   60
        BYTE   W03
        BYTE                   61
        BYTE   W02
        BYTE                   63
        BYTE   W01
        BYTE                   64
        BYTE   W02
        BYTE           N21     As3
        BYTE   W24
        BYTE                   Cn4
        BYTE   W13
        BYTE           VOL     63
        BYTE   W11
        BYTE                   62
        BYTE           N21     Gs3
        BYTE   W07
        BYTE           VOL     61
        BYTE   W05
        BYTE                   60
        BYTE   W06
        BYTE                   59
        BYTE   W03
        BYTE                   58
        BYTE   W01
        BYTE                   57
        BYTE   W02
        BYTE   PEND
// 022   ----------------------------------------
ChasmCave_7_22:
        BYTE           N21     As3   v127
        BYTE   W04
        BYTE           VOL     58
        BYTE   W06
        BYTE                   59
        BYTE   W02
        BYTE                   60
        BYTE   W06
        BYTE                   61
        BYTE   W01
        BYTE                   62
        BYTE   W03
        BYTE                   63
        BYTE   W02
        BYTE           N21     Cn4
        BYTE   W01
        BYTE           VOL     65
        BYTE   W23
        BYTE           N21     Dn4
        BYTE   W24
        BYTE           N44     Ds4   v127   gtp1
        BYTE   W24
        BYTE   PEND
// 023   ----------------------------------------
ChasmCave_7_23:
        BYTE   W01
        BYTE           VOL     64
        BYTE   W02
        BYTE                   63
        BYTE   W01
        BYTE                   62
        BYTE   W02
        BYTE                   61
        BYTE   W01
        BYTE                   60
        BYTE   W02
        BYTE                   57
        BYTE   W01
        BYTE                   55
        BYTE   W02
        BYTE                   53
        BYTE   W01
        BYTE                   50
        BYTE   W02
        BYTE                   47
        BYTE   W01
        BYTE                   43
        BYTE   W02
        BYTE                   40
        BYTE   W01
        BYTE                   36
        BYTE   W05
        BYTE                   50
        BYTE           N09     Dn4   v127
        BYTE   W06
        BYTE           VOL     51
        BYTE   W01
        BYTE                   52
        BYTE   W02
        BYTE                   53
        BYTE   W03
        BYTE                   54
        BYTE           N09     Cn4
        BYTE   W01
        BYTE           VOL     55
        BYTE   W02
        BYTE                   56
        BYTE   W01
        BYTE                   57
        BYTE   W02
        BYTE                   59
        BYTE   W01
        BYTE                   60
        BYTE   W02
        BYTE                   62
        BYTE   W01
        BYTE                   65
        BYTE   W02
        BYTE           N44     As3   v127   gtp1
        BYTE   W03
        BYTE           VOL     64
        BYTE   W03
        BYTE                   63
        BYTE   W01
        BYTE                   61
        BYTE   W02
        BYTE                   59
        BYTE   W01
        BYTE                   56
        BYTE   W02
        BYTE                   53
        BYTE   W01
        BYTE                   46
        BYTE   W05
        BYTE                   47
        BYTE   W03
        BYTE                   48
        BYTE   W01
        BYTE                   49
        BYTE   W03
        BYTE                   50
        BYTE   W02
        BYTE                   52
        BYTE   W01
        BYTE                   54
        BYTE   W02
        BYTE                   55
        BYTE   W01
        BYTE                   57
        BYTE   W02
        BYTE                   59
        BYTE   W01
        BYTE                   61
        BYTE   W02
        BYTE                   63
        BYTE   W01
        BYTE                   65
        BYTE   W11
        BYTE   PEND
// 024   ----------------------------------------
ChasmCave_7_24:
        BYTE           N09     Gs3   v127
        BYTE   W12
        BYTE                   As3
        BYTE   W12
        BYTE           N72     Gn3
        BYTE   W01
        BYTE           VOL     63
        BYTE   W03
        BYTE                   62
        BYTE   W02
        BYTE                   61
        BYTE   W01
        BYTE                   60
        BYTE   W02
        BYTE                   57
        BYTE   W01
        BYTE                   54
        BYTE   W02
        BYTE                   48
        BYTE   W03
        BYTE                   49
        BYTE   W06
        BYTE                   50
        BYTE   W01
        BYTE                   51
        BYTE   W02
        BYTE                   52
        BYTE   W01
        BYTE                   53
        BYTE   W02
        BYTE                   54
        BYTE   W01
        BYTE                   55
        BYTE   W02
        BYTE                   57
        BYTE   W01
        BYTE                   58
        BYTE   W02
        BYTE                   60
        BYTE   W01
        BYTE                   61
        BYTE   W02
        BYTE                   65
        BYTE   W16
        BYTE                   64
        BYTE   W02
        BYTE                   63
        BYTE   W01
        BYTE                   62
        BYTE   W02
        BYTE                   61
        BYTE   W01
        BYTE                   59
        BYTE   W02
        BYTE                   57
        BYTE   W01
        BYTE                   54
        BYTE   W02
        BYTE                   50
        BYTE   W01
        BYTE                   47
        BYTE   W02
        BYTE                   43
        BYTE   W01
        BYTE                   38
        BYTE   W02
        BYTE                   33
        BYTE   W01
        BYTE                   28
        BYTE   W02
        BYTE   PEND
// 025   ----------------------------------------
ChasmCave_7_25:
        BYTE           VOL     22
        BYTE   W01
        BYTE                   16
        BYTE   W02
        BYTE                   10
        BYTE   W92
        BYTE   W01
        BYTE   PEND
// 026   ----------------------------------------
        BYTE   W96
// 027   ----------------------------------------
        BYTE   W96
// 028   ----------------------------------------
        BYTE   W96
// 029   ----------------------------------------
        BYTE   W96
// 030   ----------------------------------------
        BYTE   W90
        BYTE                   65
        BYTE   W06
// 031   ----------------------------------------
ChasmCave_7_31:
        BYTE           N48     Cn3   v127
        BYTE   W30
        BYTE   W01
        BYTE           VOL     64
        BYTE   W02
        BYTE                   63
        BYTE   W01
        BYTE                   61
        BYTE   W02
        BYTE                   60
        BYTE   W01
        BYTE                   58
        BYTE   W02
        BYTE                   55
        BYTE   W01
        BYTE                   53
        BYTE   W02
        BYTE                   49
        BYTE   W01
        BYTE                   46
        BYTE   W02
        BYTE                   43
        BYTE   W01
        BYTE                   39
        BYTE   W02
        BYTE                   54
        BYTE           N12     As2
        BYTE   W06
        BYTE           VOL     55
        BYTE   W01
        BYTE                   56
        BYTE   W02
        BYTE                   57
        BYTE   W01
        BYTE                   58
        BYTE   W02
        BYTE                   59
        BYTE           N12     Dn3
        BYTE   W01
        BYTE           VOL     60
        BYTE   W02
        BYTE                   62
        BYTE   W01
        BYTE                   65
        BYTE   W08
        BYTE           N72     Cn3
        BYTE   W04
        BYTE           VOL     64
        BYTE   W02
        BYTE                   63
        BYTE   W01
        BYTE                   61
        BYTE   W02
        BYTE                   60
        BYTE   W01
        BYTE                   57
        BYTE   W02
        BYTE                   54
        BYTE   W01
        BYTE                   50
        BYTE   W02
        BYTE                   42
        BYTE   W01
        BYTE                   43
        BYTE   W05
        BYTE                   44
        BYTE   W03
        BYTE   PEND
// 032   ----------------------------------------
ChasmCave_7_32:
        BYTE   W01
        BYTE           VOL     45
        BYTE   W02
        BYTE                   46
        BYTE   W01
        BYTE                   47
        BYTE   W02
        BYTE                   48
        BYTE   W01
        BYTE                   49
        BYTE   W02
        BYTE                   50
        BYTE   W01
        BYTE                   52
        BYTE   W02
        BYTE                   53
        BYTE   W01
        BYTE                   54
        BYTE   W02
        BYTE                   57
        BYTE   W01
        BYTE                   58
        BYTE   W02
        BYTE                   60
        BYTE   W01
        BYTE                   62
        BYTE   W03
        BYTE                   65
        BYTE   W03
        BYTE                   64
        BYTE   W02
        BYTE                   63
        BYTE   W01
        BYTE                   62
        BYTE   W02
        BYTE                   61
        BYTE   W01
        BYTE                   59
        BYTE   W02
        BYTE                   57
        BYTE   W01
        BYTE                   54
        BYTE   W02
        BYTE                   52
        BYTE   W01
        BYTE                   49
        BYTE   W02
        BYTE                   46
        BYTE   W01
        BYTE                   43
        BYTE   W02
        BYTE                   39
        BYTE   W01
        BYTE                   35
        BYTE   W02
        BYTE                   31
        BYTE   W01
        BYTE                   26
        BYTE   W48
        BYTE   W02
        BYTE   PEND
// 033   ----------------------------------------
        BYTE   W96
// 034   ----------------------------------------
        BYTE   W96
// 035   ----------------------------------------
        BYTE   W96
// 036   ----------------------------------------
        BYTE   W96
// 037   ----------------------------------------
        BYTE   W96
// 038   ----------------------------------------
        BYTE   W96
// 039   ----------------------------------------
        BYTE   W96
// 040   ----------------------------------------
        BYTE   W96
// 041   ----------------------------------------
        BYTE   W96
// 042   ----------------------------------------
        BYTE   W96
// 043   ----------------------------------------
        BYTE   W96
// 044   ----------------------------------------
        BYTE   W96
// 045   ----------------------------------------
        BYTE   W96
// 046   ----------------------------------------
ChasmCave_7_LOOP:
        BYTE   W48
        BYTE           VOL     65
        BYTE   W24
        BYTE           N12     An2   v127
        BYTE   W24
// 047   ----------------------------------------
        BYTE           TIE     En3
        BYTE   W96
// 048   ----------------------------------------
        BYTE   PATT
         POIN2  ChasmCave_7_3
// 049   ----------------------------------------
        BYTE   PATT
         POIN2  ChasmCave_7_4
// 050   ----------------------------------------
        BYTE           TIE     En3   v127
        BYTE   W96
// 051   ----------------------------------------
        BYTE   PATT
         POIN2  ChasmCave_7_6
// 052   ----------------------------------------
        BYTE   W96
// 053   ----------------------------------------
        BYTE   W96
// 054   ----------------------------------------
        BYTE   W96
// 055   ----------------------------------------
        BYTE   W96
// 056   ----------------------------------------
        BYTE   W96
// 057   ----------------------------------------
        BYTE   W96
// 058   ----------------------------------------
        BYTE   W96
// 059   ----------------------------------------
        BYTE   W96
// 060   ----------------------------------------
        BYTE   W96
// 061   ----------------------------------------
        BYTE   W96
// 062   ----------------------------------------
        BYTE   W96
// 063   ----------------------------------------
        BYTE   W24
        BYTE           VOL     65
        BYTE   W72
// 064   ----------------------------------------
        BYTE   PATT
         POIN2  ChasmCave_7_19
// 065   ----------------------------------------
        BYTE   PATT
         POIN2  ChasmCave_7_20
// 066   ----------------------------------------
        BYTE   PATT
         POIN2  ChasmCave_7_21
// 067   ----------------------------------------
        BYTE   PATT
         POIN2  ChasmCave_7_22
// 068   ----------------------------------------
        BYTE   PATT
         POIN2  ChasmCave_7_23
// 069   ----------------------------------------
        BYTE   PATT
         POIN2  ChasmCave_7_24
// 070   ----------------------------------------
        BYTE   PATT
         POIN2  ChasmCave_7_25
// 071   ----------------------------------------
        BYTE   W96
// 072   ----------------------------------------
        BYTE   W96
// 073   ----------------------------------------
        BYTE   W96
// 074   ----------------------------------------
        BYTE   W96
// 075   ----------------------------------------
        BYTE   W90
        BYTE           VOL     65
        BYTE   W06
// 076   ----------------------------------------
        BYTE   PATT
         POIN2  ChasmCave_7_31
// 077   ----------------------------------------
        BYTE   PATT
         POIN2  ChasmCave_7_32
// 078   ----------------------------------------
        BYTE   W96
// 079   ----------------------------------------
        BYTE   W96
// 080   ----------------------------------------
        BYTE   W96
// 081   ----------------------------------------
        BYTE   W96
// 082   ----------------------------------------
        BYTE   W96
// 083   ----------------------------------------
        BYTE   W96
// 084   ----------------------------------------
        BYTE   W96
// 085   ----------------------------------------
        BYTE   W96
// 086   ----------------------------------------
        BYTE   W96
// 087   ----------------------------------------
        BYTE   W96
// 088   ----------------------------------------
        BYTE   W96
// 089   ----------------------------------------
        BYTE   W96
// 090   ----------------------------------------
        BYTE   W96
// 091   ----------------------------------------
        BYTE   GoTo
         POIN2  ChasmCave_7_LOOP
        BYTE   FINE

//****************** Track 8 (Midi-Chn.8) ******************//

ChasmCave_8:
        BYTE   KEYSH   ChasmCave_key+0
// 000   ----------------------------------------
        BYTE   W24
// 001   ----------------------------------------
        BYTE           PAN     c_v-64
        BYTE           VOL     33
        BYTE           VOICE   68
        BYTE   W84
        BYTE           N12     An2   v127
        BYTE   W12
// 002   ----------------------------------------
        BYTE   W12
        BYTE           TIE     En3
        BYTE   W84
// 003   ----------------------------------------
ChasmCave_8_3:
        BYTE   W24
        BYTE           VOL     32
        BYTE   W09
        BYTE                   31
        BYTE   W07
        BYTE                   30
        BYTE   W06
        BYTE                   29
        BYTE   W05
        BYTE                   28
        BYTE   W03
        BYTE                   27
        BYTE   W04
        BYTE                   26
        BYTE   W03
        BYTE                   25
        BYTE   W02
        BYTE                   24
        BYTE   W04
        BYTE                   23
        BYTE   W02
        BYTE                   22
        BYTE   W03
        BYTE                   21
        BYTE   W01
        BYTE                   20
        BYTE   W03
        BYTE                   19
        BYTE   W02
        BYTE                   18
        BYTE   W03
        BYTE                   17
        BYTE   W01
        BYTE                   16
        BYTE   W03
        BYTE                   15
        BYTE   W02
        BYTE                   14
        BYTE   W01
        BYTE                   13
        BYTE   W02
        BYTE                   12
        BYTE   W01
        BYTE                   11
        BYTE   W03
        BYTE                   10
        BYTE   W02
        BYTE   PEND
// 004   ----------------------------------------
ChasmCave_8_4:
        BYTE           EOT     En3
        BYTE           VOL     9
        BYTE   W01
        BYTE                   8
        BYTE   W02
        BYTE                   7
        BYTE   W01
        BYTE                   6
        BYTE   W02
        BYTE                   5
        BYTE   W01
        BYTE                   3
        BYTE   W09
        BYTE                   13
        BYTE   W44
        BYTE                   33
        BYTE   W24
        BYTE           N12     An2   v127
        BYTE   W12
        BYTE   PEND
// 005   ----------------------------------------
        BYTE   W12
        BYTE           TIE     En3
        BYTE   W84
// 006   ----------------------------------------
ChasmCave_8_6:
        BYTE   W13
        BYTE           VOL     32
        BYTE   W09
        BYTE                   31
        BYTE   W06
        BYTE                   30
        BYTE   W06
        BYTE                   29
        BYTE   W03
        BYTE                   28
        BYTE   W03
        BYTE                   27
        BYTE   W05
        BYTE                   26
        BYTE   W03
        BYTE                   25
        BYTE   W03
        BYTE                   24
        BYTE   W03
        BYTE                   23
        BYTE   W01
        BYTE                   22
        BYTE   W03
        BYTE                   21
        BYTE   W02
        BYTE                   20
        BYTE   W03
        BYTE                   19
        BYTE   W01
        BYTE                   18
        BYTE   W02
        BYTE                   17
        BYTE   W01
        BYTE                   16
        BYTE   W03
        BYTE                   15
        BYTE   W02
        BYTE                   14
        BYTE   W01
        BYTE                   13
        BYTE   W02
        BYTE                   12
        BYTE   W01
        BYTE                   11
        BYTE   W03
        BYTE                   10
        BYTE   W02
        BYTE                   9
        BYTE   W01
        BYTE                   8
        BYTE   W02
        BYTE                   7
        BYTE   W01
        BYTE                   5
        BYTE   W11
        BYTE   PEND
// 007   ----------------------------------------
        BYTE           EOT     En3
        BYTE   W96
// 008   ----------------------------------------
        BYTE   W96
// 009   ----------------------------------------
        BYTE   W96
// 010   ----------------------------------------
        BYTE   W96
// 011   ----------------------------------------
        BYTE   W96
// 012   ----------------------------------------
        BYTE   W96
// 013   ----------------------------------------
        BYTE   W96
// 014   ----------------------------------------
        BYTE   W96
// 015   ----------------------------------------
        BYTE   W96
// 016   ----------------------------------------
        BYTE   W96
// 017   ----------------------------------------
        BYTE   W96
// 018   ----------------------------------------
        BYTE   W36
        BYTE           VOL     33
        BYTE   W60
// 019   ----------------------------------------
ChasmCave_8_19:
        BYTE   W12
        BYTE           N44     Fn3   v127   gtp1
        BYTE   W28
        BYTE           VOL     32
        BYTE   W03
        BYTE                   31
        BYTE   W03
        BYTE                   30
        BYTE   W02
        BYTE                   29
        BYTE   W01
        BYTE                   28
        BYTE   W02
        BYTE                   27
        BYTE   W01
        BYTE                   26
        BYTE   W02
        BYTE                   25
        BYTE   W01
        BYTE                   23
        BYTE   W02
        BYTE                   22
        BYTE   W03
        BYTE                   27
        BYTE           N09     Gn3
        BYTE   W06
        BYTE           VOL     28
        BYTE   W06
        BYTE                   29
        BYTE           N09     Gs3
        BYTE   W03
        BYTE           VOL     30
        BYTE   W04
        BYTE                   31
        BYTE   W02
        BYTE                   32
        BYTE   W03
        BYTE           N44     As3   v127   gtp1
        BYTE   W12
        BYTE   PEND
// 020   ----------------------------------------
ChasmCave_8_20:
        BYTE   W12
        BYTE           VOL     33
        BYTE   W03
        BYTE                   32
        BYTE   W04
        BYTE                   31
        BYTE   W05
        BYTE                   30
        BYTE   W01
        BYTE                   29
        BYTE   W03
        BYTE                   28
        BYTE   W02
        BYTE                   27
        BYTE   W01
        BYTE                   26
        BYTE   W02
        BYTE                   25
        BYTE   W01
        BYTE                   24
        BYTE   W02
        BYTE                   30
        BYTE           N09     Gs3   v127
        BYTE   W12
        BYTE                   Gn3
        BYTE   W01
        BYTE           VOL     29
        BYTE   W02
        BYTE                   30
        BYTE   W06
        BYTE                   31
        BYTE   W03
        BYTE                   32
        BYTE           N44     Fn3   v127   gtp1
        BYTE   W32
        BYTE   W01
        BYTE           VOL     31
        BYTE   W03
        BYTE   PEND
// 021   ----------------------------------------
ChasmCave_8_21:
        BYTE           VOL     30
        BYTE   W03
        BYTE                   29
        BYTE   W01
        BYTE                   27
        BYTE   W02
        BYTE                   26
        BYTE   W01
        BYTE                   25
        BYTE   W02
        BYTE                   23
        BYTE   W01
        BYTE                   22
        BYTE   W02
        BYTE                   27
        BYTE           N09     Gn3   v127
        BYTE   W09
        BYTE           VOL     28
        BYTE   W03
        BYTE                   29
        BYTE           N09     Gs3
        BYTE   W04
        BYTE           VOL     30
        BYTE   W03
        BYTE                   31
        BYTE   W03
        BYTE                   32
        BYTE   W02
        BYTE           N21     As3
        BYTE   W24
        BYTE                   Cn4
        BYTE   W21
        BYTE           VOL     31
        BYTE   W03
        BYTE           N21     Gs3
        BYTE   W09
        BYTE           VOL     30
        BYTE   W03
        BYTE   PEND
// 022   ----------------------------------------
ChasmCave_8_22:
        BYTE   W06
        BYTE           VOL     29
        BYTE   W06
        BYTE           N21     As3   v127
        BYTE   W12
        BYTE           VOL     30
        BYTE   W07
        BYTE                   31
        BYTE   W05
        BYTE                   32
        BYTE           N21     Cn4
        BYTE   W24
        BYTE                   Dn4
        BYTE   W24
        BYTE           N44     Ds4   v127   gtp1
        BYTE   W12
        BYTE   PEND
// 023   ----------------------------------------
ChasmCave_8_23:
        BYTE   W15
        BYTE           VOL     31
        BYTE   W03
        BYTE                   30
        BYTE   W03
        BYTE                   29
        BYTE   W01
        BYTE                   27
        BYTE   W02
        BYTE                   26
        BYTE   W01
        BYTE                   25
        BYTE   W02
        BYTE                   24
        BYTE   W01
        BYTE                   22
        BYTE   W02
        BYTE                   20
        BYTE   W01
        BYTE                   18
        BYTE   W05
        BYTE                   25
        BYTE           N09     Dn4   v127
        BYTE   W06
        BYTE           VOL     26
        BYTE   W04
        BYTE                   27
        BYTE   W02
        BYTE           N09     Cn4
        BYTE   W03
        BYTE           VOL     28
        BYTE   W01
        BYTE                   29
        BYTE   W03
        BYTE                   30
        BYTE   W02
        BYTE                   31
        BYTE   W01
        BYTE                   33
        BYTE   W02
        BYTE           N44     As3   v127   gtp1
        BYTE   W03
        BYTE           VOL     32
        BYTE   W03
        BYTE                   31
        BYTE   W03
        BYTE                   29
        BYTE   W01
        BYTE                   28
        BYTE   W02
        BYTE                   26
        BYTE   W01
        BYTE                   23
        BYTE   W05
        BYTE                   24
        BYTE   W06
        BYTE                   25
        BYTE   W03
        BYTE                   26
        BYTE   W01
        BYTE                   27
        BYTE   W03
        BYTE                   28
        BYTE   W02
        BYTE                   29
        BYTE   W01
        BYTE                   30
        BYTE   W02
        BYTE   PEND
// 024   ----------------------------------------
ChasmCave_8_24:
        BYTE           VOL     31
        BYTE   W01
        BYTE                   33
        BYTE   W11
        BYTE           N09     Gs3   v127
        BYTE   W12
        BYTE                   As3
        BYTE   W12
        BYTE           N72     Gn3
        BYTE   W01
        BYTE           VOL     32
        BYTE   W03
        BYTE                   31
        BYTE   W02
        BYTE                   30
        BYTE   W03
        BYTE                   28
        BYTE   W01
        BYTE                   27
        BYTE   W02
        BYTE                   24
        BYTE   W07
        BYTE                   25
        BYTE   W03
        BYTE                   26
        BYTE   W03
        BYTE                   27
        BYTE   W05
        BYTE                   28
        BYTE   W01
        BYTE                   29
        BYTE   W02
        BYTE                   30
        BYTE   W01
        BYTE                   31
        BYTE   W02
        BYTE                   33
        BYTE   W15
        BYTE                   32
        BYTE   W04
        BYTE                   31
        BYTE   W02
        BYTE                   30
        BYTE   W01
        BYTE                   29
        BYTE   W02
        BYTE   PEND
// 025   ----------------------------------------
ChasmCave_8_25:
        BYTE           VOL     28
        BYTE   W01
        BYTE                   27
        BYTE   W02
        BYTE                   25
        BYTE   W01
        BYTE                   24
        BYTE   W02
        BYTE                   22
        BYTE   W01
        BYTE                   19
        BYTE   W02
        BYTE                   17
        BYTE   W01
        BYTE                   14
        BYTE   W02
        BYTE                   11
        BYTE   W01
        BYTE                   8
        BYTE   W02
        BYTE                   5
        BYTE   W80
        BYTE   W01
        BYTE   PEND
// 026   ----------------------------------------
        BYTE   W96
// 027   ----------------------------------------
        BYTE   W96
// 028   ----------------------------------------
        BYTE   W96
// 029   ----------------------------------------
        BYTE   W96
// 030   ----------------------------------------
        BYTE   W96
// 031   ----------------------------------------
ChasmCave_8_31:
        BYTE   W06
        BYTE           VOL     33
        BYTE   W06
        BYTE           N48     Cn3   v127
        BYTE   W30
        BYTE   W01
        BYTE           VOL     32
        BYTE   W02
        BYTE                   31
        BYTE   W03
        BYTE                   30
        BYTE   W01
        BYTE                   29
        BYTE   W02
        BYTE                   27
        BYTE   W01
        BYTE                   26
        BYTE   W02
        BYTE                   25
        BYTE   W01
        BYTE                   23
        BYTE   W02
        BYTE                   22
        BYTE   W01
        BYTE                   19
        BYTE   W02
        BYTE                   27
        BYTE           N12     As2
        BYTE   W07
        BYTE           VOL     28
        BYTE   W03
        BYTE                   29
        BYTE   W02
        BYTE           N12     Dn3
        BYTE   W01
        BYTE           VOL     30
        BYTE   W02
        BYTE                   31
        BYTE   W01
        BYTE                   33
        BYTE   W08
        BYTE           N72     Cn3
        BYTE   W04
        BYTE           VOL     32
        BYTE   W02
        BYTE                   31
        BYTE   W03
        BYTE                   30
        BYTE   W01
        BYTE                   28
        BYTE   W02
        BYTE   PEND
// 032   ----------------------------------------
ChasmCave_8_32:
        BYTE           VOL     27
        BYTE   W01
        BYTE                   25
        BYTE   W02
        BYTE                   21
        BYTE   W01
        BYTE                   22
        BYTE   W09
        BYTE                   23
        BYTE   W03
        BYTE                   24
        BYTE   W05
        BYTE                   25
        BYTE   W01
        BYTE                   26
        BYTE   W02
        BYTE                   27
        BYTE   W03
        BYTE                   28
        BYTE   W01
        BYTE                   29
        BYTE   W02
        BYTE                   30
        BYTE   W01
        BYTE                   31
        BYTE   W03
        BYTE                   32
        BYTE   W05
        BYTE                   31
        BYTE   W03
        BYTE                   30
        BYTE   W01
        BYTE                   29
        BYTE   W03
        BYTE                   27
        BYTE   W02
        BYTE                   26
        BYTE   W01
        BYTE                   25
        BYTE   W02
        BYTE                   23
        BYTE   W01
        BYTE                   22
        BYTE   W02
        BYTE                   19
        BYTE   W01
        BYTE                   17
        BYTE   W02
        BYTE                   15
        BYTE   W01
        BYTE                   13
        BYTE   W36
        BYTE   W02
        BYTE   PEND
// 033   ----------------------------------------
        BYTE   W96
// 034   ----------------------------------------
        BYTE   W96
// 035   ----------------------------------------
        BYTE   W96
// 036   ----------------------------------------
        BYTE   W96
// 037   ----------------------------------------
        BYTE   W96
// 038   ----------------------------------------
        BYTE   W96
// 039   ----------------------------------------
        BYTE   W96
// 040   ----------------------------------------
        BYTE   W96
// 041   ----------------------------------------
        BYTE   W96
// 042   ----------------------------------------
        BYTE   W96
// 043   ----------------------------------------
        BYTE   W96
// 044   ----------------------------------------
        BYTE   W96
// 045   ----------------------------------------
        BYTE   W96
// 046   ----------------------------------------
ChasmCave_8_LOOP:
        BYTE   W60
        BYTE           VOL     33
        BYTE   W24
        BYTE           N12     An2   v127
        BYTE   W12
// 047   ----------------------------------------
        BYTE   W12
        BYTE           TIE     En3
        BYTE   W84
// 048   ----------------------------------------
        BYTE   PATT
         POIN2  ChasmCave_8_3
// 049   ----------------------------------------
        BYTE   PATT
         POIN2  ChasmCave_8_4
// 050   ----------------------------------------
        BYTE   W12
        BYTE           TIE     En3   v127
        BYTE   W84
// 051   ----------------------------------------
        BYTE   PATT
         POIN2  ChasmCave_8_6
// 052   ----------------------------------------
        BYTE           EOT     En3
        BYTE   W96
// 053   ----------------------------------------
        BYTE   W96
// 054   ----------------------------------------
        BYTE   W96
// 055   ----------------------------------------
        BYTE   W96
// 056   ----------------------------------------
        BYTE   W96
// 057   ----------------------------------------
        BYTE   W96
// 058   ----------------------------------------
        BYTE   W96
// 059   ----------------------------------------
        BYTE   W96
// 060   ----------------------------------------
        BYTE   W96
// 061   ----------------------------------------
        BYTE   W96
// 062   ----------------------------------------
        BYTE   W96
// 063   ----------------------------------------
        BYTE   W36
        BYTE           VOL     33
        BYTE   W60
// 064   ----------------------------------------
        BYTE   PATT
         POIN2  ChasmCave_8_19
// 065   ----------------------------------------
        BYTE   PATT
         POIN2  ChasmCave_8_20
// 066   ----------------------------------------
        BYTE   PATT
         POIN2  ChasmCave_8_21
// 067   ----------------------------------------
        BYTE   PATT
         POIN2  ChasmCave_8_22
// 068   ----------------------------------------
        BYTE   PATT
         POIN2  ChasmCave_8_23
// 069   ----------------------------------------
        BYTE   PATT
         POIN2  ChasmCave_8_24
// 070   ----------------------------------------
        BYTE   PATT
         POIN2  ChasmCave_8_25
// 071   ----------------------------------------
        BYTE   W96
// 072   ----------------------------------------
        BYTE   W96
// 073   ----------------------------------------
        BYTE   W96
// 074   ----------------------------------------
        BYTE   W96
// 075   ----------------------------------------
        BYTE   W96
// 076   ----------------------------------------
        BYTE   PATT
         POIN2  ChasmCave_8_31
// 077   ----------------------------------------
        BYTE   PATT
         POIN2  ChasmCave_8_32
// 078   ----------------------------------------
        BYTE   W96
// 079   ----------------------------------------
        BYTE   W96
// 080   ----------------------------------------
        BYTE   W96
// 081   ----------------------------------------
        BYTE   W96
// 082   ----------------------------------------
        BYTE   W96
// 083   ----------------------------------------
        BYTE   W96
// 084   ----------------------------------------
        BYTE   W96
// 085   ----------------------------------------
        BYTE   W96
// 086   ----------------------------------------
        BYTE   W96
// 087   ----------------------------------------
        BYTE   W96
// 088   ----------------------------------------
        BYTE   W96
// 089   ----------------------------------------
        BYTE   W96
// 090   ----------------------------------------
        BYTE   W96
// 091   ----------------------------------------
        BYTE   GoTo
         POIN2  ChasmCave_8_LOOP
        BYTE   FINE

//***************** Track 9 (Midi-Chn.10) ******************//

ChasmCave_9:
        BYTE   KEYSH   ChasmCave_key+0
// 000   ----------------------------------------
        BYTE   W24
// 001   ----------------------------------------
        BYTE           PAN     c_v+63
        BYTE           VOL     29
        BYTE           VOICE   68
        BYTE   W96
// 002   ----------------------------------------
ChasmCave_9_2:
        BYTE           N12     An2   v127
        BYTE   W24
        BYTE           TIE     En3
        BYTE   W72
        BYTE   PEND
// 003   ----------------------------------------
ChasmCave_9_3:
        BYTE   W40
        BYTE           VOL     28
        BYTE   W09
        BYTE                   27
        BYTE   W06
        BYTE                   26
        BYTE   W06
        BYTE                   25
        BYTE   W05
        BYTE                   24
        BYTE   W04
        BYTE                   23
        BYTE   W03
        BYTE                   22
        BYTE   W03
        BYTE                   21
        BYTE   W03
        BYTE                   20
        BYTE   W03
        BYTE                   19
        BYTE   W03
        BYTE                   18
        BYTE   W02
        BYTE                   17
        BYTE   W03
        BYTE                   16
        BYTE   W03
        BYTE                   15
        BYTE   W01
        BYTE                   14
        BYTE   W02
        BYTE   PEND
// 004   ----------------------------------------
ChasmCave_9_4:
        BYTE   W01
        BYTE           VOL     13
        BYTE   W02
        BYTE                   12
        BYTE   W03
        BYTE                   11
        BYTE   W01
        BYTE                   10
        BYTE   W03
        BYTE                   9
        BYTE   W02
        BYTE           EOT     En3
        BYTE           VOL     8
        BYTE   W01
        BYTE                   7
        BYTE   W02
        BYTE                   6
        BYTE   W01
        BYTE                   5
        BYTE   W03
        BYTE                   2
        BYTE   W02
        BYTE                   3
        BYTE   W07
        BYTE                   12
        BYTE   W44
        BYTE                   29
        BYTE   W24
        BYTE   PEND
// 005   ----------------------------------------
        BYTE   PATT
         POIN2  ChasmCave_9_2
// 006   ----------------------------------------
ChasmCave_9_6:
        BYTE   W28
        BYTE           VOL     28
        BYTE   W09
        BYTE                   27
        BYTE   W06
        BYTE                   26
        BYTE   W06
        BYTE                   25
        BYTE   W03
        BYTE                   24
        BYTE   W05
        BYTE                   23
        BYTE   W03
        BYTE                   22
        BYTE   W03
        BYTE                   21
        BYTE   W03
        BYTE                   20
        BYTE   W03
        BYTE                   19
        BYTE   W03
        BYTE                   18
        BYTE   W01
        BYTE                   17
        BYTE   W03
        BYTE                   16
        BYTE   W02
        BYTE                   15
        BYTE   W03
        BYTE                   14
        BYTE   W01
        BYTE                   13
        BYTE   W02
        BYTE                   12
        BYTE   W03
        BYTE                   11
        BYTE   W01
        BYTE                   10
        BYTE   W03
        BYTE                   9
        BYTE   W02
        BYTE                   8
        BYTE   W01
        BYTE                   7
        BYTE   W02
        BYTE   PEND
// 007   ----------------------------------------
ChasmCave_9_7:
        BYTE           VOL     6
        BYTE   W01
        BYTE                   5
        BYTE   W02
        BYTE                   4
        BYTE   W09
        BYTE           EOT     En3
        BYTE   W84
        BYTE   PEND
// 008   ----------------------------------------
        BYTE   W96
// 009   ----------------------------------------
        BYTE   W96
// 010   ----------------------------------------
        BYTE   W96
// 011   ----------------------------------------
        BYTE   W96
// 012   ----------------------------------------
        BYTE   W96
// 013   ----------------------------------------
        BYTE   W96
// 014   ----------------------------------------
        BYTE   W96
// 015   ----------------------------------------
        BYTE   W96
// 016   ----------------------------------------
        BYTE   W96
// 017   ----------------------------------------
        BYTE   W96
// 018   ----------------------------------------
        BYTE   W48
        BYTE           VOL     29
        BYTE   W48
// 019   ----------------------------------------
ChasmCave_9_19:
        BYTE   W24
        BYTE           N44     Fn3   v127   gtp1
        BYTE   W30
        BYTE           VOL     28
        BYTE   W03
        BYTE                   27
        BYTE   W03
        BYTE                   26
        BYTE   W01
        BYTE                   25
        BYTE   W02
        BYTE                   24
        BYTE   W01
        BYTE                   23
        BYTE   W02
        BYTE                   22
        BYTE   W01
        BYTE                   21
        BYTE   W02
        BYTE                   19
        BYTE   W03
        BYTE                   24
        BYTE           N09     Gn3
        BYTE   W06
        BYTE           VOL     25
        BYTE   W06
        BYTE           N09     Gs3
        BYTE   W01
        BYTE           VOL     26
        BYTE   W05
        BYTE                   27
        BYTE   W03
        BYTE                   29
        BYTE   W03
        BYTE   PEND
// 020   ----------------------------------------
ChasmCave_9_20:
        BYTE           N44     As3   v127   gtp1
        BYTE   W28
        BYTE           VOL     28
        BYTE   W06
        BYTE                   27
        BYTE   W03
        BYTE                   26
        BYTE   W03
        BYTE                   25
        BYTE   W02
        BYTE                   24
        BYTE   W01
        BYTE                   23
        BYTE   W02
        BYTE                   22
        BYTE   W03
        BYTE                   26
        BYTE           N09     Gs3
        BYTE   W12
        BYTE                   Gn3
        BYTE   W07
        BYTE           VOL     27
        BYTE   W03
        BYTE                   28
        BYTE   W02
        BYTE           N44     Fn3   v127   gtp1
        BYTE   W24
        BYTE   PEND
// 021   ----------------------------------------
ChasmCave_9_21:
        BYTE   W12
        BYTE           VOL     27
        BYTE   W01
        BYTE                   26
        BYTE   W02
        BYTE                   25
        BYTE   W01
        BYTE                   24
        BYTE   W02
        BYTE                   23
        BYTE   W01
        BYTE                   22
        BYTE   W02
        BYTE                   21
        BYTE   W01
        BYTE                   19
        BYTE   W02
        BYTE                   24
        BYTE           N09     Gn3   v127
        BYTE   W09
        BYTE           VOL     25
        BYTE   W03
        BYTE           N09     Gs3
        BYTE   W01
        BYTE           VOL     26
        BYTE   W05
        BYTE                   27
        BYTE   W03
        BYTE                   28
        BYTE   W03
        BYTE           N21     As3
        BYTE   W24
        BYTE                   Cn4
        BYTE   W24
        BYTE   PEND
// 022   ----------------------------------------
ChasmCave_9_22:
        BYTE           N21     Gs3   v127
        BYTE   W04
        BYTE           VOL     27
        BYTE   W11
        BYTE                   26
        BYTE   W07
        BYTE                   25
        BYTE   W02
        BYTE           N21     As3
        BYTE   W04
        BYTE           VOL     26
        BYTE   W12
        BYTE                   27
        BYTE   W05
        BYTE                   28
        BYTE   W03
        BYTE           N21     Cn4
        BYTE   W01
        BYTE           VOL     29
        BYTE   W23
        BYTE           N21     Dn4
        BYTE   W24
        BYTE   PEND
// 023   ----------------------------------------
ChasmCave_9_23:
        BYTE           N44     Ds4   v127   gtp1
        BYTE   W24
        BYTE   W01
        BYTE           VOL     28
        BYTE   W05
        BYTE                   27
        BYTE   W01
        BYTE                   26
        BYTE   W02
        BYTE                   25
        BYTE   W01
        BYTE                   24
        BYTE   W02
        BYTE                   23
        BYTE   W01
        BYTE                   22
        BYTE   W02
        BYTE                   21
        BYTE   W01
        BYTE                   19
        BYTE   W02
        BYTE                   18
        BYTE   W01
        BYTE                   16
        BYTE   W05
        BYTE                   22
        BYTE           N09     Dn4
        BYTE   W06
        BYTE           VOL     23
        BYTE   W04
        BYTE                   24
        BYTE   W02
        BYTE           N09     Cn4
        BYTE   W03
        BYTE           VOL     25
        BYTE   W03
        BYTE                   26
        BYTE   W01
        BYTE                   27
        BYTE   W03
        BYTE                   29
        BYTE   W02
        BYTE           N44     As3   v127   gtp1
        BYTE   W03
        BYTE           VOL     28
        BYTE   W04
        BYTE                   27
        BYTE   W02
        BYTE                   26
        BYTE   W01
        BYTE                   25
        BYTE   W02
        BYTE                   23
        BYTE   W01
        BYTE                   20
        BYTE   W03
        BYTE                   21
        BYTE   W06
        BYTE                   22
        BYTE   W02
        BYTE   PEND
// 024   ----------------------------------------
ChasmCave_9_24:
        BYTE   W03
        BYTE           VOL     23
        BYTE   W01
        BYTE                   24
        BYTE   W03
        BYTE                   25
        BYTE   W02
        BYTE                   26
        BYTE   W01
        BYTE                   27
        BYTE   W02
        BYTE                   28
        BYTE   W01
        BYTE                   29
        BYTE   W11
        BYTE           N09     Gs3   v127
        BYTE   W12
        BYTE                   As3
        BYTE   W12
        BYTE           N72     Gn3
        BYTE   W01
        BYTE           VOL     28
        BYTE   W05
        BYTE                   27
        BYTE   W01
        BYTE                   26
        BYTE   W02
        BYTE                   25
        BYTE   W01
        BYTE                   24
        BYTE   W02
        BYTE                   21
        BYTE   W03
        BYTE                   22
        BYTE   W07
        BYTE                   23
        BYTE   W03
        BYTE                   24
        BYTE   W05
        BYTE                   25
        BYTE   W01
        BYTE                   26
        BYTE   W03
        BYTE                   27
        BYTE   W02
        BYTE                   29
        BYTE   W12
        BYTE   PEND
// 025   ----------------------------------------
ChasmCave_9_25:
        BYTE   W04
        BYTE           VOL     28
        BYTE   W05
        BYTE                   27
        BYTE   W01
        BYTE                   26
        BYTE   W02
        BYTE                   25
        BYTE   W01
        BYTE                   24
        BYTE   W02
        BYTE                   22
        BYTE   W01
        BYTE                   21
        BYTE   W02
        BYTE                   19
        BYTE   W01
        BYTE                   17
        BYTE   W02
        BYTE                   15
        BYTE   W01
        BYTE                   12
        BYTE   W02
        BYTE                   10
        BYTE   W01
        BYTE                   7
        BYTE   W02
        BYTE                   4
        BYTE   W68
        BYTE   W01
        BYTE   PEND
// 026   ----------------------------------------
        BYTE   W96
// 027   ----------------------------------------
        BYTE   W96
// 028   ----------------------------------------
        BYTE   W96
// 029   ----------------------------------------
        BYTE   W96
// 030   ----------------------------------------
        BYTE   W96
// 031   ----------------------------------------
ChasmCave_9_31:
        BYTE   W18
        BYTE           VOL     29
        BYTE   W06
        BYTE           N48     Cn3   v127
        BYTE   W30
        BYTE   W01
        BYTE           VOL     28
        BYTE   W03
        BYTE                   27
        BYTE   W02
        BYTE                   26
        BYTE   W03
        BYTE                   24
        BYTE   W01
        BYTE                   23
        BYTE   W02
        BYTE                   22
        BYTE   W01
        BYTE                   21
        BYTE   W02
        BYTE                   19
        BYTE   W01
        BYTE                   17
        BYTE   W02
        BYTE                   24
        BYTE           N12     As2
        BYTE   W07
        BYTE           VOL     25
        BYTE   W03
        BYTE                   26
        BYTE   W02
        BYTE           N12     Dn3
        BYTE   W01
        BYTE           VOL     27
        BYTE   W03
        BYTE                   29
        BYTE   W08
        BYTE   PEND
// 032   ----------------------------------------
ChasmCave_9_32:
        BYTE           N72     Cn3   v127
        BYTE   W04
        BYTE           VOL     28
        BYTE   W03
        BYTE                   27
        BYTE   W02
        BYTE                   26
        BYTE   W01
        BYTE                   25
        BYTE   W02
        BYTE                   24
        BYTE   W01
        BYTE                   22
        BYTE   W02
        BYTE                   19
        BYTE   W07
        BYTE                   20
        BYTE   W06
        BYTE                   21
        BYTE   W03
        BYTE                   22
        BYTE   W03
        BYTE                   23
        BYTE   W02
        BYTE                   24
        BYTE   W03
        BYTE                   25
        BYTE   W01
        BYTE                   26
        BYTE   W02
        BYTE                   27
        BYTE   W01
        BYTE                   28
        BYTE   W03
        BYTE                   29
        BYTE   W03
        BYTE                   28
        BYTE   W03
        BYTE                   27
        BYTE   W03
        BYTE                   26
        BYTE   W02
        BYTE                   25
        BYTE   W01
        BYTE                   24
        BYTE   W02
        BYTE                   23
        BYTE   W01
        BYTE                   22
        BYTE   W02
        BYTE                   20
        BYTE   W01
        BYTE                   19
        BYTE   W02
        BYTE                   17
        BYTE   W01
        BYTE                   15
        BYTE   W02
        BYTE                   14
        BYTE   W01
        BYTE                   12
        BYTE   W24
        BYTE   W02
        BYTE   PEND
// 033   ----------------------------------------
        BYTE   W96
// 034   ----------------------------------------
        BYTE   W96
// 035   ----------------------------------------
        BYTE   W96
// 036   ----------------------------------------
        BYTE   W96
// 037   ----------------------------------------
        BYTE   W96
// 038   ----------------------------------------
        BYTE   W96
// 039   ----------------------------------------
        BYTE   W96
// 040   ----------------------------------------
        BYTE   W96
// 041   ----------------------------------------
        BYTE   W96
// 042   ----------------------------------------
        BYTE   W96
// 043   ----------------------------------------
        BYTE   W96
// 044   ----------------------------------------
        BYTE   W96
// 045   ----------------------------------------
        BYTE   W96
// 046   ----------------------------------------
ChasmCave_9_LOOP:
        BYTE   W72
        BYTE           VOL     29
        BYTE   W24
// 047   ----------------------------------------
        BYTE   PATT
         POIN2  ChasmCave_9_2
// 048   ----------------------------------------
        BYTE   PATT
         POIN2  ChasmCave_9_3
// 049   ----------------------------------------
        BYTE   PATT
         POIN2  ChasmCave_9_4
// 050   ----------------------------------------
        BYTE   PATT
         POIN2  ChasmCave_9_2
// 051   ----------------------------------------
        BYTE   PATT
         POIN2  ChasmCave_9_6
// 052   ----------------------------------------
        BYTE   PATT
         POIN2  ChasmCave_9_7
// 053   ----------------------------------------
        BYTE   W96
// 054   ----------------------------------------
        BYTE   W96
// 055   ----------------------------------------
        BYTE   W96
// 056   ----------------------------------------
        BYTE   W96
// 057   ----------------------------------------
        BYTE   W96
// 058   ----------------------------------------
        BYTE   W96
// 059   ----------------------------------------
        BYTE   W96
// 060   ----------------------------------------
        BYTE   W96
// 061   ----------------------------------------
        BYTE   W96
// 062   ----------------------------------------
        BYTE   W96
// 063   ----------------------------------------
        BYTE   W48
        BYTE           VOL     29
        BYTE   W48
// 064   ----------------------------------------
        BYTE   PATT
         POIN2  ChasmCave_9_19
// 065   ----------------------------------------
        BYTE   PATT
         POIN2  ChasmCave_9_20
// 066   ----------------------------------------
        BYTE   PATT
         POIN2  ChasmCave_9_21
// 067   ----------------------------------------
        BYTE   PATT
         POIN2  ChasmCave_9_22
// 068   ----------------------------------------
        BYTE   PATT
         POIN2  ChasmCave_9_23
// 069   ----------------------------------------
        BYTE   PATT
         POIN2  ChasmCave_9_24
// 070   ----------------------------------------
        BYTE   PATT
         POIN2  ChasmCave_9_25
// 071   ----------------------------------------
        BYTE   W96
// 072   ----------------------------------------
        BYTE   W96
// 073   ----------------------------------------
        BYTE   W96
// 074   ----------------------------------------
        BYTE   W96
// 075   ----------------------------------------
        BYTE   W96
// 076   ----------------------------------------
        BYTE   PATT
         POIN2  ChasmCave_9_31
// 077   ----------------------------------------
        BYTE   PATT
         POIN2  ChasmCave_9_32
// 078   ----------------------------------------
        BYTE   W96
// 079   ----------------------------------------
        BYTE   W96
// 080   ----------------------------------------
        BYTE   W96
// 081   ----------------------------------------
        BYTE   W96
// 082   ----------------------------------------
        BYTE   W96
// 083   ----------------------------------------
        BYTE   W96
// 084   ----------------------------------------
        BYTE   W96
// 085   ----------------------------------------
        BYTE   W96
// 086   ----------------------------------------
        BYTE   W96
// 087   ----------------------------------------
        BYTE   W96
// 088   ----------------------------------------
        BYTE   W96
// 089   ----------------------------------------
        BYTE   W96
// 090   ----------------------------------------
        BYTE   W96
// 091   ----------------------------------------
        BYTE   GoTo
         POIN2  ChasmCave_9_LOOP
        BYTE   FINE

//***************** Track 10 (Midi-Chn.11) *****************//

ChasmCave_10:
        BYTE   KEYSH   ChasmCave_key+0
// 000   ----------------------------------------
        BYTE   W24
// 001   ----------------------------------------
        BYTE           VOL     52
        BYTE           VOICE   14
        BYTE           TIE     An3   v127
        BYTE   W96
// 002   ----------------------------------------
        BYTE   W96
// 003   ----------------------------------------
        BYTE   W96
// 004   ----------------------------------------
ChasmCave_10_4:
        BYTE           EOT     An3
        BYTE           TIE     An3   v127
        BYTE   W96
        BYTE   PEND
// 005   ----------------------------------------
        BYTE   W96
// 006   ----------------------------------------
        BYTE   W96
// 007   ----------------------------------------
ChasmCave_10_7:
        BYTE           EOT     An3
        BYTE           TIE     Fs3   v127
        BYTE   W96
        BYTE   PEND
// 008   ----------------------------------------
ChasmCave_10_8:
        BYTE   W48
        BYTE           EOT     Fs3
        BYTE           TIE     Fs3   v127
        BYTE   W48
        BYTE   PEND
// 009   ----------------------------------------
        BYTE   W96
// 010   ----------------------------------------
ChasmCave_10_10:
        BYTE           EOT     Fs3
        BYTE           TIE     Fs3   v127
        BYTE   W96
        BYTE   PEND
// 011   ----------------------------------------
        BYTE   PATT
         POIN2  ChasmCave_10_8
// 012   ----------------------------------------
        BYTE   W96
// 013   ----------------------------------------
        BYTE   PATT
         POIN2  ChasmCave_10_10
// 014   ----------------------------------------
        BYTE   PATT
         POIN2  ChasmCave_10_8
// 015   ----------------------------------------
        BYTE   W96
// 016   ----------------------------------------
        BYTE   PATT
         POIN2  ChasmCave_10_10
// 017   ----------------------------------------
        BYTE   PATT
         POIN2  ChasmCave_10_8
// 018   ----------------------------------------
        BYTE   W96
// 019   ----------------------------------------
ChasmCave_10_19:
        BYTE           EOT     Fs3
        BYTE           TIE     Fn3   v127
        BYTE   W96
        BYTE   PEND
// 020   ----------------------------------------
        BYTE   W48
        BYTE           EOT
        BYTE   W48
// 021   ----------------------------------------
        BYTE   W96
// 022   ----------------------------------------
        BYTE   W96
// 023   ----------------------------------------
        BYTE   W96
// 024   ----------------------------------------
        BYTE   W96
// 025   ----------------------------------------
        BYTE           TIE     Cn4
        BYTE   W96
// 026   ----------------------------------------
        BYTE   W48
        BYTE           EOT
        BYTE   W48
// 027   ----------------------------------------
        BYTE   W96
// 028   ----------------------------------------
        BYTE   W96
// 029   ----------------------------------------
        BYTE   W96
// 030   ----------------------------------------
        BYTE   W96
// 031   ----------------------------------------
        BYTE   W96
// 032   ----------------------------------------
ChasmCave_10_32:
        BYTE   W48
        BYTE           N72     Gn3   v127
        BYTE   W48
        BYTE   PEND
// 033   ----------------------------------------
ChasmCave_10_33:
        BYTE   W24
        BYTE           N72     An3   v127
        BYTE   W72
        BYTE   PEND
// 034   ----------------------------------------
        BYTE           TIE     Dn3
        BYTE   W96
// 035   ----------------------------------------
ChasmCave_10_35:
        BYTE   W48
        BYTE           EOT     Dn3
        BYTE           TIE     Dn3   v127
        BYTE   W48
        BYTE   PEND
// 036   ----------------------------------------
        BYTE   W96
// 037   ----------------------------------------
ChasmCave_10_37:
        BYTE           EOT     Dn3
        BYTE           TIE     Dn3   v127
        BYTE   W96
        BYTE   PEND
// 038   ----------------------------------------
        BYTE   PATT
         POIN2  ChasmCave_10_35
// 039   ----------------------------------------
        BYTE   W96
// 040   ----------------------------------------
        BYTE           EOT     Dn3
        BYTE   W96
// 041   ----------------------------------------
        BYTE   W96
// 042   ----------------------------------------
        BYTE   W96
// 043   ----------------------------------------
        BYTE   W96
// 044   ----------------------------------------
        BYTE   W96
// 045   ----------------------------------------
        BYTE   W96
// 046   ----------------------------------------
ChasmCave_10_LOOP:
        BYTE           TIE     An3   v127
        BYTE   W96
// 047   ----------------------------------------
        BYTE   W96
// 048   ----------------------------------------
        BYTE   W96
// 049   ----------------------------------------
        BYTE   PATT
         POIN2  ChasmCave_10_4
// 050   ----------------------------------------
        BYTE   W96
// 051   ----------------------------------------
        BYTE   W96
// 052   ----------------------------------------
        BYTE   PATT
         POIN2  ChasmCave_10_7
// 053   ----------------------------------------
        BYTE   PATT
         POIN2  ChasmCave_10_8
// 054   ----------------------------------------
        BYTE   W96
// 055   ----------------------------------------
        BYTE   PATT
         POIN2  ChasmCave_10_10
// 056   ----------------------------------------
        BYTE   PATT
         POIN2  ChasmCave_10_8
// 057   ----------------------------------------
        BYTE   W96
// 058   ----------------------------------------
        BYTE   PATT
         POIN2  ChasmCave_10_10
// 059   ----------------------------------------
        BYTE   PATT
         POIN2  ChasmCave_10_8
// 060   ----------------------------------------
        BYTE   W96
// 061   ----------------------------------------
        BYTE   PATT
         POIN2  ChasmCave_10_10
// 062   ----------------------------------------
        BYTE   PATT
         POIN2  ChasmCave_10_8
// 063   ----------------------------------------
        BYTE   W96
// 064   ----------------------------------------
        BYTE   PATT
         POIN2  ChasmCave_10_19
// 065   ----------------------------------------
        BYTE   W48
        BYTE           EOT     Fn3
        BYTE   W48
// 066   ----------------------------------------
        BYTE   W96
// 067   ----------------------------------------
        BYTE   W96
// 068   ----------------------------------------
        BYTE   W96
// 069   ----------------------------------------
        BYTE   W96
// 070   ----------------------------------------
        BYTE           TIE     Cn4   v127
        BYTE   W96
// 071   ----------------------------------------
        BYTE   W48
        BYTE           EOT
        BYTE   W48
// 072   ----------------------------------------
        BYTE   W96
// 073   ----------------------------------------
        BYTE   W96
// 074   ----------------------------------------
        BYTE   W96
// 075   ----------------------------------------
        BYTE   W96
// 076   ----------------------------------------
        BYTE   W96
// 077   ----------------------------------------
        BYTE   PATT
         POIN2  ChasmCave_10_32
// 078   ----------------------------------------
        BYTE   PATT
         POIN2  ChasmCave_10_33
// 079   ----------------------------------------
        BYTE           TIE     Dn3   v127
        BYTE   W96
// 080   ----------------------------------------
        BYTE   PATT
         POIN2  ChasmCave_10_35
// 081   ----------------------------------------
        BYTE   W96
// 082   ----------------------------------------
        BYTE   PATT
         POIN2  ChasmCave_10_37
// 083   ----------------------------------------
        BYTE   PATT
         POIN2  ChasmCave_10_35
// 084   ----------------------------------------
        BYTE   W96
// 085   ----------------------------------------
        BYTE           EOT     Dn3
        BYTE   W96
// 086   ----------------------------------------
        BYTE   W96
// 087   ----------------------------------------
        BYTE   W96
// 088   ----------------------------------------
        BYTE   W96
// 089   ----------------------------------------
        BYTE   W96
// 090   ----------------------------------------
        BYTE   W96
// 091   ----------------------------------------
        BYTE   GoTo
         POIN2  ChasmCave_10_LOOP
        BYTE   FINE


//********************** End of Song ***********************//

        ALIGN 4
ChasmCave:
        BYTE   11                      // Num Tracks
        BYTE   0                       // Unknown
        BYTE   ChasmCave_pri           // Priority
        BYTE   ChasmCave_rev           // Reverb

        POIN2   ChasmCave_grp          

        POIN2   ChasmCave_0
        POIN2   ChasmCave_1
        POIN2   ChasmCave_2
        POIN2   ChasmCave_3
        POIN2   ChasmCave_4
        POIN2   ChasmCave_5
        POIN2   ChasmCave_6
        POIN2   ChasmCave_7
        POIN2   ChasmCave_8
        POIN2   ChasmCave_9
        POIN2   ChasmCave_10

        
