//Event file generated from Sappy .s format.
        #include "MPlayDef.event"

        #define    TemporalTower_grp  voicegroup000
        #define    TemporalTower_pri  0
        #define    TemporalTower_rev  0
        #define    TemporalTower_key  0

        // .rodata
        // TemporalTower
        ALIGN 4

//****************** Track 0 (Midi-Chn.0) ******************//

TemporalTower_0:
        BYTE   KEYSH   TemporalTower_key+0
// 000   ----------------------------------------
        BYTE   TEMPO   120/2
        BYTE   W24
// 001   ----------------------------------------
        BYTE   TEMPO   110/2
        BYTE           VOICE   88
        BYTE           VOL     41
        BYTE   W96
// 002   ----------------------------------------
        BYTE   W96
// 003   ----------------------------------------
        BYTE   W96
// 004   ----------------------------------------
        BYTE   W96
// 005   ----------------------------------------
TemporalTower_0_LOOP:
        BYTE   W96
// 006   ----------------------------------------
        BYTE   W96
// 007   ----------------------------------------
        BYTE   W96
// 008   ----------------------------------------
        BYTE   W96
// 009   ----------------------------------------
        BYTE   W96
// 010   ----------------------------------------
        BYTE   W96
// 011   ----------------------------------------
        BYTE   W96
// 012   ----------------------------------------
        BYTE   W96
// 013   ----------------------------------------
TemporalTower_0_13:
        BYTE   W48
        BYTE           N03     Bn4   v105
        BYTE   W18
        BYTE                   En4
        BYTE   W18
        BYTE                   Dn4
        BYTE   W12
        BYTE   PEND
// 014   ----------------------------------------
TemporalTower_0_14:
        BYTE           N03     En4   v105
        BYTE   W48
        BYTE                   An4
        BYTE   W18
        BYTE                   Dn4
        BYTE   W18
        BYTE                   En4
        BYTE   W12
        BYTE   PEND
// 015   ----------------------------------------
TemporalTower_0_15:
        BYTE           N03     An3   v105
        BYTE   W48
        BYTE                   En4
        BYTE   W18
        BYTE                   An3
        BYTE   W18
        BYTE                   Gn3
        BYTE   W12
        BYTE   PEND
// 016   ----------------------------------------
TemporalTower_0_16:
        BYTE           N03     An3   v105
        BYTE   W48
        BYTE                   Dn4
        BYTE   W18
        BYTE                   Gn3
        BYTE   W18
        BYTE                   An3
        BYTE   W12
        BYTE   PEND
// 017   ----------------------------------------
        BYTE   PATT
         POIN2  TemporalTower_0_13
// 018   ----------------------------------------
        BYTE   PATT
         POIN2  TemporalTower_0_14
// 019   ----------------------------------------
        BYTE   PATT
         POIN2  TemporalTower_0_15
// 020   ----------------------------------------
        BYTE   PATT
         POIN2  TemporalTower_0_16
// 021   ----------------------------------------
        BYTE   W96
// 022   ----------------------------------------
        BYTE   W96
// 023   ----------------------------------------
        BYTE   W96
// 024   ----------------------------------------
        BYTE   W96
// 025   ----------------------------------------
        BYTE   W96
// 026   ----------------------------------------
        BYTE   W96
// 027   ----------------------------------------
        BYTE   W96
// 028   ----------------------------------------
TemporalTower_0_28:
        BYTE   W32
        BYTE           VOICE   40
        BYTE   W01
        BYTE           PAN     c_v-20
        BYTE           VOL     56
        BYTE   W60
        BYTE   W03
        BYTE   PEND
// 029   ----------------------------------------
TemporalTower_0_29:
        BYTE           N28     Bn3   v110   gtp1
        BYTE   W36
        BYTE           N03     An3
        BYTE   W06
        BYTE                   Gn3   v100
        BYTE   W06
        BYTE           N17     Fs3   v110
        BYTE   W18
        BYTE                   Dn3   v085
        BYTE   W18
        BYTE           N11     Fs3   v110
        BYTE   W12
        BYTE   PEND
// 030   ----------------------------------------
TemporalTower_0_30:
        BYTE           N32     En3   v110   gtp3
        BYTE   W48
        BYTE           N17
        BYTE   W18
        BYTE                   Bn2   v085
        BYTE   W18
        BYTE           N11     An2   v110
        BYTE   W12
        BYTE   PEND
// 031   ----------------------------------------
        BYTE           N92     Bn2   v095   gtp3
        BYTE   W96
// 032   ----------------------------------------
        BYTE   W96
// 033   ----------------------------------------
        BYTE   PATT
         POIN2  TemporalTower_0_29
// 034   ----------------------------------------
        BYTE   PATT
         POIN2  TemporalTower_0_30
// 035   ----------------------------------------
        BYTE           N92     Bn2   v095   gtp3
        BYTE   W96
// 036   ----------------------------------------
TemporalTower_0_36:
        BYTE   W02
        BYTE           VOICE   88
        BYTE   W01
        BYTE           VOL     41
        BYTE           PAN     c_v+0
        BYTE   W92
        BYTE   W01
        BYTE   PEND
// 037   ----------------------------------------
        BYTE   PATT
         POIN2  TemporalTower_0_13
// 038   ----------------------------------------
        BYTE   PATT
         POIN2  TemporalTower_0_14
// 039   ----------------------------------------
        BYTE   PATT
         POIN2  TemporalTower_0_15
// 040   ----------------------------------------
        BYTE   PATT
         POIN2  TemporalTower_0_16
// 041   ----------------------------------------
        BYTE   PATT
         POIN2  TemporalTower_0_13
// 042   ----------------------------------------
        BYTE   PATT
         POIN2  TemporalTower_0_14
// 043   ----------------------------------------
        BYTE   PATT
         POIN2  TemporalTower_0_15
// 044   ----------------------------------------
        BYTE   PATT
         POIN2  TemporalTower_0_16
// 045   ----------------------------------------
        BYTE   W96
// 046   ----------------------------------------
        BYTE   W96
// 047   ----------------------------------------
        BYTE   W96
// 048   ----------------------------------------
        BYTE   W96
// 049   ----------------------------------------
        BYTE   W96
// 050   ----------------------------------------
        BYTE   W96
// 051   ----------------------------------------
        BYTE   PATT
         POIN2  TemporalTower_0_13
// 052   ----------------------------------------
        BYTE   PATT
         POIN2  TemporalTower_0_14
// 053   ----------------------------------------
        BYTE   PATT
         POIN2  TemporalTower_0_15
// 054   ----------------------------------------
        BYTE   PATT
         POIN2  TemporalTower_0_16
// 055   ----------------------------------------
        BYTE   PATT
         POIN2  TemporalTower_0_13
// 056   ----------------------------------------
        BYTE   PATT
         POIN2  TemporalTower_0_14
// 057   ----------------------------------------
        BYTE   PATT
         POIN2  TemporalTower_0_15
// 058   ----------------------------------------
        BYTE   PATT
         POIN2  TemporalTower_0_16
// 059   ----------------------------------------
        BYTE   W96
// 060   ----------------------------------------
        BYTE   W96
// 061   ----------------------------------------
        BYTE   W96
// 062   ----------------------------------------
        BYTE   W96
// 063   ----------------------------------------
        BYTE   W96
// 064   ----------------------------------------
        BYTE   W96
// 065   ----------------------------------------
        BYTE   W96
// 066   ----------------------------------------
        BYTE   W96
// 067   ----------------------------------------
        BYTE   GoTo
         POIN2  TemporalTower_0_LOOP
        BYTE   W96
// 068   ----------------------------------------
        BYTE   W96
// 069   ----------------------------------------
        BYTE   W96
// 070   ----------------------------------------
        BYTE   W96
// 071   ----------------------------------------
        BYTE   W96
// 072   ----------------------------------------
        BYTE   W96
// 073   ----------------------------------------
        BYTE   W96
// 074   ----------------------------------------
        BYTE   W96
// 075   ----------------------------------------
        BYTE   PATT
         POIN2  TemporalTower_0_13
// 076   ----------------------------------------
        BYTE   PATT
         POIN2  TemporalTower_0_14
// 077   ----------------------------------------
        BYTE   PATT
         POIN2  TemporalTower_0_15
// 078   ----------------------------------------
        BYTE   PATT
         POIN2  TemporalTower_0_16
// 079   ----------------------------------------
        BYTE   PATT
         POIN2  TemporalTower_0_13
// 080   ----------------------------------------
        BYTE   PATT
         POIN2  TemporalTower_0_14
// 081   ----------------------------------------
        BYTE   PATT
         POIN2  TemporalTower_0_15
// 082   ----------------------------------------
        BYTE   PATT
         POIN2  TemporalTower_0_16
// 083   ----------------------------------------
        BYTE   W96
// 084   ----------------------------------------
        BYTE   W96
// 085   ----------------------------------------
        BYTE   W96
// 086   ----------------------------------------
        BYTE   W96
// 087   ----------------------------------------
        BYTE   W96
// 088   ----------------------------------------
        BYTE   W96
// 089   ----------------------------------------
        BYTE   W96
// 090   ----------------------------------------
        BYTE   PATT
         POIN2  TemporalTower_0_28
// 091   ----------------------------------------
        BYTE   PATT
         POIN2  TemporalTower_0_29
// 092   ----------------------------------------
        BYTE   PATT
         POIN2  TemporalTower_0_30
// 093   ----------------------------------------
        BYTE           N92     Bn2   v095   gtp3
        BYTE   W96
// 094   ----------------------------------------
        BYTE   W96
// 095   ----------------------------------------
        BYTE   PATT
         POIN2  TemporalTower_0_29
// 096   ----------------------------------------
        BYTE   PATT
         POIN2  TemporalTower_0_30
// 097   ----------------------------------------
        BYTE           N92     Bn2   v095   gtp3
        BYTE   W96
// 098   ----------------------------------------
        BYTE   PATT
         POIN2  TemporalTower_0_36
// 099   ----------------------------------------
        BYTE   PATT
         POIN2  TemporalTower_0_13
// 100   ----------------------------------------
        BYTE   PATT
         POIN2  TemporalTower_0_14
// 101   ----------------------------------------
        BYTE   PATT
         POIN2  TemporalTower_0_15
// 102   ----------------------------------------
        BYTE   PATT
         POIN2  TemporalTower_0_16
// 103   ----------------------------------------
        BYTE   PATT
         POIN2  TemporalTower_0_13
// 104   ----------------------------------------
        BYTE   PATT
         POIN2  TemporalTower_0_14
// 105   ----------------------------------------
        BYTE   PATT
         POIN2  TemporalTower_0_15
// 106   ----------------------------------------
        BYTE   PATT
         POIN2  TemporalTower_0_16
// 107   ----------------------------------------
        BYTE   W96
// 108   ----------------------------------------
        BYTE   W96
// 109   ----------------------------------------
        BYTE   W96
// 110   ----------------------------------------
        BYTE   W96
// 111   ----------------------------------------
        BYTE   W96
// 112   ----------------------------------------
        BYTE   W96
// 113   ----------------------------------------
        BYTE   PATT
         POIN2  TemporalTower_0_13
// 114   ----------------------------------------
        BYTE   PATT
         POIN2  TemporalTower_0_14
// 115   ----------------------------------------
        BYTE   PATT
         POIN2  TemporalTower_0_15
// 116   ----------------------------------------
        BYTE   PATT
         POIN2  TemporalTower_0_16
// 117   ----------------------------------------
        BYTE   PATT
         POIN2  TemporalTower_0_13
// 118   ----------------------------------------
        BYTE   PATT
         POIN2  TemporalTower_0_14
// 119   ----------------------------------------
        BYTE   PATT
         POIN2  TemporalTower_0_15
// 120   ----------------------------------------
        BYTE   PATT
         POIN2  TemporalTower_0_16
// 121   ----------------------------------------
        BYTE   W96
// 122   ----------------------------------------
        BYTE   W96
// 123   ----------------------------------------
        BYTE   W96
// 124   ----------------------------------------
        BYTE   W96
// 125   ----------------------------------------
        BYTE   W96
// 126   ----------------------------------------
        BYTE   W96
// 127   ----------------------------------------
        BYTE   W96
// 128   ----------------------------------------
        BYTE   W96
// 129   ----------------------------------------
        BYTE   W96
// 130   ----------------------------------------
        BYTE   W96
// 131   ----------------------------------------
        BYTE   W96
// 132   ----------------------------------------
        BYTE   W92
        BYTE   W03
        BYTE   FINE

//****************** Track 1 (Midi-Chn.1) ******************//

TemporalTower_1:
        BYTE   KEYSH   TemporalTower_key+0
// 000   ----------------------------------------
        BYTE   W24
// 001   ----------------------------------------
        BYTE           VOICE   14
        BYTE           VOL     51
        BYTE   W96
// 002   ----------------------------------------
        BYTE   W96
// 003   ----------------------------------------
        BYTE   W96
// 004   ----------------------------------------
        BYTE   W96
// 005   ----------------------------------------
TemporalTower_1_LOOP:
        BYTE   W96
// 006   ----------------------------------------
        BYTE   W96
// 007   ----------------------------------------
        BYTE   W96
// 008   ----------------------------------------
        BYTE   W96
// 009   ----------------------------------------
        BYTE   W96
// 010   ----------------------------------------
        BYTE   W96
// 011   ----------------------------------------
        BYTE   W96
// 012   ----------------------------------------
        BYTE   W96
// 013   ----------------------------------------
TemporalTower_1_13:
        BYTE           N03     Bn3   v105
        BYTE   W18
        BYTE                   En3
        BYTE   W18
        BYTE                   Dn3
        BYTE   W12
        BYTE                   En3
        BYTE   W48
        BYTE   PEND
// 014   ----------------------------------------
TemporalTower_1_14:
        BYTE           N03     An3   v105
        BYTE   W18
        BYTE                   Dn3
        BYTE   W18
        BYTE                   En3
        BYTE   W12
        BYTE                   An2
        BYTE   W48
        BYTE   PEND
// 015   ----------------------------------------
TemporalTower_1_15:
        BYTE           N03     En3   v105
        BYTE   W18
        BYTE                   An2
        BYTE   W18
        BYTE                   Gn2
        BYTE   W12
        BYTE                   An2
        BYTE   W48
        BYTE   PEND
// 016   ----------------------------------------
TemporalTower_1_16:
        BYTE           N03     Dn3   v105
        BYTE   W18
        BYTE                   Gn2
        BYTE   W18
        BYTE                   An2
        BYTE   W12
        BYTE                   Dn3
        BYTE   W48
        BYTE   PEND
// 017   ----------------------------------------
        BYTE   PATT
         POIN2  TemporalTower_1_13
// 018   ----------------------------------------
        BYTE   PATT
         POIN2  TemporalTower_1_14
// 019   ----------------------------------------
        BYTE   PATT
         POIN2  TemporalTower_1_15
// 020   ----------------------------------------
        BYTE   PATT
         POIN2  TemporalTower_1_16
// 021   ----------------------------------------
        BYTE   W96
// 022   ----------------------------------------
        BYTE   W96
// 023   ----------------------------------------
        BYTE   W96
// 024   ----------------------------------------
        BYTE   W96
// 025   ----------------------------------------
        BYTE   W96
// 026   ----------------------------------------
        BYTE   W96
// 027   ----------------------------------------
        BYTE   W96
// 028   ----------------------------------------
        BYTE   W96
// 029   ----------------------------------------
        BYTE   W96
// 030   ----------------------------------------
        BYTE   W96
// 031   ----------------------------------------
        BYTE   W96
// 032   ----------------------------------------
        BYTE   W96
// 033   ----------------------------------------
        BYTE   W96
// 034   ----------------------------------------
        BYTE   W96
// 035   ----------------------------------------
        BYTE   W96
// 036   ----------------------------------------
        BYTE   W96
// 037   ----------------------------------------
        BYTE   PATT
         POIN2  TemporalTower_1_13
// 038   ----------------------------------------
        BYTE   PATT
         POIN2  TemporalTower_1_14
// 039   ----------------------------------------
        BYTE   PATT
         POIN2  TemporalTower_1_15
// 040   ----------------------------------------
        BYTE   PATT
         POIN2  TemporalTower_1_16
// 041   ----------------------------------------
        BYTE   PATT
         POIN2  TemporalTower_1_13
// 042   ----------------------------------------
        BYTE   PATT
         POIN2  TemporalTower_1_14
// 043   ----------------------------------------
        BYTE   PATT
         POIN2  TemporalTower_1_15
// 044   ----------------------------------------
        BYTE   PATT
         POIN2  TemporalTower_1_16
// 045   ----------------------------------------
        BYTE   W96
// 046   ----------------------------------------
        BYTE   W96
// 047   ----------------------------------------
        BYTE   W96
// 048   ----------------------------------------
        BYTE   W96
// 049   ----------------------------------------
        BYTE   W96
// 050   ----------------------------------------
        BYTE   W96
// 051   ----------------------------------------
        BYTE   PATT
         POIN2  TemporalTower_1_13
// 052   ----------------------------------------
        BYTE   PATT
         POIN2  TemporalTower_1_14
// 053   ----------------------------------------
        BYTE   PATT
         POIN2  TemporalTower_1_15
// 054   ----------------------------------------
        BYTE   PATT
         POIN2  TemporalTower_1_16
// 055   ----------------------------------------
        BYTE   PATT
         POIN2  TemporalTower_1_13
// 056   ----------------------------------------
        BYTE   PATT
         POIN2  TemporalTower_1_14
// 057   ----------------------------------------
        BYTE   PATT
         POIN2  TemporalTower_1_15
// 058   ----------------------------------------
        BYTE   PATT
         POIN2  TemporalTower_1_16
// 059   ----------------------------------------
        BYTE   W96
// 060   ----------------------------------------
        BYTE   W96
// 061   ----------------------------------------
        BYTE   W96
// 062   ----------------------------------------
        BYTE   W96
// 063   ----------------------------------------
        BYTE   W96
// 064   ----------------------------------------
        BYTE   W96
// 065   ----------------------------------------
        BYTE   W96
// 066   ----------------------------------------
        BYTE   W96
// 067   ----------------------------------------
        BYTE   GoTo
         POIN2  TemporalTower_1_LOOP
        BYTE   W96
// 068   ----------------------------------------
        BYTE   W96
// 069   ----------------------------------------
        BYTE   W96
// 070   ----------------------------------------
        BYTE   W96
// 071   ----------------------------------------
        BYTE   W96
// 072   ----------------------------------------
        BYTE   W96
// 073   ----------------------------------------
        BYTE   W96
// 074   ----------------------------------------
        BYTE   W96
// 075   ----------------------------------------
        BYTE   PATT
         POIN2  TemporalTower_1_13
// 076   ----------------------------------------
        BYTE   PATT
         POIN2  TemporalTower_1_14
// 077   ----------------------------------------
        BYTE   PATT
         POIN2  TemporalTower_1_15
// 078   ----------------------------------------
        BYTE   PATT
         POIN2  TemporalTower_1_16
// 079   ----------------------------------------
        BYTE   PATT
         POIN2  TemporalTower_1_13
// 080   ----------------------------------------
        BYTE   PATT
         POIN2  TemporalTower_1_14
// 081   ----------------------------------------
        BYTE   PATT
         POIN2  TemporalTower_1_15
// 082   ----------------------------------------
        BYTE   PATT
         POIN2  TemporalTower_1_16
// 083   ----------------------------------------
        BYTE   W96
// 084   ----------------------------------------
        BYTE   W96
// 085   ----------------------------------------
        BYTE   W96
// 086   ----------------------------------------
        BYTE   W96
// 087   ----------------------------------------
        BYTE   W96
// 088   ----------------------------------------
        BYTE   W96
// 089   ----------------------------------------
        BYTE   W96
// 090   ----------------------------------------
        BYTE   W96
// 091   ----------------------------------------
        BYTE   W96
// 092   ----------------------------------------
        BYTE   W96
// 093   ----------------------------------------
        BYTE   W96
// 094   ----------------------------------------
        BYTE   W96
// 095   ----------------------------------------
        BYTE   W96
// 096   ----------------------------------------
        BYTE   W96
// 097   ----------------------------------------
        BYTE   W96
// 098   ----------------------------------------
        BYTE   W96
// 099   ----------------------------------------
        BYTE   PATT
         POIN2  TemporalTower_1_13
// 100   ----------------------------------------
        BYTE   PATT
         POIN2  TemporalTower_1_14
// 101   ----------------------------------------
        BYTE   PATT
         POIN2  TemporalTower_1_15
// 102   ----------------------------------------
        BYTE   PATT
         POIN2  TemporalTower_1_16
// 103   ----------------------------------------
        BYTE   PATT
         POIN2  TemporalTower_1_13
// 104   ----------------------------------------
        BYTE   PATT
         POIN2  TemporalTower_1_14
// 105   ----------------------------------------
        BYTE   PATT
         POIN2  TemporalTower_1_15
// 106   ----------------------------------------
        BYTE   PATT
         POIN2  TemporalTower_1_16
// 107   ----------------------------------------
        BYTE   W96
// 108   ----------------------------------------
        BYTE   W96
// 109   ----------------------------------------
        BYTE   W96
// 110   ----------------------------------------
        BYTE   W96
// 111   ----------------------------------------
        BYTE   W96
// 112   ----------------------------------------
        BYTE   W96
// 113   ----------------------------------------
        BYTE   PATT
         POIN2  TemporalTower_1_13
// 114   ----------------------------------------
        BYTE   PATT
         POIN2  TemporalTower_1_14
// 115   ----------------------------------------
        BYTE   PATT
         POIN2  TemporalTower_1_15
// 116   ----------------------------------------
        BYTE   PATT
         POIN2  TemporalTower_1_16
// 117   ----------------------------------------
        BYTE   PATT
         POIN2  TemporalTower_1_13
// 118   ----------------------------------------
        BYTE   PATT
         POIN2  TemporalTower_1_14
// 119   ----------------------------------------
        BYTE   PATT
         POIN2  TemporalTower_1_15
// 120   ----------------------------------------
        BYTE   PATT
         POIN2  TemporalTower_1_16
// 121   ----------------------------------------
        BYTE   W96
// 122   ----------------------------------------
        BYTE   W96
// 123   ----------------------------------------
        BYTE   W96
// 124   ----------------------------------------
        BYTE   W96
// 125   ----------------------------------------
        BYTE   W96
// 126   ----------------------------------------
        BYTE   W96
// 127   ----------------------------------------
        BYTE   W96
// 128   ----------------------------------------
        BYTE   W96
// 129   ----------------------------------------
        BYTE   W96
// 130   ----------------------------------------
        BYTE   W96
// 131   ----------------------------------------
        BYTE   W96
// 132   ----------------------------------------
        BYTE   W92
        BYTE   W03
        BYTE   FINE

//****************** Track 2 (Midi-Chn.2) ******************//

TemporalTower_2:
        BYTE   KEYSH   TemporalTower_key+0
// 000   ----------------------------------------
        BYTE           VOICE   4
        BYTE   W24
// 001   ----------------------------------------
        BYTE           VOL     56
        BYTE   W96
// 002   ----------------------------------------
        BYTE   W96
// 003   ----------------------------------------
        BYTE   W96
// 004   ----------------------------------------
        BYTE   W96
// 005   ----------------------------------------
TemporalTower_2_LOOP:
        BYTE   W06
        BYTE           N03     An3   v095
        BYTE   W05
        BYTE           PAN     c_v+20
        BYTE   W01
        BYTE           N03     An4
        BYTE   W05
        BYTE           PAN     c_v-20
        BYTE   W01
        BYTE           N03     Dn4
        BYTE   W05
        BYTE           PAN     c_v+20
        BYTE   W01
        BYTE           N03     En4
        BYTE   W05
        BYTE           PAN     c_v-20
        BYTE   W01
        BYTE           N03     An3
        BYTE   W05
        BYTE           PAN     c_v+20
        BYTE   W01
        BYTE           N03     Dn4
        BYTE   W05
        BYTE           PAN     c_v-20
        BYTE   W01
        BYTE           N03     Gn3
        BYTE   W05
        BYTE           PAN     c_v+20
        BYTE   W01
        BYTE           N03     An3
        BYTE   W05
        BYTE           PAN     c_v-20
        BYTE   W01
        BYTE           N03     An2
        BYTE   W05
        BYTE           PAN     c_v+20
        BYTE   W01
        BYTE           N03     En3
        BYTE   W05
        BYTE           PAN     c_v-20
        BYTE   W01
        BYTE           N03     An3
        BYTE   W05
        BYTE           PAN     c_v+20
        BYTE   W01
        BYTE           N03     Gn3
        BYTE   W05
        BYTE           PAN     c_v-20
        BYTE   W01
        BYTE           N03     Dn3
        BYTE   W05
        BYTE           PAN     c_v+0
        BYTE   W01
        BYTE           N11     En3
        BYTE   W12
// 006   ----------------------------------------
TemporalTower_2_6:
        BYTE   W06
        BYTE           N03     An3   v095
        BYTE   W05
        BYTE           PAN     c_v+20
        BYTE   W01
        BYTE           N03     An4
        BYTE   W05
        BYTE           PAN     c_v-20
        BYTE   W01
        BYTE           N03     Dn4
        BYTE   W05
        BYTE           PAN     c_v+20
        BYTE   W01
        BYTE           N03     En4
        BYTE   W05
        BYTE           PAN     c_v-20
        BYTE   W01
        BYTE           N03     An3
        BYTE   W05
        BYTE           PAN     c_v+20
        BYTE   W01
        BYTE           N03     Dn4
        BYTE   W05
        BYTE           PAN     c_v-20
        BYTE   W01
        BYTE           N03     Gn3
        BYTE   W05
        BYTE           PAN     c_v+20
        BYTE   W01
        BYTE           N03     An3
        BYTE   W05
        BYTE           PAN     c_v-20
        BYTE   W01
        BYTE           N03     An2
        BYTE   W05
        BYTE           PAN     c_v+20
        BYTE   W01
        BYTE           N03     En3
        BYTE   W05
        BYTE           PAN     c_v-20
        BYTE   W01
        BYTE           N03     An3
        BYTE   W05
        BYTE           PAN     c_v+20
        BYTE   W01
        BYTE           N03     Gn3
        BYTE   W05
        BYTE           PAN     c_v-20
        BYTE   W01
        BYTE           N03     Fs3
        BYTE   W05
        BYTE           PAN     c_v+0
        BYTE   W01
        BYTE           N11     En3
        BYTE   W12
        BYTE   PEND
// 007   ----------------------------------------
TemporalTower_2_7:
        BYTE   W06
        BYTE           N03     An3   v095
        BYTE   W05
        BYTE           PAN     c_v+20
        BYTE   W01
        BYTE           N03     An4
        BYTE   W05
        BYTE           PAN     c_v-20
        BYTE   W01
        BYTE           N03     Dn4
        BYTE   W05
        BYTE           PAN     c_v+20
        BYTE   W01
        BYTE           N03     En4
        BYTE   W05
        BYTE           PAN     c_v-20
        BYTE   W01
        BYTE           N03     An3
        BYTE   W05
        BYTE           PAN     c_v+20
        BYTE   W01
        BYTE           N03     Dn4
        BYTE   W05
        BYTE           PAN     c_v-20
        BYTE   W01
        BYTE           N03     Gn3
        BYTE   W05
        BYTE           PAN     c_v+20
        BYTE   W01
        BYTE           N03     An3
        BYTE   W05
        BYTE           PAN     c_v-20
        BYTE   W01
        BYTE           N03     An2
        BYTE   W05
        BYTE           PAN     c_v+20
        BYTE   W01
        BYTE           N03     En3
        BYTE   W05
        BYTE           PAN     c_v-20
        BYTE   W01
        BYTE           N03     An3
        BYTE   W05
        BYTE           PAN     c_v+20
        BYTE   W01
        BYTE           N03     Gn3
        BYTE   W05
        BYTE           PAN     c_v-20
        BYTE   W01
        BYTE           N03     Dn3
        BYTE   W05
        BYTE           PAN     c_v+0
        BYTE   W01
        BYTE           N11     En3
        BYTE   W12
        BYTE   PEND
// 008   ----------------------------------------
TemporalTower_2_8:
        BYTE   W06
        BYTE           N03     An3   v095
        BYTE   W05
        BYTE           PAN     c_v+20
        BYTE   W01
        BYTE           N03     An4
        BYTE   W05
        BYTE           PAN     c_v-20
        BYTE   W01
        BYTE           N03     Dn4
        BYTE   W05
        BYTE           PAN     c_v+20
        BYTE   W01
        BYTE           N03     En4
        BYTE   W05
        BYTE           PAN     c_v-20
        BYTE   W01
        BYTE           N03     An3
        BYTE   W05
        BYTE           PAN     c_v+20
        BYTE   W01
        BYTE           N03     Dn4
        BYTE   W05
        BYTE           PAN     c_v-20
        BYTE   W01
        BYTE           N03     Gn3
        BYTE   W05
        BYTE           PAN     c_v+20
        BYTE   W01
        BYTE           N03     An3
        BYTE   W05
        BYTE           PAN     c_v-20
        BYTE   W01
        BYTE           N03     En3
        BYTE   W05
        BYTE           PAN     c_v+20
        BYTE   W01
        BYTE           N03     Bn3
        BYTE   W05
        BYTE           PAN     c_v-20
        BYTE   W01
        BYTE           N03     En3
        BYTE   W05
        BYTE           PAN     c_v+20
        BYTE   W01
        BYTE           N03     Cn4
        BYTE   W05
        BYTE           PAN     c_v-20
        BYTE   W01
        BYTE           N03     En3
        BYTE   W05
        BYTE           PAN     c_v+0
        BYTE   W01
        BYTE           N11     Dn4
        BYTE   W12
        BYTE   PEND
// 009   ----------------------------------------
        BYTE   PATT
         POIN2  TemporalTower_2_7
// 010   ----------------------------------------
        BYTE   PATT
         POIN2  TemporalTower_2_6
// 011   ----------------------------------------
TemporalTower_2_11:
        BYTE   W06
        BYTE           N03     An3   v095
        BYTE   W05
        BYTE           PAN     c_v+20
        BYTE   W01
        BYTE           N03     An4
        BYTE   W05
        BYTE           PAN     c_v-20
        BYTE   W01
        BYTE           N03     Dn4
        BYTE   W05
        BYTE           PAN     c_v+20
        BYTE   W01
        BYTE           N03     En4
        BYTE   W05
        BYTE           PAN     c_v-20
        BYTE   W01
        BYTE           N03     An3
        BYTE   W05
        BYTE           PAN     c_v+20
        BYTE   W01
        BYTE           N03     Dn4
        BYTE   W05
        BYTE           PAN     c_v-20
        BYTE   W01
        BYTE           N03     Gn3
        BYTE   W05
        BYTE           PAN     c_v+20
        BYTE   W01
        BYTE           N03     An3
        BYTE   W05
        BYTE           PAN     c_v-20
        BYTE   W01
        BYTE           N03     En3
        BYTE   W05
        BYTE           PAN     c_v+20
        BYTE   W01
        BYTE           N03     Bn3
        BYTE   W05
        BYTE           PAN     c_v-20
        BYTE   W01
        BYTE           N03     En3
        BYTE   W05
        BYTE           PAN     c_v+20
        BYTE   W01
        BYTE           N03     Cn4
        BYTE   W05
        BYTE           PAN     c_v-20
        BYTE   W01
        BYTE           N03     En3
        BYTE   W05
        BYTE           PAN     c_v+20
        BYTE   W01
        BYTE           N03     Dn4
        BYTE   W05
        BYTE           PAN     c_v-20
        BYTE   W01
        BYTE           N03     Bn3
        BYTE   W05
        BYTE           PAN     c_v+20
        BYTE   W01
        BYTE   PEND
// 012   ----------------------------------------
TemporalTower_2_12:
        BYTE           N03     En4   v095
        BYTE   W05
        BYTE           PAN     c_v-20
        BYTE   W01
        BYTE           N03     Dn4
        BYTE   W05
        BYTE           PAN     c_v+20
        BYTE   W01
        BYTE           N03     Gn4
        BYTE   W05
        BYTE           PAN     c_v-20
        BYTE   W01
        BYTE           N03     En4
        BYTE   W05
        BYTE           PAN     c_v+20
        BYTE   W01
        BYTE           N03     An4
        BYTE   W05
        BYTE           PAN     c_v-20
        BYTE   W01
        BYTE           N03     En4
        BYTE   W05
        BYTE           PAN     c_v+20
        BYTE   W01
        BYTE           N03     Bn4
        BYTE   W05
        BYTE           PAN     c_v-20
        BYTE   W01
        BYTE           N03     En4
        BYTE   W05
        BYTE           PAN     c_v+20
        BYTE   W01
        BYTE           N03     Cn5
        BYTE   W05
        BYTE           PAN     c_v-20
        BYTE   W01
        BYTE           N03     En4
        BYTE   W05
        BYTE           PAN     c_v+20
        BYTE   W01
        BYTE           N03     Dn5
        BYTE   W05
        BYTE           PAN     c_v-20
        BYTE   W01
        BYTE           N03     An4
        BYTE   W05
        BYTE           PAN     c_v+20
        BYTE   W01
        BYTE           N03     En5
        BYTE   W05
        BYTE           PAN     c_v-20
        BYTE   W01
        BYTE           N03     Bn4
        BYTE   W05
        BYTE           PAN     c_v+0
        BYTE   W01
        BYTE           N11     Fs5
        BYTE   W12
        BYTE   PEND
// 013   ----------------------------------------
        BYTE           N92     En5   v095   gtp3
        BYTE   W96
// 014   ----------------------------------------
        BYTE   W96
// 015   ----------------------------------------
        BYTE   W96
// 016   ----------------------------------------
        BYTE   W96
// 017   ----------------------------------------
        BYTE   W96
// 018   ----------------------------------------
        BYTE   W96
// 019   ----------------------------------------
        BYTE   W96
// 020   ----------------------------------------
        BYTE   W96
// 021   ----------------------------------------
        BYTE   PATT
         POIN2  TemporalTower_2_7
// 022   ----------------------------------------
        BYTE   PATT
         POIN2  TemporalTower_2_6
// 023   ----------------------------------------
        BYTE   PATT
         POIN2  TemporalTower_2_7
// 024   ----------------------------------------
        BYTE   PATT
         POIN2  TemporalTower_2_8
// 025   ----------------------------------------
        BYTE   PATT
         POIN2  TemporalTower_2_7
// 026   ----------------------------------------
        BYTE   PATT
         POIN2  TemporalTower_2_6
// 027   ----------------------------------------
        BYTE   PATT
         POIN2  TemporalTower_2_11
// 028   ----------------------------------------
        BYTE   PATT
         POIN2  TemporalTower_2_12
// 029   ----------------------------------------
        BYTE   W96
// 030   ----------------------------------------
TemporalTower_2_30:
        BYTE   W36
        BYTE   W03
        BYTE           PAN     c_v+20
        BYTE           VOL     41
        BYTE   W56
        BYTE   W01
        BYTE   PEND
// 031   ----------------------------------------
TemporalTower_2_31:
        BYTE           N32     Bn4   v110   gtp3
        BYTE   W36
        BYTE           N03     An4
        BYTE   W06
        BYTE                   Gn4   v100
        BYTE   W06
        BYTE           N17     Fs4   v110
        BYTE   W18
        BYTE                   Dn4   v085
        BYTE   W18
        BYTE           N11     Fs4   v110
        BYTE   W12
        BYTE   PEND
// 032   ----------------------------------------
TemporalTower_2_32:
        BYTE           N32     En4   v110   gtp3
        BYTE   W48
        BYTE           N17
        BYTE   W18
        BYTE                   Bn4   v085
        BYTE   W18
        BYTE           N11     An4   v110
        BYTE   W12
        BYTE   PEND
// 033   ----------------------------------------
        BYTE           N92     Bn4   v095   gtp3
        BYTE   W96
// 034   ----------------------------------------
        BYTE   W96
// 035   ----------------------------------------
        BYTE   PATT
         POIN2  TemporalTower_2_31
// 036   ----------------------------------------
        BYTE   PATT
         POIN2  TemporalTower_2_32
// 037   ----------------------------------------
        BYTE           N92     Bn4   v095   gtp3
        BYTE   W96
// 038   ----------------------------------------
        BYTE   W96
// 039   ----------------------------------------
        BYTE   W96
// 040   ----------------------------------------
        BYTE   W96
// 041   ----------------------------------------
        BYTE   W96
// 042   ----------------------------------------
        BYTE   W96
// 043   ----------------------------------------
        BYTE   W96
// 044   ----------------------------------------
TemporalTower_2_44:
        BYTE   W15
        BYTE           VOL     54
        BYTE           PAN     c_v+0
        BYTE   W80
        BYTE   W01
        BYTE   PEND
// 045   ----------------------------------------
        BYTE   PATT
         POIN2  TemporalTower_2_7
// 046   ----------------------------------------
        BYTE   PATT
         POIN2  TemporalTower_2_6
// 047   ----------------------------------------
        BYTE   PATT
         POIN2  TemporalTower_2_7
// 048   ----------------------------------------
        BYTE   PATT
         POIN2  TemporalTower_2_8
// 049   ----------------------------------------
        BYTE   PATT
         POIN2  TemporalTower_2_7
// 050   ----------------------------------------
        BYTE   PATT
         POIN2  TemporalTower_2_6
// 051   ----------------------------------------
        BYTE   PATT
         POIN2  TemporalTower_2_11
// 052   ----------------------------------------
        BYTE   PATT
         POIN2  TemporalTower_2_12
// 053   ----------------------------------------
        BYTE   PATT
         POIN2  TemporalTower_2_11
// 054   ----------------------------------------
        BYTE   PATT
         POIN2  TemporalTower_2_12
// 055   ----------------------------------------
        BYTE   PATT
         POIN2  TemporalTower_2_11
// 056   ----------------------------------------
        BYTE   PATT
         POIN2  TemporalTower_2_12
// 057   ----------------------------------------
        BYTE   PATT
         POIN2  TemporalTower_2_11
// 058   ----------------------------------------
        BYTE   PATT
         POIN2  TemporalTower_2_12
// 059   ----------------------------------------
        BYTE   PATT
         POIN2  TemporalTower_2_7
// 060   ----------------------------------------
        BYTE   PATT
         POIN2  TemporalTower_2_6
// 061   ----------------------------------------
        BYTE   PATT
         POIN2  TemporalTower_2_7
// 062   ----------------------------------------
        BYTE   PATT
         POIN2  TemporalTower_2_8
// 063   ----------------------------------------
        BYTE   PATT
         POIN2  TemporalTower_2_7
// 064   ----------------------------------------
        BYTE   PATT
         POIN2  TemporalTower_2_6
// 065   ----------------------------------------
        BYTE   PATT
         POIN2  TemporalTower_2_7
// 066   ----------------------------------------
        BYTE   PATT
         POIN2  TemporalTower_2_8
// 067   ----------------------------------------
        BYTE           VOL     56
        BYTE   GoTo
         POIN2  TemporalTower_2_LOOP
        BYTE   W06
        BYTE           N03     An3   v095
        BYTE   W05
        BYTE           PAN     c_v+20
        BYTE   W01
        BYTE           N03     An4
        BYTE   W05
        BYTE           PAN     c_v-20
        BYTE   W01
        BYTE           N03     Dn4
        BYTE   W05
        BYTE           PAN     c_v+20
        BYTE   W01
        BYTE           N03     En4
        BYTE   W05
        BYTE           PAN     c_v-20
        BYTE   W01
        BYTE           N03     An3
        BYTE   W05
        BYTE           PAN     c_v+20
        BYTE   W01
        BYTE           N03     Dn4
        BYTE   W05
        BYTE           PAN     c_v-20
        BYTE   W01
        BYTE           N03     Gn3
        BYTE   W05
        BYTE           PAN     c_v+20
        BYTE   W01
        BYTE           N03     An3
        BYTE   W05
        BYTE           PAN     c_v-20
        BYTE   W01
        BYTE           N03     An2
        BYTE   W05
        BYTE           PAN     c_v+20
        BYTE   W01
        BYTE           N03     En3
        BYTE   W05
        BYTE           PAN     c_v-20
        BYTE   W01
        BYTE           N03     An3
        BYTE   W05
        BYTE           PAN     c_v+20
        BYTE   W01
        BYTE           N03     Gn3
        BYTE   W05
        BYTE           PAN     c_v-20
        BYTE   W01
        BYTE           N03     Dn3
        BYTE   W05
        BYTE           PAN     c_v+0
        BYTE   W01
        BYTE           N11     En3
        BYTE   W12
// 068   ----------------------------------------
        BYTE   PATT
         POIN2  TemporalTower_2_6
// 069   ----------------------------------------
        BYTE   PATT
         POIN2  TemporalTower_2_7
// 070   ----------------------------------------
        BYTE   PATT
         POIN2  TemporalTower_2_8
// 071   ----------------------------------------
        BYTE   PATT
         POIN2  TemporalTower_2_7
// 072   ----------------------------------------
        BYTE   PATT
         POIN2  TemporalTower_2_6
// 073   ----------------------------------------
        BYTE   PATT
         POIN2  TemporalTower_2_11
// 074   ----------------------------------------
        BYTE   PATT
         POIN2  TemporalTower_2_12
// 075   ----------------------------------------
        BYTE           N92     En5   v095   gtp3
        BYTE   W96
// 076   ----------------------------------------
        BYTE   W96
// 077   ----------------------------------------
        BYTE   W96
// 078   ----------------------------------------
        BYTE   W96
// 079   ----------------------------------------
        BYTE   W96
// 080   ----------------------------------------
        BYTE   W96
// 081   ----------------------------------------
        BYTE   W96
// 082   ----------------------------------------
        BYTE   W96
// 083   ----------------------------------------
        BYTE   PATT
         POIN2  TemporalTower_2_7
// 084   ----------------------------------------
        BYTE   PATT
         POIN2  TemporalTower_2_6
// 085   ----------------------------------------
        BYTE   PATT
         POIN2  TemporalTower_2_7
// 086   ----------------------------------------
        BYTE   PATT
         POIN2  TemporalTower_2_8
// 087   ----------------------------------------
        BYTE   PATT
         POIN2  TemporalTower_2_7
// 088   ----------------------------------------
        BYTE   PATT
         POIN2  TemporalTower_2_6
// 089   ----------------------------------------
        BYTE   PATT
         POIN2  TemporalTower_2_11
// 090   ----------------------------------------
        BYTE   PATT
         POIN2  TemporalTower_2_12
// 091   ----------------------------------------
        BYTE   W96
// 092   ----------------------------------------
        BYTE   PATT
         POIN2  TemporalTower_2_30
// 093   ----------------------------------------
        BYTE   PATT
         POIN2  TemporalTower_2_31
// 094   ----------------------------------------
        BYTE   PATT
         POIN2  TemporalTower_2_32
// 095   ----------------------------------------
        BYTE           N92     Bn4   v095   gtp3
        BYTE   W96
// 096   ----------------------------------------
        BYTE   W96
// 097   ----------------------------------------
        BYTE   PATT
         POIN2  TemporalTower_2_31
// 098   ----------------------------------------
        BYTE   PATT
         POIN2  TemporalTower_2_32
// 099   ----------------------------------------
        BYTE           N92     Bn4   v095   gtp3
        BYTE   W96
// 100   ----------------------------------------
        BYTE   W96
// 101   ----------------------------------------
        BYTE   W96
// 102   ----------------------------------------
        BYTE   W96
// 103   ----------------------------------------
        BYTE   W96
// 104   ----------------------------------------
        BYTE   W96
// 105   ----------------------------------------
        BYTE   W96
// 106   ----------------------------------------
        BYTE   PATT
         POIN2  TemporalTower_2_44
// 107   ----------------------------------------
        BYTE   PATT
         POIN2  TemporalTower_2_7
// 108   ----------------------------------------
        BYTE   PATT
         POIN2  TemporalTower_2_6
// 109   ----------------------------------------
        BYTE   PATT
         POIN2  TemporalTower_2_7
// 110   ----------------------------------------
        BYTE   PATT
         POIN2  TemporalTower_2_8
// 111   ----------------------------------------
        BYTE   PATT
         POIN2  TemporalTower_2_7
// 112   ----------------------------------------
        BYTE   PATT
         POIN2  TemporalTower_2_6
// 113   ----------------------------------------
        BYTE   PATT
         POIN2  TemporalTower_2_11
// 114   ----------------------------------------
        BYTE   PATT
         POIN2  TemporalTower_2_12
// 115   ----------------------------------------
        BYTE   PATT
         POIN2  TemporalTower_2_11
// 116   ----------------------------------------
        BYTE   PATT
         POIN2  TemporalTower_2_12
// 117   ----------------------------------------
        BYTE   PATT
         POIN2  TemporalTower_2_11
// 118   ----------------------------------------
        BYTE   PATT
         POIN2  TemporalTower_2_12
// 119   ----------------------------------------
        BYTE   PATT
         POIN2  TemporalTower_2_11
// 120   ----------------------------------------
        BYTE   PATT
         POIN2  TemporalTower_2_12
// 121   ----------------------------------------
        BYTE   PATT
         POIN2  TemporalTower_2_7
// 122   ----------------------------------------
        BYTE   PATT
         POIN2  TemporalTower_2_6
// 123   ----------------------------------------
        BYTE   PATT
         POIN2  TemporalTower_2_7
// 124   ----------------------------------------
        BYTE   PATT
         POIN2  TemporalTower_2_8
// 125   ----------------------------------------
        BYTE   PATT
         POIN2  TemporalTower_2_7
// 126   ----------------------------------------
        BYTE   PATT
         POIN2  TemporalTower_2_6
// 127   ----------------------------------------
        BYTE   PATT
         POIN2  TemporalTower_2_7
// 128   ----------------------------------------
        BYTE   PATT
         POIN2  TemporalTower_2_8
// 129   ----------------------------------------
        BYTE   PATT
         POIN2  TemporalTower_2_7
// 130   ----------------------------------------
        BYTE   PATT
         POIN2  TemporalTower_2_6
// 131   ----------------------------------------
        BYTE   PATT
         POIN2  TemporalTower_2_7
// 132   ----------------------------------------
        BYTE   W06
        BYTE           N03     An3   v095
        BYTE   W05
        BYTE           PAN     c_v+20
        BYTE   W01
        BYTE           N03     An4
        BYTE   W05
        BYTE           PAN     c_v-20
        BYTE   W01
        BYTE           N03     Dn4
        BYTE   W05
        BYTE           PAN     c_v+20
        BYTE   W01
        BYTE           N03     En4
        BYTE   W05
        BYTE           PAN     c_v-20
        BYTE   W01
        BYTE           N03     An3
        BYTE   W05
        BYTE           PAN     c_v+20
        BYTE   W01
        BYTE           N03     Dn4
        BYTE   W05
        BYTE           PAN     c_v-20
        BYTE   W01
        BYTE           N03     Gn3
        BYTE   W05
        BYTE           PAN     c_v+20
        BYTE   W01
        BYTE           N03     An3
        BYTE   W05
        BYTE           PAN     c_v-20
        BYTE   W01
        BYTE           N03     En3
        BYTE   W05
        BYTE           PAN     c_v+20
        BYTE   W01
        BYTE           N03     Bn3
        BYTE   W05
        BYTE           PAN     c_v-20
        BYTE   W01
        BYTE           N03     En3
        BYTE   W05
        BYTE           PAN     c_v+20
        BYTE   W01
        BYTE           N03     Cn4
        BYTE   W05
        BYTE           PAN     c_v-20
        BYTE   W01
        BYTE           N03     En3
        BYTE   W05
        BYTE           PAN     c_v+0
        BYTE   W01
        BYTE           N11     Dn4
        BYTE   W11
        BYTE   FINE

//****************** Track 3 (Midi-Chn.3) ******************//

TemporalTower_3:
        BYTE   KEYSH   TemporalTower_key+0
// 000   ----------------------------------------
        BYTE   W24
// 001   ----------------------------------------
        BYTE           VOICE   48
        BYTE           VOL     57
        BYTE           TIE     An0   v100
        BYTE           TIE     An1   v080
        BYTE   W96
// 002   ----------------------------------------
        BYTE   W96
// 003   ----------------------------------------
        BYTE   W96
// 004   ----------------------------------------
TemporalTower_3_4:
        BYTE   W92
        BYTE   W03
        BYTE           EOT     An0
        BYTE                   An1
        BYTE   W01
        BYTE   PEND
// 005   ----------------------------------------
TemporalTower_3_LOOP:
        BYTE           N92     An3   v065   gtp3
        BYTE           TIE     An0   v100
        BYTE           TIE     An1   v080
        BYTE   W96
// 006   ----------------------------------------
        BYTE           N92     Bn3   v065   gtp3
        BYTE   W96
// 007   ----------------------------------------
        BYTE                   Cn4
        BYTE   W96
// 008   ----------------------------------------
TemporalTower_3_8:
        BYTE           N92     Dn4   v065   gtp3
        BYTE   W92
        BYTE   W03
        BYTE           EOT     An0
        BYTE                   An1
        BYTE   W01
        BYTE   PEND
// 009   ----------------------------------------
TemporalTower_3_9:
        BYTE           N92     An3   v065   gtp3
        BYTE           TIE     An0   v100
        BYTE           TIE     An1   v080
        BYTE   W96
        BYTE   PEND
// 010   ----------------------------------------
        BYTE           N92     Bn3   v065   gtp3
        BYTE   W96
// 011   ----------------------------------------
        BYTE                   Cn4
        BYTE   W96
// 012   ----------------------------------------
        BYTE   PATT
         POIN2  TemporalTower_3_8
// 013   ----------------------------------------
TemporalTower_3_13:
        BYTE           N92     An0   v100   gtp3
        BYTE                   An1   v080
        BYTE   W96
        BYTE   PEND
// 014   ----------------------------------------
TemporalTower_3_14:
        BYTE           N92     Bn0   v100   gtp3
        BYTE                   An1   v080
        BYTE   W96
        BYTE   PEND
// 015   ----------------------------------------
TemporalTower_3_15:
        BYTE           N92     Cn1   v100   gtp3
        BYTE                   Cn2   v080
        BYTE   W96
        BYTE   PEND
// 016   ----------------------------------------
TemporalTower_3_16:
        BYTE           N92     Dn1   v100   gtp3
        BYTE                   Bn1   v080
        BYTE   W96
        BYTE   PEND
// 017   ----------------------------------------
        BYTE   PATT
         POIN2  TemporalTower_3_13
// 018   ----------------------------------------
        BYTE   PATT
         POIN2  TemporalTower_3_14
// 019   ----------------------------------------
        BYTE   PATT
         POIN2  TemporalTower_3_15
// 020   ----------------------------------------
        BYTE   PATT
         POIN2  TemporalTower_3_16
// 021   ----------------------------------------
TemporalTower_3_21:
        BYTE           TIE     An0   v100
        BYTE           TIE     An1   v080
        BYTE           TIE     En2
        BYTE   W96
        BYTE   PEND
// 022   ----------------------------------------
TemporalTower_3_22:
        BYTE   W92
        BYTE   W03
        BYTE           EOT     An0
        BYTE                   An1
        BYTE                   En2
        BYTE   W01
        BYTE   PEND
// 023   ----------------------------------------
        BYTE   PATT
         POIN2  TemporalTower_3_21
// 024   ----------------------------------------
        BYTE   PATT
         POIN2  TemporalTower_3_22
// 025   ----------------------------------------
        BYTE   PATT
         POIN2  TemporalTower_3_21
// 026   ----------------------------------------
        BYTE   PATT
         POIN2  TemporalTower_3_22
// 027   ----------------------------------------
        BYTE   PATT
         POIN2  TemporalTower_3_21
// 028   ----------------------------------------
        BYTE   PATT
         POIN2  TemporalTower_3_22
// 029   ----------------------------------------
        BYTE   PATT
         POIN2  TemporalTower_3_15
// 030   ----------------------------------------
TemporalTower_3_30:
        BYTE           N92     Dn1   v100   gtp3
        BYTE                   Dn2   v080
        BYTE   W96
        BYTE   PEND
// 031   ----------------------------------------
TemporalTower_3_31:
        BYTE           N92     En1   v100   gtp3
        BYTE                   En2   v080
        BYTE   W96
        BYTE   PEND
// 032   ----------------------------------------
        BYTE   PATT
         POIN2  TemporalTower_3_30
// 033   ----------------------------------------
        BYTE   PATT
         POIN2  TemporalTower_3_15
// 034   ----------------------------------------
        BYTE   PATT
         POIN2  TemporalTower_3_30
// 035   ----------------------------------------
        BYTE   PATT
         POIN2  TemporalTower_3_31
// 036   ----------------------------------------
        BYTE   PATT
         POIN2  TemporalTower_3_30
// 037   ----------------------------------------
TemporalTower_3_37:
        BYTE           N92     An0   v100   gtp3
        BYTE                   An1   v080
        BYTE           TIE     En4   v065
        BYTE   W96
        BYTE   PEND
// 038   ----------------------------------------
        BYTE   PATT
         POIN2  TemporalTower_3_14
// 039   ----------------------------------------
        BYTE   PATT
         POIN2  TemporalTower_3_15
// 040   ----------------------------------------
TemporalTower_3_40:
        BYTE           N92     Dn1   v100   gtp3
        BYTE                   Bn1   v080
        BYTE   W44
        BYTE   W03
        BYTE           EOT     En4
        BYTE   W24
        BYTE   W01
        BYTE           N23     Dn4   v065
        BYTE   W24
        BYTE   PEND
// 041   ----------------------------------------
        BYTE   PATT
         POIN2  TemporalTower_3_37
// 042   ----------------------------------------
        BYTE   PATT
         POIN2  TemporalTower_3_14
// 043   ----------------------------------------
        BYTE   PATT
         POIN2  TemporalTower_3_15
// 044   ----------------------------------------
        BYTE   PATT
         POIN2  TemporalTower_3_40
// 045   ----------------------------------------
        BYTE   PATT
         POIN2  TemporalTower_3_21
// 046   ----------------------------------------
        BYTE   PATT
         POIN2  TemporalTower_3_22
// 047   ----------------------------------------
        BYTE   PATT
         POIN2  TemporalTower_3_21
// 048   ----------------------------------------
        BYTE   PATT
         POIN2  TemporalTower_3_22
// 049   ----------------------------------------
        BYTE   PATT
         POIN2  TemporalTower_3_21
// 050   ----------------------------------------
        BYTE   PATT
         POIN2  TemporalTower_3_22
// 051   ----------------------------------------
TemporalTower_3_51:
        BYTE           TIE     Fn0   v100
        BYTE           TIE     Fn1   v080
        BYTE           TIE     Cn2
        BYTE   W96
        BYTE   PEND
// 052   ----------------------------------------
TemporalTower_3_52:
        BYTE   W92
        BYTE   W03
        BYTE           EOT     Fn0
        BYTE                   Fn1
        BYTE                   Cn2
        BYTE   W01
        BYTE   PEND
// 053   ----------------------------------------
TemporalTower_3_53:
        BYTE           TIE     Gn0   v100
        BYTE           TIE     Gn1   v080
        BYTE           TIE     Dn2
        BYTE   W96
        BYTE   PEND
// 054   ----------------------------------------
TemporalTower_3_54:
        BYTE   W92
        BYTE   W03
        BYTE           EOT     Gn0
        BYTE                   Gn1
        BYTE                   Dn2
        BYTE   W01
        BYTE   PEND
// 055   ----------------------------------------
        BYTE   PATT
         POIN2  TemporalTower_3_51
// 056   ----------------------------------------
        BYTE   PATT
         POIN2  TemporalTower_3_52
// 057   ----------------------------------------
        BYTE   PATT
         POIN2  TemporalTower_3_53
// 058   ----------------------------------------
        BYTE   PATT
         POIN2  TemporalTower_3_54
// 059   ----------------------------------------
TemporalTower_3_59:
        BYTE           TIE     An0   v100
        BYTE           TIE     An1   v080
        BYTE   W96
        BYTE   PEND
// 060   ----------------------------------------
        BYTE   W96
// 061   ----------------------------------------
        BYTE   W96
// 062   ----------------------------------------
        BYTE   PATT
         POIN2  TemporalTower_3_4
// 063   ----------------------------------------
        BYTE   PATT
         POIN2  TemporalTower_3_59
// 064   ----------------------------------------
        BYTE   W96
// 065   ----------------------------------------
        BYTE   W96
// 066   ----------------------------------------
        BYTE   PATT
         POIN2  TemporalTower_3_4
// 067   ----------------------------------------
        BYTE           N92     An3   v065   gtp3
        BYTE           TIE     An0   v100
        BYTE           TIE     An1   v080
        BYTE   GoTo
         POIN2  TemporalTower_3_LOOP
        BYTE   W96
// 068   ----------------------------------------
        BYTE           N92     Bn3   v065   gtp3
        BYTE   W96
// 069   ----------------------------------------
        BYTE                   Cn4
        BYTE   W96
// 070   ----------------------------------------
        BYTE   PATT
         POIN2  TemporalTower_3_8
// 071   ----------------------------------------
        BYTE   PATT
         POIN2  TemporalTower_3_9
// 072   ----------------------------------------
        BYTE           N92     Bn3   v065   gtp3
        BYTE   W96
// 073   ----------------------------------------
        BYTE                   Cn4
        BYTE   W96
// 074   ----------------------------------------
        BYTE   PATT
         POIN2  TemporalTower_3_8
// 075   ----------------------------------------
        BYTE   PATT
         POIN2  TemporalTower_3_13
// 076   ----------------------------------------
        BYTE   PATT
         POIN2  TemporalTower_3_14
// 077   ----------------------------------------
        BYTE   PATT
         POIN2  TemporalTower_3_15
// 078   ----------------------------------------
        BYTE   PATT
         POIN2  TemporalTower_3_16
// 079   ----------------------------------------
        BYTE   PATT
         POIN2  TemporalTower_3_13
// 080   ----------------------------------------
        BYTE   PATT
         POIN2  TemporalTower_3_14
// 081   ----------------------------------------
        BYTE   PATT
         POIN2  TemporalTower_3_15
// 082   ----------------------------------------
        BYTE   PATT
         POIN2  TemporalTower_3_16
// 083   ----------------------------------------
        BYTE   PATT
         POIN2  TemporalTower_3_21
// 084   ----------------------------------------
        BYTE   PATT
         POIN2  TemporalTower_3_22
// 085   ----------------------------------------
        BYTE   PATT
         POIN2  TemporalTower_3_21
// 086   ----------------------------------------
        BYTE   PATT
         POIN2  TemporalTower_3_22
// 087   ----------------------------------------
        BYTE   PATT
         POIN2  TemporalTower_3_21
// 088   ----------------------------------------
        BYTE   PATT
         POIN2  TemporalTower_3_22
// 089   ----------------------------------------
        BYTE   PATT
         POIN2  TemporalTower_3_21
// 090   ----------------------------------------
        BYTE   PATT
         POIN2  TemporalTower_3_22
// 091   ----------------------------------------
        BYTE   PATT
         POIN2  TemporalTower_3_15
// 092   ----------------------------------------
        BYTE   PATT
         POIN2  TemporalTower_3_30
// 093   ----------------------------------------
        BYTE   PATT
         POIN2  TemporalTower_3_31
// 094   ----------------------------------------
        BYTE   PATT
         POIN2  TemporalTower_3_30
// 095   ----------------------------------------
        BYTE   PATT
         POIN2  TemporalTower_3_15
// 096   ----------------------------------------
        BYTE   PATT
         POIN2  TemporalTower_3_30
// 097   ----------------------------------------
        BYTE   PATT
         POIN2  TemporalTower_3_31
// 098   ----------------------------------------
        BYTE   PATT
         POIN2  TemporalTower_3_30
// 099   ----------------------------------------
        BYTE   PATT
         POIN2  TemporalTower_3_37
// 100   ----------------------------------------
        BYTE   PATT
         POIN2  TemporalTower_3_14
// 101   ----------------------------------------
        BYTE   PATT
         POIN2  TemporalTower_3_15
// 102   ----------------------------------------
        BYTE   PATT
         POIN2  TemporalTower_3_40
// 103   ----------------------------------------
        BYTE   PATT
         POIN2  TemporalTower_3_37
// 104   ----------------------------------------
        BYTE   PATT
         POIN2  TemporalTower_3_14
// 105   ----------------------------------------
        BYTE   PATT
         POIN2  TemporalTower_3_15
// 106   ----------------------------------------
        BYTE   PATT
         POIN2  TemporalTower_3_40
// 107   ----------------------------------------
        BYTE   PATT
         POIN2  TemporalTower_3_21
// 108   ----------------------------------------
        BYTE   PATT
         POIN2  TemporalTower_3_22
// 109   ----------------------------------------
        BYTE   PATT
         POIN2  TemporalTower_3_21
// 110   ----------------------------------------
        BYTE   PATT
         POIN2  TemporalTower_3_22
// 111   ----------------------------------------
        BYTE   PATT
         POIN2  TemporalTower_3_21
// 112   ----------------------------------------
        BYTE   PATT
         POIN2  TemporalTower_3_22
// 113   ----------------------------------------
        BYTE   PATT
         POIN2  TemporalTower_3_51
// 114   ----------------------------------------
        BYTE   PATT
         POIN2  TemporalTower_3_52
// 115   ----------------------------------------
        BYTE   PATT
         POIN2  TemporalTower_3_53
// 116   ----------------------------------------
        BYTE   PATT
         POIN2  TemporalTower_3_54
// 117   ----------------------------------------
        BYTE   PATT
         POIN2  TemporalTower_3_51
// 118   ----------------------------------------
        BYTE   PATT
         POIN2  TemporalTower_3_52
// 119   ----------------------------------------
        BYTE   PATT
         POIN2  TemporalTower_3_53
// 120   ----------------------------------------
        BYTE   PATT
         POIN2  TemporalTower_3_54
// 121   ----------------------------------------
        BYTE   PATT
         POIN2  TemporalTower_3_59
// 122   ----------------------------------------
        BYTE   W96
// 123   ----------------------------------------
        BYTE   W96
// 124   ----------------------------------------
        BYTE   PATT
         POIN2  TemporalTower_3_4
// 125   ----------------------------------------
        BYTE   PATT
         POIN2  TemporalTower_3_59
// 126   ----------------------------------------
        BYTE   W96
// 127   ----------------------------------------
        BYTE   W96
// 128   ----------------------------------------
        BYTE   PATT
         POIN2  TemporalTower_3_4
// 129   ----------------------------------------
        BYTE   PATT
         POIN2  TemporalTower_3_9
// 130   ----------------------------------------
        BYTE           N92     Bn3   v065   gtp3
        BYTE   W96
// 131   ----------------------------------------
        BYTE                   Cn4
        BYTE   W96
// 132   ----------------------------------------
        BYTE                   Dn4
        BYTE   W92
        BYTE   W03
        BYTE           EOT     An0
        BYTE                   An1
        BYTE   FINE

//****************** Track 4 (Midi-Chn.4) ******************//

TemporalTower_4:
        BYTE   KEYSH   TemporalTower_key+0
// 000   ----------------------------------------
        BYTE   W24
// 001   ----------------------------------------
        BYTE           VOICE   48
        BYTE           VOL     45
        BYTE           PAN     c_v-30
        BYTE   W96
// 002   ----------------------------------------
        BYTE   W96
// 003   ----------------------------------------
        BYTE   W96
// 004   ----------------------------------------
        BYTE   W96
// 005   ----------------------------------------
TemporalTower_4_LOOP:
        BYTE           N92     An2   v080   gtp3
        BYTE                   En3
        BYTE   W96
// 006   ----------------------------------------
TemporalTower_4_6:
        BYTE           N92     Bn2   v080   gtp3
        BYTE                   Gn3
        BYTE   W96
        BYTE   PEND
// 007   ----------------------------------------
TemporalTower_4_7:
        BYTE           N92     Cn3   v080   gtp3
        BYTE                   Gn3
        BYTE   W96
        BYTE   PEND
// 008   ----------------------------------------
        BYTE   PATT
         POIN2  TemporalTower_4_6
// 009   ----------------------------------------
TemporalTower_4_9:
        BYTE           N92     An2   v080   gtp3
        BYTE                   En3
        BYTE   W96
        BYTE   PEND
// 010   ----------------------------------------
        BYTE   PATT
         POIN2  TemporalTower_4_6
// 011   ----------------------------------------
        BYTE   PATT
         POIN2  TemporalTower_4_7
// 012   ----------------------------------------
        BYTE   PATT
         POIN2  TemporalTower_4_6
// 013   ----------------------------------------
TemporalTower_4_13:
        BYTE           N68     Gn2   v095   gtp3
        BYTE                   En3
        BYTE   W72
        BYTE           N23     Dn3
        BYTE           N23     Gn3
        BYTE   W24
        BYTE   PEND
// 014   ----------------------------------------
TemporalTower_4_14:
        BYTE           N68     Dn3   v095   gtp3
        BYTE                   Fs3
        BYTE   W72
        BYTE           N23     Dn3
        BYTE           N23     An3
        BYTE   W24
        BYTE   PEND
// 015   ----------------------------------------
TemporalTower_4_15:
        BYTE           N68     Cn3   v095   gtp3
        BYTE                   Gn3
        BYTE   W72
        BYTE           N23     En3
        BYTE           N23     Bn3
        BYTE   W24
        BYTE   PEND
// 016   ----------------------------------------
TemporalTower_4_16:
        BYTE           N44     Dn3   v095   gtp3
        BYTE                   An3
        BYTE   W48
        BYTE                   Fs3
        BYTE           N44     Dn4   v095   gtp3
        BYTE   W48
        BYTE   PEND
// 017   ----------------------------------------
        BYTE   PATT
         POIN2  TemporalTower_4_13
// 018   ----------------------------------------
        BYTE   PATT
         POIN2  TemporalTower_4_14
// 019   ----------------------------------------
        BYTE   PATT
         POIN2  TemporalTower_4_15
// 020   ----------------------------------------
        BYTE   PATT
         POIN2  TemporalTower_4_16
// 021   ----------------------------------------
TemporalTower_4_21:
        BYTE           TIE     Dn3   v085
        BYTE           TIE     Gn3
        BYTE   W96
        BYTE   PEND
// 022   ----------------------------------------
TemporalTower_4_22:
        BYTE   W44
        BYTE   W03
        BYTE           EOT     Dn3
        BYTE                   Gn3
        BYTE   W24
        BYTE   W01
        BYTE           N14     Bn2   v100
        BYTE           N14     Fs3
        BYTE   W24
        BYTE   PEND
// 023   ----------------------------------------
        BYTE   PATT
         POIN2  TemporalTower_4_21
// 024   ----------------------------------------
        BYTE   PATT
         POIN2  TemporalTower_4_22
// 025   ----------------------------------------
        BYTE   PATT
         POIN2  TemporalTower_4_21
// 026   ----------------------------------------
        BYTE   PATT
         POIN2  TemporalTower_4_22
// 027   ----------------------------------------
        BYTE   PATT
         POIN2  TemporalTower_4_21
// 028   ----------------------------------------
        BYTE   PATT
         POIN2  TemporalTower_4_22
// 029   ----------------------------------------
TemporalTower_4_29:
        BYTE           N44     Bn2   v095   gtp3
        BYTE                   Gn3
        BYTE   W48
        BYTE                   Bn2
        BYTE           N44     Gn3   v095   gtp3
        BYTE   W48
        BYTE   PEND
// 030   ----------------------------------------
TemporalTower_4_30:
        BYTE           N44     Bn2   v095   gtp3
        BYTE                   Fs3
        BYTE   W48
        BYTE                   An2
        BYTE           N44     An3   v095   gtp3
        BYTE   W48
        BYTE   PEND
// 031   ----------------------------------------
TemporalTower_4_31:
        BYTE           N44     Bn2   v095   gtp3
        BYTE                   Gn3
        BYTE   W48
        BYTE                   An2
        BYTE           N44     Dn4   v095   gtp3
        BYTE   W48
        BYTE   PEND
// 032   ----------------------------------------
TemporalTower_4_32:
        BYTE           N44     Bn2   v095   gtp3
        BYTE                   An3
        BYTE   W48
        BYTE                   Bn2
        BYTE           N44     Fs3   v095   gtp3
        BYTE   W48
        BYTE   PEND
// 033   ----------------------------------------
        BYTE   PATT
         POIN2  TemporalTower_4_29
// 034   ----------------------------------------
        BYTE   PATT
         POIN2  TemporalTower_4_30
// 035   ----------------------------------------
TemporalTower_4_35:
        BYTE           N44     An2   v095   gtp3
        BYTE                   Gn3
        BYTE   W48
        BYTE                   An2
        BYTE           N44     Dn4   v095   gtp3
        BYTE   W48
        BYTE   PEND
// 036   ----------------------------------------
        BYTE   PATT
         POIN2  TemporalTower_4_32
// 037   ----------------------------------------
        BYTE   PATT
         POIN2  TemporalTower_4_13
// 038   ----------------------------------------
        BYTE   PATT
         POIN2  TemporalTower_4_14
// 039   ----------------------------------------
        BYTE   PATT
         POIN2  TemporalTower_4_15
// 040   ----------------------------------------
        BYTE   PATT
         POIN2  TemporalTower_4_16
// 041   ----------------------------------------
        BYTE   PATT
         POIN2  TemporalTower_4_13
// 042   ----------------------------------------
        BYTE   PATT
         POIN2  TemporalTower_4_14
// 043   ----------------------------------------
        BYTE   PATT
         POIN2  TemporalTower_4_15
// 044   ----------------------------------------
        BYTE   PATT
         POIN2  TemporalTower_4_16
// 045   ----------------------------------------
TemporalTower_4_45:
        BYTE           TIE     Dn3   v090
        BYTE           TIE     Gn3
        BYTE   W96
        BYTE   PEND
// 046   ----------------------------------------
TemporalTower_4_46:
        BYTE   W44
        BYTE   W03
        BYTE           EOT     Dn3
        BYTE                   Gn3
        BYTE   W24
        BYTE   W01
        BYTE           N14     Bn2   v105
        BYTE           N14     Fs3
        BYTE   W24
        BYTE   PEND
// 047   ----------------------------------------
        BYTE   PATT
         POIN2  TemporalTower_4_45
// 048   ----------------------------------------
        BYTE   PATT
         POIN2  TemporalTower_4_46
// 049   ----------------------------------------
        BYTE   PATT
         POIN2  TemporalTower_4_45
// 050   ----------------------------------------
        BYTE   PATT
         POIN2  TemporalTower_4_46
// 051   ----------------------------------------
        BYTE           TIE     Cn3   v090
        BYTE   W96
// 052   ----------------------------------------
        BYTE   W92
        BYTE   W03
        BYTE           EOT
        BYTE   W01
// 053   ----------------------------------------
        BYTE           TIE     An2
        BYTE   W96
// 054   ----------------------------------------
        BYTE   W92
        BYTE   W03
        BYTE           EOT
        BYTE   W01
// 055   ----------------------------------------
        BYTE           TIE     Cn3
        BYTE   W96
// 056   ----------------------------------------
        BYTE   W92
        BYTE   W03
        BYTE           EOT
        BYTE   W01
// 057   ----------------------------------------
        BYTE           TIE     An2
        BYTE   W96
// 058   ----------------------------------------
        BYTE   W92
        BYTE   W03
        BYTE           EOT
        BYTE   W01
// 059   ----------------------------------------
TemporalTower_4_59:
        BYTE           VOL     43
        BYTE           TIE     Cn3   v090
        BYTE   W21
        BYTE           VOL     42
        BYTE   W09
        BYTE                   41
        BYTE   W09
        BYTE                   40
        BYTE   W18
        BYTE                   39
        BYTE   W10
        BYTE                   38
        BYTE   W14
        BYTE                   37
        BYTE   W13
        BYTE                   36
        BYTE   W02
        BYTE   PEND
// 060   ----------------------------------------
TemporalTower_4_60:
        BYTE   W03
        BYTE           VOL     35
        BYTE   W04
        BYTE                   34
        BYTE   W08
        BYTE                   33
        BYTE   W04
        BYTE                   32
        BYTE   W08
        BYTE                   31
        BYTE   W04
        BYTE                   30
        BYTE   W06
        BYTE                   29
        BYTE   W03
        BYTE                   28
        BYTE   W05
        BYTE                   27
        BYTE   W03
        BYTE                   26
        BYTE   W04
        BYTE                   25
        BYTE   W02
        BYTE                   24
        BYTE   W04
        BYTE                   23
        BYTE   W03
        BYTE                   22
        BYTE   W02
        BYTE                   21
        BYTE   W01
        BYTE                   20
        BYTE   W02
        BYTE                   19
        BYTE   W01
        BYTE                   18
        BYTE   W03
        BYTE                   16
        BYTE   W03
        BYTE                   14
        BYTE   W05
        BYTE                   12
        BYTE   W01
        BYTE                   11
        BYTE   W02
        BYTE                   10
        BYTE   W01
        BYTE                   9
        BYTE   W05
        BYTE                   7
        BYTE   W01
        BYTE                   6
        BYTE   W02
        BYTE                   5
        BYTE   W01
        BYTE                   4
        BYTE   W04
        BYTE           EOT     Cn3
        BYTE   W01
        BYTE   PEND
// 061   ----------------------------------------
        BYTE   W92
        BYTE   W03
        BYTE           VOL     45
        BYTE   W01
// 062   ----------------------------------------
        BYTE   W96
// 063   ----------------------------------------
        BYTE   W96
// 064   ----------------------------------------
        BYTE   W96
// 065   ----------------------------------------
        BYTE   W96
// 066   ----------------------------------------
        BYTE   W96
// 067   ----------------------------------------
        BYTE           N92     An2   v080   gtp3
        BYTE                   En3
        BYTE   GoTo
         POIN2  TemporalTower_4_LOOP
        BYTE   W96
// 068   ----------------------------------------
        BYTE   PATT
         POIN2  TemporalTower_4_6
// 069   ----------------------------------------
        BYTE   PATT
         POIN2  TemporalTower_4_7
// 070   ----------------------------------------
        BYTE   PATT
         POIN2  TemporalTower_4_6
// 071   ----------------------------------------
        BYTE   PATT
         POIN2  TemporalTower_4_9
// 072   ----------------------------------------
        BYTE   PATT
         POIN2  TemporalTower_4_6
// 073   ----------------------------------------
        BYTE   PATT
         POIN2  TemporalTower_4_7
// 074   ----------------------------------------
        BYTE   PATT
         POIN2  TemporalTower_4_6
// 075   ----------------------------------------
        BYTE   PATT
         POIN2  TemporalTower_4_13
// 076   ----------------------------------------
        BYTE   PATT
         POIN2  TemporalTower_4_14
// 077   ----------------------------------------
        BYTE   PATT
         POIN2  TemporalTower_4_15
// 078   ----------------------------------------
        BYTE   PATT
         POIN2  TemporalTower_4_16
// 079   ----------------------------------------
        BYTE   PATT
         POIN2  TemporalTower_4_13
// 080   ----------------------------------------
        BYTE   PATT
         POIN2  TemporalTower_4_14
// 081   ----------------------------------------
        BYTE   PATT
         POIN2  TemporalTower_4_15
// 082   ----------------------------------------
        BYTE   PATT
         POIN2  TemporalTower_4_16
// 083   ----------------------------------------
        BYTE   PATT
         POIN2  TemporalTower_4_21
// 084   ----------------------------------------
        BYTE   PATT
         POIN2  TemporalTower_4_22
// 085   ----------------------------------------
        BYTE   PATT
         POIN2  TemporalTower_4_21
// 086   ----------------------------------------
        BYTE   PATT
         POIN2  TemporalTower_4_22
// 087   ----------------------------------------
        BYTE   PATT
         POIN2  TemporalTower_4_21
// 088   ----------------------------------------
        BYTE   PATT
         POIN2  TemporalTower_4_22
// 089   ----------------------------------------
        BYTE   PATT
         POIN2  TemporalTower_4_21
// 090   ----------------------------------------
        BYTE   PATT
         POIN2  TemporalTower_4_22
// 091   ----------------------------------------
        BYTE   PATT
         POIN2  TemporalTower_4_29
// 092   ----------------------------------------
        BYTE   PATT
         POIN2  TemporalTower_4_30
// 093   ----------------------------------------
        BYTE   PATT
         POIN2  TemporalTower_4_31
// 094   ----------------------------------------
        BYTE   PATT
         POIN2  TemporalTower_4_32
// 095   ----------------------------------------
        BYTE   PATT
         POIN2  TemporalTower_4_29
// 096   ----------------------------------------
        BYTE   PATT
         POIN2  TemporalTower_4_30
// 097   ----------------------------------------
        BYTE   PATT
         POIN2  TemporalTower_4_35
// 098   ----------------------------------------
        BYTE   PATT
         POIN2  TemporalTower_4_32
// 099   ----------------------------------------
        BYTE   PATT
         POIN2  TemporalTower_4_13
// 100   ----------------------------------------
        BYTE   PATT
         POIN2  TemporalTower_4_14
// 101   ----------------------------------------
        BYTE   PATT
         POIN2  TemporalTower_4_15
// 102   ----------------------------------------
        BYTE   PATT
         POIN2  TemporalTower_4_16
// 103   ----------------------------------------
        BYTE   PATT
         POIN2  TemporalTower_4_13
// 104   ----------------------------------------
        BYTE   PATT
         POIN2  TemporalTower_4_14
// 105   ----------------------------------------
        BYTE   PATT
         POIN2  TemporalTower_4_15
// 106   ----------------------------------------
        BYTE   PATT
         POIN2  TemporalTower_4_16
// 107   ----------------------------------------
        BYTE   PATT
         POIN2  TemporalTower_4_45
// 108   ----------------------------------------
        BYTE   PATT
         POIN2  TemporalTower_4_46
// 109   ----------------------------------------
        BYTE   PATT
         POIN2  TemporalTower_4_45
// 110   ----------------------------------------
        BYTE   PATT
         POIN2  TemporalTower_4_46
// 111   ----------------------------------------
        BYTE   PATT
         POIN2  TemporalTower_4_45
// 112   ----------------------------------------
        BYTE   PATT
         POIN2  TemporalTower_4_46
// 113   ----------------------------------------
        BYTE           TIE     Cn3   v090
        BYTE   W96
// 114   ----------------------------------------
        BYTE   W92
        BYTE   W03
        BYTE           EOT
        BYTE   W01
// 115   ----------------------------------------
        BYTE           TIE     An2
        BYTE   W96
// 116   ----------------------------------------
        BYTE   W92
        BYTE   W03
        BYTE           EOT
        BYTE   W01
// 117   ----------------------------------------
        BYTE           TIE     Cn3
        BYTE   W96
// 118   ----------------------------------------
        BYTE   W92
        BYTE   W03
        BYTE           EOT
        BYTE   W01
// 119   ----------------------------------------
        BYTE           TIE     An2
        BYTE   W96
// 120   ----------------------------------------
        BYTE   W92
        BYTE   W03
        BYTE           EOT
        BYTE   W01
// 121   ----------------------------------------
        BYTE   PATT
         POIN2  TemporalTower_4_59
// 122   ----------------------------------------
        BYTE   PATT
         POIN2  TemporalTower_4_60
// 123   ----------------------------------------
        BYTE   W92
        BYTE   W03
        BYTE           VOL     45
        BYTE   W01
// 124   ----------------------------------------
        BYTE   W96
// 125   ----------------------------------------
        BYTE   W96
// 126   ----------------------------------------
        BYTE   W96
// 127   ----------------------------------------
        BYTE   W96
// 128   ----------------------------------------
        BYTE   W96
// 129   ----------------------------------------
        BYTE   PATT
         POIN2  TemporalTower_4_9
// 130   ----------------------------------------
        BYTE   PATT
         POIN2  TemporalTower_4_6
// 131   ----------------------------------------
        BYTE   PATT
         POIN2  TemporalTower_4_7
// 132   ----------------------------------------
        BYTE           N92     Bn2   v080   gtp3
        BYTE                   Gn3
        BYTE   W92
        BYTE   W03
        BYTE   FINE

//****************** Track 5 (Midi-Chn.5) ******************//

TemporalTower_5:
        BYTE   KEYSH   TemporalTower_key+0
// 000   ----------------------------------------
        BYTE   W24
// 001   ----------------------------------------
        BYTE           VOICE   48
        BYTE           VOL     45
        BYTE           PAN     c_v+30
        BYTE   W96
// 002   ----------------------------------------
        BYTE   W96
// 003   ----------------------------------------
        BYTE   W96
// 004   ----------------------------------------
        BYTE   W96
// 005   ----------------------------------------
TemporalTower_5_LOOP:
        BYTE           N92     En2   v080   gtp3
        BYTE                   Dn3
        BYTE   W96
// 006   ----------------------------------------
TemporalTower_5_6:
        BYTE           N92     En2   v080   gtp3
        BYTE                   Dn3
        BYTE   W96
        BYTE   PEND
// 007   ----------------------------------------
TemporalTower_5_7:
        BYTE           N92     Fn2   v080   gtp3
        BYTE                   En3
        BYTE   W96
        BYTE   PEND
// 008   ----------------------------------------
TemporalTower_5_8:
        BYTE           N92     Gn2   v080   gtp3
        BYTE                   En3
        BYTE   W96
        BYTE   PEND
// 009   ----------------------------------------
        BYTE   PATT
         POIN2  TemporalTower_5_6
// 010   ----------------------------------------
        BYTE   PATT
         POIN2  TemporalTower_5_6
// 011   ----------------------------------------
        BYTE   PATT
         POIN2  TemporalTower_5_7
// 012   ----------------------------------------
        BYTE   PATT
         POIN2  TemporalTower_5_8
// 013   ----------------------------------------
TemporalTower_5_13:
        BYTE           N68     En2   v095   gtp3
        BYTE                   Bn2
        BYTE   W72
        BYTE           N23     An2
        BYTE           N23     En3
        BYTE   W24
        BYTE   PEND
// 014   ----------------------------------------
TemporalTower_5_14:
        BYTE           N68     An2   v095   gtp3
        BYTE                   En3
        BYTE   W72
        BYTE           N23     Bn2
        BYTE           N23     Fs3
        BYTE   W24
        BYTE   PEND
// 015   ----------------------------------------
TemporalTower_5_15:
        BYTE           N68     Gn2   v095   gtp3
        BYTE                   Dn3
        BYTE   W72
        BYTE           N23     Cn3
        BYTE           N23     Gn3
        BYTE   W24
        BYTE   PEND
// 016   ----------------------------------------
TemporalTower_5_16:
        BYTE           N44     Bn2   v095   gtp3
        BYTE                   Fs3
        BYTE   W48
        BYTE                   Dn3
        BYTE           N44     An3   v095   gtp3
        BYTE   W48
        BYTE   PEND
// 017   ----------------------------------------
        BYTE   PATT
         POIN2  TemporalTower_5_13
// 018   ----------------------------------------
        BYTE   PATT
         POIN2  TemporalTower_5_14
// 019   ----------------------------------------
        BYTE   PATT
         POIN2  TemporalTower_5_15
// 020   ----------------------------------------
        BYTE   PATT
         POIN2  TemporalTower_5_16
// 021   ----------------------------------------
TemporalTower_5_21:
        BYTE           TIE     En3   v085
        BYTE           TIE     Bn3
        BYTE   W96
        BYTE   PEND
// 022   ----------------------------------------
TemporalTower_5_22:
        BYTE   W44
        BYTE   W03
        BYTE           EOT     En3
        BYTE                   Bn3
        BYTE   W24
        BYTE   W01
        BYTE           N14     Dn3   v100
        BYTE           N14     An3
        BYTE   W24
        BYTE   PEND
// 023   ----------------------------------------
        BYTE   PATT
         POIN2  TemporalTower_5_21
// 024   ----------------------------------------
        BYTE   PATT
         POIN2  TemporalTower_5_22
// 025   ----------------------------------------
        BYTE   PATT
         POIN2  TemporalTower_5_21
// 026   ----------------------------------------
        BYTE   PATT
         POIN2  TemporalTower_5_22
// 027   ----------------------------------------
        BYTE   PATT
         POIN2  TemporalTower_5_21
// 028   ----------------------------------------
        BYTE   PATT
         POIN2  TemporalTower_5_22
// 029   ----------------------------------------
TemporalTower_5_29:
        BYTE           N44     En3   v095   gtp3
        BYTE                   Bn3
        BYTE   W48
        BYTE                   En3
        BYTE           N44     Bn3   v095   gtp3
        BYTE   W48
        BYTE   PEND
// 030   ----------------------------------------
TemporalTower_5_30:
        BYTE           N44     Dn3   v095   gtp3
        BYTE                   An3
        BYTE   W48
        BYTE                   En3
        BYTE           N44     Dn4   v095   gtp3
        BYTE   W48
        BYTE   PEND
// 031   ----------------------------------------
TemporalTower_5_31:
        BYTE           N44     En3   v095   gtp3
        BYTE                   Bn3
        BYTE   W48
        BYTE                   En3
        BYTE           N44     Gn4   v095   gtp3
        BYTE   W48
        BYTE   PEND
// 032   ----------------------------------------
TemporalTower_5_32:
        BYTE           N44     Dn3   v095   gtp3
        BYTE                   Fs4
        BYTE   W48
        BYTE                   Dn3
        BYTE           N44     Dn4   v095   gtp3
        BYTE   W48
        BYTE   PEND
// 033   ----------------------------------------
        BYTE   PATT
         POIN2  TemporalTower_5_29
// 034   ----------------------------------------
        BYTE   PATT
         POIN2  TemporalTower_5_30
// 035   ----------------------------------------
TemporalTower_5_35:
        BYTE           N44     Dn3   v095   gtp3
        BYTE                   Bn3
        BYTE   W48
        BYTE                   En3
        BYTE           N44     Gn4   v095   gtp3
        BYTE   W48
        BYTE   PEND
// 036   ----------------------------------------
        BYTE   PATT
         POIN2  TemporalTower_5_32
// 037   ----------------------------------------
        BYTE   PATT
         POIN2  TemporalTower_5_13
// 038   ----------------------------------------
        BYTE   PATT
         POIN2  TemporalTower_5_14
// 039   ----------------------------------------
        BYTE   PATT
         POIN2  TemporalTower_5_15
// 040   ----------------------------------------
        BYTE   PATT
         POIN2  TemporalTower_5_16
// 041   ----------------------------------------
        BYTE   PATT
         POIN2  TemporalTower_5_13
// 042   ----------------------------------------
        BYTE   PATT
         POIN2  TemporalTower_5_14
// 043   ----------------------------------------
        BYTE   PATT
         POIN2  TemporalTower_5_15
// 044   ----------------------------------------
        BYTE   PATT
         POIN2  TemporalTower_5_16
// 045   ----------------------------------------
TemporalTower_5_45:
        BYTE           TIE     En3   v090
        BYTE           TIE     Bn3
        BYTE   W96
        BYTE   PEND
// 046   ----------------------------------------
TemporalTower_5_46:
        BYTE   W44
        BYTE   W03
        BYTE           EOT     En3
        BYTE                   Bn3
        BYTE   W24
        BYTE   W01
        BYTE           N14     Dn3   v105
        BYTE           N14     An3
        BYTE   W24
        BYTE   PEND
// 047   ----------------------------------------
        BYTE   PATT
         POIN2  TemporalTower_5_45
// 048   ----------------------------------------
        BYTE   PATT
         POIN2  TemporalTower_5_46
// 049   ----------------------------------------
        BYTE   PATT
         POIN2  TemporalTower_5_45
// 050   ----------------------------------------
        BYTE   PATT
         POIN2  TemporalTower_5_46
// 051   ----------------------------------------
        BYTE           TIE     En3   v090
        BYTE   W96
// 052   ----------------------------------------
        BYTE   W92
        BYTE   W03
        BYTE           EOT
        BYTE   W01
// 053   ----------------------------------------
        BYTE           TIE     Dn3
        BYTE   W96
// 054   ----------------------------------------
        BYTE   W92
        BYTE   W03
        BYTE           EOT
        BYTE   W01
// 055   ----------------------------------------
        BYTE           TIE     En3
        BYTE   W96
// 056   ----------------------------------------
        BYTE   W92
        BYTE   W03
        BYTE           EOT
        BYTE   W01
// 057   ----------------------------------------
        BYTE           TIE     Dn3
        BYTE   W96
// 058   ----------------------------------------
        BYTE   W92
        BYTE   W03
        BYTE           EOT
        BYTE   W01
// 059   ----------------------------------------
TemporalTower_5_59:
        BYTE           VOL     43
        BYTE           TIE     An3   v090
        BYTE   W21
        BYTE           VOL     42
        BYTE   W09
        BYTE                   41
        BYTE   W09
        BYTE                   40
        BYTE   W18
        BYTE                   39
        BYTE   W10
        BYTE                   38
        BYTE   W14
        BYTE                   37
        BYTE   W13
        BYTE                   36
        BYTE   W02
        BYTE   PEND
// 060   ----------------------------------------
TemporalTower_5_60:
        BYTE   W03
        BYTE           VOL     35
        BYTE   W04
        BYTE                   34
        BYTE   W08
        BYTE                   33
        BYTE   W04
        BYTE                   32
        BYTE   W08
        BYTE                   31
        BYTE   W04
        BYTE                   30
        BYTE   W06
        BYTE                   29
        BYTE   W03
        BYTE                   28
        BYTE   W05
        BYTE                   27
        BYTE   W03
        BYTE                   26
        BYTE   W04
        BYTE                   25
        BYTE   W02
        BYTE                   24
        BYTE   W04
        BYTE                   23
        BYTE   W03
        BYTE                   22
        BYTE   W02
        BYTE                   21
        BYTE   W01
        BYTE                   20
        BYTE   W02
        BYTE                   19
        BYTE   W01
        BYTE                   18
        BYTE   W03
        BYTE                   16
        BYTE   W03
        BYTE                   14
        BYTE   W05
        BYTE                   12
        BYTE   W01
        BYTE                   11
        BYTE   W02
        BYTE                   10
        BYTE   W01
        BYTE                   9
        BYTE   W05
        BYTE                   7
        BYTE   W01
        BYTE                   6
        BYTE   W02
        BYTE                   5
        BYTE   W01
        BYTE                   4
        BYTE   W04
        BYTE           EOT     An3
        BYTE   W01
        BYTE   PEND
// 061   ----------------------------------------
        BYTE   W92
        BYTE   W03
        BYTE           VOL     45
        BYTE   W01
// 062   ----------------------------------------
        BYTE   W96
// 063   ----------------------------------------
        BYTE   W96
// 064   ----------------------------------------
        BYTE   W96
// 065   ----------------------------------------
        BYTE   W96
// 066   ----------------------------------------
        BYTE   W96
// 067   ----------------------------------------
        BYTE           N92     En2   v080   gtp3
        BYTE                   Dn3
        BYTE   GoTo
         POIN2  TemporalTower_5_LOOP
        BYTE   W96
// 068   ----------------------------------------
        BYTE   PATT
         POIN2  TemporalTower_5_6
// 069   ----------------------------------------
        BYTE   PATT
         POIN2  TemporalTower_5_7
// 070   ----------------------------------------
        BYTE   PATT
         POIN2  TemporalTower_5_8
// 071   ----------------------------------------
        BYTE   PATT
         POIN2  TemporalTower_5_6
// 072   ----------------------------------------
        BYTE   PATT
         POIN2  TemporalTower_5_6
// 073   ----------------------------------------
        BYTE   PATT
         POIN2  TemporalTower_5_7
// 074   ----------------------------------------
        BYTE   PATT
         POIN2  TemporalTower_5_8
// 075   ----------------------------------------
        BYTE   PATT
         POIN2  TemporalTower_5_13
// 076   ----------------------------------------
        BYTE   PATT
         POIN2  TemporalTower_5_14
// 077   ----------------------------------------
        BYTE   PATT
         POIN2  TemporalTower_5_15
// 078   ----------------------------------------
        BYTE   PATT
         POIN2  TemporalTower_5_16
// 079   ----------------------------------------
        BYTE   PATT
         POIN2  TemporalTower_5_13
// 080   ----------------------------------------
        BYTE   PATT
         POIN2  TemporalTower_5_14
// 081   ----------------------------------------
        BYTE   PATT
         POIN2  TemporalTower_5_15
// 082   ----------------------------------------
        BYTE   PATT
         POIN2  TemporalTower_5_16
// 083   ----------------------------------------
        BYTE   PATT
         POIN2  TemporalTower_5_21
// 084   ----------------------------------------
        BYTE   PATT
         POIN2  TemporalTower_5_22
// 085   ----------------------------------------
        BYTE   PATT
         POIN2  TemporalTower_5_21
// 086   ----------------------------------------
        BYTE   PATT
         POIN2  TemporalTower_5_22
// 087   ----------------------------------------
        BYTE   PATT
         POIN2  TemporalTower_5_21
// 088   ----------------------------------------
        BYTE   PATT
         POIN2  TemporalTower_5_22
// 089   ----------------------------------------
        BYTE   PATT
         POIN2  TemporalTower_5_21
// 090   ----------------------------------------
        BYTE   PATT
         POIN2  TemporalTower_5_22
// 091   ----------------------------------------
        BYTE   PATT
         POIN2  TemporalTower_5_29
// 092   ----------------------------------------
        BYTE   PATT
         POIN2  TemporalTower_5_30
// 093   ----------------------------------------
        BYTE   PATT
         POIN2  TemporalTower_5_31
// 094   ----------------------------------------
        BYTE   PATT
         POIN2  TemporalTower_5_32
// 095   ----------------------------------------
        BYTE   PATT
         POIN2  TemporalTower_5_29
// 096   ----------------------------------------
        BYTE   PATT
         POIN2  TemporalTower_5_30
// 097   ----------------------------------------
        BYTE   PATT
         POIN2  TemporalTower_5_35
// 098   ----------------------------------------
        BYTE   PATT
         POIN2  TemporalTower_5_32
// 099   ----------------------------------------
        BYTE   PATT
         POIN2  TemporalTower_5_13
// 100   ----------------------------------------
        BYTE   PATT
         POIN2  TemporalTower_5_14
// 101   ----------------------------------------
        BYTE   PATT
         POIN2  TemporalTower_5_15
// 102   ----------------------------------------
        BYTE   PATT
         POIN2  TemporalTower_5_16
// 103   ----------------------------------------
        BYTE   PATT
         POIN2  TemporalTower_5_13
// 104   ----------------------------------------
        BYTE   PATT
         POIN2  TemporalTower_5_14
// 105   ----------------------------------------
        BYTE   PATT
         POIN2  TemporalTower_5_15
// 106   ----------------------------------------
        BYTE   PATT
         POIN2  TemporalTower_5_16
// 107   ----------------------------------------
        BYTE   PATT
         POIN2  TemporalTower_5_45
// 108   ----------------------------------------
        BYTE   PATT
         POIN2  TemporalTower_5_46
// 109   ----------------------------------------
        BYTE   PATT
         POIN2  TemporalTower_5_45
// 110   ----------------------------------------
        BYTE   PATT
         POIN2  TemporalTower_5_46
// 111   ----------------------------------------
        BYTE   PATT
         POIN2  TemporalTower_5_45
// 112   ----------------------------------------
        BYTE   PATT
         POIN2  TemporalTower_5_46
// 113   ----------------------------------------
        BYTE           TIE     En3   v090
        BYTE   W96
// 114   ----------------------------------------
        BYTE   W92
        BYTE   W03
        BYTE           EOT
        BYTE   W01
// 115   ----------------------------------------
        BYTE           TIE     Dn3
        BYTE   W96
// 116   ----------------------------------------
        BYTE   W92
        BYTE   W03
        BYTE           EOT
        BYTE   W01
// 117   ----------------------------------------
        BYTE           TIE     En3
        BYTE   W96
// 118   ----------------------------------------
        BYTE   W92
        BYTE   W03
        BYTE           EOT
        BYTE   W01
// 119   ----------------------------------------
        BYTE           TIE     Dn3
        BYTE   W96
// 120   ----------------------------------------
        BYTE   W92
        BYTE   W03
        BYTE           EOT
        BYTE   W01
// 121   ----------------------------------------
        BYTE   PATT
         POIN2  TemporalTower_5_59
// 122   ----------------------------------------
        BYTE   PATT
         POIN2  TemporalTower_5_60
// 123   ----------------------------------------
        BYTE   W92
        BYTE   W03
        BYTE           VOL     45
        BYTE   W01
// 124   ----------------------------------------
        BYTE   W96
// 125   ----------------------------------------
        BYTE   W96
// 126   ----------------------------------------
        BYTE   W96
// 127   ----------------------------------------
        BYTE   W96
// 128   ----------------------------------------
        BYTE   W96
// 129   ----------------------------------------
        BYTE   PATT
         POIN2  TemporalTower_5_6
// 130   ----------------------------------------
        BYTE   PATT
         POIN2  TemporalTower_5_6
// 131   ----------------------------------------
        BYTE   PATT
         POIN2  TemporalTower_5_7
// 132   ----------------------------------------
        BYTE           N92     Gn2   v080   gtp3
        BYTE                   En3
        BYTE   W92
        BYTE   W03
        BYTE   FINE

//****************** Track 6 (Midi-Chn.6) ******************//

TemporalTower_6:
        BYTE   KEYSH   TemporalTower_key+0
// 000   ----------------------------------------
        BYTE   W24
// 001   ----------------------------------------
        BYTE           VOICE   40
        BYTE           VOL     33
        BYTE   W96
// 002   ----------------------------------------
        BYTE   W96
// 003   ----------------------------------------
        BYTE   W96
// 004   ----------------------------------------
TemporalTower_6_4:
        BYTE   W36
        BYTE   W02
        BYTE           VOICE   52
        BYTE   W01
        BYTE           VOL     54
        BYTE           PAN     c_v-10
        BYTE   W56
        BYTE   W01
        BYTE   PEND
// 005   ----------------------------------------
TemporalTower_6_LOOP:
        BYTE           N92     An3   v070   gtp3
        BYTE   W96
// 006   ----------------------------------------
        BYTE                   Bn3
        BYTE   W96
// 007   ----------------------------------------
        BYTE                   Cn4
        BYTE   W96
// 008   ----------------------------------------
        BYTE                   Dn4
        BYTE   W96
// 009   ----------------------------------------
        BYTE                   An3
        BYTE   W96
// 010   ----------------------------------------
        BYTE                   Bn3
        BYTE   W96
// 011   ----------------------------------------
        BYTE                   Cn4
        BYTE   W96
// 012   ----------------------------------------
        BYTE                   Dn4
        BYTE   W96
// 013   ----------------------------------------
        BYTE   W96
// 014   ----------------------------------------
        BYTE   W96
// 015   ----------------------------------------
        BYTE   W96
// 016   ----------------------------------------
        BYTE   W96
// 017   ----------------------------------------
        BYTE   W96
// 018   ----------------------------------------
        BYTE   W96
// 019   ----------------------------------------
        BYTE   W96
// 020   ----------------------------------------
        BYTE   W96
// 021   ----------------------------------------
        BYTE   W96
// 022   ----------------------------------------
        BYTE   W96
// 023   ----------------------------------------
        BYTE   W96
// 024   ----------------------------------------
        BYTE   W96
// 025   ----------------------------------------
        BYTE   W96
// 026   ----------------------------------------
        BYTE   W96
// 027   ----------------------------------------
        BYTE   W96
// 028   ----------------------------------------
        BYTE   W96
// 029   ----------------------------------------
        BYTE   W96
// 030   ----------------------------------------
        BYTE   W96
// 031   ----------------------------------------
        BYTE   W96
// 032   ----------------------------------------
        BYTE   W96
// 033   ----------------------------------------
        BYTE   W96
// 034   ----------------------------------------
        BYTE   W96
// 035   ----------------------------------------
        BYTE   W96
// 036   ----------------------------------------
        BYTE   W96
// 037   ----------------------------------------
        BYTE   W96
// 038   ----------------------------------------
        BYTE   W96
// 039   ----------------------------------------
        BYTE   W96
// 040   ----------------------------------------
        BYTE   W96
// 041   ----------------------------------------
        BYTE   W96
// 042   ----------------------------------------
        BYTE   W96
// 043   ----------------------------------------
TemporalTower_6_43:
        BYTE   W32
        BYTE           VOICE   40
        BYTE   W01
        BYTE           PAN     c_v+0
        BYTE           VOL     56
        BYTE   W60
        BYTE   W03
        BYTE   PEND
// 044   ----------------------------------------
TemporalTower_6_44:
        BYTE   W72
        BYTE           N02     En3   v100
        BYTE   W06
        BYTE                   Fs3
        BYTE   W06
        BYTE                   Gn3
        BYTE   W06
        BYTE                   An3
        BYTE   W06
        BYTE   PEND
// 045   ----------------------------------------
TemporalTower_6_45:
        BYTE           N32     Bn3   v110   gtp3
        BYTE   W36
        BYTE           N03     An3   v100
        BYTE   W06
        BYTE                   Gn3
        BYTE   W06
        BYTE           N17     Fs3   v110
        BYTE   W18
        BYTE                   Dn3   v070
        BYTE   W18
        BYTE           N11     Fs3   v095
        BYTE   W12
        BYTE   PEND
// 046   ----------------------------------------
TemporalTower_6_46:
        BYTE           N17     En3   v110
        BYTE   W18
        BYTE                   Bn2   v070
        BYTE   W18
        BYTE           N11     An2   v095
        BYTE   W12
        BYTE                   Bn2
        BYTE   W24
        BYTE           N02     En3   v100
        BYTE   W06
        BYTE                   Fs3
        BYTE   W06
        BYTE                   Gn3
        BYTE   W06
        BYTE                   An3
        BYTE   W06
        BYTE   PEND
// 047   ----------------------------------------
        BYTE   PATT
         POIN2  TemporalTower_6_45
// 048   ----------------------------------------
TemporalTower_6_48:
        BYTE           N17     En3   v110
        BYTE   W18
        BYTE                   Bn3   v070
        BYTE   W18
        BYTE           N11     An3   v095
        BYTE   W12
        BYTE                   Bn3
        BYTE   W24
        BYTE           N02     En3   v100
        BYTE   W06
        BYTE                   Fs3
        BYTE   W06
        BYTE                   Gn3
        BYTE   W06
        BYTE                   An3
        BYTE   W06
        BYTE   PEND
// 049   ----------------------------------------
        BYTE   PATT
         POIN2  TemporalTower_6_45
// 050   ----------------------------------------
TemporalTower_6_50:
        BYTE           N17     En3   v110
        BYTE   W18
        BYTE                   Bn2   v070
        BYTE   W18
        BYTE           N11     An2   v095
        BYTE   W12
        BYTE           N17     Bn2   v110
        BYTE   W18
        BYTE                   An2   v070
        BYTE   W18
        BYTE           N11     Gn2   v095
        BYTE   W12
        BYTE   PEND
// 051   ----------------------------------------
        BYTE           TIE     En2   v110
        BYTE   W96
// 052   ----------------------------------------
        BYTE   W92
        BYTE   W03
        BYTE           EOT
        BYTE   W01
// 053   ----------------------------------------
        BYTE   W96
// 054   ----------------------------------------
TemporalTower_6_54:
        BYTE           N32     En2   v110   gtp3
        BYTE   W36
        BYTE           N11     Gn2   v105
        BYTE   W12
        BYTE           N17     Fs2   v110
        BYTE   W18
        BYTE                   En2   v085
        BYTE   W18
        BYTE           N11     Dn2   v095
        BYTE   W12
        BYTE   PEND
// 055   ----------------------------------------
        BYTE           TIE     En2   v110
        BYTE   W96
// 056   ----------------------------------------
        BYTE   W92
        BYTE   W03
        BYTE           EOT
        BYTE   W01
// 057   ----------------------------------------
        BYTE   W96
// 058   ----------------------------------------
        BYTE   PATT
         POIN2  TemporalTower_6_54
// 059   ----------------------------------------
        BYTE           TIE     En2   v110
        BYTE   W96
// 060   ----------------------------------------
        BYTE   W92
        BYTE   W03
        BYTE           EOT
        BYTE   W01
// 061   ----------------------------------------
        BYTE   W96
// 062   ----------------------------------------
        BYTE   W96
// 063   ----------------------------------------
        BYTE   W96
// 064   ----------------------------------------
        BYTE   W96
// 065   ----------------------------------------
        BYTE   W96
// 066   ----------------------------------------
        BYTE   PATT
         POIN2  TemporalTower_6_4
// 067   ----------------------------------------
        BYTE           N92     An3   v070   gtp3
        BYTE   GoTo
         POIN2  TemporalTower_6_LOOP
        BYTE   W96
// 068   ----------------------------------------
        BYTE                   Bn3
        BYTE   W96
// 069   ----------------------------------------
        BYTE                   Cn4
        BYTE   W96
// 070   ----------------------------------------
        BYTE                   Dn4
        BYTE   W96
// 071   ----------------------------------------
        BYTE                   An3
        BYTE   W96
// 072   ----------------------------------------
        BYTE                   Bn3
        BYTE   W96
// 073   ----------------------------------------
        BYTE                   Cn4
        BYTE   W96
// 074   ----------------------------------------
        BYTE                   Dn4
        BYTE   W96
// 075   ----------------------------------------
        BYTE   W96
// 076   ----------------------------------------
        BYTE   W96
// 077   ----------------------------------------
        BYTE   W96
// 078   ----------------------------------------
        BYTE   W96
// 079   ----------------------------------------
        BYTE   W96
// 080   ----------------------------------------
        BYTE   W96
// 081   ----------------------------------------
        BYTE   W96
// 082   ----------------------------------------
        BYTE   W96
// 083   ----------------------------------------
        BYTE   W96
// 084   ----------------------------------------
        BYTE   W96
// 085   ----------------------------------------
        BYTE   W96
// 086   ----------------------------------------
        BYTE   W96
// 087   ----------------------------------------
        BYTE   W96
// 088   ----------------------------------------
        BYTE   W96
// 089   ----------------------------------------
        BYTE   W96
// 090   ----------------------------------------
        BYTE   W96
// 091   ----------------------------------------
        BYTE   W96
// 092   ----------------------------------------
        BYTE   W96
// 093   ----------------------------------------
        BYTE   W96
// 094   ----------------------------------------
        BYTE   W96
// 095   ----------------------------------------
        BYTE   W96
// 096   ----------------------------------------
        BYTE   W96
// 097   ----------------------------------------
        BYTE   W96
// 098   ----------------------------------------
        BYTE   W96
// 099   ----------------------------------------
        BYTE   W96
// 100   ----------------------------------------
        BYTE   W96
// 101   ----------------------------------------
        BYTE   W96
// 102   ----------------------------------------
        BYTE   W96
// 103   ----------------------------------------
        BYTE   W96
// 104   ----------------------------------------
        BYTE   W96
// 105   ----------------------------------------
        BYTE   PATT
         POIN2  TemporalTower_6_43
// 106   ----------------------------------------
        BYTE   PATT
         POIN2  TemporalTower_6_44
// 107   ----------------------------------------
        BYTE   PATT
         POIN2  TemporalTower_6_45
// 108   ----------------------------------------
        BYTE   PATT
         POIN2  TemporalTower_6_46
// 109   ----------------------------------------
        BYTE   PATT
         POIN2  TemporalTower_6_45
// 110   ----------------------------------------
        BYTE   PATT
         POIN2  TemporalTower_6_48
// 111   ----------------------------------------
        BYTE   PATT
         POIN2  TemporalTower_6_45
// 112   ----------------------------------------
        BYTE   PATT
         POIN2  TemporalTower_6_50
// 113   ----------------------------------------
        BYTE           TIE     En2   v110
        BYTE   W96
// 114   ----------------------------------------
        BYTE   W92
        BYTE   W03
        BYTE           EOT
        BYTE   W01
// 115   ----------------------------------------
        BYTE   W96
// 116   ----------------------------------------
        BYTE   PATT
         POIN2  TemporalTower_6_54
// 117   ----------------------------------------
        BYTE           TIE     En2   v110
        BYTE   W96
// 118   ----------------------------------------
        BYTE   W92
        BYTE   W03
        BYTE           EOT
        BYTE   W01
// 119   ----------------------------------------
        BYTE   W96
// 120   ----------------------------------------
        BYTE   PATT
         POIN2  TemporalTower_6_54
// 121   ----------------------------------------
        BYTE           TIE     En2   v110
        BYTE   W96
// 122   ----------------------------------------
        BYTE   W92
        BYTE   W03
        BYTE           EOT
        BYTE   W01
// 123   ----------------------------------------
        BYTE   W96
// 124   ----------------------------------------
        BYTE   W96
// 125   ----------------------------------------
        BYTE   W96
// 126   ----------------------------------------
        BYTE   W96
// 127   ----------------------------------------
        BYTE   W96
// 128   ----------------------------------------
        BYTE   PATT
         POIN2  TemporalTower_6_4
// 129   ----------------------------------------
        BYTE           N92     An3   v070   gtp3
        BYTE   W96
// 130   ----------------------------------------
        BYTE                   Bn3
        BYTE   W96
// 131   ----------------------------------------
        BYTE                   Cn4
        BYTE   W96
// 132   ----------------------------------------
        BYTE                   Dn4
        BYTE   W92
        BYTE   W03
        BYTE   FINE

//****************** Track 7 (Midi-Chn.7) ******************//

TemporalTower_7:
        BYTE   KEYSH   TemporalTower_key+0
// 000   ----------------------------------------
        BYTE   W24
// 001   ----------------------------------------
        BYTE           VOICE   0
        BYTE           VOL     45
        BYTE   W96
// 002   ----------------------------------------
        BYTE   W96
// 003   ----------------------------------------
        BYTE   W36
        BYTE   W02
        BYTE           VOICE   52
        BYTE   W01
        BYTE           VOL     54
        BYTE           PAN     c_v-40
        BYTE   W56
        BYTE           VOL     25
        BYTE   W01
// 004   ----------------------------------------
TemporalTower_7_4:
        BYTE           TIE     Bn3   v095
        BYTE   W04
        BYTE           VOL     27
        BYTE   W03
        BYTE                   28
        BYTE   W02
        BYTE                   29
        BYTE   W03
        BYTE                   30
        BYTE   W01
        BYTE                   31
        BYTE   W03
        BYTE                   32
        BYTE   W03
        BYTE                   33
        BYTE   W02
        BYTE                   34
        BYTE   W03
        BYTE                   35
        BYTE   W03
        BYTE                   36
        BYTE   W03
        BYTE                   37
        BYTE   W01
        BYTE                   38
        BYTE   W03
        BYTE                   39
        BYTE   W03
        BYTE                   40
        BYTE   W02
        BYTE                   41
        BYTE   W03
        BYTE                   42
        BYTE   W03
        BYTE                   43
        BYTE   W01
        BYTE                   44
        BYTE   W03
        BYTE                   45
        BYTE   W02
        BYTE                   46
        BYTE   W03
        BYTE                   47
        BYTE   W03
        BYTE                   48
        BYTE   W01
        BYTE                   49
        BYTE   W03
        BYTE                   50
        BYTE   W03
        BYTE                   51
        BYTE   W03
        BYTE                   52
        BYTE   W02
        BYTE                   53
        BYTE   W01
        BYTE                   54
        BYTE   W08
        BYTE                   51
        BYTE   W03
        BYTE                   50
        BYTE   W01
        BYTE                   49
        BYTE   W02
        BYTE                   48
        BYTE   W01
        BYTE                   47
        BYTE   W02
        BYTE                   46
        BYTE   W03
        BYTE                   45
        BYTE   W01
        BYTE                   44
        BYTE   W02
        BYTE                   43
        BYTE   W01
        BYTE                   41
        BYTE   W02
        BYTE   PEND
// 005   ----------------------------------------
TemporalTower_7_LOOP:
        BYTE           VOL     40
        BYTE   W01
        BYTE                   39
        BYTE   W02
        BYTE                   37
        BYTE   W01
        BYTE                   35
        BYTE   W02
        BYTE                   34
        BYTE   W01
        BYTE                   32
        BYTE   W02
        BYTE                   30
        BYTE   W01
        BYTE                   29
        BYTE   W02
        BYTE                   27
        BYTE   W01
        BYTE                   25
        BYTE   W02
        BYTE                   24
        BYTE   W01
        BYTE                   21
        BYTE   W02
        BYTE                   18
        BYTE   W01
        BYTE                   16
        BYTE   W02
        BYTE                   13
        BYTE   W01
        BYTE                   10
        BYTE   W02
        BYTE                   8
        BYTE   W01
        BYTE                   5
        BYTE   W02
        BYTE                   3
        BYTE   W01
        BYTE                   0
        BYTE   W19
        BYTE           EOT     Bn3
        BYTE   W48
        BYTE   W01
// 006   ----------------------------------------
        BYTE   W96
// 007   ----------------------------------------
        BYTE   W96
// 008   ----------------------------------------
        BYTE   W96
// 009   ----------------------------------------
        BYTE   W96
// 010   ----------------------------------------
        BYTE   W96
// 011   ----------------------------------------
        BYTE   W96
// 012   ----------------------------------------
TemporalTower_7_12:
        BYTE   W02
        BYTE           VOICE   88
        BYTE   W01
        BYTE           PAN     c_v-63
        BYTE           VOL     45
        BYTE   W92
        BYTE   W01
        BYTE   PEND
// 013   ----------------------------------------
TemporalTower_7_13:
        BYTE   W54
        BYTE           N03     Bn4   v045
        BYTE   W24
        BYTE                   En4   v070
        BYTE   W12
        BYTE                   Dn4   v045
        BYTE   W06
        BYTE   PEND
// 014   ----------------------------------------
TemporalTower_7_14:
        BYTE   W06
        BYTE           N03     En4   v045
        BYTE   W54
        BYTE                   An4   v070
        BYTE   W12
        BYTE                   Dn4   v045
        BYTE   W24
        BYTE   PEND
// 015   ----------------------------------------
TemporalTower_7_15:
        BYTE   W12
        BYTE           N03     An3   v070
        BYTE   W42
        BYTE                   En4   v045
        BYTE   W24
        BYTE                   An3   v070
        BYTE   W12
        BYTE                   Gn3   v045
        BYTE   W06
        BYTE   PEND
// 016   ----------------------------------------
TemporalTower_7_16:
        BYTE   W06
        BYTE           N03     An3   v045
        BYTE   W54
        BYTE                   Dn4   v070
        BYTE   W12
        BYTE                   Gn3   v045
        BYTE   W18
        BYTE                   An3
        BYTE   W06
        BYTE   PEND
// 017   ----------------------------------------
        BYTE   PATT
         POIN2  TemporalTower_7_13
// 018   ----------------------------------------
        BYTE   PATT
         POIN2  TemporalTower_7_14
// 019   ----------------------------------------
        BYTE   PATT
         POIN2  TemporalTower_7_15
// 020   ----------------------------------------
        BYTE   PATT
         POIN2  TemporalTower_7_16
// 021   ----------------------------------------
        BYTE   W96
// 022   ----------------------------------------
        BYTE   W96
// 023   ----------------------------------------
        BYTE   W96
// 024   ----------------------------------------
        BYTE   W96
// 025   ----------------------------------------
        BYTE   W96
// 026   ----------------------------------------
        BYTE   W96
// 027   ----------------------------------------
        BYTE   W96
// 028   ----------------------------------------
        BYTE   W96
// 029   ----------------------------------------
        BYTE   W96
// 030   ----------------------------------------
        BYTE   W96
// 031   ----------------------------------------
        BYTE   W96
// 032   ----------------------------------------
        BYTE   W96
// 033   ----------------------------------------
        BYTE   W96
// 034   ----------------------------------------
        BYTE   W96
// 035   ----------------------------------------
        BYTE   W96
// 036   ----------------------------------------
        BYTE   W96
// 037   ----------------------------------------
        BYTE   PATT
         POIN2  TemporalTower_7_13
// 038   ----------------------------------------
        BYTE   PATT
         POIN2  TemporalTower_7_14
// 039   ----------------------------------------
        BYTE   PATT
         POIN2  TemporalTower_7_15
// 040   ----------------------------------------
        BYTE   PATT
         POIN2  TemporalTower_7_16
// 041   ----------------------------------------
        BYTE   PATT
         POIN2  TemporalTower_7_13
// 042   ----------------------------------------
        BYTE   PATT
         POIN2  TemporalTower_7_14
// 043   ----------------------------------------
        BYTE   PATT
         POIN2  TemporalTower_7_15
// 044   ----------------------------------------
        BYTE   PATT
         POIN2  TemporalTower_7_16
// 045   ----------------------------------------
        BYTE   W96
// 046   ----------------------------------------
        BYTE   W96
// 047   ----------------------------------------
        BYTE   W96
// 048   ----------------------------------------
        BYTE   W96
// 049   ----------------------------------------
        BYTE   W96
// 050   ----------------------------------------
TemporalTower_7_50:
        BYTE   W36
        BYTE   W02
        BYTE           VOICE   52
        BYTE   W01
        BYTE           PAN     c_v+0
        BYTE           VOL     57
        BYTE   W56
        BYTE           PAN     c_v+30
        BYTE   W01
        BYTE   PEND
// 051   ----------------------------------------
TemporalTower_7_51:
        BYTE           TIE     Gn3   v080
        BYTE   W05
        BYTE           PAN     c_v+26
        BYTE   W06
        BYTE                   c_v+22
        BYTE   W06
        BYTE                   c_v+19
        BYTE   W06
        BYTE                   c_v+15
        BYTE   W06
        BYTE                   c_v+11
        BYTE   W06
        BYTE                   c_v+8
        BYTE   W06
        BYTE                   c_v+4
        BYTE   W06
        BYTE                   c_v+0
        BYTE   W06
        BYTE                   c_v-4
        BYTE   W06
        BYTE                   c_v-7
        BYTE   W06
        BYTE                   c_v-11
        BYTE   W06
        BYTE                   c_v-15
        BYTE   W06
        BYTE                   c_v-18
        BYTE   W06
        BYTE                   c_v-22
        BYTE   W06
        BYTE                   c_v-26
        BYTE   W06
        BYTE                   c_v-29
        BYTE   W01
        BYTE   PEND
// 052   ----------------------------------------
TemporalTower_7_52:
        BYTE   W05
        BYTE           PAN     c_v-27
        BYTE   W06
        BYTE                   c_v-23
        BYTE   W06
        BYTE                   c_v-19
        BYTE   W06
        BYTE                   c_v-15
        BYTE   W06
        BYTE                   c_v-10
        BYTE   W06
        BYTE                   c_v-6
        BYTE   W06
        BYTE                   c_v-2
        BYTE   W06
        BYTE                   c_v+2
        BYTE   W06
        BYTE                   c_v+6
        BYTE   W06
        BYTE                   c_v+10
        BYTE   W06
        BYTE                   c_v+15
        BYTE   W06
        BYTE                   c_v+19
        BYTE   W06
        BYTE                   c_v+23
        BYTE   W06
        BYTE                   c_v+24
        BYTE   W12
        BYTE           EOT     Gn3
        BYTE           PAN     c_v+30
        BYTE   W01
        BYTE   PEND
// 053   ----------------------------------------
TemporalTower_7_53:
        BYTE           TIE     Fs3   v080
        BYTE   W05
        BYTE           PAN     c_v+26
        BYTE   W06
        BYTE                   c_v+22
        BYTE   W06
        BYTE                   c_v+19
        BYTE   W06
        BYTE                   c_v+15
        BYTE   W06
        BYTE                   c_v+11
        BYTE   W06
        BYTE                   c_v+8
        BYTE   W06
        BYTE                   c_v+4
        BYTE   W06
        BYTE                   c_v+0
        BYTE   W06
        BYTE                   c_v-4
        BYTE   W06
        BYTE                   c_v-7
        BYTE   W06
        BYTE                   c_v-11
        BYTE   W06
        BYTE                   c_v-15
        BYTE   W06
        BYTE                   c_v-18
        BYTE   W06
        BYTE                   c_v-22
        BYTE   W06
        BYTE                   c_v-26
        BYTE   W06
        BYTE                   c_v-29
        BYTE   W01
        BYTE   PEND
// 054   ----------------------------------------
TemporalTower_7_54:
        BYTE   W05
        BYTE           PAN     c_v-27
        BYTE   W06
        BYTE                   c_v-23
        BYTE   W06
        BYTE                   c_v-19
        BYTE   W06
        BYTE                   c_v-15
        BYTE   W06
        BYTE                   c_v-10
        BYTE   W06
        BYTE                   c_v-6
        BYTE   W06
        BYTE                   c_v-2
        BYTE   W06
        BYTE                   c_v+2
        BYTE   W06
        BYTE                   c_v+6
        BYTE   W06
        BYTE                   c_v+10
        BYTE   W06
        BYTE                   c_v+15
        BYTE   W06
        BYTE                   c_v+19
        BYTE   W06
        BYTE                   c_v+23
        BYTE   W06
        BYTE                   c_v+24
        BYTE   W12
        BYTE           EOT     Fs3
        BYTE           PAN     c_v+30
        BYTE   W01
        BYTE   PEND
// 055   ----------------------------------------
        BYTE   PATT
         POIN2  TemporalTower_7_51
// 056   ----------------------------------------
        BYTE   PATT
         POIN2  TemporalTower_7_52
// 057   ----------------------------------------
        BYTE   PATT
         POIN2  TemporalTower_7_53
// 058   ----------------------------------------
TemporalTower_7_58:
        BYTE   W05
        BYTE           PAN     c_v-27
        BYTE   W06
        BYTE                   c_v-23
        BYTE   W06
        BYTE                   c_v-19
        BYTE   W06
        BYTE                   c_v-15
        BYTE   W06
        BYTE                   c_v-10
        BYTE   W06
        BYTE                   c_v-6
        BYTE   W06
        BYTE                   c_v-2
        BYTE   W06
        BYTE                   c_v+2
        BYTE   W06
        BYTE                   c_v+6
        BYTE   W06
        BYTE                   c_v+10
        BYTE   W06
        BYTE                   c_v+15
        BYTE   W06
        BYTE                   c_v+19
        BYTE   W06
        BYTE                   c_v+23
        BYTE   W06
        BYTE                   c_v+24
        BYTE   W12
        BYTE           EOT     Fs3
        BYTE           PAN     c_v+0
        BYTE   W01
        BYTE   PEND
// 059   ----------------------------------------
TemporalTower_7_59:
        BYTE           VOL     55
        BYTE           TIE     En3   v080
        BYTE   W12
        BYTE           VOL     54
        BYTE   W12
        BYTE                   53
        BYTE   W10
        BYTE                   52
        BYTE   W14
        BYTE                   51
        BYTE   W09
        BYTE                   50
        BYTE   W06
        BYTE                   49
        BYTE   W13
        BYTE                   48
        BYTE   W09
        BYTE                   47
        BYTE   W09
        BYTE                   46
        BYTE   W02
        BYTE   PEND
// 060   ----------------------------------------
TemporalTower_7_60:
        BYTE   W03
        BYTE           VOL     45
        BYTE   W04
        BYTE                   44
        BYTE   W05
        BYTE                   43
        BYTE   W03
        BYTE                   42
        BYTE   W04
        BYTE                   41
        BYTE   W08
        BYTE                   40
        BYTE   W03
        BYTE                   39
        BYTE   W06
        BYTE                   38
        BYTE   W01
        BYTE                   37
        BYTE   W03
        BYTE                   36
        BYTE   W05
        BYTE                   35
        BYTE   W01
        BYTE                   34
        BYTE   W03
        BYTE                   33
        BYTE   W03
        BYTE                   32
        BYTE   W02
        BYTE                   31
        BYTE   W03
        BYTE                   30
        BYTE   W01
        BYTE                   29
        BYTE   W03
        BYTE                   28
        BYTE   W02
        BYTE                   27
        BYTE   W01
        BYTE                   26
        BYTE   W02
        BYTE                   24
        BYTE   W01
        BYTE                   23
        BYTE   W03
        BYTE                   21
        BYTE   W02
        BYTE                   20
        BYTE   W01
        BYTE                   18
        BYTE   W05
        BYTE                   15
        BYTE   W01
        BYTE                   14
        BYTE   W02
        BYTE                   13
        BYTE   W01
        BYTE                   12
        BYTE   W02
        BYTE                   11
        BYTE   W03
        BYTE                   9
        BYTE   W01
        BYTE                   8
        BYTE   W02
        BYTE                   7
        BYTE   W01
        BYTE                   5
        BYTE   W04
        BYTE           EOT     En3
        BYTE   W01
        BYTE   PEND
// 061   ----------------------------------------
        BYTE   W92
        BYTE   W03
        BYTE           VOL     57
        BYTE   W01
// 062   ----------------------------------------
        BYTE   W96
// 063   ----------------------------------------
        BYTE   W96
// 064   ----------------------------------------
        BYTE   W96
// 065   ----------------------------------------
TemporalTower_7_65:
        BYTE   W36
        BYTE   W03
        BYTE           VOL     54
        BYTE           PAN     c_v-10
        BYTE   W56
        BYTE           VOL     25
        BYTE   W01
        BYTE   PEND
// 066   ----------------------------------------
        BYTE   PATT
         POIN2  TemporalTower_7_4
// 067   ----------------------------------------
        BYTE           VOL     40
        BYTE           PAN     c_v-40
        BYTE   GoTo
         POIN2  TemporalTower_7_LOOP
        BYTE   W01
        BYTE           VOL     39
        BYTE   W02
        BYTE                   37
        BYTE   W01
        BYTE                   35
        BYTE   W02
        BYTE                   34
        BYTE   W01
        BYTE                   32
        BYTE   W02
        BYTE                   30
        BYTE   W01
        BYTE                   29
        BYTE   W02
        BYTE                   27
        BYTE   W01
        BYTE                   25
        BYTE   W02
        BYTE                   24
        BYTE   W01
        BYTE                   21
        BYTE   W02
        BYTE                   18
        BYTE   W01
        BYTE                   16
        BYTE   W02
        BYTE                   13
        BYTE   W01
        BYTE                   10
        BYTE   W02
        BYTE                   8
        BYTE   W01
        BYTE                   5
        BYTE   W02
        BYTE                   3
        BYTE   W01
        BYTE                   0
        BYTE   W19
        BYTE           EOT     Bn3
        BYTE   W48
        BYTE   W01
// 068   ----------------------------------------
        BYTE   W96
// 069   ----------------------------------------
        BYTE   W96
// 070   ----------------------------------------
        BYTE   W96
// 071   ----------------------------------------
        BYTE   W96
// 072   ----------------------------------------
        BYTE   W96
// 073   ----------------------------------------
        BYTE   W96
// 074   ----------------------------------------
        BYTE   PATT
         POIN2  TemporalTower_7_12
// 075   ----------------------------------------
        BYTE   PATT
         POIN2  TemporalTower_7_13
// 076   ----------------------------------------
        BYTE   PATT
         POIN2  TemporalTower_7_14
// 077   ----------------------------------------
        BYTE   PATT
         POIN2  TemporalTower_7_15
// 078   ----------------------------------------
        BYTE   PATT
         POIN2  TemporalTower_7_16
// 079   ----------------------------------------
        BYTE   PATT
         POIN2  TemporalTower_7_13
// 080   ----------------------------------------
        BYTE   PATT
         POIN2  TemporalTower_7_14
// 081   ----------------------------------------
        BYTE   PATT
         POIN2  TemporalTower_7_15
// 082   ----------------------------------------
        BYTE   PATT
         POIN2  TemporalTower_7_16
// 083   ----------------------------------------
        BYTE   W96
// 084   ----------------------------------------
        BYTE   W96
// 085   ----------------------------------------
        BYTE   W96
// 086   ----------------------------------------
        BYTE   W96
// 087   ----------------------------------------
        BYTE   W96
// 088   ----------------------------------------
        BYTE   W96
// 089   ----------------------------------------
        BYTE   W96
// 090   ----------------------------------------
        BYTE   W96
// 091   ----------------------------------------
        BYTE   W96
// 092   ----------------------------------------
        BYTE   W96
// 093   ----------------------------------------
        BYTE   W96
// 094   ----------------------------------------
        BYTE   W96
// 095   ----------------------------------------
        BYTE   W96
// 096   ----------------------------------------
        BYTE   W96
// 097   ----------------------------------------
        BYTE   W96
// 098   ----------------------------------------
        BYTE   W96
// 099   ----------------------------------------
        BYTE   PATT
         POIN2  TemporalTower_7_13
// 100   ----------------------------------------
        BYTE   PATT
         POIN2  TemporalTower_7_14
// 101   ----------------------------------------
        BYTE   PATT
         POIN2  TemporalTower_7_15
// 102   ----------------------------------------
        BYTE   PATT
         POIN2  TemporalTower_7_16
// 103   ----------------------------------------
        BYTE   PATT
         POIN2  TemporalTower_7_13
// 104   ----------------------------------------
        BYTE   PATT
         POIN2  TemporalTower_7_14
// 105   ----------------------------------------
        BYTE   PATT
         POIN2  TemporalTower_7_15
// 106   ----------------------------------------
        BYTE   PATT
         POIN2  TemporalTower_7_16
// 107   ----------------------------------------
        BYTE   W96
// 108   ----------------------------------------
        BYTE   W96
// 109   ----------------------------------------
        BYTE   W96
// 110   ----------------------------------------
        BYTE   W96
// 111   ----------------------------------------
        BYTE   W96
// 112   ----------------------------------------
        BYTE   PATT
         POIN2  TemporalTower_7_50
// 113   ----------------------------------------
        BYTE   PATT
         POIN2  TemporalTower_7_51
// 114   ----------------------------------------
        BYTE   PATT
         POIN2  TemporalTower_7_52
// 115   ----------------------------------------
        BYTE   PATT
         POIN2  TemporalTower_7_53
// 116   ----------------------------------------
        BYTE   PATT
         POIN2  TemporalTower_7_54
// 117   ----------------------------------------
        BYTE   PATT
         POIN2  TemporalTower_7_51
// 118   ----------------------------------------
        BYTE   PATT
         POIN2  TemporalTower_7_52
// 119   ----------------------------------------
        BYTE   PATT
         POIN2  TemporalTower_7_53
// 120   ----------------------------------------
        BYTE   PATT
         POIN2  TemporalTower_7_58
// 121   ----------------------------------------
        BYTE   PATT
         POIN2  TemporalTower_7_59
// 122   ----------------------------------------
        BYTE   PATT
         POIN2  TemporalTower_7_60
// 123   ----------------------------------------
        BYTE   W92
        BYTE   W03
        BYTE           VOL     57
        BYTE   W01
// 124   ----------------------------------------
        BYTE   W96
// 125   ----------------------------------------
        BYTE   W96
// 126   ----------------------------------------
        BYTE   W96
// 127   ----------------------------------------
        BYTE   PATT
         POIN2  TemporalTower_7_65
// 128   ----------------------------------------
        BYTE   PATT
         POIN2  TemporalTower_7_4
// 129   ----------------------------------------
        BYTE           VOL     40
        BYTE   W01
        BYTE                   39
        BYTE   W02
        BYTE                   37
        BYTE   W01
        BYTE                   35
        BYTE   W02
        BYTE                   34
        BYTE   W01
        BYTE                   32
        BYTE   W02
        BYTE                   30
        BYTE   W01
        BYTE                   29
        BYTE   W02
        BYTE                   27
        BYTE   W01
        BYTE                   25
        BYTE   W02
        BYTE                   24
        BYTE   W01
        BYTE                   21
        BYTE   W02
        BYTE                   18
        BYTE   W01
        BYTE                   16
        BYTE   W02
        BYTE                   13
        BYTE   W01
        BYTE                   10
        BYTE   W02
        BYTE                   8
        BYTE   W01
        BYTE                   5
        BYTE   W02
        BYTE                   3
        BYTE   W01
        BYTE                   0
        BYTE   W19
        BYTE           EOT     Bn3
        BYTE   W48
        BYTE   W01
// 130   ----------------------------------------
        BYTE   W96
// 131   ----------------------------------------
        BYTE   W96
// 132   ----------------------------------------
        BYTE   W92
        BYTE   W03
        BYTE   FINE

//****************** Track 8 (Midi-Chn.8) ******************//

TemporalTower_8:
        BYTE   KEYSH   TemporalTower_key+0
// 000   ----------------------------------------
        BYTE   W24
// 001   ----------------------------------------
        BYTE           VOICE   0
        BYTE           VOL     45
        BYTE   W96
// 002   ----------------------------------------
        BYTE   W96
// 003   ----------------------------------------
TemporalTower_8_3:
        BYTE   W36
        BYTE   W02
        BYTE           VOICE   52
        BYTE   W01
        BYTE           VOL     54
        BYTE           PAN     c_v-20
        BYTE   W56
        BYTE           VOL     25
        BYTE   W01
        BYTE   PEND
// 004   ----------------------------------------
TemporalTower_8_4:
        BYTE           TIE     Gn3   v095
        BYTE   W04
        BYTE           VOL     27
        BYTE   W03
        BYTE                   28
        BYTE   W02
        BYTE                   29
        BYTE   W03
        BYTE                   30
        BYTE   W01
        BYTE                   31
        BYTE   W03
        BYTE                   32
        BYTE   W03
        BYTE                   33
        BYTE   W02
        BYTE                   34
        BYTE   W03
        BYTE                   35
        BYTE   W03
        BYTE                   36
        BYTE   W03
        BYTE                   37
        BYTE   W01
        BYTE                   38
        BYTE   W03
        BYTE                   39
        BYTE   W03
        BYTE                   40
        BYTE   W02
        BYTE                   41
        BYTE   W03
        BYTE                   42
        BYTE   W03
        BYTE                   43
        BYTE   W01
        BYTE                   44
        BYTE   W03
        BYTE                   45
        BYTE   W02
        BYTE                   46
        BYTE   W03
        BYTE                   47
        BYTE   W03
        BYTE                   48
        BYTE   W01
        BYTE                   49
        BYTE   W03
        BYTE                   50
        BYTE   W03
        BYTE                   51
        BYTE   W03
        BYTE                   52
        BYTE   W02
        BYTE                   53
        BYTE   W01
        BYTE                   54
        BYTE   W08
        BYTE                   51
        BYTE   W03
        BYTE                   50
        BYTE   W01
        BYTE                   49
        BYTE   W02
        BYTE                   48
        BYTE   W01
        BYTE                   47
        BYTE   W02
        BYTE                   46
        BYTE   W03
        BYTE                   45
        BYTE   W01
        BYTE                   44
        BYTE   W02
        BYTE                   43
        BYTE   W01
        BYTE                   41
        BYTE   W02
        BYTE   PEND
// 005   ----------------------------------------
TemporalTower_8_LOOP:
        BYTE           VOL     40
        BYTE   W01
        BYTE                   39
        BYTE   W02
        BYTE                   37
        BYTE   W01
        BYTE                   35
        BYTE   W02
        BYTE                   34
        BYTE   W01
        BYTE                   32
        BYTE   W02
        BYTE                   30
        BYTE   W01
        BYTE                   29
        BYTE   W02
        BYTE                   27
        BYTE   W01
        BYTE                   25
        BYTE   W02
        BYTE                   24
        BYTE   W01
        BYTE                   21
        BYTE   W02
        BYTE                   18
        BYTE   W01
        BYTE                   16
        BYTE   W02
        BYTE                   13
        BYTE   W01
        BYTE                   10
        BYTE   W02
        BYTE                   8
        BYTE   W01
        BYTE                   5
        BYTE   W02
        BYTE                   3
        BYTE   W01
        BYTE                   0
        BYTE   W19
        BYTE           EOT     Gn3
        BYTE   W48
        BYTE   W01
// 006   ----------------------------------------
        BYTE   W96
// 007   ----------------------------------------
        BYTE   W96
// 008   ----------------------------------------
        BYTE   W96
// 009   ----------------------------------------
        BYTE   W96
// 010   ----------------------------------------
        BYTE   W96
// 011   ----------------------------------------
        BYTE   W96
// 012   ----------------------------------------
TemporalTower_8_12:
        BYTE   W24
        BYTE   W02
        BYTE           VOICE   88
        BYTE   W01
        BYTE           PAN     c_v+63
        BYTE           VOL     45
        BYTE   W68
        BYTE   W01
        BYTE   PEND
// 013   ----------------------------------------
TemporalTower_8_13:
        BYTE   W60
        BYTE           N03     Bn4   v070
        BYTE   W12
        BYTE                   En4   v045
        BYTE   W24
        BYTE   PEND
// 014   ----------------------------------------
TemporalTower_8_14:
        BYTE   W12
        BYTE           N03     En4   v070
        BYTE   W42
        BYTE                   An4   v045
        BYTE   W24
        BYTE                   Dn4   v070
        BYTE   W12
        BYTE                   En4   v045
        BYTE   W06
        BYTE   PEND
// 015   ----------------------------------------
TemporalTower_8_15:
        BYTE   W06
        BYTE           N03     An3   v045
        BYTE   W54
        BYTE                   En4   v070
        BYTE   W12
        BYTE                   An3   v045
        BYTE   W24
        BYTE   PEND
// 016   ----------------------------------------
TemporalTower_8_16:
        BYTE   W12
        BYTE           N03     An3   v070
        BYTE   W42
        BYTE                   Dn4   v045
        BYTE   W24
        BYTE                   Gn3   v070
        BYTE   W18
        BYTE   PEND
// 017   ----------------------------------------
        BYTE   PATT
         POIN2  TemporalTower_8_13
// 018   ----------------------------------------
        BYTE   PATT
         POIN2  TemporalTower_8_14
// 019   ----------------------------------------
        BYTE   PATT
         POIN2  TemporalTower_8_15
// 020   ----------------------------------------
        BYTE   PATT
         POIN2  TemporalTower_8_16
// 021   ----------------------------------------
        BYTE   W96
// 022   ----------------------------------------
        BYTE   W96
// 023   ----------------------------------------
        BYTE   W96
// 024   ----------------------------------------
        BYTE   W96
// 025   ----------------------------------------
        BYTE   W96
// 026   ----------------------------------------
        BYTE   W96
// 027   ----------------------------------------
        BYTE   W96
// 028   ----------------------------------------
        BYTE   W96
// 029   ----------------------------------------
        BYTE   W96
// 030   ----------------------------------------
        BYTE   W96
// 031   ----------------------------------------
        BYTE   W96
// 032   ----------------------------------------
        BYTE   W96
// 033   ----------------------------------------
        BYTE   W96
// 034   ----------------------------------------
        BYTE   W96
// 035   ----------------------------------------
        BYTE   W96
// 036   ----------------------------------------
        BYTE   W96
// 037   ----------------------------------------
        BYTE   PATT
         POIN2  TemporalTower_8_13
// 038   ----------------------------------------
        BYTE   PATT
         POIN2  TemporalTower_8_14
// 039   ----------------------------------------
        BYTE   PATT
         POIN2  TemporalTower_8_15
// 040   ----------------------------------------
        BYTE   PATT
         POIN2  TemporalTower_8_16
// 041   ----------------------------------------
        BYTE   PATT
         POIN2  TemporalTower_8_13
// 042   ----------------------------------------
        BYTE   PATT
         POIN2  TemporalTower_8_14
// 043   ----------------------------------------
        BYTE   PATT
         POIN2  TemporalTower_8_15
// 044   ----------------------------------------
        BYTE   PATT
         POIN2  TemporalTower_8_16
// 045   ----------------------------------------
        BYTE   W96
// 046   ----------------------------------------
        BYTE   W96
// 047   ----------------------------------------
        BYTE   W96
// 048   ----------------------------------------
        BYTE   W96
// 049   ----------------------------------------
        BYTE   W96
// 050   ----------------------------------------
        BYTE   W96
// 051   ----------------------------------------
        BYTE   W96
// 052   ----------------------------------------
        BYTE   W96
// 053   ----------------------------------------
        BYTE   W96
// 054   ----------------------------------------
        BYTE   W96
// 055   ----------------------------------------
        BYTE   W96
// 056   ----------------------------------------
        BYTE   W96
// 057   ----------------------------------------
        BYTE   W96
// 058   ----------------------------------------
        BYTE   W96
// 059   ----------------------------------------
        BYTE   W96
// 060   ----------------------------------------
        BYTE   W96
// 061   ----------------------------------------
        BYTE   W96
// 062   ----------------------------------------
        BYTE   W96
// 063   ----------------------------------------
        BYTE   W96
// 064   ----------------------------------------
        BYTE   W96
// 065   ----------------------------------------
        BYTE   PATT
         POIN2  TemporalTower_8_3
// 066   ----------------------------------------
        BYTE   PATT
         POIN2  TemporalTower_8_4
// 067   ----------------------------------------
        BYTE           VOL     40
        BYTE   GoTo
         POIN2  TemporalTower_8_LOOP
        BYTE   W01
        BYTE                   39
        BYTE   W02
        BYTE                   37
        BYTE   W01
        BYTE                   35
        BYTE   W02
        BYTE                   34
        BYTE   W01
        BYTE                   32
        BYTE   W02
        BYTE                   30
        BYTE   W01
        BYTE                   29
        BYTE   W02
        BYTE                   27
        BYTE   W01
        BYTE                   25
        BYTE   W02
        BYTE                   24
        BYTE   W01
        BYTE                   21
        BYTE   W02
        BYTE                   18
        BYTE   W01
        BYTE                   16
        BYTE   W02
        BYTE                   13
        BYTE   W01
        BYTE                   10
        BYTE   W02
        BYTE                   8
        BYTE   W01
        BYTE                   5
        BYTE   W02
        BYTE                   3
        BYTE   W01
        BYTE                   0
        BYTE   W19
        BYTE           EOT     Gn3
        BYTE   W48
        BYTE   W01
// 068   ----------------------------------------
        BYTE   W96
// 069   ----------------------------------------
        BYTE   W96
// 070   ----------------------------------------
        BYTE   W96
// 071   ----------------------------------------
        BYTE   W96
// 072   ----------------------------------------
        BYTE   W96
// 073   ----------------------------------------
        BYTE   W96
// 074   ----------------------------------------
        BYTE   PATT
         POIN2  TemporalTower_8_12
// 075   ----------------------------------------
        BYTE   PATT
         POIN2  TemporalTower_8_13
// 076   ----------------------------------------
        BYTE   PATT
         POIN2  TemporalTower_8_14
// 077   ----------------------------------------
        BYTE   PATT
         POIN2  TemporalTower_8_15
// 078   ----------------------------------------
        BYTE   PATT
         POIN2  TemporalTower_8_16
// 079   ----------------------------------------
        BYTE   PATT
         POIN2  TemporalTower_8_13
// 080   ----------------------------------------
        BYTE   PATT
         POIN2  TemporalTower_8_14
// 081   ----------------------------------------
        BYTE   PATT
         POIN2  TemporalTower_8_15
// 082   ----------------------------------------
        BYTE   PATT
         POIN2  TemporalTower_8_16
// 083   ----------------------------------------
        BYTE   W96
// 084   ----------------------------------------
        BYTE   W96
// 085   ----------------------------------------
        BYTE   W96
// 086   ----------------------------------------
        BYTE   W96
// 087   ----------------------------------------
        BYTE   W96
// 088   ----------------------------------------
        BYTE   W96
// 089   ----------------------------------------
        BYTE   W96
// 090   ----------------------------------------
        BYTE   W96
// 091   ----------------------------------------
        BYTE   W96
// 092   ----------------------------------------
        BYTE   W96
// 093   ----------------------------------------
        BYTE   W96
// 094   ----------------------------------------
        BYTE   W96
// 095   ----------------------------------------
        BYTE   W96
// 096   ----------------------------------------
        BYTE   W96
// 097   ----------------------------------------
        BYTE   W96
// 098   ----------------------------------------
        BYTE   W96
// 099   ----------------------------------------
        BYTE   PATT
         POIN2  TemporalTower_8_13
// 100   ----------------------------------------
        BYTE   PATT
         POIN2  TemporalTower_8_14
// 101   ----------------------------------------
        BYTE   PATT
         POIN2  TemporalTower_8_15
// 102   ----------------------------------------
        BYTE   PATT
         POIN2  TemporalTower_8_16
// 103   ----------------------------------------
        BYTE   PATT
         POIN2  TemporalTower_8_13
// 104   ----------------------------------------
        BYTE   PATT
         POIN2  TemporalTower_8_14
// 105   ----------------------------------------
        BYTE   PATT
         POIN2  TemporalTower_8_15
// 106   ----------------------------------------
        BYTE   PATT
         POIN2  TemporalTower_8_16
// 107   ----------------------------------------
        BYTE   W96
// 108   ----------------------------------------
        BYTE   W96
// 109   ----------------------------------------
        BYTE   W96
// 110   ----------------------------------------
        BYTE   W96
// 111   ----------------------------------------
        BYTE   W96
// 112   ----------------------------------------
        BYTE   W96
// 113   ----------------------------------------
        BYTE   W96
// 114   ----------------------------------------
        BYTE   W96
// 115   ----------------------------------------
        BYTE   W96
// 116   ----------------------------------------
        BYTE   W96
// 117   ----------------------------------------
        BYTE   W96
// 118   ----------------------------------------
        BYTE   W96
// 119   ----------------------------------------
        BYTE   W96
// 120   ----------------------------------------
        BYTE   W96
// 121   ----------------------------------------
        BYTE   W96
// 122   ----------------------------------------
        BYTE   W96
// 123   ----------------------------------------
        BYTE   W96
// 124   ----------------------------------------
        BYTE   W96
// 125   ----------------------------------------
        BYTE   W96
// 126   ----------------------------------------
        BYTE   W96
// 127   ----------------------------------------
        BYTE   PATT
         POIN2  TemporalTower_8_3
// 128   ----------------------------------------
        BYTE   PATT
         POIN2  TemporalTower_8_4
// 129   ----------------------------------------
        BYTE           VOL     40
        BYTE   W01
        BYTE                   39
        BYTE   W02
        BYTE                   37
        BYTE   W01
        BYTE                   35
        BYTE   W02
        BYTE                   34
        BYTE   W01
        BYTE                   32
        BYTE   W02
        BYTE                   30
        BYTE   W01
        BYTE                   29
        BYTE   W02
        BYTE                   27
        BYTE   W01
        BYTE                   25
        BYTE   W02
        BYTE                   24
        BYTE   W01
        BYTE                   21
        BYTE   W02
        BYTE                   18
        BYTE   W01
        BYTE                   16
        BYTE   W02
        BYTE                   13
        BYTE   W01
        BYTE                   10
        BYTE   W02
        BYTE                   8
        BYTE   W01
        BYTE                   5
        BYTE   W02
        BYTE                   3
        BYTE   W01
        BYTE                   0
        BYTE   W19
        BYTE           EOT     Gn3
        BYTE   W48
        BYTE   W01
// 130   ----------------------------------------
        BYTE   W96
// 131   ----------------------------------------
        BYTE   W96
// 132   ----------------------------------------
        BYTE   W92
        BYTE   W03
        BYTE   FINE

//***************** Track 9 (Midi-Chn.10) ******************//

TemporalTower_9:
        BYTE   KEYSH   TemporalTower_key+0
// 000   ----------------------------------------
        BYTE   W24
// 001   ----------------------------------------
        BYTE           VOICE   0
        BYTE           VOL     45
        BYTE   W96
// 002   ----------------------------------------
        BYTE   W96
// 003   ----------------------------------------
TemporalTower_9_3:
        BYTE   W36
        BYTE   W02
        BYTE           VOICE   52
        BYTE   W01
        BYTE           VOL     54
        BYTE           PAN     c_v+20
        BYTE   W56
        BYTE           VOL     25
        BYTE   W01
        BYTE   PEND
// 004   ----------------------------------------
TemporalTower_9_4:
        BYTE           TIE     En3   v095
        BYTE   W04
        BYTE           VOL     27
        BYTE   W03
        BYTE                   28
        BYTE   W02
        BYTE                   29
        BYTE   W03
        BYTE                   30
        BYTE   W01
        BYTE                   31
        BYTE   W03
        BYTE                   32
        BYTE   W03
        BYTE                   33
        BYTE   W02
        BYTE                   34
        BYTE   W03
        BYTE                   35
        BYTE   W03
        BYTE                   36
        BYTE   W03
        BYTE                   37
        BYTE   W01
        BYTE                   38
        BYTE   W03
        BYTE                   39
        BYTE   W03
        BYTE                   40
        BYTE   W02
        BYTE                   41
        BYTE   W03
        BYTE                   42
        BYTE   W03
        BYTE                   43
        BYTE   W01
        BYTE                   44
        BYTE   W03
        BYTE                   45
        BYTE   W02
        BYTE                   46
        BYTE   W03
        BYTE                   47
        BYTE   W03
        BYTE                   48
        BYTE   W01
        BYTE                   49
        BYTE   W03
        BYTE                   50
        BYTE   W03
        BYTE                   51
        BYTE   W03
        BYTE                   52
        BYTE   W02
        BYTE                   53
        BYTE   W01
        BYTE                   54
        BYTE   W08
        BYTE                   51
        BYTE   W03
        BYTE                   50
        BYTE   W01
        BYTE                   49
        BYTE   W02
        BYTE                   48
        BYTE   W01
        BYTE                   47
        BYTE   W02
        BYTE                   46
        BYTE   W03
        BYTE                   45
        BYTE   W01
        BYTE                   44
        BYTE   W02
        BYTE                   43
        BYTE   W01
        BYTE                   41
        BYTE   W02
        BYTE   PEND
// 005   ----------------------------------------
TemporalTower_9_LOOP:
        BYTE           VOL     40
        BYTE   W01
        BYTE                   39
        BYTE   W02
        BYTE                   37
        BYTE   W01
        BYTE                   35
        BYTE   W02
        BYTE                   34
        BYTE   W01
        BYTE                   32
        BYTE   W02
        BYTE                   30
        BYTE   W01
        BYTE                   29
        BYTE   W02
        BYTE                   27
        BYTE   W01
        BYTE                   25
        BYTE   W02
        BYTE                   24
        BYTE   W01
        BYTE                   21
        BYTE   W02
        BYTE                   18
        BYTE   W01
        BYTE                   16
        BYTE   W02
        BYTE                   13
        BYTE   W01
        BYTE                   10
        BYTE   W02
        BYTE                   8
        BYTE   W01
        BYTE                   5
        BYTE   W02
        BYTE                   3
        BYTE   W01
        BYTE                   0
        BYTE   W19
        BYTE           EOT     En3
        BYTE   W48
        BYTE   W01
// 006   ----------------------------------------
        BYTE   W96
// 007   ----------------------------------------
        BYTE   W96
// 008   ----------------------------------------
        BYTE   W96
// 009   ----------------------------------------
        BYTE   W96
// 010   ----------------------------------------
        BYTE   W96
// 011   ----------------------------------------
        BYTE   W96
// 012   ----------------------------------------
TemporalTower_9_12:
        BYTE   W08
        BYTE           VOICE   46
        BYTE   W01
        BYTE           PAN     c_v-50
        BYTE           VOL     57
        BYTE   W84
        BYTE   W03
        BYTE   PEND
// 013   ----------------------------------------
TemporalTower_9_13:
        BYTE   W30
        BYTE           N03     En3   v065
        BYTE   W42
        BYTE                   En3   v045
        BYTE   W24
        BYTE   PEND
// 014   ----------------------------------------
TemporalTower_9_14:
        BYTE   W12
        BYTE           N03     An3   v065
        BYTE   W30
        BYTE                   En3   v045
        BYTE   W30
        BYTE                   An2
        BYTE   W24
        BYTE   PEND
// 015   ----------------------------------------
TemporalTower_9_15:
        BYTE   W30
        BYTE           N03     An2   v065
        BYTE   W42
        BYTE                   An2   v045
        BYTE   W24
        BYTE   PEND
// 016   ----------------------------------------
TemporalTower_9_16:
        BYTE   W12
        BYTE           N03     An3   v065
        BYTE   W30
        BYTE                   Dn3   v045
        BYTE   W30
        BYTE                   An3
        BYTE   W24
        BYTE   PEND
// 017   ----------------------------------------
        BYTE   PATT
         POIN2  TemporalTower_9_13
// 018   ----------------------------------------
        BYTE   PATT
         POIN2  TemporalTower_9_14
// 019   ----------------------------------------
        BYTE   PATT
         POIN2  TemporalTower_9_15
// 020   ----------------------------------------
        BYTE   PATT
         POIN2  TemporalTower_9_16
// 021   ----------------------------------------
        BYTE   W96
// 022   ----------------------------------------
        BYTE   W96
// 023   ----------------------------------------
        BYTE   W96
// 024   ----------------------------------------
        BYTE   W96
// 025   ----------------------------------------
        BYTE   W96
// 026   ----------------------------------------
        BYTE   W96
// 027   ----------------------------------------
        BYTE   W96
// 028   ----------------------------------------
        BYTE   W96
// 029   ----------------------------------------
        BYTE   W96
// 030   ----------------------------------------
        BYTE   W96
// 031   ----------------------------------------
        BYTE   W96
// 032   ----------------------------------------
        BYTE   W96
// 033   ----------------------------------------
        BYTE   W96
// 034   ----------------------------------------
        BYTE   W96
// 035   ----------------------------------------
        BYTE   W96
// 036   ----------------------------------------
        BYTE   W96
// 037   ----------------------------------------
        BYTE   PATT
         POIN2  TemporalTower_9_13
// 038   ----------------------------------------
        BYTE   PATT
         POIN2  TemporalTower_9_14
// 039   ----------------------------------------
        BYTE   PATT
         POIN2  TemporalTower_9_15
// 040   ----------------------------------------
        BYTE   PATT
         POIN2  TemporalTower_9_16
// 041   ----------------------------------------
        BYTE   PATT
         POIN2  TemporalTower_9_13
// 042   ----------------------------------------
        BYTE   PATT
         POIN2  TemporalTower_9_14
// 043   ----------------------------------------
        BYTE   PATT
         POIN2  TemporalTower_9_15
// 044   ----------------------------------------
        BYTE   PATT
         POIN2  TemporalTower_9_16
// 045   ----------------------------------------
        BYTE   W96
// 046   ----------------------------------------
        BYTE   W96
// 047   ----------------------------------------
        BYTE   W96
// 048   ----------------------------------------
        BYTE   W96
// 049   ----------------------------------------
        BYTE   W96
// 050   ----------------------------------------
        BYTE   PATT
         POIN2  TemporalTower_7_12
// 051   ----------------------------------------
        BYTE   PATT
         POIN2  TemporalTower_7_13
// 052   ----------------------------------------
        BYTE   PATT
         POIN2  TemporalTower_7_14
// 053   ----------------------------------------
        BYTE   PATT
         POIN2  TemporalTower_7_15
// 054   ----------------------------------------
        BYTE   PATT
         POIN2  TemporalTower_7_16
// 055   ----------------------------------------
        BYTE   PATT
         POIN2  TemporalTower_7_13
// 056   ----------------------------------------
        BYTE   PATT
         POIN2  TemporalTower_7_14
// 057   ----------------------------------------
        BYTE   PATT
         POIN2  TemporalTower_7_15
// 058   ----------------------------------------
        BYTE   PATT
         POIN2  TemporalTower_7_16
// 059   ----------------------------------------
        BYTE   W96
// 060   ----------------------------------------
        BYTE   W96
// 061   ----------------------------------------
        BYTE   W96
// 062   ----------------------------------------
        BYTE   W96
// 063   ----------------------------------------
        BYTE   W96
// 064   ----------------------------------------
        BYTE   W96
// 065   ----------------------------------------
        BYTE   PATT
         POIN2  TemporalTower_9_3
// 066   ----------------------------------------
        BYTE   PATT
         POIN2  TemporalTower_9_4
// 067   ----------------------------------------
        BYTE           VOL     40
        BYTE   GoTo
         POIN2  TemporalTower_9_LOOP
        BYTE   W01
        BYTE                   39
        BYTE   W02
        BYTE                   37
        BYTE   W01
        BYTE                   35
        BYTE   W02
        BYTE                   34
        BYTE   W01
        BYTE                   32
        BYTE   W02
        BYTE                   30
        BYTE   W01
        BYTE                   29
        BYTE   W02
        BYTE                   27
        BYTE   W01
        BYTE                   25
        BYTE   W02
        BYTE                   24
        BYTE   W01
        BYTE                   21
        BYTE   W02
        BYTE                   18
        BYTE   W01
        BYTE                   16
        BYTE   W02
        BYTE                   13
        BYTE   W01
        BYTE                   10
        BYTE   W02
        BYTE                   8
        BYTE   W01
        BYTE                   5
        BYTE   W02
        BYTE                   3
        BYTE   W01
        BYTE                   0
        BYTE   W19
        BYTE           EOT     En3
        BYTE   W48
        BYTE   W01
// 068   ----------------------------------------
        BYTE   W96
// 069   ----------------------------------------
        BYTE   W96
// 070   ----------------------------------------
        BYTE   W96
// 071   ----------------------------------------
        BYTE   W96
// 072   ----------------------------------------
        BYTE   W96
// 073   ----------------------------------------
        BYTE   W96
// 074   ----------------------------------------
        BYTE   PATT
         POIN2  TemporalTower_9_12
// 075   ----------------------------------------
        BYTE   PATT
         POIN2  TemporalTower_9_13
// 076   ----------------------------------------
        BYTE   PATT
         POIN2  TemporalTower_9_14
// 077   ----------------------------------------
        BYTE   PATT
         POIN2  TemporalTower_9_15
// 078   ----------------------------------------
        BYTE   PATT
         POIN2  TemporalTower_9_16
// 079   ----------------------------------------
        BYTE   PATT
         POIN2  TemporalTower_9_13
// 080   ----------------------------------------
        BYTE   PATT
         POIN2  TemporalTower_9_14
// 081   ----------------------------------------
        BYTE   PATT
         POIN2  TemporalTower_9_15
// 082   ----------------------------------------
        BYTE   PATT
         POIN2  TemporalTower_9_16
// 083   ----------------------------------------
        BYTE   W96
// 084   ----------------------------------------
        BYTE   W96
// 085   ----------------------------------------
        BYTE   W96
// 086   ----------------------------------------
        BYTE   W96
// 087   ----------------------------------------
        BYTE   W96
// 088   ----------------------------------------
        BYTE   W96
// 089   ----------------------------------------
        BYTE   W96
// 090   ----------------------------------------
        BYTE   W96
// 091   ----------------------------------------
        BYTE   W96
// 092   ----------------------------------------
        BYTE   W96
// 093   ----------------------------------------
        BYTE   W96
// 094   ----------------------------------------
        BYTE   W96
// 095   ----------------------------------------
        BYTE   W96
// 096   ----------------------------------------
        BYTE   W96
// 097   ----------------------------------------
        BYTE   W96
// 098   ----------------------------------------
        BYTE   W96
// 099   ----------------------------------------
        BYTE   PATT
         POIN2  TemporalTower_9_13
// 100   ----------------------------------------
        BYTE   PATT
         POIN2  TemporalTower_9_14
// 101   ----------------------------------------
        BYTE   PATT
         POIN2  TemporalTower_9_15
// 102   ----------------------------------------
        BYTE   PATT
         POIN2  TemporalTower_9_16
// 103   ----------------------------------------
        BYTE   PATT
         POIN2  TemporalTower_9_13
// 104   ----------------------------------------
        BYTE   PATT
         POIN2  TemporalTower_9_14
// 105   ----------------------------------------
        BYTE   PATT
         POIN2  TemporalTower_9_15
// 106   ----------------------------------------
        BYTE   PATT
         POIN2  TemporalTower_9_16
// 107   ----------------------------------------
        BYTE   W96
// 108   ----------------------------------------
        BYTE   W96
// 109   ----------------------------------------
        BYTE   W96
// 110   ----------------------------------------
        BYTE   W96
// 111   ----------------------------------------
        BYTE   W96
// 112   ----------------------------------------
        BYTE   PATT
         POIN2  TemporalTower_7_12
// 113   ----------------------------------------
        BYTE   PATT
         POIN2  TemporalTower_7_13
// 114   ----------------------------------------
        BYTE   PATT
         POIN2  TemporalTower_7_14
// 115   ----------------------------------------
        BYTE   PATT
         POIN2  TemporalTower_7_15
// 116   ----------------------------------------
        BYTE   PATT
         POIN2  TemporalTower_7_16
// 117   ----------------------------------------
        BYTE   PATT
         POIN2  TemporalTower_7_13
// 118   ----------------------------------------
        BYTE   PATT
         POIN2  TemporalTower_7_14
// 119   ----------------------------------------
        BYTE   PATT
         POIN2  TemporalTower_7_15
// 120   ----------------------------------------
        BYTE   PATT
         POIN2  TemporalTower_7_16
// 121   ----------------------------------------
        BYTE   W96
// 122   ----------------------------------------
        BYTE   W96
// 123   ----------------------------------------
        BYTE   W96
// 124   ----------------------------------------
        BYTE   W96
// 125   ----------------------------------------
        BYTE   W96
// 126   ----------------------------------------
        BYTE   W96
// 127   ----------------------------------------
        BYTE   PATT
         POIN2  TemporalTower_9_3
// 128   ----------------------------------------
        BYTE   PATT
         POIN2  TemporalTower_9_4
// 129   ----------------------------------------
        BYTE           VOL     40
        BYTE   W01
        BYTE                   39
        BYTE   W02
        BYTE                   37
        BYTE   W01
        BYTE                   35
        BYTE   W02
        BYTE                   34
        BYTE   W01
        BYTE                   32
        BYTE   W02
        BYTE                   30
        BYTE   W01
        BYTE                   29
        BYTE   W02
        BYTE                   27
        BYTE   W01
        BYTE                   25
        BYTE   W02
        BYTE                   24
        BYTE   W01
        BYTE                   21
        BYTE   W02
        BYTE                   18
        BYTE   W01
        BYTE                   16
        BYTE   W02
        BYTE                   13
        BYTE   W01
        BYTE                   10
        BYTE   W02
        BYTE                   8
        BYTE   W01
        BYTE                   5
        BYTE   W02
        BYTE                   3
        BYTE   W01
        BYTE                   0
        BYTE   W19
        BYTE           EOT     En3
        BYTE   W48
        BYTE   W01
// 130   ----------------------------------------
        BYTE   W96
// 131   ----------------------------------------
        BYTE   W96
// 132   ----------------------------------------
        BYTE   W92
        BYTE   W03
        BYTE   FINE

//***************** Track 10 (Midi-Chn.11) *****************//

TemporalTower_10:
        BYTE   KEYSH   TemporalTower_key+0
// 000   ----------------------------------------
        BYTE   W24
// 001   ----------------------------------------
        BYTE           VOICE   0
        BYTE           VOL     45
        BYTE   W96
// 002   ----------------------------------------
        BYTE   W96
// 003   ----------------------------------------
        BYTE   W36
        BYTE   W02
        BYTE           VOICE   52
        BYTE   W01
        BYTE           VOL     54
        BYTE           PAN     c_v+40
        BYTE   W56
        BYTE           VOL     25
        BYTE   W01
// 004   ----------------------------------------
TemporalTower_10_4:
        BYTE           TIE     Dn3   v095
        BYTE   W04
        BYTE           VOL     27
        BYTE   W03
        BYTE                   28
        BYTE   W02
        BYTE                   29
        BYTE   W03
        BYTE                   30
        BYTE   W01
        BYTE                   31
        BYTE   W03
        BYTE                   32
        BYTE   W03
        BYTE                   33
        BYTE   W02
        BYTE                   34
        BYTE   W03
        BYTE                   35
        BYTE   W03
        BYTE                   36
        BYTE   W03
        BYTE                   37
        BYTE   W01
        BYTE                   38
        BYTE   W03
        BYTE                   39
        BYTE   W03
        BYTE                   40
        BYTE   W02
        BYTE                   41
        BYTE   W03
        BYTE                   42
        BYTE   W03
        BYTE                   43
        BYTE   W01
        BYTE                   44
        BYTE   W03
        BYTE                   45
        BYTE   W02
        BYTE                   46
        BYTE   W03
        BYTE                   47
        BYTE   W03
        BYTE                   48
        BYTE   W01
        BYTE                   49
        BYTE   W03
        BYTE                   50
        BYTE   W03
        BYTE                   51
        BYTE   W03
        BYTE                   52
        BYTE   W02
        BYTE                   53
        BYTE   W01
        BYTE                   54
        BYTE   W08
        BYTE                   51
        BYTE   W03
        BYTE                   50
        BYTE   W01
        BYTE                   49
        BYTE   W02
        BYTE                   48
        BYTE   W01
        BYTE                   47
        BYTE   W02
        BYTE                   46
        BYTE   W03
        BYTE                   45
        BYTE   W01
        BYTE                   44
        BYTE   W02
        BYTE                   43
        BYTE   W01
        BYTE                   41
        BYTE   W02
        BYTE   PEND
// 005   ----------------------------------------
TemporalTower_10_LOOP:
        BYTE           VOL     40
        BYTE   W01
        BYTE                   39
        BYTE   W02
        BYTE                   37
        BYTE   W01
        BYTE                   35
        BYTE   W02
        BYTE                   34
        BYTE   W01
        BYTE                   32
        BYTE   W02
        BYTE                   30
        BYTE   W01
        BYTE                   29
        BYTE   W02
        BYTE                   27
        BYTE   W01
        BYTE                   25
        BYTE   W02
        BYTE                   24
        BYTE   W01
        BYTE                   21
        BYTE   W02
        BYTE                   18
        BYTE   W01
        BYTE                   16
        BYTE   W02
        BYTE                   13
        BYTE   W01
        BYTE                   10
        BYTE   W02
        BYTE                   8
        BYTE   W01
        BYTE                   5
        BYTE   W02
        BYTE                   3
        BYTE   W01
        BYTE                   0
        BYTE   W19
        BYTE           EOT     Dn3
        BYTE   W48
        BYTE   W01
// 006   ----------------------------------------
        BYTE   W96
// 007   ----------------------------------------
        BYTE   W96
// 008   ----------------------------------------
        BYTE   W96
// 009   ----------------------------------------
        BYTE   W96
// 010   ----------------------------------------
        BYTE   W96
// 011   ----------------------------------------
        BYTE   W96
// 012   ----------------------------------------
TemporalTower_10_12:
        BYTE   W14
        BYTE           VOICE   46
        BYTE   W01
        BYTE           PAN     c_v+53
        BYTE           VOL     57
        BYTE   W80
        BYTE   W01
        BYTE   PEND
// 013   ----------------------------------------
TemporalTower_10_13:
        BYTE   W12
        BYTE           N03     Bn3   v065
        BYTE   W30
        BYTE                   Dn3   v045
        BYTE   W18
        BYTE                   En3   v065
        BYTE   W36
        BYTE   PEND
// 014   ----------------------------------------
TemporalTower_10_14:
        BYTE   W30
        BYTE           N03     Dn3   v065
        BYTE   W30
        BYTE                   An2
        BYTE   W36
        BYTE   PEND
// 015   ----------------------------------------
TemporalTower_10_15:
        BYTE   W12
        BYTE           N03     En3   v065
        BYTE   W30
        BYTE                   Gn2   v045
        BYTE   W18
        BYTE                   An2   v065
        BYTE   W36
        BYTE   PEND
// 016   ----------------------------------------
TemporalTower_10_16:
        BYTE   W30
        BYTE           N03     Dn3   v065
        BYTE   W30
        BYTE                   An3
        BYTE   W36
        BYTE   PEND
// 017   ----------------------------------------
        BYTE   PATT
         POIN2  TemporalTower_10_13
// 018   ----------------------------------------
        BYTE   PATT
         POIN2  TemporalTower_10_14
// 019   ----------------------------------------
        BYTE   PATT
         POIN2  TemporalTower_10_15
// 020   ----------------------------------------
        BYTE   PATT
         POIN2  TemporalTower_10_16
// 021   ----------------------------------------
        BYTE   W96
// 022   ----------------------------------------
        BYTE   W96
// 023   ----------------------------------------
        BYTE   W96
// 024   ----------------------------------------
        BYTE   W96
// 025   ----------------------------------------
        BYTE   W96
// 026   ----------------------------------------
        BYTE   W96
// 027   ----------------------------------------
        BYTE   W96
// 028   ----------------------------------------
        BYTE   W96
// 029   ----------------------------------------
        BYTE   W96
// 030   ----------------------------------------
        BYTE   W96
// 031   ----------------------------------------
        BYTE   W96
// 032   ----------------------------------------
        BYTE   W96
// 033   ----------------------------------------
        BYTE   W96
// 034   ----------------------------------------
        BYTE   W96
// 035   ----------------------------------------
        BYTE   W96
// 036   ----------------------------------------
        BYTE   W96
// 037   ----------------------------------------
        BYTE   PATT
         POIN2  TemporalTower_10_13
// 038   ----------------------------------------
        BYTE   PATT
         POIN2  TemporalTower_10_14
// 039   ----------------------------------------
        BYTE   PATT
         POIN2  TemporalTower_10_15
// 040   ----------------------------------------
        BYTE   PATT
         POIN2  TemporalTower_10_16
// 041   ----------------------------------------
        BYTE   PATT
         POIN2  TemporalTower_10_13
// 042   ----------------------------------------
        BYTE   PATT
         POIN2  TemporalTower_10_14
// 043   ----------------------------------------
        BYTE   PATT
         POIN2  TemporalTower_10_15
// 044   ----------------------------------------
        BYTE   PATT
         POIN2  TemporalTower_10_16
// 045   ----------------------------------------
        BYTE   W96
// 046   ----------------------------------------
        BYTE   W96
// 047   ----------------------------------------
        BYTE   W96
// 048   ----------------------------------------
        BYTE   W96
// 049   ----------------------------------------
        BYTE   W96
// 050   ----------------------------------------
        BYTE   PATT
         POIN2  TemporalTower_8_12
// 051   ----------------------------------------
        BYTE   PATT
         POIN2  TemporalTower_8_13
// 052   ----------------------------------------
        BYTE   PATT
         POIN2  TemporalTower_8_14
// 053   ----------------------------------------
        BYTE   PATT
         POIN2  TemporalTower_8_15
// 054   ----------------------------------------
        BYTE   PATT
         POIN2  TemporalTower_8_16
// 055   ----------------------------------------
        BYTE   PATT
         POIN2  TemporalTower_8_13
// 056   ----------------------------------------
        BYTE   PATT
         POIN2  TemporalTower_8_14
// 057   ----------------------------------------
        BYTE   PATT
         POIN2  TemporalTower_8_15
// 058   ----------------------------------------
        BYTE   PATT
         POIN2  TemporalTower_8_16
// 059   ----------------------------------------
        BYTE   W96
// 060   ----------------------------------------
        BYTE   W96
// 061   ----------------------------------------
        BYTE   W96
// 062   ----------------------------------------
        BYTE   W96
// 063   ----------------------------------------
        BYTE   W96
// 064   ----------------------------------------
        BYTE   W96
// 065   ----------------------------------------
TemporalTower_10_65:
        BYTE   W36
        BYTE   W02
        BYTE           VOICE   52
        BYTE   W01
        BYTE           VOL     54
        BYTE           PAN     c_v+10
        BYTE   W56
        BYTE           VOL     25
        BYTE   W01
        BYTE   PEND
// 066   ----------------------------------------
        BYTE   PATT
         POIN2  TemporalTower_10_4
// 067   ----------------------------------------
        BYTE           VOL     40
        BYTE           PAN     c_v+40
        BYTE   GoTo
         POIN2  TemporalTower_10_LOOP
        BYTE   W01
        BYTE           VOL     39
        BYTE   W02
        BYTE                   37
        BYTE   W01
        BYTE                   35
        BYTE   W02
        BYTE                   34
        BYTE   W01
        BYTE                   32
        BYTE   W02
        BYTE                   30
        BYTE   W01
        BYTE                   29
        BYTE   W02
        BYTE                   27
        BYTE   W01
        BYTE                   25
        BYTE   W02
        BYTE                   24
        BYTE   W01
        BYTE                   21
        BYTE   W02
        BYTE                   18
        BYTE   W01
        BYTE                   16
        BYTE   W02
        BYTE                   13
        BYTE   W01
        BYTE                   10
        BYTE   W02
        BYTE                   8
        BYTE   W01
        BYTE                   5
        BYTE   W02
        BYTE                   3
        BYTE   W01
        BYTE                   0
        BYTE   W19
        BYTE           EOT     Dn3
        BYTE   W48
        BYTE   W01
// 068   ----------------------------------------
        BYTE   W96
// 069   ----------------------------------------
        BYTE   W96
// 070   ----------------------------------------
        BYTE   W96
// 071   ----------------------------------------
        BYTE   W96
// 072   ----------------------------------------
        BYTE   W96
// 073   ----------------------------------------
        BYTE   W96
// 074   ----------------------------------------
        BYTE   PATT
         POIN2  TemporalTower_10_12
// 075   ----------------------------------------
        BYTE   PATT
         POIN2  TemporalTower_10_13
// 076   ----------------------------------------
        BYTE   PATT
         POIN2  TemporalTower_10_14
// 077   ----------------------------------------
        BYTE   PATT
         POIN2  TemporalTower_10_15
// 078   ----------------------------------------
        BYTE   PATT
         POIN2  TemporalTower_10_16
// 079   ----------------------------------------
        BYTE   PATT
         POIN2  TemporalTower_10_13
// 080   ----------------------------------------
        BYTE   PATT
         POIN2  TemporalTower_10_14
// 081   ----------------------------------------
        BYTE   PATT
         POIN2  TemporalTower_10_15
// 082   ----------------------------------------
        BYTE   PATT
         POIN2  TemporalTower_10_16
// 083   ----------------------------------------
        BYTE   W96
// 084   ----------------------------------------
        BYTE   W96
// 085   ----------------------------------------
        BYTE   W96
// 086   ----------------------------------------
        BYTE   W96
// 087   ----------------------------------------
        BYTE   W96
// 088   ----------------------------------------
        BYTE   W96
// 089   ----------------------------------------
        BYTE   W96
// 090   ----------------------------------------
        BYTE   W96
// 091   ----------------------------------------
        BYTE   W96
// 092   ----------------------------------------
        BYTE   W96
// 093   ----------------------------------------
        BYTE   W96
// 094   ----------------------------------------
        BYTE   W96
// 095   ----------------------------------------
        BYTE   W96
// 096   ----------------------------------------
        BYTE   W96
// 097   ----------------------------------------
        BYTE   W96
// 098   ----------------------------------------
        BYTE   W96
// 099   ----------------------------------------
        BYTE   PATT
         POIN2  TemporalTower_10_13
// 100   ----------------------------------------
        BYTE   PATT
         POIN2  TemporalTower_10_14
// 101   ----------------------------------------
        BYTE   PATT
         POIN2  TemporalTower_10_15
// 102   ----------------------------------------
        BYTE   PATT
         POIN2  TemporalTower_10_16
// 103   ----------------------------------------
        BYTE   PATT
         POIN2  TemporalTower_10_13
// 104   ----------------------------------------
        BYTE   PATT
         POIN2  TemporalTower_10_14
// 105   ----------------------------------------
        BYTE   PATT
         POIN2  TemporalTower_10_15
// 106   ----------------------------------------
        BYTE   PATT
         POIN2  TemporalTower_10_16
// 107   ----------------------------------------
        BYTE   W96
// 108   ----------------------------------------
        BYTE   W96
// 109   ----------------------------------------
        BYTE   W96
// 110   ----------------------------------------
        BYTE   W96
// 111   ----------------------------------------
        BYTE   W96
// 112   ----------------------------------------
        BYTE   PATT
         POIN2  TemporalTower_8_12
// 113   ----------------------------------------
        BYTE   PATT
         POIN2  TemporalTower_8_13
// 114   ----------------------------------------
        BYTE   PATT
         POIN2  TemporalTower_8_14
// 115   ----------------------------------------
        BYTE   PATT
         POIN2  TemporalTower_8_15
// 116   ----------------------------------------
        BYTE   PATT
         POIN2  TemporalTower_8_16
// 117   ----------------------------------------
        BYTE   PATT
         POIN2  TemporalTower_8_13
// 118   ----------------------------------------
        BYTE   PATT
         POIN2  TemporalTower_8_14
// 119   ----------------------------------------
        BYTE   PATT
         POIN2  TemporalTower_8_15
// 120   ----------------------------------------
        BYTE   PATT
         POIN2  TemporalTower_8_16
// 121   ----------------------------------------
        BYTE   W96
// 122   ----------------------------------------
        BYTE   W96
// 123   ----------------------------------------
        BYTE   W96
// 124   ----------------------------------------
        BYTE   W96
// 125   ----------------------------------------
        BYTE   W96
// 126   ----------------------------------------
        BYTE   W96
// 127   ----------------------------------------
        BYTE   PATT
         POIN2  TemporalTower_10_65
// 128   ----------------------------------------
        BYTE   PATT
         POIN2  TemporalTower_10_4
// 129   ----------------------------------------
        BYTE           VOL     40
        BYTE   W01
        BYTE                   39
        BYTE   W02
        BYTE                   37
        BYTE   W01
        BYTE                   35
        BYTE   W02
        BYTE                   34
        BYTE   W01
        BYTE                   32
        BYTE   W02
        BYTE                   30
        BYTE   W01
        BYTE                   29
        BYTE   W02
        BYTE                   27
        BYTE   W01
        BYTE                   25
        BYTE   W02
        BYTE                   24
        BYTE   W01
        BYTE                   21
        BYTE   W02
        BYTE                   18
        BYTE   W01
        BYTE                   16
        BYTE   W02
        BYTE                   13
        BYTE   W01
        BYTE                   10
        BYTE   W02
        BYTE                   8
        BYTE   W01
        BYTE                   5
        BYTE   W02
        BYTE                   3
        BYTE   W01
        BYTE                   0
        BYTE   W19
        BYTE           EOT     Dn3
        BYTE   W48
        BYTE   W01
// 130   ----------------------------------------
        BYTE   W96
// 131   ----------------------------------------
        BYTE   W96
// 132   ----------------------------------------
        BYTE   W92
        BYTE   W03
        BYTE   FINE


//********************** End of Song ***********************//

        ALIGN 4
TemporalTower:
        BYTE   11                      // Num Tracks
        BYTE   0                       // Unknown
        BYTE   TemporalTower_pri       // Priority
        BYTE   TemporalTower_rev       // Reverb

        POIN2   TemporalTower_grp      

        POIN2   TemporalTower_0
        POIN2   TemporalTower_1
        POIN2   TemporalTower_2
        POIN2   TemporalTower_3
        POIN2   TemporalTower_4
        POIN2   TemporalTower_5
        POIN2   TemporalTower_6
        POIN2   TemporalTower_7
        POIN2   TemporalTower_8
        POIN2   TemporalTower_9
        POIN2   TemporalTower_10

        
