//Event file generated from Sappy .s format.
        #include "MPlayDef.event"

        #define    TimeGear_grp  voicegroup000
        #define    TimeGear_pri  0
        #define    TimeGear_rev  0
        #define    TimeGear_key  0

        // .rodata
        // TimeGear
        ALIGN 4

//****************** Track 0 (Midi-Chn.0) ******************//

TimeGear_0:
        BYTE   KEYSH   TimeGear_key+0
// 000   ----------------------------------------
        BYTE   TEMPO   120/2
        BYTE   W24
// 001   ----------------------------------------
        BYTE   TEMPO   86/2
        BYTE           VOICE   73
        BYTE           VOL     55
        BYTE   W96
// 002   ----------------------------------------
        BYTE   W96
// 003   ----------------------------------------
        BYTE   W96
// 004   ----------------------------------------
        BYTE   W96
// 005   ----------------------------------------
        BYTE   W96
// 006   ----------------------------------------
        BYTE   W96
// 007   ----------------------------------------
        BYTE   W96
// 008   ----------------------------------------
        BYTE   W96
// 009   ----------------------------------------
        BYTE   W96
// 010   ----------------------------------------
        BYTE   W96
// 011   ----------------------------------------
        BYTE   W96
// 012   ----------------------------------------
        BYTE   W96
// 013   ----------------------------------------
        BYTE   W96
// 014   ----------------------------------------
        BYTE   W96
// 015   ----------------------------------------
        BYTE   W96
// 016   ----------------------------------------
        BYTE   W96
// 017   ----------------------------------------
        BYTE   W96
// 018   ----------------------------------------
        BYTE   W96
// 019   ----------------------------------------
        BYTE   W96
// 020   ----------------------------------------
        BYTE   W96
// 021   ----------------------------------------
        BYTE   W96
// 022   ----------------------------------------
        BYTE   W96
// 023   ----------------------------------------
        BYTE   W96
// 024   ----------------------------------------
        BYTE   W60
        BYTE           N12     Dn4   v127
        BYTE   W12
        BYTE           N06
        BYTE   W06
        BYTE                   Fs4
        BYTE   W06
        BYTE                   Gn4
        BYTE   W06
        BYTE                   An4
        BYTE   W06
// 025   ----------------------------------------
TimeGear_0_25:
        BYTE           N18     Bn4   v127
        BYTE   W18
        BYTE           N06     Bn4   v064
        BYTE   W06
        BYTE                   An4   v127
        BYTE   W06
        BYTE                   Gn4
        BYTE   W06
        BYTE           N12     Fs4
        BYTE   W12
        BYTE                   Dn4
        BYTE   W12
        BYTE                   Fs4
        BYTE   W12
        BYTE                   En4
        BYTE   W12
        BYTE                   Bn3
        BYTE   W12
        BYTE   PEND
// 026   ----------------------------------------
TimeGear_0_26:
        BYTE           N12     An3   v127
        BYTE   W12
        BYTE           N06     Bn3
        BYTE   W06
        BYTE                   Bn3   v064
        BYTE   W06
        BYTE                   En4   v127
        BYTE   W06
        BYTE                   Fs4
        BYTE   W06
        BYTE                   Gn4
        BYTE   W06
        BYTE                   An4
        BYTE   W06
        BYTE           N18     Bn4
        BYTE   W18
        BYTE           N06     Bn4   v064
        BYTE   W06
        BYTE                   An4   v127
        BYTE   W06
        BYTE                   Gn4
        BYTE   W06
        BYTE           N12     Fs4
        BYTE   W12
        BYTE   PEND
// 027   ----------------------------------------
TimeGear_0_27:
        BYTE           N12     Dn4   v127
        BYTE   W12
        BYTE                   Fs4
        BYTE   W12
        BYTE                   En4
        BYTE   W12
        BYTE                   Bn4
        BYTE   W12
        BYTE                   An4
        BYTE   W12
        BYTE           N06     Bn4
        BYTE   W06
        BYTE                   Bn4   v064
        BYTE   W06
        BYTE                   En4   v127
        BYTE   W06
        BYTE                   Fs4
        BYTE   W06
        BYTE                   Gn4
        BYTE   W06
        BYTE                   An4
        BYTE   W06
        BYTE   PEND
// 028   ----------------------------------------
        BYTE   PATT
         POIN2  TimeGear_0_25
// 029   ----------------------------------------
TimeGear_0_29:
        BYTE           N12     An3   v127
        BYTE   W12
        BYTE                   Bn3
        BYTE   W12
        BYTE                   Bn3   v064
        BYTE   W12
        BYTE           N06     Bn3   v127
        BYTE   W06
        BYTE                   Dn4
        BYTE   W06
        BYTE           N24     En4
        BYTE   W24
        BYTE           N12     Gn4
        BYTE   W12
        BYTE                   Fs4
        BYTE   W12
        BYTE   PEND
// 030   ----------------------------------------
TimeGear_0_30:
        BYTE           N12     En4   v127
        BYTE   W12
        BYTE                   Dn4
        BYTE   W12
        BYTE           N36     Bn3
        BYTE   W36
        BYTE           N12     Bn3   v064
        BYTE   W12
        BYTE           N06     En4   v127
        BYTE   W06
        BYTE                   Fs4
        BYTE   W06
        BYTE                   Gn4
        BYTE   W06
        BYTE                   An4
        BYTE   W06
        BYTE   PEND
// 031   ----------------------------------------
        BYTE   PATT
         POIN2  TimeGear_0_25
// 032   ----------------------------------------
        BYTE   PATT
         POIN2  TimeGear_0_26
// 033   ----------------------------------------
        BYTE   PATT
         POIN2  TimeGear_0_27
// 034   ----------------------------------------
        BYTE   PATT
         POIN2  TimeGear_0_25
// 035   ----------------------------------------
TimeGear_0_35:
        BYTE           N12     An3   v127
        BYTE   W12
        BYTE                   Bn3
        BYTE   W12
        BYTE                   An3
        BYTE   W12
        BYTE                   Gn3
        BYTE   W12
        BYTE           N60     En3
        BYTE   W48
        BYTE   PEND
// 036   ----------------------------------------
TimeGear_0_36:
        BYTE   W12
        BYTE           N12     En3   v064
        BYTE   W12
        BYTE           N24     En3   v127
        BYTE   W24
        BYTE           N12     Gn3
        BYTE   W12
        BYTE                   Fs3
        BYTE   W12
        BYTE                   En3
        BYTE   W12
        BYTE                   Dn3
        BYTE   W12
        BYTE   PEND
// 037   ----------------------------------------
TimeGear_0_37:
        BYTE           TIE     En3   v127
        BYTE   W04
        BYTE           VOL     51
        BYTE   W12
        BYTE                   50
        BYTE   W18
        BYTE                   49
        BYTE   W11
        BYTE                   48
        BYTE   W15
        BYTE                   47
        BYTE   W03
        BYTE                   46
        BYTE   W06
        BYTE                   45
        BYTE   W06
        BYTE                   44
        BYTE   W04
        BYTE                   43
        BYTE   W03
        BYTE                   42
        BYTE   W03
        BYTE                   41
        BYTE   W03
        BYTE                   40
        BYTE   W03
        BYTE                   39
        BYTE   W03
        BYTE                   38
        BYTE   W02
        BYTE   PEND
// 038   ----------------------------------------
TimeGear_0_LOOP:
        BYTE   W01
        BYTE           VOL     37
        BYTE   W03
        BYTE                   36
        BYTE   W03
        BYTE                   33
        BYTE   W03
        BYTE                   31
        BYTE   W03
        BYTE                   30
        BYTE   W05
        BYTE                   28
        BYTE   W03
        BYTE                   27
        BYTE   W03
        BYTE                   25
        BYTE   W03
        BYTE                   23
        BYTE   W03
        BYTE                   19
        BYTE   W03
        BYTE                   18
        BYTE   W03
        BYTE                   17
        BYTE   W03
        BYTE                   14
        BYTE   W03
        BYTE                   12
        BYTE   W03
        BYTE                   9
        BYTE   W03
        BYTE           EOT     En3
        BYTE   W48
// 039   ----------------------------------------
        BYTE   W96
// 040   ----------------------------------------
        BYTE   W96
// 041   ----------------------------------------
        BYTE   W96
// 042   ----------------------------------------
        BYTE   W96
// 043   ----------------------------------------
        BYTE   W96
// 044   ----------------------------------------
        BYTE   W96
// 045   ----------------------------------------
        BYTE   W96
// 046   ----------------------------------------
        BYTE   W96
// 047   ----------------------------------------
        BYTE   W96
// 048   ----------------------------------------
        BYTE   W96
// 049   ----------------------------------------
        BYTE   W96
// 050   ----------------------------------------
        BYTE   W96
// 051   ----------------------------------------
        BYTE   W96
// 052   ----------------------------------------
        BYTE   W96
// 053   ----------------------------------------
        BYTE   W96
// 054   ----------------------------------------
        BYTE   W96
// 055   ----------------------------------------
        BYTE   W96
// 056   ----------------------------------------
        BYTE   W96
// 057   ----------------------------------------
        BYTE   W96
// 058   ----------------------------------------
        BYTE   W96
// 059   ----------------------------------------
        BYTE   W96
// 060   ----------------------------------------
        BYTE   W44
        BYTE   W03
        BYTE           VOL     55
        BYTE   W13
        BYTE           N12     Dn4   v127
        BYTE   W12
        BYTE           N06
        BYTE   W06
        BYTE                   Fs4
        BYTE   W06
        BYTE                   Gn4
        BYTE   W06
        BYTE                   An4
        BYTE   W06
// 061   ----------------------------------------
        BYTE   PATT
         POIN2  TimeGear_0_25
// 062   ----------------------------------------
        BYTE   PATT
         POIN2  TimeGear_0_26
// 063   ----------------------------------------
        BYTE   PATT
         POIN2  TimeGear_0_27
// 064   ----------------------------------------
        BYTE   PATT
         POIN2  TimeGear_0_25
// 065   ----------------------------------------
        BYTE   PATT
         POIN2  TimeGear_0_29
// 066   ----------------------------------------
        BYTE   PATT
         POIN2  TimeGear_0_30
// 067   ----------------------------------------
        BYTE   PATT
         POIN2  TimeGear_0_25
// 068   ----------------------------------------
        BYTE   PATT
         POIN2  TimeGear_0_26
// 069   ----------------------------------------
        BYTE   PATT
         POIN2  TimeGear_0_27
// 070   ----------------------------------------
        BYTE   PATT
         POIN2  TimeGear_0_25
// 071   ----------------------------------------
        BYTE   PATT
         POIN2  TimeGear_0_35
// 072   ----------------------------------------
        BYTE   PATT
         POIN2  TimeGear_0_36
// 073   ----------------------------------------
        BYTE   PATT
         POIN2  TimeGear_0_37
// 074   ----------------------------------------
        BYTE   GoTo
         POIN2  TimeGear_0_LOOP
        BYTE   W01
        BYTE           VOL     37
        BYTE   W03
        BYTE                   36
        BYTE   W03
        BYTE                   33
        BYTE   W03
        BYTE                   31
        BYTE   W03
        BYTE                   30
        BYTE   W05
        BYTE                   28
        BYTE   W03
        BYTE                   27
        BYTE   W03
        BYTE                   25
        BYTE   W03
        BYTE                   23
        BYTE   W03
        BYTE                   19
        BYTE   W03
        BYTE                   18
        BYTE   W03
        BYTE                   17
        BYTE   W03
        BYTE                   14
        BYTE   W03
        BYTE                   12
        BYTE   W03
        BYTE                   9
        BYTE   W03
        BYTE           EOT     En3
        BYTE   W48
// 075   ----------------------------------------
        BYTE   W96
// 076   ----------------------------------------
        BYTE   W96
// 077   ----------------------------------------
        BYTE   W96
// 078   ----------------------------------------
        BYTE   W96
// 079   ----------------------------------------
        BYTE   W56
        BYTE   W03
        BYTE   FINE

//****************** Track 1 (Midi-Chn.1) ******************//

TimeGear_1:
        BYTE   KEYSH   TimeGear_key+0
// 000   ----------------------------------------
        BYTE   W24
// 001   ----------------------------------------
        BYTE           VOICE   73
        BYTE           VOL     29
        BYTE           PAN     c_v-64
        BYTE   W96
// 002   ----------------------------------------
        BYTE   W96
// 003   ----------------------------------------
        BYTE   W96
// 004   ----------------------------------------
        BYTE   W96
// 005   ----------------------------------------
        BYTE   W96
// 006   ----------------------------------------
        BYTE   W96
// 007   ----------------------------------------
        BYTE   W96
// 008   ----------------------------------------
        BYTE   W96
// 009   ----------------------------------------
        BYTE   W96
// 010   ----------------------------------------
        BYTE   W96
// 011   ----------------------------------------
        BYTE   W96
// 012   ----------------------------------------
        BYTE   W96
// 013   ----------------------------------------
        BYTE   W96
// 014   ----------------------------------------
        BYTE   W96
// 015   ----------------------------------------
        BYTE   W96
// 016   ----------------------------------------
        BYTE   W96
// 017   ----------------------------------------
        BYTE   W96
// 018   ----------------------------------------
        BYTE   W96
// 019   ----------------------------------------
        BYTE   W96
// 020   ----------------------------------------
        BYTE   W96
// 021   ----------------------------------------
        BYTE   W96
// 022   ----------------------------------------
        BYTE   W96
// 023   ----------------------------------------
        BYTE   W96
// 024   ----------------------------------------
        BYTE   W72
        BYTE           N12     Dn4   v127
        BYTE   W12
        BYTE           N06
        BYTE   W06
        BYTE                   Fs4
        BYTE   W06
// 025   ----------------------------------------
TimeGear_1_25:
        BYTE           N06     Gn4   v127
        BYTE   W06
        BYTE                   An4
        BYTE   W06
        BYTE           N18     Bn4
        BYTE   W18
        BYTE           N06     Bn4   v064
        BYTE   W06
        BYTE                   An4   v127
        BYTE   W06
        BYTE                   Gn4
        BYTE   W06
        BYTE           N12     Fs4
        BYTE   W12
        BYTE                   Dn4
        BYTE   W12
        BYTE                   Fs4
        BYTE   W12
        BYTE                   En4
        BYTE   W12
        BYTE   PEND
// 026   ----------------------------------------
TimeGear_1_26:
        BYTE           N12     Bn3   v127
        BYTE   W12
        BYTE                   An3
        BYTE   W12
        BYTE           N06     Bn3
        BYTE   W06
        BYTE                   Bn3   v064
        BYTE   W06
        BYTE                   En4   v127
        BYTE   W06
        BYTE                   Fs4
        BYTE   W06
        BYTE                   Gn4
        BYTE   W06
        BYTE                   An4
        BYTE   W06
        BYTE           N18     Bn4
        BYTE   W18
        BYTE           N06     Bn4   v064
        BYTE   W06
        BYTE                   An4   v127
        BYTE   W06
        BYTE                   Gn4
        BYTE   W06
        BYTE   PEND
// 027   ----------------------------------------
TimeGear_1_27:
        BYTE           N12     Fs4   v127
        BYTE   W12
        BYTE                   Dn4
        BYTE   W12
        BYTE                   Fs4
        BYTE   W12
        BYTE                   En4
        BYTE   W12
        BYTE                   Bn4
        BYTE   W12
        BYTE                   An4
        BYTE   W12
        BYTE           N06     Bn4
        BYTE   W06
        BYTE                   Bn4   v064
        BYTE   W06
        BYTE                   En4   v127
        BYTE   W06
        BYTE                   Fs4
        BYTE   W06
        BYTE   PEND
// 028   ----------------------------------------
        BYTE   PATT
         POIN2  TimeGear_1_25
// 029   ----------------------------------------
TimeGear_1_29:
        BYTE           N12     Bn3   v127
        BYTE   W12
        BYTE                   An3
        BYTE   W12
        BYTE                   Bn3
        BYTE   W12
        BYTE                   Bn3   v064
        BYTE   W12
        BYTE           N06     Bn3   v127
        BYTE   W06
        BYTE                   Dn4
        BYTE   W06
        BYTE           N24     En4
        BYTE   W24
        BYTE           N12     Gn4
        BYTE   W12
        BYTE   PEND
// 030   ----------------------------------------
TimeGear_1_30:
        BYTE           N12     Fs4   v127
        BYTE   W12
        BYTE                   En4
        BYTE   W12
        BYTE                   Dn4
        BYTE   W12
        BYTE           N36     Bn3
        BYTE   W36
        BYTE           N12     Bn3   v064
        BYTE   W12
        BYTE           N06     En4   v127
        BYTE   W06
        BYTE                   Fs4
        BYTE   W06
        BYTE   PEND
// 031   ----------------------------------------
        BYTE   PATT
         POIN2  TimeGear_1_25
// 032   ----------------------------------------
        BYTE   PATT
         POIN2  TimeGear_1_26
// 033   ----------------------------------------
        BYTE   PATT
         POIN2  TimeGear_1_27
// 034   ----------------------------------------
        BYTE   PATT
         POIN2  TimeGear_1_25
// 035   ----------------------------------------
TimeGear_1_35:
        BYTE           N12     Bn3   v127
        BYTE   W12
        BYTE                   An3
        BYTE   W12
        BYTE                   Bn3
        BYTE   W12
        BYTE                   An3
        BYTE   W12
        BYTE                   Gn3
        BYTE   W12
        BYTE           N60     En3
        BYTE   W36
        BYTE   PEND
// 036   ----------------------------------------
TimeGear_1_36:
        BYTE   W24
        BYTE           N12     En3   v064
        BYTE   W12
        BYTE           N24     En3   v127
        BYTE   W24
        BYTE           N12     Gn3
        BYTE   W12
        BYTE                   Fs3
        BYTE   W12
        BYTE                   En3
        BYTE   W12
        BYTE   PEND
// 037   ----------------------------------------
TimeGear_1_37:
        BYTE           N12     Dn3   v127
        BYTE   W12
        BYTE           TIE     En3
        BYTE   W04
        BYTE           VOL     27
        BYTE   W12
        BYTE                   26
        BYTE   W21
        BYTE                   25
        BYTE   W23
        BYTE                   24
        BYTE   W15
        BYTE                   23
        BYTE   W04
        BYTE                   22
        BYTE   W05
        BYTE   PEND
// 038   ----------------------------------------
TimeGear_1_LOOP:
        BYTE   W04
        BYTE           VOL     21
        BYTE   W06
        BYTE                   20
        BYTE   W03
        BYTE                   19
        BYTE   W06
        BYTE                   17
        BYTE   W03
        BYTE                   16
        BYTE   W08
        BYTE                   15
        BYTE   W03
        BYTE                   14
        BYTE   W03
        BYTE                   13
        BYTE   W03
        BYTE                   12
        BYTE   W03
        BYTE                   10
        BYTE   W06
        BYTE                   9
        BYTE   W03
        BYTE                   7
        BYTE   W03
        BYTE                   6
        BYTE   W03
        BYTE                   5
        BYTE   W03
        BYTE           EOT     En3
        BYTE   W36
// 039   ----------------------------------------
        BYTE   W96
// 040   ----------------------------------------
        BYTE   W96
// 041   ----------------------------------------
        BYTE   W96
// 042   ----------------------------------------
        BYTE   W96
// 043   ----------------------------------------
        BYTE   W96
// 044   ----------------------------------------
        BYTE   W96
// 045   ----------------------------------------
        BYTE   W96
// 046   ----------------------------------------
        BYTE   W96
// 047   ----------------------------------------
        BYTE   W96
// 048   ----------------------------------------
        BYTE   W96
// 049   ----------------------------------------
        BYTE   W96
// 050   ----------------------------------------
        BYTE   W96
// 051   ----------------------------------------
        BYTE   W96
// 052   ----------------------------------------
        BYTE   W96
// 053   ----------------------------------------
        BYTE   W96
// 054   ----------------------------------------
        BYTE   W96
// 055   ----------------------------------------
        BYTE   W96
// 056   ----------------------------------------
        BYTE   W96
// 057   ----------------------------------------
        BYTE   W96
// 058   ----------------------------------------
        BYTE   W96
// 059   ----------------------------------------
        BYTE   W96
// 060   ----------------------------------------
        BYTE   W56
        BYTE   W03
        BYTE           VOL     29
        BYTE   W13
        BYTE           N12     Dn4   v127
        BYTE   W12
        BYTE           N06
        BYTE   W06
        BYTE                   Fs4
        BYTE   W06
// 061   ----------------------------------------
        BYTE   PATT
         POIN2  TimeGear_1_25
// 062   ----------------------------------------
        BYTE   PATT
         POIN2  TimeGear_1_26
// 063   ----------------------------------------
        BYTE   PATT
         POIN2  TimeGear_1_27
// 064   ----------------------------------------
        BYTE   PATT
         POIN2  TimeGear_1_25
// 065   ----------------------------------------
        BYTE   PATT
         POIN2  TimeGear_1_29
// 066   ----------------------------------------
        BYTE   PATT
         POIN2  TimeGear_1_30
// 067   ----------------------------------------
        BYTE   PATT
         POIN2  TimeGear_1_25
// 068   ----------------------------------------
        BYTE   PATT
         POIN2  TimeGear_1_26
// 069   ----------------------------------------
        BYTE   PATT
         POIN2  TimeGear_1_27
// 070   ----------------------------------------
        BYTE   PATT
         POIN2  TimeGear_1_25
// 071   ----------------------------------------
        BYTE   PATT
         POIN2  TimeGear_1_35
// 072   ----------------------------------------
        BYTE   PATT
         POIN2  TimeGear_1_36
// 073   ----------------------------------------
        BYTE   PATT
         POIN2  TimeGear_1_37
// 074   ----------------------------------------
        BYTE   GoTo
         POIN2  TimeGear_1_LOOP
        BYTE   W04
        BYTE           VOL     21
        BYTE   W06
        BYTE                   20
        BYTE   W03
        BYTE                   19
        BYTE   W06
        BYTE                   17
        BYTE   W03
        BYTE                   16
        BYTE   W08
        BYTE                   15
        BYTE   W03
        BYTE                   14
        BYTE   W03
        BYTE                   13
        BYTE   W03
        BYTE                   12
        BYTE   W03
        BYTE                   10
        BYTE   W06
        BYTE                   9
        BYTE   W03
        BYTE                   7
        BYTE   W03
        BYTE                   6
        BYTE   W03
        BYTE                   5
        BYTE   W03
        BYTE           EOT     En3
        BYTE   W36
// 075   ----------------------------------------
        BYTE   W96
// 076   ----------------------------------------
        BYTE   W96
// 077   ----------------------------------------
        BYTE   W96
// 078   ----------------------------------------
        BYTE   W96
// 079   ----------------------------------------
        BYTE   W56
        BYTE   W03
        BYTE   FINE

//****************** Track 2 (Midi-Chn.2) ******************//

TimeGear_2:
        BYTE   KEYSH   TimeGear_key+0
// 000   ----------------------------------------
        BYTE   W24
// 001   ----------------------------------------
        BYTE           VOICE   48
        BYTE           VOL     0
        BYTE           TIE     An1   v110
        BYTE   W02
        BYTE           VOL     2
        BYTE   W03
        BYTE                   3
        BYTE   W07
        BYTE                   4
        BYTE   W05
        BYTE                   5
        BYTE   W04
        BYTE                   6
        BYTE   W06
        BYTE                   7
        BYTE   W03
        BYTE                   8
        BYTE   W05
        BYTE                   9
        BYTE   W07
        BYTE                   10
        BYTE   W05
        BYTE                   11
        BYTE   W04
        BYTE                   12
        BYTE   W05
        BYTE                   13
        BYTE   W04
        BYTE                   14
        BYTE   W06
        BYTE                   15
        BYTE   W06
        BYTE                   16
        BYTE   W05
        BYTE                   17
        BYTE   W04
        BYTE                   18
        BYTE   W05
        BYTE                   19
        BYTE   W04
        BYTE                   20
        BYTE   W06
// 002   ----------------------------------------
TimeGear_2_2:
        BYTE           VOL     21
        BYTE   W06
        BYTE                   22
        BYTE   W05
        BYTE                   23
        BYTE   W03
        BYTE                   24
        BYTE   W06
        BYTE                   25
        BYTE   W04
        BYTE                   26
        BYTE   W06
        BYTE                   27
        BYTE   W06
        BYTE                   28
        BYTE   W05
        BYTE                   29
        BYTE   W03
        BYTE                   30
        BYTE   W06
        BYTE                   31
        BYTE   W06
        BYTE                   32
        BYTE   W04
        BYTE                   33
        BYTE   W06
        BYTE                   34
        BYTE   W15
        BYTE                   33
        BYTE   W15
        BYTE   PEND
// 003   ----------------------------------------
TimeGear_2_3:
        BYTE   W06
        BYTE           VOL     32
        BYTE   W12
        BYTE                   31
        BYTE   W14
        BYTE                   30
        BYTE   W06
        BYTE                   29
        BYTE   W06
        BYTE                   28
        BYTE   W04
        BYTE                   27
        BYTE   W06
        BYTE                   26
        BYTE   W03
        BYTE                   25
        BYTE   W05
        BYTE                   24
        BYTE   W01
        BYTE                   23
        BYTE   W03
        BYTE                   22
        BYTE   W05
        BYTE                   20
        BYTE   W04
        BYTE                   19
        BYTE   W03
        BYTE                   18
        BYTE   W05
        BYTE                   17
        BYTE   W01
        BYTE                   15
        BYTE   W03
        BYTE                   13
        BYTE   W02
        BYTE                   12
        BYTE   W03
        BYTE                   10
        BYTE   W03
        BYTE           EOT     An1
        BYTE           VOL     0
        BYTE   W01
        BYTE   PEND
// 004   ----------------------------------------
TimeGear_2_4:
        BYTE           TIE     Gn1   v110
        BYTE   W02
        BYTE           VOL     2
        BYTE   W03
        BYTE                   3
        BYTE   W07
        BYTE                   4
        BYTE   W05
        BYTE                   5
        BYTE   W04
        BYTE                   6
        BYTE   W06
        BYTE                   7
        BYTE   W03
        BYTE                   8
        BYTE   W05
        BYTE                   9
        BYTE   W07
        BYTE                   10
        BYTE   W05
        BYTE                   11
        BYTE   W04
        BYTE                   12
        BYTE   W05
        BYTE                   13
        BYTE   W04
        BYTE                   14
        BYTE   W06
        BYTE                   15
        BYTE   W06
        BYTE                   16
        BYTE   W05
        BYTE                   17
        BYTE   W04
        BYTE                   18
        BYTE   W05
        BYTE                   19
        BYTE   W04
        BYTE                   20
        BYTE   W06
        BYTE   PEND
// 005   ----------------------------------------
        BYTE   PATT
         POIN2  TimeGear_2_2
// 006   ----------------------------------------
        BYTE   W06
        BYTE           VOL     32
        BYTE   W12
        BYTE                   31
        BYTE   W14
        BYTE                   30
        BYTE   W06
        BYTE                   29
        BYTE   W06
        BYTE                   28
        BYTE   W04
        BYTE                   27
        BYTE   W06
        BYTE                   26
        BYTE   W03
        BYTE                   25
        BYTE   W05
        BYTE                   24
        BYTE   W01
        BYTE                   23
        BYTE   W03
        BYTE                   22
        BYTE   W05
        BYTE                   20
        BYTE   W04
        BYTE                   19
        BYTE   W03
        BYTE                   18
        BYTE   W05
        BYTE                   17
        BYTE   W01
        BYTE                   15
        BYTE   W03
        BYTE                   13
        BYTE   W02
        BYTE                   12
        BYTE   W03
        BYTE                   10
        BYTE   W03
        BYTE           EOT     Gn1
        BYTE           VOL     0
        BYTE   W01
// 007   ----------------------------------------
TimeGear_2_7:
        BYTE           TIE     An1   v110
        BYTE   W02
        BYTE           VOL     2
        BYTE   W03
        BYTE                   3
        BYTE   W07
        BYTE                   4
        BYTE   W05
        BYTE                   5
        BYTE   W04
        BYTE                   6
        BYTE   W06
        BYTE                   7
        BYTE   W03
        BYTE                   8
        BYTE   W05
        BYTE                   9
        BYTE   W07
        BYTE                   10
        BYTE   W05
        BYTE                   11
        BYTE   W04
        BYTE                   12
        BYTE   W05
        BYTE                   13
        BYTE   W04
        BYTE                   14
        BYTE   W06
        BYTE                   15
        BYTE   W06
        BYTE                   16
        BYTE   W05
        BYTE                   17
        BYTE   W04
        BYTE                   18
        BYTE   W05
        BYTE                   19
        BYTE   W04
        BYTE                   20
        BYTE   W06
        BYTE   PEND
// 008   ----------------------------------------
        BYTE   PATT
         POIN2  TimeGear_2_2
// 009   ----------------------------------------
        BYTE   PATT
         POIN2  TimeGear_2_3
// 010   ----------------------------------------
        BYTE   PATT
         POIN2  TimeGear_2_4
// 011   ----------------------------------------
        BYTE   PATT
         POIN2  TimeGear_2_2
// 012   ----------------------------------------
TimeGear_2_12:
        BYTE   W06
        BYTE           VOL     32
        BYTE   W12
        BYTE                   31
        BYTE   W14
        BYTE                   30
        BYTE   W06
        BYTE                   29
        BYTE   W06
        BYTE                   28
        BYTE   W04
        BYTE                   27
        BYTE   W06
        BYTE                   26
        BYTE   W03
        BYTE                   25
        BYTE   W05
        BYTE                   24
        BYTE   W01
        BYTE                   23
        BYTE   W03
        BYTE                   22
        BYTE   W05
        BYTE                   20
        BYTE   W04
        BYTE                   19
        BYTE   W03
        BYTE                   18
        BYTE   W05
        BYTE                   17
        BYTE   W01
        BYTE                   15
        BYTE   W03
        BYTE                   13
        BYTE   W02
        BYTE                   12
        BYTE   W03
        BYTE                   10
        BYTE   W03
        BYTE           EOT     Gn1
        BYTE   W01
        BYTE   PEND
// 013   ----------------------------------------
TimeGear_2_13:
        BYTE           TIE     Fn1   v110
        BYTE   W01
        BYTE           VOL     14
        BYTE   W05
        BYTE                   15
        BYTE   W01
        BYTE                   16
        BYTE   W03
        BYTE                   17
        BYTE   W03
        BYTE                   18
        BYTE   W05
        BYTE                   19
        BYTE   W01
        BYTE                   20
        BYTE   W05
        BYTE                   21
        BYTE   W03
        BYTE                   22
        BYTE   W03
        BYTE                   23
        BYTE   W03
        BYTE                   24
        BYTE   W06
        BYTE                   26
        BYTE   W03
        BYTE                   27
        BYTE   W04
        BYTE                   28
        BYTE   W08
        BYTE                   29
        BYTE   W04
        BYTE                   30
        BYTE   W11
        BYTE                   29
        BYTE   W15
        BYTE                   28
        BYTE   W06
        BYTE                   27
        BYTE   W06
        BYTE   PEND
// 014   ----------------------------------------
TimeGear_2_14:
        BYTE   W07
        BYTE           VOL     26
        BYTE   W08
        BYTE                   25
        BYTE   W04
        BYTE                   24
        BYTE   W03
        BYTE                   23
        BYTE   W03
        BYTE                   22
        BYTE   W02
        BYTE                   21
        BYTE   W04
        BYTE                   18
        BYTE   W05
        BYTE                   17
        BYTE   W01
        BYTE                   16
        BYTE   W02
        BYTE                   15
        BYTE   W08
        BYTE           EOT     Fn1
        BYTE   W01
        BYTE           TIE     En1   v110
        BYTE   W01
        BYTE           VOL     14
        BYTE   W05
        BYTE                   15
        BYTE   W01
        BYTE                   16
        BYTE   W03
        BYTE                   17
        BYTE   W03
        BYTE                   18
        BYTE   W05
        BYTE                   19
        BYTE   W01
        BYTE                   20
        BYTE   W05
        BYTE                   21
        BYTE   W03
        BYTE                   22
        BYTE   W03
        BYTE                   23
        BYTE   W03
        BYTE                   24
        BYTE   W06
        BYTE                   26
        BYTE   W03
        BYTE                   27
        BYTE   W04
        BYTE                   28
        BYTE   W02
        BYTE   PEND
// 015   ----------------------------------------
TimeGear_2_15:
        BYTE   W06
        BYTE           VOL     29
        BYTE   W04
        BYTE                   30
        BYTE   W11
        BYTE                   29
        BYTE   W15
        BYTE                   28
        BYTE   W06
        BYTE                   27
        BYTE   W13
        BYTE                   26
        BYTE   W08
        BYTE                   25
        BYTE   W04
        BYTE                   24
        BYTE   W03
        BYTE                   23
        BYTE   W03
        BYTE                   22
        BYTE   W02
        BYTE                   21
        BYTE   W04
        BYTE                   18
        BYTE   W05
        BYTE                   17
        BYTE   W01
        BYTE                   16
        BYTE   W02
        BYTE                   15
        BYTE   W08
        BYTE           EOT     En1
        BYTE   W01
        BYTE   PEND
// 016   ----------------------------------------
        BYTE   PATT
         POIN2  TimeGear_2_13
// 017   ----------------------------------------
        BYTE   PATT
         POIN2  TimeGear_2_14
// 018   ----------------------------------------
        BYTE   PATT
         POIN2  TimeGear_2_15
// 019   ----------------------------------------
        BYTE   PATT
         POIN2  TimeGear_2_13
// 020   ----------------------------------------
        BYTE   PATT
         POIN2  TimeGear_2_14
// 021   ----------------------------------------
        BYTE   PATT
         POIN2  TimeGear_2_15
// 022   ----------------------------------------
        BYTE   PATT
         POIN2  TimeGear_2_13
// 023   ----------------------------------------
        BYTE   PATT
         POIN2  TimeGear_2_14
// 024   ----------------------------------------
        BYTE   PATT
         POIN2  TimeGear_2_15
// 025   ----------------------------------------
TimeGear_2_25:
        BYTE           TIE     Cn2   v110
        BYTE   W01
        BYTE           VOL     14
        BYTE   W05
        BYTE                   15
        BYTE   W01
        BYTE                   16
        BYTE   W03
        BYTE                   17
        BYTE   W03
        BYTE                   18
        BYTE   W05
        BYTE                   19
        BYTE   W01
        BYTE                   20
        BYTE   W05
        BYTE                   21
        BYTE   W03
        BYTE                   22
        BYTE   W03
        BYTE                   23
        BYTE   W03
        BYTE                   24
        BYTE   W06
        BYTE                   26
        BYTE   W03
        BYTE                   27
        BYTE   W04
        BYTE                   28
        BYTE   W08
        BYTE                   29
        BYTE   W04
        BYTE                   30
        BYTE   W11
        BYTE                   29
        BYTE   W15
        BYTE                   28
        BYTE   W06
        BYTE                   27
        BYTE   W06
        BYTE   PEND
// 026   ----------------------------------------
TimeGear_2_26:
        BYTE   W07
        BYTE           VOL     26
        BYTE   W08
        BYTE                   25
        BYTE   W04
        BYTE                   24
        BYTE   W03
        BYTE                   23
        BYTE   W03
        BYTE                   22
        BYTE   W02
        BYTE                   21
        BYTE   W04
        BYTE                   18
        BYTE   W05
        BYTE                   17
        BYTE   W01
        BYTE                   16
        BYTE   W02
        BYTE                   15
        BYTE   W08
        BYTE           EOT     Cn2
        BYTE   W01
        BYTE           TIE     Dn2   v110
        BYTE   W01
        BYTE           VOL     14
        BYTE   W05
        BYTE                   15
        BYTE   W01
        BYTE                   16
        BYTE   W03
        BYTE                   17
        BYTE   W03
        BYTE                   18
        BYTE   W05
        BYTE                   19
        BYTE   W01
        BYTE                   20
        BYTE   W05
        BYTE                   21
        BYTE   W03
        BYTE                   22
        BYTE   W03
        BYTE                   23
        BYTE   W03
        BYTE                   24
        BYTE   W06
        BYTE                   26
        BYTE   W03
        BYTE                   27
        BYTE   W04
        BYTE                   28
        BYTE   W02
        BYTE   PEND
// 027   ----------------------------------------
TimeGear_2_27:
        BYTE   W06
        BYTE           VOL     29
        BYTE   W04
        BYTE                   30
        BYTE   W11
        BYTE                   29
        BYTE   W15
        BYTE                   28
        BYTE   W06
        BYTE                   27
        BYTE   W13
        BYTE                   26
        BYTE   W08
        BYTE                   25
        BYTE   W04
        BYTE                   24
        BYTE   W03
        BYTE                   23
        BYTE   W03
        BYTE                   22
        BYTE   W02
        BYTE                   21
        BYTE   W04
        BYTE                   18
        BYTE   W05
        BYTE                   17
        BYTE   W01
        BYTE                   16
        BYTE   W02
        BYTE                   15
        BYTE   W08
        BYTE           EOT     Dn2
        BYTE   W01
        BYTE   PEND
// 028   ----------------------------------------
        BYTE   PATT
         POIN2  TimeGear_2_25
// 029   ----------------------------------------
TimeGear_2_29:
        BYTE   W07
        BYTE           VOL     26
        BYTE   W08
        BYTE                   25
        BYTE   W04
        BYTE                   24
        BYTE   W03
        BYTE                   23
        BYTE   W03
        BYTE                   22
        BYTE   W02
        BYTE                   21
        BYTE   W04
        BYTE                   18
        BYTE   W05
        BYTE                   17
        BYTE   W01
        BYTE                   16
        BYTE   W02
        BYTE                   15
        BYTE   W08
        BYTE           EOT     Cn2
        BYTE   W01
        BYTE           N68     Dn2   v110   gtp3
        BYTE   W01
        BYTE           VOL     14
        BYTE   W05
        BYTE                   15
        BYTE   W01
        BYTE                   16
        BYTE   W03
        BYTE                   17
        BYTE   W03
        BYTE                   18
        BYTE   W05
        BYTE                   19
        BYTE   W01
        BYTE                   20
        BYTE   W05
        BYTE                   21
        BYTE   W03
        BYTE                   22
        BYTE   W03
        BYTE                   23
        BYTE   W03
        BYTE                   24
        BYTE   W06
        BYTE                   26
        BYTE   W03
        BYTE                   27
        BYTE   W04
        BYTE                   28
        BYTE   W02
        BYTE   PEND
// 030   ----------------------------------------
TimeGear_2_30:
        BYTE   W06
        BYTE           VOL     29
        BYTE   W04
        BYTE                   30
        BYTE   W11
        BYTE                   29
        BYTE   W03
        BYTE           N68     Bn1   v110   gtp3
        BYTE   W12
        BYTE           VOL     28
        BYTE   W06
        BYTE                   27
        BYTE   W13
        BYTE                   26
        BYTE   W08
        BYTE                   25
        BYTE   W04
        BYTE                   24
        BYTE   W03
        BYTE                   23
        BYTE   W03
        BYTE                   22
        BYTE   W02
        BYTE                   21
        BYTE   W04
        BYTE                   18
        BYTE   W05
        BYTE                   17
        BYTE   W01
        BYTE                   16
        BYTE   W02
        BYTE                   15
        BYTE   W09
        BYTE   PEND
// 031   ----------------------------------------
        BYTE   PATT
         POIN2  TimeGear_2_25
// 032   ----------------------------------------
        BYTE   PATT
         POIN2  TimeGear_2_26
// 033   ----------------------------------------
        BYTE   PATT
         POIN2  TimeGear_2_27
// 034   ----------------------------------------
        BYTE   PATT
         POIN2  TimeGear_2_25
// 035   ----------------------------------------
        BYTE   PATT
         POIN2  TimeGear_2_29
// 036   ----------------------------------------
TimeGear_2_36:
        BYTE   W06
        BYTE           VOL     29
        BYTE   W04
        BYTE                   30
        BYTE   W11
        BYTE                   29
        BYTE   W03
        BYTE           N68     Bn1   v110   gtp3
        BYTE   W12
        BYTE           VOL     28
        BYTE   W06
        BYTE                   27
        BYTE   W13
        BYTE                   26
        BYTE   W08
        BYTE                   25
        BYTE   W04
        BYTE                   24
        BYTE   W03
        BYTE                   23
        BYTE   W03
        BYTE                   22
        BYTE   W02
        BYTE                   21
        BYTE   W04
        BYTE                   18
        BYTE   W05
        BYTE                   17
        BYTE   W01
        BYTE                   16
        BYTE   W02
        BYTE                   15
        BYTE   W08
        BYTE                   0
        BYTE   W01
        BYTE   PEND
// 037   ----------------------------------------
        BYTE   PATT
         POIN2  TimeGear_2_7
// 038   ----------------------------------------
TimeGear_2_LOOP:
        BYTE           VOL     21
        BYTE   W06
        BYTE                   22
        BYTE   W05
        BYTE                   23
        BYTE   W03
        BYTE                   24
        BYTE   W06
        BYTE                   25
        BYTE   W04
        BYTE                   26
        BYTE   W06
        BYTE                   27
        BYTE   W06
        BYTE                   28
        BYTE   W05
        BYTE                   29
        BYTE   W03
        BYTE                   30
        BYTE   W06
        BYTE                   31
        BYTE   W06
        BYTE                   32
        BYTE   W04
        BYTE                   33
        BYTE   W06
        BYTE                   34
        BYTE   W15
        BYTE                   33
        BYTE   W15
// 039   ----------------------------------------
        BYTE   PATT
         POIN2  TimeGear_2_3
// 040   ----------------------------------------
        BYTE   PATT
         POIN2  TimeGear_2_4
// 041   ----------------------------------------
        BYTE   PATT
         POIN2  TimeGear_2_2
// 042   ----------------------------------------
        BYTE   PATT
         POIN2  TimeGear_2_12
// 043   ----------------------------------------
        BYTE   PATT
         POIN2  TimeGear_2_7
// 044   ----------------------------------------
        BYTE   PATT
         POIN2  TimeGear_2_2
// 045   ----------------------------------------
        BYTE   PATT
         POIN2  TimeGear_2_3
// 046   ----------------------------------------
        BYTE   PATT
         POIN2  TimeGear_2_4
// 047   ----------------------------------------
        BYTE   PATT
         POIN2  TimeGear_2_2
// 048   ----------------------------------------
        BYTE   PATT
         POIN2  TimeGear_2_12
// 049   ----------------------------------------
        BYTE   PATT
         POIN2  TimeGear_2_13
// 050   ----------------------------------------
        BYTE   PATT
         POIN2  TimeGear_2_14
// 051   ----------------------------------------
        BYTE   PATT
         POIN2  TimeGear_2_15
// 052   ----------------------------------------
        BYTE   PATT
         POIN2  TimeGear_2_13
// 053   ----------------------------------------
        BYTE   PATT
         POIN2  TimeGear_2_14
// 054   ----------------------------------------
        BYTE   PATT
         POIN2  TimeGear_2_15
// 055   ----------------------------------------
        BYTE   PATT
         POIN2  TimeGear_2_13
// 056   ----------------------------------------
        BYTE   PATT
         POIN2  TimeGear_2_14
// 057   ----------------------------------------
        BYTE   PATT
         POIN2  TimeGear_2_15
// 058   ----------------------------------------
        BYTE   PATT
         POIN2  TimeGear_2_13
// 059   ----------------------------------------
        BYTE   PATT
         POIN2  TimeGear_2_14
// 060   ----------------------------------------
        BYTE   PATT
         POIN2  TimeGear_2_15
// 061   ----------------------------------------
        BYTE   PATT
         POIN2  TimeGear_2_25
// 062   ----------------------------------------
        BYTE   PATT
         POIN2  TimeGear_2_26
// 063   ----------------------------------------
        BYTE   PATT
         POIN2  TimeGear_2_27
// 064   ----------------------------------------
        BYTE   PATT
         POIN2  TimeGear_2_25
// 065   ----------------------------------------
        BYTE   PATT
         POIN2  TimeGear_2_29
// 066   ----------------------------------------
        BYTE   PATT
         POIN2  TimeGear_2_30
// 067   ----------------------------------------
        BYTE   PATT
         POIN2  TimeGear_2_25
// 068   ----------------------------------------
        BYTE   PATT
         POIN2  TimeGear_2_26
// 069   ----------------------------------------
        BYTE   PATT
         POIN2  TimeGear_2_27
// 070   ----------------------------------------
        BYTE   PATT
         POIN2  TimeGear_2_25
// 071   ----------------------------------------
        BYTE   PATT
         POIN2  TimeGear_2_29
// 072   ----------------------------------------
        BYTE   PATT
         POIN2  TimeGear_2_36
// 073   ----------------------------------------
        BYTE   PATT
         POIN2  TimeGear_2_7
// 074   ----------------------------------------
        BYTE           VOL     21
        BYTE   GoTo
         POIN2  TimeGear_2_LOOP
        BYTE   W06
        BYTE                   22
        BYTE   W05
        BYTE                   23
        BYTE   W03
        BYTE                   24
        BYTE   W06
        BYTE                   25
        BYTE   W04
        BYTE                   26
        BYTE   W06
        BYTE                   27
        BYTE   W06
        BYTE                   28
        BYTE   W05
        BYTE                   29
        BYTE   W03
        BYTE                   30
        BYTE   W06
        BYTE                   31
        BYTE   W06
        BYTE                   32
        BYTE   W04
        BYTE                   33
        BYTE   W06
        BYTE                   34
        BYTE   W15
        BYTE                   33
        BYTE   W15
// 075   ----------------------------------------
        BYTE   PATT
         POIN2  TimeGear_2_3
// 076   ----------------------------------------
        BYTE   PATT
         POIN2  TimeGear_2_4
// 077   ----------------------------------------
        BYTE   PATT
         POIN2  TimeGear_2_2
// 078   ----------------------------------------
        BYTE   PATT
         POIN2  TimeGear_2_12
// 079   ----------------------------------------
        BYTE   W56
        BYTE   W03
        BYTE   FINE

//****************** Track 3 (Midi-Chn.3) ******************//

TimeGear_3:
        BYTE   KEYSH   TimeGear_key+0
// 000   ----------------------------------------
        BYTE   W24
// 001   ----------------------------------------
        BYTE           VOICE   48
        BYTE           PAN     c_v-20
        BYTE           VOL     0
        BYTE           TIE     En2   v110
        BYTE   W02
        BYTE           VOL     2
        BYTE   W01
        BYTE                   3
        BYTE   W06
        BYTE                   4
        BYTE   W05
        BYTE                   5
        BYTE   W03
        BYTE                   6
        BYTE   W04
        BYTE                   7
        BYTE   W06
        BYTE                   8
        BYTE   W02
        BYTE                   9
        BYTE   W04
        BYTE                   10
        BYTE   W06
        BYTE                   11
        BYTE   W05
        BYTE                   12
        BYTE   W03
        BYTE                   13
        BYTE   W04
        BYTE                   14
        BYTE   W05
        BYTE                   15
        BYTE   W03
        BYTE                   16
        BYTE   W04
        BYTE                   17
        BYTE   W06
        BYTE                   18
        BYTE   W03
        BYTE                   19
        BYTE   W05
        BYTE                   20
        BYTE   W04
        BYTE                   21
        BYTE   W05
        BYTE                   22
        BYTE   W03
        BYTE                   23
        BYTE   W04
        BYTE                   24
        BYTE   W03
// 002   ----------------------------------------
TimeGear_3_2:
        BYTE   W02
        BYTE           VOL     25
        BYTE   W04
        BYTE                   26
        BYTE   W05
        BYTE                   27
        BYTE   W03
        BYTE                   28
        BYTE   W06
        BYTE                   29
        BYTE   W03
        BYTE                   30
        BYTE   W04
        BYTE                   31
        BYTE   W05
        BYTE                   32
        BYTE   W04
        BYTE                   33
        BYTE   W05
        BYTE                   34
        BYTE   W03
        BYTE                   35
        BYTE   W04
        BYTE                   36
        BYTE   W05
        BYTE                   37
        BYTE   W04
        BYTE                   38
        BYTE   W05
        BYTE                   39
        BYTE   W04
        BYTE                   40
        BYTE   W15
        BYTE                   39
        BYTE   W15
        BYTE   PEND
// 003   ----------------------------------------
TimeGear_3_3:
        BYTE   W03
        BYTE           VOL     38
        BYTE   W08
        BYTE                   37
        BYTE   W16
        BYTE                   36
        BYTE   W06
        BYTE                   35
        BYTE   W05
        BYTE                   34
        BYTE   W06
        BYTE                   33
        BYTE   W04
        BYTE                   32
        BYTE   W05
        BYTE                   31
        BYTE   W01
        BYTE                   30
        BYTE   W05
        BYTE                   29
        BYTE   W03
        BYTE                   28
        BYTE   W01
        BYTE                   27
        BYTE   W03
        BYTE                   26
        BYTE   W05
        BYTE                   24
        BYTE   W03
        BYTE                   23
        BYTE   W01
        BYTE                   22
        BYTE   W03
        BYTE                   21
        BYTE   W05
        BYTE                   20
        BYTE   W01
        BYTE                   18
        BYTE   W03
        BYTE                   15
        BYTE   W02
        BYTE                   14
        BYTE   W03
        BYTE                   12
        BYTE   W03
        BYTE           EOT     En2
        BYTE           VOL     0
        BYTE   W01
        BYTE   PEND
// 004   ----------------------------------------
TimeGear_3_4:
        BYTE           TIE     Dn2   v110
        BYTE   W02
        BYTE           VOL     2
        BYTE   W01
        BYTE                   3
        BYTE   W06
        BYTE                   4
        BYTE   W05
        BYTE                   5
        BYTE   W03
        BYTE                   6
        BYTE   W04
        BYTE                   7
        BYTE   W06
        BYTE                   8
        BYTE   W02
        BYTE                   9
        BYTE   W04
        BYTE                   10
        BYTE   W06
        BYTE                   11
        BYTE   W05
        BYTE                   12
        BYTE   W03
        BYTE                   13
        BYTE   W04
        BYTE                   14
        BYTE   W05
        BYTE                   15
        BYTE   W03
        BYTE                   16
        BYTE   W04
        BYTE                   17
        BYTE   W06
        BYTE                   18
        BYTE   W03
        BYTE                   19
        BYTE   W05
        BYTE                   20
        BYTE   W04
        BYTE                   21
        BYTE   W05
        BYTE                   22
        BYTE   W03
        BYTE                   23
        BYTE   W04
        BYTE                   24
        BYTE   W03
        BYTE   PEND
// 005   ----------------------------------------
        BYTE   PATT
         POIN2  TimeGear_3_2
// 006   ----------------------------------------
        BYTE   W03
        BYTE           VOL     38
        BYTE   W08
        BYTE                   37
        BYTE   W16
        BYTE                   36
        BYTE   W06
        BYTE                   35
        BYTE   W05
        BYTE                   34
        BYTE   W06
        BYTE                   33
        BYTE   W04
        BYTE                   32
        BYTE   W05
        BYTE                   31
        BYTE   W01
        BYTE                   30
        BYTE   W05
        BYTE                   29
        BYTE   W03
        BYTE                   28
        BYTE   W01
        BYTE                   27
        BYTE   W03
        BYTE                   26
        BYTE   W05
        BYTE                   24
        BYTE   W03
        BYTE                   23
        BYTE   W01
        BYTE                   22
        BYTE   W03
        BYTE                   21
        BYTE   W05
        BYTE                   20
        BYTE   W01
        BYTE                   18
        BYTE   W03
        BYTE                   15
        BYTE   W02
        BYTE                   14
        BYTE   W03
        BYTE                   12
        BYTE   W03
        BYTE           EOT     Dn2
        BYTE           VOL     0
        BYTE   W01
// 007   ----------------------------------------
TimeGear_3_7:
        BYTE           TIE     En2   v110
        BYTE   W02
        BYTE           VOL     2
        BYTE   W01
        BYTE                   3
        BYTE   W06
        BYTE                   4
        BYTE   W05
        BYTE                   5
        BYTE   W03
        BYTE                   6
        BYTE   W04
        BYTE                   7
        BYTE   W06
        BYTE                   8
        BYTE   W02
        BYTE                   9
        BYTE   W04
        BYTE                   10
        BYTE   W06
        BYTE                   11
        BYTE   W05
        BYTE                   12
        BYTE   W03
        BYTE                   13
        BYTE   W04
        BYTE                   14
        BYTE   W05
        BYTE                   15
        BYTE   W03
        BYTE                   16
        BYTE   W04
        BYTE                   17
        BYTE   W06
        BYTE                   18
        BYTE   W03
        BYTE                   19
        BYTE   W05
        BYTE                   20
        BYTE   W04
        BYTE                   21
        BYTE   W05
        BYTE                   22
        BYTE   W03
        BYTE                   23
        BYTE   W04
        BYTE                   24
        BYTE   W03
        BYTE   PEND
// 008   ----------------------------------------
        BYTE   PATT
         POIN2  TimeGear_3_2
// 009   ----------------------------------------
        BYTE   PATT
         POIN2  TimeGear_3_3
// 010   ----------------------------------------
        BYTE   PATT
         POIN2  TimeGear_3_4
// 011   ----------------------------------------
        BYTE   PATT
         POIN2  TimeGear_3_2
// 012   ----------------------------------------
TimeGear_3_12:
        BYTE   W03
        BYTE           VOL     38
        BYTE   W08
        BYTE                   37
        BYTE   W16
        BYTE                   36
        BYTE   W06
        BYTE                   35
        BYTE   W05
        BYTE                   34
        BYTE   W06
        BYTE                   33
        BYTE   W04
        BYTE                   32
        BYTE   W05
        BYTE                   31
        BYTE   W01
        BYTE                   30
        BYTE   W05
        BYTE                   29
        BYTE   W03
        BYTE                   28
        BYTE   W01
        BYTE                   27
        BYTE   W03
        BYTE                   26
        BYTE   W05
        BYTE                   24
        BYTE   W03
        BYTE                   23
        BYTE   W01
        BYTE                   22
        BYTE   W03
        BYTE                   21
        BYTE   W05
        BYTE                   20
        BYTE   W01
        BYTE                   18
        BYTE   W03
        BYTE                   15
        BYTE   W02
        BYTE                   14
        BYTE   W03
        BYTE                   12
        BYTE   W03
        BYTE           EOT     Dn2
        BYTE   W01
        BYTE   PEND
// 013   ----------------------------------------
TimeGear_3_13:
        BYTE           TIE     Cn2   v110
        BYTE   W01
        BYTE           VOL     16
        BYTE   W02
        BYTE                   17
        BYTE   W03
        BYTE                   18
        BYTE   W01
        BYTE                   19
        BYTE   W03
        BYTE                   20
        BYTE   W03
        BYTE                   21
        BYTE   W05
        BYTE                   22
        BYTE   W01
        BYTE                   23
        BYTE   W03
        BYTE                   24
        BYTE   W02
        BYTE                   25
        BYTE   W03
        BYTE                   26
        BYTE   W03
        BYTE                   27
        BYTE   W03
        BYTE                   28
        BYTE   W06
        BYTE                   30
        BYTE   W01
        BYTE                   31
        BYTE   W03
        BYTE                   32
        BYTE   W03
        BYTE                   33
        BYTE   W08
        BYTE                   34
        BYTE   W04
        BYTE                   35
        BYTE   W11
        BYTE                   34
        BYTE   W15
        BYTE                   33
        BYTE   W06
        BYTE                   32
        BYTE   W06
        BYTE   PEND
// 014   ----------------------------------------
TimeGear_3_14:
        BYTE   W06
        BYTE           VOL     31
        BYTE   W04
        BYTE                   30
        BYTE   W05
        BYTE                   29
        BYTE   W04
        BYTE                   28
        BYTE   W03
        BYTE                   27
        BYTE   W03
        BYTE                   26
        BYTE   W02
        BYTE                   25
        BYTE   W01
        BYTE                   24
        BYTE   W03
        BYTE                   21
        BYTE   W05
        BYTE                   20
        BYTE   W01
        BYTE                   19
        BYTE   W02
        BYTE                   18
        BYTE   W08
        BYTE           EOT     Cn2
        BYTE   W01
        BYTE           TIE     Bn1   v110
        BYTE   W01
        BYTE           VOL     16
        BYTE   W02
        BYTE                   17
        BYTE   W03
        BYTE                   18
        BYTE   W01
        BYTE                   19
        BYTE   W03
        BYTE                   20
        BYTE   W03
        BYTE                   21
        BYTE   W05
        BYTE                   22
        BYTE   W01
        BYTE                   23
        BYTE   W03
        BYTE                   24
        BYTE   W02
        BYTE                   25
        BYTE   W03
        BYTE                   26
        BYTE   W03
        BYTE                   27
        BYTE   W03
        BYTE                   28
        BYTE   W06
        BYTE                   30
        BYTE   W01
        BYTE                   31
        BYTE   W03
        BYTE                   32
        BYTE   W03
        BYTE                   33
        BYTE   W02
        BYTE   PEND
// 015   ----------------------------------------
TimeGear_3_15:
        BYTE   W06
        BYTE           VOL     34
        BYTE   W04
        BYTE                   35
        BYTE   W11
        BYTE                   34
        BYTE   W15
        BYTE                   33
        BYTE   W06
        BYTE                   32
        BYTE   W12
        BYTE                   31
        BYTE   W04
        BYTE                   30
        BYTE   W05
        BYTE                   29
        BYTE   W04
        BYTE                   28
        BYTE   W03
        BYTE                   27
        BYTE   W03
        BYTE                   26
        BYTE   W02
        BYTE                   25
        BYTE   W01
        BYTE                   24
        BYTE   W03
        BYTE                   21
        BYTE   W05
        BYTE                   20
        BYTE   W01
        BYTE                   19
        BYTE   W02
        BYTE                   18
        BYTE   W08
        BYTE           EOT     Bn1
        BYTE   W01
        BYTE   PEND
// 016   ----------------------------------------
        BYTE   PATT
         POIN2  TimeGear_3_13
// 017   ----------------------------------------
        BYTE   PATT
         POIN2  TimeGear_3_14
// 018   ----------------------------------------
        BYTE   PATT
         POIN2  TimeGear_3_15
// 019   ----------------------------------------
        BYTE   PATT
         POIN2  TimeGear_3_13
// 020   ----------------------------------------
        BYTE   PATT
         POIN2  TimeGear_3_14
// 021   ----------------------------------------
        BYTE   PATT
         POIN2  TimeGear_3_15
// 022   ----------------------------------------
        BYTE   PATT
         POIN2  TimeGear_3_13
// 023   ----------------------------------------
        BYTE   PATT
         POIN2  TimeGear_3_14
// 024   ----------------------------------------
        BYTE   PATT
         POIN2  TimeGear_3_15
// 025   ----------------------------------------
TimeGear_3_25:
        BYTE           TIE     Cn3   v110
        BYTE   W01
        BYTE           VOL     16
        BYTE   W02
        BYTE                   17
        BYTE   W03
        BYTE                   18
        BYTE   W01
        BYTE                   19
        BYTE   W03
        BYTE                   20
        BYTE   W03
        BYTE                   21
        BYTE   W05
        BYTE                   22
        BYTE   W01
        BYTE                   23
        BYTE   W03
        BYTE                   24
        BYTE   W02
        BYTE                   25
        BYTE   W03
        BYTE                   26
        BYTE   W03
        BYTE                   27
        BYTE   W03
        BYTE                   28
        BYTE   W06
        BYTE                   30
        BYTE   W01
        BYTE                   31
        BYTE   W03
        BYTE                   32
        BYTE   W03
        BYTE                   33
        BYTE   W08
        BYTE                   34
        BYTE   W04
        BYTE                   35
        BYTE   W11
        BYTE                   34
        BYTE   W15
        BYTE                   33
        BYTE   W06
        BYTE                   32
        BYTE   W06
        BYTE   PEND
// 026   ----------------------------------------
TimeGear_3_26:
        BYTE   W06
        BYTE           VOL     31
        BYTE   W04
        BYTE                   30
        BYTE   W05
        BYTE                   29
        BYTE   W04
        BYTE                   28
        BYTE   W03
        BYTE                   27
        BYTE   W03
        BYTE                   26
        BYTE   W02
        BYTE                   25
        BYTE   W01
        BYTE                   24
        BYTE   W03
        BYTE                   21
        BYTE   W05
        BYTE                   20
        BYTE   W01
        BYTE                   19
        BYTE   W02
        BYTE                   18
        BYTE   W08
        BYTE           EOT     Cn3
        BYTE   W01
        BYTE           N68     Fs2   v110   gtp3
        BYTE   W01
        BYTE           VOL     16
        BYTE   W02
        BYTE                   17
        BYTE   W03
        BYTE                   18
        BYTE   W01
        BYTE                   19
        BYTE   W03
        BYTE                   20
        BYTE   W03
        BYTE                   21
        BYTE   W05
        BYTE                   22
        BYTE   W01
        BYTE                   23
        BYTE   W03
        BYTE                   24
        BYTE   W02
        BYTE                   25
        BYTE   W03
        BYTE                   26
        BYTE   W03
        BYTE                   27
        BYTE   W03
        BYTE                   28
        BYTE   W06
        BYTE                   30
        BYTE   W01
        BYTE                   31
        BYTE   W03
        BYTE                   32
        BYTE   W03
        BYTE                   33
        BYTE   W02
        BYTE   PEND
// 027   ----------------------------------------
TimeGear_3_27:
        BYTE   W06
        BYTE           VOL     34
        BYTE   W04
        BYTE                   35
        BYTE   W11
        BYTE                   34
        BYTE   W03
        BYTE           N68     An2   v110   gtp3
        BYTE   W12
        BYTE           VOL     33
        BYTE   W06
        BYTE                   32
        BYTE   W12
        BYTE                   31
        BYTE   W04
        BYTE                   30
        BYTE   W05
        BYTE                   29
        BYTE   W04
        BYTE                   28
        BYTE   W03
        BYTE                   27
        BYTE   W03
        BYTE                   26
        BYTE   W02
        BYTE                   25
        BYTE   W01
        BYTE                   24
        BYTE   W03
        BYTE                   21
        BYTE   W05
        BYTE                   20
        BYTE   W01
        BYTE                   19
        BYTE   W02
        BYTE                   18
        BYTE   W09
        BYTE   PEND
// 028   ----------------------------------------
        BYTE   PATT
         POIN2  TimeGear_3_25
// 029   ----------------------------------------
        BYTE   PATT
         POIN2  TimeGear_3_26
// 030   ----------------------------------------
        BYTE   PATT
         POIN2  TimeGear_3_27
// 031   ----------------------------------------
        BYTE   PATT
         POIN2  TimeGear_3_25
// 032   ----------------------------------------
        BYTE   PATT
         POIN2  TimeGear_3_26
// 033   ----------------------------------------
        BYTE   PATT
         POIN2  TimeGear_3_27
// 034   ----------------------------------------
        BYTE   PATT
         POIN2  TimeGear_3_25
// 035   ----------------------------------------
        BYTE   PATT
         POIN2  TimeGear_3_26
// 036   ----------------------------------------
TimeGear_3_36:
        BYTE   W06
        BYTE           VOL     34
        BYTE   W04
        BYTE                   35
        BYTE   W11
        BYTE                   34
        BYTE   W03
        BYTE           N68     An2   v110   gtp3
        BYTE   W12
        BYTE           VOL     33
        BYTE   W06
        BYTE                   32
        BYTE   W12
        BYTE                   31
        BYTE   W04
        BYTE                   30
        BYTE   W05
        BYTE                   29
        BYTE   W04
        BYTE                   28
        BYTE   W03
        BYTE                   27
        BYTE   W03
        BYTE                   26
        BYTE   W02
        BYTE                   25
        BYTE   W01
        BYTE                   24
        BYTE   W03
        BYTE                   21
        BYTE   W05
        BYTE                   20
        BYTE   W01
        BYTE                   19
        BYTE   W02
        BYTE                   18
        BYTE   W08
        BYTE                   0
        BYTE   W01
        BYTE   PEND
// 037   ----------------------------------------
        BYTE   PATT
         POIN2  TimeGear_3_7
// 038   ----------------------------------------
TimeGear_3_LOOP:
        BYTE   W02
        BYTE           VOL     25
        BYTE   W04
        BYTE                   26
        BYTE   W05
        BYTE                   27
        BYTE   W03
        BYTE                   28
        BYTE   W06
        BYTE                   29
        BYTE   W03
        BYTE                   30
        BYTE   W04
        BYTE                   31
        BYTE   W05
        BYTE                   32
        BYTE   W04
        BYTE                   33
        BYTE   W05
        BYTE                   34
        BYTE   W03
        BYTE                   35
        BYTE   W04
        BYTE                   36
        BYTE   W05
        BYTE                   37
        BYTE   W04
        BYTE                   38
        BYTE   W05
        BYTE                   39
        BYTE   W04
        BYTE                   40
        BYTE   W15
        BYTE                   39
        BYTE   W15
// 039   ----------------------------------------
        BYTE   PATT
         POIN2  TimeGear_3_3
// 040   ----------------------------------------
        BYTE   PATT
         POIN2  TimeGear_3_4
// 041   ----------------------------------------
        BYTE   PATT
         POIN2  TimeGear_3_2
// 042   ----------------------------------------
        BYTE   PATT
         POIN2  TimeGear_3_12
// 043   ----------------------------------------
        BYTE   PATT
         POIN2  TimeGear_3_7
// 044   ----------------------------------------
        BYTE   PATT
         POIN2  TimeGear_3_2
// 045   ----------------------------------------
        BYTE   PATT
         POIN2  TimeGear_3_3
// 046   ----------------------------------------
        BYTE   PATT
         POIN2  TimeGear_3_4
// 047   ----------------------------------------
        BYTE   PATT
         POIN2  TimeGear_3_2
// 048   ----------------------------------------
        BYTE   PATT
         POIN2  TimeGear_3_12
// 049   ----------------------------------------
        BYTE   PATT
         POIN2  TimeGear_3_13
// 050   ----------------------------------------
        BYTE   PATT
         POIN2  TimeGear_3_14
// 051   ----------------------------------------
        BYTE   PATT
         POIN2  TimeGear_3_15
// 052   ----------------------------------------
        BYTE   PATT
         POIN2  TimeGear_3_13
// 053   ----------------------------------------
        BYTE   PATT
         POIN2  TimeGear_3_14
// 054   ----------------------------------------
        BYTE   PATT
         POIN2  TimeGear_3_15
// 055   ----------------------------------------
        BYTE   PATT
         POIN2  TimeGear_3_13
// 056   ----------------------------------------
        BYTE   PATT
         POIN2  TimeGear_3_14
// 057   ----------------------------------------
        BYTE   PATT
         POIN2  TimeGear_3_15
// 058   ----------------------------------------
        BYTE   PATT
         POIN2  TimeGear_3_13
// 059   ----------------------------------------
        BYTE   PATT
         POIN2  TimeGear_3_14
// 060   ----------------------------------------
        BYTE   PATT
         POIN2  TimeGear_3_15
// 061   ----------------------------------------
        BYTE   PATT
         POIN2  TimeGear_3_25
// 062   ----------------------------------------
        BYTE   PATT
         POIN2  TimeGear_3_26
// 063   ----------------------------------------
        BYTE   PATT
         POIN2  TimeGear_3_27
// 064   ----------------------------------------
        BYTE   PATT
         POIN2  TimeGear_3_25
// 065   ----------------------------------------
        BYTE   PATT
         POIN2  TimeGear_3_26
// 066   ----------------------------------------
        BYTE   PATT
         POIN2  TimeGear_3_27
// 067   ----------------------------------------
        BYTE   PATT
         POIN2  TimeGear_3_25
// 068   ----------------------------------------
        BYTE   PATT
         POIN2  TimeGear_3_26
// 069   ----------------------------------------
        BYTE   PATT
         POIN2  TimeGear_3_27
// 070   ----------------------------------------
        BYTE   PATT
         POIN2  TimeGear_3_25
// 071   ----------------------------------------
        BYTE   PATT
         POIN2  TimeGear_3_26
// 072   ----------------------------------------
        BYTE   PATT
         POIN2  TimeGear_3_36
// 073   ----------------------------------------
        BYTE   PATT
         POIN2  TimeGear_3_7
// 074   ----------------------------------------
        BYTE   GoTo
         POIN2  TimeGear_3_LOOP
        BYTE   W02
        BYTE           VOL     25
        BYTE   W04
        BYTE                   26
        BYTE   W05
        BYTE                   27
        BYTE   W03
        BYTE                   28
        BYTE   W06
        BYTE                   29
        BYTE   W03
        BYTE                   30
        BYTE   W04
        BYTE                   31
        BYTE   W05
        BYTE                   32
        BYTE   W04
        BYTE                   33
        BYTE   W05
        BYTE                   34
        BYTE   W03
        BYTE                   35
        BYTE   W04
        BYTE                   36
        BYTE   W05
        BYTE                   37
        BYTE   W04
        BYTE                   38
        BYTE   W05
        BYTE                   39
        BYTE   W04
        BYTE                   40
        BYTE   W15
        BYTE                   39
        BYTE   W15
// 075   ----------------------------------------
        BYTE   PATT
         POIN2  TimeGear_3_3
// 076   ----------------------------------------
        BYTE   PATT
         POIN2  TimeGear_3_4
// 077   ----------------------------------------
        BYTE   PATT
         POIN2  TimeGear_3_2
// 078   ----------------------------------------
        BYTE   PATT
         POIN2  TimeGear_3_12
// 079   ----------------------------------------
        BYTE   W56
        BYTE   W03
        BYTE   FINE

//****************** Track 4 (Midi-Chn.4) ******************//

TimeGear_4:
        BYTE   KEYSH   TimeGear_key+0
// 000   ----------------------------------------
        BYTE   W24
// 001   ----------------------------------------
        BYTE           VOICE   48
        BYTE           PAN     c_v+20
        BYTE           VOL     0
        BYTE           TIE     Bn2   v110
        BYTE   W02
        BYTE           VOL     2
        BYTE   W01
        BYTE                   3
        BYTE   W06
        BYTE                   4
        BYTE   W05
        BYTE                   5
        BYTE   W03
        BYTE                   6
        BYTE   W04
        BYTE                   7
        BYTE   W06
        BYTE                   8
        BYTE   W02
        BYTE                   9
        BYTE   W04
        BYTE                   10
        BYTE   W06
        BYTE                   11
        BYTE   W05
        BYTE                   12
        BYTE   W03
        BYTE                   13
        BYTE   W04
        BYTE                   14
        BYTE   W05
        BYTE                   15
        BYTE   W03
        BYTE                   16
        BYTE   W04
        BYTE                   17
        BYTE   W06
        BYTE                   18
        BYTE   W03
        BYTE                   19
        BYTE   W05
        BYTE                   20
        BYTE   W04
        BYTE                   21
        BYTE   W05
        BYTE                   22
        BYTE   W03
        BYTE                   23
        BYTE   W04
        BYTE                   24
        BYTE   W03
// 002   ----------------------------------------
        BYTE   PATT
         POIN2  TimeGear_3_2
// 003   ----------------------------------------
TimeGear_4_3:
        BYTE   W03
        BYTE           VOL     38
        BYTE   W08
        BYTE                   37
        BYTE   W16
        BYTE                   36
        BYTE   W06
        BYTE                   35
        BYTE   W05
        BYTE                   34
        BYTE   W06
        BYTE                   33
        BYTE   W04
        BYTE                   32
        BYTE   W05
        BYTE                   31
        BYTE   W01
        BYTE                   30
        BYTE   W05
        BYTE                   29
        BYTE   W03
        BYTE                   28
        BYTE   W01
        BYTE                   27
        BYTE   W03
        BYTE                   26
        BYTE   W05
        BYTE                   24
        BYTE   W03
        BYTE                   23
        BYTE   W01
        BYTE                   22
        BYTE   W03
        BYTE                   21
        BYTE   W05
        BYTE                   20
        BYTE   W01
        BYTE                   18
        BYTE   W03
        BYTE                   15
        BYTE   W02
        BYTE                   14
        BYTE   W03
        BYTE                   12
        BYTE   W03
        BYTE           EOT     Bn2
        BYTE           VOL     0
        BYTE   W01
        BYTE   PEND
// 004   ----------------------------------------
TimeGear_4_4:
        BYTE           TIE     An2   v110
        BYTE   W02
        BYTE           VOL     2
        BYTE   W01
        BYTE                   3
        BYTE   W06
        BYTE                   4
        BYTE   W05
        BYTE                   5
        BYTE   W03
        BYTE                   6
        BYTE   W04
        BYTE                   7
        BYTE   W06
        BYTE                   8
        BYTE   W02
        BYTE                   9
        BYTE   W04
        BYTE                   10
        BYTE   W06
        BYTE                   11
        BYTE   W05
        BYTE                   12
        BYTE   W03
        BYTE                   13
        BYTE   W04
        BYTE                   14
        BYTE   W05
        BYTE                   15
        BYTE   W03
        BYTE                   16
        BYTE   W04
        BYTE                   17
        BYTE   W06
        BYTE                   18
        BYTE   W03
        BYTE                   19
        BYTE   W05
        BYTE                   20
        BYTE   W04
        BYTE                   21
        BYTE   W05
        BYTE                   22
        BYTE   W03
        BYTE                   23
        BYTE   W04
        BYTE                   24
        BYTE   W03
        BYTE   PEND
// 005   ----------------------------------------
        BYTE   PATT
         POIN2  TimeGear_3_2
// 006   ----------------------------------------
        BYTE   W03
        BYTE           VOL     38
        BYTE   W08
        BYTE                   37
        BYTE   W16
        BYTE                   36
        BYTE   W06
        BYTE                   35
        BYTE   W05
        BYTE                   34
        BYTE   W06
        BYTE                   33
        BYTE   W04
        BYTE                   32
        BYTE   W05
        BYTE                   31
        BYTE   W01
        BYTE                   30
        BYTE   W05
        BYTE                   29
        BYTE   W03
        BYTE                   28
        BYTE   W01
        BYTE                   27
        BYTE   W03
        BYTE                   26
        BYTE   W05
        BYTE                   24
        BYTE   W03
        BYTE                   23
        BYTE   W01
        BYTE                   22
        BYTE   W03
        BYTE                   21
        BYTE   W05
        BYTE                   20
        BYTE   W01
        BYTE                   18
        BYTE   W03
        BYTE                   15
        BYTE   W02
        BYTE                   14
        BYTE   W03
        BYTE                   12
        BYTE   W03
        BYTE           EOT     An2
        BYTE           VOL     0
        BYTE   W01
// 007   ----------------------------------------
TimeGear_4_7:
        BYTE           TIE     Bn2   v110
        BYTE   W02
        BYTE           VOL     2
        BYTE   W01
        BYTE                   3
        BYTE   W06
        BYTE                   4
        BYTE   W05
        BYTE                   5
        BYTE   W03
        BYTE                   6
        BYTE   W04
        BYTE                   7
        BYTE   W06
        BYTE                   8
        BYTE   W02
        BYTE                   9
        BYTE   W04
        BYTE                   10
        BYTE   W06
        BYTE                   11
        BYTE   W05
        BYTE                   12
        BYTE   W03
        BYTE                   13
        BYTE   W04
        BYTE                   14
        BYTE   W05
        BYTE                   15
        BYTE   W03
        BYTE                   16
        BYTE   W04
        BYTE                   17
        BYTE   W06
        BYTE                   18
        BYTE   W03
        BYTE                   19
        BYTE   W05
        BYTE                   20
        BYTE   W04
        BYTE                   21
        BYTE   W05
        BYTE                   22
        BYTE   W03
        BYTE                   23
        BYTE   W04
        BYTE                   24
        BYTE   W03
        BYTE   PEND
// 008   ----------------------------------------
        BYTE   PATT
         POIN2  TimeGear_3_2
// 009   ----------------------------------------
        BYTE   PATT
         POIN2  TimeGear_4_3
// 010   ----------------------------------------
        BYTE   PATT
         POIN2  TimeGear_4_4
// 011   ----------------------------------------
        BYTE   PATT
         POIN2  TimeGear_3_2
// 012   ----------------------------------------
TimeGear_4_12:
        BYTE   W03
        BYTE           VOL     38
        BYTE   W08
        BYTE                   37
        BYTE   W16
        BYTE                   36
        BYTE   W06
        BYTE                   35
        BYTE   W05
        BYTE                   34
        BYTE   W06
        BYTE                   33
        BYTE   W04
        BYTE                   32
        BYTE   W05
        BYTE                   31
        BYTE   W01
        BYTE                   30
        BYTE   W05
        BYTE                   29
        BYTE   W03
        BYTE                   28
        BYTE   W01
        BYTE                   27
        BYTE   W03
        BYTE                   26
        BYTE   W05
        BYTE                   24
        BYTE   W03
        BYTE                   23
        BYTE   W01
        BYTE                   22
        BYTE   W03
        BYTE                   21
        BYTE   W05
        BYTE                   20
        BYTE   W01
        BYTE                   18
        BYTE   W03
        BYTE                   15
        BYTE   W02
        BYTE                   14
        BYTE   W03
        BYTE                   12
        BYTE   W03
        BYTE           EOT     An2
        BYTE   W01
        BYTE   PEND
// 013   ----------------------------------------
TimeGear_4_13:
        BYTE           TIE     Gn2   v110
        BYTE   W01
        BYTE           VOL     16
        BYTE   W02
        BYTE                   17
        BYTE   W03
        BYTE                   18
        BYTE   W01
        BYTE                   19
        BYTE   W03
        BYTE                   20
        BYTE   W03
        BYTE                   21
        BYTE   W05
        BYTE                   22
        BYTE   W01
        BYTE                   23
        BYTE   W03
        BYTE                   24
        BYTE   W02
        BYTE                   25
        BYTE   W03
        BYTE                   26
        BYTE   W03
        BYTE                   27
        BYTE   W03
        BYTE                   28
        BYTE   W06
        BYTE                   30
        BYTE   W01
        BYTE                   31
        BYTE   W03
        BYTE                   32
        BYTE   W03
        BYTE                   33
        BYTE   W08
        BYTE                   34
        BYTE   W04
        BYTE                   35
        BYTE   W11
        BYTE                   34
        BYTE   W15
        BYTE                   33
        BYTE   W06
        BYTE                   32
        BYTE   W06
        BYTE   PEND
// 014   ----------------------------------------
TimeGear_4_14:
        BYTE   W06
        BYTE           VOL     31
        BYTE   W04
        BYTE                   30
        BYTE   W05
        BYTE                   29
        BYTE   W04
        BYTE                   28
        BYTE   W03
        BYTE                   27
        BYTE   W03
        BYTE                   26
        BYTE   W02
        BYTE                   25
        BYTE   W01
        BYTE                   24
        BYTE   W03
        BYTE                   21
        BYTE   W05
        BYTE                   20
        BYTE   W01
        BYTE                   19
        BYTE   W02
        BYTE                   18
        BYTE   W08
        BYTE           EOT     Gn2
        BYTE   W01
        BYTE           TIE     Fs2   v110
        BYTE   W01
        BYTE           VOL     16
        BYTE   W02
        BYTE                   17
        BYTE   W03
        BYTE                   18
        BYTE   W01
        BYTE                   19
        BYTE   W03
        BYTE                   20
        BYTE   W03
        BYTE                   21
        BYTE   W05
        BYTE                   22
        BYTE   W01
        BYTE                   23
        BYTE   W03
        BYTE                   24
        BYTE   W02
        BYTE                   25
        BYTE   W03
        BYTE                   26
        BYTE   W03
        BYTE                   27
        BYTE   W03
        BYTE                   28
        BYTE   W06
        BYTE                   30
        BYTE   W01
        BYTE                   31
        BYTE   W03
        BYTE                   32
        BYTE   W03
        BYTE                   33
        BYTE   W02
        BYTE   PEND
// 015   ----------------------------------------
TimeGear_4_15:
        BYTE   W06
        BYTE           VOL     34
        BYTE   W04
        BYTE                   35
        BYTE   W11
        BYTE                   34
        BYTE   W15
        BYTE                   33
        BYTE   W06
        BYTE                   32
        BYTE   W12
        BYTE                   31
        BYTE   W04
        BYTE                   30
        BYTE   W05
        BYTE                   29
        BYTE   W04
        BYTE                   28
        BYTE   W03
        BYTE                   27
        BYTE   W03
        BYTE                   26
        BYTE   W02
        BYTE                   25
        BYTE   W01
        BYTE                   24
        BYTE   W03
        BYTE                   21
        BYTE   W05
        BYTE                   20
        BYTE   W01
        BYTE                   19
        BYTE   W02
        BYTE                   18
        BYTE   W08
        BYTE           EOT     Fs2
        BYTE   W01
        BYTE   PEND
// 016   ----------------------------------------
        BYTE   PATT
         POIN2  TimeGear_4_13
// 017   ----------------------------------------
        BYTE   PATT
         POIN2  TimeGear_4_14
// 018   ----------------------------------------
        BYTE   PATT
         POIN2  TimeGear_4_15
// 019   ----------------------------------------
        BYTE   PATT
         POIN2  TimeGear_4_13
// 020   ----------------------------------------
        BYTE   PATT
         POIN2  TimeGear_4_14
// 021   ----------------------------------------
        BYTE   PATT
         POIN2  TimeGear_4_15
// 022   ----------------------------------------
        BYTE   PATT
         POIN2  TimeGear_4_13
// 023   ----------------------------------------
        BYTE   PATT
         POIN2  TimeGear_4_14
// 024   ----------------------------------------
        BYTE   PATT
         POIN2  TimeGear_4_15
// 025   ----------------------------------------
TimeGear_4_25:
        BYTE           TIE     En3   v110
        BYTE   W01
        BYTE           VOL     16
        BYTE   W02
        BYTE                   17
        BYTE   W03
        BYTE                   18
        BYTE   W01
        BYTE                   19
        BYTE   W03
        BYTE                   20
        BYTE   W03
        BYTE                   21
        BYTE   W05
        BYTE                   22
        BYTE   W01
        BYTE                   23
        BYTE   W03
        BYTE                   24
        BYTE   W02
        BYTE                   25
        BYTE   W03
        BYTE                   26
        BYTE   W03
        BYTE                   27
        BYTE   W03
        BYTE                   28
        BYTE   W06
        BYTE                   30
        BYTE   W01
        BYTE                   31
        BYTE   W03
        BYTE                   32
        BYTE   W03
        BYTE                   33
        BYTE   W08
        BYTE                   34
        BYTE   W04
        BYTE                   35
        BYTE   W11
        BYTE                   34
        BYTE   W15
        BYTE                   33
        BYTE   W06
        BYTE                   32
        BYTE   W06
        BYTE   PEND
// 026   ----------------------------------------
TimeGear_4_26:
        BYTE   W06
        BYTE           VOL     31
        BYTE   W04
        BYTE                   30
        BYTE   W05
        BYTE                   29
        BYTE   W04
        BYTE                   28
        BYTE   W03
        BYTE                   27
        BYTE   W03
        BYTE                   26
        BYTE   W02
        BYTE                   25
        BYTE   W01
        BYTE                   24
        BYTE   W03
        BYTE                   21
        BYTE   W05
        BYTE                   20
        BYTE   W01
        BYTE                   19
        BYTE   W02
        BYTE                   18
        BYTE   W08
        BYTE           EOT     En3
        BYTE   W01
        BYTE           N68     Dn3   v110   gtp3
        BYTE   W01
        BYTE           VOL     16
        BYTE   W02
        BYTE                   17
        BYTE   W03
        BYTE                   18
        BYTE   W01
        BYTE                   19
        BYTE   W03
        BYTE                   20
        BYTE   W03
        BYTE                   21
        BYTE   W05
        BYTE                   22
        BYTE   W01
        BYTE                   23
        BYTE   W03
        BYTE                   24
        BYTE   W02
        BYTE                   25
        BYTE   W03
        BYTE                   26
        BYTE   W03
        BYTE                   27
        BYTE   W03
        BYTE                   28
        BYTE   W06
        BYTE                   30
        BYTE   W01
        BYTE                   31
        BYTE   W03
        BYTE                   32
        BYTE   W03
        BYTE                   33
        BYTE   W02
        BYTE   PEND
// 027   ----------------------------------------
TimeGear_4_27:
        BYTE   W06
        BYTE           VOL     34
        BYTE   W04
        BYTE                   35
        BYTE   W11
        BYTE                   34
        BYTE   W03
        BYTE           N68     Fs3   v110   gtp3
        BYTE   W12
        BYTE           VOL     33
        BYTE   W06
        BYTE                   32
        BYTE   W12
        BYTE                   31
        BYTE   W04
        BYTE                   30
        BYTE   W05
        BYTE                   29
        BYTE   W04
        BYTE                   28
        BYTE   W03
        BYTE                   27
        BYTE   W03
        BYTE                   26
        BYTE   W02
        BYTE                   25
        BYTE   W01
        BYTE                   24
        BYTE   W03
        BYTE                   21
        BYTE   W05
        BYTE                   20
        BYTE   W01
        BYTE                   19
        BYTE   W02
        BYTE                   18
        BYTE   W09
        BYTE   PEND
// 028   ----------------------------------------
        BYTE   PATT
         POIN2  TimeGear_4_25
// 029   ----------------------------------------
        BYTE   PATT
         POIN2  TimeGear_4_26
// 030   ----------------------------------------
        BYTE   PATT
         POIN2  TimeGear_4_27
// 031   ----------------------------------------
        BYTE   PATT
         POIN2  TimeGear_4_25
// 032   ----------------------------------------
        BYTE   PATT
         POIN2  TimeGear_4_26
// 033   ----------------------------------------
        BYTE   PATT
         POIN2  TimeGear_4_27
// 034   ----------------------------------------
        BYTE   PATT
         POIN2  TimeGear_4_25
// 035   ----------------------------------------
        BYTE   PATT
         POIN2  TimeGear_4_26
// 036   ----------------------------------------
TimeGear_4_36:
        BYTE   W06
        BYTE           VOL     34
        BYTE   W04
        BYTE                   35
        BYTE   W11
        BYTE                   34
        BYTE   W03
        BYTE           N68     Fs3   v110   gtp3
        BYTE   W12
        BYTE           VOL     33
        BYTE   W06
        BYTE                   32
        BYTE   W12
        BYTE                   31
        BYTE   W04
        BYTE                   30
        BYTE   W05
        BYTE                   29
        BYTE   W04
        BYTE                   28
        BYTE   W03
        BYTE                   27
        BYTE   W03
        BYTE                   26
        BYTE   W02
        BYTE                   25
        BYTE   W01
        BYTE                   24
        BYTE   W03
        BYTE                   21
        BYTE   W05
        BYTE                   20
        BYTE   W01
        BYTE                   19
        BYTE   W02
        BYTE                   18
        BYTE   W08
        BYTE                   0
        BYTE   W01
        BYTE   PEND
// 037   ----------------------------------------
        BYTE   PATT
         POIN2  TimeGear_4_7
// 038   ----------------------------------------
TimeGear_4_LOOP:
        BYTE   W02
        BYTE           VOL     25
        BYTE   W04
        BYTE                   26
        BYTE   W05
        BYTE                   27
        BYTE   W03
        BYTE                   28
        BYTE   W06
        BYTE                   29
        BYTE   W03
        BYTE                   30
        BYTE   W04
        BYTE                   31
        BYTE   W05
        BYTE                   32
        BYTE   W04
        BYTE                   33
        BYTE   W05
        BYTE                   34
        BYTE   W03
        BYTE                   35
        BYTE   W04
        BYTE                   36
        BYTE   W05
        BYTE                   37
        BYTE   W04
        BYTE                   38
        BYTE   W05
        BYTE                   39
        BYTE   W04
        BYTE                   40
        BYTE   W15
        BYTE                   39
        BYTE   W15
// 039   ----------------------------------------
        BYTE   PATT
         POIN2  TimeGear_4_3
// 040   ----------------------------------------
        BYTE   PATT
         POIN2  TimeGear_4_4
// 041   ----------------------------------------
        BYTE   PATT
         POIN2  TimeGear_3_2
// 042   ----------------------------------------
        BYTE   PATT
         POIN2  TimeGear_4_12
// 043   ----------------------------------------
        BYTE   PATT
         POIN2  TimeGear_4_7
// 044   ----------------------------------------
        BYTE   PATT
         POIN2  TimeGear_3_2
// 045   ----------------------------------------
        BYTE   PATT
         POIN2  TimeGear_4_3
// 046   ----------------------------------------
        BYTE   PATT
         POIN2  TimeGear_4_4
// 047   ----------------------------------------
        BYTE   PATT
         POIN2  TimeGear_3_2
// 048   ----------------------------------------
        BYTE   PATT
         POIN2  TimeGear_4_12
// 049   ----------------------------------------
        BYTE   PATT
         POIN2  TimeGear_4_13
// 050   ----------------------------------------
        BYTE   PATT
         POIN2  TimeGear_4_14
// 051   ----------------------------------------
        BYTE   PATT
         POIN2  TimeGear_4_15
// 052   ----------------------------------------
        BYTE   PATT
         POIN2  TimeGear_4_13
// 053   ----------------------------------------
        BYTE   PATT
         POIN2  TimeGear_4_14
// 054   ----------------------------------------
        BYTE   PATT
         POIN2  TimeGear_4_15
// 055   ----------------------------------------
        BYTE   PATT
         POIN2  TimeGear_4_13
// 056   ----------------------------------------
        BYTE   PATT
         POIN2  TimeGear_4_14
// 057   ----------------------------------------
        BYTE   PATT
         POIN2  TimeGear_4_15
// 058   ----------------------------------------
        BYTE   PATT
         POIN2  TimeGear_4_13
// 059   ----------------------------------------
        BYTE   PATT
         POIN2  TimeGear_4_14
// 060   ----------------------------------------
        BYTE   PATT
         POIN2  TimeGear_4_15
// 061   ----------------------------------------
        BYTE   PATT
         POIN2  TimeGear_4_25
// 062   ----------------------------------------
        BYTE   PATT
         POIN2  TimeGear_4_26
// 063   ----------------------------------------
        BYTE   PATT
         POIN2  TimeGear_4_27
// 064   ----------------------------------------
        BYTE   PATT
         POIN2  TimeGear_4_25
// 065   ----------------------------------------
        BYTE   PATT
         POIN2  TimeGear_4_26
// 066   ----------------------------------------
        BYTE   PATT
         POIN2  TimeGear_4_27
// 067   ----------------------------------------
        BYTE   PATT
         POIN2  TimeGear_4_25
// 068   ----------------------------------------
        BYTE   PATT
         POIN2  TimeGear_4_26
// 069   ----------------------------------------
        BYTE   PATT
         POIN2  TimeGear_4_27
// 070   ----------------------------------------
        BYTE   PATT
         POIN2  TimeGear_4_25
// 071   ----------------------------------------
        BYTE   PATT
         POIN2  TimeGear_4_26
// 072   ----------------------------------------
        BYTE   PATT
         POIN2  TimeGear_4_36
// 073   ----------------------------------------
        BYTE   PATT
         POIN2  TimeGear_4_7
// 074   ----------------------------------------
        BYTE   GoTo
         POIN2  TimeGear_4_LOOP
        BYTE   W02
        BYTE           VOL     25
        BYTE   W04
        BYTE                   26
        BYTE   W05
        BYTE                   27
        BYTE   W03
        BYTE                   28
        BYTE   W06
        BYTE                   29
        BYTE   W03
        BYTE                   30
        BYTE   W04
        BYTE                   31
        BYTE   W05
        BYTE                   32
        BYTE   W04
        BYTE                   33
        BYTE   W05
        BYTE                   34
        BYTE   W03
        BYTE                   35
        BYTE   W04
        BYTE                   36
        BYTE   W05
        BYTE                   37
        BYTE   W04
        BYTE                   38
        BYTE   W05
        BYTE                   39
        BYTE   W04
        BYTE                   40
        BYTE   W15
        BYTE                   39
        BYTE   W15
// 075   ----------------------------------------
        BYTE   PATT
         POIN2  TimeGear_4_3
// 076   ----------------------------------------
        BYTE   PATT
         POIN2  TimeGear_4_4
// 077   ----------------------------------------
        BYTE   PATT
         POIN2  TimeGear_3_2
// 078   ----------------------------------------
        BYTE   PATT
         POIN2  TimeGear_4_12
// 079   ----------------------------------------
        BYTE   W56
        BYTE   W03
        BYTE   FINE

//****************** Track 5 (Midi-Chn.5) ******************//

TimeGear_5:
        BYTE   KEYSH   TimeGear_key+0
// 000   ----------------------------------------
        BYTE   W24
// 001   ----------------------------------------
        BYTE           VOICE   52
        BYTE           VOL     55
        BYTE   W56
        BYTE   W03
        BYTE                   1
        BYTE   W01
        BYTE           TIE     Bn3   v095
        BYTE   W05
        BYTE           VOL     4
        BYTE   W07
        BYTE                   5
        BYTE   W05
        BYTE                   6
        BYTE   W03
        BYTE                   7
        BYTE   W04
        BYTE                   9
        BYTE   W08
        BYTE                   11
        BYTE   W04
// 002   ----------------------------------------
TimeGear_5_2:
        BYTE   W03
        BYTE           VOL     13
        BYTE   W08
        BYTE                   15
        BYTE   W07
        BYTE                   16
        BYTE   W03
        BYTE                   17
        BYTE   W05
        BYTE                   18
        BYTE   W03
        BYTE                   19
        BYTE   W04
        BYTE                   21
        BYTE   W08
        BYTE                   23
        BYTE   W03
        BYTE                   24
        BYTE   W04
        BYTE                   25
        BYTE   W03
        BYTE                   26
        BYTE   W05
        BYTE                   27
        BYTE   W03
        BYTE                   29
        BYTE   W04
        BYTE                   30
        BYTE   W08
        BYTE                   31
        BYTE   W03
        BYTE                   32
        BYTE   W04
        BYTE                   34
        BYTE   W03
        BYTE                   35
        BYTE   W05
        BYTE                   36
        BYTE   W03
        BYTE                   37
        BYTE   W04
        BYTE                   38
        BYTE   W03
        BYTE   PEND
// 003   ----------------------------------------
TimeGear_5_3:
        BYTE   W05
        BYTE           VOL     40
        BYTE   W07
        BYTE                   41
        BYTE   W24
        BYTE   W03
        BYTE                   40
        BYTE   W08
        BYTE                   39
        BYTE   W07
        BYTE                   38
        BYTE   W03
        BYTE                   37
        BYTE   W05
        BYTE                   36
        BYTE   W07
        BYTE                   34
        BYTE   W03
        BYTE                   32
        BYTE   W05
        BYTE                   31
        BYTE   W03
        BYTE                   30
        BYTE   W04
        BYTE                   28
        BYTE   W03
        BYTE                   26
        BYTE   W05
        BYTE                   25
        BYTE   W03
        BYTE                   23
        BYTE   W01
        BYTE   PEND
// 004   ----------------------------------------
TimeGear_5_4:
        BYTE   W03
        BYTE           VOL     22
        BYTE   W03
        BYTE                   21
        BYTE   W05
        BYTE                   19
        BYTE   W03
        BYTE                   17
        BYTE   W04
        BYTE                   15
        BYTE   W03
        BYTE                   13
        BYTE   W05
        BYTE                   12
        BYTE   W03
        BYTE                   11
        BYTE   W04
        BYTE                   10
        BYTE   W03
        BYTE                   8
        BYTE   W05
        BYTE                   7
        BYTE   W03
        BYTE                   6
        BYTE   W04
        BYTE                   4
        BYTE   W03
        BYTE                   3
        BYTE   W05
        BYTE                   1
        BYTE   W03
        BYTE           EOT     Bn3
        BYTE   W01
        BYTE           TIE     An3   v095
        BYTE   W05
        BYTE           VOL     4
        BYTE   W07
        BYTE                   5
        BYTE   W05
        BYTE                   6
        BYTE   W03
        BYTE                   7
        BYTE   W04
        BYTE                   9
        BYTE   W08
        BYTE                   11
        BYTE   W04
        BYTE   PEND
// 005   ----------------------------------------
        BYTE   PATT
         POIN2  TimeGear_5_2
// 006   ----------------------------------------
        BYTE   PATT
         POIN2  TimeGear_5_3
// 007   ----------------------------------------
TimeGear_5_7:
        BYTE   W03
        BYTE           VOL     22
        BYTE   W03
        BYTE                   21
        BYTE   W05
        BYTE                   19
        BYTE   W03
        BYTE                   17
        BYTE   W04
        BYTE                   15
        BYTE   W03
        BYTE                   13
        BYTE   W05
        BYTE                   12
        BYTE   W03
        BYTE                   11
        BYTE   W04
        BYTE                   10
        BYTE   W03
        BYTE                   8
        BYTE   W05
        BYTE                   7
        BYTE   W03
        BYTE                   6
        BYTE   W04
        BYTE                   4
        BYTE   W03
        BYTE                   3
        BYTE   W05
        BYTE                   1
        BYTE   W03
        BYTE           EOT     An3
        BYTE   W01
        BYTE           TIE     Bn3   v095
        BYTE   W05
        BYTE           VOL     4
        BYTE   W07
        BYTE                   5
        BYTE   W05
        BYTE                   6
        BYTE   W03
        BYTE                   7
        BYTE   W04
        BYTE                   9
        BYTE   W08
        BYTE                   11
        BYTE   W04
        BYTE   PEND
// 008   ----------------------------------------
        BYTE   PATT
         POIN2  TimeGear_5_2
// 009   ----------------------------------------
        BYTE   PATT
         POIN2  TimeGear_5_3
// 010   ----------------------------------------
        BYTE   PATT
         POIN2  TimeGear_5_4
// 011   ----------------------------------------
        BYTE   PATT
         POIN2  TimeGear_5_2
// 012   ----------------------------------------
        BYTE   PATT
         POIN2  TimeGear_5_3
// 013   ----------------------------------------
TimeGear_5_13:
        BYTE   W03
        BYTE           VOL     22
        BYTE   W03
        BYTE                   21
        BYTE   W05
        BYTE                   19
        BYTE   W03
        BYTE                   17
        BYTE   W04
        BYTE                   15
        BYTE   W03
        BYTE                   13
        BYTE   W05
        BYTE                   12
        BYTE   W03
        BYTE                   11
        BYTE   W04
        BYTE                   10
        BYTE   W03
        BYTE                   8
        BYTE   W05
        BYTE                   7
        BYTE   W03
        BYTE                   6
        BYTE   W04
        BYTE                   4
        BYTE   W03
        BYTE                   3
        BYTE   W05
        BYTE                   1
        BYTE   W03
        BYTE           EOT     An3
        BYTE           VOL     35
        BYTE   W01
        BYTE           N80     En3   v095   gtp3
        BYTE   W36
        BYTE   PEND
// 014   ----------------------------------------
TimeGear_5_14:
        BYTE   W48
        BYTE           N68     Fs3   v095   gtp3
        BYTE   W48
        BYTE   PEND
// 015   ----------------------------------------
TimeGear_5_15:
        BYTE   W24
        BYTE           N68     An3   v095   gtp3
        BYTE   W72
        BYTE   PEND
// 016   ----------------------------------------
TimeGear_5_16:
        BYTE           N68     Gn3   v095   gtp3
        BYTE   W72
        BYTE                   Bn3
        BYTE   W24
        BYTE   PEND
// 017   ----------------------------------------
TimeGear_5_17:
        BYTE   W48
        BYTE           N68     An3   v095   gtp3
        BYTE   W48
        BYTE   PEND
// 018   ----------------------------------------
TimeGear_5_18:
        BYTE   W24
        BYTE           N68     Dn4   v095   gtp3
        BYTE   W72
        BYTE   PEND
// 019   ----------------------------------------
TimeGear_5_19:
        BYTE   W60
        BYTE           N80     En3   v095   gtp3
        BYTE   W36
        BYTE   PEND
// 020   ----------------------------------------
        BYTE   PATT
         POIN2  TimeGear_5_14
// 021   ----------------------------------------
        BYTE   PATT
         POIN2  TimeGear_5_15
// 022   ----------------------------------------
        BYTE   PATT
         POIN2  TimeGear_5_16
// 023   ----------------------------------------
        BYTE   PATT
         POIN2  TimeGear_5_17
// 024   ----------------------------------------
TimeGear_5_24:
        BYTE   W24
        BYTE           N68     Dn4   v095   gtp3
        BYTE   W09
        BYTE           VOL     36
        BYTE   W03
        BYTE                   37
        BYTE   W06
        BYTE                   38
        BYTE   W06
        BYTE                   40
        BYTE   W03
        BYTE                   41
        BYTE   W06
        BYTE                   43
        BYTE   W06
        BYTE                   45
        BYTE   W03
        BYTE                   46
        BYTE   W06
        BYTE                   47
        BYTE   W03
        BYTE                   48
        BYTE   W03
        BYTE                   49
        BYTE   W03
        BYTE                   50
        BYTE   W06
        BYTE                   52
        BYTE   W06
        BYTE                   54
        BYTE   W03
        BYTE   PEND
// 025   ----------------------------------------
TimeGear_5_25:
        BYTE           TIE     En4   v095
        BYTE   W03
        BYTE           VOL     55
        BYTE   W92
        BYTE   W01
        BYTE   PEND
// 026   ----------------------------------------
TimeGear_5_26:
        BYTE   W11
        BYTE           EOT     En4
        BYTE   W01
        BYTE           N32     Gn4   v095   gtp3
        BYTE   W36
        BYTE           N68     Fs4   v095   gtp3
        BYTE   W48
        BYTE   PEND
// 027   ----------------------------------------
        BYTE   PATT
         POIN2  TimeGear_5_18
// 028   ----------------------------------------
        BYTE           TIE     En4   v095
        BYTE   W96
// 029   ----------------------------------------
        BYTE   PATT
         POIN2  TimeGear_5_26
// 030   ----------------------------------------
        BYTE   PATT
         POIN2  TimeGear_5_18
// 031   ----------------------------------------
        BYTE           TIE     En4   v095
        BYTE   W96
// 032   ----------------------------------------
        BYTE   PATT
         POIN2  TimeGear_5_26
// 033   ----------------------------------------
        BYTE   PATT
         POIN2  TimeGear_5_18
// 034   ----------------------------------------
        BYTE           TIE     En4   v095
        BYTE   W96
// 035   ----------------------------------------
        BYTE   PATT
         POIN2  TimeGear_5_26
// 036   ----------------------------------------
        BYTE   PATT
         POIN2  TimeGear_5_18
// 037   ----------------------------------------
TimeGear_5_37:
        BYTE   W56
        BYTE   W03
        BYTE           VOL     1
        BYTE   W01
        BYTE           TIE     Bn3   v095
        BYTE   W05
        BYTE           VOL     4
        BYTE   W07
        BYTE                   5
        BYTE   W05
        BYTE                   6
        BYTE   W03
        BYTE                   7
        BYTE   W04
        BYTE                   9
        BYTE   W08
        BYTE                   11
        BYTE   W04
        BYTE   PEND
// 038   ----------------------------------------
TimeGear_5_LOOP:
        BYTE   W03
        BYTE           VOL     13
        BYTE   W08
        BYTE                   15
        BYTE   W07
        BYTE                   16
        BYTE   W03
        BYTE                   17
        BYTE   W05
        BYTE                   18
        BYTE   W03
        BYTE                   19
        BYTE   W04
        BYTE                   21
        BYTE   W08
        BYTE                   23
        BYTE   W03
        BYTE                   24
        BYTE   W04
        BYTE                   25
        BYTE   W03
        BYTE                   26
        BYTE   W05
        BYTE                   27
        BYTE   W03
        BYTE                   29
        BYTE   W04
        BYTE                   30
        BYTE   W08
        BYTE                   31
        BYTE   W03
        BYTE                   32
        BYTE   W04
        BYTE                   34
        BYTE   W03
        BYTE                   35
        BYTE   W05
        BYTE                   36
        BYTE   W03
        BYTE                   37
        BYTE   W04
        BYTE                   38
        BYTE   W03
// 039   ----------------------------------------
        BYTE   PATT
         POIN2  TimeGear_5_3
// 040   ----------------------------------------
        BYTE   PATT
         POIN2  TimeGear_5_4
// 041   ----------------------------------------
        BYTE   PATT
         POIN2  TimeGear_5_2
// 042   ----------------------------------------
        BYTE   PATT
         POIN2  TimeGear_5_3
// 043   ----------------------------------------
        BYTE   PATT
         POIN2  TimeGear_5_7
// 044   ----------------------------------------
        BYTE   PATT
         POIN2  TimeGear_5_2
// 045   ----------------------------------------
        BYTE   PATT
         POIN2  TimeGear_5_3
// 046   ----------------------------------------
        BYTE   PATT
         POIN2  TimeGear_5_4
// 047   ----------------------------------------
        BYTE   PATT
         POIN2  TimeGear_5_2
// 048   ----------------------------------------
        BYTE   PATT
         POIN2  TimeGear_5_3
// 049   ----------------------------------------
        BYTE   PATT
         POIN2  TimeGear_5_13
// 050   ----------------------------------------
        BYTE   PATT
         POIN2  TimeGear_5_14
// 051   ----------------------------------------
        BYTE   PATT
         POIN2  TimeGear_5_15
// 052   ----------------------------------------
        BYTE   PATT
         POIN2  TimeGear_5_16
// 053   ----------------------------------------
        BYTE   PATT
         POIN2  TimeGear_5_17
// 054   ----------------------------------------
        BYTE   PATT
         POIN2  TimeGear_5_18
// 055   ----------------------------------------
        BYTE   PATT
         POIN2  TimeGear_5_19
// 056   ----------------------------------------
        BYTE   PATT
         POIN2  TimeGear_5_14
// 057   ----------------------------------------
        BYTE   PATT
         POIN2  TimeGear_5_15
// 058   ----------------------------------------
        BYTE   PATT
         POIN2  TimeGear_5_16
// 059   ----------------------------------------
        BYTE   PATT
         POIN2  TimeGear_5_17
// 060   ----------------------------------------
        BYTE   PATT
         POIN2  TimeGear_5_24
// 061   ----------------------------------------
        BYTE   PATT
         POIN2  TimeGear_5_25
// 062   ----------------------------------------
        BYTE   PATT
         POIN2  TimeGear_5_26
// 063   ----------------------------------------
        BYTE   PATT
         POIN2  TimeGear_5_18
// 064   ----------------------------------------
        BYTE           TIE     En4   v095
        BYTE   W96
// 065   ----------------------------------------
        BYTE   PATT
         POIN2  TimeGear_5_26
// 066   ----------------------------------------
        BYTE   PATT
         POIN2  TimeGear_5_18
// 067   ----------------------------------------
        BYTE           TIE     En4   v095
        BYTE   W96
// 068   ----------------------------------------
        BYTE   PATT
         POIN2  TimeGear_5_26
// 069   ----------------------------------------
        BYTE   PATT
         POIN2  TimeGear_5_18
// 070   ----------------------------------------
        BYTE           TIE     En4   v095
        BYTE   W96
// 071   ----------------------------------------
        BYTE   PATT
         POIN2  TimeGear_5_26
// 072   ----------------------------------------
        BYTE   PATT
         POIN2  TimeGear_5_18
// 073   ----------------------------------------
        BYTE   PATT
         POIN2  TimeGear_5_37
// 074   ----------------------------------------
        BYTE   GoTo
         POIN2  TimeGear_5_LOOP
        BYTE   W03
        BYTE           VOL     13
        BYTE   W08
        BYTE                   15
        BYTE   W07
        BYTE                   16
        BYTE   W03
        BYTE                   17
        BYTE   W05
        BYTE                   18
        BYTE   W03
        BYTE                   19
        BYTE   W04
        BYTE                   21
        BYTE   W08
        BYTE                   23
        BYTE   W03
        BYTE                   24
        BYTE   W04
        BYTE                   25
        BYTE   W03
        BYTE                   26
        BYTE   W05
        BYTE                   27
        BYTE   W03
        BYTE                   29
        BYTE   W04
        BYTE                   30
        BYTE   W08
        BYTE                   31
        BYTE   W03
        BYTE                   32
        BYTE   W04
        BYTE                   34
        BYTE   W03
        BYTE                   35
        BYTE   W05
        BYTE                   36
        BYTE   W03
        BYTE                   37
        BYTE   W04
        BYTE                   38
        BYTE   W03
// 075   ----------------------------------------
        BYTE   PATT
         POIN2  TimeGear_5_3
// 076   ----------------------------------------
        BYTE   PATT
         POIN2  TimeGear_5_4
// 077   ----------------------------------------
        BYTE   PATT
         POIN2  TimeGear_5_2
// 078   ----------------------------------------
        BYTE   PATT
         POIN2  TimeGear_5_3
// 079   ----------------------------------------
        BYTE   W56
        BYTE   W03
        BYTE           EOT     An3
        BYTE   FINE

//****************** Track 6 (Midi-Chn.6) ******************//

TimeGear_6:
        BYTE   KEYSH   TimeGear_key+0
// 000   ----------------------------------------
        BYTE   W24
// 001   ----------------------------------------
        BYTE           VOICE   52
        BYTE           VOL     43
        BYTE   W96
// 002   ----------------------------------------
        BYTE   W96
// 003   ----------------------------------------
        BYTE   W96
// 004   ----------------------------------------
        BYTE   W96
// 005   ----------------------------------------
        BYTE   W96
// 006   ----------------------------------------
        BYTE   W96
// 007   ----------------------------------------
        BYTE   W96
// 008   ----------------------------------------
        BYTE   W96
// 009   ----------------------------------------
        BYTE   W96
// 010   ----------------------------------------
        BYTE   W96
// 011   ----------------------------------------
        BYTE   W96
// 012   ----------------------------------------
        BYTE   W96
// 013   ----------------------------------------
TimeGear_6_13:
        BYTE   W56
        BYTE   W03
        BYTE           VOL     27
        BYTE   W01
        BYTE           PAN     c_v-20
        BYTE           N80     Cn3   v080   gtp3
        BYTE   W36
        BYTE   PEND
// 014   ----------------------------------------
TimeGear_6_14:
        BYTE   W48
        BYTE           N68     Dn3   v080   gtp3
        BYTE   W48
        BYTE   PEND
// 015   ----------------------------------------
TimeGear_6_15:
        BYTE   W24
        BYTE           N68     Fs3   v080   gtp3
        BYTE   W72
        BYTE   PEND
// 016   ----------------------------------------
TimeGear_6_16:
        BYTE           N68     En3   v093   gtp3
        BYTE   W72
        BYTE                   Gn3   v080
        BYTE   W24
        BYTE   PEND
// 017   ----------------------------------------
TimeGear_6_17:
        BYTE   W48
        BYTE           N68     Fs3   v080   gtp3
        BYTE   W48
        BYTE   PEND
// 018   ----------------------------------------
TimeGear_6_18:
        BYTE   W24
        BYTE           N68     An3   v080   gtp3
        BYTE   W72
        BYTE   PEND
// 019   ----------------------------------------
TimeGear_6_19:
        BYTE   W60
        BYTE           N80     Cn3   v080   gtp3
        BYTE   W36
        BYTE   PEND
// 020   ----------------------------------------
        BYTE   PATT
         POIN2  TimeGear_6_14
// 021   ----------------------------------------
        BYTE   PATT
         POIN2  TimeGear_6_15
// 022   ----------------------------------------
TimeGear_6_22:
        BYTE           N68     En3   v080   gtp3
        BYTE   W72
        BYTE                   Gn3
        BYTE   W24
        BYTE   PEND
// 023   ----------------------------------------
        BYTE   PATT
         POIN2  TimeGear_6_17
// 024   ----------------------------------------
TimeGear_6_24:
        BYTE   W24
        BYTE           VOL     28
        BYTE           N68     An3   v080   gtp3
        BYTE   W03
        BYTE           VOL     29
        BYTE   W06
        BYTE                   30
        BYTE   W03
        BYTE                   31
        BYTE   W06
        BYTE                   32
        BYTE   W06
        BYTE                   33
        BYTE   W06
        BYTE                   34
        BYTE   W06
        BYTE                   35
        BYTE   W03
        BYTE                   36
        BYTE   W09
        BYTE                   37
        BYTE   W03
        BYTE                   38
        BYTE   W06
        BYTE                   39
        BYTE   W03
        BYTE                   40
        BYTE   W09
        BYTE                   41
        BYTE   W02
        BYTE           PAN     c_v-40
        BYTE   W01
        BYTE   PEND
// 025   ----------------------------------------
TimeGear_6_25:
        BYTE           VOL     42
        BYTE           TIE     Gn3   v080
        BYTE   W03
        BYTE           VOL     43
        BYTE   W92
        BYTE   W01
        BYTE   PEND
// 026   ----------------------------------------
TimeGear_6_26:
        BYTE   W11
        BYTE           EOT     Gn3
        BYTE   W01
        BYTE           N32     Bn3   v080   gtp3
        BYTE   W36
        BYTE           N68     An3   v080   gtp3
        BYTE   W48
        BYTE   PEND
// 027   ----------------------------------------
        BYTE   PATT
         POIN2  TimeGear_6_15
// 028   ----------------------------------------
        BYTE           TIE     Gn3   v080
        BYTE   W96
// 029   ----------------------------------------
        BYTE   PATT
         POIN2  TimeGear_6_26
// 030   ----------------------------------------
        BYTE   PATT
         POIN2  TimeGear_6_15
// 031   ----------------------------------------
        BYTE           TIE     Gn3   v080
        BYTE   W96
// 032   ----------------------------------------
        BYTE   PATT
         POIN2  TimeGear_6_26
// 033   ----------------------------------------
        BYTE   PATT
         POIN2  TimeGear_6_15
// 034   ----------------------------------------
        BYTE           TIE     Gn3   v080
        BYTE   W96
// 035   ----------------------------------------
        BYTE   PATT
         POIN2  TimeGear_6_26
// 036   ----------------------------------------
        BYTE   PATT
         POIN2  TimeGear_6_15
// 037   ----------------------------------------
        BYTE   W56
        BYTE   W03
        BYTE           PAN     c_v+0
        BYTE   W36
        BYTE   W01
// 038   ----------------------------------------
TimeGear_6_LOOP:
        BYTE   W96
// 039   ----------------------------------------
        BYTE   W96
// 040   ----------------------------------------
        BYTE   W96
// 041   ----------------------------------------
        BYTE   W96
// 042   ----------------------------------------
        BYTE   W96
// 043   ----------------------------------------
        BYTE   W96
// 044   ----------------------------------------
        BYTE   W96
// 045   ----------------------------------------
        BYTE   W96
// 046   ----------------------------------------
        BYTE   W96
// 047   ----------------------------------------
        BYTE   W96
// 048   ----------------------------------------
        BYTE   W96
// 049   ----------------------------------------
        BYTE   PATT
         POIN2  TimeGear_6_13
// 050   ----------------------------------------
        BYTE   PATT
         POIN2  TimeGear_6_14
// 051   ----------------------------------------
        BYTE   PATT
         POIN2  TimeGear_6_15
// 052   ----------------------------------------
        BYTE   PATT
         POIN2  TimeGear_6_16
// 053   ----------------------------------------
        BYTE   PATT
         POIN2  TimeGear_6_17
// 054   ----------------------------------------
        BYTE   PATT
         POIN2  TimeGear_6_18
// 055   ----------------------------------------
        BYTE   PATT
         POIN2  TimeGear_6_19
// 056   ----------------------------------------
        BYTE   PATT
         POIN2  TimeGear_6_14
// 057   ----------------------------------------
        BYTE   PATT
         POIN2  TimeGear_6_15
// 058   ----------------------------------------
        BYTE   PATT
         POIN2  TimeGear_6_22
// 059   ----------------------------------------
        BYTE   PATT
         POIN2  TimeGear_6_17
// 060   ----------------------------------------
        BYTE   PATT
         POIN2  TimeGear_6_24
// 061   ----------------------------------------
        BYTE   PATT
         POIN2  TimeGear_6_25
// 062   ----------------------------------------
        BYTE   PATT
         POIN2  TimeGear_6_26
// 063   ----------------------------------------
        BYTE   PATT
         POIN2  TimeGear_6_15
// 064   ----------------------------------------
        BYTE           TIE     Gn3   v080
        BYTE   W96
// 065   ----------------------------------------
        BYTE   PATT
         POIN2  TimeGear_6_26
// 066   ----------------------------------------
        BYTE   PATT
         POIN2  TimeGear_6_15
// 067   ----------------------------------------
        BYTE           TIE     Gn3   v080
        BYTE   W96
// 068   ----------------------------------------
        BYTE   PATT
         POIN2  TimeGear_6_26
// 069   ----------------------------------------
        BYTE   PATT
         POIN2  TimeGear_6_15
// 070   ----------------------------------------
        BYTE           TIE     Gn3   v080
        BYTE   W96
// 071   ----------------------------------------
        BYTE   PATT
         POIN2  TimeGear_6_26
// 072   ----------------------------------------
        BYTE   PATT
         POIN2  TimeGear_6_15
// 073   ----------------------------------------
        BYTE   W56
        BYTE   W03
        BYTE           PAN     c_v+0
        BYTE   W36
        BYTE   W01
// 074   ----------------------------------------
        BYTE   GoTo
         POIN2  TimeGear_6_LOOP
        BYTE   W96
// 075   ----------------------------------------
        BYTE   W96
// 076   ----------------------------------------
        BYTE   W96
// 077   ----------------------------------------
        BYTE   W96
// 078   ----------------------------------------
        BYTE   W96
// 079   ----------------------------------------
        BYTE   W56
        BYTE   W03
        BYTE   FINE

//****************** Track 7 (Midi-Chn.7) ******************//

TimeGear_7:
        BYTE   KEYSH   TimeGear_key+0
// 000   ----------------------------------------
        BYTE   W24
// 001   ----------------------------------------
        BYTE           VOICE   48
        BYTE           VOL     43
        BYTE   W96
// 002   ----------------------------------------
        BYTE   W96
// 003   ----------------------------------------
        BYTE   W96
// 004   ----------------------------------------
        BYTE   W96
// 005   ----------------------------------------
        BYTE   W96
// 006   ----------------------------------------
        BYTE   W96
// 007   ----------------------------------------
        BYTE   W96
// 008   ----------------------------------------
        BYTE   W96
// 009   ----------------------------------------
        BYTE   W96
// 010   ----------------------------------------
        BYTE   W96
// 011   ----------------------------------------
        BYTE   W96
// 012   ----------------------------------------
        BYTE   W96
// 013   ----------------------------------------
        BYTE   W96
// 014   ----------------------------------------
        BYTE   W96
// 015   ----------------------------------------
        BYTE   W96
// 016   ----------------------------------------
        BYTE   W96
// 017   ----------------------------------------
        BYTE   W96
// 018   ----------------------------------------
        BYTE   W96
// 019   ----------------------------------------
        BYTE   W96
// 020   ----------------------------------------
        BYTE   W96
// 021   ----------------------------------------
        BYTE   W96
// 022   ----------------------------------------
        BYTE   W96
// 023   ----------------------------------------
        BYTE   W96
// 024   ----------------------------------------
        BYTE   W96
// 025   ----------------------------------------
        BYTE           TIE     Cn2   v100
        BYTE   W96
// 026   ----------------------------------------
TimeGear_7_26:
        BYTE   W44
        BYTE   W03
        BYTE           EOT     Cn2
        BYTE   W01
        BYTE           TIE     Dn2   v100
        BYTE   W48
        BYTE   PEND
// 027   ----------------------------------------
        BYTE   W92
        BYTE   W03
        BYTE           EOT
        BYTE   W01
// 028   ----------------------------------------
        BYTE           TIE     Cn2
        BYTE   W96
// 029   ----------------------------------------
TimeGear_7_29:
        BYTE   W44
        BYTE   W03
        BYTE           EOT     Cn2
        BYTE   W01
        BYTE           N68     Dn2   v100   gtp3
        BYTE   W48
        BYTE   PEND
// 030   ----------------------------------------
TimeGear_7_30:
        BYTE   W24
        BYTE           N68     Bn1   v100   gtp3
        BYTE   W72
        BYTE   PEND
// 031   ----------------------------------------
        BYTE           TIE     Cn2
        BYTE   W96
// 032   ----------------------------------------
        BYTE   PATT
         POIN2  TimeGear_7_26
// 033   ----------------------------------------
        BYTE   W92
        BYTE   W03
        BYTE           EOT     Dn2
        BYTE   W01
// 034   ----------------------------------------
        BYTE           TIE     Cn2   v100
        BYTE   W96
// 035   ----------------------------------------
TimeGear_7_35:
        BYTE   W44
        BYTE   W03
        BYTE           EOT     Cn2
        BYTE   W01
        BYTE           N56     Dn2   v100   gtp3
        BYTE   W48
        BYTE   PEND
// 036   ----------------------------------------
TimeGear_7_36:
        BYTE   W12
        BYTE           N12     Dn2   v064
        BYTE   W12
        BYTE           N32     Bn1   v100   gtp3
        BYTE   W36
        BYTE                   Bn2   v115
        BYTE   W36
        BYTE   PEND
// 037   ----------------------------------------
TimeGear_7_37:
        BYTE           TIE     An2   v115
        BYTE   W04
        BYTE           VOL     39
        BYTE   W30
        BYTE                   38
        BYTE   W11
        BYTE                   37
        BYTE   W15
        BYTE                   36
        BYTE   W22
        BYTE                   35
        BYTE   W12
        BYTE                   34
        BYTE   W02
        BYTE   PEND
// 038   ----------------------------------------
TimeGear_7_LOOP:
        BYTE   W18
        BYTE           VOL     33
        BYTE   W09
        BYTE                   32
        BYTE   W21
        BYTE                   31
        BYTE   W13
        BYTE                   30
        BYTE   W12
        BYTE                   29
        BYTE   W06
        BYTE                   28
        BYTE   W11
        BYTE                   27
        BYTE   W06
// 039   ----------------------------------------
TimeGear_7_39:
        BYTE   W06
        BYTE           VOL     26
        BYTE   W09
        BYTE                   25
        BYTE   W09
        BYTE                   24
        BYTE   W07
        BYTE                   23
        BYTE   W06
        BYTE                   21
        BYTE   W09
        BYTE                   20
        BYTE   W06
        BYTE                   19
        BYTE   W06
        BYTE                   18
        BYTE   W05
        BYTE                   17
        BYTE   W03
        BYTE                   16
        BYTE   W09
        BYTE                   14
        BYTE   W06
        BYTE                   13
        BYTE   W03
        BYTE                   12
        BYTE   W03
        BYTE                   11
        BYTE   W03
        BYTE                   10
        BYTE   W05
        BYTE           EOT     An2
        BYTE   W01
        BYTE   PEND
// 040   ----------------------------------------
        BYTE   W96
// 041   ----------------------------------------
        BYTE   W96
// 042   ----------------------------------------
        BYTE   W96
// 043   ----------------------------------------
        BYTE   W96
// 044   ----------------------------------------
        BYTE   W96
// 045   ----------------------------------------
        BYTE   W96
// 046   ----------------------------------------
        BYTE   W96
// 047   ----------------------------------------
        BYTE   W96
// 048   ----------------------------------------
        BYTE   W96
// 049   ----------------------------------------
        BYTE   W96
// 050   ----------------------------------------
        BYTE   W96
// 051   ----------------------------------------
        BYTE   W96
// 052   ----------------------------------------
        BYTE   W96
// 053   ----------------------------------------
        BYTE   W96
// 054   ----------------------------------------
        BYTE   W96
// 055   ----------------------------------------
        BYTE   W96
// 056   ----------------------------------------
        BYTE   W96
// 057   ----------------------------------------
        BYTE   W96
// 058   ----------------------------------------
        BYTE   W96
// 059   ----------------------------------------
        BYTE   W96
// 060   ----------------------------------------
        BYTE   W92
        BYTE   W03
        BYTE           VOL     43
        BYTE   W01
// 061   ----------------------------------------
        BYTE           TIE     Cn2   v100
        BYTE   W96
// 062   ----------------------------------------
        BYTE   PATT
         POIN2  TimeGear_7_26
// 063   ----------------------------------------
        BYTE   W92
        BYTE   W03
        BYTE           EOT     Dn2
        BYTE   W01
// 064   ----------------------------------------
        BYTE           TIE     Cn2   v100
        BYTE   W96
// 065   ----------------------------------------
        BYTE   PATT
         POIN2  TimeGear_7_29
// 066   ----------------------------------------
        BYTE   PATT
         POIN2  TimeGear_7_30
// 067   ----------------------------------------
        BYTE           TIE     Cn2   v100
        BYTE   W96
// 068   ----------------------------------------
        BYTE   PATT
         POIN2  TimeGear_7_26
// 069   ----------------------------------------
        BYTE   W92
        BYTE   W03
        BYTE           EOT     Dn2
        BYTE   W01
// 070   ----------------------------------------
        BYTE           TIE     Cn2   v100
        BYTE   W96
// 071   ----------------------------------------
        BYTE   PATT
         POIN2  TimeGear_7_35
// 072   ----------------------------------------
        BYTE   PATT
         POIN2  TimeGear_7_36
// 073   ----------------------------------------
        BYTE   PATT
         POIN2  TimeGear_7_37
// 074   ----------------------------------------
        BYTE   GoTo
         POIN2  TimeGear_7_LOOP
        BYTE   W18
        BYTE           VOL     33
        BYTE   W09
        BYTE                   32
        BYTE   W21
        BYTE                   31
        BYTE   W13
        BYTE                   30
        BYTE   W12
        BYTE                   29
        BYTE   W06
        BYTE                   28
        BYTE   W11
        BYTE                   27
        BYTE   W06
// 075   ----------------------------------------
        BYTE   PATT
         POIN2  TimeGear_7_39
// 076   ----------------------------------------
        BYTE   W96
// 077   ----------------------------------------
        BYTE   W96
// 078   ----------------------------------------
        BYTE   W96
// 079   ----------------------------------------
        BYTE   W56
        BYTE   W03
        BYTE   FINE

//****************** Track 8 (Midi-Chn.8) ******************//

TimeGear_8:
        BYTE   KEYSH   TimeGear_key+0
// 000   ----------------------------------------
        BYTE   W24
// 001   ----------------------------------------
        BYTE           VOICE   40
        BYTE           VOL     38
        BYTE   W96
// 002   ----------------------------------------
        BYTE   W96
// 003   ----------------------------------------
        BYTE   W96
// 004   ----------------------------------------
        BYTE   W96
// 005   ----------------------------------------
        BYTE   W96
// 006   ----------------------------------------
        BYTE   W96
// 007   ----------------------------------------
        BYTE   W96
// 008   ----------------------------------------
        BYTE   W96
// 009   ----------------------------------------
        BYTE   W96
// 010   ----------------------------------------
        BYTE   W96
// 011   ----------------------------------------
        BYTE   W96
// 012   ----------------------------------------
        BYTE   W96
// 013   ----------------------------------------
        BYTE   W96
// 014   ----------------------------------------
        BYTE   W96
// 015   ----------------------------------------
        BYTE   W96
// 016   ----------------------------------------
        BYTE   W96
// 017   ----------------------------------------
        BYTE   W96
// 018   ----------------------------------------
        BYTE   W96
// 019   ----------------------------------------
        BYTE   W96
// 020   ----------------------------------------
        BYTE   W96
// 021   ----------------------------------------
        BYTE   W96
// 022   ----------------------------------------
        BYTE   W96
// 023   ----------------------------------------
        BYTE   W96
// 024   ----------------------------------------
        BYTE   W96
// 025   ----------------------------------------
        BYTE   W96
// 026   ----------------------------------------
        BYTE   W96
// 027   ----------------------------------------
        BYTE   W96
// 028   ----------------------------------------
        BYTE   W96
// 029   ----------------------------------------
        BYTE   W96
// 030   ----------------------------------------
TimeGear_8_30:
        BYTE   W72
        BYTE           N05     En4   v109
        BYTE   W06
        BYTE                   Fs4   v117
        BYTE   W06
        BYTE                   Gn4   v107
        BYTE   W06
        BYTE                   An4
        BYTE   W06
        BYTE   PEND
// 031   ----------------------------------------
TimeGear_8_31:
        BYTE           N23     Bn4   v107
        BYTE   W24
        BYTE           N05     An4   v081
        BYTE   W06
        BYTE                   Gn4   v070
        BYTE   W06
        BYTE           N11     Fs4   v107
        BYTE   W12
        BYTE                   Dn4   v088
        BYTE   W12
        BYTE                   Fs4   v117
        BYTE   W12
        BYTE                   En4   v120
        BYTE   W12
        BYTE                   Bn3   v072
        BYTE   W12
        BYTE   PEND
// 032   ----------------------------------------
TimeGear_8_32:
        BYTE           N11     An3   v107
        BYTE   W12
        BYTE           N05     Bn3   v117
        BYTE   W12
        BYTE                   En4   v109
        BYTE   W06
        BYTE                   Fs4   v117
        BYTE   W06
        BYTE                   Gn4   v107
        BYTE   W06
        BYTE                   An4
        BYTE   W06
        BYTE           N23     Bn4
        BYTE   W24
        BYTE           N05     An4   v081
        BYTE   W06
        BYTE                   Gn4   v070
        BYTE   W06
        BYTE           N11     Fs4   v107
        BYTE   W12
        BYTE   PEND
// 033   ----------------------------------------
TimeGear_8_33:
        BYTE           N11     Dn4   v088
        BYTE   W12
        BYTE                   Fs4   v117
        BYTE   W12
        BYTE                   En4   v120
        BYTE   W12
        BYTE                   Bn4
        BYTE   W12
        BYTE                   An4   v107
        BYTE   W12
        BYTE           N05     Bn4   v117
        BYTE   W12
        BYTE                   En4   v109
        BYTE   W06
        BYTE                   Fs4   v117
        BYTE   W06
        BYTE                   Gn4   v107
        BYTE   W06
        BYTE                   An4
        BYTE   W06
        BYTE   PEND
// 034   ----------------------------------------
        BYTE   PATT
         POIN2  TimeGear_8_31
// 035   ----------------------------------------
TimeGear_8_35:
        BYTE           N11     An3   v107
        BYTE   W12
        BYTE                   Bn3
        BYTE   W12
        BYTE                   An3   v117
        BYTE   W12
        BYTE                   Gn3   v107
        BYTE   W12
        BYTE           N56     En3   v109   gtp3
        BYTE   W48
        BYTE   PEND
// 036   ----------------------------------------
TimeGear_8_36:
        BYTE   W24
        BYTE           N23     En3   v107
        BYTE   W24
        BYTE           N12     Gn3   v117
        BYTE   W12
        BYTE                   Fs3   v107
        BYTE   W12
        BYTE                   En3   v120
        BYTE   W12
        BYTE           N10     Dn3   v117
        BYTE   W12
        BYTE   PEND
// 037   ----------------------------------------
TimeGear_8_37:
        BYTE           TIE     En3   v109
        BYTE   W04
        BYTE           VOL     35
        BYTE   W18
        BYTE                   34
        BYTE   W15
        BYTE                   33
        BYTE   W23
        BYTE                   32
        BYTE   W06
        BYTE                   31
        BYTE   W09
        BYTE                   30
        BYTE   W04
        BYTE                   29
        BYTE   W06
        BYTE                   28
        BYTE   W06
        BYTE                   27
        BYTE   W03
        BYTE                   26
        BYTE   W02
        BYTE   PEND
// 038   ----------------------------------------
TimeGear_8_LOOP:
        BYTE   W01
        BYTE           VOL     25
        BYTE   W03
        BYTE                   24
        BYTE   W03
        BYTE                   22
        BYTE   W03
        BYTE                   21
        BYTE   W08
        BYTE                   20
        BYTE   W03
        BYTE                   19
        BYTE   W03
        BYTE                   18
        BYTE   W03
        BYTE                   16
        BYTE   W03
        BYTE                   13
        BYTE   W06
        BYTE                   12
        BYTE   W03
        BYTE                   10
        BYTE   W03
        BYTE                   8
        BYTE   W03
        BYTE                   6
        BYTE   W02
        BYTE           EOT     En3
        BYTE   W48
        BYTE   W01
// 039   ----------------------------------------
        BYTE   W96
// 040   ----------------------------------------
        BYTE   W96
// 041   ----------------------------------------
        BYTE   W96
// 042   ----------------------------------------
        BYTE   W96
// 043   ----------------------------------------
        BYTE   W96
// 044   ----------------------------------------
        BYTE   W96
// 045   ----------------------------------------
        BYTE   W96
// 046   ----------------------------------------
        BYTE   W96
// 047   ----------------------------------------
        BYTE   W96
// 048   ----------------------------------------
        BYTE   W96
// 049   ----------------------------------------
        BYTE   W96
// 050   ----------------------------------------
        BYTE   W96
// 051   ----------------------------------------
        BYTE   W96
// 052   ----------------------------------------
        BYTE   W96
// 053   ----------------------------------------
        BYTE   W96
// 054   ----------------------------------------
        BYTE   W96
// 055   ----------------------------------------
        BYTE   W96
// 056   ----------------------------------------
        BYTE   W96
// 057   ----------------------------------------
        BYTE   W96
// 058   ----------------------------------------
        BYTE   W96
// 059   ----------------------------------------
        BYTE   W96
// 060   ----------------------------------------
        BYTE   W44
        BYTE   W03
        BYTE           VOL     38
        BYTE   W48
        BYTE   W01
// 061   ----------------------------------------
        BYTE   W96
// 062   ----------------------------------------
        BYTE   W96
// 063   ----------------------------------------
        BYTE   W96
// 064   ----------------------------------------
        BYTE   W96
// 065   ----------------------------------------
        BYTE   W96
// 066   ----------------------------------------
        BYTE   PATT
         POIN2  TimeGear_8_30
// 067   ----------------------------------------
        BYTE   PATT
         POIN2  TimeGear_8_31
// 068   ----------------------------------------
        BYTE   PATT
         POIN2  TimeGear_8_32
// 069   ----------------------------------------
        BYTE   PATT
         POIN2  TimeGear_8_33
// 070   ----------------------------------------
        BYTE   PATT
         POIN2  TimeGear_8_31
// 071   ----------------------------------------
        BYTE   PATT
         POIN2  TimeGear_8_35
// 072   ----------------------------------------
        BYTE   PATT
         POIN2  TimeGear_8_36
// 073   ----------------------------------------
        BYTE   PATT
         POIN2  TimeGear_8_37
// 074   ----------------------------------------
        BYTE   GoTo
         POIN2  TimeGear_8_LOOP
        BYTE   W01
        BYTE           VOL     25
        BYTE   W03
        BYTE                   24
        BYTE   W03
        BYTE                   22
        BYTE   W03
        BYTE                   21
        BYTE   W08
        BYTE                   20
        BYTE   W03
        BYTE                   19
        BYTE   W03
        BYTE                   18
        BYTE   W03
        BYTE                   16
        BYTE   W03
        BYTE                   13
        BYTE   W06
        BYTE                   12
        BYTE   W03
        BYTE                   10
        BYTE   W03
        BYTE                   8
        BYTE   W03
        BYTE                   6
        BYTE   W02
        BYTE           EOT     En3
        BYTE   W48
        BYTE   W01
// 075   ----------------------------------------
        BYTE   W96
// 076   ----------------------------------------
        BYTE   W96
// 077   ----------------------------------------
        BYTE   W96
// 078   ----------------------------------------
        BYTE   W96
// 079   ----------------------------------------
        BYTE   W56
        BYTE   W03
        BYTE   FINE

//***************** Track 9 (Midi-Chn.10) ******************//

TimeGear_9:
        BYTE   KEYSH   TimeGear_key+0
// 000   ----------------------------------------
        BYTE   W24
// 001   ----------------------------------------
        BYTE           VOICE   8
        BYTE           VOL     38
        BYTE           N04     Bn4   v100
        BYTE   W06
        BYTE                   Bn4   v060
        BYTE   W06
        BYTE                   En4   v100
        BYTE   W06
        BYTE                   En4   v060
        BYTE   W06
        BYTE                   Dn4   v100
        BYTE   W06
        BYTE                   Dn4   v060
        BYTE   W06
        BYTE                   En4   v100
        BYTE   W06
        BYTE                   En4   v065
        BYTE   W06
        BYTE                   En4   v070
        BYTE   W06
        BYTE                   En4   v048
        BYTE   W06
        BYTE                   En4   v056
        BYTE   W06
        BYTE                   En4   v032
        BYTE   W30
// 002   ----------------------------------------
        BYTE   W96
// 003   ----------------------------------------
        BYTE   W96
// 004   ----------------------------------------
TimeGear_9_4:
        BYTE           N04     An4   v100
        BYTE   W06
        BYTE                   An4   v060
        BYTE   W06
        BYTE                   Dn4   v100
        BYTE   W06
        BYTE                   Dn4   v060
        BYTE   W06
        BYTE                   En4   v100
        BYTE   W06
        BYTE                   En4   v060
        BYTE   W06
        BYTE                   An3   v100
        BYTE   W06
        BYTE                   An3   v065
        BYTE   W06
        BYTE                   An3   v070
        BYTE   W06
        BYTE                   An3   v048
        BYTE   W06
        BYTE                   An3   v056
        BYTE   W06
        BYTE                   An3   v032
        BYTE   W30
        BYTE   PEND
// 005   ----------------------------------------
        BYTE   W96
// 006   ----------------------------------------
        BYTE   W96
// 007   ----------------------------------------
TimeGear_9_7:
        BYTE           VOL     41
        BYTE           N04     Bn4   v100
        BYTE   W06
        BYTE                   Bn4   v060
        BYTE   W06
        BYTE                   En4   v100
        BYTE   W06
        BYTE                   En4   v060
        BYTE   W06
        BYTE                   Dn4   v100
        BYTE   W06
        BYTE                   Dn4   v060
        BYTE   W06
        BYTE                   En4   v100
        BYTE   W06
        BYTE                   En4   v065
        BYTE   W06
        BYTE                   En4   v070
        BYTE   W06
        BYTE                   En4   v048
        BYTE   W06
        BYTE                   En4   v056
        BYTE   W06
        BYTE                   En4   v032
        BYTE   W30
        BYTE   PEND
// 008   ----------------------------------------
        BYTE   W96
// 009   ----------------------------------------
        BYTE   W96
// 010   ----------------------------------------
        BYTE   PATT
         POIN2  TimeGear_9_4
// 011   ----------------------------------------
        BYTE   W96
// 012   ----------------------------------------
        BYTE   W96
// 013   ----------------------------------------
TimeGear_9_13:
        BYTE           VOL     44
        BYTE           N04     Bn4   v100
        BYTE   W06
        BYTE                   Bn4   v060
        BYTE   W06
        BYTE                   En4   v100
        BYTE   W06
        BYTE                   En4   v060
        BYTE   W06
        BYTE                   Dn4   v100
        BYTE   W06
        BYTE                   Dn4   v060
        BYTE   W06
        BYTE                   En4   v100
        BYTE   W06
        BYTE                   En4   v065
        BYTE   W06
        BYTE                   En4   v070
        BYTE   W06
        BYTE                   En4   v048
        BYTE   W06
        BYTE                   En4   v056
        BYTE   W06
        BYTE                   En4   v032
        BYTE   W30
        BYTE   PEND
// 014   ----------------------------------------
TimeGear_9_14:
        BYTE   W48
        BYTE           N04     An4   v100
        BYTE   W06
        BYTE                   An4   v060
        BYTE   W06
        BYTE                   Dn4   v100
        BYTE   W06
        BYTE                   Dn4   v060
        BYTE   W06
        BYTE                   En4   v100
        BYTE   W06
        BYTE                   En4   v060
        BYTE   W06
        BYTE                   An3   v100
        BYTE   W06
        BYTE                   An3   v065
        BYTE   W06
        BYTE   PEND
// 015   ----------------------------------------
TimeGear_9_15:
        BYTE           N04     An3   v070
        BYTE   W06
        BYTE                   An3   v048
        BYTE   W06
        BYTE                   An3   v056
        BYTE   W06
        BYTE                   An3   v032
        BYTE   W78
        BYTE   PEND
// 016   ----------------------------------------
TimeGear_9_16:
        BYTE           N04     Bn4   v100
        BYTE   W06
        BYTE                   Bn4   v060
        BYTE   W06
        BYTE                   En4   v100
        BYTE   W06
        BYTE                   En4   v060
        BYTE   W06
        BYTE                   Dn4   v100
        BYTE   W06
        BYTE                   Dn4   v060
        BYTE   W06
        BYTE                   En4   v100
        BYTE   W06
        BYTE                   En4   v065
        BYTE   W06
        BYTE                   En4   v070
        BYTE   W06
        BYTE                   En4   v048
        BYTE   W06
        BYTE                   En4   v056
        BYTE   W06
        BYTE                   En4   v032
        BYTE   W30
        BYTE   PEND
// 017   ----------------------------------------
        BYTE   PATT
         POIN2  TimeGear_9_14
// 018   ----------------------------------------
        BYTE   PATT
         POIN2  TimeGear_9_15
// 019   ----------------------------------------
        BYTE   PATT
         POIN2  TimeGear_9_16
// 020   ----------------------------------------
        BYTE   PATT
         POIN2  TimeGear_9_14
// 021   ----------------------------------------
        BYTE   PATT
         POIN2  TimeGear_9_15
// 022   ----------------------------------------
        BYTE   PATT
         POIN2  TimeGear_9_16
// 023   ----------------------------------------
        BYTE   PATT
         POIN2  TimeGear_9_14
// 024   ----------------------------------------
TimeGear_9_24:
        BYTE           N04     An3   v070
        BYTE   W06
        BYTE                   An3   v048
        BYTE   W06
        BYTE                   An3   v056
        BYTE   W06
        BYTE                   An3   v032
        BYTE   W76
        BYTE   W01
        BYTE           VOL     54
        BYTE   W01
        BYTE   PEND
// 025   ----------------------------------------
TimeGear_9_25:
        BYTE           VOL     46
        BYTE           N04     Bn4   v100
        BYTE   W06
        BYTE                   Bn4   v060
        BYTE   W06
        BYTE                   En4   v100
        BYTE   W06
        BYTE                   En4   v060
        BYTE   W06
        BYTE                   Dn4   v100
        BYTE   W06
        BYTE                   Dn4   v060
        BYTE   W06
        BYTE                   En4   v100
        BYTE   W06
        BYTE                   En4   v065
        BYTE   W06
        BYTE                   En4   v070
        BYTE   W06
        BYTE                   En4   v048
        BYTE   W06
        BYTE                   En4   v056
        BYTE   W06
        BYTE                   En4   v032
        BYTE   W30
        BYTE   PEND
// 026   ----------------------------------------
TimeGear_9_26:
        BYTE   W48
        BYTE           N04     Bn4   v100
        BYTE   W06
        BYTE                   Bn4   v060
        BYTE   W06
        BYTE                   En4   v100
        BYTE   W06
        BYTE                   En4   v060
        BYTE   W06
        BYTE                   Dn4   v100
        BYTE   W06
        BYTE                   Dn4   v060
        BYTE   W06
        BYTE                   En4   v100
        BYTE   W06
        BYTE                   En4   v065
        BYTE   W06
        BYTE   PEND
// 027   ----------------------------------------
TimeGear_9_27:
        BYTE           N04     En4   v070
        BYTE   W06
        BYTE                   En4   v048
        BYTE   W06
        BYTE                   En4   v056
        BYTE   W06
        BYTE                   En4   v032
        BYTE   W78
        BYTE   PEND
// 028   ----------------------------------------
        BYTE   PATT
         POIN2  TimeGear_9_16
// 029   ----------------------------------------
        BYTE   PATT
         POIN2  TimeGear_9_26
// 030   ----------------------------------------
        BYTE   PATT
         POIN2  TimeGear_9_27
// 031   ----------------------------------------
        BYTE   PATT
         POIN2  TimeGear_9_16
// 032   ----------------------------------------
        BYTE   PATT
         POIN2  TimeGear_9_26
// 033   ----------------------------------------
        BYTE   PATT
         POIN2  TimeGear_9_27
// 034   ----------------------------------------
        BYTE   PATT
         POIN2  TimeGear_9_16
// 035   ----------------------------------------
        BYTE   PATT
         POIN2  TimeGear_9_26
// 036   ----------------------------------------
        BYTE   PATT
         POIN2  TimeGear_9_27
// 037   ----------------------------------------
TimeGear_9_37:
        BYTE           N04     Bn4   v102
        BYTE   W06
        BYTE                   Bn4   v065
        BYTE   W06
        BYTE                   En4   v102
        BYTE   W06
        BYTE                   En4   v065
        BYTE   W06
        BYTE                   Dn4   v102
        BYTE   W06
        BYTE                   Dn4   v065
        BYTE   W06
        BYTE                   En4   v102
        BYTE   W06
        BYTE                   En4   v070
        BYTE   W06
        BYTE                   En4   v075
        BYTE   W06
        BYTE                   En4   v053
        BYTE   W06
        BYTE                   En4   v061
        BYTE   W06
        BYTE                   En4   v037
        BYTE   W30
        BYTE   PEND
// 038   ----------------------------------------
TimeGear_9_LOOP:
        BYTE   W96
// 039   ----------------------------------------
        BYTE   W92
        BYTE   W03
        BYTE           VOL     34
        BYTE   W01
// 040   ----------------------------------------
        BYTE   PATT
         POIN2  TimeGear_9_4
// 041   ----------------------------------------
        BYTE   W96
// 042   ----------------------------------------
        BYTE   W96
// 043   ----------------------------------------
        BYTE   PATT
         POIN2  TimeGear_9_7
// 044   ----------------------------------------
        BYTE   W96
// 045   ----------------------------------------
        BYTE   W96
// 046   ----------------------------------------
        BYTE   PATT
         POIN2  TimeGear_9_4
// 047   ----------------------------------------
        BYTE   W96
// 048   ----------------------------------------
        BYTE   W96
// 049   ----------------------------------------
        BYTE   PATT
         POIN2  TimeGear_9_13
// 050   ----------------------------------------
        BYTE   PATT
         POIN2  TimeGear_9_14
// 051   ----------------------------------------
        BYTE   PATT
         POIN2  TimeGear_9_15
// 052   ----------------------------------------
        BYTE   PATT
         POIN2  TimeGear_9_16
// 053   ----------------------------------------
        BYTE   PATT
         POIN2  TimeGear_9_14
// 054   ----------------------------------------
        BYTE   PATT
         POIN2  TimeGear_9_15
// 055   ----------------------------------------
        BYTE   PATT
         POIN2  TimeGear_9_16
// 056   ----------------------------------------
        BYTE   PATT
         POIN2  TimeGear_9_14
// 057   ----------------------------------------
        BYTE   PATT
         POIN2  TimeGear_9_15
// 058   ----------------------------------------
        BYTE   PATT
         POIN2  TimeGear_9_16
// 059   ----------------------------------------
        BYTE   PATT
         POIN2  TimeGear_9_14
// 060   ----------------------------------------
        BYTE   PATT
         POIN2  TimeGear_9_24
// 061   ----------------------------------------
        BYTE   PATT
         POIN2  TimeGear_9_25
// 062   ----------------------------------------
        BYTE   PATT
         POIN2  TimeGear_9_26
// 063   ----------------------------------------
        BYTE   PATT
         POIN2  TimeGear_9_27
// 064   ----------------------------------------
        BYTE   PATT
         POIN2  TimeGear_9_16
// 065   ----------------------------------------
        BYTE   PATT
         POIN2  TimeGear_9_26
// 066   ----------------------------------------
        BYTE   PATT
         POIN2  TimeGear_9_27
// 067   ----------------------------------------
        BYTE   PATT
         POIN2  TimeGear_9_16
// 068   ----------------------------------------
        BYTE   PATT
         POIN2  TimeGear_9_26
// 069   ----------------------------------------
        BYTE   PATT
         POIN2  TimeGear_9_27
// 070   ----------------------------------------
        BYTE   PATT
         POIN2  TimeGear_9_16
// 071   ----------------------------------------
        BYTE   PATT
         POIN2  TimeGear_9_26
// 072   ----------------------------------------
        BYTE   PATT
         POIN2  TimeGear_9_27
// 073   ----------------------------------------
        BYTE   PATT
         POIN2  TimeGear_9_37
// 074   ----------------------------------------
        BYTE   GoTo
         POIN2  TimeGear_9_LOOP
        BYTE   W96
// 075   ----------------------------------------
        BYTE   W92
        BYTE   W03
        BYTE           VOL     34
        BYTE   W01
// 076   ----------------------------------------
        BYTE   PATT
         POIN2  TimeGear_9_4
// 077   ----------------------------------------
        BYTE   W96
// 078   ----------------------------------------
        BYTE   W96
// 079   ----------------------------------------
        BYTE   W56
        BYTE   W03
        BYTE   FINE

//***************** Track 10 (Midi-Chn.11) *****************//

TimeGear_10:
        BYTE   KEYSH   TimeGear_key+0
// 000   ----------------------------------------
        BYTE   W24
// 001   ----------------------------------------
        BYTE           VOICE   8
        BYTE           VOL     38
        BYTE           PAN     c_v-29
        BYTE           N01     Bn5   v038
        BYTE   W12
        BYTE                   An5   v041
        BYTE   W12
        BYTE                   En5   v045
        BYTE   W12
        BYTE                   Bn5   v048
        BYTE   W12
        BYTE                   An5   v052
        BYTE   W12
        BYTE                   En5   v055
        BYTE   W12
        BYTE                   Bn5   v059
        BYTE   W12
        BYTE                   An5   v062
        BYTE   W12
// 002   ----------------------------------------
TimeGear_10_2:
        BYTE           N01     En5   v066
        BYTE   W12
        BYTE                   Bn5   v069
        BYTE   W12
        BYTE                   An5   v073
        BYTE   W12
        BYTE                   En5   v077
        BYTE   W12
        BYTE                   Bn5   v080
        BYTE   W12
        BYTE                   An5   v077
        BYTE   W12
        BYTE                   En5   v073
        BYTE   W12
        BYTE                   Bn5   v070
        BYTE   W12
        BYTE   PEND
// 003   ----------------------------------------
TimeGear_10_3:
        BYTE           N01     An5   v066
        BYTE   W12
        BYTE                   En5   v063
        BYTE   W12
        BYTE                   Bn5   v059
        BYTE   W12
        BYTE                   An5   v056
        BYTE   W12
        BYTE                   En5   v052
        BYTE   W12
        BYTE                   Bn5   v049
        BYTE   W12
        BYTE                   An5   v045
        BYTE   W12
        BYTE                   En5   v041
        BYTE   W12
        BYTE   PEND
// 004   ----------------------------------------
TimeGear_10_4:
        BYTE           N01     An5   v041
        BYTE   W12
        BYTE                   En5   v045
        BYTE   W12
        BYTE                   Dn5   v048
        BYTE   W12
        BYTE                   An5   v051
        BYTE   W12
        BYTE                   En5   v055
        BYTE   W12
        BYTE                   Dn5   v058
        BYTE   W12
        BYTE                   An5   v062
        BYTE   W12
        BYTE                   En5   v065
        BYTE   W12
        BYTE   PEND
// 005   ----------------------------------------
TimeGear_10_5:
        BYTE           N01     Dn5   v068
        BYTE   W12
        BYTE                   An5   v072
        BYTE   W12
        BYTE                   En5   v075
        BYTE   W12
        BYTE                   Dn5   v079
        BYTE   W12
        BYTE                   An5   v082
        BYTE   W12
        BYTE                   En5   v080
        BYTE   W12
        BYTE                   Dn5   v076
        BYTE   W12
        BYTE                   An5   v072
        BYTE   W12
        BYTE   PEND
// 006   ----------------------------------------
TimeGear_10_6:
        BYTE           N01     En5   v068
        BYTE   W12
        BYTE                   Dn5   v064
        BYTE   W12
        BYTE                   An5   v060
        BYTE   W12
        BYTE                   En5   v056
        BYTE   W12
        BYTE                   Dn5   v052
        BYTE   W12
        BYTE                   An5   v048
        BYTE   W12
        BYTE                   En5   v044
        BYTE   W12
        BYTE                   Dn5   v039
        BYTE   W12
        BYTE   PEND
// 007   ----------------------------------------
TimeGear_10_7:
        BYTE           N01     Bn5   v038
        BYTE   W12
        BYTE                   An5   v041
        BYTE   W12
        BYTE                   En5   v045
        BYTE   W12
        BYTE                   Bn5   v048
        BYTE   W12
        BYTE                   An5   v052
        BYTE   W12
        BYTE                   En5   v055
        BYTE   W12
        BYTE                   Bn5   v059
        BYTE   W12
        BYTE                   An5   v062
        BYTE   W12
        BYTE   PEND
// 008   ----------------------------------------
        BYTE   PATT
         POIN2  TimeGear_10_2
// 009   ----------------------------------------
        BYTE   PATT
         POIN2  TimeGear_10_3
// 010   ----------------------------------------
        BYTE   PATT
         POIN2  TimeGear_10_4
// 011   ----------------------------------------
        BYTE   PATT
         POIN2  TimeGear_10_5
// 012   ----------------------------------------
        BYTE   PATT
         POIN2  TimeGear_10_6
// 013   ----------------------------------------
TimeGear_10_13:
        BYTE           N01     Gn5   v058
        BYTE   W12
        BYTE                   Dn5   v061
        BYTE   W12
        BYTE                   Cn5   v065
        BYTE   W12
        BYTE                   Gn5   v068
        BYTE   W12
        BYTE                   Dn5   v071
        BYTE   W12
        BYTE                   Cn5   v075
        BYTE   W12
        BYTE                   Gn5   v078
        BYTE   W12
        BYTE                   Dn5   v081
        BYTE   W12
        BYTE   PEND
// 014   ----------------------------------------
TimeGear_10_14:
        BYTE           N01     Cn5   v085
        BYTE   W12
        BYTE                   Gn5   v088
        BYTE   W12
        BYTE                   Dn5   v091
        BYTE   W12
        BYTE                   Cn5   v095
        BYTE   W12
        BYTE                   An5   v100
        BYTE   W12
        BYTE                   En5   v097
        BYTE   W12
        BYTE                   Dn5   v095
        BYTE   W12
        BYTE                   An5   v093
        BYTE   W12
        BYTE   PEND
// 015   ----------------------------------------
TimeGear_10_15:
        BYTE           N01     En5   v091
        BYTE   W12
        BYTE                   Dn5   v089
        BYTE   W12
        BYTE                   An5   v087
        BYTE   W12
        BYTE                   En5   v085
        BYTE   W12
        BYTE                   Dn5   v083
        BYTE   W12
        BYTE                   An5   v081
        BYTE   W12
        BYTE                   En5   v079
        BYTE   W12
        BYTE                   Dn5   v077
        BYTE   W12
        BYTE   PEND
// 016   ----------------------------------------
TimeGear_10_16:
        BYTE           N01     Gn5   v077
        BYTE   W12
        BYTE                   Dn5   v079
        BYTE   W12
        BYTE                   Cn5   v081
        BYTE   W12
        BYTE                   Gn5   v083
        BYTE   W12
        BYTE                   Dn5   v085
        BYTE   W12
        BYTE                   Cn5   v087
        BYTE   W12
        BYTE                   Gn5   v089
        BYTE   W12
        BYTE                   Dn5   v092
        BYTE   W12
        BYTE   PEND
// 017   ----------------------------------------
TimeGear_10_17:
        BYTE           N01     Cn5   v094
        BYTE   W12
        BYTE                   Gn5   v096
        BYTE   W12
        BYTE                   Dn5   v098
        BYTE   W12
        BYTE                   Cn5   v100
        BYTE   W12
        BYTE                   An5   v102
        BYTE   W12
        BYTE                   En5   v103
        BYTE   W12
        BYTE                   Dn5   v101
        BYTE   W12
        BYTE                   An5   v098
        BYTE   W12
        BYTE   PEND
// 018   ----------------------------------------
TimeGear_10_18:
        BYTE           N01     En5   v096
        BYTE   W12
        BYTE                   Dn5   v094
        BYTE   W12
        BYTE                   An5   v092
        BYTE   W12
        BYTE                   En5   v090
        BYTE   W12
        BYTE                   Dn5   v088
        BYTE   W12
        BYTE                   An5   v086
        BYTE   W12
        BYTE                   En5   v084
        BYTE   W12
        BYTE                   Dn5   v082
        BYTE   W12
        BYTE   PEND
// 019   ----------------------------------------
TimeGear_10_19:
        BYTE           N01     Gn5   v079
        BYTE   W12
        BYTE                   Dn5   v078
        BYTE   W12
        BYTE                   Cn5   v080
        BYTE   W12
        BYTE                   Gn5   v083
        BYTE   W12
        BYTE                   Dn5   v085
        BYTE   W12
        BYTE                   Cn5   v087
        BYTE   W12
        BYTE                   Gn5   v089
        BYTE   W12
        BYTE                   Dn5   v092
        BYTE   W12
        BYTE   PEND
// 020   ----------------------------------------
TimeGear_10_20:
        BYTE           N01     Cn5   v094
        BYTE   W12
        BYTE                   Gn5   v096
        BYTE   W12
        BYTE                   Dn5   v098
        BYTE   W12
        BYTE                   Cn5   v100
        BYTE   W12
        BYTE                   An5   v103
        BYTE   W12
        BYTE                   En5   v101
        BYTE   W12
        BYTE                   Dn5   v099
        BYTE   W12
        BYTE                   An5   v097
        BYTE   W12
        BYTE   PEND
// 021   ----------------------------------------
TimeGear_10_21:
        BYTE           N01     En5   v095
        BYTE   W12
        BYTE                   Dn5   v092
        BYTE   W12
        BYTE                   An5   v090
        BYTE   W12
        BYTE                   En5   v088
        BYTE   W12
        BYTE                   Dn5   v086
        BYTE   W12
        BYTE                   An5   v083
        BYTE   W12
        BYTE                   En5   v081
        BYTE   W12
        BYTE                   Dn5   v079
        BYTE   W12
        BYTE   PEND
// 022   ----------------------------------------
TimeGear_10_22:
        BYTE           N01     Gn5   v076
        BYTE   W12
        BYTE                   Dn5   v078
        BYTE   W12
        BYTE                   Cn5   v080
        BYTE   W12
        BYTE                   Gn5   v082
        BYTE   W12
        BYTE                   Dn5   v085
        BYTE   W12
        BYTE                   Cn5   v087
        BYTE   W12
        BYTE                   Gn5   v089
        BYTE   W12
        BYTE                   Dn5   v092
        BYTE   W12
        BYTE   PEND
// 023   ----------------------------------------
TimeGear_10_23:
        BYTE           N01     Cn5   v094
        BYTE   W12
        BYTE                   Gn5   v096
        BYTE   W12
        BYTE                   Dn5   v098
        BYTE   W12
        BYTE                   Cn5   v101
        BYTE   W12
        BYTE                   An5   v104
        BYTE   W12
        BYTE                   En5   v102
        BYTE   W12
        BYTE                   Dn5   v100
        BYTE   W12
        BYTE                   An5   v097
        BYTE   W12
        BYTE   PEND
// 024   ----------------------------------------
TimeGear_10_24:
        BYTE           N01     En5   v095
        BYTE   W12
        BYTE                   Dn5   v093
        BYTE   W12
        BYTE                   An5   v091
        BYTE   W12
        BYTE                   En5   v093
        BYTE   W12
        BYTE                   Dn5   v095
        BYTE   W12
        BYTE                   An5   v098
        BYTE   W12
        BYTE                   En5   v101
        BYTE   W12
        BYTE                   Dn5   v103
        BYTE   W12
        BYTE   PEND
// 025   ----------------------------------------
TimeGear_10_25:
        BYTE           PAN     c_v-64
        BYTE           N01     Gn5   v112
        BYTE   W12
        BYTE                   Dn5
        BYTE   W12
        BYTE                   Cn5
        BYTE   W12
        BYTE                   Gn5
        BYTE   W12
        BYTE                   Dn5
        BYTE   W12
        BYTE                   Cn5
        BYTE   W12
        BYTE                   Gn5
        BYTE   W12
        BYTE                   Dn5
        BYTE   W12
        BYTE   PEND
// 026   ----------------------------------------
TimeGear_10_26:
        BYTE           N01     Cn5   v112
        BYTE   W12
        BYTE                   Gn5
        BYTE   W12
        BYTE                   Dn5
        BYTE   W12
        BYTE                   Cn5
        BYTE   W12
        BYTE                   An5
        BYTE   W12
        BYTE                   En5
        BYTE   W12
        BYTE                   Dn5
        BYTE   W12
        BYTE                   An5
        BYTE   W12
        BYTE   PEND
// 027   ----------------------------------------
TimeGear_10_27:
        BYTE           N01     En5   v112
        BYTE   W12
        BYTE                   Dn5
        BYTE   W12
        BYTE                   An5
        BYTE   W12
        BYTE                   En5
        BYTE   W12
        BYTE                   Dn5
        BYTE   W12
        BYTE                   An5
        BYTE   W12
        BYTE                   En5
        BYTE   W12
        BYTE                   Dn5
        BYTE   W12
        BYTE   PEND
// 028   ----------------------------------------
TimeGear_10_28:
        BYTE           N01     Gn5   v112
        BYTE   W12
        BYTE                   Dn5
        BYTE   W12
        BYTE                   Cn5
        BYTE   W12
        BYTE                   Gn5
        BYTE   W12
        BYTE                   Dn5
        BYTE   W12
        BYTE                   Cn5
        BYTE   W12
        BYTE                   Gn5
        BYTE   W12
        BYTE                   Dn5
        BYTE   W12
        BYTE   PEND
// 029   ----------------------------------------
        BYTE   PATT
         POIN2  TimeGear_10_26
// 030   ----------------------------------------
        BYTE   PATT
         POIN2  TimeGear_10_27
// 031   ----------------------------------------
        BYTE   PATT
         POIN2  TimeGear_10_28
// 032   ----------------------------------------
        BYTE   PATT
         POIN2  TimeGear_10_26
// 033   ----------------------------------------
        BYTE   PATT
         POIN2  TimeGear_10_27
// 034   ----------------------------------------
        BYTE   PATT
         POIN2  TimeGear_10_28
// 035   ----------------------------------------
TimeGear_10_35:
        BYTE           N01     Cn5   v112
        BYTE   W12
        BYTE                   Gn5
        BYTE   W12
        BYTE                   Dn5
        BYTE   W12
        BYTE                   Cn5
        BYTE   W12
        BYTE                   An5
        BYTE   W12
        BYTE                   En5
        BYTE   W12
        BYTE                   Dn5
        BYTE   W12
        BYTE                   An5   v110
        BYTE   W12
        BYTE   PEND
// 036   ----------------------------------------
TimeGear_10_36:
        BYTE           N01     En5   v106
        BYTE   W12
        BYTE                   Dn5   v102
        BYTE   W12
        BYTE                   An5   v098
        BYTE   W12
        BYTE                   En5   v095
        BYTE   W12
        BYTE                   Dn5   v091
        BYTE   W12
        BYTE                   An5   v087
        BYTE   W12
        BYTE                   En5   v084
        BYTE   W12
        BYTE                   Dn5   v080
        BYTE   W12
        BYTE   PEND
// 037   ----------------------------------------
TimeGear_10_37:
        BYTE           PAN     c_v-28
        BYTE           N01     Bn5   v078
        BYTE   W12
        BYTE                   An5   v080
        BYTE   W12
        BYTE                   En5   v083
        BYTE   W12
        BYTE                   Bn5   v084
        BYTE   W12
        BYTE                   An5   v086
        BYTE   W12
        BYTE                   En5   v088
        BYTE   W12
        BYTE                   Bn5   v090
        BYTE   W12
        BYTE                   An5   v092
        BYTE   W12
        BYTE   PEND
// 038   ----------------------------------------
TimeGear_10_LOOP:
        BYTE           N01     En5   v094
        BYTE   W12
        BYTE                   Bn5   v096
        BYTE   W12
        BYTE                   An5   v098
        BYTE   W12
        BYTE                   En5   v100
        BYTE   W12
        BYTE                   Bn5   v101
        BYTE   W12
        BYTE                   An5   v098
        BYTE   W12
        BYTE                   En5   v096
        BYTE   W12
        BYTE                   Bn5   v094
        BYTE   W12
// 039   ----------------------------------------
TimeGear_10_39:
        BYTE           N01     An5   v091
        BYTE   W12
        BYTE                   En5   v089
        BYTE   W12
        BYTE                   Bn5   v086
        BYTE   W12
        BYTE                   An5   v084
        BYTE   W12
        BYTE                   En5   v082
        BYTE   W12
        BYTE                   Bn5   v079
        BYTE   W12
        BYTE                   An5   v077
        BYTE   W12
        BYTE                   En5   v075
        BYTE   W12
        BYTE   PEND
// 040   ----------------------------------------
TimeGear_10_40:
        BYTE           N01     An5   v073
        BYTE   W12
        BYTE                   En5   v075
        BYTE   W12
        BYTE                   Dn5   v076
        BYTE   W12
        BYTE                   An5   v078
        BYTE   W12
        BYTE                   En5   v080
        BYTE   W12
        BYTE                   Dn5   v082
        BYTE   W12
        BYTE                   An5   v083
        BYTE   W12
        BYTE                   En5   v085
        BYTE   W12
        BYTE   PEND
// 041   ----------------------------------------
TimeGear_10_41:
        BYTE           N01     Dn5   v086
        BYTE   W12
        BYTE                   An5   v088
        BYTE   W12
        BYTE                   En5   v089
        BYTE   W12
        BYTE                   Dn5   v091
        BYTE   W12
        BYTE                   An5   v093
        BYTE   W12
        BYTE                   En5
        BYTE   W12
        BYTE                   Dn5   v091
        BYTE   W12
        BYTE                   An5   v088
        BYTE   W12
        BYTE   PEND
// 042   ----------------------------------------
TimeGear_10_42:
        BYTE           N01     En5   v086
        BYTE   W12
        BYTE                   Dn5   v083
        BYTE   W12
        BYTE                   An5   v080
        BYTE   W12
        BYTE                   En5   v078
        BYTE   W12
        BYTE                   Dn5   v076
        BYTE   W12
        BYTE                   An5   v073
        BYTE   W12
        BYTE                   En5   v070
        BYTE   W12
        BYTE                   Dn5   v068
        BYTE   W12
        BYTE   PEND
// 043   ----------------------------------------
        BYTE   PATT
         POIN2  TimeGear_10_7
// 044   ----------------------------------------
        BYTE   PATT
         POIN2  TimeGear_10_2
// 045   ----------------------------------------
        BYTE   PATT
         POIN2  TimeGear_10_3
// 046   ----------------------------------------
        BYTE   PATT
         POIN2  TimeGear_10_4
// 047   ----------------------------------------
        BYTE   PATT
         POIN2  TimeGear_10_5
// 048   ----------------------------------------
        BYTE   PATT
         POIN2  TimeGear_10_6
// 049   ----------------------------------------
        BYTE   PATT
         POIN2  TimeGear_10_13
// 050   ----------------------------------------
        BYTE   PATT
         POIN2  TimeGear_10_14
// 051   ----------------------------------------
        BYTE   PATT
         POIN2  TimeGear_10_15
// 052   ----------------------------------------
        BYTE   PATT
         POIN2  TimeGear_10_16
// 053   ----------------------------------------
        BYTE   PATT
         POIN2  TimeGear_10_17
// 054   ----------------------------------------
        BYTE   PATT
         POIN2  TimeGear_10_18
// 055   ----------------------------------------
        BYTE   PATT
         POIN2  TimeGear_10_19
// 056   ----------------------------------------
        BYTE   PATT
         POIN2  TimeGear_10_20
// 057   ----------------------------------------
        BYTE   PATT
         POIN2  TimeGear_10_21
// 058   ----------------------------------------
        BYTE   PATT
         POIN2  TimeGear_10_22
// 059   ----------------------------------------
        BYTE   PATT
         POIN2  TimeGear_10_23
// 060   ----------------------------------------
        BYTE   PATT
         POIN2  TimeGear_10_24
// 061   ----------------------------------------
        BYTE   PATT
         POIN2  TimeGear_10_25
// 062   ----------------------------------------
        BYTE   PATT
         POIN2  TimeGear_10_26
// 063   ----------------------------------------
        BYTE   PATT
         POIN2  TimeGear_10_27
// 064   ----------------------------------------
        BYTE   PATT
         POIN2  TimeGear_10_28
// 065   ----------------------------------------
        BYTE   PATT
         POIN2  TimeGear_10_26
// 066   ----------------------------------------
        BYTE   PATT
         POIN2  TimeGear_10_27
// 067   ----------------------------------------
        BYTE   PATT
         POIN2  TimeGear_10_28
// 068   ----------------------------------------
        BYTE   PATT
         POIN2  TimeGear_10_26
// 069   ----------------------------------------
        BYTE   PATT
         POIN2  TimeGear_10_27
// 070   ----------------------------------------
        BYTE   PATT
         POIN2  TimeGear_10_28
// 071   ----------------------------------------
        BYTE   PATT
         POIN2  TimeGear_10_35
// 072   ----------------------------------------
        BYTE   PATT
         POIN2  TimeGear_10_36
// 073   ----------------------------------------
        BYTE   PATT
         POIN2  TimeGear_10_37
// 074   ----------------------------------------
        BYTE           N01     En5   v094
        BYTE   GoTo
         POIN2  TimeGear_10_LOOP
        BYTE   W12
        BYTE                   Bn5   v096
        BYTE   W12
        BYTE                   An5   v098
        BYTE   W12
        BYTE                   En5   v100
        BYTE   W12
        BYTE                   Bn5   v101
        BYTE   W12
        BYTE                   An5   v098
        BYTE   W12
        BYTE                   En5   v096
        BYTE   W12
        BYTE                   Bn5   v094
        BYTE   W12
// 075   ----------------------------------------
        BYTE   PATT
         POIN2  TimeGear_10_39
// 076   ----------------------------------------
        BYTE   PATT
         POIN2  TimeGear_10_40
// 077   ----------------------------------------
        BYTE   PATT
         POIN2  TimeGear_10_41
// 078   ----------------------------------------
        BYTE   PATT
         POIN2  TimeGear_10_42
// 079   ----------------------------------------
        BYTE   W56
        BYTE   W03
        BYTE   FINE

//***************** Track 11 (Midi-Chn.12) *****************//

TimeGear_11:
        BYTE   KEYSH   TimeGear_key+0
// 000   ----------------------------------------
        BYTE   W24
// 001   ----------------------------------------
        BYTE           VOICE   8
        BYTE           VOL     38
        BYTE           PAN     c_v+38
        BYTE   W06
        BYTE           N01     En5   v039
        BYTE   W12
        BYTE                   Dn5   v043
        BYTE   W12
        BYTE                   Bn4   v046
        BYTE   W12
        BYTE                   En5   v050
        BYTE   W12
        BYTE                   Dn5   v054
        BYTE   W12
        BYTE                   Bn4   v057
        BYTE   W12
        BYTE                   En5   v060
        BYTE   W12
        BYTE                   Dn5   v064
        BYTE   W06
// 002   ----------------------------------------
TimeGear_11_2:
        BYTE   W06
        BYTE           N01     Bn4   v068
        BYTE   W12
        BYTE                   En5   v071
        BYTE   W12
        BYTE                   Dn5   v075
        BYTE   W12
        BYTE                   Bn4   v078
        BYTE   W12
        BYTE                   En5   v079
        BYTE   W12
        BYTE                   Dn5   v075
        BYTE   W12
        BYTE                   Bn4   v071
        BYTE   W12
        BYTE                   En5   v068
        BYTE   W06
        BYTE   PEND
// 003   ----------------------------------------
TimeGear_11_3:
        BYTE   W06
        BYTE           N01     Dn5   v065
        BYTE   W12
        BYTE                   Bn4   v061
        BYTE   W12
        BYTE                   En5   v058
        BYTE   W12
        BYTE                   Dn5   v054
        BYTE   W12
        BYTE                   Bn4   v050
        BYTE   W12
        BYTE                   En5   v047
        BYTE   W12
        BYTE                   Dn5   v044
        BYTE   W12
        BYTE                   Bn4   v040
        BYTE   W06
        BYTE   PEND
// 004   ----------------------------------------
TimeGear_11_4:
        BYTE   W06
        BYTE           N01     Dn5   v043
        BYTE   W12
        BYTE                   Bn4   v047
        BYTE   W12
        BYTE                   An4   v050
        BYTE   W12
        BYTE                   Dn5   v053
        BYTE   W12
        BYTE                   Bn4   v057
        BYTE   W12
        BYTE                   An4   v060
        BYTE   W12
        BYTE                   Dn5   v064
        BYTE   W12
        BYTE                   Bn4   v067
        BYTE   W06
        BYTE   PEND
// 005   ----------------------------------------
TimeGear_11_5:
        BYTE   W06
        BYTE           N01     An4   v070
        BYTE   W12
        BYTE                   Dn5   v073
        BYTE   W12
        BYTE                   Bn4   v077
        BYTE   W12
        BYTE                   An4   v080
        BYTE   W12
        BYTE                   Dn5   v082
        BYTE   W12
        BYTE                   Bn4   v078
        BYTE   W12
        BYTE                   An4   v074
        BYTE   W12
        BYTE                   Dn5   v070
        BYTE   W06
        BYTE   PEND
// 006   ----------------------------------------
TimeGear_11_6:
        BYTE   W06
        BYTE           N01     Bn4   v066
        BYTE   W12
        BYTE                   An4   v062
        BYTE   W12
        BYTE                   Dn5   v058
        BYTE   W12
        BYTE                   Bn4   v054
        BYTE   W12
        BYTE                   An4   v050
        BYTE   W12
        BYTE                   Dn5   v046
        BYTE   W12
        BYTE                   Bn4   v041
        BYTE   W12
        BYTE                   An4   v037
        BYTE   W06
        BYTE   PEND
// 007   ----------------------------------------
TimeGear_11_7:
        BYTE   W06
        BYTE           N01     En5   v039
        BYTE   W12
        BYTE                   Dn5   v043
        BYTE   W12
        BYTE                   Bn4   v046
        BYTE   W12
        BYTE                   En5   v050
        BYTE   W12
        BYTE                   Dn5   v054
        BYTE   W12
        BYTE                   Bn4   v057
        BYTE   W12
        BYTE                   En5   v060
        BYTE   W12
        BYTE                   Dn5   v064
        BYTE   W06
        BYTE   PEND
// 008   ----------------------------------------
        BYTE   PATT
         POIN2  TimeGear_11_2
// 009   ----------------------------------------
        BYTE   PATT
         POIN2  TimeGear_11_3
// 010   ----------------------------------------
        BYTE   PATT
         POIN2  TimeGear_11_4
// 011   ----------------------------------------
        BYTE   PATT
         POIN2  TimeGear_11_5
// 012   ----------------------------------------
        BYTE   PATT
         POIN2  TimeGear_11_6
// 013   ----------------------------------------
TimeGear_11_13:
        BYTE   W06
        BYTE           N01     Cn5   v059
        BYTE   W12
        BYTE                   An4   v063
        BYTE   W12
        BYTE                   Gn4   v066
        BYTE   W12
        BYTE                   Cn5   v070
        BYTE   W12
        BYTE                   An4   v073
        BYTE   W12
        BYTE                   Gn4   v076
        BYTE   W12
        BYTE                   Cn5   v080
        BYTE   W12
        BYTE                   An4   v083
        BYTE   W06
        BYTE   PEND
// 014   ----------------------------------------
TimeGear_11_14:
        BYTE   W06
        BYTE           N01     Gn4   v087
        BYTE   W12
        BYTE                   Cn5   v090
        BYTE   W12
        BYTE                   An4   v093
        BYTE   W12
        BYTE                   An4   v097
        BYTE   W12
        BYTE                   Dn5   v098
        BYTE   W12
        BYTE                   Bn4   v096
        BYTE   W12
        BYTE                   An4   v094
        BYTE   W12
        BYTE                   Dn5   v092
        BYTE   W06
        BYTE   PEND
// 015   ----------------------------------------
TimeGear_11_15:
        BYTE   W06
        BYTE           N01     Bn4   v090
        BYTE   W12
        BYTE                   An4   v088
        BYTE   W12
        BYTE                   Dn5   v086
        BYTE   W12
        BYTE                   Bn4   v084
        BYTE   W12
        BYTE                   An4   v082
        BYTE   W12
        BYTE                   Dn5   v080
        BYTE   W12
        BYTE                   Bn4   v078
        BYTE   W12
        BYTE                   An4   v076
        BYTE   W06
        BYTE   PEND
// 016   ----------------------------------------
TimeGear_11_16:
        BYTE   W06
        BYTE           N01     Cn5   v078
        BYTE   W12
        BYTE                   An4   v080
        BYTE   W12
        BYTE                   Gn4   v082
        BYTE   W12
        BYTE                   Cn5   v084
        BYTE   W12
        BYTE                   An4   v086
        BYTE   W12
        BYTE                   Gn4   v088
        BYTE   W12
        BYTE                   Cn5   v091
        BYTE   W12
        BYTE                   An4   v093
        BYTE   W06
        BYTE   PEND
// 017   ----------------------------------------
TimeGear_11_17:
        BYTE   W06
        BYTE           N01     Gn4   v095
        BYTE   W12
        BYTE                   Cn5   v097
        BYTE   W12
        BYTE                   An4   v099
        BYTE   W12
        BYTE                   An4   v101
        BYTE   W12
        BYTE                   Dn5   v104
        BYTE   W12
        BYTE                   Bn4   v102
        BYTE   W12
        BYTE                   An4   v100
        BYTE   W12
        BYTE                   Dn5   v097
        BYTE   W06
        BYTE   PEND
// 018   ----------------------------------------
TimeGear_11_18:
        BYTE   W06
        BYTE           N01     Bn4   v095
        BYTE   W12
        BYTE                   An4   v093
        BYTE   W12
        BYTE                   Dn5   v091
        BYTE   W12
        BYTE                   Bn4   v089
        BYTE   W12
        BYTE                   An4   v087
        BYTE   W12
        BYTE                   Dn5   v085
        BYTE   W12
        BYTE                   Bn4   v083
        BYTE   W12
        BYTE                   An4   v080
        BYTE   W06
        BYTE   PEND
// 019   ----------------------------------------
TimeGear_11_19:
        BYTE   W06
        BYTE           N01     Cn5   v077
        BYTE   W12
        BYTE                   An4   v079
        BYTE   W12
        BYTE                   Gn4   v082
        BYTE   W12
        BYTE                   Cn5   v084
        BYTE   W12
        BYTE                   An4   v086
        BYTE   W12
        BYTE                   Gn4   v088
        BYTE   W12
        BYTE                   Cn5   v091
        BYTE   W12
        BYTE                   An4   v093
        BYTE   W06
        BYTE   PEND
// 020   ----------------------------------------
TimeGear_11_20:
        BYTE   W06
        BYTE           N01     Gn4   v095
        BYTE   W12
        BYTE                   Cn5   v097
        BYTE   W12
        BYTE                   An4   v099
        BYTE   W12
        BYTE                   An4   v101
        BYTE   W12
        BYTE                   Dn5   v102
        BYTE   W12
        BYTE                   Bn4   v100
        BYTE   W12
        BYTE                   An4   v098
        BYTE   W12
        BYTE                   Dn5   v096
        BYTE   W06
        BYTE   PEND
// 021   ----------------------------------------
TimeGear_11_21:
        BYTE   W06
        BYTE           N01     Bn4   v093
        BYTE   W12
        BYTE                   An4   v091
        BYTE   W12
        BYTE                   Dn5   v089
        BYTE   W12
        BYTE                   Bn4   v087
        BYTE   W12
        BYTE                   An4   v084
        BYTE   W12
        BYTE                   Dn5   v082
        BYTE   W12
        BYTE                   Bn4   v080
        BYTE   W12
        BYTE                   An4   v078
        BYTE   W06
        BYTE   PEND
// 022   ----------------------------------------
TimeGear_11_22:
        BYTE   W06
        BYTE           N01     Cn5   v077
        BYTE   W12
        BYTE                   An4   v079
        BYTE   W12
        BYTE                   Gn4   v081
        BYTE   W12
        BYTE                   Cn5   v084
        BYTE   W12
        BYTE                   An4   v086
        BYTE   W12
        BYTE                   Gn4   v088
        BYTE   W12
        BYTE                   Cn5   v091
        BYTE   W12
        BYTE                   An4   v093
        BYTE   W06
        BYTE   PEND
// 023   ----------------------------------------
TimeGear_11_23:
        BYTE   W06
        BYTE           N01     Gn4   v095
        BYTE   W12
        BYTE                   Cn5   v097
        BYTE   W12
        BYTE                   An4   v100
        BYTE   W12
        BYTE                   An4   v102
        BYTE   W12
        BYTE                   Dn5   v103
        BYTE   W12
        BYTE                   Bn4   v101
        BYTE   W12
        BYTE                   An4   v098
        BYTE   W12
        BYTE                   Dn5   v096
        BYTE   W06
        BYTE   PEND
// 024   ----------------------------------------
TimeGear_11_24:
        BYTE   W06
        BYTE           N01     Bn4   v094
        BYTE   W12
        BYTE                   An4   v092
        BYTE   W12
        BYTE                   Dn5
        BYTE   W12
        BYTE                   Bn4   v094
        BYTE   W12
        BYTE                   An4   v097
        BYTE   W12
        BYTE                   Dn5   v100
        BYTE   W12
        BYTE                   Bn4   v102
        BYTE   W12
        BYTE                   An4   v105
        BYTE   W06
        BYTE   PEND
// 025   ----------------------------------------
TimeGear_11_25:
        BYTE           PAN     c_v+63
        BYTE   W06
        BYTE           N01     Cn5   v112
        BYTE   W12
        BYTE                   An4
        BYTE   W12
        BYTE                   Gn4
        BYTE   W12
        BYTE                   Cn5
        BYTE   W12
        BYTE                   An4
        BYTE   W12
        BYTE                   Gn4
        BYTE   W12
        BYTE                   Cn5
        BYTE   W12
        BYTE                   An4
        BYTE   W06
        BYTE   PEND
// 026   ----------------------------------------
TimeGear_11_26:
        BYTE   W06
        BYTE           N01     Gn4   v112
        BYTE   W12
        BYTE                   Cn5
        BYTE   W12
        BYTE                   An4
        BYTE   W12
        BYTE                   Gn4
        BYTE   W12
        BYTE                   Dn5
        BYTE   W12
        BYTE                   An4
        BYTE   W12
        BYTE                   Fs4
        BYTE   W12
        BYTE                   Dn5
        BYTE   W06
        BYTE   PEND
// 027   ----------------------------------------
TimeGear_11_27:
        BYTE   W06
        BYTE           N01     An4   v112
        BYTE   W12
        BYTE                   Fs4
        BYTE   W12
        BYTE                   Dn5
        BYTE   W12
        BYTE                   An4
        BYTE   W12
        BYTE                   Fs4
        BYTE   W12
        BYTE                   Dn5
        BYTE   W12
        BYTE                   An4
        BYTE   W12
        BYTE                   Fs4
        BYTE   W06
        BYTE   PEND
// 028   ----------------------------------------
TimeGear_11_28:
        BYTE   W06
        BYTE           N01     Cn5   v112
        BYTE   W12
        BYTE                   An4
        BYTE   W12
        BYTE                   Gn4
        BYTE   W12
        BYTE                   Cn5
        BYTE   W12
        BYTE                   An4
        BYTE   W12
        BYTE                   Gn4
        BYTE   W12
        BYTE                   Cn5
        BYTE   W12
        BYTE                   An4
        BYTE   W06
        BYTE   PEND
// 029   ----------------------------------------
        BYTE   PATT
         POIN2  TimeGear_11_26
// 030   ----------------------------------------
        BYTE   PATT
         POIN2  TimeGear_11_27
// 031   ----------------------------------------
        BYTE   PATT
         POIN2  TimeGear_11_28
// 032   ----------------------------------------
        BYTE   PATT
         POIN2  TimeGear_11_26
// 033   ----------------------------------------
        BYTE   PATT
         POIN2  TimeGear_11_27
// 034   ----------------------------------------
        BYTE   PATT
         POIN2  TimeGear_11_28
// 035   ----------------------------------------
TimeGear_11_35:
        BYTE   W06
        BYTE           N01     Gn4   v112
        BYTE   W12
        BYTE                   Cn5
        BYTE   W12
        BYTE                   An4
        BYTE   W12
        BYTE                   Gn4
        BYTE   W12
        BYTE                   Dn5
        BYTE   W12
        BYTE                   An4
        BYTE   W12
        BYTE                   Fs4   v111
        BYTE   W12
        BYTE                   Dn5   v108
        BYTE   W06
        BYTE   PEND
// 036   ----------------------------------------
TimeGear_11_36:
        BYTE   W06
        BYTE           N01     An4   v104
        BYTE   W12
        BYTE                   Fs4   v101
        BYTE   W12
        BYTE                   Dn5   v097
        BYTE   W12
        BYTE                   An4   v093
        BYTE   W12
        BYTE                   Fs4   v089
        BYTE   W12
        BYTE                   Dn5   v086
        BYTE   W12
        BYTE                   An4   v082
        BYTE   W12
        BYTE                   Fs4   v078
        BYTE   W06
        BYTE   PEND
// 037   ----------------------------------------
TimeGear_11_37:
        BYTE           PAN     c_v+37
        BYTE   W06
        BYTE           N01     En5   v079
        BYTE   W12
        BYTE                   Dn5   v082
        BYTE   W12
        BYTE                   Bn4   v084
        BYTE   W12
        BYTE                   En5   v085
        BYTE   W12
        BYTE                   Dn5   v087
        BYTE   W12
        BYTE                   Bn4   v089
        BYTE   W12
        BYTE                   En5   v091
        BYTE   W12
        BYTE                   Dn5   v093
        BYTE   W06
        BYTE   PEND
// 038   ----------------------------------------
TimeGear_11_LOOP:
        BYTE   W06
        BYTE           N01     Bn4   v095
        BYTE   W12
        BYTE                   En5   v097
        BYTE   W12
        BYTE                   Dn5   v099
        BYTE   W12
        BYTE                   Bn4   v102
        BYTE   W12
        BYTE                   En5   v100
        BYTE   W12
        BYTE                   Dn5   v097
        BYTE   W12
        BYTE                   Bn4   v095
        BYTE   W12
        BYTE                   En5   v093
        BYTE   W06
// 039   ----------------------------------------
TimeGear_11_39:
        BYTE   W06
        BYTE           N01     Dn5   v090
        BYTE   W12
        BYTE                   Bn4   v088
        BYTE   W12
        BYTE                   En5   v085
        BYTE   W12
        BYTE                   Dn5   v083
        BYTE   W12
        BYTE                   Bn4   v080
        BYTE   W12
        BYTE                   En5   v078
        BYTE   W12
        BYTE                   Dn5   v076
        BYTE   W12
        BYTE                   Bn4   v073
        BYTE   W06
        BYTE   PEND
// 040   ----------------------------------------
TimeGear_11_40:
        BYTE   W06
        BYTE           N01     Dn5   v074
        BYTE   W12
        BYTE                   Bn4   v076
        BYTE   W12
        BYTE                   An4   v077
        BYTE   W12
        BYTE                   Dn5   v079
        BYTE   W12
        BYTE                   Bn4   v080
        BYTE   W12
        BYTE                   An4   v082
        BYTE   W12
        BYTE                   Dn5   v084
        BYTE   W12
        BYTE                   Bn4   v085
        BYTE   W06
        BYTE   PEND
// 041   ----------------------------------------
TimeGear_11_41:
        BYTE   W06
        BYTE           N01     An4   v087
        BYTE   W12
        BYTE                   Dn5   v089
        BYTE   W12
        BYTE                   Bn4   v091
        BYTE   W12
        BYTE                   An4   v092
        BYTE   W12
        BYTE                   Dn5   v094
        BYTE   W12
        BYTE                   Bn4   v092
        BYTE   W12
        BYTE                   An4   v089
        BYTE   W12
        BYTE                   Dn5   v087
        BYTE   W06
        BYTE   PEND
// 042   ----------------------------------------
TimeGear_11_42:
        BYTE   W06
        BYTE           N01     Bn4   v084
        BYTE   W12
        BYTE                   An4   v082
        BYTE   W12
        BYTE                   Dn5   v079
        BYTE   W12
        BYTE                   Bn4   v077
        BYTE   W12
        BYTE                   An4   v074
        BYTE   W12
        BYTE                   Dn5   v072
        BYTE   W12
        BYTE                   Bn4   v069
        BYTE   W12
        BYTE                   An4   v067
        BYTE   W06
        BYTE   PEND
// 043   ----------------------------------------
        BYTE   PATT
         POIN2  TimeGear_11_7
// 044   ----------------------------------------
        BYTE   PATT
         POIN2  TimeGear_11_2
// 045   ----------------------------------------
        BYTE   PATT
         POIN2  TimeGear_11_3
// 046   ----------------------------------------
        BYTE   PATT
         POIN2  TimeGear_11_4
// 047   ----------------------------------------
        BYTE   PATT
         POIN2  TimeGear_11_5
// 048   ----------------------------------------
        BYTE   PATT
         POIN2  TimeGear_11_6
// 049   ----------------------------------------
        BYTE   PATT
         POIN2  TimeGear_11_13
// 050   ----------------------------------------
        BYTE   PATT
         POIN2  TimeGear_11_14
// 051   ----------------------------------------
        BYTE   PATT
         POIN2  TimeGear_11_15
// 052   ----------------------------------------
        BYTE   PATT
         POIN2  TimeGear_11_16
// 053   ----------------------------------------
        BYTE   PATT
         POIN2  TimeGear_11_17
// 054   ----------------------------------------
        BYTE   PATT
         POIN2  TimeGear_11_18
// 055   ----------------------------------------
        BYTE   PATT
         POIN2  TimeGear_11_19
// 056   ----------------------------------------
        BYTE   PATT
         POIN2  TimeGear_11_20
// 057   ----------------------------------------
        BYTE   PATT
         POIN2  TimeGear_11_21
// 058   ----------------------------------------
        BYTE   PATT
         POIN2  TimeGear_11_22
// 059   ----------------------------------------
        BYTE   PATT
         POIN2  TimeGear_11_23
// 060   ----------------------------------------
        BYTE   PATT
         POIN2  TimeGear_11_24
// 061   ----------------------------------------
        BYTE   PATT
         POIN2  TimeGear_11_25
// 062   ----------------------------------------
        BYTE   PATT
         POIN2  TimeGear_11_26
// 063   ----------------------------------------
        BYTE   PATT
         POIN2  TimeGear_11_27
// 064   ----------------------------------------
        BYTE   PATT
         POIN2  TimeGear_11_28
// 065   ----------------------------------------
        BYTE   PATT
         POIN2  TimeGear_11_26
// 066   ----------------------------------------
        BYTE   PATT
         POIN2  TimeGear_11_27
// 067   ----------------------------------------
        BYTE   PATT
         POIN2  TimeGear_11_28
// 068   ----------------------------------------
        BYTE   PATT
         POIN2  TimeGear_11_26
// 069   ----------------------------------------
        BYTE   PATT
         POIN2  TimeGear_11_27
// 070   ----------------------------------------
        BYTE   PATT
         POIN2  TimeGear_11_28
// 071   ----------------------------------------
        BYTE   PATT
         POIN2  TimeGear_11_35
// 072   ----------------------------------------
        BYTE   PATT
         POIN2  TimeGear_11_36
// 073   ----------------------------------------
        BYTE   PATT
         POIN2  TimeGear_11_37
// 074   ----------------------------------------
        BYTE   GoTo
         POIN2  TimeGear_11_LOOP
        BYTE   W06
        BYTE           N01     Bn4   v095
        BYTE   W12
        BYTE                   En5   v097
        BYTE   W12
        BYTE                   Dn5   v099
        BYTE   W12
        BYTE                   Bn4   v102
        BYTE   W12
        BYTE                   En5   v100
        BYTE   W12
        BYTE                   Dn5   v097
        BYTE   W12
        BYTE                   Bn4   v095
        BYTE   W12
        BYTE                   En5   v093
        BYTE   W06
// 075   ----------------------------------------
        BYTE   PATT
         POIN2  TimeGear_11_39
// 076   ----------------------------------------
        BYTE   PATT
         POIN2  TimeGear_11_40
// 077   ----------------------------------------
        BYTE   PATT
         POIN2  TimeGear_11_41
// 078   ----------------------------------------
        BYTE   PATT
         POIN2  TimeGear_11_42
// 079   ----------------------------------------
        BYTE   W56
        BYTE   W03
        BYTE   FINE


//********************** End of Song ***********************//

        ALIGN 4
TimeGear:
        BYTE   12                      // Num Tracks
        BYTE   0                       // Unknown
        BYTE   TimeGear_pri            // Priority
        BYTE   TimeGear_rev            // Reverb

        POIN2   TimeGear_grp           

        POIN2   TimeGear_0
        POIN2   TimeGear_1
        POIN2   TimeGear_2
        POIN2   TimeGear_3
        POIN2   TimeGear_4
        POIN2   TimeGear_5
        POIN2   TimeGear_6
        POIN2   TimeGear_7
        POIN2   TimeGear_8
        POIN2   TimeGear_9
        POIN2   TimeGear_10
        POIN2   TimeGear_11

        
