//Event file generated from Sappy .s format.
        #include "MPlayDef.event"

        #define    EndingTheme_grp  voicegroup000
        #define    EndingTheme_pri  0
        #define    EndingTheme_rev  0
        #define    EndingTheme_key  0

        // .rodata
        // EndingTheme
        ALIGN 4

//****************** Track 0 (Midi-Chn.0) ******************//

EndingTheme_0:
        BYTE   KEYSH   EndingTheme_key+0
// 000   ----------------------------------------
        BYTE   TEMPO   120/2
EndingTheme_0_LOOP:
        BYTE   W24
// 001   ----------------------------------------
        BYTE   TEMPO   132/2
        BYTE           VOICE   73
        BYTE           VOL     58
        BYTE   W08
        BYTE           N02     Gn4   v070
        BYTE   W08
        BYTE                   An4   v083
        BYTE   W08
        BYTE                   Dn5   v088
        BYTE   W08
        BYTE                   Gn5   v104
        BYTE   W08
        BYTE                   Dn5   v102
        BYTE   W08
        BYTE                   An4   v085
        BYTE   W08
        BYTE                   Gn4   v070
        BYTE   W08
        BYTE                   An4   v083
        BYTE   W08
        BYTE                   Dn5   v088
        BYTE   W08
        BYTE                   Gn5   v104
        BYTE   W08
        BYTE                   Dn5   v102
        BYTE   W08
// 002   ----------------------------------------
EndingTheme_0_2:
        BYTE           N02     An4   v085
        BYTE   W08
        BYTE                   Gn4   v070
        BYTE   W08
        BYTE                   An4   v083
        BYTE   W08
        BYTE                   Dn5   v088
        BYTE   W08
        BYTE                   Gn5   v104
        BYTE   W08
        BYTE                   Dn5   v102
        BYTE   W08
        BYTE                   An4   v085
        BYTE   W08
        BYTE                   Gn4   v070
        BYTE   W08
        BYTE                   An4   v083
        BYTE   W08
        BYTE                   Dn5   v088
        BYTE   W08
        BYTE                   Gn5   v104
        BYTE   W08
        BYTE                   Dn5   v102
        BYTE   W08
        BYTE   PEND
// 003   ----------------------------------------
        BYTE   PATT
         POIN2  EndingTheme_0_2
// 004   ----------------------------------------
        BYTE   PATT
         POIN2  EndingTheme_0_2
// 005   ----------------------------------------
        BYTE   PATT
         POIN2  EndingTheme_0_2
// 006   ----------------------------------------
        BYTE   PATT
         POIN2  EndingTheme_0_2
// 007   ----------------------------------------
        BYTE   PATT
         POIN2  EndingTheme_0_2
// 008   ----------------------------------------
        BYTE           N02     An4   v085
        BYTE   W08
        BYTE                   Gn4   v070
        BYTE   W08
        BYTE                   An4   v083
        BYTE   W08
        BYTE                   Dn5   v088
        BYTE   W08
        BYTE                   Gn5   v104
        BYTE   W08
        BYTE                   Dn5   v102
        BYTE   W08
        BYTE                   An4   v085
        BYTE   W08
        BYTE           N04     Dn5   v115
        BYTE   W08
        BYTE                   Dn5   v045
        BYTE   W08
        BYTE                   Dn5   v115
        BYTE   W08
        BYTE                   Dn5
        BYTE   W08
        BYTE                   Cn5
        BYTE   W08
// 009   ----------------------------------------
        BYTE                   Dn5
        BYTE   W08
        BYTE           N24     Gn5
        BYTE   W24
        BYTE                   Gn5   v057
        BYTE   W24
        BYTE           N04     Dn5   v115
        BYTE   W08
        BYTE                   Dn5   v053
        BYTE   W08
        BYTE                   Dn5   v115
        BYTE   W08
        BYTE                   Dn5
        BYTE   W08
        BYTE                   Cn5
        BYTE   W08
// 010   ----------------------------------------
        BYTE                   Dn5
        BYTE   W08
        BYTE           N24     Gn4
        BYTE   W24
        BYTE                   Gn4   v047
        BYTE   W24
        BYTE           N04     Dn5   v115
        BYTE   W08
        BYTE                   Dn5   v048
        BYTE   W08
        BYTE                   Dn5   v115
        BYTE   W08
        BYTE                   Dn5
        BYTE   W08
        BYTE                   Cn5
        BYTE   W08
// 011   ----------------------------------------
        BYTE                   Bn4
        BYTE   W08
        BYTE           N11     Gn4   v111
        BYTE   W16
        BYTE           N08     Gn4   v044
        BYTE   W08
        BYTE           N11     An4   v115
        BYTE   W16
        BYTE           N08     An4   v046
        BYTE   W08
        BYTE           N11     Bn4   v121
        BYTE   W16
        BYTE           N08     Bn4   v046
        BYTE   W08
        BYTE           N11     Cn5   v118
        BYTE   W16
// 012   ----------------------------------------
        BYTE           N08     Cn5   v042
        BYTE   W08
        BYTE           N24     Dn5   v115
        BYTE   W24
        BYTE                   Dn5   v045
        BYTE   W24
        BYTE           N04     Dn5   v115
        BYTE   W08
        BYTE                   Dn5   v050
        BYTE   W08
        BYTE                   Dn5   v115
        BYTE   W08
        BYTE                   Dn5
        BYTE   W08
        BYTE                   Cn5
        BYTE   W08
// 013   ----------------------------------------
        BYTE                   Dn5
        BYTE   W08
        BYTE           N24     Gn5
        BYTE   W24
        BYTE                   Gn5   v048
        BYTE   W24
        BYTE           N04     Dn5   v115
        BYTE   W08
        BYTE                   Dn5   v046
        BYTE   W08
        BYTE                   Dn5   v115
        BYTE   W08
        BYTE                   Dn5
        BYTE   W08
        BYTE                   Cn5
        BYTE   W08
// 014   ----------------------------------------
        BYTE                   Dn5
        BYTE   W08
        BYTE           N24     Gn4
        BYTE   W24
        BYTE                   Gn4   v046
        BYTE   W24
        BYTE           N04     Dn5   v115
        BYTE   W08
        BYTE                   Dn5   v043
        BYTE   W08
        BYTE                   Dn5   v115
        BYTE   W08
        BYTE                   Dn5
        BYTE   W08
        BYTE                   Cn5
        BYTE   W08
// 015   ----------------------------------------
        BYTE                   Bn4
        BYTE   W08
        BYTE           N11     Gn4   v111
        BYTE   W16
        BYTE           N08     Gn4   v035
        BYTE   W08
        BYTE           N11     An4   v115
        BYTE   W16
        BYTE           N08     An4   v036
        BYTE   W08
        BYTE           N11     Bn4   v121
        BYTE   W16
        BYTE           N08     Bn4   v035
        BYTE   W08
        BYTE           N11     Cn5   v118
        BYTE   W16
// 016   ----------------------------------------
        BYTE           N08     Cn5   v040
        BYTE   W08
        BYTE           N24     Dn5   v115
        BYTE   W24
        BYTE                   Dn5   v043
        BYTE   W64
// 017   ----------------------------------------
        BYTE   W08
        BYTE           N02     Gn4   v070
        BYTE   W08
        BYTE                   An4   v083
        BYTE   W08
        BYTE                   Dn5   v088
        BYTE   W08
        BYTE                   Gn5   v104
        BYTE   W08
        BYTE                   Dn5   v102
        BYTE   W08
        BYTE                   An4   v085
        BYTE   W08
        BYTE                   Gn4   v070
        BYTE   W08
        BYTE                   An4   v083
        BYTE   W08
        BYTE                   Dn5   v088
        BYTE   W08
        BYTE                   Gn5   v104
        BYTE   W08
        BYTE                   Dn5   v102
        BYTE   W08
// 018   ----------------------------------------
        BYTE   PATT
         POIN2  EndingTheme_0_2
// 019   ----------------------------------------
        BYTE   PATT
         POIN2  EndingTheme_0_2
// 020   ----------------------------------------
        BYTE   PATT
         POIN2  EndingTheme_0_2
// 021   ----------------------------------------
        BYTE   PATT
         POIN2  EndingTheme_0_2
// 022   ----------------------------------------
        BYTE   PATT
         POIN2  EndingTheme_0_2
// 023   ----------------------------------------
        BYTE   PATT
         POIN2  EndingTheme_0_2
// 024   ----------------------------------------
        BYTE           N02     An4   v085
        BYTE   W08
        BYTE                   Gn4   v070
        BYTE   W08
        BYTE                   An4   v083
        BYTE   W08
        BYTE                   Dn5   v088
        BYTE   W08
        BYTE                   Gn5   v104
        BYTE   W08
        BYTE                   Dn5   v102
        BYTE   W08
        BYTE                   An4   v085
        BYTE   W08
        BYTE           N04     Dn5   v115
        BYTE   W16
        BYTE                   Dn5
        BYTE   W08
        BYTE                   Dn5
        BYTE   W08
        BYTE                   Cn5
        BYTE   W08
// 025   ----------------------------------------
        BYTE                   Dn5
        BYTE   W08
        BYTE           N92     Gn5   v115   gtp3
        BYTE   W52
        BYTE           VOL     57
        BYTE   W04
        BYTE                   56
        BYTE   W04
        BYTE                   55
        BYTE   W04
        BYTE                   54
        BYTE   W02
        BYTE                   52
        BYTE   W02
        BYTE                   51
        BYTE   W04
        BYTE                   49
        BYTE   W02
        BYTE                   48
        BYTE   W02
        BYTE                   47
        BYTE   W02
        BYTE                   46
        BYTE   W02
        BYTE                   44
        BYTE   W02
        BYTE                   42
        BYTE   W02
        BYTE                   41
        BYTE   W02
        BYTE                   39
        BYTE   W02
// 026   ----------------------------------------
        BYTE                   37
        BYTE   W02
        BYTE                   35
        BYTE   W02
        BYTE                   33
        BYTE   W02
        BYTE                   32
        BYTE   W02
        BYTE                   29
        BYTE   W44
        BYTE   W02
        BYTE                   58
        BYTE   W02
        BYTE           N04     Dn5
        BYTE   W16
        BYTE                   Dn5
        BYTE   W08
        BYTE                   Dn5
        BYTE   W08
        BYTE                   Cn5
        BYTE   W08
// 027   ----------------------------------------
        BYTE                   Dn5
        BYTE   W08
        BYTE           N92     Gn5   v115   gtp3
        BYTE   W42
        BYTE           VOL     56
        BYTE   W12
        BYTE                   55
        BYTE   W04
        BYTE                   54
        BYTE   W04
        BYTE                   52
        BYTE   W02
        BYTE                   51
        BYTE   W04
        BYTE                   50
        BYTE   W02
        BYTE                   49
        BYTE   W02
        BYTE                   48
        BYTE   W02
        BYTE                   47
        BYTE   W02
        BYTE                   46
        BYTE   W02
        BYTE                   44
        BYTE   W02
        BYTE                   42
        BYTE   W02
        BYTE                   41
        BYTE   W02
        BYTE                   40
        BYTE   W02
        BYTE                   38
        BYTE   W02
// 028   ----------------------------------------
        BYTE                   36
        BYTE   W02
        BYTE                   34
        BYTE   W02
        BYTE                   33
        BYTE   W02
        BYTE                   31
        BYTE   W36
        BYTE   W02
        BYTE                   58
        BYTE   W12
        BYTE           N04     Dn5
        BYTE   W16
        BYTE                   Dn5
        BYTE   W08
        BYTE                   Dn5
        BYTE   W08
        BYTE                   Cn5
        BYTE   W08
// 029   ----------------------------------------
        BYTE                   Dn5
        BYTE   W08
        BYTE           N92     Gn5   v115   gtp3
        BYTE   W32
        BYTE   W02
        BYTE           VOL     57
        BYTE   W10
        BYTE                   56
        BYTE   W06
        BYTE                   55
        BYTE   W04
        BYTE                   54
        BYTE   W02
        BYTE                   53
        BYTE   W02
        BYTE                   52
        BYTE   W02
        BYTE                   51
        BYTE   W04
        BYTE                   50
        BYTE   W02
        BYTE                   49
        BYTE   W02
        BYTE                   48
        BYTE   W02
        BYTE                   47
        BYTE   W02
        BYTE                   46
        BYTE   W02
        BYTE                   44
        BYTE   W02
        BYTE                   42
        BYTE   W02
        BYTE                   41
        BYTE   W02
        BYTE                   40
        BYTE   W02
        BYTE                   38
        BYTE   W02
        BYTE                   36
        BYTE   W02
        BYTE                   35
        BYTE   W02
// 030   ----------------------------------------
        BYTE                   33
        BYTE   W02
        BYTE                   31
        BYTE   W02
        BYTE                   29
        BYTE   W92
// 031   ----------------------------------------
        BYTE   W96
// 032   ----------------------------------------
        BYTE   W96
// 033   ----------------------------------------
        BYTE   W96
// 034   ----------------------------------------
        BYTE   W96
// 035   ----------------------------------------
        BYTE   W08
        BYTE                   58
        BYTE           N30     Gn4   v110
        BYTE           N30     Gn5
        BYTE   W36
        BYTE           N05     Fn4
        BYTE           N05     Fn5
        BYTE   W06
        BYTE                   Ds4
        BYTE           N05     Ds5
        BYTE   W06
        BYTE           N14     Dn4
        BYTE           N14     Dn5
        BYTE   W18
        BYTE                   As3
        BYTE           N14     As4
        BYTE   W18
        BYTE           N08     Dn4
        BYTE           N08     Dn5
        BYTE   W04
// 036   ----------------------------------------
        BYTE   W08
        BYTE           N24     Cn4   v110   gtp3
        BYTE                   Cn5
        BYTE   W48
        BYTE           N17     Cn4
        BYTE           N17     Cn5
        BYTE   W18
        BYTE                   Gn3
        BYTE           N17     Gn4
        BYTE   W18
        BYTE           N11     Fn3
        BYTE           N11     Fn4
        BYTE   W04
// 037   ----------------------------------------
        BYTE   W08
        BYTE           TIE     Gn3
        BYTE           TIE     Gn4
        BYTE   W80
        BYTE   W02
        BYTE           VOL     57
        BYTE   W04
        BYTE                   56
        BYTE   W02
// 038   ----------------------------------------
        BYTE   W04
        BYTE                   55
        BYTE   W04
        BYTE                   54
        BYTE   W04
        BYTE                   52
        BYTE   W04
        BYTE                   51
        BYTE   W04
        BYTE                   50
        BYTE   W02
        BYTE                   49
        BYTE   W02
        BYTE                   48
        BYTE   W02
        BYTE                   47
        BYTE   W02
        BYTE                   46
        BYTE   W04
        BYTE                   44
        BYTE   W02
        BYTE                   43
        BYTE   W02
        BYTE                   42
        BYTE   W02
        BYTE                   41
        BYTE   W02
        BYTE                   40
        BYTE   W02
        BYTE                   39
        BYTE   W02
        BYTE                   37
        BYTE   W02
        BYTE                   36
        BYTE   W02
        BYTE                   34
        BYTE   W02
        BYTE                   33
        BYTE   W02
        BYTE                   32
        BYTE   W02
        BYTE                   30
        BYTE   W02
        BYTE                   28
        BYTE   W02
        BYTE                   27
        BYTE   W02
        BYTE                   25
        BYTE   W02
        BYTE                   24
        BYTE   W02
        BYTE                   21
        BYTE   W02
        BYTE                   20
        BYTE   W01
        BYTE           EOT     Gn3
        BYTE                   Gn4
        BYTE   W28
        BYTE   W01
// 039   ----------------------------------------
        BYTE   W06
        BYTE           VOL     58
        BYTE   W02
        BYTE           N30
        BYTE           N30     Gn5
        BYTE   W36
        BYTE           N05     Fn4
        BYTE           N05     Fn5
        BYTE   W06
        BYTE                   Ds4
        BYTE           N05     Ds5
        BYTE   W06
        BYTE           N14     Dn4
        BYTE           N14     Dn5
        BYTE   W18
        BYTE                   As3
        BYTE           N14     As4
        BYTE   W18
        BYTE           N08     Dn4
        BYTE           N08     Dn5
        BYTE   W04
// 040   ----------------------------------------
        BYTE   W08
        BYTE           N24     Cn4   v110   gtp3
        BYTE                   Cn5
        BYTE   W48
        BYTE           N17     Cn4
        BYTE           N17     Cn5
        BYTE   W18
        BYTE                   Gn4
        BYTE           N17     Gn5
        BYTE   W18
        BYTE           N11     Fn4
        BYTE           N11     Fn5
        BYTE   W04
// 041   ----------------------------------------
        BYTE   W08
        BYTE           VOL     55
        BYTE           TIE     Gn4
        BYTE           TIE     Gn5
        BYTE   W12
        BYTE           VOL     54
        BYTE   W09
        BYTE                   53
        BYTE   W03
        BYTE                   52
        BYTE   W06
        BYTE                   51
        BYTE   W12
        BYTE                   50
        BYTE   W09
        BYTE                   49
        BYTE   W06
        BYTE                   48
        BYTE   W12
        BYTE                   47
        BYTE   W06
        BYTE                   46
        BYTE   W12
        BYTE                   45
        BYTE   W01
// 042   ----------------------------------------
        BYTE   W02
        BYTE                   44
        BYTE   W09
        BYTE                   43
        BYTE   W06
        BYTE                   42
        BYTE   W06
        BYTE                   41
        BYTE   W03
        BYTE                   40
        BYTE   W06
        BYTE                   39
        BYTE   W06
        BYTE                   38
        BYTE   W03
        BYTE                   37
        BYTE   W03
        BYTE                   36
        BYTE   W06
        BYTE                   35
        BYTE   W03
        BYTE                   33
        BYTE   W03
        BYTE                   32
        BYTE   W03
        BYTE                   31
        BYTE   W03
        BYTE                   29
        BYTE   W03
        BYTE                   28
        BYTE   W03
        BYTE                   27
        BYTE   W03
        BYTE                   25
        BYTE   W03
        BYTE                   24
        BYTE   W03
        BYTE                   22
        BYTE   W03
        BYTE                   20
        BYTE   W03
        BYTE                   18
        BYTE   W03
        BYTE                   15
        BYTE   W03
        BYTE                   13
        BYTE   W03
        BYTE                   11
        BYTE   W03
        BYTE                   9
        BYTE   W01
// 043   ----------------------------------------
        BYTE   W02
        BYTE                   6
        BYTE   W05
        BYTE           EOT     Gn4
        BYTE                   Gn5
        BYTE   W88
        BYTE   W01
// 044   ----------------------------------------
        BYTE   W08
        BYTE           VOL     58
        BYTE   W88
// 045   ----------------------------------------
        BYTE   W40
        BYTE           VOICE   40
        BYTE   W01
        BYTE           PAN     c_v+56
        BYTE           VOL     20
        BYTE   W54
        BYTE   W01
// 046   ----------------------------------------
        BYTE   W96
// 047   ----------------------------------------
        BYTE   W96
// 048   ----------------------------------------
        BYTE   W96
// 049   ----------------------------------------
        BYTE   W18
        BYTE           PAN     c_v+0
        BYTE   W02
        BYTE                   c_v+54
        BYTE   W48
        BYTE           N44     Dn3   v107   gtp3
        BYTE   W28
// 050   ----------------------------------------
        BYTE   W20
        BYTE                   Ds3
        BYTE   W48
        BYTE                   Fn3
        BYTE   W28
// 051   ----------------------------------------
        BYTE   W20
        BYTE           N80     Gn3   v107   gtp3
        BYTE   W52
        BYTE           VOL     19
        BYTE   W08
        BYTE                   18
        BYTE   W06
        BYTE                   17
        BYTE   W03
        BYTE                   16
        BYTE   W04
        BYTE                   15
        BYTE   W02
        BYTE                   14
        BYTE   W01
// 052   ----------------------------------------
        BYTE   W02
        BYTE                   13
        BYTE   W01
        BYTE                   12
        BYTE   W03
        BYTE                   11
        BYTE   W14
        BYTE                   17
        BYTE           N23
        BYTE   W12
        BYTE           VOL     18
        BYTE   W04
        BYTE                   19
        BYTE   W02
        BYTE                   20
        BYTE   W06
        BYTE           N23     Ds3
        BYTE   W24
        BYTE           N21     As2   v120
        BYTE   W24
        BYTE           N24     Gn3   v105
        BYTE   W03
        BYTE           VOL     19
        BYTE   W01
// 053   ----------------------------------------
        BYTE   W09
        BYTE                   18
        BYTE   W06
        BYTE                   17
        BYTE   W05
        BYTE                   16
        BYTE           N92     Fn3   v103   gtp2
        BYTE   W13
        BYTE           VOL     17
        BYTE   W08
        BYTE                   18
        BYTE   W04
        BYTE                   19
        BYTE   W05
        BYTE                   20
        BYTE   W44
        BYTE   W02
// 054   ----------------------------------------
        BYTE   W03
        BYTE                   19
        BYTE   W11
        BYTE                   18
        BYTE   W06
        BYTE           N84     Dn3
        BYTE   W12
        BYTE           VOL     19
        BYTE   W36
        BYTE                   18
        BYTE   W10
        BYTE                   17
        BYTE   W03
        BYTE                   16
        BYTE   W06
        BYTE                   15
        BYTE   W03
        BYTE                   14
        BYTE   W05
        BYTE                   13
        BYTE   W01
// 055   ----------------------------------------
        BYTE   W03
        BYTE                   12
        BYTE   W03
        BYTE                   11
        BYTE   W03
        BYTE                   10
        BYTE   W08
        BYTE                   18
        BYTE   W03
        BYTE           N44     Ds3   v126   gtp3
        BYTE   W13
        BYTE           VOL     19
        BYTE   W08
        BYTE                   20
        BYTE   W24
        BYTE   W03
        BYTE           N15     Ds3   v127
        BYTE   W16
        BYTE           N19     Cs3   v107
        BYTE   W12
// 056   ----------------------------------------
        BYTE   W08
        BYTE           N11     Ds3   v117
        BYTE   W12
        BYTE           N80     Cn3   v107   gtp2
        BYTE   W56
        BYTE   W02
        BYTE           VOL     19
        BYTE   W08
        BYTE                   18
        BYTE   W04
        BYTE                   17
        BYTE   W03
        BYTE                   16
        BYTE   W03
// 057   ----------------------------------------
        BYTE                   15
        BYTE   W02
        BYTE                   14
        BYTE   W03
        BYTE                   13
        BYTE   W01
        BYTE                   12
        BYTE   W02
        BYTE                   11
        BYTE   W10
        BYTE                   18
        BYTE   W02
        BYTE           N44     Fn3   v126   gtp3
        BYTE   W09
        BYTE           VOL     19
        BYTE   W36
        BYTE   W03
        BYTE           N15     Fn3   v127
        BYTE   W16
        BYTE           N19     Ds3   v107
        BYTE   W12
// 058   ----------------------------------------
        BYTE   W08
        BYTE           N11     Fn3   v117
        BYTE   W12
        BYTE           N92     Dn3   v120   gtp3
        BYTE   W76
// 059   ----------------------------------------
        BYTE   W96
// 060   ----------------------------------------
        BYTE   W96
// 061   ----------------------------------------
        BYTE   W96
// 062   ----------------------------------------
        BYTE   W16
        BYTE           VOICE   73
        BYTE   W01
        BYTE           PAN     c_v+0
        BYTE           VOL     58
        BYTE   W78
        BYTE   W01
// 063   ----------------------------------------
        BYTE   W44
        BYTE   W03
        BYTE           N03     Fn5   v072
        BYTE   W03
        BYTE           N05     Cn6   v040
        BYTE   W06
        BYTE           N44     Fn5   v109   gtp3
        BYTE   W40
// 064   ----------------------------------------
        BYTE   W44
        BYTE   W03
        BYTE           N03     Fn5   v072
        BYTE   W03
        BYTE           N05     Gn5   v081
        BYTE   W06
        BYTE           N44     Fn5   v109   gtp3
        BYTE   W40
// 065   ----------------------------------------
        BYTE   W96
// 066   ----------------------------------------
        BYTE   W96
// 067   ----------------------------------------
        BYTE   W96
// 068   ----------------------------------------
        BYTE   W32
        BYTE           N02     Fn5   v095
        BYTE           N02     Cn6
        BYTE   W03
        BYTE                   Gn5   v056
        BYTE           N02     Dn6
        BYTE   W03
        BYTE                   Fn5   v095
        BYTE           N02     Cn6
        BYTE   W03
        BYTE                   Gn5   v056
        BYTE           N02     Dn6
        BYTE   W03
        BYTE                   Fn5   v095
        BYTE           N02     Cn6
        BYTE   W03
        BYTE                   Gn5   v056
        BYTE           N02     Dn6
        BYTE   W03
        BYTE                   Fn5   v095
        BYTE           N02     Cn6
        BYTE   W03
        BYTE                   Gn5   v056
        BYTE           N02     Dn6
        BYTE   W03
        BYTE           N23     Fn5   v115
        BYTE           N23     Cn6
        BYTE   W24
        BYTE           N01     Fn5   v039
        BYTE           N01     Cn6
        BYTE   W16
// 069   ----------------------------------------
        BYTE   W24
        BYTE   TEMPO   120/2
        BYTE           VOICE   0
        BYTE           VOL     100
        BYTE   GoTo
         POIN2  EndingTheme_0_LOOP
        BYTE   FINE

//****************** Track 1 (Midi-Chn.1) ******************//

EndingTheme_1:
        BYTE   KEYSH   EndingTheme_key+0
// 000   ----------------------------------------
EndingTheme_1_LOOP:
        BYTE   W24
// 001   ----------------------------------------
        BYTE           VOICE   40
        BYTE           VOL     58
        BYTE   W96
// 002   ----------------------------------------
        BYTE   W96
// 003   ----------------------------------------
        BYTE   W96
// 004   ----------------------------------------
        BYTE   W96
// 005   ----------------------------------------
        BYTE   W96
// 006   ----------------------------------------
        BYTE   W96
// 007   ----------------------------------------
        BYTE   W96
// 008   ----------------------------------------
        BYTE   W96
// 009   ----------------------------------------
        BYTE   W96
// 010   ----------------------------------------
        BYTE   W96
// 011   ----------------------------------------
        BYTE   W96
// 012   ----------------------------------------
        BYTE   W96
// 013   ----------------------------------------
        BYTE   W96
// 014   ----------------------------------------
        BYTE   W96
// 015   ----------------------------------------
        BYTE   W96
// 016   ----------------------------------------
        BYTE   W96
// 017   ----------------------------------------
        BYTE   W96
// 018   ----------------------------------------
        BYTE   W96
// 019   ----------------------------------------
        BYTE   W96
// 020   ----------------------------------------
        BYTE   W96
// 021   ----------------------------------------
        BYTE   W96
// 022   ----------------------------------------
        BYTE   W96
// 023   ----------------------------------------
        BYTE   W96
// 024   ----------------------------------------
        BYTE   W96
// 025   ----------------------------------------
        BYTE   W96
// 026   ----------------------------------------
        BYTE   W96
// 027   ----------------------------------------
        BYTE   W96
// 028   ----------------------------------------
        BYTE   W96
// 029   ----------------------------------------
        BYTE   W96
// 030   ----------------------------------------
        BYTE   W96
// 031   ----------------------------------------
        BYTE   W40
        BYTE   W01
        BYTE           PAN     c_v-20
        BYTE           VOL     49
        BYTE   W54
        BYTE   W01
// 032   ----------------------------------------
        BYTE   W80
        BYTE           N16     Gn2   v110
        BYTE   W16
// 033   ----------------------------------------
        BYTE           N08     Gn2   v045
        BYTE   W08
        BYTE           N68     Gn3   v110   gtp3
        BYTE   W72
        BYTE           N12     Gn3   v055
        BYTE   W12
        BYTE                   Gn3   v027
        BYTE   W04
// 034   ----------------------------------------
        BYTE   W08
        BYTE           N28     Gn3   v110
        BYTE   W28
        BYTE           N08     Gn3   v044
        BYTE   W08
        BYTE           N05     Fn3   v124
        BYTE   W06
        BYTE                   Ds3
        BYTE   W06
        BYTE           N14     Dn3   v110
        BYTE   W18
        BYTE                   As2
        BYTE   W18
        BYTE           N08     Dn3
        BYTE   W04
// 035   ----------------------------------------
        BYTE   W08
        BYTE           TIE     Cn3
        BYTE   W60
        BYTE           VOL     48
        BYTE   W06
        BYTE                   47
        BYTE   W09
        BYTE                   46
        BYTE   W03
        BYTE                   45
        BYTE   W03
        BYTE                   44
        BYTE   W06
        BYTE                   43
        BYTE   W01
// 036   ----------------------------------------
        BYTE   W02
        BYTE                   42
        BYTE   W03
        BYTE                   41
        BYTE   W03
        BYTE                   40
        BYTE   W03
        BYTE                   39
        BYTE   W03
        BYTE                   38
        BYTE   W03
        BYTE                   36
        BYTE   W03
        BYTE                   35
        BYTE   W03
        BYTE                   33
        BYTE   W03
        BYTE                   32
        BYTE   W03
        BYTE                   31
        BYTE   W03
        BYTE                   29
        BYTE   W03
        BYTE                   28
        BYTE   W03
        BYTE                   26
        BYTE   W03
        BYTE                   24
        BYTE   W03
        BYTE                   22
        BYTE   W03
        BYTE                   21
        BYTE   W03
        BYTE                   19
        BYTE   W03
        BYTE                   16
        BYTE   W02
        BYTE           EOT
        BYTE   W01
        BYTE           VOL     15
        BYTE   W24
        BYTE                   47
        BYTE           N16
        BYTE   W03
        BYTE           VOL     49
        BYTE   W13
// 037   ----------------------------------------
        BYTE           N08     Cn3   v054
        BYTE   W08
        BYTE           N68     Gn3   v110   gtp3
        BYTE   W72
        BYTE           N12     Gn3   v055
        BYTE   W12
        BYTE                   Gn3   v032
        BYTE   W04
// 038   ----------------------------------------
        BYTE   W08
        BYTE           N30     Gn3   v110
        BYTE   W30
        BYTE           N06     Gn3   v050
        BYTE   W06
        BYTE           N05     Fn3   v124
        BYTE   W06
        BYTE                   Ds3
        BYTE   W06
        BYTE           N12     Dn3   v110
        BYTE   W12
        BYTE           N06     Dn3   v079
        BYTE   W06
        BYTE           N12     As2   v110
        BYTE   W12
        BYTE           N06     As2   v078
        BYTE   W06
        BYTE                   Dn3   v110
        BYTE   W04
// 039   ----------------------------------------
        BYTE   W02
        BYTE                   Dn3   v069
        BYTE   W06
        BYTE           TIE     Cn3   v110
        BYTE   W44
        BYTE   W01
        BYTE           VOL     48
        BYTE   W06
        BYTE                   47
        BYTE   W09
        BYTE                   46
        BYTE   W03
        BYTE                   44
        BYTE   W06
        BYTE                   42
        BYTE   W03
        BYTE                   41
        BYTE   W03
        BYTE                   40
        BYTE   W03
        BYTE                   38
        BYTE   W03
        BYTE                   37
        BYTE   W03
        BYTE                   35
        BYTE   W03
        BYTE                   33
        BYTE   W01
// 040   ----------------------------------------
        BYTE   W02
        BYTE                   32
        BYTE   W03
        BYTE                   30
        BYTE   W03
        BYTE                   27
        BYTE   W03
        BYTE                   25
        BYTE   W03
        BYTE                   23
        BYTE   W03
        BYTE                   21
        BYTE   W03
        BYTE                   18
        BYTE   W11
        BYTE           EOT
        BYTE   W22
        BYTE           VOL     47
        BYTE   W03
        BYTE           N17
        BYTE   W03
        BYTE           VOL     48
        BYTE   W15
        BYTE           N17     Gn3
        BYTE   W18
        BYTE           N11     Fn3
        BYTE   W04
// 041   ----------------------------------------
        BYTE   W08
        BYTE           VOL     47
        BYTE           TIE     Gn3
        BYTE   W12
        BYTE           VOL     46
        BYTE   W09
        BYTE                   45
        BYTE   W06
        BYTE                   44
        BYTE   W12
        BYTE                   43
        BYTE   W06
        BYTE                   42
        BYTE   W12
        BYTE                   41
        BYTE   W12
        BYTE                   40
        BYTE   W06
        BYTE                   39
        BYTE   W12
        BYTE                   38
        BYTE   W01
// 042   ----------------------------------------
EndingTheme_1_42:
        BYTE   W05
        BYTE           VOL     37
        BYTE   W12
        BYTE                   36
        BYTE   W06
        BYTE                   35
        BYTE   W03
        BYTE                   34
        BYTE   W06
        BYTE                   33
        BYTE   W06
        BYTE                   32
        BYTE   W06
        BYTE                   31
        BYTE   W06
        BYTE                   30
        BYTE   W03
        BYTE                   28
        BYTE   W03
        BYTE                   27
        BYTE   W03
        BYTE                   26
        BYTE   W03
        BYTE                   25
        BYTE   W03
        BYTE                   24
        BYTE   W03
        BYTE                   23
        BYTE   W03
        BYTE                   21
        BYTE   W06
        BYTE                   19
        BYTE   W03
        BYTE                   17
        BYTE   W03
        BYTE                   15
        BYTE   W03
        BYTE                   13
        BYTE   W03
        BYTE                   11
        BYTE   W03
        BYTE                   9
        BYTE   W03
        BYTE                   7
        BYTE   W01
        BYTE   PEND
// 043   ----------------------------------------
        BYTE   W02
        BYTE                   5
        BYTE   W05
        BYTE           EOT     Gn3
        BYTE   W88
        BYTE   W01
// 044   ----------------------------------------
        BYTE   W08
        BYTE           VOL     49
        BYTE   W88
// 045   ----------------------------------------
        BYTE   W96
// 046   ----------------------------------------
        BYTE   W96
// 047   ----------------------------------------
        BYTE   W96
// 048   ----------------------------------------
        BYTE   W96
// 049   ----------------------------------------
        BYTE   W96
// 050   ----------------------------------------
        BYTE   W96
// 051   ----------------------------------------
        BYTE   W96
// 052   ----------------------------------------
        BYTE   W96
// 053   ----------------------------------------
        BYTE   W96
// 054   ----------------------------------------
        BYTE   W96
// 055   ----------------------------------------
        BYTE   W96
// 056   ----------------------------------------
        BYTE   W96
// 057   ----------------------------------------
        BYTE   W88
        BYTE           VOICE   48
        BYTE   W01
        BYTE           PAN     c_v-40
        BYTE           VOL     54
        BYTE   W07
// 058   ----------------------------------------
        BYTE   W32
        BYTE           N23     Gn4   v101
        BYTE   W24
        BYTE                   Gs4
        BYTE   W24
        BYTE                   As4
        BYTE   W16
// 059   ----------------------------------------
        BYTE   W08
        BYTE           N72     Cn5   v102
        BYTE   W42
        BYTE           VOL     53
        BYTE   W12
        BYTE                   52
        BYTE   W03
        BYTE                   51
        BYTE   W06
        BYTE                   50
        BYTE   W03
        BYTE                   49
        BYTE   W03
        BYTE                   48
        BYTE   W03
        BYTE                   47
        BYTE           N12     Cn5   v092
        BYTE   W03
        BYTE           VOL     46
        BYTE   W03
        BYTE                   44
        BYTE   W03
        BYTE                   42
        BYTE   W03
        BYTE                   41
        BYTE           N12     Cn5   v081
        BYTE   W03
        BYTE           VOL     39
        BYTE   W01
// 060   ----------------------------------------
        BYTE   W02
        BYTE                   37
        BYTE   W03
        BYTE                   35
        BYTE   W03
        BYTE                   54
        BYTE           N24     Cn5   v101
        BYTE   W24
        BYTE           N23     Gs4
        BYTE   W24
        BYTE                   Ds4
        BYTE   W24
        BYTE                   Cn5
        BYTE   W16
// 061   ----------------------------------------
        BYTE   W08
        BYTE           N72     As4   v100
        BYTE   W24
        BYTE           VOL     52
        BYTE   W21
        BYTE                   51
        BYTE   W15
        BYTE                   50
        BYTE   W06
        BYTE                   49
        BYTE   W06
        BYTE                   48
        BYTE           N24     As4   v077
        BYTE   W09
        BYTE           VOL     47
        BYTE   W06
        BYTE                   46
        BYTE   W01
// 062   ----------------------------------------
        BYTE   W02
        BYTE                   45
        BYTE   W06
        BYTE                   48
        BYTE           N32     Ds5   v103   gtp3
        BYTE   W09
        BYTE           VOL     49
        BYTE   W06
        BYTE                   50
        BYTE   W06
        BYTE                   51
        BYTE   W03
        BYTE                   52
        BYTE   W03
        BYTE                   53
        BYTE   W03
        BYTE                   54
        BYTE   W06
        BYTE           N12     Ds5   v077
        BYTE   W12
        BYTE           N32     Gn5   v103   gtp3
        BYTE   W36
        BYTE           N12     Gn5   v075
        BYTE   W04
// 063   ----------------------------------------
        BYTE   W08
        BYTE           N68     Fn5   v101   gtp3
        BYTE   W72
        BYTE           N24     Fn5   v073
        BYTE   W16
// 064   ----------------------------------------
        BYTE   W08
        BYTE           N11     Fn5   v107
        BYTE   W12
        BYTE                   Fn5   v067
        BYTE   W12
        BYTE                   Cn5   v107
        BYTE   W12
        BYTE                   Cn5   v066
        BYTE   W12
        BYTE                   Ds5   v106
        BYTE   W12
        BYTE                   Ds5   v066
        BYTE   W12
        BYTE                   Gn5   v105
        BYTE   W12
        BYTE                   Gn5   v066
        BYTE   W04
// 065   ----------------------------------------
        BYTE   W08
        BYTE           TIE     Fn5   v106
        BYTE   W66
        BYTE           VOL     52
        BYTE   W22
// 066   ----------------------------------------
        BYTE   W14
        BYTE                   51
        BYTE   W24
        BYTE   W03
        BYTE                   50
        BYTE   W15
        BYTE                   49
        BYTE   W09
        BYTE                   48
        BYTE   W15
        BYTE                   47
        BYTE   W09
        BYTE                   46
        BYTE   W07
// 067   ----------------------------------------
        BYTE   W02
        BYTE                   45
        BYTE   W12
        BYTE                   44
        BYTE   W06
        BYTE                   43
        BYTE   W06
        BYTE                   42
        BYTE   W09
        BYTE                   41
        BYTE   W06
        BYTE                   40
        BYTE   W06
        BYTE                   39
        BYTE   W09
        BYTE                   38
        BYTE   W06
        BYTE                   37
        BYTE   W03
        BYTE                   36
        BYTE   W09
        BYTE                   35
        BYTE   W03
        BYTE                   34
        BYTE   W06
        BYTE                   33
        BYTE   W06
        BYTE                   32
        BYTE   W06
        BYTE                   31
        BYTE   W01
// 068   ----------------------------------------
        BYTE   W07
        BYTE           EOT
        BYTE   W88
        BYTE   W01
// 069   ----------------------------------------
        BYTE   W24
        BYTE           VOICE   0
        BYTE           VOL     100
        BYTE           PAN     c_v+0
        BYTE   GoTo
         POIN2  EndingTheme_1_LOOP
        BYTE   FINE

//****************** Track 2 (Midi-Chn.2) ******************//

EndingTheme_2:
        BYTE   KEYSH   EndingTheme_key+0
// 000   ----------------------------------------
EndingTheme_2_LOOP:
        BYTE   W24
// 001   ----------------------------------------
        BYTE           VOICE   40
        BYTE           PAN     c_v+15
        BYTE           VOL     49
        BYTE   W96
// 002   ----------------------------------------
        BYTE   W96
// 003   ----------------------------------------
        BYTE   W96
// 004   ----------------------------------------
        BYTE   W96
// 005   ----------------------------------------
        BYTE   W96
// 006   ----------------------------------------
        BYTE   W96
// 007   ----------------------------------------
        BYTE   W96
// 008   ----------------------------------------
        BYTE   W96
// 009   ----------------------------------------
        BYTE   W96
// 010   ----------------------------------------
        BYTE   W96
// 011   ----------------------------------------
        BYTE   W96
// 012   ----------------------------------------
        BYTE   W96
// 013   ----------------------------------------
        BYTE   W96
// 014   ----------------------------------------
        BYTE   W96
// 015   ----------------------------------------
        BYTE   W96
// 016   ----------------------------------------
        BYTE   W96
// 017   ----------------------------------------
        BYTE   W96
// 018   ----------------------------------------
        BYTE   W96
// 019   ----------------------------------------
        BYTE   W96
// 020   ----------------------------------------
        BYTE   W96
// 021   ----------------------------------------
        BYTE   W96
// 022   ----------------------------------------
        BYTE   W96
// 023   ----------------------------------------
        BYTE   W96
// 024   ----------------------------------------
        BYTE   W96
// 025   ----------------------------------------
        BYTE   W96
// 026   ----------------------------------------
        BYTE   W96
// 027   ----------------------------------------
        BYTE   W96
// 028   ----------------------------------------
        BYTE   W96
// 029   ----------------------------------------
        BYTE   W96
// 030   ----------------------------------------
        BYTE   W96
// 031   ----------------------------------------
        BYTE   W40
        BYTE   W01
        BYTE           PAN     c_v+20
        BYTE   W54
        BYTE   W01
// 032   ----------------------------------------
        BYTE   W80
        BYTE           N11     Gn3   v110
        BYTE   W16
// 033   ----------------------------------------
        BYTE           N07     Gn3   v055
        BYTE   W08
        BYTE           N68     Gn4   v110   gtp3
        BYTE   W72
        BYTE           N12     Gn4   v055
        BYTE   W16
// 034   ----------------------------------------
        BYTE   W08
        BYTE           N30     Gn4   v110
        BYTE   W36
        BYTE           N05     Fn4   v127
        BYTE   W06
        BYTE                   Ds4
        BYTE   W06
        BYTE           N14     Dn4   v110
        BYTE   W18
        BYTE                   As3
        BYTE   W18
        BYTE           N08     Dn4
        BYTE   W04
// 035   ----------------------------------------
        BYTE   W08
        BYTE           TIE     Cn4
        BYTE   W36
        BYTE           VOL     47
        BYTE   W24
        BYTE                   46
        BYTE   W04
        BYTE                   45
        BYTE   W05
        BYTE                   44
        BYTE   W06
        BYTE                   43
        BYTE   W04
        BYTE                   42
        BYTE   W05
        BYTE                   41
        BYTE   W03
        BYTE                   40
        BYTE   W01
// 036   ----------------------------------------
        BYTE   W02
        BYTE                   39
        BYTE   W04
        BYTE                   38
        BYTE   W02
        BYTE                   37
        BYTE   W03
        BYTE                   36
        BYTE   W04
        BYTE                   35
        BYTE   W02
        BYTE                   34
        BYTE   W01
        BYTE                   33
        BYTE   W03
        BYTE                   32
        BYTE   W03
        BYTE                   31
        BYTE   W03
        BYTE                   30
        BYTE   W02
        BYTE                   29
        BYTE   W01
        BYTE                   28
        BYTE   W03
        BYTE                   27
        BYTE   W02
        BYTE                   26
        BYTE   W03
        BYTE                   25
        BYTE   W01
        BYTE                   24
        BYTE   W02
        BYTE                   23
        BYTE   W01
        BYTE                   22
        BYTE   W02
        BYTE                   21
        BYTE   W03
        BYTE                   20
        BYTE   W01
        BYTE                   19
        BYTE   W02
        BYTE                   18
        BYTE   W01
        BYTE                   17
        BYTE   W02
        BYTE                   16
        BYTE   W02
        BYTE           EOT
        BYTE   W01
        BYTE           VOL     15
        BYTE   W01
        BYTE                   14
        BYTE   W02
        BYTE                   13
        BYTE   W18
        BYTE                   49
        BYTE   W03
        BYTE           N23
        BYTE   W16
// 037   ----------------------------------------
        BYTE   W08
        BYTE           N68     Gn4   v110   gtp3
        BYTE   W72
        BYTE           N12     Gn4   v055
        BYTE   W16
// 038   ----------------------------------------
        BYTE   W08
        BYTE           N30     Gn4   v110
        BYTE   W36
        BYTE           N05     Fn4   v126
        BYTE   W06
        BYTE                   Ds4   v127
        BYTE   W06
        BYTE           N14     Dn4   v109
        BYTE   W18
        BYTE                   As3   v110
        BYTE   W18
        BYTE           N08     Dn4
        BYTE   W04
// 039   ----------------------------------------
        BYTE   W08
        BYTE           TIE     Cn4
        BYTE   W56
        BYTE   W02
        BYTE           VOL     48
        BYTE   W05
        BYTE                   47
        BYTE   W07
        BYTE                   46
        BYTE   W03
        BYTE                   45
        BYTE   W03
        BYTE                   44
        BYTE   W03
        BYTE                   43
        BYTE   W02
        BYTE                   42
        BYTE   W03
        BYTE                   41
        BYTE   W03
        BYTE                   40
        BYTE   W01
// 040   ----------------------------------------
        BYTE                   39
        BYTE   W03
        BYTE                   38
        BYTE   W02
        BYTE                   37
        BYTE   W03
        BYTE                   36
        BYTE   W01
        BYTE                   35
        BYTE   W02
        BYTE                   34
        BYTE   W01
        BYTE                   33
        BYTE   W02
        BYTE                   32
        BYTE   W03
        BYTE                   31
        BYTE   W01
        BYTE                   30
        BYTE   W02
        BYTE                   28
        BYTE   W01
        BYTE                   27
        BYTE   W02
        BYTE                   26
        BYTE   W03
        BYTE                   24
        BYTE   W01
        BYTE                   23
        BYTE   W02
        BYTE                   22
        BYTE   W01
        BYTE                   21
        BYTE   W01
        BYTE           EOT
        BYTE   W01
        BYTE           VOL     20
        BYTE   W01
        BYTE                   18
        BYTE   W02
        BYTE                   17
        BYTE   W01
        BYTE                   16
        BYTE   W02
        BYTE                   15
        BYTE   W01
        BYTE                   13
        BYTE   W02
        BYTE                   12
        BYTE   W01
        BYTE                   11
        BYTE   W02
        BYTE                   9
        BYTE   W01
        BYTE                   8
        BYTE   W11
        BYTE           N17
        BYTE   W01
        BYTE           VOL     48
        BYTE   W14
        BYTE                   49
        BYTE   W03
        BYTE           N17     Gn4
        BYTE   W18
        BYTE           N11     Fn4
        BYTE   W04
// 041   ----------------------------------------
        BYTE   W08
        BYTE           VOL     47
        BYTE           TIE     Gn4
        BYTE   W12
        BYTE           VOL     46
        BYTE   W09
        BYTE                   45
        BYTE   W06
        BYTE                   44
        BYTE   W12
        BYTE                   43
        BYTE   W06
        BYTE                   42
        BYTE   W12
        BYTE                   41
        BYTE   W12
        BYTE                   40
        BYTE   W06
        BYTE                   39
        BYTE   W12
        BYTE                   38
        BYTE   W01
// 042   ----------------------------------------
        BYTE   PATT
         POIN2  EndingTheme_1_42
// 043   ----------------------------------------
        BYTE   W02
        BYTE           VOL     5
        BYTE   W05
        BYTE           EOT     Gn4
        BYTE   W88
        BYTE   W01
// 044   ----------------------------------------
        BYTE   W08
        BYTE           VOL     49
        BYTE   W88
// 045   ----------------------------------------
        BYTE   W96
// 046   ----------------------------------------
        BYTE   W96
// 047   ----------------------------------------
        BYTE   W96
// 048   ----------------------------------------
        BYTE   W96
// 049   ----------------------------------------
        BYTE   W96
// 050   ----------------------------------------
        BYTE   W96
// 051   ----------------------------------------
        BYTE   W96
// 052   ----------------------------------------
        BYTE   W96
// 053   ----------------------------------------
        BYTE   W96
// 054   ----------------------------------------
        BYTE   W96
// 055   ----------------------------------------
        BYTE   W96
// 056   ----------------------------------------
        BYTE   W96
// 057   ----------------------------------------
        BYTE   W88
        BYTE           VOICE   48
        BYTE   W01
        BYTE           PAN     c_v+40
        BYTE           VOL     54
        BYTE   W07
// 058   ----------------------------------------
        BYTE   W32
        BYTE           N23     Gn3   v090
        BYTE   W24
        BYTE                   Gs3
        BYTE   W24
        BYTE                   As3
        BYTE   W16
// 059   ----------------------------------------
        BYTE   W08
        BYTE           N72     Cn4
        BYTE   W72
        BYTE           N12     Cn4   v066
        BYTE   W12
        BYTE                   Cn4   v047
        BYTE   W04
// 060   ----------------------------------------
        BYTE   W08
        BYTE           N24     Cn4   v090
        BYTE   W24
        BYTE           N23     Gs3
        BYTE   W24
        BYTE                   Ds3
        BYTE   W24
        BYTE           N24     Cn4
        BYTE   W16
// 061   ----------------------------------------
        BYTE   W08
        BYTE           N72     As3   v089
        BYTE   W72
        BYTE           N24     As3   v059
        BYTE   W16
// 062   ----------------------------------------
        BYTE   W08
        BYTE           N32     Ds4   v087   gtp3
        BYTE   W36
        BYTE           N12     Ds4   v059
        BYTE   W12
        BYTE           N32     Gn4   v088   gtp3
        BYTE   W36
        BYTE           N12     Gn4   v056
        BYTE   W04
// 063   ----------------------------------------
        BYTE   W08
        BYTE           N68     Fn4   v089   gtp3
        BYTE   W72
        BYTE           N24     Fn4   v057
        BYTE   W16
// 064   ----------------------------------------
        BYTE   W08
        BYTE           N11     Fn4   v092
        BYTE   W12
        BYTE                   Fn4   v057
        BYTE   W12
        BYTE                   Cn4   v092
        BYTE   W12
        BYTE                   Cn4   v059
        BYTE   W12
        BYTE                   Ds4   v093
        BYTE   W12
        BYTE                   Ds4   v059
        BYTE   W12
        BYTE                   Gn4   v093
        BYTE   W12
        BYTE                   Gn4   v057
        BYTE   W04
// 065   ----------------------------------------
        BYTE   W08
        BYTE           TIE     Fn4   v094
        BYTE   W56
        BYTE   W01
        BYTE           VOL     53
        BYTE   W30
        BYTE   W01
// 066   ----------------------------------------
        BYTE   W17
        BYTE                   52
        BYTE   W21
        BYTE                   51
        BYTE   W21
        BYTE                   50
        BYTE   W12
        BYTE                   49
        BYTE   W12
        BYTE                   48
        BYTE   W12
        BYTE                   47
        BYTE   W01
// 067   ----------------------------------------
        BYTE   W11
        BYTE                   46
        BYTE   W09
        BYTE                   45
        BYTE   W09
        BYTE                   44
        BYTE   W09
        BYTE                   43
        BYTE   W06
        BYTE                   42
        BYTE   W09
        BYTE                   41
        BYTE   W06
        BYTE                   40
        BYTE   W09
        BYTE                   39
        BYTE   W09
        BYTE                   38
        BYTE   W03
        BYTE                   37
        BYTE   W06
        BYTE                   36
        BYTE   W09
        BYTE                   35
        BYTE   W01
// 068   ----------------------------------------
        BYTE   W02
        BYTE                   34
        BYTE   W05
        BYTE           EOT
        BYTE   W88
        BYTE   W01
// 069   ----------------------------------------
        BYTE   W24
        BYTE           VOICE   0
        BYTE           VOL     100
        BYTE           PAN     c_v+0
        BYTE   GoTo
         POIN2  EndingTheme_2_LOOP
        BYTE   FINE

//****************** Track 3 (Midi-Chn.3) ******************//

EndingTheme_3:
        BYTE   KEYSH   EndingTheme_key+0
// 000   ----------------------------------------
EndingTheme_3_LOOP:
        BYTE   W24
// 001   ----------------------------------------
        BYTE           VOICE   40
        BYTE           PAN     c_v-15
        BYTE           VOL     48
        BYTE   W08
        BYTE           N16     Gn2   v106
        BYTE   W16
        BYTE           N08     Gn2   v050
        BYTE   W08
        BYTE           N16     Cn3   v106
        BYTE   W16
        BYTE           N08     Cn3   v050
        BYTE   W08
        BYTE           N16     Dn3   v106
        BYTE   W16
        BYTE           N08     Dn3   v050
        BYTE   W08
        BYTE           N16     Fn3   v106
        BYTE   W16
// 002   ----------------------------------------
EndingTheme_3_2:
        BYTE           N08     Fn3   v050
        BYTE   W08
        BYTE           N32     En3   v106
        BYTE   W32
        BYTE           N08     En3   v050
        BYTE   W08
        BYTE                   Cn3   v106
        BYTE   W08
        BYTE           N16     Gn3
        BYTE   W16
        BYTE           N08     Gn3   v050
        BYTE   W08
        BYTE                   Gn3   v106
        BYTE   W08
        BYTE                   Fn3
        BYTE   W08
        BYTE   PEND
// 003   ----------------------------------------
EndingTheme_3_3:
        BYTE           N08     En3   v106
        BYTE   W08
        BYTE           TIE     Dn3
        BYTE   W64
        BYTE           VOL     47
        BYTE   W16
        BYTE                   46
        BYTE   W08
        BYTE   PEND
// 004   ----------------------------------------
EndingTheme_3_4:
        BYTE   W08
        BYTE           VOL     45
        BYTE   W08
        BYTE                   44
        BYTE   W08
        BYTE                   42
        BYTE   W08
        BYTE                   41
        BYTE   W08
        BYTE                   39
        BYTE   W08
        BYTE                   37
        BYTE   W08
        BYTE                   34
        BYTE   W08
        BYTE                   32
        BYTE   W08
        BYTE                   28
        BYTE   W06
        BYTE           EOT     Dn3
        BYTE   W02
        BYTE           VOL     25
        BYTE   W16
        BYTE   PEND
// 005   ----------------------------------------
EndingTheme_3_5:
        BYTE   W08
        BYTE           VOL     48
        BYTE           N16     Gn2   v106
        BYTE   W16
        BYTE           N08     Gn2   v050
        BYTE   W08
        BYTE           N16     Cn3   v106
        BYTE   W16
        BYTE           N08     Cn3   v050
        BYTE   W08
        BYTE           N16     Dn3   v106
        BYTE   W16
        BYTE           N08     Dn3   v050
        BYTE   W08
        BYTE           N16     Fn3   v106
        BYTE   W16
        BYTE   PEND
// 006   ----------------------------------------
        BYTE   PATT
         POIN2  EndingTheme_3_2
// 007   ----------------------------------------
EndingTheme_3_7:
        BYTE           N08     En3   v106
        BYTE   W08
        BYTE           TIE     Dn3
        BYTE   W88
        BYTE   PEND
// 008   ----------------------------------------
EndingTheme_3_8:
        BYTE           VOL     47
        BYTE   W08
        BYTE                   46
        BYTE   W08
        BYTE                   45
        BYTE   W08
        BYTE                   44
        BYTE   W08
        BYTE                   42
        BYTE   W08
        BYTE                   40
        BYTE   W08
        BYTE                   38
        BYTE   W08
        BYTE                   36
        BYTE   W08
        BYTE                   33
        BYTE   W08
        BYTE                   30
        BYTE   W06
        BYTE           EOT     Dn3
        BYTE   W18
        BYTE   PEND
// 009   ----------------------------------------
        BYTE   W96
// 010   ----------------------------------------
        BYTE   W96
// 011   ----------------------------------------
        BYTE   W96
// 012   ----------------------------------------
        BYTE   W96
// 013   ----------------------------------------
        BYTE   W96
// 014   ----------------------------------------
        BYTE   W96
// 015   ----------------------------------------
        BYTE   W96
// 016   ----------------------------------------
        BYTE   W96
// 017   ----------------------------------------
        BYTE   W08
        BYTE           N16     Gn2   v106
        BYTE   W16
        BYTE           N08     Gn2   v050
        BYTE   W08
        BYTE           N16     Cn3   v106
        BYTE   W16
        BYTE           N08     Cn3   v050
        BYTE   W08
        BYTE           N16     Dn3   v106
        BYTE   W16
        BYTE           N08     Dn3   v050
        BYTE   W08
        BYTE           N16     Fn3   v106
        BYTE   W16
// 018   ----------------------------------------
        BYTE   PATT
         POIN2  EndingTheme_3_2
// 019   ----------------------------------------
        BYTE   PATT
         POIN2  EndingTheme_3_3
// 020   ----------------------------------------
        BYTE   PATT
         POIN2  EndingTheme_3_4
// 021   ----------------------------------------
        BYTE   PATT
         POIN2  EndingTheme_3_5
// 022   ----------------------------------------
        BYTE   PATT
         POIN2  EndingTheme_3_2
// 023   ----------------------------------------
        BYTE   PATT
         POIN2  EndingTheme_3_7
// 024   ----------------------------------------
        BYTE   PATT
         POIN2  EndingTheme_3_8
// 025   ----------------------------------------
        BYTE   W96
// 026   ----------------------------------------
        BYTE   W96
// 027   ----------------------------------------
        BYTE   W96
// 028   ----------------------------------------
        BYTE   W40
        BYTE   W01
        BYTE           VOL     48
        BYTE   W54
        BYTE   W01
// 029   ----------------------------------------
        BYTE   W96
// 030   ----------------------------------------
        BYTE   W08
        BYTE           N12     Fn3   v111
        BYTE   W12
        BYTE                   Fn3   v047
        BYTE   W12
        BYTE                   As3   v095
        BYTE   W12
        BYTE                   As3   v049
        BYTE   W12
        BYTE                   Cn4   v095
        BYTE   W12
        BYTE                   Cn4   v048
        BYTE   W12
        BYTE                   Ds4   v070
        BYTE   W12
        BYTE                   Ds4   v043
        BYTE   W04
// 031   ----------------------------------------
        BYTE   W08
        BYTE           N48     Dn4   v101
        BYTE   W48
        BYTE           N24     Dn4   v036
        BYTE   W24
        BYTE           N12     As3   v085
        BYTE   W12
        BYTE                   As3   v039
        BYTE   W04
// 032   ----------------------------------------
        BYTE   W08
        BYTE           N24     Fn4   v101
        BYTE   W24
        BYTE           N12     Fn4   v050
        BYTE   W12
        BYTE           N24     Ds4   v101
        BYTE   W24
        BYTE           N12     Ds4   v050
        BYTE   W12
        BYTE                   Dn4   v101
        BYTE   W12
        BYTE                   Dn4   v050
        BYTE   W04
// 033   ----------------------------------------
        BYTE   W08
        BYTE           TIE     Cn4   v106
        BYTE   W88
// 034   ----------------------------------------
        BYTE   W02
        BYTE           VOL     46
        BYTE   W06
        BYTE                   45
        BYTE   W12
        BYTE                   43
        BYTE   W06
        BYTE                   41
        BYTE   W06
        BYTE                   40
        BYTE   W06
        BYTE                   37
        BYTE   W06
        BYTE                   35
        BYTE   W06
        BYTE                   32
        BYTE   W06
        BYTE                   30
        BYTE   W06
        BYTE                   26
        BYTE   W06
        BYTE                   22
        BYTE   W06
        BYTE                   19
        BYTE   W04
        BYTE           EOT
        BYTE   W02
        BYTE           VOL     15
        BYTE   W16
// 035   ----------------------------------------
        BYTE   W96
// 036   ----------------------------------------
        BYTE   W96
// 037   ----------------------------------------
        BYTE   W96
// 038   ----------------------------------------
        BYTE   W96
// 039   ----------------------------------------
        BYTE   W96
// 040   ----------------------------------------
        BYTE   W96
// 041   ----------------------------------------
        BYTE   W96
// 042   ----------------------------------------
        BYTE   W96
// 043   ----------------------------------------
        BYTE   W96
// 044   ----------------------------------------
        BYTE   W96
// 045   ----------------------------------------
        BYTE   W96
// 046   ----------------------------------------
        BYTE   W96
// 047   ----------------------------------------
        BYTE   W96
// 048   ----------------------------------------
        BYTE   W96
// 049   ----------------------------------------
        BYTE   W06
        BYTE           PAN     c_v+0
        BYTE           VOL     48
        BYTE   W48
        BYTE   W02
        BYTE           N44     Dn3   v107   gtp3
        BYTE   W40
// 050   ----------------------------------------
        BYTE   W08
        BYTE                   Ds3
        BYTE   W48
        BYTE                   Fn3
        BYTE   W40
// 051   ----------------------------------------
        BYTE   W08
        BYTE           N80     Gn3   v107   gtp3
        BYTE   W52
        BYTE           VOL     46
        BYTE   W06
        BYTE                   45
        BYTE   W05
        BYTE                   44
        BYTE   W01
        BYTE                   43
        BYTE   W02
        BYTE                   42
        BYTE   W01
        BYTE                   41
        BYTE   W02
        BYTE                   40
        BYTE   W01
        BYTE                   39
        BYTE   W02
        BYTE                   38
        BYTE   W01
        BYTE                   37
        BYTE   W02
        BYTE                   35
        BYTE   W01
        BYTE                   34
        BYTE   W02
        BYTE                   32
        BYTE   W01
        BYTE                   30
        BYTE   W02
        BYTE                   28
        BYTE   W01
        BYTE                   26
        BYTE   W06
// 052   ----------------------------------------
        BYTE   W08
        BYTE                   41
        BYTE           N23
        BYTE   W07
        BYTE           VOL     42
        BYTE   W05
        BYTE                   43
        BYTE   W01
        BYTE                   44
        BYTE   W02
        BYTE                   45
        BYTE   W03
        BYTE                   48
        BYTE   W06
        BYTE           N23     Ds3
        BYTE   W24
        BYTE           N21     As2   v120
        BYTE   W24
        BYTE           N24     Gn3   v105
        BYTE   W03
        BYTE           VOL     47
        BYTE   W06
        BYTE                   46
        BYTE   W03
        BYTE                   45
        BYTE   W04
// 053   ----------------------------------------
        BYTE                   44
        BYTE   W02
        BYTE                   43
        BYTE   W01
        BYTE                   42
        BYTE   W02
        BYTE                   41
        BYTE   W03
        BYTE                   38
        BYTE           N92     Fn3   v103   gtp2
        BYTE   W01
        BYTE           VOL     39
        BYTE   W08
        BYTE                   40
        BYTE   W04
        BYTE                   41
        BYTE   W05
        BYTE                   42
        BYTE   W03
        BYTE                   43
        BYTE   W01
        BYTE                   44
        BYTE   W02
        BYTE                   45
        BYTE   W03
        BYTE                   46
        BYTE   W01
        BYTE                   47
        BYTE   W02
        BYTE                   48
        BYTE   W21
        BYTE                   47
        BYTE   W01
        BYTE                   46
        BYTE   W02
        BYTE                   45
        BYTE   W03
        BYTE                   44
        BYTE   W03
        BYTE                   43
        BYTE   W01
        BYTE                   42
        BYTE   W02
        BYTE                   41
        BYTE   W03
        BYTE                   40
        BYTE   W03
        BYTE                   39
        BYTE   W01
        BYTE                   38
        BYTE   W02
        BYTE                   37
        BYTE   W03
        BYTE                   36
        BYTE   W01
        BYTE                   35
        BYTE   W03
        BYTE                   34
        BYTE   W03
        BYTE                   33
        BYTE   W02
        BYTE                   32
        BYTE   W03
        BYTE                   31
        BYTE   W01
// 054   ----------------------------------------
        BYTE                   30
        BYTE   W03
        BYTE                   29
        BYTE   W02
        BYTE                   28
        BYTE   W01
        BYTE                   27
        BYTE   W02
        BYTE                   43
        BYTE           N92     Dn3   v103   gtp1
        BYTE   W06
        BYTE           VOL     44
        BYTE   W03
        BYTE                   45
        BYTE   W04
        BYTE                   46
        BYTE   W02
        BYTE                   47
        BYTE   W24
        BYTE   W03
        BYTE                   46
        BYTE   W06
        BYTE                   45
        BYTE   W06
        BYTE                   44
        BYTE   W01
        BYTE                   43
        BYTE   W02
        BYTE                   42
        BYTE   W01
        BYTE                   41
        BYTE   W03
        BYTE                   40
        BYTE   W02
        BYTE                   39
        BYTE   W01
        BYTE                   38
        BYTE   W02
        BYTE                   37
        BYTE   W03
        BYTE                   35
        BYTE   W03
        BYTE                   34
        BYTE   W01
        BYTE                   33
        BYTE   W02
        BYTE                   32
        BYTE   W01
        BYTE                   31
        BYTE   W02
        BYTE                   30
        BYTE   W03
        BYTE                   28
        BYTE   W01
        BYTE                   27
        BYTE   W03
        BYTE                   26
        BYTE   W02
        BYTE                   25
        BYTE   W01
// 055   ----------------------------------------
        BYTE                   24
        BYTE   W02
        BYTE                   23
        BYTE   W01
        BYTE                   22
        BYTE   W03
        BYTE                   23
        BYTE   W02
        BYTE                   32
        BYTE           N44     Ds3   v126
        BYTE   W01
        BYTE           VOL     41
        BYTE   W03
        BYTE                   45
        BYTE   W12
        BYTE                   46
        BYTE   W03
        BYTE                   47
        BYTE   W02
        BYTE                   48
        BYTE   W24
        BYTE   W03
        BYTE           N15     Ds3   v127
        BYTE   W16
        BYTE           N19     Cs3   v107
        BYTE   W20
        BYTE           N11     Ds3   v117
        BYTE   W04
// 056   ----------------------------------------
        BYTE   W08
        BYTE           N80     Cn3   v107   gtp2
        BYTE   W56
        BYTE   W02
        BYTE           VOL     47
        BYTE   W05
        BYTE                   46
        BYTE   W03
        BYTE                   45
        BYTE   W03
        BYTE                   44
        BYTE   W01
        BYTE                   42
        BYTE   W02
        BYTE                   41
        BYTE   W01
        BYTE                   40
        BYTE   W02
        BYTE                   38
        BYTE   W01
        BYTE                   37
        BYTE   W02
        BYTE                   35
        BYTE   W01
        BYTE                   33
        BYTE   W02
        BYTE                   31
        BYTE   W01
        BYTE                   29
        BYTE   W02
        BYTE                   27
        BYTE   W04
// 057   ----------------------------------------
        BYTE   W06
        BYTE                   45
        BYTE   W02
        BYTE           N44     Fn3   v126   gtp3
        BYTE   W12
        BYTE           VOL     46
        BYTE   W03
        BYTE                   47
        BYTE   W32
        BYTE   W01
        BYTE           N15     Fn3   v127
        BYTE   W16
        BYTE           N19     Ds3   v107
        BYTE   W20
        BYTE           N11     Fn3   v117
        BYTE   W04
// 058   ----------------------------------------
        BYTE   W08
        BYTE           N96     Dn3   v120
        BYTE   W44
        BYTE   W01
        BYTE           VOL     46
        BYTE   W01
        BYTE                   45
        BYTE   W05
        BYTE                   44
        BYTE   W03
        BYTE                   43
        BYTE   W01
        BYTE                   42
        BYTE   W03
        BYTE                   41
        BYTE   W05
        BYTE                   40
        BYTE   W03
        BYTE                   39
        BYTE   W01
        BYTE                   38
        BYTE   W03
        BYTE                   37
        BYTE   W03
        BYTE                   36
        BYTE   W03
        BYTE                   35
        BYTE   W03
        BYTE                   34
        BYTE   W03
        BYTE                   33
        BYTE   W02
        BYTE                   32
        BYTE   W04
// 059   ----------------------------------------
        BYTE                   31
        BYTE   W02
        BYTE                   30
        BYTE   W04
        BYTE                   29
        BYTE   W02
        BYTE                   28
        BYTE   W12
        BYTE                   48
        BYTE   W12
        BYTE           N23     Cs3   v102
        BYTE           N23     Fs3
        BYTE   W24
        BYTE                   Fn3
        BYTE           N23     Gs3
        BYTE   W24
        BYTE           N24     Fs3
        BYTE           N24     As3
        BYTE   W16
// 060   ----------------------------------------
        BYTE   W08
        BYTE           N96     Gs3   v105
        BYTE           N96     Cn4
        BYTE   W24
        BYTE           VOL     47
        BYTE   W07
        BYTE                   46
        BYTE   W03
        BYTE                   45
        BYTE   W08
        BYTE                   44
        BYTE   W03
        BYTE                   43
        BYTE   W03
        BYTE                   42
        BYTE   W04
        BYTE                   41
        BYTE   W06
        BYTE                   40
        BYTE   W05
        BYTE                   39
        BYTE   W03
        BYTE                   38
        BYTE   W03
        BYTE                   37
        BYTE   W06
        BYTE                   36
        BYTE   W04
        BYTE                   35
        BYTE   W03
        BYTE                   34
        BYTE   W05
        BYTE                   33
        BYTE   W01
// 061   ----------------------------------------
        BYTE   W03
        BYTE                   32
        BYTE   W05
        BYTE                   31
        BYTE   W88
// 062   ----------------------------------------
        BYTE   W96
// 063   ----------------------------------------
        BYTE   W56
        BYTE   W01
        BYTE                   32
        BYTE   W05
        BYTE                   33
        BYTE   W03
        BYTE                   34
        BYTE   W03
        BYTE                   35
        BYTE   W04
        BYTE                   36
        BYTE   W03
        BYTE                   37
        BYTE   W05
        BYTE                   38
        BYTE   W03
        BYTE                   39
        BYTE   W01
        BYTE                   40
        BYTE   W05
        BYTE                   41
        BYTE   W04
        BYTE                   42
        BYTE   W03
// 064   ----------------------------------------
        BYTE                   43
        BYTE   W03
        BYTE                   44
        BYTE   W03
        BYTE                   45
        BYTE   W02
        BYTE           N48     As3   v075
        BYTE           N48     Cs4   v073
        BYTE   W03
        BYTE           VOL     46
        BYTE   W03
        BYTE                   47
        BYTE   W42
        BYTE           N48     Gn3   v079
        BYTE           N48     As3   v077
        BYTE   W40
// 065   ----------------------------------------
        BYTE   W08
        BYTE           TIE     An3   v080
        BYTE           TIE     Cn4
        BYTE   W24
        BYTE   W03
        BYTE           VOL     46
        BYTE   W09
        BYTE                   45
        BYTE   W09
        BYTE                   44
        BYTE   W06
        BYTE                   43
        BYTE   W03
        BYTE                   42
        BYTE   W03
        BYTE                   41
        BYTE   W03
        BYTE                   40
        BYTE   W06
        BYTE                   38
        BYTE   W03
        BYTE                   37
        BYTE   W03
        BYTE                   36
        BYTE   W03
        BYTE                   35
        BYTE   W03
        BYTE                   34
        BYTE   W03
        BYTE                   32
        BYTE   W03
        BYTE                   31
        BYTE   W03
        BYTE                   30
        BYTE   W01
// 066   ----------------------------------------
        BYTE   W44
        BYTE                   29
        BYTE   W03
        BYTE                   30
        BYTE   W30
        BYTE                   31
        BYTE   W09
        BYTE                   32
        BYTE   W09
        BYTE                   33
        BYTE   W01
// 067   ----------------------------------------
        BYTE   W05
        BYTE                   34
        BYTE   W09
        BYTE                   35
        BYTE   W06
        BYTE                   36
        BYTE   W03
        BYTE                   37
        BYTE   W09
        BYTE                   38
        BYTE   W03
        BYTE                   39
        BYTE   W03
        BYTE                   40
        BYTE   W03
        BYTE                   41
        BYTE   W06
        BYTE                   42
        BYTE   W03
        BYTE                   43
        BYTE   W03
        BYTE                   44
        BYTE   W03
        BYTE                   45
        BYTE   W06
        BYTE                   46
        BYTE   W03
        BYTE                   47
        BYTE   W30
        BYTE   W01
// 068   ----------------------------------------
        BYTE   W07
        BYTE           EOT     An3
        BYTE                   Cn4
        BYTE   W88
        BYTE   W01
// 069   ----------------------------------------
        BYTE           PAN     c_v-15
        BYTE           VOL     25
        BYTE   W24
        BYTE           VOICE   0
        BYTE           VOL     100
        BYTE           PAN     c_v+0
        BYTE   GoTo
         POIN2  EndingTheme_3_LOOP
        BYTE   FINE

//****************** Track 4 (Midi-Chn.4) ******************//

EndingTheme_4:
        BYTE   KEYSH   EndingTheme_key+0
// 000   ----------------------------------------
EndingTheme_4_LOOP:
        BYTE   W24
// 001   ----------------------------------------
        BYTE           VOICE   61
        BYTE           VOL     54
        BYTE   W08
        BYTE           N16     Gn2   v107
        BYTE   W16
        BYTE           N08     Gn2   v063
        BYTE   W08
        BYTE           N16     Cn3   v109
        BYTE   W16
        BYTE           N08     Cn3   v060
        BYTE   W08
        BYTE           N16     Dn3   v109
        BYTE   W16
        BYTE           N08     Dn3   v062
        BYTE   W08
        BYTE           N16     Fn3   v109
        BYTE   W16
// 002   ----------------------------------------
EndingTheme_4_2:
        BYTE           N08     Fn3   v061
        BYTE   W08
        BYTE           N24     En3   v109
        BYTE   W24
        BYTE           N16     En3   v059
        BYTE   W16
        BYTE           N08     Cn3   v109
        BYTE   W08
        BYTE           N16     Gn3
        BYTE   W16
        BYTE           N08     Gn3   v058
        BYTE   W08
        BYTE                   Gn3   v109
        BYTE   W08
        BYTE                   Fn3
        BYTE   W08
        BYTE   PEND
// 003   ----------------------------------------
EndingTheme_4_3:
        BYTE           N08     En3   v109
        BYTE   W07
        BYTE           VOL     53
        BYTE   W01
        BYTE           TIE     Dn3
        BYTE   W03
        BYTE           VOL     52
        BYTE   W02
        BYTE                   51
        BYTE   W02
        BYTE                   50
        BYTE   W01
        BYTE                   49
        BYTE   W01
        BYTE                   48
        BYTE   W01
        BYTE                   47
        BYTE   W01
        BYTE                   45
        BYTE   W01
        BYTE                   44
        BYTE   W01
        BYTE                   42
        BYTE   W01
        BYTE                   41
        BYTE   W01
        BYTE                   39
        BYTE   W01
        BYTE                   37
        BYTE   W01
        BYTE                   36
        BYTE   W01
        BYTE                   34
        BYTE   W01
        BYTE                   32
        BYTE   W01
        BYTE                   29
        BYTE   W01
        BYTE                   27
        BYTE   W01
        BYTE                   21
        BYTE   W08
        BYTE                   22
        BYTE   W06
        BYTE                   23
        BYTE   W03
        BYTE                   24
        BYTE   W02
        BYTE                   25
        BYTE   W03
        BYTE                   26
        BYTE   W02
        BYTE                   27
        BYTE   W02
        BYTE                   28
        BYTE   W02
        BYTE                   29
        BYTE   W02
        BYTE                   30
        BYTE   W01
        BYTE                   31
        BYTE   W02
        BYTE                   32
        BYTE   W01
        BYTE                   33
        BYTE   W02
        BYTE                   34
        BYTE   W01
        BYTE                   35
        BYTE   W02
        BYTE                   36
        BYTE   W01
        BYTE                   37
        BYTE   W01
        BYTE                   38
        BYTE   W01
        BYTE                   39
        BYTE   W02
        BYTE                   40
        BYTE   W01
        BYTE                   41
        BYTE   W01
        BYTE                   42
        BYTE   W01
        BYTE                   43
        BYTE   W01
        BYTE                   44
        BYTE   W01
        BYTE                   45
        BYTE   W01
        BYTE                   46
        BYTE   W01
        BYTE                   47
        BYTE   W01
        BYTE                   48
        BYTE   W01
        BYTE                   49
        BYTE   W01
        BYTE                   50
        BYTE   W01
        BYTE                   51
        BYTE   W01
        BYTE                   53
        BYTE   W01
        BYTE                   54
        BYTE   W06
        BYTE                   53
        BYTE   W03
        BYTE   PEND
// 004   ----------------------------------------
EndingTheme_4_4:
        BYTE   W04
        BYTE           VOL     52
        BYTE   W05
        BYTE                   51
        BYTE   W06
        BYTE                   50
        BYTE   W03
        BYTE                   49
        BYTE   W03
        BYTE                   48
        BYTE   W04
        BYTE                   47
        BYTE   W02
        BYTE                   46
        BYTE   W02
        BYTE                   45
        BYTE   W03
        BYTE                   44
        BYTE   W02
        BYTE                   43
        BYTE   W02
        BYTE                   42
        BYTE   W02
        BYTE                   41
        BYTE   W02
        BYTE                   40
        BYTE   W01
        BYTE                   39
        BYTE   W03
        BYTE                   38
        BYTE   W01
        BYTE                   37
        BYTE   W02
        BYTE                   36
        BYTE   W02
        BYTE                   35
        BYTE   W01
        BYTE                   34
        BYTE   W02
        BYTE                   33
        BYTE   W01
        BYTE                   32
        BYTE   W02
        BYTE                   31
        BYTE   W01
        BYTE                   30
        BYTE   W02
        BYTE                   29
        BYTE   W01
        BYTE                   28
        BYTE   W01
        BYTE                   27
        BYTE   W02
        BYTE                   26
        BYTE   W01
        BYTE                   25
        BYTE   W01
        BYTE                   24
        BYTE   W01
        BYTE                   23
        BYTE   W01
        BYTE                   22
        BYTE   W02
        BYTE                   21
        BYTE   W01
        BYTE                   20
        BYTE   W01
        BYTE                   19
        BYTE   W01
        BYTE                   18
        BYTE   W01
        BYTE                   17
        BYTE   W01
        BYTE                   16
        BYTE   W04
        BYTE                   15
        BYTE   W01
        BYTE           EOT     Dn3
        BYTE   W02
        BYTE           VOL     14
        BYTE   W16
        BYTE   PEND
// 005   ----------------------------------------
EndingTheme_4_5:
        BYTE   W06
        BYTE           VOL     54
        BYTE   W02
        BYTE           N16     Gn2   v107
        BYTE   W16
        BYTE           N08     Gn2   v063
        BYTE   W08
        BYTE           N16     Cn3   v109
        BYTE   W16
        BYTE           N08     Cn3   v060
        BYTE   W08
        BYTE           N16     Dn3   v109
        BYTE   W16
        BYTE           N08     Dn3   v062
        BYTE   W08
        BYTE           N16     Fn3   v109
        BYTE   W16
        BYTE   PEND
// 006   ----------------------------------------
        BYTE   PATT
         POIN2  EndingTheme_4_2
// 007   ----------------------------------------
        BYTE   PATT
         POIN2  EndingTheme_4_3
// 008   ----------------------------------------
        BYTE   PATT
         POIN2  EndingTheme_4_4
// 009   ----------------------------------------
        BYTE   W06
        BYTE           VOL     54
        BYTE   W90
// 010   ----------------------------------------
        BYTE   W96
// 011   ----------------------------------------
        BYTE   W96
// 012   ----------------------------------------
        BYTE   W96
// 013   ----------------------------------------
        BYTE   W96
// 014   ----------------------------------------
        BYTE   W96
// 015   ----------------------------------------
        BYTE   W96
// 016   ----------------------------------------
        BYTE   W96
// 017   ----------------------------------------
        BYTE   W08
        BYTE           N16     Gn2   v107
        BYTE   W16
        BYTE           N08     Gn2   v063
        BYTE   W08
        BYTE           N16     Cn3   v109
        BYTE   W16
        BYTE           N08     Cn3   v060
        BYTE   W08
        BYTE           N16     Dn3   v109
        BYTE   W16
        BYTE           N08     Dn3   v062
        BYTE   W08
        BYTE           N16     Fn3   v109
        BYTE   W16
// 018   ----------------------------------------
        BYTE   PATT
         POIN2  EndingTheme_4_2
// 019   ----------------------------------------
        BYTE   PATT
         POIN2  EndingTheme_4_3
// 020   ----------------------------------------
        BYTE   PATT
         POIN2  EndingTheme_4_4
// 021   ----------------------------------------
        BYTE   PATT
         POIN2  EndingTheme_4_5
// 022   ----------------------------------------
        BYTE   PATT
         POIN2  EndingTheme_4_2
// 023   ----------------------------------------
        BYTE   PATT
         POIN2  EndingTheme_4_3
// 024   ----------------------------------------
        BYTE   PATT
         POIN2  EndingTheme_4_4
// 025   ----------------------------------------
        BYTE   W06
        BYTE           VOL     54
        BYTE   W90
// 026   ----------------------------------------
        BYTE   W96
// 027   ----------------------------------------
        BYTE   W96
// 028   ----------------------------------------
        BYTE   W96
// 029   ----------------------------------------
        BYTE   W96
// 030   ----------------------------------------
        BYTE   W08
        BYTE           N11     Fn3   v094
        BYTE   W12
        BYTE                   Fn3   v055
        BYTE   W12
        BYTE                   As3   v095
        BYTE   W12
        BYTE                   As3   v047
        BYTE   W12
        BYTE                   Cn4   v095
        BYTE   W12
        BYTE                   Cn4   v046
        BYTE   W12
        BYTE                   Ds4   v096
        BYTE   W12
        BYTE                   Ds4   v046
        BYTE   W04
// 031   ----------------------------------------
        BYTE   W08
        BYTE           N48     Dn4   v095
        BYTE   W48
        BYTE           N24     Dn4   v036
        BYTE   W24
        BYTE           N12     As3   v085
        BYTE   W12
        BYTE                   As3   v039
        BYTE   W04
// 032   ----------------------------------------
        BYTE   W08
        BYTE           N24     Fn4   v097
        BYTE   W24
        BYTE           N12     Fn4   v040
        BYTE   W12
        BYTE           N24     Ds4   v097
        BYTE   W24
        BYTE           N12     Ds4   v040
        BYTE   W12
        BYTE                   Dn4   v097
        BYTE   W12
        BYTE                   Dn4   v040
        BYTE   W04
// 033   ----------------------------------------
        BYTE   W08
        BYTE           TIE     Cn4   v097
        BYTE   W72
        BYTE           VOL     53
        BYTE   W09
        BYTE                   52
        BYTE   W07
// 034   ----------------------------------------
        BYTE                   51
        BYTE   W09
        BYTE                   50
        BYTE   W05
        BYTE                   49
        BYTE   W04
        BYTE                   48
        BYTE   W06
        BYTE                   47
        BYTE   W05
        BYTE                   46
        BYTE   W03
        BYTE                   45
        BYTE   W04
        BYTE                   44
        BYTE   W03
        BYTE                   43
        BYTE   W03
        BYTE                   42
        BYTE   W05
        BYTE                   41
        BYTE   W01
        BYTE                   40
        BYTE   W03
        BYTE                   39
        BYTE   W03
        BYTE                   38
        BYTE   W03
        BYTE                   37
        BYTE   W02
        BYTE                   36
        BYTE   W03
        BYTE                   35
        BYTE   W03
        BYTE                   34
        BYTE   W03
        BYTE                   33
        BYTE   W01
        BYTE                   32
        BYTE   W03
        BYTE                   31
        BYTE   W02
        BYTE                   30
        BYTE   W04
        BYTE           EOT
        BYTE   W18
// 035   ----------------------------------------
        BYTE   W05
        BYTE           VOL     54
        BYTE   W90
        BYTE   W01
// 036   ----------------------------------------
        BYTE   W96
// 037   ----------------------------------------
        BYTE   W96
// 038   ----------------------------------------
        BYTE   W96
// 039   ----------------------------------------
        BYTE   W96
// 040   ----------------------------------------
        BYTE   W96
// 041   ----------------------------------------
        BYTE   W96
// 042   ----------------------------------------
        BYTE   W96
// 043   ----------------------------------------
        BYTE   W96
// 044   ----------------------------------------
        BYTE   W96
// 045   ----------------------------------------
        BYTE   W96
// 046   ----------------------------------------
        BYTE   W40
        BYTE           VOICE   10
        BYTE   W01
        BYTE           VOL     49
        BYTE   W54
        BYTE   W01
// 047   ----------------------------------------
        BYTE   W08
        BYTE           N15     Dn5   v120
        BYTE   W16
        BYTE                   Gn4
        BYTE   W16
        BYTE                   Fn4
        BYTE   W16
        BYTE                   Gn4
        BYTE   W16
        BYTE                   Dn4
        BYTE   W16
        BYTE                   Cn4
        BYTE   W08
// 048   ----------------------------------------
        BYTE   W08
        BYTE                   Dn4
        BYTE   W16
        BYTE                   Gn3
        BYTE   W16
        BYTE                   Fn3
        BYTE   W16
        BYTE                   Gn3
        BYTE   W16
        BYTE                   Dn3
        BYTE   W16
        BYTE                   Cn3
        BYTE   W08
// 049   ----------------------------------------
        BYTE   W08
        BYTE                   Dn3
        BYTE   W88
// 050   ----------------------------------------
        BYTE   W96
// 051   ----------------------------------------
        BYTE   W96
// 052   ----------------------------------------
        BYTE   W96
// 053   ----------------------------------------
        BYTE   W96
// 054   ----------------------------------------
        BYTE   W96
// 055   ----------------------------------------
        BYTE   W96
// 056   ----------------------------------------
        BYTE   W96
// 057   ----------------------------------------
        BYTE   W96
// 058   ----------------------------------------
        BYTE   W96
// 059   ----------------------------------------
        BYTE   W96
// 060   ----------------------------------------
        BYTE   W96
// 061   ----------------------------------------
        BYTE   W96
// 062   ----------------------------------------
        BYTE   W40
        BYTE   W01
        BYTE           VOL     58
        BYTE   W54
        BYTE   W01
// 063   ----------------------------------------
        BYTE   W96
// 064   ----------------------------------------
        BYTE   W96
// 065   ----------------------------------------
        BYTE   W08
        BYTE           N15     Fn5   v117
        BYTE   W16
        BYTE                   Cn5
        BYTE   W16
        BYTE                   As4
        BYTE   W16
        BYTE                   Cn5
        BYTE   W16
        BYTE                   Fn4
        BYTE   W16
        BYTE                   Ds4
        BYTE   W08
// 066   ----------------------------------------
        BYTE   W08
        BYTE                   Fn4
        BYTE   W16
        BYTE                   Cn4
        BYTE   W16
        BYTE                   As3
        BYTE   W16
        BYTE                   Cn4
        BYTE   W16
        BYTE                   Fn3
        BYTE   W16
        BYTE                   Ds3
        BYTE   W08
// 067   ----------------------------------------
        BYTE   W08
        BYTE                   Fn3
        BYTE   W16
        BYTE                   Cn3
        BYTE   W16
        BYTE                   As2
        BYTE   W16
        BYTE                   Cn3
        BYTE   W16
        BYTE                   Fn2
        BYTE   W16
        BYTE                   Ds2
        BYTE   W08
// 068   ----------------------------------------
        BYTE   W08
        BYTE                   Fn2
        BYTE   W32
        BYTE           VOICE   61
        BYTE   W01
        BYTE           VOL     54
        BYTE   W54
        BYTE   W01
// 069   ----------------------------------------
        BYTE   W24
        BYTE           VOICE   0
        BYTE           VOL     100
        BYTE   GoTo
         POIN2  EndingTheme_4_LOOP
        BYTE   FINE

//****************** Track 5 (Midi-Chn.5) ******************//

EndingTheme_5:
        BYTE   KEYSH   EndingTheme_key+0
// 000   ----------------------------------------
EndingTheme_5_LOOP:
        BYTE   W24
// 001   ----------------------------------------
        BYTE           VOICE   14
        BYTE           VOL     54
        BYTE   W96
// 002   ----------------------------------------
        BYTE   W96
// 003   ----------------------------------------
        BYTE   W96
// 004   ----------------------------------------
        BYTE   W96
// 005   ----------------------------------------
        BYTE   W96
// 006   ----------------------------------------
        BYTE   W96
// 007   ----------------------------------------
        BYTE   W96
// 008   ----------------------------------------
        BYTE   W96
// 009   ----------------------------------------
        BYTE   W96
// 010   ----------------------------------------
        BYTE   W96
// 011   ----------------------------------------
        BYTE   W96
// 012   ----------------------------------------
        BYTE   W96
// 013   ----------------------------------------
        BYTE   W96
// 014   ----------------------------------------
        BYTE   W96
// 015   ----------------------------------------
        BYTE   W96
// 016   ----------------------------------------
        BYTE   W96
// 017   ----------------------------------------
        BYTE   W96
// 018   ----------------------------------------
        BYTE   W96
// 019   ----------------------------------------
        BYTE   W96
// 020   ----------------------------------------
        BYTE   W96
// 021   ----------------------------------------
        BYTE   W96
// 022   ----------------------------------------
        BYTE   W96
// 023   ----------------------------------------
        BYTE   W44
        BYTE   W03
        BYTE                   58
        BYTE   W48
        BYTE   W01
// 024   ----------------------------------------
        BYTE   W96
// 025   ----------------------------------------
EndingTheme_5_25:
        BYTE   W56
        BYTE           N12     Fn3   v127
        BYTE   W40
        BYTE   PEND
// 026   ----------------------------------------
EndingTheme_5_26:
        BYTE   W08
        BYTE           N12     Gn3   v127
        BYTE   W48
        BYTE                   Cn4
        BYTE   W40
        BYTE   PEND
// 027   ----------------------------------------
        BYTE   PATT
         POIN2  EndingTheme_5_25
// 028   ----------------------------------------
EndingTheme_5_28:
        BYTE   W08
        BYTE           N12     Gn3   v127
        BYTE   W48
        BYTE                   As3
        BYTE   W40
        BYTE   PEND
// 029   ----------------------------------------
        BYTE   PATT
         POIN2  EndingTheme_5_25
// 030   ----------------------------------------
        BYTE   PATT
         POIN2  EndingTheme_5_26
// 031   ----------------------------------------
        BYTE   W08
        BYTE           N12     As3   v127
        BYTE   W88
// 032   ----------------------------------------
        BYTE   W08
        BYTE           N96     Gn3
        BYTE   W88
// 033   ----------------------------------------
        BYTE   W96
// 034   ----------------------------------------
        BYTE   W96
// 035   ----------------------------------------
        BYTE   W96
// 036   ----------------------------------------
        BYTE   W96
// 037   ----------------------------------------
        BYTE   W96
// 038   ----------------------------------------
        BYTE   W96
// 039   ----------------------------------------
        BYTE   W96
// 040   ----------------------------------------
        BYTE   W96
// 041   ----------------------------------------
        BYTE   PATT
         POIN2  EndingTheme_5_25
// 042   ----------------------------------------
        BYTE   PATT
         POIN2  EndingTheme_5_26
// 043   ----------------------------------------
        BYTE   PATT
         POIN2  EndingTheme_5_25
// 044   ----------------------------------------
        BYTE   PATT
         POIN2  EndingTheme_5_28
// 045   ----------------------------------------
        BYTE   PATT
         POIN2  EndingTheme_5_25
// 046   ----------------------------------------
        BYTE   PATT
         POIN2  EndingTheme_5_26
// 047   ----------------------------------------
        BYTE   W08
        BYTE           N12     Dn4   v127
        BYTE   W48
        BYTE                   Dn3   v080
        BYTE   W40
// 048   ----------------------------------------
        BYTE   W08
        BYTE                   Gn3
        BYTE   W48
        BYTE                   Cn4
        BYTE   W40
// 049   ----------------------------------------
        BYTE   W08
        BYTE                   Dn4
        BYTE   W88
// 050   ----------------------------------------
        BYTE   W96
// 051   ----------------------------------------
        BYTE   W96
// 052   ----------------------------------------
        BYTE   W96
// 053   ----------------------------------------
        BYTE   W96
// 054   ----------------------------------------
        BYTE   W96
// 055   ----------------------------------------
        BYTE   W96
// 056   ----------------------------------------
        BYTE   W96
// 057   ----------------------------------------
        BYTE   W96
// 058   ----------------------------------------
        BYTE   W96
// 059   ----------------------------------------
        BYTE   W96
// 060   ----------------------------------------
        BYTE   W96
// 061   ----------------------------------------
        BYTE   W96
// 062   ----------------------------------------
        BYTE   W96
// 063   ----------------------------------------
        BYTE   W96
// 064   ----------------------------------------
        BYTE   W96
// 065   ----------------------------------------
        BYTE   W96
// 066   ----------------------------------------
        BYTE   W96
// 067   ----------------------------------------
        BYTE   W08
        BYTE           N08     Fn4   v127
        BYTE   W16
        BYTE                   Cn4
        BYTE   W16
        BYTE                   As3
        BYTE   W16
        BYTE                   Cn4
        BYTE   W16
        BYTE                   Fn3
        BYTE   W16
        BYTE                   Ds3
        BYTE   W08
// 068   ----------------------------------------
        BYTE   W08
        BYTE                   Fn3
        BYTE   W88
// 069   ----------------------------------------
        BYTE   W24
        BYTE           VOICE   0
        BYTE           VOL     100
        BYTE   GoTo
         POIN2  EndingTheme_5_LOOP
        BYTE   FINE

//****************** Track 6 (Midi-Chn.6) ******************//

EndingTheme_6:
        BYTE   KEYSH   EndingTheme_key+0
// 000   ----------------------------------------
EndingTheme_6_LOOP:
        BYTE   W24
// 001   ----------------------------------------
        BYTE           VOICE   8
        BYTE           VOL     58
        BYTE   W96
// 002   ----------------------------------------
        BYTE   W96
// 003   ----------------------------------------
        BYTE   W96
// 004   ----------------------------------------
        BYTE   W96
// 005   ----------------------------------------
        BYTE   W96
// 006   ----------------------------------------
        BYTE   W96
// 007   ----------------------------------------
        BYTE   W96
// 008   ----------------------------------------
        BYTE   W96
// 009   ----------------------------------------
        BYTE   W06
        BYTE           PAN     c_v-30
        BYTE   W02
        BYTE           N02     Gn4   v081
        BYTE   W08
        BYTE                   An4   v094
        BYTE   W08
        BYTE                   Dn5   v099
        BYTE   W08
        BYTE                   Gn5   v115
        BYTE   W08
        BYTE                   Dn5   v113
        BYTE   W08
        BYTE                   An4   v096
        BYTE   W08
        BYTE                   Gn4   v081
        BYTE   W08
        BYTE                   An4   v094
        BYTE   W08
        BYTE                   Dn5   v099
        BYTE   W08
        BYTE                   Gn5   v115
        BYTE   W08
        BYTE                   Dn5   v113
        BYTE   W08
// 010   ----------------------------------------
EndingTheme_6_10:
        BYTE           N02     An4   v096
        BYTE   W08
        BYTE                   Gn4   v081
        BYTE   W08
        BYTE                   An4   v094
        BYTE   W08
        BYTE                   Dn5   v099
        BYTE   W08
        BYTE                   Gn5   v115
        BYTE   W08
        BYTE                   Dn5   v113
        BYTE   W08
        BYTE                   An4   v096
        BYTE   W08
        BYTE                   Gn4   v081
        BYTE   W08
        BYTE                   An4   v094
        BYTE   W08
        BYTE                   Dn5   v099
        BYTE   W08
        BYTE                   Gn5   v115
        BYTE   W08
        BYTE                   Dn5   v113
        BYTE   W08
        BYTE   PEND
// 011   ----------------------------------------
        BYTE   PATT
         POIN2  EndingTheme_6_10
// 012   ----------------------------------------
        BYTE   PATT
         POIN2  EndingTheme_6_10
// 013   ----------------------------------------
        BYTE   PATT
         POIN2  EndingTheme_6_10
// 014   ----------------------------------------
        BYTE   PATT
         POIN2  EndingTheme_6_10
// 015   ----------------------------------------
        BYTE   PATT
         POIN2  EndingTheme_6_10
// 016   ----------------------------------------
        BYTE   PATT
         POIN2  EndingTheme_6_10
// 017   ----------------------------------------
        BYTE           N02     An4   v096
        BYTE   W96
// 018   ----------------------------------------
        BYTE   W96
// 019   ----------------------------------------
        BYTE   W96
// 020   ----------------------------------------
        BYTE   W96
// 021   ----------------------------------------
        BYTE   W96
// 022   ----------------------------------------
        BYTE   W96
// 023   ----------------------------------------
        BYTE   W52
        BYTE   W01
        BYTE           PAN     c_v+0
        BYTE   W42
        BYTE   W01
// 024   ----------------------------------------
        BYTE   W96
// 025   ----------------------------------------
EndingTheme_6_25:
        BYTE   W08
        BYTE           N02     Gn4   v081
        BYTE   W08
        BYTE                   An4   v094
        BYTE   W08
        BYTE                   Dn5   v099
        BYTE   W08
        BYTE                   Gn5   v115
        BYTE   W08
        BYTE                   Dn5   v113
        BYTE   W08
        BYTE                   An4   v096
        BYTE   W08
        BYTE                   Gn4   v081
        BYTE   W08
        BYTE                   An4   v094
        BYTE   W08
        BYTE                   Dn5   v099
        BYTE   W08
        BYTE                   Gn5   v115
        BYTE   W08
        BYTE                   Dn5   v113
        BYTE   W08
        BYTE   PEND
// 026   ----------------------------------------
        BYTE   PATT
         POIN2  EndingTheme_6_10
// 027   ----------------------------------------
        BYTE   PATT
         POIN2  EndingTheme_6_10
// 028   ----------------------------------------
        BYTE   PATT
         POIN2  EndingTheme_6_10
// 029   ----------------------------------------
        BYTE   PATT
         POIN2  EndingTheme_6_10
// 030   ----------------------------------------
        BYTE   PATT
         POIN2  EndingTheme_6_10
// 031   ----------------------------------------
        BYTE   PATT
         POIN2  EndingTheme_6_10
// 032   ----------------------------------------
        BYTE           N02     An4   v096
        BYTE   W52
        BYTE   W01
        BYTE           PAN     c_v-20
        BYTE   W42
        BYTE   W01
// 033   ----------------------------------------
        BYTE   PATT
         POIN2  EndingTheme_6_25
// 034   ----------------------------------------
        BYTE   PATT
         POIN2  EndingTheme_6_10
// 035   ----------------------------------------
        BYTE   PATT
         POIN2  EndingTheme_6_10
// 036   ----------------------------------------
        BYTE   PATT
         POIN2  EndingTheme_6_10
// 037   ----------------------------------------
        BYTE   PATT
         POIN2  EndingTheme_6_10
// 038   ----------------------------------------
        BYTE   PATT
         POIN2  EndingTheme_6_10
// 039   ----------------------------------------
        BYTE   PATT
         POIN2  EndingTheme_6_10
// 040   ----------------------------------------
        BYTE   PATT
         POIN2  EndingTheme_6_10
// 041   ----------------------------------------
        BYTE   PATT
         POIN2  EndingTheme_6_10
// 042   ----------------------------------------
        BYTE   PATT
         POIN2  EndingTheme_6_10
// 043   ----------------------------------------
        BYTE   PATT
         POIN2  EndingTheme_6_10
// 044   ----------------------------------------
        BYTE   PATT
         POIN2  EndingTheme_6_10
// 045   ----------------------------------------
        BYTE   PATT
         POIN2  EndingTheme_6_10
// 046   ----------------------------------------
        BYTE   PATT
         POIN2  EndingTheme_6_10
// 047   ----------------------------------------
        BYTE   PATT
         POIN2  EndingTheme_6_10
// 048   ----------------------------------------
        BYTE   PATT
         POIN2  EndingTheme_6_10
// 049   ----------------------------------------
        BYTE   PATT
         POIN2  EndingTheme_6_10
// 050   ----------------------------------------
        BYTE           N02     An4   v096
        BYTE   W08
        BYTE                   Gn4   v081
        BYTE   W88
// 051   ----------------------------------------
        BYTE   W96
// 052   ----------------------------------------
        BYTE   W96
// 053   ----------------------------------------
        BYTE   W96
// 054   ----------------------------------------
        BYTE   W96
// 055   ----------------------------------------
        BYTE   W96
// 056   ----------------------------------------
        BYTE   W96
// 057   ----------------------------------------
        BYTE   W96
// 058   ----------------------------------------
        BYTE   W96
// 059   ----------------------------------------
        BYTE   W96
// 060   ----------------------------------------
        BYTE   W96
// 061   ----------------------------------------
        BYTE   W96
// 062   ----------------------------------------
        BYTE   W96
// 063   ----------------------------------------
        BYTE   W96
// 064   ----------------------------------------
        BYTE   W96
// 065   ----------------------------------------
        BYTE   W96
// 066   ----------------------------------------
        BYTE   W96
// 067   ----------------------------------------
        BYTE   W96
// 068   ----------------------------------------
        BYTE   W96
// 069   ----------------------------------------
        BYTE   W24
        BYTE           VOICE   0
        BYTE           VOL     100
        BYTE           PAN     c_v+0
        BYTE   GoTo
         POIN2  EndingTheme_6_LOOP
        BYTE   FINE

//****************** Track 7 (Midi-Chn.7) ******************//

EndingTheme_7:
        BYTE   KEYSH   EndingTheme_key+0
// 000   ----------------------------------------
EndingTheme_7_LOOP:
        BYTE   W24
// 001   ----------------------------------------
        BYTE           VOICE   52
        BYTE           PAN     c_v+20
        BYTE           VOL     49
        BYTE   W08
        BYTE           N44     Gn3   v094   gtp3
        BYTE   W48
        BYTE                   As3   v100
        BYTE   W40
// 002   ----------------------------------------
        BYTE   W08
        BYTE                   An3   v106
        BYTE   W48
        BYTE                   Cn4   v112
        BYTE   W40
// 003   ----------------------------------------
        BYTE   W08
        BYTE                   Cn4   v118
        BYTE   W48
        BYTE                   An3   v111
        BYTE   W40
// 004   ----------------------------------------
        BYTE   W08
        BYTE                   Bn3   v104
        BYTE   W48
        BYTE                   An3   v096
        BYTE   W40
// 005   ----------------------------------------
        BYTE   W08
        BYTE                   Gn3   v088
        BYTE   W48
        BYTE                   As3   v095
        BYTE   W40
// 006   ----------------------------------------
        BYTE   W08
        BYTE                   An3   v102
        BYTE   W48
        BYTE                   Cn4   v109
        BYTE   W40
// 007   ----------------------------------------
        BYTE   W08
        BYTE                   Cn4   v116
        BYTE   W48
        BYTE                   An3   v109
        BYTE   W40
// 008   ----------------------------------------
        BYTE   W08
        BYTE                   Bn3   v102
        BYTE   W48
        BYTE                   An3   v096
        BYTE   W40
// 009   ----------------------------------------
        BYTE   W96
// 010   ----------------------------------------
        BYTE   W96
// 011   ----------------------------------------
        BYTE   W96
// 012   ----------------------------------------
        BYTE   W96
// 013   ----------------------------------------
        BYTE   W96
// 014   ----------------------------------------
        BYTE   W96
// 015   ----------------------------------------
        BYTE   W96
// 016   ----------------------------------------
        BYTE   W96
// 017   ----------------------------------------
        BYTE   W08
        BYTE                   Gn3   v092
        BYTE   W24
        BYTE           VOL     38
        BYTE   W18
        BYTE                   39
        BYTE   W06
        BYTE           N44     As3   v098   gtp3
        BYTE   W30
        BYTE           VOL     40
        BYTE   W10
// 018   ----------------------------------------
        BYTE   W05
        BYTE                   41
        BYTE   W03
        BYTE           N44     An3   v105   gtp3
        BYTE   W18
        BYTE           VOL     42
        BYTE   W15
        BYTE                   43
        BYTE   W09
        BYTE                   44
        BYTE   W06
        BYTE           N44     Cn4   v111   gtp3
        BYTE   W09
        BYTE           VOL     45
        BYTE   W09
        BYTE                   46
        BYTE   W09
        BYTE                   47
        BYTE   W13
// 019   ----------------------------------------
        BYTE   W02
        BYTE                   48
        BYTE   W06
        BYTE                   49
        BYTE           N44     Cn4   v118   gtp3
        BYTE   W48
        BYTE                   An3   v113
        BYTE   W03
        BYTE           VOL     48
        BYTE   W24
        BYTE                   47
        BYTE   W13
// 020   ----------------------------------------
        BYTE   W08
        BYTE           N44     Bn3   v106   gtp3
        BYTE   W09
        BYTE           VOL     46
        BYTE   W12
        BYTE                   45
        BYTE   W09
        BYTE                   44
        BYTE   W15
        BYTE                   43
        BYTE   W03
        BYTE           N44     An3   v100   gtp3
        BYTE   W06
        BYTE           VOL     42
        BYTE   W09
        BYTE                   41
        BYTE   W12
        BYTE                   40
        BYTE   W06
        BYTE                   39
        BYTE   W07
// 021   ----------------------------------------
        BYTE   W05
        BYTE                   38
        BYTE   W03
        BYTE           N44     Gn3   v093   gtp3
        BYTE   W03
        BYTE           VOL     37
        BYTE   W30
        BYTE                   38
        BYTE   W15
        BYTE           N44     As3   v100   gtp3
        BYTE   W09
        BYTE           VOL     39
        BYTE   W24
        BYTE   W03
        BYTE                   40
        BYTE   W04
// 022   ----------------------------------------
        BYTE   W08
        BYTE                   41
        BYTE           N44     An3   v106   gtp3
        BYTE   W18
        BYTE           VOL     42
        BYTE   W12
        BYTE                   43
        BYTE   W09
        BYTE                   44
        BYTE   W09
        BYTE           N44     Cn4   v112   gtp3
        BYTE   W03
        BYTE           VOL     45
        BYTE   W06
        BYTE                   46
        BYTE   W09
        BYTE                   47
        BYTE   W12
        BYTE                   48
        BYTE   W09
        BYTE                   49
        BYTE   W01
// 023   ----------------------------------------
        BYTE   W08
        BYTE           N44     Cn4   v117   gtp3
        BYTE   W44
        BYTE   W01
        BYTE           VOL     48
        BYTE   W03
        BYTE           N44     An3   v114   gtp3
        BYTE   W18
        BYTE           VOL     47
        BYTE   W22
// 024   ----------------------------------------
        BYTE   W08
        BYTE                   46
        BYTE           N44     Bn3   v110   gtp3
        BYTE   W12
        BYTE           VOL     45
        BYTE   W09
        BYTE                   44
        BYTE   W15
        BYTE                   43
        BYTE   W06
        BYTE                   42
        BYTE   W06
        BYTE           N44     An3   v106   gtp3
        BYTE   W06
        BYTE           VOL     41
        BYTE   W12
        BYTE                   40
        BYTE   W06
        BYTE                   39
        BYTE   W12
        BYTE                   38
        BYTE   W04
// 025   ----------------------------------------
        BYTE   W02
        BYTE                   37
        BYTE   W06
        BYTE           N92     Gn3   v101   gtp3
        BYTE   W48
        BYTE           VOL     38
        BYTE   W21
        BYTE                   39
        BYTE   W19
// 026   ----------------------------------------
        BYTE   W08
        BYTE                   40
        BYTE           N92     As3   v109   gtp3
        BYTE   W12
        BYTE           VOL     41
        BYTE   W18
        BYTE                   42
        BYTE   W15
        BYTE                   43
        BYTE   W06
        BYTE                   44
        BYTE   W15
        BYTE                   45
        BYTE   W06
        BYTE                   46
        BYTE   W09
        BYTE                   47
        BYTE   W07
// 027   ----------------------------------------
        BYTE   W05
        BYTE                   48
        BYTE   W03
        BYTE           N92     An3   v116   gtp3
        BYTE   W06
        BYTE           VOL     49
        BYTE   W24
        BYTE   W03
        BYTE                   48
        BYTE   W32
        BYTE   W01
        BYTE                   47
        BYTE   W22
// 028   ----------------------------------------
        BYTE   W08
        BYTE           N92     Cn4   v110   gtp3
        BYTE   W03
        BYTE           VOL     46
        BYTE   W15
        BYTE                   45
        BYTE   W09
        BYTE                   44
        BYTE   W15
        BYTE                   43
        BYTE   W09
        BYTE                   42
        BYTE   W12
        BYTE                   41
        BYTE   W12
        BYTE                   40
        BYTE   W06
        BYTE                   39
        BYTE   W07
// 029   ----------------------------------------
        BYTE   W02
        BYTE                   38
        BYTE   W06
        BYTE           TIE     As3   v101
        BYTE   W24
        BYTE   W03
        BYTE           VOL     39
        BYTE   W42
        BYTE                   40
        BYTE   W15
        BYTE                   41
        BYTE   W04
// 030   ----------------------------------------
        BYTE   W17
        BYTE                   42
        BYTE   W15
        BYTE                   43
        BYTE   W09
        BYTE                   44
        BYTE   W15
        BYTE                   45
        BYTE   W09
        BYTE                   46
        BYTE   W09
        BYTE                   47
        BYTE   W15
        BYTE                   48
        BYTE   W06
        BYTE                   49
        BYTE   W01
// 031   ----------------------------------------
        BYTE   W07
        BYTE           EOT
        BYTE   W01
        BYTE           N92     An3   v115   gtp3
        BYTE   W88
// 032   ----------------------------------------
        BYTE   W08
        BYTE           N88     As3   v108   gtp1
        BYTE   W06
        BYTE           VOL     48
        BYTE   W07
        BYTE                   47
        BYTE   W09
        BYTE                   46
        BYTE   W05
        BYTE                   45
        BYTE   W03
        BYTE                   44
        BYTE   W03
        BYTE                   43
        BYTE   W03
        BYTE                   42
        BYTE   W03
        BYTE                   41
        BYTE   W03
        BYTE                   40
        BYTE   W03
        BYTE                   39
        BYTE   W03
        BYTE                   38
        BYTE   W01
        BYTE                   37
        BYTE   W03
        BYTE                   36
        BYTE   W02
        BYTE                   35
        BYTE   W01
        BYTE                   34
        BYTE   W02
        BYTE                   33
        BYTE   W03
        BYTE                   32
        BYTE   W01
        BYTE                   31
        BYTE   W03
        BYTE                   30
        BYTE   W02
        BYTE                   29
        BYTE   W01
        BYTE                   28
        BYTE   W02
        BYTE                   27
        BYTE   W01
        BYTE                   26
        BYTE   W03
        BYTE                   24
        BYTE   W02
        BYTE                   23
        BYTE   W01
        BYTE                   22
        BYTE   W02
        BYTE                   21
        BYTE   W03
        BYTE                   19
        BYTE   W01
        BYTE                   18
        BYTE   W02
        BYTE                   17
        BYTE   W01
        BYTE                   16
        BYTE   W02
        BYTE                   15
        BYTE   W01
// 033   ----------------------------------------
        BYTE                   14
        BYTE   W02
        BYTE                   13
        BYTE   W01
        BYTE                   11
        BYTE   W02
        BYTE                   10
        BYTE   W01
        BYTE                   9
        BYTE   W02
        BYTE                   42
        BYTE           N92     Cn4   v104   gtp3
        BYTE   W32
        BYTE   W01
        BYTE           VOL     43
        BYTE   W10
        BYTE                   44
        BYTE   W15
        BYTE                   45
        BYTE   W06
        BYTE                   46
        BYTE   W06
        BYTE                   47
        BYTE   W12
        BYTE                   48
        BYTE   W06
// 034   ----------------------------------------
        BYTE                   49
        BYTE   W08
        BYTE           N92     Cn4   v111   gtp3
        BYTE   W88
// 035   ----------------------------------------
EndingTheme_7_35:
        BYTE   W08
        BYTE           N44     Dn3   v119   gtp3
        BYTE   W48
        BYTE                   Gn3   v114
        BYTE   W40
        BYTE   PEND
// 036   ----------------------------------------
        BYTE   W08
        BYTE                   As3   v110
        BYTE   W48
        BYTE                   Dn4   v105
        BYTE   W40
// 037   ----------------------------------------
        BYTE   W08
        BYTE           N92     Cn4   v100   gtp3
        BYTE   W88
// 038   ----------------------------------------
        BYTE   W08
        BYTE                   Cn4   v110
        BYTE   W88
// 039   ----------------------------------------
        BYTE   PATT
         POIN2  EndingTheme_7_35
// 040   ----------------------------------------
        BYTE   W08
        BYTE           N44     As3   v109   gtp3
        BYTE   W48
        BYTE                   Dn4   v104
        BYTE   W40
// 041   ----------------------------------------
        BYTE   W08
        BYTE           VOL     47
        BYTE           TIE     Ds4   v099
        BYTE   W12
        BYTE           VOL     46
        BYTE   W09
        BYTE                   45
        BYTE   W06
        BYTE                   44
        BYTE   W12
        BYTE                   43
        BYTE   W06
        BYTE                   42
        BYTE   W12
        BYTE                   41
        BYTE   W12
        BYTE                   40
        BYTE   W06
        BYTE                   39
        BYTE   W12
        BYTE                   38
        BYTE   W01
// 042   ----------------------------------------
        BYTE   PATT
         POIN2  EndingTheme_1_42
// 043   ----------------------------------------
        BYTE   W02
        BYTE           VOL     5
        BYTE   W05
        BYTE           EOT     Ds4
        BYTE   W88
        BYTE   W01
// 044   ----------------------------------------
        BYTE   W08
        BYTE           VOL     49
        BYTE   W88
// 045   ----------------------------------------
        BYTE   W96
// 046   ----------------------------------------
        BYTE   W96
// 047   ----------------------------------------
        BYTE   W96
// 048   ----------------------------------------
        BYTE   W96
// 049   ----------------------------------------
        BYTE   W96
// 050   ----------------------------------------
        BYTE   W96
// 051   ----------------------------------------
        BYTE   W96
// 052   ----------------------------------------
        BYTE   W96
// 053   ----------------------------------------
        BYTE   W96
// 054   ----------------------------------------
        BYTE   W96
// 055   ----------------------------------------
        BYTE   W96
// 056   ----------------------------------------
        BYTE   W96
// 057   ----------------------------------------
        BYTE   W96
// 058   ----------------------------------------
        BYTE   W96
// 059   ----------------------------------------
        BYTE   W96
// 060   ----------------------------------------
        BYTE   W96
// 061   ----------------------------------------
        BYTE   W96
// 062   ----------------------------------------
        BYTE   W96
// 063   ----------------------------------------
        BYTE   W96
// 064   ----------------------------------------
        BYTE   W96
// 065   ----------------------------------------
        BYTE   W96
// 066   ----------------------------------------
        BYTE   W96
// 067   ----------------------------------------
        BYTE   W96
// 068   ----------------------------------------
        BYTE   W96
// 069   ----------------------------------------
        BYTE   W24
        BYTE           VOICE   0
        BYTE           VOL     100
        BYTE           PAN     c_v+0
        BYTE   GoTo
         POIN2  EndingTheme_7_LOOP
        BYTE   FINE

//***************** Track 8 (Midi-Chn.10) ******************//

EndingTheme_8:
        BYTE   KEYSH   EndingTheme_key+0
// 000   ----------------------------------------
EndingTheme_8_LOOP:
        BYTE   W24
// 001   ----------------------------------------
        BYTE           VOICE   52
        BYTE           VOL     52
        BYTE   W96
// 002   ----------------------------------------
        BYTE   W96
// 003   ----------------------------------------
        BYTE   W96
// 004   ----------------------------------------
        BYTE   W96
// 005   ----------------------------------------
        BYTE   W96
// 006   ----------------------------------------
        BYTE   W96
// 007   ----------------------------------------
        BYTE   W96
// 008   ----------------------------------------
        BYTE   W96
// 009   ----------------------------------------
        BYTE   W08
        BYTE           N92     Dn3   v096   gtp3
        BYTE   W88
// 010   ----------------------------------------
        BYTE   W08
        BYTE                   Dn3   v107
        BYTE   W88
// 011   ----------------------------------------
        BYTE   W08
        BYTE           N44     En3   v119   gtp3
        BYTE   W48
        BYTE                   Fn3   v112
        BYTE   W40
// 012   ----------------------------------------
EndingTheme_8_12:
        BYTE   W08
        BYTE           N92     Gn3   v106   gtp3
        BYTE   W88
        BYTE   PEND
// 013   ----------------------------------------
        BYTE   W08
        BYTE                   Dn3   v093
        BYTE   W88
// 014   ----------------------------------------
        BYTE   W08
        BYTE                   Dn3   v103
        BYTE   W88
// 015   ----------------------------------------
        BYTE   W08
        BYTE           N44     En3   v116   gtp3
        BYTE   W48
        BYTE                   Fn3   v114
        BYTE   W40
// 016   ----------------------------------------
        BYTE   PATT
         POIN2  EndingTheme_8_12
// 017   ----------------------------------------
        BYTE   W96
// 018   ----------------------------------------
        BYTE   W96
// 019   ----------------------------------------
        BYTE   W96
// 020   ----------------------------------------
        BYTE   W96
// 021   ----------------------------------------
        BYTE   W96
// 022   ----------------------------------------
        BYTE   W96
// 023   ----------------------------------------
        BYTE   W96
// 024   ----------------------------------------
        BYTE   W96
// 025   ----------------------------------------
        BYTE   W96
// 026   ----------------------------------------
        BYTE   W96
// 027   ----------------------------------------
        BYTE   W96
// 028   ----------------------------------------
        BYTE   W96
// 029   ----------------------------------------
        BYTE   W96
// 030   ----------------------------------------
        BYTE   W96
// 031   ----------------------------------------
        BYTE   W96
// 032   ----------------------------------------
        BYTE   W88
        BYTE           VOICE   48
        BYTE   W01
        BYTE           PAN     c_v+20
        BYTE           VOL     58
        BYTE   W07
// 033   ----------------------------------------
EndingTheme_8_33:
        BYTE   W08
        BYTE           N05     Cn5   v117
        BYTE   W24
        BYTE                   Cn5
        BYTE   W24
        BYTE                   Cn5
        BYTE   W24
        BYTE                   Cn5
        BYTE   W16
        BYTE   PEND
// 034   ----------------------------------------
        BYTE   PATT
         POIN2  EndingTheme_8_33
// 035   ----------------------------------------
        BYTE   PATT
         POIN2  EndingTheme_8_33
// 036   ----------------------------------------
        BYTE   PATT
         POIN2  EndingTheme_8_33
// 037   ----------------------------------------
        BYTE   PATT
         POIN2  EndingTheme_8_33
// 038   ----------------------------------------
        BYTE   PATT
         POIN2  EndingTheme_8_33
// 039   ----------------------------------------
        BYTE   PATT
         POIN2  EndingTheme_8_33
// 040   ----------------------------------------
        BYTE   PATT
         POIN2  EndingTheme_8_33
// 041   ----------------------------------------
        BYTE   W08
        BYTE           N05     Cn5   v117
        BYTE   W16
        BYTE                   Cn5   v060
        BYTE   W08
        BYTE                   Cn5   v117
        BYTE   W16
        BYTE                   Cn5   v060
        BYTE   W08
        BYTE                   Cn5   v117
        BYTE   W16
        BYTE                   Cn5   v060
        BYTE   W08
        BYTE                   Cn5   v117
        BYTE   W16
// 042   ----------------------------------------
EndingTheme_8_42:
        BYTE           N05     Cn5   v060
        BYTE   W08
        BYTE                   Cn5   v117
        BYTE   W16
        BYTE                   Cn5   v060
        BYTE   W08
        BYTE                   Cn5   v117
        BYTE   W16
        BYTE                   Cn5   v060
        BYTE   W08
        BYTE                   Cn5   v117
        BYTE   W16
        BYTE                   Cn5   v060
        BYTE   W08
        BYTE                   Cn5   v117
        BYTE   W16
        BYTE   PEND
// 043   ----------------------------------------
        BYTE   PATT
         POIN2  EndingTheme_8_42
// 044   ----------------------------------------
        BYTE   PATT
         POIN2  EndingTheme_8_42
// 045   ----------------------------------------
        BYTE   PATT
         POIN2  EndingTheme_8_42
// 046   ----------------------------------------
        BYTE   PATT
         POIN2  EndingTheme_8_42
// 047   ----------------------------------------
        BYTE   PATT
         POIN2  EndingTheme_8_42
// 048   ----------------------------------------
        BYTE   PATT
         POIN2  EndingTheme_8_42
// 049   ----------------------------------------
        BYTE           N05     Cn5   v060
        BYTE   W08
        BYTE                   Bn4   v107
        BYTE   W16
        BYTE                   Bn4   v050
        BYTE   W08
        BYTE                   Bn4   v097
        BYTE   W16
        BYTE                   Bn4   v040
        BYTE   W08
        BYTE                   Bn4   v087
        BYTE   W16
        BYTE                   Bn4   v030
        BYTE   W08
        BYTE                   Bn4   v077
        BYTE   W16
// 050   ----------------------------------------
        BYTE                   Bn4   v020
        BYTE   W08
        BYTE                   Bn4   v067
        BYTE   W16
        BYTE                   Bn4   v010
        BYTE   W08
        BYTE                   Bn4   v057
        BYTE   W24
        BYTE                   Bn4   v047
        BYTE   W24
        BYTE                   Bn4   v037
        BYTE   W16
// 051   ----------------------------------------
        BYTE   W96
// 052   ----------------------------------------
        BYTE   W96
// 053   ----------------------------------------
        BYTE   W96
// 054   ----------------------------------------
        BYTE   W96
// 055   ----------------------------------------
        BYTE   W96
// 056   ----------------------------------------
        BYTE   W96
// 057   ----------------------------------------
        BYTE   W96
// 058   ----------------------------------------
        BYTE   W96
// 059   ----------------------------------------
        BYTE   W96
// 060   ----------------------------------------
        BYTE   W96
// 061   ----------------------------------------
        BYTE   W96
// 062   ----------------------------------------
        BYTE   W96
// 063   ----------------------------------------
        BYTE   W96
// 064   ----------------------------------------
        BYTE   W96
// 065   ----------------------------------------
        BYTE   W96
// 066   ----------------------------------------
        BYTE   W96
// 067   ----------------------------------------
        BYTE   W96
// 068   ----------------------------------------
        BYTE   W96
// 069   ----------------------------------------
        BYTE           PAN     c_v+0
        BYTE           VOL     52
        BYTE           VOICE   52
        BYTE   W24
        BYTE                   0
        BYTE           VOL     100
        BYTE   GoTo
         POIN2  EndingTheme_8_LOOP
        BYTE   FINE

//***************** Track 9 (Midi-Chn.11) ******************//

EndingTheme_9:
        BYTE   KEYSH   EndingTheme_key+0
// 000   ----------------------------------------
EndingTheme_9_LOOP:
        BYTE   W24
// 001   ----------------------------------------
        BYTE           VOICE   48
        BYTE           PAN     c_v-50
        BYTE           VOL     49
        BYTE   W08
        BYTE           N44     Gn3   v092   gtp3
        BYTE   W48
        BYTE                   As3   v097
        BYTE   W40
// 002   ----------------------------------------
        BYTE   W08
        BYTE                   An3   v102
        BYTE   W48
        BYTE                   Cn4   v107
        BYTE   W40
// 003   ----------------------------------------
        BYTE   W08
        BYTE                   Cn4   v114
        BYTE   W48
        BYTE                   An3   v108
        BYTE   W40
// 004   ----------------------------------------
        BYTE   W08
        BYTE                   Bn3   v103
        BYTE   W48
        BYTE                   An3   v098
        BYTE   W40
// 005   ----------------------------------------
        BYTE   W08
        BYTE                   Gn3   v094
        BYTE   W48
        BYTE                   As3   v099
        BYTE   W40
// 006   ----------------------------------------
        BYTE   W08
        BYTE                   An3   v104
        BYTE   W48
        BYTE                   Cn4   v110
        BYTE   W40
// 007   ----------------------------------------
        BYTE   W08
        BYTE                   Cn4   v116
        BYTE   W48
        BYTE                   An3   v110
        BYTE   W40
// 008   ----------------------------------------
        BYTE   W08
        BYTE                   Bn3   v105
        BYTE   W48
        BYTE                   An3   v099
        BYTE   W40
// 009   ----------------------------------------
        BYTE   W06
        BYTE           PAN     c_v-30
        BYTE   W02
        BYTE           N92     Gn3   v092   gtp3
        BYTE   W88
// 010   ----------------------------------------
        BYTE   W08
        BYTE                   As3   v102
        BYTE   W88
// 011   ----------------------------------------
        BYTE   W08
        BYTE           N44     Gn3   v114   gtp3
        BYTE   W48
        BYTE                   An3   v109
        BYTE   W40
// 012   ----------------------------------------
        BYTE   W08
        BYTE                   Bn3   v103
        BYTE   W48
        BYTE                   Cn4   v098
        BYTE   W40
// 013   ----------------------------------------
        BYTE   W08
        BYTE           N92     Gn3   v096   gtp3
        BYTE   W88
// 014   ----------------------------------------
        BYTE   W08
        BYTE                   As3   v106
        BYTE   W88
// 015   ----------------------------------------
        BYTE   W08
        BYTE           N44     Gn3   v116   gtp3
        BYTE   W48
        BYTE                   An3   v112
        BYTE   W40
// 016   ----------------------------------------
        BYTE   W08
        BYTE                   Bn3   v108
        BYTE   W48
        BYTE                   Cn4   v104
        BYTE   W40
// 017   ----------------------------------------
        BYTE   W06
        BYTE           PAN     c_v-50
        BYTE   W02
        BYTE           N44     Gn3   v099   gtp3
        BYTE   W48
        BYTE                   As3   v104
        BYTE   W40
// 018   ----------------------------------------
        BYTE   W08
        BYTE                   An3   v108
        BYTE   W48
        BYTE                   Cn4   v113
        BYTE   W40
// 019   ----------------------------------------
        BYTE   W08
        BYTE                   Cn4   v117
        BYTE   W48
        BYTE                   An3   v111
        BYTE   W40
// 020   ----------------------------------------
        BYTE   W08
        BYTE                   Bn3   v105
        BYTE   W48
        BYTE                   An3   v098
        BYTE   W40
// 021   ----------------------------------------
        BYTE   W08
        BYTE                   Gn3   v095
        BYTE   W48
        BYTE                   As3   v100
        BYTE   W40
// 022   ----------------------------------------
        BYTE   W08
        BYTE                   An3   v105
        BYTE   W48
        BYTE                   Cn4   v110
        BYTE   W40
// 023   ----------------------------------------
        BYTE   W08
        BYTE                   Cn4   v115
        BYTE   W48
        BYTE                   An3   v112
        BYTE   W40
// 024   ----------------------------------------
        BYTE   W08
        BYTE                   Bn3   v107
        BYTE   W48
        BYTE                   An3   v102
        BYTE   W40
// 025   ----------------------------------------
        BYTE   W06
        BYTE           PAN     c_v-40
        BYTE   W02
        BYTE           N92     As3   v097   gtp3
        BYTE   W88
// 026   ----------------------------------------
EndingTheme_9_26:
        BYTE   W08
        BYTE           N92     As3   v096   gtp3
        BYTE   W88
        BYTE   PEND
// 027   ----------------------------------------
EndingTheme_9_27:
        BYTE   W08
        BYTE           N92     Cn4   v096   gtp3
        BYTE   W88
        BYTE   PEND
// 028   ----------------------------------------
        BYTE   PATT
         POIN2  EndingTheme_9_27
// 029   ----------------------------------------
        BYTE   PATT
         POIN2  EndingTheme_9_26
// 030   ----------------------------------------
        BYTE   PATT
         POIN2  EndingTheme_9_26
// 031   ----------------------------------------
        BYTE   PATT
         POIN2  EndingTheme_9_27
// 032   ----------------------------------------
        BYTE   W96
// 033   ----------------------------------------
EndingTheme_9_33:
        BYTE   W08
        BYTE           N92     Gs3   v095   gtp3
        BYTE   W88
        BYTE   PEND
// 034   ----------------------------------------
        BYTE   PATT
         POIN2  EndingTheme_9_33
// 035   ----------------------------------------
        BYTE   W96
// 036   ----------------------------------------
        BYTE   W96
// 037   ----------------------------------------
        BYTE   PATT
         POIN2  EndingTheme_9_33
// 038   ----------------------------------------
        BYTE   PATT
         POIN2  EndingTheme_9_33
// 039   ----------------------------------------
        BYTE   W96
// 040   ----------------------------------------
        BYTE   W96
// 041   ----------------------------------------
        BYTE   W96
// 042   ----------------------------------------
        BYTE   W96
// 043   ----------------------------------------
        BYTE   W96
// 044   ----------------------------------------
        BYTE   W96
// 045   ----------------------------------------
        BYTE   W96
// 046   ----------------------------------------
        BYTE   W96
// 047   ----------------------------------------
        BYTE   W96
// 048   ----------------------------------------
        BYTE   W96
// 049   ----------------------------------------
        BYTE   W96
// 050   ----------------------------------------
        BYTE   W76
        BYTE   W01
        BYTE           PAN     c_v-20
        BYTE   W19
// 051   ----------------------------------------
        BYTE   W08
        BYTE           TIE     Ds3   v072
        BYTE   W88
// 052   ----------------------------------------
        BYTE   W96
// 053   ----------------------------------------
        BYTE   W07
        BYTE           EOT
        BYTE   W01
        BYTE           N92     Ds3   v079   gtp3
        BYTE   W88
// 054   ----------------------------------------
        BYTE   W08
        BYTE                   Dn3   v083
        BYTE   W88
// 055   ----------------------------------------
        BYTE   W08
        BYTE                   Ds3   v087
        BYTE   W88
// 056   ----------------------------------------
        BYTE   W08
        BYTE                   Ds3   v091
        BYTE   W88
// 057   ----------------------------------------
        BYTE   W08
        BYTE                   Ds3   v094
        BYTE   W88
// 058   ----------------------------------------
        BYTE   W08
        BYTE                   As2   v098
        BYTE   W88
// 059   ----------------------------------------
        BYTE   W08
        BYTE                   Cs3   v110
        BYTE   W88
// 060   ----------------------------------------
EndingTheme_9_60:
        BYTE   W08
        BYTE           N92     Cn3   v110   gtp3
        BYTE   W88
        BYTE   PEND
// 061   ----------------------------------------
        BYTE   PATT
         POIN2  EndingTheme_9_60
// 062   ----------------------------------------
        BYTE   W08
        BYTE           N48     As2   v110
        BYTE   W48
        BYTE                   Gs2
        BYTE   W40
// 063   ----------------------------------------
        BYTE   W08
        BYTE           N92     As2   v110   gtp3
        BYTE   W88
// 064   ----------------------------------------
        BYTE   W08
        BYTE           N48
        BYTE   W48
        BYTE                   Gn2
        BYTE   W40
// 065   ----------------------------------------
        BYTE   W08
        BYTE           TIE     An2
        BYTE   W88
// 066   ----------------------------------------
        BYTE   W96
// 067   ----------------------------------------
        BYTE   W96
// 068   ----------------------------------------
        BYTE   W07
        BYTE           EOT
        BYTE   W88
        BYTE   W01
// 069   ----------------------------------------
        BYTE           PAN     c_v-50
        BYTE   W24
        BYTE           VOICE   0
        BYTE           VOL     100
        BYTE           PAN     c_v+0
        BYTE   GoTo
         POIN2  EndingTheme_9_LOOP
        BYTE   FINE

//***************** Track 10 (Midi-Chn.13) *****************//

EndingTheme_10:
        BYTE   KEYSH   EndingTheme_key+0
// 000   ----------------------------------------
EndingTheme_10_LOOP:
        BYTE   W24
// 001   ----------------------------------------
        BYTE           VOICE   48
        BYTE           VOL     44
        BYTE   W08
        BYTE           N92     Ds2   v105   gtp3
        BYTE   W88
// 002   ----------------------------------------
EndingTheme_10_2:
        BYTE   W08
        BYTE           N92     Fn2   v105   gtp3
        BYTE   W88
        BYTE   PEND
// 003   ----------------------------------------
EndingTheme_10_3:
        BYTE   W08
        BYTE           N44     Gn2   v105   gtp3
        BYTE   W48
        BYTE                   Gn2
        BYTE   W40
        BYTE   PEND
// 004   ----------------------------------------
EndingTheme_10_4:
        BYTE   W08
        BYTE           N44     Gn2   v105   gtp3
        BYTE   W48
        BYTE                   Fn2
        BYTE   W40
        BYTE   PEND
// 005   ----------------------------------------
EndingTheme_10_5:
        BYTE   W08
        BYTE           N92     Ds2   v105   gtp3
        BYTE   W88
        BYTE   PEND
// 006   ----------------------------------------
        BYTE   PATT
         POIN2  EndingTheme_10_2
// 007   ----------------------------------------
        BYTE   PATT
         POIN2  EndingTheme_10_3
// 008   ----------------------------------------
        BYTE   PATT
         POIN2  EndingTheme_10_4
// 009   ----------------------------------------
        BYTE   W08
        BYTE           TIE     Ds2   v105
        BYTE   W88
// 010   ----------------------------------------
        BYTE   W96
// 011   ----------------------------------------
EndingTheme_10_11:
        BYTE   W07
        BYTE           EOT     Ds2
        BYTE   W01
        BYTE           TIE     Fn2   v105
        BYTE   W88
        BYTE   PEND
// 012   ----------------------------------------
        BYTE   W96
// 013   ----------------------------------------
        BYTE   W07
        BYTE           EOT
        BYTE   W01
        BYTE           TIE     Ds2
        BYTE   W88
// 014   ----------------------------------------
        BYTE   W96
// 015   ----------------------------------------
        BYTE   PATT
         POIN2  EndingTheme_10_11
// 016   ----------------------------------------
        BYTE   W96
// 017   ----------------------------------------
        BYTE   W07
        BYTE           EOT     Fn2
        BYTE   W01
        BYTE           N92     Ds2   v105   gtp3
        BYTE   W88
// 018   ----------------------------------------
        BYTE   PATT
         POIN2  EndingTheme_10_2
// 019   ----------------------------------------
        BYTE   PATT
         POIN2  EndingTheme_10_3
// 020   ----------------------------------------
        BYTE   PATT
         POIN2  EndingTheme_10_4
// 021   ----------------------------------------
        BYTE   PATT
         POIN2  EndingTheme_10_5
// 022   ----------------------------------------
        BYTE   PATT
         POIN2  EndingTheme_10_2
// 023   ----------------------------------------
        BYTE   W08
        BYTE           N44     Gn2   v105   gtp3
        BYTE   W24
        BYTE           VOL     43
        BYTE   W24
        BYTE           N44     Gn2   v105   gtp3
        BYTE   W15
        BYTE           VOL     42
        BYTE   W24
        BYTE   W01
// 024   ----------------------------------------
        BYTE   W02
        BYTE                   41
        BYTE   W06
        BYTE           N44     Gn2   v105   gtp3
        BYTE   W15
        BYTE           VOL     40
        BYTE   W12
        BYTE                   39
        BYTE   W12
        BYTE                   38
        BYTE   W09
        BYTE           N44     Fn2   v105   gtp3
        BYTE   W06
        BYTE           VOL     37
        BYTE   W09
        BYTE                   36
        BYTE   W12
        BYTE                   35
        BYTE   W09
        BYTE                   34
        BYTE   W04
// 025   ----------------------------------------
        BYTE   W08
        BYTE           N92     Gs1   v105   gtp3
        BYTE                   Gs2
        BYTE   W12
        BYTE           VOL     35
        BYTE   W60
        BYTE                   36
        BYTE   W16
// 026   ----------------------------------------
        BYTE   W08
        BYTE                   37
        BYTE           N92     Gs1   v105   gtp3
        BYTE                   Gs2
        BYTE   W18
        BYTE           VOL     38
        BYTE   W18
        BYTE                   39
        BYTE   W15
        BYTE                   40
        BYTE   W09
        BYTE                   41
        BYTE   W12
        BYTE                   42
        BYTE   W12
        BYTE                   43
        BYTE   W04
// 027   ----------------------------------------
        BYTE   W05
        BYTE                   44
        BYTE   W03
        BYTE           N92     As1   v105   gtp3
        BYTE                   As2
        BYTE   W54
        BYTE           VOL     43
        BYTE   W24
        BYTE   W03
        BYTE                   42
        BYTE   W07
// 028   ----------------------------------------
        BYTE   W08
        BYTE           N92     As1   v105   gtp3
        BYTE                   As2
        BYTE   W03
        BYTE           VOL     41
        BYTE   W18
        BYTE                   40
        BYTE   W09
        BYTE                   39
        BYTE   W12
        BYTE                   38
        BYTE   W12
        BYTE                   37
        BYTE   W12
        BYTE                   36
        BYTE   W09
        BYTE                   35
        BYTE   W12
        BYTE                   34
        BYTE   W01
// 029   ----------------------------------------
        BYTE   W08
        BYTE                   33
        BYTE           N92     Gs1   v105   gtp3
        BYTE                   Gs2
        BYTE   W03
        BYTE           VOL     34
        BYTE   W48
        BYTE   W03
        BYTE                   35
        BYTE   W24
        BYTE   W03
        BYTE                   36
        BYTE   W07
// 030   ----------------------------------------
        BYTE   W08
        BYTE           N92     Gs1   v105   gtp3
        BYTE                   Gs2
        BYTE   W03
        BYTE           VOL     37
        BYTE   W18
        BYTE                   38
        BYTE   W12
        BYTE                   39
        BYTE   W12
        BYTE                   40
        BYTE   W09
        BYTE                   41
        BYTE   W12
        BYTE                   42
        BYTE   W09
        BYTE                   43
        BYTE   W09
        BYTE                   44
        BYTE   W04
// 031   ----------------------------------------
        BYTE   W08
        BYTE                   43
        BYTE           N92     As1   v105   gtp3
        BYTE                   As2
        BYTE   W60
        BYTE           VOL     42
        BYTE   W21
        BYTE                   41
        BYTE   W07
// 032   ----------------------------------------
        BYTE   W08
        BYTE           N16     Gn1
        BYTE   W06
        BYTE           VOL     40
        BYTE   W09
        BYTE                   39
        BYTE   W01
        BYTE           N16     Gn1   v059
        BYTE   W14
        BYTE           VOL     38
        BYTE   W02
        BYTE           N16     Gn1   v050
        BYTE   W10
        BYTE           VOL     37
        BYTE   W06
        BYTE           N16     Gn1   v042
        BYTE   W06
        BYTE           VOL     36
        BYTE   W10
        BYTE           N16     Gn1   v034
        BYTE   W02
        BYTE           VOL     35
        BYTE   W09
        BYTE                   34
        BYTE   W05
        BYTE           N16     Gn1   v029
        BYTE   W08
// 033   ----------------------------------------
        BYTE   W08
        BYTE           N92     As1   v110   gtp3
        BYTE                   Ds4
        BYTE   W03
        BYTE           VOL     35
        BYTE   W24
        BYTE                   36
        BYTE   W18
        BYTE                   37
        BYTE   W12
        BYTE                   38
        BYTE   W09
        BYTE                   39
        BYTE   W06
        BYTE                   40
        BYTE   W06
        BYTE                   41
        BYTE   W06
        BYTE                   42
        BYTE   W04
// 034   ----------------------------------------
        BYTE   W02
        BYTE                   37
        BYTE   W06
        BYTE                   44
        BYTE           N92     As1   v110   gtp3
        BYTE                   Ds4
        BYTE   W18
        BYTE           VOL     43
        BYTE   W21
        BYTE                   42
        BYTE   W12
        BYTE                   41
        BYTE   W09
        BYTE                   40
        BYTE   W06
        BYTE                   39
        BYTE   W09
        BYTE                   38
        BYTE   W06
        BYTE                   37
        BYTE   W06
        BYTE                   36
        BYTE   W01
// 035   ----------------------------------------
        BYTE   W08
        BYTE           N44     As2   v110   gtp3
        BYTE                   Dn3
        BYTE           N44     Gn3   v110   gtp3
        BYTE           N92     Cn2   v110   gtp3
        BYTE   W09
        BYTE           VOL     37
        BYTE   W24
        BYTE                   38
        BYTE   W12
        BYTE                   39
        BYTE   W03
        BYTE           N44     Dn3   v110   gtp3
        BYTE                   Gn3
        BYTE           N44     As3   v110   gtp3
        BYTE   W09
        BYTE           VOL     40
        BYTE   W06
        BYTE                   41
        BYTE   W09
        BYTE                   42
        BYTE   W06
        BYTE                   43
        BYTE   W06
        BYTE                   44
        BYTE   W04
// 036   ----------------------------------------
        BYTE   W08
        BYTE                   43
        BYTE           N44     Fn3   v110   gtp3
        BYTE                   As3
        BYTE           N44     Dn4   v110   gtp3
        BYTE           N92     Cn2   v110   gtp3
        BYTE   W21
        BYTE           VOL     42
        BYTE   W21
        BYTE                   41
        BYTE   W06
        BYTE           N44     As3   v110   gtp3
        BYTE                   Dn4
        BYTE           N44     Fn4   v110   gtp3
        BYTE   W09
        BYTE           VOL     40
        BYTE   W09
        BYTE                   39
        BYTE   W09
        BYTE                   38
        BYTE   W09
        BYTE                   37
        BYTE   W04
// 037   ----------------------------------------
        BYTE   W05
        BYTE                   36
        BYTE   W03
        BYTE                   35
        BYTE           N92     As1   v110   gtp3
        BYTE                   Ds4
        BYTE   W03
        BYTE           VOL     36
        BYTE   W36
        BYTE                   37
        BYTE   W15
        BYTE                   38
        BYTE   W12
        BYTE                   39
        BYTE   W09
        BYTE                   40
        BYTE   W06
        BYTE                   41
        BYTE   W07
// 038   ----------------------------------------
        BYTE   W02
        BYTE                   42
        BYTE   W06
        BYTE                   43
        BYTE           N92     As1   v110   gtp3
        BYTE                   Ds4
        BYTE   W30
        BYTE           VOL     42
        BYTE   W15
        BYTE                   41
        BYTE   W09
        BYTE                   40
        BYTE   W06
        BYTE                   39
        BYTE   W09
        BYTE                   38
        BYTE   W09
        BYTE                   37
        BYTE   W06
        BYTE                   36
        BYTE   W04
// 039   ----------------------------------------
        BYTE   W02
        BYTE                   37
        BYTE   W06
        BYTE           N44     As2   v110   gtp3
        BYTE                   Dn3
        BYTE           N44     Gn3   v110   gtp3
        BYTE           N92     Cn2   v110   gtp3
        BYTE   W12
        BYTE           VOL     38
        BYTE   W21
        BYTE                   39
        BYTE   W15
        BYTE                   40
        BYTE           N44     Dn3   v110   gtp3
        BYTE                   Gn3
        BYTE           N44     As3   v110   gtp3
        BYTE   W06
        BYTE           VOL     41
        BYTE   W09
        BYTE                   42
        BYTE   W09
        BYTE                   43
        BYTE   W06
        BYTE                   44
        BYTE   W10
// 040   ----------------------------------------
        BYTE   W08
        BYTE           N44     Fn3   v110   gtp3
        BYTE                   As3
        BYTE           N44     Dn4   v110   gtp3
        BYTE           N92     Cn2   v110   gtp3
        BYTE   W24
        BYTE           VOL     43
        BYTE   W15
        BYTE                   42
        BYTE   W09
        BYTE           N44     As3   v110   gtp3
        BYTE                   Dn4
        BYTE           N44     Fn4   v110   gtp3
        BYTE   W03
        BYTE           VOL     41
        BYTE   W09
        BYTE                   40
        BYTE   W06
        BYTE                   39
        BYTE   W06
        BYTE                   38
        BYTE   W09
        BYTE                   37
        BYTE   W06
        BYTE                   36
        BYTE   W01
// 041   ----------------------------------------
        BYTE   W05
        BYTE                   35
        BYTE   W03
        BYTE           N92     Gs2   v110   gtp3
        BYTE                   Ds3
        BYTE           N92     As3   v110   gtp3
        BYTE   W03
        BYTE           VOL     34
        BYTE   W03
        BYTE                   35
        BYTE   W24
        BYTE                   36
        BYTE   W15
        BYTE                   37
        BYTE   W12
        BYTE                   38
        BYTE   W09
        BYTE                   39
        BYTE   W06
        BYTE                   40
        BYTE   W06
        BYTE                   41
        BYTE   W06
        BYTE                   42
        BYTE   W04
// 042   ----------------------------------------
        BYTE   W02
        BYTE                   43
        BYTE   W06
        BYTE                   44
        BYTE           N92     Gs2   v110   gtp3
        BYTE                   Ds3
        BYTE           N92     As3   v110   gtp3
        BYTE   W30
        BYTE           VOL     43
        BYTE   W15
        BYTE                   42
        BYTE   W09
        BYTE                   41
        BYTE   W06
        BYTE                   40
        BYTE   W06
        BYTE                   39
        BYTE   W06
        BYTE                   38
        BYTE   W06
        BYTE                   37
        BYTE   W06
        BYTE                   36
        BYTE   W03
        BYTE                   35
        BYTE   W01
// 043   ----------------------------------------
        BYTE   W08
        BYTE           N92     As2   v110   gtp3
        BYTE                   Fn3
        BYTE           N92     Cn4   v110   gtp3
        BYTE   W12
        BYTE           VOL     36
        BYTE   W21
        BYTE                   37
        BYTE   W12
        BYTE                   38
        BYTE   W09
        BYTE                   39
        BYTE   W09
        BYTE                   40
        BYTE   W06
        BYTE                   41
        BYTE   W06
        BYTE                   42
        BYTE   W09
        BYTE                   43
        BYTE   W04
// 044   ----------------------------------------
        BYTE   W05
        BYTE                   44
        BYTE   W03
        BYTE           N92     As2   v110   gtp3
        BYTE                   Fn3
        BYTE           N92     Cn4   v110   gtp3
        BYTE   W24
        BYTE           VOL     43
        BYTE   W15
        BYTE                   42
        BYTE   W09
        BYTE                   41
        BYTE   W09
        BYTE                   40
        BYTE   W06
        BYTE                   39
        BYTE   W06
        BYTE                   38
        BYTE   W06
        BYTE                   37
        BYTE   W06
        BYTE                   36
        BYTE   W06
        BYTE                   35
        BYTE   W01
// 045   ----------------------------------------
        BYTE   W08
        BYTE           N92     Gs2   v110   gtp3
        BYTE                   Ds3
        BYTE           N92     Gn3   v110   gtp3
        BYTE                   Cn4
        BYTE   W21
        BYTE           VOL     36
        BYTE   W18
        BYTE                   37
        BYTE   W12
        BYTE                   38
        BYTE   W09
        BYTE                   39
        BYTE   W09
        BYTE                   40
        BYTE   W03
        BYTE                   41
        BYTE   W09
        BYTE                   42
        BYTE   W06
        BYTE                   43
        BYTE   W01
// 046   ----------------------------------------
        BYTE   W05
        BYTE                   44
        BYTE   W03
        BYTE           N92     Gs2   v110   gtp3
        BYTE                   Ds3
        BYTE           N92     Gn3   v110   gtp3
        BYTE                   Cn4
        BYTE   W06
        BYTE           VOL     43
        BYTE   W21
        BYTE                   42
        BYTE   W12
        BYTE                   41
        BYTE   W09
        BYTE                   40
        BYTE   W06
        BYTE                   39
        BYTE   W09
        BYTE                   38
        BYTE   W06
        BYTE                   37
        BYTE   W06
        BYTE                   36
        BYTE   W03
        BYTE                   35
        BYTE   W06
        BYTE                   34
        BYTE   W04
// 047   ----------------------------------------
        BYTE   W08
        BYTE           TIE     Gn2
        BYTE           TIE     Dn3
        BYTE           TIE     Gn3
        BYTE           TIE     Cn4
        BYTE   W21
        BYTE           VOL     35
        BYTE   W15
        BYTE                   36
        BYTE   W09
        BYTE                   37
        BYTE   W09
        BYTE                   38
        BYTE   W09
        BYTE                   39
        BYTE   W06
        BYTE                   40
        BYTE   W06
        BYTE                   41
        BYTE   W06
        BYTE                   42
        BYTE   W06
        BYTE                   43
        BYTE   W01
// 048   ----------------------------------------
        BYTE   W05
        BYTE                   44
        BYTE   W18
        BYTE                   43
        BYTE   W30
        BYTE                   42
        BYTE   W09
        BYTE                   41
        BYTE   W09
        BYTE                   40
        BYTE   W06
        BYTE                   39
        BYTE   W06
        BYTE                   38
        BYTE   W06
        BYTE                   37
        BYTE   W06
        BYTE                   36
        BYTE   W01
// 049   ----------------------------------------
        BYTE   W07
        BYTE           EOT     Gn2
        BYTE                   Dn3
        BYTE                   Gn3
        BYTE                   Cn4
        BYTE   W01
        BYTE           TIE     Gn2
        BYTE           TIE     Dn3
        BYTE           TIE     Gn3
        BYTE           TIE     Bn3
        BYTE   W21
        BYTE           VOL     37
        BYTE   W12
        BYTE                   38
        BYTE   W12
        BYTE                   39
        BYTE   W06
        BYTE                   40
        BYTE   W04
        BYTE                   41
        BYTE   W08
        BYTE                   42
        BYTE   W06
        BYTE                   43
        BYTE   W04
        BYTE                   36
        BYTE   W05
        BYTE                   43
        BYTE   W10
// 050   ----------------------------------------
        BYTE   W03
        BYTE                   42
        BYTE   W11
        BYTE                   41
        BYTE   W06
        BYTE                   40
        BYTE   W03
        BYTE                   39
        BYTE   W04
        BYTE                   38
        BYTE   W05
        BYTE                   37
        BYTE   W03
        BYTE                   36
        BYTE   W06
        BYTE                   35
        BYTE   W03
        BYTE                   34
        BYTE   W03
        BYTE                   32
        BYTE   W04
        BYTE                   31
        BYTE   W02
        BYTE                   30
        BYTE   W03
        BYTE                   29
        BYTE   W03
        BYTE                   28
        BYTE   W03
        BYTE                   27
        BYTE   W03
        BYTE                   25
        BYTE   W03
        BYTE                   23
        BYTE   W03
        BYTE                   22
        BYTE   W01
        BYTE                   21
        BYTE   W02
        BYTE                   20
        BYTE   W03
        BYTE                   19
        BYTE   W01
        BYTE                   18
        BYTE   W02
        BYTE                   17
        BYTE   W01
        BYTE                   16
        BYTE   W03
        BYTE                   15
        BYTE   W02
        BYTE                   14
        BYTE   W03
        BYTE                   12
        BYTE   W03
        BYTE                   10
        BYTE   W04
// 051   ----------------------------------------
        BYTE   W02
        BYTE                   8
        BYTE   W04
        BYTE                   3
        BYTE   W01
        BYTE           EOT     Gn2
        BYTE                   Dn3
        BYTE                   Gn3
        BYTE                   Bn3
        BYTE   W01
        BYTE           TIE     Gs1   v120
        BYTE           TIE     Gn3   v080
        BYTE   W01
        BYTE           VOL     7
        BYTE   W02
        BYTE                   9
        BYTE   W01
        BYTE                   12
        BYTE   W02
        BYTE                   14
        BYTE   W01
        BYTE                   16
        BYTE   W02
        BYTE                   19
        BYTE   W01
        BYTE                   21
        BYTE   W02
        BYTE                   23
        BYTE   W01
        BYTE                   25
        BYTE   W02
        BYTE                   28
        BYTE   W01
        BYTE                   30
        BYTE   W02
        BYTE                   32
        BYTE   W01
        BYTE                   35
        BYTE   W02
        BYTE                   37
        BYTE   W01
        BYTE                   39
        BYTE   W02
        BYTE                   42
        BYTE   W01
        BYTE                   44
        BYTE   W60
        BYTE   W03
// 052   ----------------------------------------
        BYTE   W96
// 053   ----------------------------------------
        BYTE   W07
        BYTE           EOT     Gs1
        BYTE                   Gn3
        BYTE   W01
        BYTE           TIE     Gn1   v120
        BYTE           TIE     Gn3   v080
        BYTE   W88
// 054   ----------------------------------------
        BYTE   W96
// 055   ----------------------------------------
        BYTE   W07
        BYTE           EOT     Gn1
        BYTE                   Gn3
        BYTE   W01
        BYTE           N92     Fs1   v120   gtp3
        BYTE                   As3   v080
        BYTE   W88
// 056   ----------------------------------------
        BYTE   W08
        BYTE                   Fs1   v120
        BYTE           N92     Gs3   v080   gtp3
        BYTE   W88
// 057   ----------------------------------------
        BYTE   W08
        BYTE                   Fn1   v120
        BYTE           N92     Gs3   v080   gtp3
        BYTE   W88
// 058   ----------------------------------------
        BYTE   W08
        BYTE           N23     Fn3
        BYTE           N23     As3
        BYTE           N92     Fn1   v120   gtp3
        BYTE   W24
        BYTE           N23     As3   v089
        BYTE           N23     Dn4
        BYTE   W24
        BYTE                   Cn4
        BYTE           N23     Ds4
        BYTE   W24
        BYTE                   Dn4
        BYTE           N23     Fn4
        BYTE   W16
// 059   ----------------------------------------
        BYTE   W08
        BYTE           N92     Fs1   v120   gtp3
        BYTE                   Fn3   v110
        BYTE   W88
// 060   ----------------------------------------
        BYTE   W08
        BYTE                   Gs1   v120
        BYTE           N92     Ds3   v110   gtp3
        BYTE   W88
// 061   ----------------------------------------
        BYTE   W08
        BYTE                   Fn1   v120
        BYTE           N92     Ds3   v110   gtp3
        BYTE   W88
// 062   ----------------------------------------
        BYTE   W08
        BYTE           N48     As1   v120
        BYTE           N48     Cs3   v110
        BYTE   W48
        BYTE                   Gs1   v120
        BYTE           N48     Cn3   v110
        BYTE   W40
// 063   ----------------------------------------
        BYTE   W08
        BYTE           N92     Fs1   v120   gtp3
        BYTE                   Cs3   v110
        BYTE   W88
// 064   ----------------------------------------
        BYTE   W08
        BYTE           N48     Ds1   v120
        BYTE           N48     Cs3   v110
        BYTE   W48
        BYTE                   Cn1   v120
        BYTE           N48     As2   v110
        BYTE   W40
// 065   ----------------------------------------
        BYTE   W08
        BYTE           TIE     Fn1   v120
        BYTE           TIE     Cn3   v110
        BYTE   W88
// 066   ----------------------------------------
        BYTE   W96
// 067   ----------------------------------------
        BYTE   W96
// 068   ----------------------------------------
        BYTE   W07
        BYTE           EOT     Fn1
        BYTE                   Cn3
        BYTE   W88
        BYTE   W01
// 069   ----------------------------------------
        BYTE   W24
        BYTE           VOICE   0
        BYTE           VOL     100
        BYTE   GoTo
         POIN2  EndingTheme_10_LOOP
        BYTE   FINE

//***************** Track 11 (Midi-Chn.14) *****************//

EndingTheme_11:
        BYTE   KEYSH   EndingTheme_key+0
// 000   ----------------------------------------
EndingTheme_11_LOOP:
        BYTE   W24
// 001   ----------------------------------------
        BYTE           VOICE   47
        BYTE           VOL     58
        BYTE           N03     As0   v100
        BYTE   W04
        BYTE                   As0
        BYTE   W04
        BYTE           N17     Ds1   v127
        BYTE   W72
        BYTE           N03     Ds1   v082
        BYTE   W08
        BYTE                   As1   v110
        BYTE   W08
// 002   ----------------------------------------
EndingTheme_11_2:
        BYTE           N03     Ds1   v102
        BYTE   W08
        BYTE           N20     Fn1   v127
        BYTE   W56
        BYTE           N03     Fn1   v075
        BYTE   W08
        BYTE                   Cn2   v095
        BYTE   W08
        BYTE                   Fn1   v082
        BYTE   W08
        BYTE                   Cn2   v110
        BYTE   W08
        BYTE   PEND
// 003   ----------------------------------------
EndingTheme_11_3:
        BYTE           N03     Fn1   v102
        BYTE   W08
        BYTE           N20     Gn1   v127
        BYTE   W72
        BYTE           N03     Dn1   v082
        BYTE   W08
        BYTE                   Gn1   v110
        BYTE   W08
        BYTE   PEND
// 004   ----------------------------------------
EndingTheme_11_4:
        BYTE           N03     Dn1   v102
        BYTE   W08
        BYTE           N20     Gn1   v127
        BYTE   W42
        BYTE           N01     Fn1   v060
        BYTE   W02
        BYTE                   Fn1   v081
        BYTE   W02
        BYTE                   Fn1   v107
        BYTE   W02
        BYTE                   Fn1
        BYTE   W24
        BYTE           N03     Cn1   v082
        BYTE   W08
        BYTE                   Fn1   v110
        BYTE   W08
        BYTE   PEND
// 005   ----------------------------------------
EndingTheme_11_5:
        BYTE           N03     Cn1   v102
        BYTE   W08
        BYTE           N17     Ds1   v127
        BYTE   W72
        BYTE           N03     Ds1   v082
        BYTE   W08
        BYTE                   As1   v110
        BYTE   W08
        BYTE   PEND
// 006   ----------------------------------------
        BYTE   PATT
         POIN2  EndingTheme_11_2
// 007   ----------------------------------------
        BYTE   PATT
         POIN2  EndingTheme_11_3
// 008   ----------------------------------------
        BYTE   PATT
         POIN2  EndingTheme_11_4
// 009   ----------------------------------------
        BYTE           N03     Cn1   v102
        BYTE   W08
        BYTE           N17     Ds1   v127
        BYTE   W72
        BYTE           N03     As1   v082
        BYTE   W08
        BYTE                   Ds1   v110
        BYTE   W08
// 010   ----------------------------------------
EndingTheme_11_10:
        BYTE           N03     As1   v102
        BYTE   W08
        BYTE           N20     Ds1   v127
        BYTE   W56
        BYTE           N03     Ds1   v075
        BYTE   W08
        BYTE                   As1   v095
        BYTE   W08
        BYTE                   Ds1   v082
        BYTE   W08
        BYTE                   As1   v110
        BYTE   W08
        BYTE   PEND
// 011   ----------------------------------------
EndingTheme_11_11:
        BYTE           N03     Ds1   v102
        BYTE   W08
        BYTE           N20     Fn1   v127
        BYTE   W72
        BYTE           N03     Cn2   v082
        BYTE   W08
        BYTE                   Fn1   v110
        BYTE   W08
        BYTE   PEND
// 012   ----------------------------------------
EndingTheme_11_12:
        BYTE           N03     Cn2   v102
        BYTE   W08
        BYTE           N20     Fn1   v127
        BYTE   W56
        BYTE           N03     Cn2   v075
        BYTE   W08
        BYTE                   Fn1   v095
        BYTE   W08
        BYTE                   Cn2   v082
        BYTE   W08
        BYTE                   Fn1   v110
        BYTE   W08
        BYTE   PEND
// 013   ----------------------------------------
        BYTE                   Cn2   v102
        BYTE   W08
        BYTE           N17     Ds1   v127
        BYTE   W72
        BYTE           N03     As1   v082
        BYTE   W08
        BYTE                   Ds1   v110
        BYTE   W08
// 014   ----------------------------------------
        BYTE   PATT
         POIN2  EndingTheme_11_10
// 015   ----------------------------------------
        BYTE   PATT
         POIN2  EndingTheme_11_11
// 016   ----------------------------------------
        BYTE   PATT
         POIN2  EndingTheme_11_12
// 017   ----------------------------------------
        BYTE           N03     Cn2   v102
        BYTE   W08
        BYTE           N17     Ds1   v127
        BYTE   W72
        BYTE           N03     Ds1   v082
        BYTE   W08
        BYTE                   As1   v110
        BYTE   W08
// 018   ----------------------------------------
        BYTE   PATT
         POIN2  EndingTheme_11_2
// 019   ----------------------------------------
        BYTE   PATT
         POIN2  EndingTheme_11_3
// 020   ----------------------------------------
        BYTE   PATT
         POIN2  EndingTheme_11_4
// 021   ----------------------------------------
        BYTE   PATT
         POIN2  EndingTheme_11_5
// 022   ----------------------------------------
        BYTE   PATT
         POIN2  EndingTheme_11_2
// 023   ----------------------------------------
        BYTE   PATT
         POIN2  EndingTheme_11_3
// 024   ----------------------------------------
        BYTE   PATT
         POIN2  EndingTheme_11_4
// 025   ----------------------------------------
        BYTE           N03     Cn1   v102
        BYTE   W08
        BYTE           N17     Gs1   v127
        BYTE   W72
        BYTE           N03     Gs1   v082
        BYTE   W08
        BYTE                   Ds1   v110
        BYTE   W08
// 026   ----------------------------------------
        BYTE                   Gs1   v102
        BYTE   W08
        BYTE           N20     Gs1   v127
        BYTE   W56
        BYTE           N03     Ds1   v075
        BYTE   W08
        BYTE                   Gs1   v095
        BYTE   W08
        BYTE                   Ds1   v082
        BYTE   W08
        BYTE                   Gs1   v110
        BYTE   W08
// 027   ----------------------------------------
        BYTE                   Ds1   v102
        BYTE   W08
        BYTE           N20     As1   v127
        BYTE   W72
        BYTE           N03     As1   v082
        BYTE   W08
        BYTE                   Fn1   v110
        BYTE   W08
// 028   ----------------------------------------
        BYTE                   As1   v102
        BYTE   W08
        BYTE           N20     As1   v127
        BYTE   W56
        BYTE           N03     As1   v075
        BYTE   W08
        BYTE                   Fn1   v095
        BYTE   W08
        BYTE                   As1   v082
        BYTE   W08
        BYTE                   Fn1   v110
        BYTE   W08
// 029   ----------------------------------------
        BYTE                   As1   v102
        BYTE   W08
        BYTE           N17     Gs1   v127
        BYTE   W72
        BYTE           N03     Ds1   v082
        BYTE   W08
        BYTE                   Gs1   v110
        BYTE   W08
// 030   ----------------------------------------
        BYTE                   Ds1   v102
        BYTE   W08
        BYTE           N20     Gs1   v127
        BYTE   W56
        BYTE           N03     Ds1   v075
        BYTE   W08
        BYTE                   Gs1   v095
        BYTE   W08
        BYTE                   Ds1   v082
        BYTE   W08
        BYTE                   Gs1   v110
        BYTE   W08
// 031   ----------------------------------------
        BYTE                   Ds1   v102
        BYTE   W08
        BYTE           N20     As1   v127
        BYTE   W88
// 032   ----------------------------------------
        BYTE   W08
        BYTE                   Gn1
        BYTE   W88
// 033   ----------------------------------------
        BYTE   W08
        BYTE           N17     As1
        BYTE   W72
        BYTE           N03     Fn1   v082
        BYTE   W08
        BYTE                   As1   v110
        BYTE   W08
// 034   ----------------------------------------
EndingTheme_11_34:
        BYTE           N03     Fn1   v102
        BYTE   W08
        BYTE           N20     As1   v127
        BYTE   W56
        BYTE           N03     As1   v075
        BYTE   W08
        BYTE                   Fn1   v095
        BYTE   W08
        BYTE                   As1   v082
        BYTE   W08
        BYTE                   Fn1   v110
        BYTE   W08
        BYTE   PEND
// 035   ----------------------------------------
EndingTheme_11_35:
        BYTE           N03     As1   v102
        BYTE   W08
        BYTE           N20     Cn2   v127
        BYTE   W72
        BYTE           N03     Gn1   v082
        BYTE   W08
        BYTE                   Cn2   v110
        BYTE   W08
        BYTE   PEND
// 036   ----------------------------------------
EndingTheme_11_36:
        BYTE           N03     Gn1   v102
        BYTE   W08
        BYTE           N20     Cn2   v127
        BYTE   W56
        BYTE           N03     Cn2   v075
        BYTE   W08
        BYTE                   Gn1   v095
        BYTE   W08
        BYTE                   Cn2   v082
        BYTE   W08
        BYTE                   Gn1   v110
        BYTE   W08
        BYTE   PEND
// 037   ----------------------------------------
        BYTE                   Cn2   v102
        BYTE   W08
        BYTE           N17     As1   v127
        BYTE   W72
        BYTE           N03     Fn1   v082
        BYTE   W08
        BYTE                   As1   v110
        BYTE   W08
// 038   ----------------------------------------
        BYTE   PATT
         POIN2  EndingTheme_11_34
// 039   ----------------------------------------
        BYTE   PATT
         POIN2  EndingTheme_11_35
// 040   ----------------------------------------
        BYTE   PATT
         POIN2  EndingTheme_11_36
// 041   ----------------------------------------
        BYTE           N03     Cn2   v102
        BYTE   W08
        BYTE           N20     Gs1   v127
        BYTE   W88
// 042   ----------------------------------------
        BYTE   W96
// 043   ----------------------------------------
        BYTE   W96
// 044   ----------------------------------------
        BYTE   W96
// 045   ----------------------------------------
        BYTE   W96
// 046   ----------------------------------------
        BYTE   W96
// 047   ----------------------------------------
        BYTE   W96
// 048   ----------------------------------------
        BYTE   W96
// 049   ----------------------------------------
        BYTE   W96
// 050   ----------------------------------------
        BYTE   W96
// 051   ----------------------------------------
        BYTE   W96
// 052   ----------------------------------------
        BYTE   W96
// 053   ----------------------------------------
        BYTE   W96
// 054   ----------------------------------------
        BYTE   W96
// 055   ----------------------------------------
        BYTE   W96
// 056   ----------------------------------------
        BYTE   W96
// 057   ----------------------------------------
        BYTE   W96
// 058   ----------------------------------------
        BYTE   W56
        BYTE                   Fn1
        BYTE   W24
        BYTE                   Fn1
        BYTE   W16
// 059   ----------------------------------------
        BYTE   W08
        BYTE                   Fs1
        BYTE   W40
        BYTE           N03     Cs2   v080
        BYTE   W04
        BYTE                   Cs2   v103
        BYTE   W04
        BYTE           N20     Fs1   v127
        BYTE   W40
// 060   ----------------------------------------
        BYTE   W08
        BYTE                   Gs1
        BYTE   W40
        BYTE           N03     Ds2   v080
        BYTE   W04
        BYTE                   Ds2   v103
        BYTE   W04
        BYTE           N20     Gs1   v127
        BYTE   W40
// 061   ----------------------------------------
        BYTE   W08
        BYTE                   Fn1
        BYTE   W40
        BYTE           N03     Cn2   v080
        BYTE   W04
        BYTE                   Cn2   v103
        BYTE   W04
        BYTE           N20     Fn1   v127
        BYTE   W40
// 062   ----------------------------------------
        BYTE   W08
        BYTE                   As1
        BYTE   W40
        BYTE           N03     As1   v080
        BYTE   W04
        BYTE                   As1   v103
        BYTE   W04
        BYTE           N20     Gs1   v127
        BYTE   W24
        BYTE                   Gs1
        BYTE   W16
// 063   ----------------------------------------
        BYTE   W08
        BYTE           N17     Fs1
        BYTE   W72
        BYTE           N03     Fs1   v082
        BYTE   W08
        BYTE                   Cs2   v110
        BYTE   W08
// 064   ----------------------------------------
        BYTE                   Fs1   v102
        BYTE   W08
        BYTE           N20     Ds1   v127
        BYTE   W48
        BYTE                   Cn2
        BYTE   W24
        BYTE           N03     Gn1   v082
        BYTE   W08
        BYTE                   Cn2   v110
        BYTE   W08
// 065   ----------------------------------------
        BYTE                   Gn1   v102
        BYTE   W08
        BYTE           N20     Fn1   v127
        BYTE   W64
        BYTE           N03     Fn1   v110
        BYTE   W16
        BYTE                   Cn2   v102
        BYTE   W08
// 066   ----------------------------------------
        BYTE   W08
        BYTE           N16     Fn1   v127
        BYTE   W64
        BYTE           N03     Fn1   v110
        BYTE   W16
        BYTE                   Cn2   v100
        BYTE   W08
// 067   ----------------------------------------
        BYTE   W08
        BYTE           N16     Fn1   v127
        BYTE   W32
        BYTE           N03     Fn1   v100
        BYTE   W16
        BYTE                   Cn2
        BYTE   W16
        BYTE                   Fn1
        BYTE   W16
        BYTE                   Cn2
        BYTE   W08
// 068   ----------------------------------------
        BYTE   W08
        BYTE           N08     Fn1   v127
        BYTE   W16
        BYTE           N03     Fn1   v080
        BYTE   W08
        BYTE                   Cn2   v127
        BYTE   W08
        BYTE                   Fn1
        BYTE   W08
        BYTE                   Cn2
        BYTE   W08
        BYTE           N01     Fn1
        BYTE   W40
// 069   ----------------------------------------
        BYTE   W24
        BYTE           VOICE   0
        BYTE           VOL     100
        BYTE   GoTo
         POIN2  EndingTheme_11_LOOP
        BYTE   FINE


//********************** End of Song ***********************//

        ALIGN 4
EndingTheme:
        BYTE   12                      // Num Tracks
        BYTE   0                       // Unknown
        BYTE   EndingTheme_pri         // Priority
        BYTE   EndingTheme_rev         // Reverb

        POIN2   EndingTheme_grp        

        POIN2   EndingTheme_0
        POIN2   EndingTheme_1
        POIN2   EndingTheme_2
        POIN2   EndingTheme_3
        POIN2   EndingTheme_4
        POIN2   EndingTheme_5
        POIN2   EndingTheme_6
        POIN2   EndingTheme_7
        POIN2   EndingTheme_8
        POIN2   EndingTheme_9
        POIN2   EndingTheme_10
        POIN2   EndingTheme_11

        
