//Event file generated from Sappy .s format.
        #include "MPlayDef.event"

        #define    RandomDungeon3_grp  voicegroup000
        #define    RandomDungeon3_pri  0
        #define    RandomDungeon3_rev  0
        #define    RandomDungeon3_key  0

        // .rodata
        // RandomDungeon3
        ALIGN 4

//****************** Track 0 (Midi-Chn.0) ******************//

RandomDungeon3_0:
        BYTE   KEYSH   RandomDungeon3_key+0
// 000   ----------------------------------------
        BYTE   TEMPO   120/2
        BYTE   W24
// 001   ----------------------------------------
        BYTE   TEMPO   132/2
        BYTE           PAN     c_v-44
        BYTE           VOL     45
        BYTE           VOICE   48
        BYTE           N06     Fs3   v110
        BYTE   W12
        BYTE                   Fs3   v074
        BYTE   W12
        BYTE                   Fs3
        BYTE   W12
        BYTE                   Gn3   v110
        BYTE   W12
        BYTE                   Gn3   v074
        BYTE   W12
        BYTE                   Gn3   v110
        BYTE   W12
        BYTE                   Gn3   v074
        BYTE   W12
        BYTE                   Gn3   v110
        BYTE   W12
// 002   ----------------------------------------
RandomDungeon3_0_2:
        BYTE           N06     Fs3   v110
        BYTE   W12
        BYTE                   Fs3   v074
        BYTE   W12
        BYTE                   Fs3
        BYTE   W12
        BYTE                   En3   v110
        BYTE   W12
        BYTE                   En3   v074
        BYTE   W12
        BYTE                   En3   v110
        BYTE   W12
        BYTE                   En3   v074
        BYTE   W12
        BYTE                   En3   v110
        BYTE   W12
        BYTE   PEND
// 003   ----------------------------------------
RandomDungeon3_0_3:
        BYTE           N06     Fs3   v110
        BYTE   W12
        BYTE                   Fs3   v074
        BYTE   W12
        BYTE                   Fs3
        BYTE   W12
        BYTE                   Gn3   v110
        BYTE   W12
        BYTE                   Gn3   v074
        BYTE   W12
        BYTE                   Gn3   v110
        BYTE   W12
        BYTE                   Gn3   v074
        BYTE   W12
        BYTE                   Gn3   v110
        BYTE   W12
        BYTE   PEND
// 004   ----------------------------------------
        BYTE   PATT
         POIN2  RandomDungeon3_0_2
// 005   ----------------------------------------
RandomDungeon3_0_LOOP:
        BYTE           N06     Dn3   v110
        BYTE   W12
        BYTE                   Dn3   v074
        BYTE   W12
        BYTE                   Dn3
        BYTE   W12
        BYTE                   Dn3   v110
        BYTE   W12
        BYTE                   Dn3   v074
        BYTE   W12
        BYTE                   Dn3   v110
        BYTE   W12
        BYTE                   Dn3   v074
        BYTE   W12
        BYTE                   Dn3   v110
        BYTE   W12
// 006   ----------------------------------------
RandomDungeon3_0_6:
        BYTE           N06     Dn3   v110
        BYTE   W12
        BYTE                   Dn3   v074
        BYTE   W12
        BYTE                   Dn3
        BYTE   W12
        BYTE                   Cn3   v110
        BYTE   W12
        BYTE                   Cn3   v074
        BYTE   W12
        BYTE                   Cn3   v110
        BYTE   W12
        BYTE                   Cn3   v074
        BYTE   W12
        BYTE                   Cn3   v110
        BYTE   W12
        BYTE   PEND
// 007   ----------------------------------------
RandomDungeon3_0_7:
        BYTE           N06     Dn3   v110
        BYTE   W12
        BYTE                   Dn3   v074
        BYTE   W12
        BYTE                   Dn3
        BYTE   W12
        BYTE                   Dn3   v110
        BYTE   W12
        BYTE                   Dn3   v074
        BYTE   W12
        BYTE                   Dn3   v110
        BYTE   W12
        BYTE                   Dn3   v074
        BYTE   W12
        BYTE                   Dn3   v110
        BYTE   W12
        BYTE   PEND
// 008   ----------------------------------------
        BYTE   PATT
         POIN2  RandomDungeon3_0_6
// 009   ----------------------------------------
        BYTE   PATT
         POIN2  RandomDungeon3_0_7
// 010   ----------------------------------------
        BYTE   PATT
         POIN2  RandomDungeon3_0_6
// 011   ----------------------------------------
        BYTE   PATT
         POIN2  RandomDungeon3_0_7
// 012   ----------------------------------------
        BYTE   PATT
         POIN2  RandomDungeon3_0_7
// 013   ----------------------------------------
RandomDungeon3_0_13:
        BYTE           N06     An3   v120
        BYTE   W12
        BYTE                   An3   v084
        BYTE   W12
        BYTE                   An3
        BYTE   W12
        BYTE                   An3   v120
        BYTE   W12
        BYTE                   An3   v084
        BYTE   W12
        BYTE                   An3   v120
        BYTE   W12
        BYTE                   An3   v084
        BYTE   W12
        BYTE                   An3   v120
        BYTE   W12
        BYTE   PEND
// 014   ----------------------------------------
RandomDungeon3_0_14:
        BYTE           N06     An3   v120
        BYTE   W12
        BYTE                   An3   v084
        BYTE   W12
        BYTE                   An3
        BYTE   W12
        BYTE                   Gn3   v120
        BYTE   W12
        BYTE                   Gn3   v084
        BYTE   W12
        BYTE                   Gn3   v120
        BYTE   W12
        BYTE                   Gn3   v084
        BYTE   W12
        BYTE                   Gn3   v120
        BYTE   W12
        BYTE   PEND
// 015   ----------------------------------------
        BYTE   PATT
         POIN2  RandomDungeon3_0_13
// 016   ----------------------------------------
        BYTE   PATT
         POIN2  RandomDungeon3_0_14
// 017   ----------------------------------------
        BYTE   PATT
         POIN2  RandomDungeon3_0_13
// 018   ----------------------------------------
        BYTE   PATT
         POIN2  RandomDungeon3_0_14
// 019   ----------------------------------------
RandomDungeon3_0_19:
        BYTE           N06     Bn3   v120
        BYTE   W12
        BYTE                   Bn3   v084
        BYTE   W12
        BYTE                   Bn3
        BYTE   W12
        BYTE                   An3   v120
        BYTE   W12
        BYTE                   An3   v084
        BYTE   W12
        BYTE                   An3   v120
        BYTE   W12
        BYTE                   An3   v084
        BYTE   W12
        BYTE                   An3   v120
        BYTE   W12
        BYTE   PEND
// 020   ----------------------------------------
RandomDungeon3_0_20:
        BYTE           N06     Gn3   v120
        BYTE   W12
        BYTE                   Gn3   v084
        BYTE   W12
        BYTE                   Gn3
        BYTE   W12
        BYTE                   An3   v120
        BYTE   W12
        BYTE                   An3   v084
        BYTE   W12
        BYTE                   An3   v120
        BYTE   W12
        BYTE                   An3   v084
        BYTE   W12
        BYTE                   An3   v120
        BYTE   W12
        BYTE   PEND
// 021   ----------------------------------------
RandomDungeon3_0_21:
        BYTE           N06     Bn3   v120
        BYTE   W12
        BYTE                   Bn3   v084
        BYTE   W12
        BYTE                   Bn3
        BYTE   W12
        BYTE                   An3   v120
        BYTE   W12
        BYTE                   An3   v084
        BYTE   W12
        BYTE                   An3
        BYTE   W12
        BYTE                   An3   v120
        BYTE   W12
        BYTE                   An3   v084
        BYTE   W12
        BYTE   PEND
// 022   ----------------------------------------
        BYTE   PATT
         POIN2  RandomDungeon3_0_13
// 023   ----------------------------------------
RandomDungeon3_0_23:
        BYTE           N06     Bn2   v115
        BYTE   W24
        BYTE                   Bn2
        BYTE   W24
        BYTE                   Bn2
        BYTE   W24
        BYTE                   Bn2
        BYTE   W24
        BYTE   PEND
// 024   ----------------------------------------
        BYTE   PATT
         POIN2  RandomDungeon3_0_23
// 025   ----------------------------------------
RandomDungeon3_0_25:
        BYTE           N06     An2   v115
        BYTE   W24
        BYTE                   An2
        BYTE   W24
        BYTE                   An2
        BYTE   W24
        BYTE                   An2
        BYTE   W24
        BYTE   PEND
// 026   ----------------------------------------
        BYTE   PATT
         POIN2  RandomDungeon3_0_25
// 027   ----------------------------------------
RandomDungeon3_0_27:
        BYTE           N06     Gn2   v115
        BYTE   W24
        BYTE                   Gn2
        BYTE   W24
        BYTE                   Gn2
        BYTE   W24
        BYTE                   Gn2
        BYTE   W24
        BYTE   PEND
// 028   ----------------------------------------
        BYTE   PATT
         POIN2  RandomDungeon3_0_27
// 029   ----------------------------------------
RandomDungeon3_0_29:
        BYTE           N06     Fn2   v115
        BYTE   W24
        BYTE                   Fn2
        BYTE   W24
        BYTE                   Fn2
        BYTE   W24
        BYTE                   Fn2
        BYTE   W24
        BYTE   PEND
// 030   ----------------------------------------
        BYTE   PATT
         POIN2  RandomDungeon3_0_29
// 031   ----------------------------------------
RandomDungeon3_0_31:
        BYTE           N06     Cn4   v120
        BYTE   W12
        BYTE                   Cn4   v084
        BYTE   W12
        BYTE                   Cn4
        BYTE   W12
        BYTE                   Cn4   v120
        BYTE   W12
        BYTE                   Cn4   v084
        BYTE   W12
        BYTE                   Cn4   v120
        BYTE   W12
        BYTE                   Cn4   v084
        BYTE   W12
        BYTE                   Cn4   v120
        BYTE   W12
        BYTE   PEND
// 032   ----------------------------------------
        BYTE   PATT
         POIN2  RandomDungeon3_0_31
// 033   ----------------------------------------
RandomDungeon3_0_33:
        BYTE           N06     Dn4   v120
        BYTE   W12
        BYTE                   Dn4   v084
        BYTE   W12
        BYTE                   Dn4
        BYTE   W12
        BYTE                   Dn4   v120
        BYTE   W12
        BYTE                   Dn4   v084
        BYTE   W12
        BYTE                   Dn4   v120
        BYTE   W12
        BYTE                   Dn4   v084
        BYTE   W12
        BYTE                   Dn4   v120
        BYTE   W12
        BYTE   PEND
// 034   ----------------------------------------
        BYTE   PATT
         POIN2  RandomDungeon3_0_33
// 035   ----------------------------------------
RandomDungeon3_0_35:
        BYTE           N06     Ds4   v120
        BYTE   W12
        BYTE                   Ds4   v084
        BYTE   W12
        BYTE                   Ds4
        BYTE   W12
        BYTE                   Ds4   v120
        BYTE   W12
        BYTE                   Ds4   v084
        BYTE   W12
        BYTE                   Ds4   v120
        BYTE   W12
        BYTE                   Ds4   v084
        BYTE   W12
        BYTE                   Ds4   v120
        BYTE   W12
        BYTE   PEND
// 036   ----------------------------------------
RandomDungeon3_0_36:
        BYTE           N06     Fn4   v120
        BYTE   W12
        BYTE                   Fn4   v084
        BYTE   W12
        BYTE                   Fn4
        BYTE   W12
        BYTE                   Fn4   v120
        BYTE   W12
        BYTE                   Fn4   v084
        BYTE   W12
        BYTE                   Fn4   v120
        BYTE   W12
        BYTE                   Fn4   v084
        BYTE   W12
        BYTE                   Fn4   v120
        BYTE   W12
        BYTE   PEND
// 037   ----------------------------------------
RandomDungeon3_0_37:
        BYTE           N06     Gs4   v120
        BYTE   W12
        BYTE                   Gs4   v084
        BYTE   W12
        BYTE                   Gs4
        BYTE   W12
        BYTE                   Gs4   v120
        BYTE   W12
        BYTE                   Gs4   v084
        BYTE   W12
        BYTE                   Gs4   v120
        BYTE   W12
        BYTE                   Gs4   v084
        BYTE   W12
        BYTE                   Gs4   v120
        BYTE   W12
        BYTE   PEND
// 038   ----------------------------------------
RandomDungeon3_0_38:
        BYTE           N06     As4   v120
        BYTE   W12
        BYTE                   As4   v084
        BYTE   W12
        BYTE                   As4
        BYTE   W12
        BYTE                   As4   v120
        BYTE   W12
        BYTE                   As4
        BYTE   W12
        BYTE                   As4   v084
        BYTE   W12
        BYTE                   As4
        BYTE   W12
        BYTE                   As4   v120
        BYTE   W12
        BYTE   PEND
// 039   ----------------------------------------
RandomDungeon3_0_39:
        BYTE           N06     Fs4   v120
        BYTE   W12
        BYTE                   Fs4   v084
        BYTE   W12
        BYTE                   Fs4
        BYTE   W12
        BYTE                   En4   v120
        BYTE   W12
        BYTE                   En4   v084
        BYTE   W12
        BYTE                   En4   v120
        BYTE   W12
        BYTE                   En4   v084
        BYTE   W12
        BYTE                   En4   v120
        BYTE   W12
        BYTE   PEND
// 040   ----------------------------------------
        BYTE   PATT
         POIN2  RandomDungeon3_0_39
// 041   ----------------------------------------
        BYTE   PATT
         POIN2  RandomDungeon3_0_3
// 042   ----------------------------------------
        BYTE   PATT
         POIN2  RandomDungeon3_0_2
// 043   ----------------------------------------
        BYTE           N06     Dn3   v110
        BYTE   GoTo
         POIN2  RandomDungeon3_0_LOOP
        BYTE   W12
        BYTE                   Dn3   v074
        BYTE   W12
        BYTE                   Dn3
        BYTE   W12
        BYTE                   Dn3   v110
        BYTE   W12
        BYTE                   Dn3   v074
        BYTE   W12
        BYTE                   Dn3   v110
        BYTE   W12
        BYTE                   Dn3   v074
        BYTE   W12
        BYTE                   Dn3   v110
        BYTE   W12
// 044   ----------------------------------------
        BYTE   PATT
         POIN2  RandomDungeon3_0_6
// 045   ----------------------------------------
        BYTE   PATT
         POIN2  RandomDungeon3_0_7
// 046   ----------------------------------------
        BYTE   PATT
         POIN2  RandomDungeon3_0_6
// 047   ----------------------------------------
        BYTE   PATT
         POIN2  RandomDungeon3_0_7
// 048   ----------------------------------------
        BYTE   PATT
         POIN2  RandomDungeon3_0_6
// 049   ----------------------------------------
        BYTE   PATT
         POIN2  RandomDungeon3_0_7
// 050   ----------------------------------------
        BYTE   PATT
         POIN2  RandomDungeon3_0_7
// 051   ----------------------------------------
        BYTE   PATT
         POIN2  RandomDungeon3_0_13
// 052   ----------------------------------------
        BYTE   PATT
         POIN2  RandomDungeon3_0_14
// 053   ----------------------------------------
        BYTE   PATT
         POIN2  RandomDungeon3_0_13
// 054   ----------------------------------------
        BYTE   PATT
         POIN2  RandomDungeon3_0_14
// 055   ----------------------------------------
        BYTE   PATT
         POIN2  RandomDungeon3_0_13
// 056   ----------------------------------------
        BYTE   PATT
         POIN2  RandomDungeon3_0_14
// 057   ----------------------------------------
        BYTE   PATT
         POIN2  RandomDungeon3_0_19
// 058   ----------------------------------------
        BYTE   PATT
         POIN2  RandomDungeon3_0_20
// 059   ----------------------------------------
        BYTE   PATT
         POIN2  RandomDungeon3_0_21
// 060   ----------------------------------------
        BYTE   PATT
         POIN2  RandomDungeon3_0_13
// 061   ----------------------------------------
        BYTE   PATT
         POIN2  RandomDungeon3_0_23
// 062   ----------------------------------------
        BYTE   PATT
         POIN2  RandomDungeon3_0_23
// 063   ----------------------------------------
        BYTE   PATT
         POIN2  RandomDungeon3_0_25
// 064   ----------------------------------------
        BYTE   PATT
         POIN2  RandomDungeon3_0_25
// 065   ----------------------------------------
        BYTE   PATT
         POIN2  RandomDungeon3_0_27
// 066   ----------------------------------------
        BYTE   PATT
         POIN2  RandomDungeon3_0_27
// 067   ----------------------------------------
        BYTE   PATT
         POIN2  RandomDungeon3_0_29
// 068   ----------------------------------------
        BYTE   PATT
         POIN2  RandomDungeon3_0_29
// 069   ----------------------------------------
        BYTE   PATT
         POIN2  RandomDungeon3_0_31
// 070   ----------------------------------------
        BYTE   PATT
         POIN2  RandomDungeon3_0_31
// 071   ----------------------------------------
        BYTE   PATT
         POIN2  RandomDungeon3_0_33
// 072   ----------------------------------------
        BYTE   PATT
         POIN2  RandomDungeon3_0_33
// 073   ----------------------------------------
        BYTE   PATT
         POIN2  RandomDungeon3_0_35
// 074   ----------------------------------------
        BYTE   PATT
         POIN2  RandomDungeon3_0_36
// 075   ----------------------------------------
        BYTE   PATT
         POIN2  RandomDungeon3_0_37
// 076   ----------------------------------------
        BYTE   PATT
         POIN2  RandomDungeon3_0_38
// 077   ----------------------------------------
        BYTE   PATT
         POIN2  RandomDungeon3_0_39
// 078   ----------------------------------------
        BYTE   PATT
         POIN2  RandomDungeon3_0_39
// 079   ----------------------------------------
        BYTE   PATT
         POIN2  RandomDungeon3_0_3
// 080   ----------------------------------------
        BYTE   PATT
         POIN2  RandomDungeon3_0_2
// 081   ----------------------------------------
        BYTE   FINE

//****************** Track 1 (Midi-Chn.1) ******************//

RandomDungeon3_1:
        BYTE   KEYSH   RandomDungeon3_key+0
// 000   ----------------------------------------
        BYTE   W24
// 001   ----------------------------------------
        BYTE           PAN     c_v-10
        BYTE           VOL     45
        BYTE           VOICE   48
        BYTE           N06     Dn3   v110
        BYTE   W12
        BYTE                   Dn3   v074
        BYTE   W12
        BYTE                   Dn3
        BYTE   W12
        BYTE                   Dn3   v110
        BYTE   W12
        BYTE                   Dn3   v074
        BYTE   W12
        BYTE                   Dn3   v110
        BYTE   W12
        BYTE                   Dn3   v074
        BYTE   W12
        BYTE                   Dn3   v110
        BYTE   W12
// 002   ----------------------------------------
        BYTE   PATT
         POIN2  RandomDungeon3_0_6
// 003   ----------------------------------------
        BYTE   PATT
         POIN2  RandomDungeon3_0_7
// 004   ----------------------------------------
        BYTE   PATT
         POIN2  RandomDungeon3_0_6
// 005   ----------------------------------------
RandomDungeon3_1_LOOP:
        BYTE           N06     An2   v110
        BYTE   W12
        BYTE                   An2   v074
        BYTE   W12
        BYTE                   An2
        BYTE   W12
        BYTE                   An2   v110
        BYTE   W12
        BYTE                   An2   v074
        BYTE   W12
        BYTE                   An2   v110
        BYTE   W12
        BYTE                   An2   v074
        BYTE   W12
        BYTE                   An2   v110
        BYTE   W12
// 006   ----------------------------------------
RandomDungeon3_1_6:
        BYTE           N06     An2   v110
        BYTE   W12
        BYTE                   An2   v074
        BYTE   W12
        BYTE                   An2
        BYTE   W12
        BYTE                   Gn2   v110
        BYTE   W12
        BYTE                   Gn2   v074
        BYTE   W12
        BYTE                   Gn2   v110
        BYTE   W12
        BYTE                   Gn2   v074
        BYTE   W12
        BYTE                   Gn2   v110
        BYTE   W12
        BYTE   PEND
// 007   ----------------------------------------
RandomDungeon3_1_7:
        BYTE           N06     An2   v110
        BYTE   W12
        BYTE                   An2   v074
        BYTE   W12
        BYTE                   An2
        BYTE   W12
        BYTE                   An2   v110
        BYTE   W12
        BYTE                   An2   v074
        BYTE   W12
        BYTE                   An2   v110
        BYTE   W12
        BYTE                   An2   v074
        BYTE   W12
        BYTE                   An2   v110
        BYTE   W12
        BYTE   PEND
// 008   ----------------------------------------
        BYTE   PATT
         POIN2  RandomDungeon3_1_6
// 009   ----------------------------------------
        BYTE   PATT
         POIN2  RandomDungeon3_1_7
// 010   ----------------------------------------
        BYTE   PATT
         POIN2  RandomDungeon3_1_6
// 011   ----------------------------------------
RandomDungeon3_1_11:
        BYTE           N06     Bn2   v110
        BYTE   W12
        BYTE                   Bn2   v074
        BYTE   W12
        BYTE                   Bn2
        BYTE   W12
        BYTE                   An2   v110
        BYTE   W12
        BYTE                   An2   v074
        BYTE   W12
        BYTE                   An2   v110
        BYTE   W12
        BYTE                   An2   v074
        BYTE   W12
        BYTE                   An2   v110
        BYTE   W12
        BYTE   PEND
// 012   ----------------------------------------
RandomDungeon3_1_12:
        BYTE           N06     Gn2   v110
        BYTE   W12
        BYTE                   Gn2   v074
        BYTE   W12
        BYTE                   Gn2
        BYTE   W12
        BYTE                   An2   v110
        BYTE   W12
        BYTE                   An2   v074
        BYTE   W12
        BYTE                   An2   v110
        BYTE   W12
        BYTE                   An2   v074
        BYTE   W12
        BYTE                   An2   v110
        BYTE   W12
        BYTE   PEND
// 013   ----------------------------------------
RandomDungeon3_1_13:
        BYTE           N06     Fs3   v120
        BYTE   W12
        BYTE                   Fs3   v084
        BYTE   W12
        BYTE                   Fs3
        BYTE   W12
        BYTE                   Gn3   v120
        BYTE   W12
        BYTE                   Gn3   v084
        BYTE   W12
        BYTE                   Gn3   v120
        BYTE   W12
        BYTE                   Gn3   v084
        BYTE   W12
        BYTE                   Gn3   v120
        BYTE   W12
        BYTE   PEND
// 014   ----------------------------------------
RandomDungeon3_1_14:
        BYTE           N06     Fs3   v120
        BYTE   W12
        BYTE                   Fs3   v084
        BYTE   W12
        BYTE                   Fs3
        BYTE   W12
        BYTE                   En3   v120
        BYTE   W12
        BYTE                   En3   v084
        BYTE   W12
        BYTE                   En3   v120
        BYTE   W12
        BYTE                   En3   v084
        BYTE   W12
        BYTE                   En3   v120
        BYTE   W12
        BYTE   PEND
// 015   ----------------------------------------
        BYTE   PATT
         POIN2  RandomDungeon3_1_13
// 016   ----------------------------------------
        BYTE   PATT
         POIN2  RandomDungeon3_1_14
// 017   ----------------------------------------
        BYTE   PATT
         POIN2  RandomDungeon3_1_13
// 018   ----------------------------------------
        BYTE   PATT
         POIN2  RandomDungeon3_1_14
// 019   ----------------------------------------
RandomDungeon3_1_19:
        BYTE           N06     Gn3   v120
        BYTE   W12
        BYTE                   Gn3   v084
        BYTE   W12
        BYTE                   Gn3
        BYTE   W12
        BYTE                   Fs3   v120
        BYTE   W12
        BYTE                   Fs3   v084
        BYTE   W12
        BYTE                   Fs3   v120
        BYTE   W12
        BYTE                   Fs3   v084
        BYTE   W12
        BYTE                   Fs3   v120
        BYTE   W12
        BYTE   PEND
// 020   ----------------------------------------
RandomDungeon3_1_20:
        BYTE           N06     En3   v120
        BYTE   W12
        BYTE                   En3   v084
        BYTE   W12
        BYTE                   En3
        BYTE   W12
        BYTE                   Fs3   v120
        BYTE   W12
        BYTE                   Fs3   v084
        BYTE   W12
        BYTE                   Fs3   v120
        BYTE   W12
        BYTE                   Fs3   v084
        BYTE   W12
        BYTE                   Fs3   v120
        BYTE   W12
        BYTE   PEND
// 021   ----------------------------------------
RandomDungeon3_1_21:
        BYTE           N06     Gn3   v120
        BYTE   W12
        BYTE                   Gn3   v084
        BYTE   W12
        BYTE                   Gn3
        BYTE   W12
        BYTE                   Fs3   v120
        BYTE   W12
        BYTE                   Fs3   v084
        BYTE   W12
        BYTE                   Fs3
        BYTE   W12
        BYTE                   En3   v120
        BYTE   W12
        BYTE                   En3   v084
        BYTE   W12
        BYTE   PEND
// 022   ----------------------------------------
RandomDungeon3_1_22:
        BYTE           N06     En3   v120
        BYTE   W12
        BYTE                   En3   v084
        BYTE   W12
        BYTE                   En3
        BYTE   W12
        BYTE                   En3   v120
        BYTE   W12
        BYTE                   En3   v084
        BYTE   W12
        BYTE                   En3   v120
        BYTE   W12
        BYTE                   En3   v084
        BYTE   W12
        BYTE                   En3   v120
        BYTE   W12
        BYTE   PEND
// 023   ----------------------------------------
        BYTE   PATT
         POIN2  RandomDungeon3_0_27
// 024   ----------------------------------------
        BYTE   PATT
         POIN2  RandomDungeon3_0_27
// 025   ----------------------------------------
        BYTE   PATT
         POIN2  RandomDungeon3_0_29
// 026   ----------------------------------------
        BYTE   PATT
         POIN2  RandomDungeon3_0_29
// 027   ----------------------------------------
RandomDungeon3_1_27:
        BYTE           N06     Ds2   v115
        BYTE   W24
        BYTE                   Ds2
        BYTE   W24
        BYTE                   Ds2
        BYTE   W24
        BYTE                   Ds2
        BYTE   W24
        BYTE   PEND
// 028   ----------------------------------------
        BYTE   PATT
         POIN2  RandomDungeon3_1_27
// 029   ----------------------------------------
RandomDungeon3_1_29:
        BYTE           N06     Cs2   v115
        BYTE   W24
        BYTE                   Cs2
        BYTE   W24
        BYTE                   Cs2
        BYTE   W24
        BYTE                   Cs2
        BYTE   W24
        BYTE   PEND
// 030   ----------------------------------------
        BYTE   PATT
         POIN2  RandomDungeon3_1_29
// 031   ----------------------------------------
RandomDungeon3_1_31:
        BYTE           N06     Gn3   v120
        BYTE   W12
        BYTE                   Gn3   v084
        BYTE   W12
        BYTE                   Gn3
        BYTE   W12
        BYTE                   Gn3   v120
        BYTE   W12
        BYTE                   Gn3   v084
        BYTE   W12
        BYTE                   Gn3   v120
        BYTE   W12
        BYTE                   Gn3   v084
        BYTE   W12
        BYTE                   Gn3   v120
        BYTE   W12
        BYTE   PEND
// 032   ----------------------------------------
        BYTE   PATT
         POIN2  RandomDungeon3_1_31
// 033   ----------------------------------------
RandomDungeon3_1_33:
        BYTE           N06     As3   v120
        BYTE   W12
        BYTE                   As3   v084
        BYTE   W12
        BYTE                   As3
        BYTE   W12
        BYTE                   As3   v120
        BYTE   W12
        BYTE                   As3   v084
        BYTE   W12
        BYTE                   As3   v120
        BYTE   W12
        BYTE                   As3   v084
        BYTE   W12
        BYTE                   As3   v120
        BYTE   W12
        BYTE   PEND
// 034   ----------------------------------------
        BYTE   PATT
         POIN2  RandomDungeon3_1_33
// 035   ----------------------------------------
        BYTE   PATT
         POIN2  RandomDungeon3_1_33
// 036   ----------------------------------------
        BYTE   PATT
         POIN2  RandomDungeon3_0_31
// 037   ----------------------------------------
        BYTE   PATT
         POIN2  RandomDungeon3_0_35
// 038   ----------------------------------------
RandomDungeon3_1_38:
        BYTE           N06     Fn4   v120
        BYTE   W12
        BYTE                   Fn4   v084
        BYTE   W12
        BYTE                   Fn4
        BYTE   W12
        BYTE                   Fn4   v120
        BYTE   W12
        BYTE                   Gn4
        BYTE   W12
        BYTE                   Gn4   v084
        BYTE   W12
        BYTE                   Gn4
        BYTE   W12
        BYTE                   Gn4   v120
        BYTE   W12
        BYTE   PEND
// 039   ----------------------------------------
        BYTE   PATT
         POIN2  RandomDungeon3_0_33
// 040   ----------------------------------------
        BYTE   PATT
         POIN2  RandomDungeon3_0_33
// 041   ----------------------------------------
        BYTE   PATT
         POIN2  RandomDungeon3_0_7
// 042   ----------------------------------------
        BYTE   PATT
         POIN2  RandomDungeon3_0_6
// 043   ----------------------------------------
        BYTE           N06     An2   v110
        BYTE   GoTo
         POIN2  RandomDungeon3_1_LOOP
        BYTE   W12
        BYTE                   An2   v074
        BYTE   W12
        BYTE                   An2
        BYTE   W12
        BYTE                   An2   v110
        BYTE   W12
        BYTE                   An2   v074
        BYTE   W12
        BYTE                   An2   v110
        BYTE   W12
        BYTE                   An2   v074
        BYTE   W12
        BYTE                   An2   v110
        BYTE   W12
// 044   ----------------------------------------
        BYTE   PATT
         POIN2  RandomDungeon3_1_6
// 045   ----------------------------------------
        BYTE   PATT
         POIN2  RandomDungeon3_1_7
// 046   ----------------------------------------
        BYTE   PATT
         POIN2  RandomDungeon3_1_6
// 047   ----------------------------------------
        BYTE   PATT
         POIN2  RandomDungeon3_1_7
// 048   ----------------------------------------
        BYTE   PATT
         POIN2  RandomDungeon3_1_6
// 049   ----------------------------------------
        BYTE   PATT
         POIN2  RandomDungeon3_1_11
// 050   ----------------------------------------
        BYTE   PATT
         POIN2  RandomDungeon3_1_12
// 051   ----------------------------------------
        BYTE   PATT
         POIN2  RandomDungeon3_1_13
// 052   ----------------------------------------
        BYTE   PATT
         POIN2  RandomDungeon3_1_14
// 053   ----------------------------------------
        BYTE   PATT
         POIN2  RandomDungeon3_1_13
// 054   ----------------------------------------
        BYTE   PATT
         POIN2  RandomDungeon3_1_14
// 055   ----------------------------------------
        BYTE   PATT
         POIN2  RandomDungeon3_1_13
// 056   ----------------------------------------
        BYTE   PATT
         POIN2  RandomDungeon3_1_14
// 057   ----------------------------------------
        BYTE   PATT
         POIN2  RandomDungeon3_1_19
// 058   ----------------------------------------
        BYTE   PATT
         POIN2  RandomDungeon3_1_20
// 059   ----------------------------------------
        BYTE   PATT
         POIN2  RandomDungeon3_1_21
// 060   ----------------------------------------
        BYTE   PATT
         POIN2  RandomDungeon3_1_22
// 061   ----------------------------------------
        BYTE   PATT
         POIN2  RandomDungeon3_0_27
// 062   ----------------------------------------
        BYTE   PATT
         POIN2  RandomDungeon3_0_27
// 063   ----------------------------------------
        BYTE   PATT
         POIN2  RandomDungeon3_0_29
// 064   ----------------------------------------
        BYTE   PATT
         POIN2  RandomDungeon3_0_29
// 065   ----------------------------------------
        BYTE   PATT
         POIN2  RandomDungeon3_1_27
// 066   ----------------------------------------
        BYTE   PATT
         POIN2  RandomDungeon3_1_27
// 067   ----------------------------------------
        BYTE   PATT
         POIN2  RandomDungeon3_1_29
// 068   ----------------------------------------
        BYTE   PATT
         POIN2  RandomDungeon3_1_29
// 069   ----------------------------------------
        BYTE   PATT
         POIN2  RandomDungeon3_1_31
// 070   ----------------------------------------
        BYTE   PATT
         POIN2  RandomDungeon3_1_31
// 071   ----------------------------------------
        BYTE   PATT
         POIN2  RandomDungeon3_1_33
// 072   ----------------------------------------
        BYTE   PATT
         POIN2  RandomDungeon3_1_33
// 073   ----------------------------------------
        BYTE   PATT
         POIN2  RandomDungeon3_1_33
// 074   ----------------------------------------
        BYTE   PATT
         POIN2  RandomDungeon3_0_31
// 075   ----------------------------------------
        BYTE   PATT
         POIN2  RandomDungeon3_0_35
// 076   ----------------------------------------
        BYTE   PATT
         POIN2  RandomDungeon3_1_38
// 077   ----------------------------------------
        BYTE   PATT
         POIN2  RandomDungeon3_0_33
// 078   ----------------------------------------
        BYTE   PATT
         POIN2  RandomDungeon3_0_33
// 079   ----------------------------------------
        BYTE   PATT
         POIN2  RandomDungeon3_0_7
// 080   ----------------------------------------
        BYTE   PATT
         POIN2  RandomDungeon3_0_6
// 081   ----------------------------------------
        BYTE   FINE

//****************** Track 2 (Midi-Chn.2) ******************//

RandomDungeon3_2:
        BYTE   KEYSH   RandomDungeon3_key+0
// 000   ----------------------------------------
        BYTE   W24
// 001   ----------------------------------------
        BYTE           VOL     49
        BYTE           VOICE   61
        BYTE   W96
// 002   ----------------------------------------
        BYTE   W96
// 003   ----------------------------------------
        BYTE   W96
// 004   ----------------------------------------
        BYTE   W96
// 005   ----------------------------------------
RandomDungeon3_2_LOOP:
        BYTE   W96
// 006   ----------------------------------------
        BYTE   W96
// 007   ----------------------------------------
        BYTE   W96
// 008   ----------------------------------------
        BYTE   W96
// 009   ----------------------------------------
        BYTE   W96
// 010   ----------------------------------------
        BYTE   W96
// 011   ----------------------------------------
        BYTE   W96
// 012   ----------------------------------------
        BYTE   W96
// 013   ----------------------------------------
RandomDungeon3_2_13:
        BYTE           N12     An3   v127
        BYTE   W12
        BYTE           N06     An3   v064
        BYTE   W06
        BYTE                   Dn4   v127
        BYTE   W06
        BYTE                   Fs4
        BYTE   W06
        BYTE                   Fs4   v064
        BYTE   W06
        BYTE           N12     Gn4   v127
        BYTE   W12
        BYTE                   Gn4   v064
        BYTE   W12
        BYTE                   Gn4   v127
        BYTE   W12
        BYTE                   Gn4   v064
        BYTE   W12
        BYTE           N06     Gn4   v127
        BYTE   W06
        BYTE                   Gn4   v064
        BYTE   W06
        BYTE   PEND
// 014   ----------------------------------------
RandomDungeon3_2_14:
        BYTE           N12     Fs4   v127
        BYTE   W12
        BYTE           N06     Fs4   v064
        BYTE   W06
        BYTE                   Dn4   v127
        BYTE   W06
        BYTE                   An3
        BYTE   W06
        BYTE                   An3   v064
        BYTE   W06
        BYTE           N48     Cn4   v127
        BYTE   W48
        BYTE           N12     Cn4   v064
        BYTE   W12
        BYTE   PEND
// 015   ----------------------------------------
        BYTE   PATT
         POIN2  RandomDungeon3_2_13
// 016   ----------------------------------------
RandomDungeon3_2_16:
        BYTE           N12     Fs4   v127
        BYTE   W12
        BYTE           N06     Fs4   v064
        BYTE   W06
        BYTE                   Dn4   v127
        BYTE   W06
        BYTE                   An3
        BYTE   W06
        BYTE                   An3   v064
        BYTE   W06
        BYTE           N48     Gn3   v127
        BYTE   W48
        BYTE           N12     Gn3   v064
        BYTE   W12
        BYTE   PEND
// 017   ----------------------------------------
        BYTE   PATT
         POIN2  RandomDungeon3_2_13
// 018   ----------------------------------------
RandomDungeon3_2_18:
        BYTE           N12     Fs4   v127
        BYTE   W12
        BYTE           N06     Fs4   v064
        BYTE   W06
        BYTE                   Dn4   v127
        BYTE   W06
        BYTE                   An3
        BYTE   W06
        BYTE                   An3   v064
        BYTE   W06
        BYTE           N12     Cn4   v127
        BYTE   W12
        BYTE                   Cn4   v064
        BYTE   W12
        BYTE           N24     Cn4   v127
        BYTE   W24
        BYTE           N12     Dn4
        BYTE   W12
        BYTE   PEND
// 019   ----------------------------------------
RandomDungeon3_2_19:
        BYTE           N12     Bn3   v127
        BYTE   W12
        BYTE           N06     Bn3   v064
        BYTE   W06
        BYTE                   An3   v127
        BYTE   W06
        BYTE                   Gn3
        BYTE   W06
        BYTE                   Gn3   v064
        BYTE   W06
        BYTE           TIE     An3   v127
        BYTE   W60
        BYTE   PEND
// 020   ----------------------------------------
RandomDungeon3_2_20:
        BYTE   W48
        BYTE           EOT     An3
        BYTE           N12     An3   v064
        BYTE   W12
        BYTE           N18     Dn4   v127
        BYTE   W18
        BYTE           N06     Dn4   v064
        BYTE   W06
        BYTE                   Dn4   v127
        BYTE   W06
        BYTE                   Dn4   v064
        BYTE   W06
        BYTE   PEND
// 021   ----------------------------------------
RandomDungeon3_2_21:
        BYTE           N12     Gn4   v080
        BYTE           N12     Bn4   v127
        BYTE   W12
        BYTE           N06     Gn4   v064
        BYTE           N06     Bn4
        BYTE   W06
        BYTE                   Fs4   v080
        BYTE           N06     An4   v127
        BYTE   W06
        BYTE                   En4   v080
        BYTE           N06     Gn4   v127
        BYTE   W06
        BYTE                   En4   v064
        BYTE           N06     Gn4
        BYTE   W06
        BYTE           N18     Fs4   v080
        BYTE           N18     An4   v127
        BYTE   W18
        BYTE           N06     Fs4   v064
        BYTE           N06     An4
        BYTE   W06
        BYTE                   An3   v080
        BYTE           N06     Dn4   v127
        BYTE   W06
        BYTE                   An3   v064
        BYTE           N06     Dn4
        BYTE   W06
        BYTE           N96     Cs4   v080
        BYTE           N96     En4   v127
        BYTE   W24
        BYTE   PEND
// 022   ----------------------------------------
RandomDungeon3_2_22:
        BYTE           VOL     48
        BYTE   W12
        BYTE                   47
        BYTE   W06
        BYTE                   46
        BYTE   W09
        BYTE                   45
        BYTE   W03
        BYTE                   44
        BYTE   W03
        BYTE                   43
        BYTE   W03
        BYTE                   42
        BYTE   W03
        BYTE                   41
        BYTE   W03
        BYTE                   40
        BYTE   W03
        BYTE                   39
        BYTE   W03
        BYTE                   38
        BYTE   W03
        BYTE                   37
        BYTE   W03
        BYTE                   35
        BYTE   W03
        BYTE                   33
        BYTE   W03
        BYTE                   32
        BYTE   W03
        BYTE                   31
        BYTE   W03
        BYTE                   29
        BYTE   W03
        BYTE                   27
        BYTE   W03
        BYTE                   25
        BYTE   W24
        BYTE   PEND
// 023   ----------------------------------------
        BYTE   W96
// 024   ----------------------------------------
        BYTE   W96
// 025   ----------------------------------------
        BYTE   W96
// 026   ----------------------------------------
        BYTE   W96
// 027   ----------------------------------------
        BYTE   W96
// 028   ----------------------------------------
        BYTE   W96
// 029   ----------------------------------------
        BYTE   W96
// 030   ----------------------------------------
RandomDungeon3_2_30:
        BYTE   W48
        BYTE           VOL     49
        BYTE   W24
        BYTE           N12     Cn3   v127
        BYTE   W12
        BYTE           N06     Cn3   v064
        BYTE   W06
        BYTE                   Cn3   v127
        BYTE   W06
        BYTE   PEND
// 031   ----------------------------------------
RandomDungeon3_2_31:
        BYTE           N06     En3   v127
        BYTE   W06
        BYTE                   En3   v064
        BYTE   W18
        BYTE           N30     En3   v127
        BYTE   W30
        BYTE           N06     En3   v064
        BYTE   W06
        BYTE                   Gn3   v127
        BYTE   W06
        BYTE                   Gn3   v064
        BYTE   W06
        BYTE           N12     Fs3   v127
        BYTE   W12
        BYTE           N06     Fs3   v064
        BYTE   W06
        BYTE                   Gn3   v127
        BYTE   W06
        BYTE   PEND
// 032   ----------------------------------------
RandomDungeon3_2_32:
        BYTE           N06     Fs3   v127
        BYTE   W06
        BYTE                   Fs3   v064
        BYTE   W18
        BYTE           N42     En3   v127
        BYTE   W42
        BYTE           N06     En3   v064
        BYTE   W06
        BYTE           N24     Dn3   v127
        BYTE   W24
        BYTE   PEND
// 033   ----------------------------------------
RandomDungeon3_2_33:
        BYTE           N06     Cn3   v127
        BYTE   W06
        BYTE                   Cn3   v064
        BYTE   W12
        BYTE                   As2   v127
        BYTE   W06
        BYTE           N48
        BYTE   W48
        BYTE           N12     As2   v064
        BYTE   W12
        BYTE           N06     Fn3   v127
        BYTE   W06
        BYTE                   As3
        BYTE   W06
        BYTE   PEND
// 034   ----------------------------------------
RandomDungeon3_2_34:
        BYTE           N60     Dn4   v127
        BYTE   W60
        BYTE           N12     Dn4   v064
        BYTE   W12
        BYTE           N24     Fn3   v127
        BYTE   W24
        BYTE   PEND
// 035   ----------------------------------------
RandomDungeon3_2_35:
        BYTE           N06     As3   v127
        BYTE   W06
        BYTE           N12     As3   v064
        BYTE   W12
        BYTE           N06     As3   v127
        BYTE   W06
        BYTE           N24
        BYTE   W24
        BYTE           N12     As3   v064
        BYTE   W12
        BYTE           N06     Ds4   v127
        BYTE   W06
        BYTE                   Ds4   v064
        BYTE   W06
        BYTE           N12     Dn4   v127
        BYTE   W12
        BYTE           N06     Dn4   v064
        BYTE   W06
        BYTE                   Ds4   v127
        BYTE   W06
        BYTE   PEND
// 036   ----------------------------------------
RandomDungeon3_2_36:
        BYTE           N18     Dn4   v127
        BYTE   W18
        BYTE           N06     Dn4   v064
        BYTE   W06
        BYTE           N18     Cn4   v127
        BYTE   W18
        BYTE           N06     Cn4   v064
        BYTE   W06
        BYTE           N18     As3   v127
        BYTE   W18
        BYTE           N06     As3   v064
        BYTE   W06
        BYTE           N18     An3   v127
        BYTE   W18
        BYTE           N06     An3   v064
        BYTE   W06
        BYTE   PEND
// 037   ----------------------------------------
RandomDungeon3_2_37:
        BYTE           N06     Fn3   v080
        BYTE           N06     As3   v127
        BYTE   W06
        BYTE           N12     Fn3   v064
        BYTE           N12     As3
        BYTE   W18
        BYTE           N60     Fn3   v080
        BYTE           N60     As3   v127
        BYTE   W60
        BYTE           N12     Fn3   v064
        BYTE           N12     As3
        BYTE   W12
        BYTE   PEND
// 038   ----------------------------------------
RandomDungeon3_2_38:
        BYTE           N06     Fn4   v080
        BYTE           N06     As4   v127
        BYTE   W06
        BYTE           N12     Fn4   v064
        BYTE           N12     As4
        BYTE   W18
        BYTE           N60     Fn4   v080
        BYTE           N60     As4   v127
        BYTE   W60
        BYTE           N12     Fn4   v064
        BYTE           N12     As4
        BYTE   W12
        BYTE   PEND
// 039   ----------------------------------------
        BYTE   W96
// 040   ----------------------------------------
        BYTE   W96
// 041   ----------------------------------------
        BYTE   W96
// 042   ----------------------------------------
        BYTE   W96
// 043   ----------------------------------------
        BYTE   GoTo
         POIN2  RandomDungeon3_2_LOOP
        BYTE   W96
// 044   ----------------------------------------
        BYTE   W96
// 045   ----------------------------------------
        BYTE   W96
// 046   ----------------------------------------
        BYTE   W96
// 047   ----------------------------------------
        BYTE   W96
// 048   ----------------------------------------
        BYTE   W96
// 049   ----------------------------------------
        BYTE   W96
// 050   ----------------------------------------
        BYTE   W96
// 051   ----------------------------------------
        BYTE   PATT
         POIN2  RandomDungeon3_2_13
// 052   ----------------------------------------
        BYTE   PATT
         POIN2  RandomDungeon3_2_14
// 053   ----------------------------------------
        BYTE   PATT
         POIN2  RandomDungeon3_2_13
// 054   ----------------------------------------
        BYTE   PATT
         POIN2  RandomDungeon3_2_16
// 055   ----------------------------------------
        BYTE   PATT
         POIN2  RandomDungeon3_2_13
// 056   ----------------------------------------
        BYTE   PATT
         POIN2  RandomDungeon3_2_18
// 057   ----------------------------------------
        BYTE   PATT
         POIN2  RandomDungeon3_2_19
// 058   ----------------------------------------
        BYTE   PATT
         POIN2  RandomDungeon3_2_20
// 059   ----------------------------------------
        BYTE   PATT
         POIN2  RandomDungeon3_2_21
// 060   ----------------------------------------
        BYTE   PATT
         POIN2  RandomDungeon3_2_22
// 061   ----------------------------------------
        BYTE   W96
// 062   ----------------------------------------
        BYTE   W96
// 063   ----------------------------------------
        BYTE   W96
// 064   ----------------------------------------
        BYTE   W96
// 065   ----------------------------------------
        BYTE   W96
// 066   ----------------------------------------
        BYTE   W96
// 067   ----------------------------------------
        BYTE   W96
// 068   ----------------------------------------
        BYTE   PATT
         POIN2  RandomDungeon3_2_30
// 069   ----------------------------------------
        BYTE   PATT
         POIN2  RandomDungeon3_2_31
// 070   ----------------------------------------
        BYTE   PATT
         POIN2  RandomDungeon3_2_32
// 071   ----------------------------------------
        BYTE   PATT
         POIN2  RandomDungeon3_2_33
// 072   ----------------------------------------
        BYTE   PATT
         POIN2  RandomDungeon3_2_34
// 073   ----------------------------------------
        BYTE   PATT
         POIN2  RandomDungeon3_2_35
// 074   ----------------------------------------
        BYTE   PATT
         POIN2  RandomDungeon3_2_36
// 075   ----------------------------------------
        BYTE   PATT
         POIN2  RandomDungeon3_2_37
// 076   ----------------------------------------
        BYTE   PATT
         POIN2  RandomDungeon3_2_38
// 077   ----------------------------------------
        BYTE   W96
// 078   ----------------------------------------
        BYTE   W96
// 079   ----------------------------------------
        BYTE   W96
// 080   ----------------------------------------
        BYTE   W96
// 081   ----------------------------------------
        BYTE   FINE

//****************** Track 3 (Midi-Chn.3) ******************//

RandomDungeon3_3:
        BYTE   KEYSH   RandomDungeon3_key+0
// 000   ----------------------------------------
        BYTE   W24
// 001   ----------------------------------------
        BYTE           PAN     c_v-64
        BYTE           VOL     23
        BYTE           VOICE   61
        BYTE   W96
// 002   ----------------------------------------
        BYTE   W96
// 003   ----------------------------------------
        BYTE   W96
// 004   ----------------------------------------
        BYTE   W96
// 005   ----------------------------------------
RandomDungeon3_3_LOOP:
        BYTE   W96
// 006   ----------------------------------------
        BYTE   W96
// 007   ----------------------------------------
        BYTE   W96
// 008   ----------------------------------------
        BYTE   W96
// 009   ----------------------------------------
        BYTE   W96
// 010   ----------------------------------------
        BYTE   W96
// 011   ----------------------------------------
        BYTE   W96
// 012   ----------------------------------------
        BYTE   W96
// 013   ----------------------------------------
RandomDungeon3_3_13:
        BYTE   W12
        BYTE           N12     An3   v127
        BYTE   W12
        BYTE           N06     An3   v064
        BYTE   W06
        BYTE                   Dn4   v127
        BYTE   W06
        BYTE                   Fs4
        BYTE   W06
        BYTE                   Fs4   v064
        BYTE   W06
        BYTE           N12     Gn4   v127
        BYTE   W12
        BYTE                   Gn4   v064
        BYTE   W12
        BYTE                   Gn4   v127
        BYTE   W12
        BYTE                   Gn4   v064
        BYTE   W12
        BYTE   PEND
// 014   ----------------------------------------
RandomDungeon3_3_14:
        BYTE           N06     Gn4   v127
        BYTE   W06
        BYTE                   Gn4   v064
        BYTE   W06
        BYTE           N12     Fs4   v127
        BYTE   W12
        BYTE           N06     Fs4   v064
        BYTE   W06
        BYTE                   Dn4   v127
        BYTE   W06
        BYTE                   An3
        BYTE   W06
        BYTE                   An3   v064
        BYTE   W06
        BYTE           N48     Cn4   v127
        BYTE   W48
        BYTE   PEND
// 015   ----------------------------------------
RandomDungeon3_3_15:
        BYTE           N12     Cn4   v064
        BYTE   W12
        BYTE                   An3   v127
        BYTE   W12
        BYTE           N06     An3   v064
        BYTE   W06
        BYTE                   Dn4   v127
        BYTE   W06
        BYTE                   Fs4
        BYTE   W06
        BYTE                   Fs4   v064
        BYTE   W06
        BYTE           N12     Gn4   v127
        BYTE   W12
        BYTE                   Gn4   v064
        BYTE   W12
        BYTE                   Gn4   v127
        BYTE   W12
        BYTE                   Gn4   v064
        BYTE   W12
        BYTE   PEND
// 016   ----------------------------------------
RandomDungeon3_3_16:
        BYTE           N06     Gn4   v127
        BYTE   W06
        BYTE                   Gn4   v064
        BYTE   W06
        BYTE           N12     Fs4   v127
        BYTE   W12
        BYTE           N06     Fs4   v064
        BYTE   W06
        BYTE                   Dn4   v127
        BYTE   W06
        BYTE                   An3
        BYTE   W06
        BYTE                   An3   v064
        BYTE   W06
        BYTE           N48     Gn3   v127
        BYTE   W48
        BYTE   PEND
// 017   ----------------------------------------
RandomDungeon3_3_17:
        BYTE           N12     Gn3   v064
        BYTE   W12
        BYTE                   An3   v127
        BYTE   W12
        BYTE           N06     An3   v064
        BYTE   W06
        BYTE                   Dn4   v127
        BYTE   W06
        BYTE                   Fs4
        BYTE   W06
        BYTE                   Fs4   v064
        BYTE   W06
        BYTE           N12     Gn4   v127
        BYTE   W12
        BYTE                   Gn4   v064
        BYTE   W12
        BYTE                   Gn4   v127
        BYTE   W12
        BYTE                   Gn4   v064
        BYTE   W12
        BYTE   PEND
// 018   ----------------------------------------
RandomDungeon3_3_18:
        BYTE           N06     Gn4   v127
        BYTE   W06
        BYTE                   Gn4   v064
        BYTE   W06
        BYTE           N12     Fs4   v127
        BYTE   W12
        BYTE           N06     Fs4   v064
        BYTE   W06
        BYTE                   Dn4   v127
        BYTE   W06
        BYTE                   An3
        BYTE   W06
        BYTE                   An3   v064
        BYTE   W06
        BYTE           N12     Cn4   v127
        BYTE   W12
        BYTE                   Cn4   v064
        BYTE   W12
        BYTE           N24     Cn4   v127
        BYTE   W24
        BYTE   PEND
// 019   ----------------------------------------
RandomDungeon3_3_19:
        BYTE           N12     Dn4   v127
        BYTE   W12
        BYTE                   Bn3
        BYTE   W12
        BYTE           N06     Bn3   v064
        BYTE   W06
        BYTE                   An3   v127
        BYTE   W06
        BYTE                   Gn3
        BYTE   W06
        BYTE                   Gn3   v064
        BYTE   W06
        BYTE           TIE     An3   v127
        BYTE   W48
        BYTE   PEND
// 020   ----------------------------------------
RandomDungeon3_3_20:
        BYTE   W60
        BYTE           EOT     An3
        BYTE           N12     An3   v064
        BYTE   W12
        BYTE           N18     Dn4   v127
        BYTE   W18
        BYTE           N06     Dn4   v064
        BYTE   W06
        BYTE   PEND
// 021   ----------------------------------------
RandomDungeon3_3_21:
        BYTE           N06     Dn4   v127
        BYTE   W06
        BYTE                   Dn4   v064
        BYTE   W06
        BYTE           N12     Bn4   v127
        BYTE   W12
        BYTE           N06     Bn4   v064
        BYTE   W06
        BYTE                   An4   v127
        BYTE   W06
        BYTE                   Gn4
        BYTE   W06
        BYTE                   Gn4   v064
        BYTE   W06
        BYTE           N18     An4   v127
        BYTE   W18
        BYTE           N06     An4   v064
        BYTE   W06
        BYTE                   Dn4   v127
        BYTE   W06
        BYTE                   Dn4   v064
        BYTE   W06
        BYTE           N96     En4   v127
        BYTE   W12
        BYTE   PEND
// 022   ----------------------------------------
RandomDungeon3_3_22:
        BYTE   W24
        BYTE           VOL     22
        BYTE   W15
        BYTE                   21
        BYTE   W09
        BYTE                   20
        BYTE   W06
        BYTE                   19
        BYTE   W06
        BYTE                   18
        BYTE   W03
        BYTE                   17
        BYTE   W06
        BYTE                   16
        BYTE   W03
        BYTE                   15
        BYTE   W06
        BYTE                   14
        BYTE   W03
        BYTE                   13
        BYTE   W03
        BYTE                   12
        BYTE   W12
        BYTE   PEND
// 023   ----------------------------------------
        BYTE   W96
// 024   ----------------------------------------
        BYTE   W96
// 025   ----------------------------------------
        BYTE   W96
// 026   ----------------------------------------
        BYTE   W96
// 027   ----------------------------------------
        BYTE   W96
// 028   ----------------------------------------
        BYTE   W96
// 029   ----------------------------------------
        BYTE   W96
// 030   ----------------------------------------
RandomDungeon3_3_30:
        BYTE   W60
        BYTE           VOL     23
        BYTE   W24
        BYTE           N12     Cn3   v127
        BYTE   W12
        BYTE   PEND
// 031   ----------------------------------------
RandomDungeon3_3_31:
        BYTE           N06     Cn3   v064
        BYTE   W06
        BYTE                   Cn3   v127
        BYTE   W06
        BYTE                   En3
        BYTE   W06
        BYTE                   En3   v064
        BYTE   W18
        BYTE           N30     En3   v127
        BYTE   W30
        BYTE           N06     En3   v064
        BYTE   W06
        BYTE                   Gn3   v127
        BYTE   W06
        BYTE                   Gn3   v064
        BYTE   W06
        BYTE           N12     Fs3   v127
        BYTE   W12
        BYTE   PEND
// 032   ----------------------------------------
RandomDungeon3_3_32:
        BYTE           N06     Fs3   v064
        BYTE   W06
        BYTE                   Gn3   v127
        BYTE   W06
        BYTE                   Fs3
        BYTE   W06
        BYTE                   Fs3   v064
        BYTE   W18
        BYTE           N42     En3   v127
        BYTE   W42
        BYTE           N06     En3   v064
        BYTE   W06
        BYTE           N24     Dn3   v127
        BYTE   W12
        BYTE   PEND
// 033   ----------------------------------------
RandomDungeon3_3_33:
        BYTE   W12
        BYTE           N06     Cn3   v127
        BYTE   W06
        BYTE                   Cn3   v064
        BYTE   W12
        BYTE                   As2   v127
        BYTE   W06
        BYTE           N48
        BYTE   W48
        BYTE           N12     As2   v064
        BYTE   W12
        BYTE   PEND
// 034   ----------------------------------------
RandomDungeon3_3_34:
        BYTE           N06     Fn3   v127
        BYTE   W06
        BYTE                   As3
        BYTE   W06
        BYTE           N60     Dn4
        BYTE   W60
        BYTE           N12     Dn4   v064
        BYTE   W12
        BYTE           N24     Fn3   v127
        BYTE   W12
        BYTE   PEND
// 035   ----------------------------------------
RandomDungeon3_3_35:
        BYTE   W12
        BYTE           N06     As3   v127
        BYTE   W06
        BYTE           N12     As3   v064
        BYTE   W12
        BYTE           N06     As3   v127
        BYTE   W06
        BYTE           N24
        BYTE   W24
        BYTE           N12     As3   v064
        BYTE   W12
        BYTE           N06     Ds4   v127
        BYTE   W06
        BYTE                   Ds4   v064
        BYTE   W06
        BYTE           N12     Dn4   v127
        BYTE   W12
        BYTE   PEND
// 036   ----------------------------------------
RandomDungeon3_3_36:
        BYTE           N06     Dn4   v064
        BYTE   W06
        BYTE                   Ds4   v127
        BYTE   W06
        BYTE           N18     Dn4
        BYTE   W18
        BYTE           N06     Dn4   v064
        BYTE   W06
        BYTE           N18     Cn4   v127
        BYTE   W18
        BYTE           N06     Cn4   v064
        BYTE   W06
        BYTE           N18     As3   v127
        BYTE   W18
        BYTE           N06     As3   v064
        BYTE   W06
        BYTE           N18     An3   v127
        BYTE   W12
        BYTE   PEND
// 037   ----------------------------------------
RandomDungeon3_3_37:
        BYTE   W06
        BYTE           N06     An3   v064
        BYTE   W06
        BYTE                   Fn3   v080
        BYTE           N06     As3   v127
        BYTE   W06
        BYTE           N12     Fn3   v064
        BYTE           N12     As3
        BYTE   W18
        BYTE           N60     Fn3   v080
        BYTE           N60     As3   v127
        BYTE   W60
        BYTE   PEND
// 038   ----------------------------------------
RandomDungeon3_3_38:
        BYTE           N12     Fn3   v064
        BYTE           N12     As3
        BYTE   W12
        BYTE           N06     Fn4   v080
        BYTE           N06     As4   v127
        BYTE   W06
        BYTE           N12     Fn4   v064
        BYTE           N12     As4
        BYTE   W18
        BYTE           N60     Fn4   v080
        BYTE           N60     As4   v127
        BYTE   W60
        BYTE   PEND
// 039   ----------------------------------------
RandomDungeon3_3_39:
        BYTE           N12     Fn4   v064
        BYTE           N12     As4
        BYTE   W96
        BYTE   PEND
// 040   ----------------------------------------
        BYTE   W96
// 041   ----------------------------------------
        BYTE   W96
// 042   ----------------------------------------
        BYTE   W96
// 043   ----------------------------------------
        BYTE   GoTo
         POIN2  RandomDungeon3_3_LOOP
        BYTE   W96
// 044   ----------------------------------------
        BYTE   W96
// 045   ----------------------------------------
        BYTE   W96
// 046   ----------------------------------------
        BYTE   W96
// 047   ----------------------------------------
        BYTE   W96
// 048   ----------------------------------------
        BYTE   W96
// 049   ----------------------------------------
        BYTE   W96
// 050   ----------------------------------------
        BYTE   W96
// 051   ----------------------------------------
        BYTE   PATT
         POIN2  RandomDungeon3_3_13
// 052   ----------------------------------------
        BYTE   PATT
         POIN2  RandomDungeon3_3_14
// 053   ----------------------------------------
        BYTE   PATT
         POIN2  RandomDungeon3_3_15
// 054   ----------------------------------------
        BYTE   PATT
         POIN2  RandomDungeon3_3_16
// 055   ----------------------------------------
        BYTE   PATT
         POIN2  RandomDungeon3_3_17
// 056   ----------------------------------------
        BYTE   PATT
         POIN2  RandomDungeon3_3_18
// 057   ----------------------------------------
        BYTE   PATT
         POIN2  RandomDungeon3_3_19
// 058   ----------------------------------------
        BYTE   PATT
         POIN2  RandomDungeon3_3_20
// 059   ----------------------------------------
        BYTE   PATT
         POIN2  RandomDungeon3_3_21
// 060   ----------------------------------------
        BYTE   PATT
         POIN2  RandomDungeon3_3_22
// 061   ----------------------------------------
        BYTE   W96
// 062   ----------------------------------------
        BYTE   W96
// 063   ----------------------------------------
        BYTE   W96
// 064   ----------------------------------------
        BYTE   W96
// 065   ----------------------------------------
        BYTE   W96
// 066   ----------------------------------------
        BYTE   W96
// 067   ----------------------------------------
        BYTE   W96
// 068   ----------------------------------------
        BYTE   PATT
         POIN2  RandomDungeon3_3_30
// 069   ----------------------------------------
        BYTE   PATT
         POIN2  RandomDungeon3_3_31
// 070   ----------------------------------------
        BYTE   PATT
         POIN2  RandomDungeon3_3_32
// 071   ----------------------------------------
        BYTE   PATT
         POIN2  RandomDungeon3_3_33
// 072   ----------------------------------------
        BYTE   PATT
         POIN2  RandomDungeon3_3_34
// 073   ----------------------------------------
        BYTE   PATT
         POIN2  RandomDungeon3_3_35
// 074   ----------------------------------------
        BYTE   PATT
         POIN2  RandomDungeon3_3_36
// 075   ----------------------------------------
        BYTE   PATT
         POIN2  RandomDungeon3_3_37
// 076   ----------------------------------------
        BYTE   PATT
         POIN2  RandomDungeon3_3_38
// 077   ----------------------------------------
        BYTE   PATT
         POIN2  RandomDungeon3_3_39
// 078   ----------------------------------------
        BYTE   W96
// 079   ----------------------------------------
        BYTE   W96
// 080   ----------------------------------------
        BYTE   W96
// 081   ----------------------------------------
        BYTE   FINE

//****************** Track 4 (Midi-Chn.4) ******************//

RandomDungeon3_4:
        BYTE   KEYSH   RandomDungeon3_key+0
// 000   ----------------------------------------
        BYTE   W24
// 001   ----------------------------------------
        BYTE           PAN     c_v-10
        BYTE           VOL     47
        BYTE           VOICE   65
        BYTE   W96
// 002   ----------------------------------------
        BYTE   W96
// 003   ----------------------------------------
        BYTE   W96
// 004   ----------------------------------------
        BYTE   W96
// 005   ----------------------------------------
RandomDungeon3_4_LOOP:
        BYTE           N12     An2   v127
        BYTE   W18
        BYTE           N06     Dn3
        BYTE   W06
        BYTE                   Fs3
        BYTE   W12
        BYTE           N12     Gn3
        BYTE   W24
        BYTE                   Gn3
        BYTE   W24
        BYTE           N06
        BYTE   W12
// 006   ----------------------------------------
RandomDungeon3_4_6:
        BYTE           N12     Fs3   v127
        BYTE   W18
        BYTE           N06     Dn3
        BYTE   W06
        BYTE                   An2
        BYTE   W12
        BYTE           N48     Cn3
        BYTE   W60
        BYTE   PEND
// 007   ----------------------------------------
RandomDungeon3_4_7:
        BYTE           N12     An2   v127
        BYTE   W18
        BYTE           N06     Dn3
        BYTE   W06
        BYTE                   Fs3
        BYTE   W12
        BYTE           N12     Gn3
        BYTE   W24
        BYTE                   Gn3
        BYTE   W24
        BYTE           N06
        BYTE   W12
        BYTE   PEND
// 008   ----------------------------------------
RandomDungeon3_4_8:
        BYTE           N12     Fs3   v127
        BYTE   W18
        BYTE           N06     Dn3
        BYTE   W06
        BYTE                   An2
        BYTE   W12
        BYTE           N48     Gn2
        BYTE   W60
        BYTE   PEND
// 009   ----------------------------------------
        BYTE   PATT
         POIN2  RandomDungeon3_4_7
// 010   ----------------------------------------
RandomDungeon3_4_10:
        BYTE           N12     Fs3   v127
        BYTE   W18
        BYTE           N06     Dn3
        BYTE   W06
        BYTE                   An2
        BYTE   W12
        BYTE           N12     Cn3
        BYTE   W24
        BYTE           N24
        BYTE   W24
        BYTE           N12     Dn3
        BYTE   W12
        BYTE   PEND
// 011   ----------------------------------------
RandomDungeon3_4_11:
        BYTE           N12     Bn2   v127
        BYTE   W18
        BYTE           N06     An2
        BYTE   W06
        BYTE                   Gn2
        BYTE   W12
        BYTE           TIE     An2
        BYTE   W60
        BYTE   PEND
// 012   ----------------------------------------
        BYTE   W48
        BYTE           EOT
        BYTE   W48
// 013   ----------------------------------------
RandomDungeon3_4_13:
        BYTE           N96     An2   v100
        BYTE   W22
        BYTE           VOL     46
        BYTE   W03
        BYTE                   45
        BYTE   W05
        BYTE                   44
        BYTE   W03
        BYTE                   43
        BYTE   W04
        BYTE                   42
        BYTE   W03
        BYTE                   41
        BYTE   W03
        BYTE                   40
        BYTE   W03
        BYTE                   39
        BYTE   W05
        BYTE                   38
        BYTE   W04
        BYTE                   37
        BYTE   W02
        BYTE                   36
        BYTE   W06
        BYTE                   35
        BYTE   W03
        BYTE                   34
        BYTE   W04
        BYTE                   33
        BYTE   W03
        BYTE                   32
        BYTE   W03
        BYTE                   31
        BYTE   W05
        BYTE                   30
        BYTE   W04
        BYTE                   29
        BYTE   W03
        BYTE                   28
        BYTE   W03
        BYTE                   27
        BYTE   W03
        BYTE                   26
        BYTE   W02
        BYTE   PEND
// 014   ----------------------------------------
RandomDungeon3_4_14:
        BYTE   W24
        BYTE           VOL     47
        BYTE   W36
        BYTE           N12     Gn2   v100
        BYTE   W12
        BYTE           N06     Dn3
        BYTE   W12
        BYTE                   Gn3
        BYTE   W12
        BYTE   PEND
// 015   ----------------------------------------
RandomDungeon3_4_15:
        BYTE           N96     An3   v100
        BYTE   W32
        BYTE   W01
        BYTE           VOL     46
        BYTE   W03
        BYTE                   45
        BYTE   W03
        BYTE                   44
        BYTE   W06
        BYTE                   43
        BYTE   W03
        BYTE                   42
        BYTE   W03
        BYTE                   41
        BYTE   W03
        BYTE                   40
        BYTE   W06
        BYTE                   39
        BYTE   W03
        BYTE                   38
        BYTE   W03
        BYTE                   37
        BYTE   W03
        BYTE                   36
        BYTE   W06
        BYTE                   35
        BYTE   W03
        BYTE                   34
        BYTE   W06
        BYTE                   33
        BYTE   W03
        BYTE                   32
        BYTE   W03
        BYTE                   31
        BYTE   W03
        BYTE                   30
        BYTE   W03
        BYTE   PEND
// 016   ----------------------------------------
RandomDungeon3_4_16:
        BYTE   W21
        BYTE           VOL     47
        BYTE   W36
        BYTE   W03
        BYTE           N06     Gn3   v100
        BYTE   W12
        BYTE           N12     Fs3
        BYTE   W18
        BYTE           N06     Dn3
        BYTE   W06
        BYTE   PEND
// 017   ----------------------------------------
RandomDungeon3_4_17:
        BYTE           N96     An2   v100
        BYTE   W28
        BYTE           VOL     46
        BYTE   W03
        BYTE                   45
        BYTE   W05
        BYTE                   44
        BYTE   W03
        BYTE                   43
        BYTE   W04
        BYTE                   42
        BYTE   W03
        BYTE                   41
        BYTE   W03
        BYTE                   40
        BYTE   W03
        BYTE                   39
        BYTE   W05
        BYTE                   38
        BYTE   W04
        BYTE                   37
        BYTE   W02
        BYTE                   36
        BYTE   W04
        BYTE                   35
        BYTE   W05
        BYTE                   34
        BYTE   W04
        BYTE                   33
        BYTE   W02
        BYTE                   32
        BYTE   W04
        BYTE                   31
        BYTE   W05
        BYTE                   30
        BYTE   W03
        BYTE                   29
        BYTE   W06
        BYTE   PEND
// 018   ----------------------------------------
RandomDungeon3_4_18:
        BYTE   W12
        BYTE           VOL     47
        BYTE   W12
        BYTE           N12     An2   v100
        BYTE   W18
        BYTE           N06
        BYTE   W06
        BYTE                   Cn3
        BYTE   W12
        BYTE                   An2
        BYTE   W12
        BYTE                   Cn3
        BYTE   W12
        BYTE                   Dn3
        BYTE   W12
        BYTE   PEND
// 019   ----------------------------------------
RandomDungeon3_4_19:
        BYTE           N24     Dn3   v100
        BYTE           N24     Gn3
        BYTE   W36
        BYTE           N36     Dn3
        BYTE           N36     Fs3
        BYTE   W60
        BYTE   PEND
// 020   ----------------------------------------
RandomDungeon3_4_20:
        BYTE           N24     Dn3   v100
        BYTE           N24     En3
        BYTE   W36
        BYTE           N36     Dn3
        BYTE           N36     Fs3
        BYTE   W60
        BYTE   PEND
// 021   ----------------------------------------
RandomDungeon3_4_21:
        BYTE           N24     Dn3   v100
        BYTE           N24     Gn3
        BYTE   W36
        BYTE                   Dn3
        BYTE           N24     Fs3
        BYTE   W36
        BYTE           N96     Cs3
        BYTE           N96     En3
        BYTE   W24
        BYTE   PEND
// 022   ----------------------------------------
        BYTE   W96
// 023   ----------------------------------------
        BYTE   W96
// 024   ----------------------------------------
        BYTE   W96
// 025   ----------------------------------------
RandomDungeon3_4_25:
        BYTE   W60
        BYTE           VOL     46
        BYTE           N12     Fn3   v100
        BYTE   W12
        BYTE                   En3
        BYTE   W12
        BYTE                   Fn3
        BYTE   W12
        BYTE   PEND
// 026   ----------------------------------------
RandomDungeon3_4_26:
        BYTE           N24     En3   v100
        BYTE   W24
        BYTE           N36     Dn3
        BYTE   W36
        BYTE           N12     Cn3
        BYTE   W12
        BYTE                   Gn2
        BYTE   W12
        BYTE                   Cn3
        BYTE   W12
        BYTE   PEND
// 027   ----------------------------------------
RandomDungeon3_4_27:
        BYTE           N96     As2   v100
        BYTE   W24
        BYTE   W03
        BYTE           VOL     47
        BYTE   W01
        BYTE                   46
        BYTE   W05
        BYTE                   45
        BYTE   W06
        BYTE                   44
        BYTE   W06
        BYTE                   43
        BYTE   W06
        BYTE                   42
        BYTE   W03
        BYTE                   41
        BYTE   W04
        BYTE                   40
        BYTE   W05
        BYTE                   39
        BYTE   W06
        BYTE                   38
        BYTE   W06
        BYTE                   37
        BYTE   W03
        BYTE                   36
        BYTE   W07
        BYTE                   35
        BYTE   W05
        BYTE                   34
        BYTE   W04
        BYTE                   47
        BYTE   W02
        BYTE   PEND
// 028   ----------------------------------------
RandomDungeon3_4_28:
        BYTE           N48     Cn3   v100
        BYTE   W01
        BYTE           VOL     46
        BYTE   W03
        BYTE                   45
        BYTE   W06
        BYTE                   44
        BYTE   W05
        BYTE                   43
        BYTE   W04
        BYTE                   42
        BYTE   W03
        BYTE                   41
        BYTE   W05
        BYTE                   40
        BYTE   W04
        BYTE                   39
        BYTE   W05
        BYTE                   38
        BYTE   W06
        BYTE                   37
        BYTE   W03
        BYTE                   36
        BYTE   W03
        BYTE           N48     As2
        BYTE   W01
        BYTE           VOL     47
        BYTE   W02
        BYTE                   46
        BYTE   W03
        BYTE                   45
        BYTE   W04
        BYTE                   44
        BYTE   W03
        BYTE                   43
        BYTE   W05
        BYTE                   42
        BYTE   W03
        BYTE                   41
        BYTE   W03
        BYTE                   40
        BYTE   W03
        BYTE                   39
        BYTE   W04
        BYTE                   38
        BYTE   W03
        BYTE                   37
        BYTE   W03
        BYTE                   36
        BYTE   W05
        BYTE                   35
        BYTE   W06
        BYTE   PEND
// 029   ----------------------------------------
RandomDungeon3_4_29:
        BYTE           VOL     36
        BYTE           N56     Cs3   v100   gtp2
        BYTE   W01
        BYTE           VOL     47
        BYTE   W02
        BYTE                   46
        BYTE   W03
        BYTE                   45
        BYTE   W04
        BYTE                   44
        BYTE   W03
        BYTE                   43
        BYTE   W05
        BYTE                   42
        BYTE   W03
        BYTE                   41
        BYTE   W03
        BYTE                   40
        BYTE   W03
        BYTE                   39
        BYTE   W04
        BYTE                   38
        BYTE   W03
        BYTE                   37
        BYTE   W03
        BYTE                   36
        BYTE   W05
        BYTE                   35
        BYTE   W18
        BYTE                   41
        BYTE           N12     Gs3
        BYTE   W06
        BYTE           VOL     42
        BYTE   W03
        BYTE                   43
        BYTE   W03
        BYTE           N12     Gn3
        BYTE   W03
        BYTE           VOL     44
        BYTE   W07
        BYTE                   45
        BYTE   W02
        BYTE           N12     Gs3
        BYTE   W04
        BYTE           VOL     46
        BYTE   W05
        BYTE                   47
        BYTE   W03
        BYTE   PEND
// 030   ----------------------------------------
RandomDungeon3_4_30:
        BYTE           N24     Gn3   v100
        BYTE   W24
        BYTE                   Fn3
        BYTE   W24
        BYTE                   As2
        BYTE   W24
        BYTE                   Fn3
        BYTE   W24
        BYTE   PEND
// 031   ----------------------------------------
RandomDungeon3_4_31:
        BYTE           VOL     46
        BYTE           N96     En3   v100
        BYTE   W04
        BYTE           VOL     45
        BYTE   W06
        BYTE                   44
        BYTE   W05
        BYTE                   43
        BYTE   W06
        BYTE                   42
        BYTE   W03
        BYTE                   41
        BYTE   W04
        BYTE                   40
        BYTE   W05
        BYTE                   39
        BYTE   W06
        BYTE                   38
        BYTE   W06
        BYTE                   37
        BYTE   W03
        BYTE                   36
        BYTE   W06
        BYTE                   35
        BYTE   W04
        BYTE                   34
        BYTE   W06
        BYTE                   33
        BYTE   W03
        BYTE                   32
        BYTE   W06
        BYTE                   31
        BYTE   W06
        BYTE                   30
        BYTE   W06
        BYTE                   29
        BYTE   W03
        BYTE                   28
        BYTE   W06
        BYTE                   27
        BYTE   W02
        BYTE   PEND
// 032   ----------------------------------------
RandomDungeon3_4_32:
        BYTE   W24
        BYTE           VOL     47
        BYTE           N24     Cn3   v090
        BYTE   W24
        BYTE                   Dn3
        BYTE   W24
        BYTE                   En3
        BYTE   W24
        BYTE   PEND
// 033   ----------------------------------------
RandomDungeon3_4_33:
        BYTE           N96     Dn3   v090
        BYTE   W07
        BYTE           VOL     46
        BYTE   W03
        BYTE                   45
        BYTE   W04
        BYTE                   44
        BYTE   W05
        BYTE                   43
        BYTE   W04
        BYTE                   42
        BYTE   W03
        BYTE                   41
        BYTE   W03
        BYTE                   40
        BYTE   W04
        BYTE                   39
        BYTE   W05
        BYTE                   38
        BYTE   W04
        BYTE                   37
        BYTE   W03
        BYTE                   36
        BYTE   W04
        BYTE                   35
        BYTE   W04
        BYTE                   34
        BYTE   W04
        BYTE                   33
        BYTE   W03
        BYTE                   32
        BYTE   W04
        BYTE                   31
        BYTE   W05
        BYTE                   30
        BYTE   W04
        BYTE                   29
        BYTE   W03
        BYTE                   28
        BYTE   W04
        BYTE                   27
        BYTE   W03
        BYTE                   26
        BYTE   W06
        BYTE                   25
        BYTE   W03
        BYTE                   24
        BYTE   W02
        BYTE                   23
        BYTE   W02
        BYTE   PEND
// 034   ----------------------------------------
        BYTE   W96
// 035   ----------------------------------------
RandomDungeon3_4_35:
        BYTE           VOL     46
        BYTE           N96     As2   v100
        BYTE   W04
        BYTE           VOL     45
        BYTE   W06
        BYTE                   44
        BYTE   W05
        BYTE                   43
        BYTE   W06
        BYTE                   42
        BYTE   W03
        BYTE                   41
        BYTE   W04
        BYTE                   40
        BYTE   W05
        BYTE                   39
        BYTE   W06
        BYTE                   38
        BYTE   W06
        BYTE                   37
        BYTE   W03
        BYTE                   36
        BYTE   W06
        BYTE                   35
        BYTE   W04
        BYTE                   34
        BYTE   W06
        BYTE                   33
        BYTE   W03
        BYTE                   32
        BYTE   W06
        BYTE                   31
        BYTE   W06
        BYTE                   30
        BYTE   W06
        BYTE                   29
        BYTE   W03
        BYTE                   28
        BYTE   W06
        BYTE                   27
        BYTE   W02
        BYTE   PEND
// 036   ----------------------------------------
RandomDungeon3_4_36:
        BYTE   W24
        BYTE           VOL     47
        BYTE           N24     An2   v090
        BYTE   W24
        BYTE                   As2
        BYTE   W24
        BYTE                   Cn3
        BYTE   W24
        BYTE   PEND
// 037   ----------------------------------------
RandomDungeon3_4_37:
        BYTE           N24     As2   v127
        BYTE   W36
        BYTE           N04
        BYTE   W06
        BYTE                   As2
        BYTE   W06
        BYTE           N24
        BYTE   W36
        BYTE           N04
        BYTE   W06
        BYTE                   As2
        BYTE   W06
        BYTE   PEND
// 038   ----------------------------------------
RandomDungeon3_4_38:
        BYTE           N24     As3   v127
        BYTE   W36
        BYTE           N04
        BYTE   W06
        BYTE                   As3
        BYTE   W06
        BYTE           N40
        BYTE   W48
        BYTE   PEND
// 039   ----------------------------------------
RandomDungeon3_4_39:
        BYTE           N06     An3   v127
        BYTE   W24
        BYTE           TIE
        BYTE   W48
        BYTE   W03
        BYTE           VOL     46
        BYTE   W04
        BYTE                   45
        BYTE   W05
        BYTE                   44
        BYTE   W04
        BYTE                   43
        BYTE   W05
        BYTE                   42
        BYTE   W03
        BYTE   PEND
// 040   ----------------------------------------
RandomDungeon3_4_40:
        BYTE           VOL     41
        BYTE   W03
        BYTE                   40
        BYTE   W04
        BYTE                   39
        BYTE   W05
        BYTE                   38
        BYTE   W04
        BYTE                   37
        BYTE   W03
        BYTE                   36
        BYTE   W05
        BYTE                   35
        BYTE   W06
        BYTE                   34
        BYTE   W04
        BYTE                   33
        BYTE   W03
        BYTE                   32
        BYTE   W05
        BYTE                   31
        BYTE   W04
        BYTE                   30
        BYTE   W05
        BYTE                   29
        BYTE   W03
        BYTE                   28
        BYTE   W04
        BYTE                   27
        BYTE   W03
        BYTE                   26
        BYTE   W06
        BYTE                   25
        BYTE   W03
        BYTE                   24
        BYTE   W03
        BYTE                   23
        BYTE   W05
        BYTE                   22
        BYTE   W04
        BYTE                   21
        BYTE   W06
        BYTE                   20
        BYTE   W02
        BYTE                   19
        BYTE   W06
        BYTE   PEND
// 041   ----------------------------------------
        BYTE           EOT     An3
        BYTE   W96
// 042   ----------------------------------------
        BYTE           VOL     47
        BYTE   W96
// 043   ----------------------------------------
        BYTE           N12     An2   v127
        BYTE   GoTo
         POIN2  RandomDungeon3_4_LOOP
        BYTE   W18
        BYTE           N06     Dn3
        BYTE   W06
        BYTE                   Fs3
        BYTE   W12
        BYTE           N12     Gn3
        BYTE   W24
        BYTE                   Gn3
        BYTE   W24
        BYTE           N06
        BYTE   W12
// 044   ----------------------------------------
        BYTE   PATT
         POIN2  RandomDungeon3_4_6
// 045   ----------------------------------------
        BYTE   PATT
         POIN2  RandomDungeon3_4_7
// 046   ----------------------------------------
        BYTE   PATT
         POIN2  RandomDungeon3_4_8
// 047   ----------------------------------------
        BYTE   PATT
         POIN2  RandomDungeon3_4_7
// 048   ----------------------------------------
        BYTE   PATT
         POIN2  RandomDungeon3_4_10
// 049   ----------------------------------------
        BYTE   PATT
         POIN2  RandomDungeon3_4_11
// 050   ----------------------------------------
        BYTE   W48
        BYTE           EOT     An2
        BYTE   W48
// 051   ----------------------------------------
        BYTE   PATT
         POIN2  RandomDungeon3_4_13
// 052   ----------------------------------------
        BYTE   PATT
         POIN2  RandomDungeon3_4_14
// 053   ----------------------------------------
        BYTE   PATT
         POIN2  RandomDungeon3_4_15
// 054   ----------------------------------------
        BYTE   PATT
         POIN2  RandomDungeon3_4_16
// 055   ----------------------------------------
        BYTE   PATT
         POIN2  RandomDungeon3_4_17
// 056   ----------------------------------------
        BYTE   PATT
         POIN2  RandomDungeon3_4_18
// 057   ----------------------------------------
        BYTE   PATT
         POIN2  RandomDungeon3_4_19
// 058   ----------------------------------------
        BYTE   PATT
         POIN2  RandomDungeon3_4_20
// 059   ----------------------------------------
        BYTE   PATT
         POIN2  RandomDungeon3_4_21
// 060   ----------------------------------------
        BYTE   W96
// 061   ----------------------------------------
        BYTE   W96
// 062   ----------------------------------------
        BYTE   W96
// 063   ----------------------------------------
        BYTE   PATT
         POIN2  RandomDungeon3_4_25
// 064   ----------------------------------------
        BYTE   PATT
         POIN2  RandomDungeon3_4_26
// 065   ----------------------------------------
        BYTE   PATT
         POIN2  RandomDungeon3_4_27
// 066   ----------------------------------------
        BYTE   PATT
         POIN2  RandomDungeon3_4_28
// 067   ----------------------------------------
        BYTE   PATT
         POIN2  RandomDungeon3_4_29
// 068   ----------------------------------------
        BYTE   PATT
         POIN2  RandomDungeon3_4_30
// 069   ----------------------------------------
        BYTE   PATT
         POIN2  RandomDungeon3_4_31
// 070   ----------------------------------------
        BYTE   PATT
         POIN2  RandomDungeon3_4_32
// 071   ----------------------------------------
        BYTE   PATT
         POIN2  RandomDungeon3_4_33
// 072   ----------------------------------------
        BYTE   W96
// 073   ----------------------------------------
        BYTE   PATT
         POIN2  RandomDungeon3_4_35
// 074   ----------------------------------------
        BYTE   PATT
         POIN2  RandomDungeon3_4_36
// 075   ----------------------------------------
        BYTE   PATT
         POIN2  RandomDungeon3_4_37
// 076   ----------------------------------------
        BYTE   PATT
         POIN2  RandomDungeon3_4_38
// 077   ----------------------------------------
        BYTE   PATT
         POIN2  RandomDungeon3_4_39
// 078   ----------------------------------------
        BYTE   PATT
         POIN2  RandomDungeon3_4_40
// 079   ----------------------------------------
        BYTE           EOT     An3
        BYTE   W96
// 080   ----------------------------------------
        BYTE           VOL     47
        BYTE   W96
// 081   ----------------------------------------
        BYTE   FINE

//****************** Track 5 (Midi-Chn.5) ******************//

RandomDungeon3_5:
        BYTE   KEYSH   RandomDungeon3_key+0
// 000   ----------------------------------------
        BYTE   W24
// 001   ----------------------------------------
        BYTE           PAN     c_v+63
        BYTE           VOL     23
        BYTE           VOICE   65
        BYTE   W96
// 002   ----------------------------------------
        BYTE   W96
// 003   ----------------------------------------
        BYTE   W96
// 004   ----------------------------------------
        BYTE   W96
// 005   ----------------------------------------
RandomDungeon3_5_LOOP:
        BYTE   W12
        BYTE           N12     An2   v127
        BYTE   W18
        BYTE           N06     Dn3
        BYTE   W06
        BYTE                   Fs3
        BYTE   W12
        BYTE           N12     Gn3
        BYTE   W24
        BYTE                   Gn3
        BYTE   W24
// 006   ----------------------------------------
RandomDungeon3_5_6:
        BYTE           N06     Gn3   v127
        BYTE   W12
        BYTE           N12     Fs3
        BYTE   W18
        BYTE           N06     Dn3
        BYTE   W06
        BYTE                   An2
        BYTE   W12
        BYTE           N48     Cn3
        BYTE   W48
        BYTE   PEND
// 007   ----------------------------------------
RandomDungeon3_5_7:
        BYTE   W12
        BYTE           N12     An2   v127
        BYTE   W18
        BYTE           N06     Dn3
        BYTE   W06
        BYTE                   Fs3
        BYTE   W12
        BYTE           N12     Gn3
        BYTE   W24
        BYTE                   Gn3
        BYTE   W24
        BYTE   PEND
// 008   ----------------------------------------
RandomDungeon3_5_8:
        BYTE           N06     Gn3   v127
        BYTE   W12
        BYTE           N12     Fs3
        BYTE   W18
        BYTE           N06     Dn3
        BYTE   W06
        BYTE                   An2
        BYTE   W12
        BYTE           N48     Gn2
        BYTE   W48
        BYTE   PEND
// 009   ----------------------------------------
        BYTE   PATT
         POIN2  RandomDungeon3_5_7
// 010   ----------------------------------------
RandomDungeon3_5_10:
        BYTE           N06     Gn3   v127
        BYTE   W12
        BYTE           N12     Fs3
        BYTE   W18
        BYTE           N06     Dn3
        BYTE   W06
        BYTE                   An2
        BYTE   W12
        BYTE           N12     Cn3
        BYTE   W24
        BYTE           N24
        BYTE   W24
        BYTE   PEND
// 011   ----------------------------------------
RandomDungeon3_5_11:
        BYTE           N12     Dn3   v127
        BYTE   W12
        BYTE                   Bn2
        BYTE   W18
        BYTE           N06     An2
        BYTE   W06
        BYTE                   Gn2
        BYTE   W12
        BYTE           TIE     An2
        BYTE   W48
        BYTE   PEND
// 012   ----------------------------------------
        BYTE   W60
        BYTE           EOT
        BYTE   W36
// 013   ----------------------------------------
RandomDungeon3_5_13:
        BYTE   W12
        BYTE           N96     An2   v100
        BYTE   W24
        BYTE           VOL     22
        BYTE   W07
        BYTE                   21
        BYTE   W09
        BYTE                   20
        BYTE   W06
        BYTE                   19
        BYTE   W09
        BYTE                   18
        BYTE   W08
        BYTE                   17
        BYTE   W07
        BYTE                   16
        BYTE   W06
        BYTE                   15
        BYTE   W08
        BYTE   PEND
// 014   ----------------------------------------
RandomDungeon3_5_14:
        BYTE   W01
        BYTE           VOL     14
        BYTE   W06
        BYTE                   13
        BYTE   W28
        BYTE   W01
        BYTE                   23
        BYTE   W36
        BYTE           N12     Gn2   v100
        BYTE   W12
        BYTE           N06     Dn3
        BYTE   W12
        BYTE   PEND
// 015   ----------------------------------------
RandomDungeon3_5_15:
        BYTE           N06     Gn3   v100
        BYTE   W12
        BYTE           N96     An3
        BYTE   W36
        BYTE           VOL     22
        BYTE   W06
        BYTE                   21
        BYTE   W09
        BYTE                   20
        BYTE   W09
        BYTE                   19
        BYTE   W06
        BYTE                   18
        BYTE   W09
        BYTE                   17
        BYTE   W09
        BYTE   PEND
// 016   ----------------------------------------
RandomDungeon3_5_16:
        BYTE           VOL     16
        BYTE   W06
        BYTE                   15
        BYTE   W24
        BYTE   W03
        BYTE                   23
        BYTE   W36
        BYTE   W03
        BYTE           N06     Gn3   v100
        BYTE   W12
        BYTE           N12     Fs3
        BYTE   W12
        BYTE   PEND
// 017   ----------------------------------------
RandomDungeon3_5_17:
        BYTE   W06
        BYTE           N06     Dn3   v100
        BYTE   W06
        BYTE           N96     An2
        BYTE   W30
        BYTE           VOL     22
        BYTE   W07
        BYTE                   21
        BYTE   W09
        BYTE                   20
        BYTE   W06
        BYTE                   19
        BYTE   W09
        BYTE                   18
        BYTE   W06
        BYTE                   17
        BYTE   W09
        BYTE                   16
        BYTE   W06
        BYTE                   15
        BYTE   W02
        BYTE   PEND
// 018   ----------------------------------------
RandomDungeon3_5_18:
        BYTE   W06
        BYTE           VOL     14
        BYTE   W18
        BYTE                   23
        BYTE   W12
        BYTE           N12     An2   v100
        BYTE   W18
        BYTE           N06
        BYTE   W06
        BYTE                   Cn3
        BYTE   W12
        BYTE                   An2
        BYTE   W12
        BYTE                   Cn3
        BYTE   W12
        BYTE   PEND
// 019   ----------------------------------------
RandomDungeon3_5_19:
        BYTE           N06     Dn3   v100
        BYTE   W12
        BYTE           N24
        BYTE           N24     Gn3
        BYTE   W36
        BYTE           N36     Dn3
        BYTE           N36     Fs3
        BYTE   W48
        BYTE   PEND
// 020   ----------------------------------------
RandomDungeon3_5_20:
        BYTE   W12
        BYTE           N24     Dn3   v100
        BYTE           N24     En3
        BYTE   W36
        BYTE           N36     Dn3
        BYTE           N36     Fs3
        BYTE   W48
        BYTE   PEND
// 021   ----------------------------------------
        BYTE   W96
// 022   ----------------------------------------
        BYTE   W96
// 023   ----------------------------------------
        BYTE   W96
// 024   ----------------------------------------
        BYTE   W96
// 025   ----------------------------------------
RandomDungeon3_5_25:
        BYTE   W72
        BYTE           N12     Fn3   v100
        BYTE   W12
        BYTE                   En3
        BYTE   W12
        BYTE   PEND
// 026   ----------------------------------------
RandomDungeon3_5_26:
        BYTE           N12     Fn3   v100
        BYTE   W12
        BYTE           N24     En3
        BYTE   W24
        BYTE           N36     Dn3
        BYTE   W36
        BYTE           N12     Cn3
        BYTE   W12
        BYTE                   Gn2
        BYTE   W12
        BYTE   PEND
// 027   ----------------------------------------
RandomDungeon3_5_27:
        BYTE           N12     Cn3   v100
        BYTE   W12
        BYTE           N96     As2
        BYTE   W30
        BYTE   W01
        BYTE           VOL     22
        BYTE   W11
        BYTE                   21
        BYTE   W12
        BYTE                   20
        BYTE   W09
        BYTE                   19
        BYTE   W12
        BYTE                   18
        BYTE   W09
        BYTE   PEND
// 028   ----------------------------------------
RandomDungeon3_5_28:
        BYTE   W01
        BYTE           VOL     17
        BYTE   W09
        BYTE                   23
        BYTE   W02
        BYTE           N48     Cn3   v100
        BYTE   W03
        BYTE           VOL     22
        BYTE   W10
        BYTE                   21
        BYTE   W09
        BYTE                   20
        BYTE   W09
        BYTE                   19
        BYTE   W11
        BYTE                   18
        BYTE   W06
        BYTE           N48     As2
        BYTE   W01
        BYTE           VOL     23
        BYTE   W03
        BYTE                   22
        BYTE   W09
        BYTE                   21
        BYTE   W08
        BYTE                   20
        BYTE   W06
        BYTE                   19
        BYTE   W07
        BYTE                   18
        BYTE   W02
        BYTE   PEND
// 029   ----------------------------------------
RandomDungeon3_5_29:
        BYTE   W06
        BYTE           VOL     17
        BYTE   W06
        BYTE                   18
        BYTE           N56     Cs3   v100   gtp2
        BYTE   W01
        BYTE           VOL     23
        BYTE   W03
        BYTE                   22
        BYTE   W09
        BYTE                   21
        BYTE   W08
        BYTE                   20
        BYTE   W06
        BYTE                   19
        BYTE   W07
        BYTE                   18
        BYTE   W08
        BYTE                   17
        BYTE   W18
        BYTE                   20
        BYTE           N12     Gs3
        BYTE   W06
        BYTE           VOL     21
        BYTE   W06
        BYTE           N12     Gn3
        BYTE   W06
        BYTE           VOL     22
        BYTE   W06
        BYTE   PEND
// 030   ----------------------------------------
RandomDungeon3_5_30:
        BYTE           N12     Gs3   v100
        BYTE   W06
        BYTE           VOL     23
        BYTE   W06
        BYTE           N24     Gn3
        BYTE   W24
        BYTE                   Fn3
        BYTE   W24
        BYTE                   As2
        BYTE   W24
        BYTE                   Fn3
        BYTE   W12
        BYTE   PEND
// 031   ----------------------------------------
        BYTE   W96
// 032   ----------------------------------------
RandomDungeon3_5_32:
        BYTE   W24
        BYTE           VOL     13
        BYTE   W12
        BYTE                   23
        BYTE           N24     Cn3   v090
        BYTE   W24
        BYTE                   Dn3
        BYTE   W24
        BYTE                   En3
        BYTE   W12
        BYTE   PEND
// 033   ----------------------------------------
RandomDungeon3_5_33:
        BYTE   W12
        BYTE           N96     Dn3   v090
        BYTE   W09
        BYTE           VOL     22
        BYTE   W08
        BYTE                   21
        BYTE   W09
        BYTE                   20
        BYTE   W07
        BYTE                   19
        BYTE   W09
        BYTE                   18
        BYTE   W07
        BYTE                   17
        BYTE   W08
        BYTE                   16
        BYTE   W07
        BYTE                   15
        BYTE   W09
        BYTE                   14
        BYTE   W07
        BYTE                   13
        BYTE   W04
        BYTE   PEND
// 034   ----------------------------------------
RandomDungeon3_5_34:
        BYTE   W05
        BYTE           VOL     12
        BYTE   W05
        BYTE                   11
        BYTE   W84
        BYTE   W02
        BYTE   PEND
// 035   ----------------------------------------
RandomDungeon3_5_35:
        BYTE   W12
        BYTE           VOL     23
        BYTE           N96     As2   v100
        BYTE   W03
        BYTE           VOL     22
        BYTE   W10
        BYTE                   21
        BYTE   W11
        BYTE                   20
        BYTE   W09
        BYTE                   19
        BYTE   W12
        BYTE                   18
        BYTE   W09
        BYTE                   17
        BYTE   W10
        BYTE                   16
        BYTE   W09
        BYTE                   15
        BYTE   W11
        BYTE   PEND
// 036   ----------------------------------------
RandomDungeon3_5_36:
        BYTE   W01
        BYTE           VOL     14
        BYTE   W09
        BYTE                   13
        BYTE   W24
        BYTE   W02
        BYTE                   23
        BYTE           N24     An2   v090
        BYTE   W24
        BYTE                   As2
        BYTE   W24
        BYTE                   Cn3
        BYTE   W12
        BYTE   PEND
// 037   ----------------------------------------
RandomDungeon3_5_37:
        BYTE   W12
        BYTE           N24     As2   v127
        BYTE   W36
        BYTE           N04
        BYTE   W06
        BYTE                   As2
        BYTE   W06
        BYTE           N24
        BYTE   W36
        BYTE   PEND
// 038   ----------------------------------------
RandomDungeon3_5_38:
        BYTE           N04     As2   v127
        BYTE   W06
        BYTE                   As2
        BYTE   W06
        BYTE           N24     As3
        BYTE   W36
        BYTE           N04
        BYTE   W06
        BYTE                   As3
        BYTE   W06
        BYTE           N40
        BYTE   W36
        BYTE   PEND
// 039   ----------------------------------------
RandomDungeon3_5_39:
        BYTE   W12
        BYTE           N06     An3   v127
        BYTE   W24
        BYTE           TIE
        BYTE   W54
        BYTE           VOL     22
        BYTE   W06
        BYTE   PEND
// 040   ----------------------------------------
RandomDungeon3_5_40:
        BYTE   W03
        BYTE           VOL     21
        BYTE   W09
        BYTE                   20
        BYTE   W07
        BYTE                   19
        BYTE   W09
        BYTE                   18
        BYTE   W08
        BYTE                   17
        BYTE   W10
        BYTE                   16
        BYTE   W08
        BYTE                   15
        BYTE   W09
        BYTE                   14
        BYTE   W07
        BYTE                   13
        BYTE   W09
        BYTE                   12
        BYTE   W06
        BYTE                   11
        BYTE   W09
        BYTE                   10
        BYTE   W02
        BYTE   PEND
// 041   ----------------------------------------
RandomDungeon3_5_41:
        BYTE   W06
        BYTE           VOL     9
        BYTE   W06
        BYTE           EOT     An3
        BYTE   W84
        BYTE   PEND
// 042   ----------------------------------------
        BYTE   W12
        BYTE           VOL     23
        BYTE   W84
// 043   ----------------------------------------
        BYTE   GoTo
         POIN2  RandomDungeon3_5_LOOP
        BYTE   W12
        BYTE           N12     An2   v127
        BYTE   W18
        BYTE           N06     Dn3
        BYTE   W06
        BYTE                   Fs3
        BYTE   W12
        BYTE           N12     Gn3
        BYTE   W24
        BYTE                   Gn3
        BYTE   W24
// 044   ----------------------------------------
        BYTE   PATT
         POIN2  RandomDungeon3_5_6
// 045   ----------------------------------------
        BYTE   PATT
         POIN2  RandomDungeon3_5_7
// 046   ----------------------------------------
        BYTE   PATT
         POIN2  RandomDungeon3_5_8
// 047   ----------------------------------------
        BYTE   PATT
         POIN2  RandomDungeon3_5_7
// 048   ----------------------------------------
        BYTE   PATT
         POIN2  RandomDungeon3_5_10
// 049   ----------------------------------------
        BYTE   PATT
         POIN2  RandomDungeon3_5_11
// 050   ----------------------------------------
        BYTE   W60
        BYTE           EOT     An2
        BYTE   W36
// 051   ----------------------------------------
        BYTE   PATT
         POIN2  RandomDungeon3_5_13
// 052   ----------------------------------------
        BYTE   PATT
         POIN2  RandomDungeon3_5_14
// 053   ----------------------------------------
        BYTE   PATT
         POIN2  RandomDungeon3_5_15
// 054   ----------------------------------------
        BYTE   PATT
         POIN2  RandomDungeon3_5_16
// 055   ----------------------------------------
        BYTE   PATT
         POIN2  RandomDungeon3_5_17
// 056   ----------------------------------------
        BYTE   PATT
         POIN2  RandomDungeon3_5_18
// 057   ----------------------------------------
        BYTE   PATT
         POIN2  RandomDungeon3_5_19
// 058   ----------------------------------------
        BYTE   PATT
         POIN2  RandomDungeon3_5_20
// 059   ----------------------------------------
        BYTE   W96
// 060   ----------------------------------------
        BYTE   W96
// 061   ----------------------------------------
        BYTE   W96
// 062   ----------------------------------------
        BYTE   W96
// 063   ----------------------------------------
        BYTE   PATT
         POIN2  RandomDungeon3_5_25
// 064   ----------------------------------------
        BYTE   PATT
         POIN2  RandomDungeon3_5_26
// 065   ----------------------------------------
        BYTE   PATT
         POIN2  RandomDungeon3_5_27
// 066   ----------------------------------------
        BYTE   PATT
         POIN2  RandomDungeon3_5_28
// 067   ----------------------------------------
        BYTE   PATT
         POIN2  RandomDungeon3_5_29
// 068   ----------------------------------------
        BYTE   PATT
         POIN2  RandomDungeon3_5_30
// 069   ----------------------------------------
        BYTE   W96
// 070   ----------------------------------------
        BYTE   PATT
         POIN2  RandomDungeon3_5_32
// 071   ----------------------------------------
        BYTE   PATT
         POIN2  RandomDungeon3_5_33
// 072   ----------------------------------------
        BYTE   PATT
         POIN2  RandomDungeon3_5_34
// 073   ----------------------------------------
        BYTE   PATT
         POIN2  RandomDungeon3_5_35
// 074   ----------------------------------------
        BYTE   PATT
         POIN2  RandomDungeon3_5_36
// 075   ----------------------------------------
        BYTE   PATT
         POIN2  RandomDungeon3_5_37
// 076   ----------------------------------------
        BYTE   PATT
         POIN2  RandomDungeon3_5_38
// 077   ----------------------------------------
        BYTE   PATT
         POIN2  RandomDungeon3_5_39
// 078   ----------------------------------------
        BYTE   PATT
         POIN2  RandomDungeon3_5_40
// 079   ----------------------------------------
        BYTE   PATT
         POIN2  RandomDungeon3_5_41
// 080   ----------------------------------------
        BYTE   W12
        BYTE           VOL     23
        BYTE   W84
// 081   ----------------------------------------
        BYTE   FINE

//****************** Track 6 (Midi-Chn.6) ******************//

RandomDungeon3_6:
        BYTE   KEYSH   RandomDungeon3_key+0
// 000   ----------------------------------------
        BYTE   W24
// 001   ----------------------------------------
        BYTE           PAN     c_v+16
        BYTE           VOL     35
        BYTE           VOICE   65
        BYTE           N06     Dn2   v110
        BYTE   W36
        BYTE                   Dn2
        BYTE   W24
        BYTE                   Dn2
        BYTE   W24
        BYTE                   Dn2
        BYTE   W12
// 002   ----------------------------------------
RandomDungeon3_6_2:
        BYTE           N06     Dn2   v110
        BYTE   W36
        BYTE                   Dn2
        BYTE   W24
        BYTE                   Dn2
        BYTE   W24
        BYTE                   Dn2
        BYTE   W12
        BYTE   PEND
// 003   ----------------------------------------
        BYTE   PATT
         POIN2  RandomDungeon3_6_2
// 004   ----------------------------------------
        BYTE   PATT
         POIN2  RandomDungeon3_6_2
// 005   ----------------------------------------
RandomDungeon3_6_LOOP:
        BYTE           N06     Dn2   v110
        BYTE   W36
        BYTE                   Dn2
        BYTE   W24
        BYTE                   Dn2
        BYTE   W24
        BYTE                   Dn2
        BYTE   W12
// 006   ----------------------------------------
        BYTE   PATT
         POIN2  RandomDungeon3_6_2
// 007   ----------------------------------------
        BYTE   PATT
         POIN2  RandomDungeon3_6_2
// 008   ----------------------------------------
        BYTE   PATT
         POIN2  RandomDungeon3_6_2
// 009   ----------------------------------------
        BYTE   PATT
         POIN2  RandomDungeon3_6_2
// 010   ----------------------------------------
        BYTE   PATT
         POIN2  RandomDungeon3_6_2
// 011   ----------------------------------------
RandomDungeon3_6_11:
        BYTE           N06     Dn2   v110
        BYTE   W36
        BYTE                   Dn2
        BYTE   W24
        BYTE                   Dn2
        BYTE           N18     Gn2   v127
        BYTE           N18     An2
        BYTE   W18
        BYTE           N06     Gn2   v060
        BYTE           N06     An2
        BYTE   W06
        BYTE                   Dn2   v110
        BYTE           N06     Gn2   v127
        BYTE           N06     An2
        BYTE   W06
        BYTE                   Gn2   v060
        BYTE           N06     An2
        BYTE   W06
        BYTE   PEND
// 012   ----------------------------------------
RandomDungeon3_6_12:
        BYTE           N06     Dn2   v110
        BYTE           N12     Cn3   v127
        BYTE           N12     En3
        BYTE   W12
        BYTE           N06     Cn3   v060
        BYTE           N06     En3
        BYTE   W06
        BYTE                   Dn3   v127
        BYTE           N06     Fs3
        BYTE   W06
        BYTE                   En3
        BYTE           N06     Gn3
        BYTE   W06
        BYTE                   En3   v060
        BYTE           N06     Gn3
        BYTE   W06
        BYTE                   Dn2   v110
        BYTE           N48     Dn3   v127
        BYTE           N48     Fs3
        BYTE   W24
        BYTE           N06     Dn2   v110
        BYTE   W24
        BYTE                   Dn2
        BYTE           N06     Dn3   v060
        BYTE           N06     Fs3
        BYTE   W06
        BYTE                   Dn3   v040
        BYTE           N06     Fs3
        BYTE   W06
        BYTE   PEND
// 013   ----------------------------------------
        BYTE   PATT
         POIN2  RandomDungeon3_6_2
// 014   ----------------------------------------
        BYTE   PATT
         POIN2  RandomDungeon3_6_2
// 015   ----------------------------------------
        BYTE   PATT
         POIN2  RandomDungeon3_6_2
// 016   ----------------------------------------
        BYTE   PATT
         POIN2  RandomDungeon3_6_2
// 017   ----------------------------------------
        BYTE   PATT
         POIN2  RandomDungeon3_6_2
// 018   ----------------------------------------
        BYTE   PATT
         POIN2  RandomDungeon3_6_2
// 019   ----------------------------------------
        BYTE   PATT
         POIN2  RandomDungeon3_6_11
// 020   ----------------------------------------
        BYTE   PATT
         POIN2  RandomDungeon3_6_12
// 021   ----------------------------------------
RandomDungeon3_6_21:
        BYTE           N06     Dn2   v110
        BYTE   W36
        BYTE                   Dn2
        BYTE   W36
        BYTE                   An1
        BYTE           N12     An2   v127
        BYTE           N12     En3
        BYTE   W12
        BYTE           N06     An1   v110
        BYTE   W06
        BYTE           N04     An2   v127
        BYTE           N04     En3
        BYTE   W06
        BYTE   PEND
// 022   ----------------------------------------
RandomDungeon3_6_22:
        BYTE           N06     An1   v110
        BYTE           N96     An2   v127
        BYTE           N96     En3
        BYTE   W36
        BYTE           N06     An1   v110
        BYTE   W24
        BYTE                   An1
        BYTE   W24
        BYTE                   An1
        BYTE   W12
        BYTE   PEND
// 023   ----------------------------------------
RandomDungeon3_6_23:
        BYTE           N06     Gn1   v110
        BYTE   W24
        BYTE                   Gn1
        BYTE   W24
        BYTE                   Gn1
        BYTE   W24
        BYTE                   Gn1
        BYTE   W24
        BYTE   PEND
// 024   ----------------------------------------
        BYTE   PATT
         POIN2  RandomDungeon3_6_23
// 025   ----------------------------------------
RandomDungeon3_6_25:
        BYTE           N06     Fn1   v110
        BYTE   W24
        BYTE                   Fn1
        BYTE   W24
        BYTE                   Fn1
        BYTE   W24
        BYTE                   Fn1
        BYTE   W24
        BYTE   PEND
// 026   ----------------------------------------
        BYTE   PATT
         POIN2  RandomDungeon3_6_25
// 027   ----------------------------------------
RandomDungeon3_6_27:
        BYTE           N06     Ds2   v110
        BYTE   W24
        BYTE                   Ds2
        BYTE   W24
        BYTE                   Ds2
        BYTE   W24
        BYTE                   Ds2
        BYTE   W24
        BYTE   PEND
// 028   ----------------------------------------
        BYTE   PATT
         POIN2  RandomDungeon3_6_27
// 029   ----------------------------------------
RandomDungeon3_6_29:
        BYTE           N06     Cs2   v110
        BYTE   W24
        BYTE                   Cs2
        BYTE   W24
        BYTE                   Cs2
        BYTE   W24
        BYTE                   Cs2
        BYTE   W24
        BYTE   PEND
// 030   ----------------------------------------
        BYTE   PATT
         POIN2  RandomDungeon3_6_29
// 031   ----------------------------------------
RandomDungeon3_6_31:
        BYTE           N06     Cn1   v127
        BYTE   W36
        BYTE                   Cn1
        BYTE   W06
        BYTE           N04     Gn2   v110
        BYTE           N04     Cn3
        BYTE   W06
        BYTE           N96     Gn2
        BYTE           N96     Cn3
        BYTE   W12
        BYTE           N06     Cn1   v127
        BYTE   W24
        BYTE                   Cn1
        BYTE   W12
        BYTE   PEND
// 032   ----------------------------------------
RandomDungeon3_6_32:
        BYTE           N06     Cn1   v127
        BYTE   W36
        BYTE                   Cn1
        BYTE   W24
        BYTE                   Cn1
        BYTE   W24
        BYTE                   Cn1
        BYTE   W12
        BYTE   PEND
// 033   ----------------------------------------
RandomDungeon3_6_33:
        BYTE           N06     As0   v127
        BYTE   W36
        BYTE                   As0
        BYTE   W06
        BYTE           N04     As2   v110
        BYTE           N04     Dn3
        BYTE   W06
        BYTE           N96     As2
        BYTE           N96     Dn3
        BYTE   W12
        BYTE           N06     As0   v127
        BYTE   W24
        BYTE                   As0
        BYTE   W12
        BYTE   PEND
// 034   ----------------------------------------
RandomDungeon3_6_34:
        BYTE           N06     As0   v127
        BYTE   W36
        BYTE                   As0
        BYTE   W24
        BYTE                   As0
        BYTE   W24
        BYTE                   As0
        BYTE   W12
        BYTE   PEND
// 035   ----------------------------------------
RandomDungeon3_6_35:
        BYTE           N06     Ds1   v127
        BYTE   W36
        BYTE                   Ds1
        BYTE   W06
        BYTE           N04     As2   v110
        BYTE           N04     Ds3
        BYTE   W06
        BYTE           N48     As2
        BYTE           N48     Ds3
        BYTE   W12
        BYTE           N06     Ds1   v127
        BYTE   W24
        BYTE                   Ds1
        BYTE   W12
        BYTE   PEND
// 036   ----------------------------------------
RandomDungeon3_6_36:
        BYTE           N06     Fn1   v127
        BYTE   W18
        BYTE           N04     An2   v110
        BYTE           N04     Cn3
        BYTE   W06
        BYTE           N48     An2
        BYTE           N48     Cn3
        BYTE   W12
        BYTE           N06     Fn1   v127
        BYTE   W24
        BYTE                   Fn1
        BYTE   W24
        BYTE                   Fn1
        BYTE   W12
        BYTE   PEND
// 037   ----------------------------------------
RandomDungeon3_6_37:
        BYTE           N06     Gs1   v127
        BYTE   W18
        BYTE           N04     Cn3   v110
        BYTE           N04     Fn3
        BYTE   W06
        BYTE           N48     Cn3
        BYTE           N48     Fn3
        BYTE   W12
        BYTE           N06     Gs1   v127
        BYTE   W24
        BYTE                   Gs1
        BYTE   W24
        BYTE                   Gs1
        BYTE   W12
        BYTE   PEND
// 038   ----------------------------------------
RandomDungeon3_6_38:
        BYTE           N06     As1   v127
        BYTE   W18
        BYTE           N04     Dn3   v110
        BYTE           N04     Fn3
        BYTE   W06
        BYTE           N24     Dn3
        BYTE           N24     Fn3
        BYTE   W12
        BYTE           N06     As1   v127
        BYTE   W12
        BYTE                   Cn2
        BYTE   W18
        BYTE           N04     En3   v110
        BYTE           N04     Gn3
        BYTE   W06
        BYTE           N24     En3
        BYTE           N24     Gn3
        BYTE   W12
        BYTE           N06     Cn2   v127
        BYTE   W12
        BYTE   PEND
// 039   ----------------------------------------
RandomDungeon3_6_39:
        BYTE           N04     Fs3   v110
        BYTE           N04     An3
        BYTE           N06     Dn2
        BYTE   W24
        BYTE           TIE     Fs3
        BYTE           TIE     An3
        BYTE   W12
        BYTE           N06     Dn2
        BYTE   W24
        BYTE                   Dn2
        BYTE   W24
        BYTE                   Dn2
        BYTE   W12
        BYTE   PEND
// 040   ----------------------------------------
        BYTE   PATT
         POIN2  RandomDungeon3_6_2
// 041   ----------------------------------------
RandomDungeon3_6_41:
        BYTE           EOT     Fs3
        BYTE                   An3
        BYTE           N06     Dn2   v110
        BYTE   W36
        BYTE                   Dn2
        BYTE   W24
        BYTE                   Dn2
        BYTE   W24
        BYTE                   Dn2
        BYTE   W12
        BYTE   PEND
// 042   ----------------------------------------
        BYTE   PATT
         POIN2  RandomDungeon3_6_2
// 043   ----------------------------------------
        BYTE           N06     Dn2   v110
        BYTE   GoTo
         POIN2  RandomDungeon3_6_LOOP
        BYTE   W36
        BYTE                   Dn2
        BYTE   W24
        BYTE                   Dn2
        BYTE   W24
        BYTE                   Dn2
        BYTE   W12
// 044   ----------------------------------------
        BYTE   PATT
         POIN2  RandomDungeon3_6_2
// 045   ----------------------------------------
        BYTE   PATT
         POIN2  RandomDungeon3_6_2
// 046   ----------------------------------------
        BYTE   PATT
         POIN2  RandomDungeon3_6_2
// 047   ----------------------------------------
        BYTE   PATT
         POIN2  RandomDungeon3_6_2
// 048   ----------------------------------------
        BYTE   PATT
         POIN2  RandomDungeon3_6_2
// 049   ----------------------------------------
        BYTE   PATT
         POIN2  RandomDungeon3_6_11
// 050   ----------------------------------------
        BYTE   PATT
         POIN2  RandomDungeon3_6_12
// 051   ----------------------------------------
        BYTE   PATT
         POIN2  RandomDungeon3_6_2
// 052   ----------------------------------------
        BYTE   PATT
         POIN2  RandomDungeon3_6_2
// 053   ----------------------------------------
        BYTE   PATT
         POIN2  RandomDungeon3_6_2
// 054   ----------------------------------------
        BYTE   PATT
         POIN2  RandomDungeon3_6_2
// 055   ----------------------------------------
        BYTE   PATT
         POIN2  RandomDungeon3_6_2
// 056   ----------------------------------------
        BYTE   PATT
         POIN2  RandomDungeon3_6_2
// 057   ----------------------------------------
        BYTE   PATT
         POIN2  RandomDungeon3_6_11
// 058   ----------------------------------------
        BYTE   PATT
         POIN2  RandomDungeon3_6_12
// 059   ----------------------------------------
        BYTE   PATT
         POIN2  RandomDungeon3_6_21
// 060   ----------------------------------------
        BYTE   PATT
         POIN2  RandomDungeon3_6_22
// 061   ----------------------------------------
        BYTE   PATT
         POIN2  RandomDungeon3_6_23
// 062   ----------------------------------------
        BYTE   PATT
         POIN2  RandomDungeon3_6_23
// 063   ----------------------------------------
        BYTE   PATT
         POIN2  RandomDungeon3_6_25
// 064   ----------------------------------------
        BYTE   PATT
         POIN2  RandomDungeon3_6_25
// 065   ----------------------------------------
        BYTE   PATT
         POIN2  RandomDungeon3_6_27
// 066   ----------------------------------------
        BYTE   PATT
         POIN2  RandomDungeon3_6_27
// 067   ----------------------------------------
        BYTE   PATT
         POIN2  RandomDungeon3_6_29
// 068   ----------------------------------------
        BYTE   PATT
         POIN2  RandomDungeon3_6_29
// 069   ----------------------------------------
        BYTE   PATT
         POIN2  RandomDungeon3_6_31
// 070   ----------------------------------------
        BYTE   PATT
         POIN2  RandomDungeon3_6_32
// 071   ----------------------------------------
        BYTE   PATT
         POIN2  RandomDungeon3_6_33
// 072   ----------------------------------------
        BYTE   PATT
         POIN2  RandomDungeon3_6_34
// 073   ----------------------------------------
        BYTE   PATT
         POIN2  RandomDungeon3_6_35
// 074   ----------------------------------------
        BYTE   PATT
         POIN2  RandomDungeon3_6_36
// 075   ----------------------------------------
        BYTE   PATT
         POIN2  RandomDungeon3_6_37
// 076   ----------------------------------------
        BYTE   PATT
         POIN2  RandomDungeon3_6_38
// 077   ----------------------------------------
        BYTE   PATT
         POIN2  RandomDungeon3_6_39
// 078   ----------------------------------------
        BYTE   PATT
         POIN2  RandomDungeon3_6_2
// 079   ----------------------------------------
        BYTE   PATT
         POIN2  RandomDungeon3_6_41
// 080   ----------------------------------------
        BYTE   PATT
         POIN2  RandomDungeon3_6_2
// 081   ----------------------------------------
        BYTE   FINE

//****************** Track 7 (Midi-Chn.7) ******************//

RandomDungeon3_7:
        BYTE   KEYSH   RandomDungeon3_key+0
// 000   ----------------------------------------
        BYTE   W24
// 001   ----------------------------------------
        BYTE           VOL     26
        BYTE           VOICE   48
        BYTE   W06
        BYTE           N06     Fs3   v110
        BYTE   W06
        BYTE                   Dn1   v127
        BYTE   W06
        BYTE                   Fs3   v074
        BYTE   W12
        BYTE                   Fs3
        BYTE   W12
        BYTE                   Gn3   v110
        BYTE   W06
        BYTE                   Dn1   v127
        BYTE   W06
        BYTE                   Gn3   v074
        BYTE   W12
        BYTE                   Gn3   v110
        BYTE   W06
        BYTE                   Dn1   v127
        BYTE   W06
        BYTE                   Gn3   v074
        BYTE   W12
        BYTE                   Gn3   v110
        BYTE   W06
// 002   ----------------------------------------
RandomDungeon3_7_2:
        BYTE           N06     Dn1   v127
        BYTE   W06
        BYTE                   Fs3   v110
        BYTE   W06
        BYTE                   Dn1   v127
        BYTE   W06
        BYTE                   Fs3   v074
        BYTE   W12
        BYTE                   Fs3
        BYTE   W12
        BYTE                   En3   v110
        BYTE   W06
        BYTE                   Dn1   v127
        BYTE   W06
        BYTE                   En3   v074
        BYTE   W12
        BYTE                   En3   v110
        BYTE   W06
        BYTE                   Dn1   v127
        BYTE   W06
        BYTE                   En3   v074
        BYTE   W12
        BYTE                   En3   v110
        BYTE   W06
        BYTE   PEND
// 003   ----------------------------------------
        BYTE                   Dn1   v127
        BYTE   W06
        BYTE                   Fs3   v110
        BYTE   W06
        BYTE                   Dn1   v127
        BYTE   W06
        BYTE                   Fs3   v074
        BYTE   W12
        BYTE                   Fs3
        BYTE   W12
        BYTE                   Gn3   v110
        BYTE   W06
        BYTE                   Dn1   v127
        BYTE   W06
        BYTE                   Gn3   v074
        BYTE   W12
        BYTE                   Gn3   v110
        BYTE   W06
        BYTE                   Dn1   v127
        BYTE   W06
        BYTE                   Gn3   v074
        BYTE   W12
        BYTE                   Gn3   v110
        BYTE   W06
// 004   ----------------------------------------
        BYTE   PATT
         POIN2  RandomDungeon3_7_2
// 005   ----------------------------------------
RandomDungeon3_7_LOOP:
        BYTE           N06     Dn1   v127
        BYTE   W06
        BYTE                   Dn3   v110
        BYTE   W06
        BYTE                   Dn1   v127
        BYTE   W06
        BYTE                   Dn3   v074
        BYTE   W12
        BYTE                   Dn3
        BYTE   W12
        BYTE                   Dn3   v110
        BYTE   W06
        BYTE                   Dn1   v127
        BYTE   W06
        BYTE                   Dn3   v074
        BYTE   W12
        BYTE                   Dn3   v110
        BYTE   W06
        BYTE                   Dn1   v127
        BYTE   W06
        BYTE                   Dn3   v074
        BYTE   W12
        BYTE                   Dn3   v110
        BYTE   W06
// 006   ----------------------------------------
RandomDungeon3_7_6:
        BYTE           N06     Dn1   v127
        BYTE   W06
        BYTE                   Dn3   v110
        BYTE   W06
        BYTE                   Dn1   v127
        BYTE   W06
        BYTE                   Dn3   v074
        BYTE   W12
        BYTE                   Dn3
        BYTE   W12
        BYTE                   Cn3   v110
        BYTE   W06
        BYTE                   Dn1   v127
        BYTE   W06
        BYTE                   Cn3   v074
        BYTE   W12
        BYTE                   Cn3   v110
        BYTE   W06
        BYTE                   Dn1   v127
        BYTE   W06
        BYTE                   Cn3   v074
        BYTE   W12
        BYTE                   Cn3   v110
        BYTE   W06
        BYTE   PEND
// 007   ----------------------------------------
RandomDungeon3_7_7:
        BYTE           N06     Dn1   v127
        BYTE   W06
        BYTE                   Dn3   v110
        BYTE   W06
        BYTE                   Dn1   v127
        BYTE   W06
        BYTE                   Dn3   v074
        BYTE   W12
        BYTE                   Dn3
        BYTE   W12
        BYTE                   Dn3   v110
        BYTE   W06
        BYTE                   Dn1   v127
        BYTE   W06
        BYTE                   Dn3   v074
        BYTE   W12
        BYTE                   Dn3   v110
        BYTE   W06
        BYTE                   Dn1   v127
        BYTE   W06
        BYTE                   Dn3   v074
        BYTE   W12
        BYTE                   Dn3   v110
        BYTE   W06
        BYTE   PEND
// 008   ----------------------------------------
        BYTE   PATT
         POIN2  RandomDungeon3_7_6
// 009   ----------------------------------------
        BYTE   PATT
         POIN2  RandomDungeon3_7_7
// 010   ----------------------------------------
        BYTE   PATT
         POIN2  RandomDungeon3_7_6
// 011   ----------------------------------------
RandomDungeon3_7_11:
        BYTE           N06     Dn1   v127
        BYTE   W06
        BYTE                   Dn3   v110
        BYTE   W06
        BYTE                   Gn1   v127
        BYTE   W06
        BYTE                   Dn3   v074
        BYTE   W12
        BYTE                   Dn3
        BYTE   W12
        BYTE                   Dn3   v110
        BYTE   W06
        BYTE                   Dn1   v127
        BYTE   W06
        BYTE                   Dn3   v074
        BYTE   W12
        BYTE                   Dn3   v110
        BYTE   W06
        BYTE                   Dn1   v127
        BYTE   W06
        BYTE                   Dn3   v074
        BYTE   W12
        BYTE                   Dn3   v110
        BYTE   W06
        BYTE   PEND
// 012   ----------------------------------------
        BYTE   PATT
         POIN2  RandomDungeon3_7_7
// 013   ----------------------------------------
        BYTE   W96
// 014   ----------------------------------------
        BYTE   W96
// 015   ----------------------------------------
        BYTE   W96
// 016   ----------------------------------------
        BYTE   W96
// 017   ----------------------------------------
        BYTE   W96
// 018   ----------------------------------------
        BYTE   W96
// 019   ----------------------------------------
        BYTE   W96
// 020   ----------------------------------------
        BYTE   W96
// 021   ----------------------------------------
        BYTE   W72
        BYTE           VOL     41
        BYTE   W24
// 022   ----------------------------------------
RandomDungeon3_7_22:
        BYTE   W60
        BYTE   W03
        BYTE           VOL     36
        BYTE   W09
        BYTE           N24     An2   v127
        BYTE   W12
        BYTE           VOL     37
        BYTE   W12
        BYTE   PEND
// 023   ----------------------------------------
RandomDungeon3_7_23:
        BYTE           N60     Bn2   v127
        BYTE   W24
        BYTE           VOL     38
        BYTE   W12
        BYTE                   39
        BYTE   W18
        BYTE                   40
        BYTE   W06
        BYTE                   41
        BYTE           N12     Dn3
        BYTE   W12
        BYTE                   Cs3
        BYTE   W12
        BYTE                   Dn3
        BYTE   W12
        BYTE   PEND
// 024   ----------------------------------------
RandomDungeon3_7_24:
        BYTE           N24     Cs3   v127
        BYTE   W24
        BYTE           N48     Bn2
        BYTE   W48
        BYTE           N24     An2
        BYTE   W24
        BYTE   PEND
// 025   ----------------------------------------
RandomDungeon3_7_25:
        BYTE           N24     Gn2   v127
        BYTE   W24
        BYTE                   An2
        BYTE   W24
        BYTE           N36     En3
        BYTE   W36
        BYTE           N12     An2
        BYTE   W12
        BYTE   PEND
// 026   ----------------------------------------
RandomDungeon3_7_26:
        BYTE           N72     En3   v127
        BYTE   W24
        BYTE           VOL     40
        BYTE   W09
        BYTE                   39
        BYTE   W21
        BYTE                   38
        BYTE   W06
        BYTE                   37
        BYTE   W12
        BYTE                   36
        BYTE           N24     Cn3
        BYTE   W03
        BYTE           VOL     37
        BYTE   W03
        BYTE                   38
        BYTE   W03
        BYTE                   39
        BYTE   W12
        BYTE                   40
        BYTE   W03
        BYTE   PEND
// 027   ----------------------------------------
RandomDungeon3_7_27:
        BYTE           N60     Gn3   v127
        BYTE   W03
        BYTE           VOL     41
        BYTE   W56
        BYTE   W01
        BYTE           N12     As3
        BYTE   W12
        BYTE                   An3
        BYTE   W12
        BYTE                   As3
        BYTE   W12
        BYTE   PEND
// 028   ----------------------------------------
RandomDungeon3_7_28:
        BYTE           N24     An3   v127
        BYTE   W24
        BYTE           N48     Gn3
        BYTE   W48
        BYTE           N24     Fn3
        BYTE   W24
        BYTE   PEND
// 029   ----------------------------------------
RandomDungeon3_7_29:
        BYTE           N24     Ds3   v127
        BYTE   W24
        BYTE                   Fn3
        BYTE   W24
        BYTE           N36     Cn4
        BYTE   W36
        BYTE           N12     Fn3
        BYTE   W12
        BYTE   PEND
// 030   ----------------------------------------
RandomDungeon3_7_30:
        BYTE           N96     Cn4   v127
        BYTE   W15
        BYTE           VOL     40
        BYTE   W18
        BYTE                   39
        BYTE   W15
        BYTE                   38
        BYTE   W03
        BYTE                   37
        BYTE   W09
        BYTE                   36
        BYTE   W03
        BYTE                   35
        BYTE   W06
        BYTE                   34
        BYTE   W06
        BYTE                   33
        BYTE   W03
        BYTE                   32
        BYTE   W03
        BYTE                   31
        BYTE   W06
        BYTE                   30
        BYTE   W03
        BYTE                   29
        BYTE   W03
        BYTE                   28
        BYTE   W03
        BYTE   PEND
// 031   ----------------------------------------
RandomDungeon3_7_31:
        BYTE           N96     Gn3   v100
        BYTE   W03
        BYTE           VOL     30
        BYTE   W03
        BYTE                   32
        BYTE   W06
        BYTE                   33
        BYTE   W03
        BYTE                   34
        BYTE   W06
        BYTE                   35
        BYTE   W06
        BYTE                   36
        BYTE   W06
        BYTE                   37
        BYTE   W09
        BYTE                   38
        BYTE   W06
        BYTE                   39
        BYTE   W12
        BYTE                   40
        BYTE   W06
        BYTE                   41
        BYTE   W30
        BYTE   PEND
// 032   ----------------------------------------
RandomDungeon3_7_32:
        BYTE           N48     Fs3   v100
        BYTE   W48
        BYTE                   En3
        BYTE   W48
        BYTE   PEND
// 033   ----------------------------------------
RandomDungeon3_7_33:
        BYTE           N48     Dn3   v100
        BYTE   W48
        BYTE                   Cn3
        BYTE   W48
        BYTE   PEND
// 034   ----------------------------------------
RandomDungeon3_7_34:
        BYTE           N48     As2   v100
        BYTE   W48
        BYTE                   An2
        BYTE   W48
        BYTE   PEND
// 035   ----------------------------------------
        BYTE           N96     Gn2
        BYTE   W96
// 036   ----------------------------------------
        BYTE                   An2
        BYTE   W96
// 037   ----------------------------------------
RandomDungeon3_7_37:
        BYTE           N12     As2   v106
        BYTE   W12
        BYTE                   Cn3   v111
        BYTE   W12
        BYTE                   Dn3   v113
        BYTE   W12
        BYTE                   Ds3   v115
        BYTE   W12
        BYTE                   Fn3   v117
        BYTE   W12
        BYTE                   Gn3   v118
        BYTE   W12
        BYTE                   Gs3   v119
        BYTE   W12
        BYTE                   As3   v120
        BYTE   W12
        BYTE   PEND
// 038   ----------------------------------------
RandomDungeon3_7_38:
        BYTE           N12     Fn3   v121
        BYTE   W12
        BYTE                   Gn3   v122
        BYTE   W12
        BYTE                   Gs3   v123
        BYTE   W12
        BYTE                   As3   v124
        BYTE   W12
        BYTE                   Cn4   v125
        BYTE   W12
        BYTE                   Dn4
        BYTE   W12
        BYTE                   En4   v127
        BYTE   W12
        BYTE                   Cn4
        BYTE   W12
        BYTE   PEND
// 039   ----------------------------------------
        BYTE   W96
// 040   ----------------------------------------
        BYTE           VOL     18
        BYTE   W96
// 041   ----------------------------------------
        BYTE   W96
// 042   ----------------------------------------
        BYTE   W96
// 043   ----------------------------------------
        BYTE           N06     Dn1
        BYTE           VOL     26
        BYTE   GoTo
         POIN2  RandomDungeon3_7_LOOP
        BYTE   W06
        BYTE           N06     Dn3   v110
        BYTE   W06
        BYTE                   Dn1   v127
        BYTE   W06
        BYTE                   Dn3   v074
        BYTE   W12
        BYTE                   Dn3
        BYTE   W12
        BYTE                   Dn3   v110
        BYTE   W06
        BYTE                   Dn1   v127
        BYTE   W06
        BYTE                   Dn3   v074
        BYTE   W12
        BYTE                   Dn3   v110
        BYTE   W06
        BYTE                   Dn1   v127
        BYTE   W06
        BYTE                   Dn3   v074
        BYTE   W12
        BYTE                   Dn3   v110
        BYTE   W06
// 044   ----------------------------------------
        BYTE   PATT
         POIN2  RandomDungeon3_7_6
// 045   ----------------------------------------
        BYTE   PATT
         POIN2  RandomDungeon3_7_7
// 046   ----------------------------------------
        BYTE   PATT
         POIN2  RandomDungeon3_7_6
// 047   ----------------------------------------
        BYTE   PATT
         POIN2  RandomDungeon3_7_7
// 048   ----------------------------------------
        BYTE   PATT
         POIN2  RandomDungeon3_7_6
// 049   ----------------------------------------
        BYTE   PATT
         POIN2  RandomDungeon3_7_11
// 050   ----------------------------------------
        BYTE   PATT
         POIN2  RandomDungeon3_7_7
// 051   ----------------------------------------
        BYTE   W96
// 052   ----------------------------------------
        BYTE   W96
// 053   ----------------------------------------
        BYTE   W96
// 054   ----------------------------------------
        BYTE   W96
// 055   ----------------------------------------
        BYTE   W96
// 056   ----------------------------------------
        BYTE   W96
// 057   ----------------------------------------
        BYTE   W96
// 058   ----------------------------------------
        BYTE   W96
// 059   ----------------------------------------
        BYTE   W72
        BYTE           VOL     41
        BYTE   W24
// 060   ----------------------------------------
        BYTE   PATT
         POIN2  RandomDungeon3_7_22
// 061   ----------------------------------------
        BYTE   PATT
         POIN2  RandomDungeon3_7_23
// 062   ----------------------------------------
        BYTE   PATT
         POIN2  RandomDungeon3_7_24
// 063   ----------------------------------------
        BYTE   PATT
         POIN2  RandomDungeon3_7_25
// 064   ----------------------------------------
        BYTE   PATT
         POIN2  RandomDungeon3_7_26
// 065   ----------------------------------------
        BYTE   PATT
         POIN2  RandomDungeon3_7_27
// 066   ----------------------------------------
        BYTE   PATT
         POIN2  RandomDungeon3_7_28
// 067   ----------------------------------------
        BYTE   PATT
         POIN2  RandomDungeon3_7_29
// 068   ----------------------------------------
        BYTE   PATT
         POIN2  RandomDungeon3_7_30
// 069   ----------------------------------------
        BYTE   PATT
         POIN2  RandomDungeon3_7_31
// 070   ----------------------------------------
        BYTE   PATT
         POIN2  RandomDungeon3_7_32
// 071   ----------------------------------------
        BYTE   PATT
         POIN2  RandomDungeon3_7_33
// 072   ----------------------------------------
        BYTE   PATT
         POIN2  RandomDungeon3_7_34
// 073   ----------------------------------------
        BYTE           N96     Gn2   v100
        BYTE   W96
// 074   ----------------------------------------
        BYTE                   An2
        BYTE   W96
// 075   ----------------------------------------
        BYTE   PATT
         POIN2  RandomDungeon3_7_37
// 076   ----------------------------------------
        BYTE   PATT
         POIN2  RandomDungeon3_7_38
// 077   ----------------------------------------
        BYTE   W96
// 078   ----------------------------------------
        BYTE           VOL     18
        BYTE   W96
// 079   ----------------------------------------
        BYTE   W96
// 080   ----------------------------------------
        BYTE   W96
// 081   ----------------------------------------
        BYTE   FINE

//****************** Track 8 (Midi-Chn.8) ******************//

RandomDungeon3_8:
        BYTE   KEYSH   RandomDungeon3_key+0
// 000   ----------------------------------------
        BYTE   W24
// 001   ----------------------------------------
        BYTE           PAN     c_v-64
        BYTE           VOL     18
        BYTE           VOICE   48
        BYTE   W06
        BYTE           N06     Dn3   v110
        BYTE   W12
        BYTE                   Dn3   v074
        BYTE   W12
        BYTE                   Dn3
        BYTE   W12
        BYTE                   Dn3   v110
        BYTE   W12
        BYTE                   Dn3   v074
        BYTE   W12
        BYTE                   Dn3   v110
        BYTE   W12
        BYTE                   Dn3   v074
        BYTE   W12
        BYTE                   Dn3   v110
        BYTE   W06
// 002   ----------------------------------------
RandomDungeon3_8_2:
        BYTE   W06
        BYTE           N06     Dn3   v110
        BYTE   W12
        BYTE                   Dn3   v074
        BYTE   W12
        BYTE                   Dn3
        BYTE   W12
        BYTE                   Cn3   v110
        BYTE   W12
        BYTE                   Cn3   v074
        BYTE   W12
        BYTE                   Cn3   v110
        BYTE   W12
        BYTE                   Cn3   v074
        BYTE   W12
        BYTE                   Cn3   v110
        BYTE   W06
        BYTE   PEND
// 003   ----------------------------------------
        BYTE   W06
        BYTE                   Dn3
        BYTE   W12
        BYTE                   Dn3   v074
        BYTE   W12
        BYTE                   Dn3
        BYTE   W12
        BYTE                   Dn3   v110
        BYTE   W12
        BYTE                   Dn3   v074
        BYTE   W12
        BYTE                   Dn3   v110
        BYTE   W12
        BYTE                   Dn3   v074
        BYTE   W12
        BYTE                   Dn3   v110
        BYTE   W06
// 004   ----------------------------------------
        BYTE   PATT
         POIN2  RandomDungeon3_8_2
// 005   ----------------------------------------
RandomDungeon3_8_LOOP:
        BYTE   W06
        BYTE           N06     An2   v110
        BYTE   W12
        BYTE                   An2   v074
        BYTE   W12
        BYTE                   An2
        BYTE   W12
        BYTE                   An2   v110
        BYTE   W12
        BYTE                   An2   v074
        BYTE   W12
        BYTE                   An2   v110
        BYTE   W12
        BYTE                   An2   v074
        BYTE   W12
        BYTE                   An2   v110
        BYTE   W06
// 006   ----------------------------------------
RandomDungeon3_8_6:
        BYTE   W06
        BYTE           N06     An2   v110
        BYTE   W12
        BYTE                   An2   v074
        BYTE   W12
        BYTE                   An2
        BYTE   W12
        BYTE                   Gn2   v110
        BYTE   W12
        BYTE                   Gn2   v074
        BYTE   W12
        BYTE                   Gn2   v110
        BYTE   W12
        BYTE                   Gn2   v074
        BYTE   W12
        BYTE                   Gn2   v110
        BYTE   W06
        BYTE   PEND
// 007   ----------------------------------------
RandomDungeon3_8_7:
        BYTE   W06
        BYTE           N06     An2   v110
        BYTE   W12
        BYTE                   An2   v074
        BYTE   W12
        BYTE                   An2
        BYTE   W12
        BYTE                   An2   v110
        BYTE   W12
        BYTE                   An2   v074
        BYTE   W12
        BYTE                   An2   v110
        BYTE   W12
        BYTE                   An2   v074
        BYTE   W12
        BYTE                   An2   v110
        BYTE   W06
        BYTE   PEND
// 008   ----------------------------------------
        BYTE   PATT
         POIN2  RandomDungeon3_8_6
// 009   ----------------------------------------
        BYTE   PATT
         POIN2  RandomDungeon3_8_7
// 010   ----------------------------------------
        BYTE   PATT
         POIN2  RandomDungeon3_8_6
// 011   ----------------------------------------
RandomDungeon3_8_11:
        BYTE   W06
        BYTE           N06     Bn2   v110
        BYTE   W12
        BYTE                   Bn2   v074
        BYTE   W12
        BYTE                   Bn2
        BYTE   W12
        BYTE                   An2   v110
        BYTE   W12
        BYTE                   An2   v074
        BYTE   W12
        BYTE                   An2   v110
        BYTE   W12
        BYTE                   An2   v074
        BYTE   W12
        BYTE                   An2   v110
        BYTE   W06
        BYTE   PEND
// 012   ----------------------------------------
RandomDungeon3_8_12:
        BYTE   W06
        BYTE           N06     Gn2   v110
        BYTE   W12
        BYTE                   Gn2   v074
        BYTE   W12
        BYTE                   Gn2
        BYTE   W12
        BYTE                   An2   v110
        BYTE   W12
        BYTE                   An2   v074
        BYTE   W12
        BYTE                   An2   v110
        BYTE   W12
        BYTE                   An2   v074
        BYTE   W12
        BYTE                   An2   v110
        BYTE   W06
        BYTE   PEND
// 013   ----------------------------------------
        BYTE   W96
// 014   ----------------------------------------
        BYTE   W96
// 015   ----------------------------------------
        BYTE   W96
// 016   ----------------------------------------
        BYTE   W96
// 017   ----------------------------------------
        BYTE   W96
// 018   ----------------------------------------
        BYTE   W96
// 019   ----------------------------------------
        BYTE   W96
// 020   ----------------------------------------
        BYTE   W96
// 021   ----------------------------------------
        BYTE   W96
// 022   ----------------------------------------
RandomDungeon3_8_22:
        BYTE   W72
        BYTE   W03
        BYTE           VOL     16
        BYTE   W09
        BYTE           N24     An2   v127
        BYTE   W12
        BYTE   PEND
// 023   ----------------------------------------
RandomDungeon3_8_23:
        BYTE   W12
        BYTE           N60     Bn2   v127
        BYTE   W09
        BYTE           VOL     17
        BYTE   W36
        BYTE   W03
        BYTE                   18
        BYTE   W12
        BYTE           N12     Dn3
        BYTE   W12
        BYTE                   Cs3
        BYTE   W12
        BYTE   PEND
// 024   ----------------------------------------
RandomDungeon3_8_24:
        BYTE           N12     Dn3   v127
        BYTE   W12
        BYTE           N24     Cs3
        BYTE   W24
        BYTE           N48     Bn2
        BYTE   W48
        BYTE           N24     An2
        BYTE   W12
        BYTE   PEND
// 025   ----------------------------------------
RandomDungeon3_8_25:
        BYTE   W12
        BYTE           N24     Gn2   v127
        BYTE   W24
        BYTE                   An2
        BYTE   W24
        BYTE           N36     En3
        BYTE   W36
        BYTE   PEND
// 026   ----------------------------------------
RandomDungeon3_8_26:
        BYTE           N12     An2   v127
        BYTE   W12
        BYTE           N72     En3
        BYTE   W36
        BYTE   W03
        BYTE           VOL     17
        BYTE   W24
        BYTE   W03
        BYTE                   16
        BYTE   W06
        BYTE           N24     Cn3
        BYTE   W03
        BYTE           VOL     17
        BYTE   W09
        BYTE   PEND
// 027   ----------------------------------------
RandomDungeon3_8_27:
        BYTE   W06
        BYTE           VOL     18
        BYTE   W06
        BYTE           N60     Gn3   v127
        BYTE   W60
        BYTE           N12     As3
        BYTE   W12
        BYTE                   An3
        BYTE   W12
        BYTE   PEND
// 028   ----------------------------------------
RandomDungeon3_8_28:
        BYTE           N12     As3   v127
        BYTE   W12
        BYTE           N24     An3
        BYTE   W24
        BYTE           N48     Gn3
        BYTE   W48
        BYTE           N24     Fn3
        BYTE   W12
        BYTE   PEND
// 029   ----------------------------------------
RandomDungeon3_8_29:
        BYTE   W12
        BYTE           N24     Ds3   v127
        BYTE   W24
        BYTE                   Fn3
        BYTE   W24
        BYTE           N36     Cn4
        BYTE   W36
        BYTE   PEND
// 030   ----------------------------------------
RandomDungeon3_8_30:
        BYTE           N12     Fn3   v127
        BYTE   W12
        BYTE           N96     Cn4
        BYTE   W36
        BYTE           VOL     17
        BYTE   W21
        BYTE                   16
        BYTE   W12
        BYTE                   15
        BYTE   W12
        BYTE                   14
        BYTE   W03
        BYTE   PEND
// 031   ----------------------------------------
RandomDungeon3_8_31:
        BYTE   W03
        BYTE           VOL     13
        BYTE   W09
        BYTE                   12
        BYTE           N96     Gn3   v100
        BYTE   W03
        BYTE           VOL     14
        BYTE   W06
        BYTE                   15
        BYTE   W12
        BYTE                   16
        BYTE   W15
        BYTE                   17
        BYTE   W21
        BYTE                   18
        BYTE   W24
        BYTE   W03
        BYTE   PEND
// 032   ----------------------------------------
RandomDungeon3_8_32:
        BYTE   W12
        BYTE           N48     Fs3   v100
        BYTE   W48
        BYTE                   En3
        BYTE   W36
        BYTE   PEND
// 033   ----------------------------------------
RandomDungeon3_8_33:
        BYTE   W12
        BYTE           N48     Dn3   v100
        BYTE   W48
        BYTE                   Cn3
        BYTE   W36
        BYTE   PEND
// 034   ----------------------------------------
RandomDungeon3_8_34:
        BYTE   W12
        BYTE           N48     As2   v100
        BYTE   W48
        BYTE                   An2
        BYTE   W36
        BYTE   PEND
// 035   ----------------------------------------
RandomDungeon3_8_35:
        BYTE   W12
        BYTE           N96     Gn2   v100
        BYTE   W84
        BYTE   PEND
// 036   ----------------------------------------
RandomDungeon3_8_36:
        BYTE   W12
        BYTE           N96     An2   v100
        BYTE   W84
        BYTE   PEND
// 037   ----------------------------------------
RandomDungeon3_8_37:
        BYTE   W12
        BYTE           N12     As2   v106
        BYTE   W12
        BYTE                   Cn3   v111
        BYTE   W12
        BYTE                   Dn3   v113
        BYTE   W12
        BYTE                   Ds3   v115
        BYTE   W12
        BYTE                   Fn3   v117
        BYTE   W12
        BYTE                   Gn3   v118
        BYTE   W12
        BYTE                   Gs3   v119
        BYTE   W12
        BYTE   PEND
// 038   ----------------------------------------
RandomDungeon3_8_38:
        BYTE           N12     As3   v120
        BYTE   W12
        BYTE                   Fn3   v121
        BYTE   W12
        BYTE                   Gn3   v122
        BYTE   W12
        BYTE                   Gs3   v123
        BYTE   W12
        BYTE                   As3   v124
        BYTE   W12
        BYTE                   Cn4   v125
        BYTE   W12
        BYTE                   Dn4
        BYTE   W12
        BYTE                   En4   v127
        BYTE   W12
        BYTE   PEND
// 039   ----------------------------------------
        BYTE                   Cn4
        BYTE   W96
// 040   ----------------------------------------
        BYTE           PAN     c_v-54
        BYTE   W96
// 041   ----------------------------------------
        BYTE   W96
// 042   ----------------------------------------
        BYTE   W96
// 043   ----------------------------------------
        BYTE                   c_v-64
        BYTE   GoTo
         POIN2  RandomDungeon3_8_LOOP
        BYTE   W06
        BYTE           N06     An2   v110
        BYTE   W12
        BYTE                   An2   v074
        BYTE   W12
        BYTE                   An2
        BYTE   W12
        BYTE                   An2   v110
        BYTE   W12
        BYTE                   An2   v074
        BYTE   W12
        BYTE                   An2   v110
        BYTE   W12
        BYTE                   An2   v074
        BYTE   W12
        BYTE                   An2   v110
        BYTE   W06
// 044   ----------------------------------------
        BYTE   PATT
         POIN2  RandomDungeon3_8_6
// 045   ----------------------------------------
        BYTE   PATT
         POIN2  RandomDungeon3_8_7
// 046   ----------------------------------------
        BYTE   PATT
         POIN2  RandomDungeon3_8_6
// 047   ----------------------------------------
        BYTE   PATT
         POIN2  RandomDungeon3_8_7
// 048   ----------------------------------------
        BYTE   PATT
         POIN2  RandomDungeon3_8_6
// 049   ----------------------------------------
        BYTE   PATT
         POIN2  RandomDungeon3_8_11
// 050   ----------------------------------------
        BYTE   PATT
         POIN2  RandomDungeon3_8_12
// 051   ----------------------------------------
        BYTE   W96
// 052   ----------------------------------------
        BYTE   W96
// 053   ----------------------------------------
        BYTE   W96
// 054   ----------------------------------------
        BYTE   W96
// 055   ----------------------------------------
        BYTE   W96
// 056   ----------------------------------------
        BYTE   W96
// 057   ----------------------------------------
        BYTE   W96
// 058   ----------------------------------------
        BYTE   W96
// 059   ----------------------------------------
        BYTE   W96
// 060   ----------------------------------------
        BYTE   PATT
         POIN2  RandomDungeon3_8_22
// 061   ----------------------------------------
        BYTE   PATT
         POIN2  RandomDungeon3_8_23
// 062   ----------------------------------------
        BYTE   PATT
         POIN2  RandomDungeon3_8_24
// 063   ----------------------------------------
        BYTE   PATT
         POIN2  RandomDungeon3_8_25
// 064   ----------------------------------------
        BYTE   PATT
         POIN2  RandomDungeon3_8_26
// 065   ----------------------------------------
        BYTE   PATT
         POIN2  RandomDungeon3_8_27
// 066   ----------------------------------------
        BYTE   PATT
         POIN2  RandomDungeon3_8_28
// 067   ----------------------------------------
        BYTE   PATT
         POIN2  RandomDungeon3_8_29
// 068   ----------------------------------------
        BYTE   PATT
         POIN2  RandomDungeon3_8_30
// 069   ----------------------------------------
        BYTE   PATT
         POIN2  RandomDungeon3_8_31
// 070   ----------------------------------------
        BYTE   PATT
         POIN2  RandomDungeon3_8_32
// 071   ----------------------------------------
        BYTE   PATT
         POIN2  RandomDungeon3_8_33
// 072   ----------------------------------------
        BYTE   PATT
         POIN2  RandomDungeon3_8_34
// 073   ----------------------------------------
        BYTE   PATT
         POIN2  RandomDungeon3_8_35
// 074   ----------------------------------------
        BYTE   PATT
         POIN2  RandomDungeon3_8_36
// 075   ----------------------------------------
        BYTE   PATT
         POIN2  RandomDungeon3_8_37
// 076   ----------------------------------------
        BYTE   PATT
         POIN2  RandomDungeon3_8_38
// 077   ----------------------------------------
        BYTE           N12     Cn4   v127
        BYTE   W96
// 078   ----------------------------------------
        BYTE           PAN     c_v-54
        BYTE   W96
// 079   ----------------------------------------
        BYTE   W96
// 080   ----------------------------------------
        BYTE   W96
// 081   ----------------------------------------
        BYTE   FINE

//***************** Track 9 (Midi-Chn.11) ******************//

RandomDungeon3_9:
        BYTE   KEYSH   RandomDungeon3_key+0
// 000   ----------------------------------------
        BYTE   W24
// 001   ----------------------------------------
        BYTE           PAN     c_v+16
        BYTE           VOL     49
        BYTE           VOICE   47
        BYTE   W96
// 002   ----------------------------------------
        BYTE   W96
// 003   ----------------------------------------
RandomDungeon3_9_3:
        BYTE           N36     Dn1   v127
        BYTE   W36
        BYTE           N24
        BYTE   W24
        BYTE                   Dn1
        BYTE   W24
        BYTE           N12
        BYTE   W12
        BYTE   PEND
// 004   ----------------------------------------
        BYTE   PATT
         POIN2  RandomDungeon3_9_3
// 005   ----------------------------------------
RandomDungeon3_9_LOOP:
        BYTE           TIE     Dn1   v127
        BYTE   W96
// 006   ----------------------------------------
RandomDungeon3_9_6:
        BYTE   W84
        BYTE           EOT     Dn1
        BYTE           N12     An1   v127
        BYTE   W12
        BYTE   PEND
// 007   ----------------------------------------
        BYTE           TIE     Dn1
        BYTE   W96
// 008   ----------------------------------------
RandomDungeon3_9_8:
        BYTE   W72
        BYTE           EOT     Dn1
        BYTE           N06     An1   v127
        BYTE   W06
        BYTE                   An1
        BYTE   W06
        BYTE                   An1
        BYTE   W06
        BYTE                   An1
        BYTE   W06
        BYTE   PEND
// 009   ----------------------------------------
        BYTE           TIE     Dn1
        BYTE   W96
// 010   ----------------------------------------
        BYTE   PATT
         POIN2  RandomDungeon3_9_6
// 011   ----------------------------------------
        BYTE           TIE     Dn1   v127
        BYTE   W96
// 012   ----------------------------------------
        BYTE   PATT
         POIN2  RandomDungeon3_9_6
// 013   ----------------------------------------
        BYTE           TIE     Dn1   v127
        BYTE   W96
// 014   ----------------------------------------
        BYTE   PATT
         POIN2  RandomDungeon3_9_6
// 015   ----------------------------------------
        BYTE           TIE     Dn1   v127
        BYTE   W96
// 016   ----------------------------------------
        BYTE   PATT
         POIN2  RandomDungeon3_9_8
// 017   ----------------------------------------
        BYTE           TIE     Dn1   v127
        BYTE   W96
// 018   ----------------------------------------
        BYTE   PATT
         POIN2  RandomDungeon3_9_6
// 019   ----------------------------------------
RandomDungeon3_9_19:
        BYTE           N36     Gn1   v127
        BYTE   W36
        BYTE           N60     Dn1
        BYTE   W60
        BYTE   PEND
// 020   ----------------------------------------
RandomDungeon3_9_20:
        BYTE           N36     Dn1   v127
        BYTE   W36
        BYTE           N48
        BYTE   W48
        BYTE           N12     An1
        BYTE   W12
        BYTE   PEND
// 021   ----------------------------------------
RandomDungeon3_9_21:
        BYTE           N36     Gn1   v127
        BYTE   W36
        BYTE                   Dn1
        BYTE   W36
        BYTE           N24     An1
        BYTE   W24
        BYTE   PEND
// 022   ----------------------------------------
RandomDungeon3_9_22:
        BYTE           N18     Dn1   v127
        BYTE   W18
        BYTE           N06
        BYTE   W06
        BYTE           N12
        BYTE   W12
        BYTE           N24
        BYTE   W24
        BYTE           N12
        BYTE   W12
        BYTE           N06
        BYTE   W06
        BYTE           N18
        BYTE   W18
        BYTE   PEND
// 023   ----------------------------------------
RandomDungeon3_9_23:
        BYTE           N36     Gn1   v127
        BYTE   W36
        BYTE           N06     Gn1   v080
        BYTE   W06
        BYTE                   Gn1
        BYTE   W06
        BYTE                   Gn1
        BYTE   W06
        BYTE           N30
        BYTE   W30
        BYTE           N06
        BYTE   W06
        BYTE                   Gn1
        BYTE   W06
        BYTE   PEND
// 024   ----------------------------------------
RandomDungeon3_9_24:
        BYTE           N36     Gn1   v080
        BYTE   W36
        BYTE           N06
        BYTE   W06
        BYTE                   Gn1
        BYTE   W06
        BYTE           N36
        BYTE   W36
        BYTE           N12     Gn1   v127
        BYTE   W12
        BYTE   PEND
// 025   ----------------------------------------
RandomDungeon3_9_25:
        BYTE           N36     Fn1   v127
        BYTE   W36
        BYTE           N06     Fn1   v080
        BYTE   W06
        BYTE                   Fn1
        BYTE   W06
        BYTE           N36
        BYTE   W36
        BYTE           N06
        BYTE   W06
        BYTE                   Fn1
        BYTE   W06
        BYTE   PEND
// 026   ----------------------------------------
RandomDungeon3_9_26:
        BYTE           N36     Fn1   v080
        BYTE   W36
        BYTE           N06
        BYTE   W06
        BYTE                   Fn1
        BYTE   W06
        BYTE           N24
        BYTE   W24
        BYTE           N06     Fn1   v127
        BYTE   W06
        BYTE                   Fn1
        BYTE   W06
        BYTE                   Fn1
        BYTE   W06
        BYTE                   Fn1
        BYTE   W06
        BYTE   PEND
// 027   ----------------------------------------
RandomDungeon3_9_27:
        BYTE           N36     Ds1   v127
        BYTE   W36
        BYTE           N06     Ds1   v080
        BYTE   W06
        BYTE                   Ds1
        BYTE   W06
        BYTE           N36
        BYTE   W36
        BYTE           N06
        BYTE   W06
        BYTE                   Ds1
        BYTE   W06
        BYTE   PEND
// 028   ----------------------------------------
RandomDungeon3_9_28:
        BYTE           N36     Ds1   v080
        BYTE   W36
        BYTE           N06
        BYTE   W06
        BYTE                   Ds1
        BYTE   W06
        BYTE           N36
        BYTE   W36
        BYTE           N12     Ds1   v127
        BYTE   W12
        BYTE   PEND
// 029   ----------------------------------------
RandomDungeon3_9_29:
        BYTE           N36     Cs1   v127
        BYTE   W36
        BYTE           N06     Cs1   v080
        BYTE   W06
        BYTE                   Cs1
        BYTE   W06
        BYTE           N36
        BYTE   W36
        BYTE           N06
        BYTE   W06
        BYTE                   Cs1
        BYTE   W06
        BYTE   PEND
// 030   ----------------------------------------
RandomDungeon3_9_30:
        BYTE           N36     Cs1   v080
        BYTE   W36
        BYTE           N06
        BYTE   W06
        BYTE                   Cs1
        BYTE   W06
        BYTE           N24
        BYTE   W24
        BYTE           N06     Cs1   v127
        BYTE   W06
        BYTE                   Cs1
        BYTE   W06
        BYTE                   Cs1
        BYTE   W06
        BYTE                   Cs1
        BYTE   W06
        BYTE   PEND
// 031   ----------------------------------------
RandomDungeon3_9_31:
        BYTE           N36     Cn2   v127
        BYTE   W36
        BYTE           N24
        BYTE   W24
        BYTE                   Cn2
        BYTE   W24
        BYTE           N12     Gn1
        BYTE   W12
        BYTE   PEND
// 032   ----------------------------------------
        BYTE   PATT
         POIN2  RandomDungeon3_9_31
// 033   ----------------------------------------
RandomDungeon3_9_33:
        BYTE           N36     As1   v127
        BYTE   W36
        BYTE           N24
        BYTE   W24
        BYTE                   As1
        BYTE   W24
        BYTE           N12     Fn1
        BYTE   W12
        BYTE   PEND
// 034   ----------------------------------------
        BYTE   PATT
         POIN2  RandomDungeon3_9_33
// 035   ----------------------------------------
RandomDungeon3_9_35:
        BYTE           N36     Ds1   v127
        BYTE   W36
        BYTE           N24
        BYTE   W24
        BYTE                   Ds1
        BYTE   W24
        BYTE           N12     As1
        BYTE   W12
        BYTE   PEND
// 036   ----------------------------------------
RandomDungeon3_9_36:
        BYTE           N36     Fn1   v127
        BYTE   W36
        BYTE           N24
        BYTE   W24
        BYTE                   Fn1
        BYTE   W24
        BYTE           N12     Cn1
        BYTE   W12
        BYTE   PEND
// 037   ----------------------------------------
RandomDungeon3_9_37:
        BYTE           N36     Gs1   v127
        BYTE   W36
        BYTE           N24
        BYTE   W24
        BYTE                   Gs1
        BYTE   W24
        BYTE           N12     Ds1
        BYTE   W12
        BYTE   PEND
// 038   ----------------------------------------
RandomDungeon3_9_38:
        BYTE           N36     As1   v127
        BYTE   W36
        BYTE           N12
        BYTE   W12
        BYTE           N36     Cn2
        BYTE   W36
        BYTE           N12
        BYTE   W12
        BYTE   PEND
// 039   ----------------------------------------
RandomDungeon3_9_39:
        BYTE           N36     Dn2   v127
        BYTE   W36
        BYTE           N24
        BYTE   W24
        BYTE                   Dn2
        BYTE   W24
        BYTE           N12
        BYTE   W12
        BYTE   PEND
// 040   ----------------------------------------
        BYTE   PATT
         POIN2  RandomDungeon3_9_39
// 041   ----------------------------------------
        BYTE   PATT
         POIN2  RandomDungeon3_9_39
// 042   ----------------------------------------
        BYTE   PATT
         POIN2  RandomDungeon3_9_39
// 043   ----------------------------------------
        BYTE           TIE     Dn1   v127
        BYTE   GoTo
         POIN2  RandomDungeon3_9_LOOP
        BYTE   W96
// 044   ----------------------------------------
        BYTE   PATT
         POIN2  RandomDungeon3_9_6
// 045   ----------------------------------------
        BYTE           TIE     Dn1   v127
        BYTE   W96
// 046   ----------------------------------------
        BYTE   PATT
         POIN2  RandomDungeon3_9_8
// 047   ----------------------------------------
        BYTE           TIE     Dn1   v127
        BYTE   W96
// 048   ----------------------------------------
        BYTE   PATT
         POIN2  RandomDungeon3_9_6
// 049   ----------------------------------------
        BYTE           TIE     Dn1   v127
        BYTE   W96
// 050   ----------------------------------------
        BYTE   PATT
         POIN2  RandomDungeon3_9_6
// 051   ----------------------------------------
        BYTE           TIE     Dn1   v127
        BYTE   W96
// 052   ----------------------------------------
        BYTE   PATT
         POIN2  RandomDungeon3_9_6
// 053   ----------------------------------------
        BYTE           TIE     Dn1   v127
        BYTE   W96
// 054   ----------------------------------------
        BYTE   PATT
         POIN2  RandomDungeon3_9_8
// 055   ----------------------------------------
        BYTE           TIE     Dn1   v127
        BYTE   W96
// 056   ----------------------------------------
        BYTE   PATT
         POIN2  RandomDungeon3_9_6
// 057   ----------------------------------------
        BYTE   PATT
         POIN2  RandomDungeon3_9_19
// 058   ----------------------------------------
        BYTE   PATT
         POIN2  RandomDungeon3_9_20
// 059   ----------------------------------------
        BYTE   PATT
         POIN2  RandomDungeon3_9_21
// 060   ----------------------------------------
        BYTE   PATT
         POIN2  RandomDungeon3_9_22
// 061   ----------------------------------------
        BYTE   PATT
         POIN2  RandomDungeon3_9_23
// 062   ----------------------------------------
        BYTE   PATT
         POIN2  RandomDungeon3_9_24
// 063   ----------------------------------------
        BYTE   PATT
         POIN2  RandomDungeon3_9_25
// 064   ----------------------------------------
        BYTE   PATT
         POIN2  RandomDungeon3_9_26
// 065   ----------------------------------------
        BYTE   PATT
         POIN2  RandomDungeon3_9_27
// 066   ----------------------------------------
        BYTE   PATT
         POIN2  RandomDungeon3_9_28
// 067   ----------------------------------------
        BYTE   PATT
         POIN2  RandomDungeon3_9_29
// 068   ----------------------------------------
        BYTE   PATT
         POIN2  RandomDungeon3_9_30
// 069   ----------------------------------------
        BYTE   PATT
         POIN2  RandomDungeon3_9_31
// 070   ----------------------------------------
        BYTE   PATT
         POIN2  RandomDungeon3_9_31
// 071   ----------------------------------------
        BYTE   PATT
         POIN2  RandomDungeon3_9_33
// 072   ----------------------------------------
        BYTE   PATT
         POIN2  RandomDungeon3_9_33
// 073   ----------------------------------------
        BYTE   PATT
         POIN2  RandomDungeon3_9_35
// 074   ----------------------------------------
        BYTE   PATT
         POIN2  RandomDungeon3_9_36
// 075   ----------------------------------------
        BYTE   PATT
         POIN2  RandomDungeon3_9_37
// 076   ----------------------------------------
        BYTE   PATT
         POIN2  RandomDungeon3_9_38
// 077   ----------------------------------------
        BYTE   PATT
         POIN2  RandomDungeon3_9_39
// 078   ----------------------------------------
        BYTE   PATT
         POIN2  RandomDungeon3_9_39
// 079   ----------------------------------------
        BYTE   PATT
         POIN2  RandomDungeon3_9_39
// 080   ----------------------------------------
        BYTE   PATT
         POIN2  RandomDungeon3_9_39
// 081   ----------------------------------------
        BYTE   FINE


//********************** End of Song ***********************//

        ALIGN 4
RandomDungeon3:
        BYTE   10                      // Num Tracks
        BYTE   0                       // Unknown
        BYTE   RandomDungeon3_pri      // Priority
        BYTE   RandomDungeon3_rev      // Reverb

        POIN2   RandomDungeon3_grp     

        POIN2   RandomDungeon3_0
        POIN2   RandomDungeon3_1
        POIN2   RandomDungeon3_2
        POIN2   RandomDungeon3_3
        POIN2   RandomDungeon3_4
        POIN2   RandomDungeon3_5
        POIN2   RandomDungeon3_6
        POIN2   RandomDungeon3_7
        POIN2   RandomDungeon3_8
        POIN2   RandomDungeon3_9

        
